999
Dxf file generated by netDxf http://netdxf.codeplex.com, Copyright(C) 2014 Daniel Carvajal, Licensed under LGPL
0
SECTION
2
HEADER
9
$ACADVER
1
AC1015
9
$DWGCODEPAGE
3
ANSI_1252
9
$HANDSEED
5
224
9
$ANGBASE
50
0.0
9
$ANGDIR
70
0
9
$ATTMODE
70
1
9
$AUNITS
70
0
9
$AUPREC
70
0
9
$CECOLOR
62
256
9
$CELTSCALE
40
1.0
9
$CELTYPE
6
ByLayer
9
$CELWEIGHT
370
-1
9
$CLAYER
8
0
9
$CMLJUST
70
0
9
$CMLSCALE
40
20.0
9
$CMLSTYLE
2
Standard
9
$DIMSTYLE
2
Standard
9
$TEXTSIZE
40
2.5
9
$TEXTSTYLE
7
Standard
9
$LUNITS
70
2
9
$LUPREC
70
4
9
$EXTNAMES
290
1
9
$INSBASE
10
0.0
20
0.0
30
0.0
9
$INSUNITS
70
0
9
$LTSCALE
40
1.0
9
$LWDISPLAY
290
0
9
$PDMODE
70
0
9
$PDSIZE
40
0.0
9
$PLINEGEN
70
0
9
$TDCREATE
40
2457641.59494494
9
$TDUCREATE
40
2457641.51161163
9
$TDUPDATE
40
2457641.59494497
9
$TDUUPDATE
40
2457641.51161163
9
$TDINDWG
40
0.0
0
ENDSEC
0
SECTION
2
CLASSES
0
CLASS
1
RASTERVARIABLES
2
AcDbRasterVariables
3
ISM
90
0
280
0
281
0
0
ENDSEC
0
SECTION
2
TABLES
0
TABLE
2
APPID
5
3
330
0
100
AcDbSymbolTable
70
2
0
APPID
5
14
330
3
100
AcDbSymbolTableRecord
100
AcDbRegAppTableRecord
2
ACAD
70
0
0
APPID
5
21E
330
3
100
AcDbSymbolTableRecord
100
AcDbRegAppTableRecord
2
AcCmTransparency
70
0
0
ENDTAB
0
TABLE
2
VPORT
5
1
330
0
100
AcDbSymbolTable
70
1
0
VPORT
5
E
330
1
100
AcDbSymbolTableRecord
100
AcDbViewportTableRecord
2
*Active
70
0
10
0.0
20
0.0
11
1.0
21
1.0
12
-1.0
22
1.0
13
0.0
23
0.0
14
0.5
24
0.5
15
10.0
25
10.0
16
0.0
26
0.0
36
1.0
17
0.0
27
0.0
37
0.0
0
ENDTAB
0
TABLE
2
LTYPE
5
5
330
0
100
AcDbSymbolTable
70
3
0
LTYPE
5
10
330
5
100
AcDbSymbolTableRecord
100
AcDbLinetypeTableRecord
70
0
2
Continuous
3
Solid line
72
65
73
0
40
0.0
0
LTYPE
5
11
330
5
100
AcDbSymbolTableRecord
100
AcDbLinetypeTableRecord
70
0
2
ByLayer
3

72
65
73
0
40
0.0
0
LTYPE
5
12
330
5
100
AcDbSymbolTableRecord
100
AcDbLinetypeTableRecord
70
0
2
ByBlock
3

72
65
73
0
40
0.0
0
ENDTAB
0
TABLE
2
LAYER
5
4
330
0
100
AcDbSymbolTable
70
1
0
LAYER
5
F
330
4
100
AcDbSymbolTableRecord
100
AcDbLayerTableRecord
2
0
70
0
62
7
6
Continuous
290
1
370
-3
390
0
0
ENDTAB
0
TABLE
2
STYLE
5
6
330
0
100
AcDbSymbolTable
70
1
0
STYLE
5
13
330
6
100
AcDbSymbolTableRecord
100
AcDbTextStyleTableRecord
2
Standard
3
simplex.shx
70
0
71
0
40
0.0
41
1.0
42
0.0
50
0.0
0
ENDTAB
0
TABLE
2
DIMSTYLE
5
7
330
0
100
AcDbSymbolTable
70
1
100
AcDbDimStyleTable
0
DIMSTYLE
105
15
330
7
100
AcDbSymbolTableRecord
100
AcDbDimStyleTableRecord
2
Standard
70
0
3
<>
40
1.0
41
0.18
42
0.0625
43
0.38
44
0.18
46
0.0
73
0
74
0
75
0
76
0
77
1
140
0.18
141
0.09
147
0.09
173
0
176
0
177
0
178
0
179
0
271
2
275
0
278
46
280
0
340
13
345
12
346
12
347
12
371
-2
372
-2
0
ENDTAB
0
TABLE
2
VIEW
5
2
330
0
100
AcDbSymbolTable
70
0
0
ENDTAB
0
TABLE
2
UCS
5
9
330
0
100
AcDbSymbolTable
70
0
0
ENDTAB
0
TABLE
2
BLOCK_RECORD
5
A
330
0
100
AcDbSymbolTable
70
2
0
BLOCK_RECORD
5
17
330
A
100
AcDbSymbolTableRecord
100
AcDbBlockTableRecord
2
*Model_Space
340
1B
0
BLOCK_RECORD
5
218
330
A
100
AcDbSymbolTableRecord
100
AcDbBlockTableRecord
2
*Paper_Space
340
21D
0
ENDTAB
0
ENDSEC
0
SECTION
2
BLOCKS
0
BLOCK
5
19
330
17
100
AcDbEntity
8
0
100
AcDbBlockBegin
2
*Model_Space
70
0
10
0.0
20
0.0
30
0.0
3
*Model_Space
0
ENDBLK
5
18
330
17
100
AcDbEntity
8
0
100
AcDbBlockEnd
0
BLOCK
5
21A
330
218
100
AcDbEntity
8
0
100
AcDbBlockBegin
2
*Paper_Space
70
0
10
0.0
20
0.0
30
0.0
3
*Paper_Space
0
ENDBLK
5
219
330
218
100
AcDbEntity
8
0
100
AcDbBlockEnd
0
ENDSEC
0
SECTION
2
ENTITIES
0
POLYLINE
5
23
330
17
100
AcDbEntity
67
0
8
0
62
5
420
255
6
ByLayer
370
-1
48
1.0
60
0
100
AcDb3dPolyline
10
0.0
20
0.0
30
0.0
70
9
75
0
210
0.0
220
0.0
230
1.0
0
VERTEX
5
1D
100
AcDbEntity
8
0
62
5
420
255
100
AcDbVertex
100
AcDb3dPolylineVertex
10
11.08964
20
0.254
30
0.0
70
32
0
VERTEX
5
1E
100
AcDbEntity
8
0
62
5
420
255
100
AcDbVertex
100
AcDb3dPolylineVertex
10
11.08964
20
128.75513
30
0.0
70
32
0
VERTEX
5
1F
100
AcDbEntity
8
0
62
5
420
255
100
AcDbVertex
100
AcDb3dPolylineVertex
10
1.27
20
128.75513
30
0.0
70
32
0
VERTEX
5
20
100
AcDbEntity
8
0
62
5
420
255
100
AcDbVertex
100
AcDb3dPolylineVertex
10
1.27
20
0.254
30
0.0
70
32
0
VERTEX
5
21
100
AcDbEntity
8
0
62
5
420
255
100
AcDbVertex
100
AcDb3dPolylineVertex
10
11.08964
20
0.254
30
0.0
70
32
0
SEQEND
5
22
100
AcDbEntity
8
0
0
POLYLINE
5
85
330
17
100
AcDbEntity
67
0
8
0
62
34
420
32768
6
ByLayer
370
-1
48
1.0
60
0
100
AcDb3dPolyline
10
0.0
20
0.0
30
0.0
70
9
75
0
210
0.0
220
0.0
230
1.0
0
VERTEX
5
24
100
AcDbEntity
8
0
62
34
420
32768
100
AcDbVertex
100
AcDb3dPolylineVertex
10
8.61821
20
127.25907
30
0.0
70
32
0
VERTEX
5
25
100
AcDbEntity
8
0
62
34
420
32768
100
AcDbVertex
100
AcDb3dPolylineVertex
10
8.4963
20
127.2413
30
0.0
70
32
0
VERTEX
5
26
100
AcDbEntity
8
0
62
34
420
32768
100
AcDbVertex
100
AcDb3dPolylineVertex
10
8.49236
20
127.24067
30
0.0
70
32
0
VERTEX
5
27
100
AcDbEntity
8
0
62
34
420
32768
100
AcDbVertex
100
AcDb3dPolylineVertex
10
8.37299
20
127.21273
30
0.0
70
32
0
VERTEX
5
28
100
AcDbEntity
8
0
62
34
420
32768
100
AcDbVertex
100
AcDb3dPolylineVertex
10
8.25615
20
127.17717
30
0.0
70
32
0
VERTEX
5
29
100
AcDbEntity
8
0
62
34
420
32768
100
AcDbVertex
100
AcDb3dPolylineVertex
10
8.14185
20
127.13145
30
0.0
70
32
0
VERTEX
5
2A
100
AcDbEntity
8
0
62
34
420
32768
100
AcDbVertex
100
AcDb3dPolylineVertex
10
8.13831
20
127.12965
30
0.0
70
32
0
VERTEX
5
2B
100
AcDbEntity
8
0
62
34
420
32768
100
AcDbVertex
100
AcDb3dPolylineVertex
10
8.02909
20
127.07377
30
0.0
70
32
0
VERTEX
5
2C
100
AcDbEntity
8
0
62
34
420
32768
100
AcDbVertex
100
AcDb3dPolylineVertex
10
7.92495
20
127.01027
30
0.0
70
32
0
VERTEX
5
2D
100
AcDbEntity
8
0
62
34
420
32768
100
AcDbVertex
100
AcDb3dPolylineVertex
10
7.82843
20
126.93661
30
0.0
70
32
0
VERTEX
5
2E
100
AcDbEntity
8
0
62
34
420
32768
100
AcDbVertex
100
AcDb3dPolylineVertex
10
7.73445
20
126.85533
30
0.0
70
32
0
VERTEX
5
2F
100
AcDbEntity
8
0
62
34
420
32768
100
AcDbVertex
100
AcDb3dPolylineVertex
10
7.64528
20
126.76616
30
0.0
70
32
0
VERTEX
5
30
100
AcDbEntity
8
0
62
34
420
32768
100
AcDbVertex
100
AcDb3dPolylineVertex
10
7.56908
20
126.67218
30
0.0
70
32
0
VERTEX
5
31
100
AcDbEntity
8
0
62
34
420
32768
100
AcDbVertex
100
AcDb3dPolylineVertex
10
7.49796
20
126.57312
30
0.0
70
32
0
VERTEX
5
32
100
AcDbEntity
8
0
62
34
420
32768
100
AcDbVertex
100
AcDb3dPolylineVertex
10
7.43446
20
126.46644
30
0.0
70
32
0
VERTEX
5
33
100
AcDbEntity
8
0
62
34
420
32768
100
AcDbVertex
100
AcDb3dPolylineVertex
10
7.43266
20
126.4629
30
0.0
70
32
0
VERTEX
5
34
100
AcDbEntity
8
0
62
34
420
32768
100
AcDbVertex
100
AcDb3dPolylineVertex
10
7.38186
20
126.35114
30
0.0
70
32
0
VERTEX
5
35
100
AcDbEntity
8
0
62
34
420
32768
100
AcDbVertex
100
AcDb3dPolylineVertex
10
7.33614
20
126.23684
30
0.0
70
32
0
VERTEX
5
36
100
AcDbEntity
8
0
62
34
420
32768
100
AcDbVertex
100
AcDb3dPolylineVertex
10
7.30312
20
126.12
30
0.0
70
32
0
VERTEX
5
37
100
AcDbEntity
8
0
62
34
420
32768
100
AcDbVertex
100
AcDb3dPolylineVertex
10
7.27772
20
126.00062
30
0.0
70
32
0
VERTEX
5
38
100
AcDbEntity
8
0
62
34
420
32768
100
AcDbVertex
100
AcDb3dPolylineVertex
10
7.27709
20
125.99669
30
0.0
70
32
0
VERTEX
5
39
100
AcDbEntity
8
0
62
34
420
32768
100
AcDbVertex
100
AcDb3dPolylineVertex
10
7.26186
20
125.87478
30
0.0
70
32
0
VERTEX
5
3A
100
AcDbEntity
8
0
62
34
420
32768
100
AcDbVertex
100
AcDb3dPolylineVertex
10
7.25678
20
125.75285
30
0.0
70
32
0
VERTEX
5
3B
100
AcDbEntity
8
0
62
34
420
32768
100
AcDbVertex
100
AcDb3dPolylineVertex
10
7.26186
20
125.63094
30
0.0
70
32
0
VERTEX
5
3C
100
AcDbEntity
8
0
62
34
420
32768
100
AcDbVertex
100
AcDb3dPolylineVertex
10
7.27709
20
125.50902
30
0.0
70
32
0
VERTEX
5
3D
100
AcDbEntity
8
0
62
34
420
32768
100
AcDbVertex
100
AcDb3dPolylineVertex
10
7.27772
20
125.50509
30
0.0
70
32
0
VERTEX
5
3E
100
AcDbEntity
8
0
62
34
420
32768
100
AcDbVertex
100
AcDb3dPolylineVertex
10
7.30312
20
125.38571
30
0.0
70
32
0
VERTEX
5
3F
100
AcDbEntity
8
0
62
34
420
32768
100
AcDbVertex
100
AcDb3dPolylineVertex
10
7.33614
20
125.26887
30
0.0
70
32
0
VERTEX
5
40
100
AcDbEntity
8
0
62
34
420
32768
100
AcDbVertex
100
AcDb3dPolylineVertex
10
7.38186
20
125.15457
30
0.0
70
32
0
VERTEX
5
41
100
AcDbEntity
8
0
62
34
420
32768
100
AcDbVertex
100
AcDb3dPolylineVertex
10
7.43266
20
125.04281
30
0.0
70
32
0
VERTEX
5
42
100
AcDbEntity
8
0
62
34
420
32768
100
AcDbVertex
100
AcDb3dPolylineVertex
10
7.43446
20
125.03927
30
0.0
70
32
0
VERTEX
5
43
100
AcDbEntity
8
0
62
34
420
32768
100
AcDbVertex
100
AcDb3dPolylineVertex
10
7.49796
20
124.93259
30
0.0
70
32
0
VERTEX
5
44
100
AcDbEntity
8
0
62
34
420
32768
100
AcDbVertex
100
AcDb3dPolylineVertex
10
7.56908
20
124.83353
30
0.0
70
32
0
VERTEX
5
45
100
AcDbEntity
8
0
62
34
420
32768
100
AcDbVertex
100
AcDb3dPolylineVertex
10
7.64528
20
124.73955
30
0.0
70
32
0
VERTEX
5
46
100
AcDbEntity
8
0
62
34
420
32768
100
AcDbVertex
100
AcDb3dPolylineVertex
10
7.73445
20
124.65038
30
0.0
70
32
0
VERTEX
5
47
100
AcDbEntity
8
0
62
34
420
32768
100
AcDbVertex
100
AcDb3dPolylineVertex
10
7.82843
20
124.5691
30
0.0
70
32
0
VERTEX
5
48
100
AcDbEntity
8
0
62
34
420
32768
100
AcDbVertex
100
AcDb3dPolylineVertex
10
7.92495
20
124.49544
30
0.0
70
32
0
VERTEX
5
49
100
AcDbEntity
8
0
62
34
420
32768
100
AcDbVertex
100
AcDb3dPolylineVertex
10
8.02909
20
124.43194
30
0.0
70
32
0
VERTEX
5
4A
100
AcDbEntity
8
0
62
34
420
32768
100
AcDbVertex
100
AcDb3dPolylineVertex
10
8.13831
20
124.37606
30
0.0
70
32
0
VERTEX
5
4B
100
AcDbEntity
8
0
62
34
420
32768
100
AcDbVertex
100
AcDb3dPolylineVertex
10
8.14185
20
124.37426
30
0.0
70
32
0
VERTEX
5
4C
100
AcDbEntity
8
0
62
34
420
32768
100
AcDbVertex
100
AcDb3dPolylineVertex
10
8.25615
20
124.32854
30
0.0
70
32
0
VERTEX
5
4D
100
AcDbEntity
8
0
62
34
420
32768
100
AcDbVertex
100
AcDb3dPolylineVertex
10
8.37299
20
124.29298
30
0.0
70
32
0
VERTEX
5
4E
100
AcDbEntity
8
0
62
34
420
32768
100
AcDbVertex
100
AcDb3dPolylineVertex
10
8.49236
20
124.26504
30
0.0
70
32
0
VERTEX
5
4F
100
AcDbEntity
8
0
62
34
420
32768
100
AcDbVertex
100
AcDb3dPolylineVertex
10
8.4963
20
124.26442
30
0.0
70
32
0
VERTEX
5
50
100
AcDbEntity
8
0
62
34
420
32768
100
AcDbVertex
100
AcDb3dPolylineVertex
10
8.61821
20
124.24664
30
0.0
70
32
0
VERTEX
5
51
100
AcDbEntity
8
0
62
34
420
32768
100
AcDbVertex
100
AcDb3dPolylineVertex
10
8.74014
20
124.23902
30
0.0
70
32
0
VERTEX
5
52
100
AcDbEntity
8
0
62
34
420
32768
100
AcDbVertex
100
AcDb3dPolylineVertex
10
8.86206
20
124.24156
30
0.0
70
32
0
VERTEX
5
53
100
AcDbEntity
8
0
62
34
420
32768
100
AcDbVertex
100
AcDb3dPolylineVertex
10
8.98398
20
124.25426
30
0.0
70
32
0
VERTEX
5
54
100
AcDbEntity
8
0
62
34
420
32768
100
AcDbVertex
100
AcDb3dPolylineVertex
10
8.9879
20
124.25488
30
0.0
70
32
0
VERTEX
5
55
100
AcDbEntity
8
0
62
34
420
32768
100
AcDbVertex
100
AcDb3dPolylineVertex
10
9.10981
20
124.27774
30
0.0
70
32
0
VERTEX
5
56
100
AcDbEntity
8
0
62
34
420
32768
100
AcDbVertex
100
AcDb3dPolylineVertex
10
9.22666
20
124.30822
30
0.0
70
32
0
VERTEX
5
57
100
AcDbEntity
8
0
62
34
420
32768
100
AcDbVertex
100
AcDb3dPolylineVertex
10
9.34096
20
124.3514
30
0.0
70
32
0
VERTEX
5
58
100
AcDbEntity
8
0
62
34
420
32768
100
AcDbVertex
100
AcDb3dPolylineVertex
10
9.45271
20
124.4022
30
0.0
70
32
0
VERTEX
5
59
100
AcDbEntity
8
0
62
34
420
32768
100
AcDbVertex
100
AcDb3dPolylineVertex
10
9.45626
20
124.404
30
0.0
70
32
0
VERTEX
5
5A
100
AcDbEntity
8
0
62
34
420
32768
100
AcDbVertex
100
AcDb3dPolylineVertex
10
9.56293
20
124.46242
30
0.0
70
32
0
VERTEX
5
5B
100
AcDbEntity
8
0
62
34
420
32768
100
AcDbVertex
100
AcDb3dPolylineVertex
10
9.66454
20
124.531
30
0.0
70
32
0
VERTEX
5
5C
100
AcDbEntity
8
0
62
34
420
32768
100
AcDbVertex
100
AcDb3dPolylineVertex
10
9.76106
20
124.6072
30
0.0
70
32
0
VERTEX
5
5D
100
AcDbEntity
8
0
62
34
420
32768
100
AcDbVertex
100
AcDb3dPolylineVertex
10
9.84995
20
124.69102
30
0.0
70
32
0
VERTEX
5
5E
100
AcDbEntity
8
0
62
34
420
32768
100
AcDbVertex
100
AcDb3dPolylineVertex
10
9.85277
20
124.69383
30
0.0
70
32
0
VERTEX
5
5F
100
AcDbEntity
8
0
62
34
420
32768
100
AcDbVertex
100
AcDb3dPolylineVertex
10
9.93404
20
124.78527
30
0.0
70
32
0
VERTEX
5
60
100
AcDbEntity
8
0
62
34
420
32768
100
AcDbVertex
100
AcDb3dPolylineVertex
10
10.01024
20
124.88179
30
0.0
70
32
0
VERTEX
5
61
100
AcDbEntity
8
0
62
34
420
32768
100
AcDbVertex
100
AcDb3dPolylineVertex
10
10.07629
20
124.98593
30
0.0
70
32
0
VERTEX
5
62
100
AcDbEntity
8
0
62
34
420
32768
100
AcDbVertex
100
AcDb3dPolylineVertex
10
10.13217
20
125.09515
30
0.0
70
32
0
VERTEX
5
63
100
AcDbEntity
8
0
62
34
420
32768
100
AcDbVertex
100
AcDb3dPolylineVertex
10
10.13397
20
125.09869
30
0.0
70
32
0
VERTEX
5
64
100
AcDbEntity
8
0
62
34
420
32768
100
AcDbVertex
100
AcDb3dPolylineVertex
10
10.18477
20
125.21045
30
0.0
70
32
0
VERTEX
5
65
100
AcDbEntity
8
0
62
34
420
32768
100
AcDbVertex
100
AcDb3dPolylineVertex
10
10.22287
20
125.32475
30
0.0
70
32
0
VERTEX
5
66
100
AcDbEntity
8
0
62
34
420
32768
100
AcDbVertex
100
AcDb3dPolylineVertex
10
10.25334
20
125.44413
30
0.0
70
32
0
VERTEX
5
67
100
AcDbEntity
8
0
62
34
420
32768
100
AcDbVertex
100
AcDb3dPolylineVertex
10
10.27366
20
125.56605
30
0.0
70
32
0
VERTEX
5
68
100
AcDbEntity
8
0
62
34
420
32768
100
AcDbVertex
100
AcDb3dPolylineVertex
10
10.2743
20
125.56997
30
0.0
70
32
0
VERTEX
5
69
100
AcDbEntity
8
0
62
34
420
32768
100
AcDbVertex
100
AcDb3dPolylineVertex
10
10.28445
20
125.69189
30
0.0
70
32
0
VERTEX
5
6A
100
AcDbEntity
8
0
62
34
420
32768
100
AcDbVertex
100
AcDb3dPolylineVertex
10
10.28445
20
125.81381
30
0.0
70
32
0
VERTEX
5
6B
100
AcDbEntity
8
0
62
34
420
32768
100
AcDbVertex
100
AcDb3dPolylineVertex
10
10.2743
20
125.93574
30
0.0
70
32
0
VERTEX
5
6C
100
AcDbEntity
8
0
62
34
420
32768
100
AcDbVertex
100
AcDb3dPolylineVertex
10
10.27366
20
125.93966
30
0.0
70
32
0
VERTEX
5
6D
100
AcDbEntity
8
0
62
34
420
32768
100
AcDbVertex
100
AcDb3dPolylineVertex
10
10.25334
20
126.06158
30
0.0
70
32
0
VERTEX
5
6E
100
AcDbEntity
8
0
62
34
420
32768
100
AcDbVertex
100
AcDb3dPolylineVertex
10
10.22287
20
126.18096
30
0.0
70
32
0
VERTEX
5
6F
100
AcDbEntity
8
0
62
34
420
32768
100
AcDbVertex
100
AcDb3dPolylineVertex
10
10.18477
20
126.29526
30
0.0
70
32
0
VERTEX
5
70
100
AcDbEntity
8
0
62
34
420
32768
100
AcDbVertex
100
AcDb3dPolylineVertex
10
10.13397
20
126.40702
30
0.0
70
32
0
VERTEX
5
71
100
AcDbEntity
8
0
62
34
420
32768
100
AcDbVertex
100
AcDb3dPolylineVertex
10
10.13217
20
126.41056
30
0.0
70
32
0
VERTEX
5
72
100
AcDbEntity
8
0
62
34
420
32768
100
AcDbVertex
100
AcDb3dPolylineVertex
10
10.07629
20
126.51978
30
0.0
70
32
0
VERTEX
5
73
100
AcDbEntity
8
0
62
34
420
32768
100
AcDbVertex
100
AcDb3dPolylineVertex
10
10.01024
20
126.62392
30
0.0
70
32
0
VERTEX
5
74
100
AcDbEntity
8
0
62
34
420
32768
100
AcDbVertex
100
AcDb3dPolylineVertex
10
9.93404
20
126.72044
30
0.0
70
32
0
VERTEX
5
75
100
AcDbEntity
8
0
62
34
420
32768
100
AcDbVertex
100
AcDb3dPolylineVertex
10
9.85277
20
126.81188
30
0.0
70
32
0
VERTEX
5
76
100
AcDbEntity
8
0
62
34
420
32768
100
AcDbVertex
100
AcDb3dPolylineVertex
10
9.84995
20
126.81469
30
0.0
70
32
0
VERTEX
5
77
100
AcDbEntity
8
0
62
34
420
32768
100
AcDbVertex
100
AcDb3dPolylineVertex
10
9.76106
20
126.89851
30
0.0
70
32
0
VERTEX
5
78
100
AcDbEntity
8
0
62
34
420
32768
100
AcDbVertex
100
AcDb3dPolylineVertex
10
9.66454
20
126.97471
30
0.0
70
32
0
VERTEX
5
79
100
AcDbEntity
8
0
62
34
420
32768
100
AcDbVertex
100
AcDb3dPolylineVertex
10
9.56293
20
127.04329
30
0.0
70
32
0
VERTEX
5
7A
100
AcDbEntity
8
0
62
34
420
32768
100
AcDbVertex
100
AcDb3dPolylineVertex
10
9.45626
20
127.10171
30
0.0
70
32
0
VERTEX
5
7B
100
AcDbEntity
8
0
62
34
420
32768
100
AcDbVertex
100
AcDb3dPolylineVertex
10
9.45271
20
127.10351
30
0.0
70
32
0
VERTEX
5
7C
100
AcDbEntity
8
0
62
34
420
32768
100
AcDbVertex
100
AcDb3dPolylineVertex
10
9.34096
20
127.15431
30
0.0
70
32
0
VERTEX
5
7D
100
AcDbEntity
8
0
62
34
420
32768
100
AcDbVertex
100
AcDb3dPolylineVertex
10
9.22666
20
127.19749
30
0.0
70
32
0
VERTEX
5
7E
100
AcDbEntity
8
0
62
34
420
32768
100
AcDbVertex
100
AcDb3dPolylineVertex
10
9.10981
20
127.22797
30
0.0
70
32
0
VERTEX
5
7F
100
AcDbEntity
8
0
62
34
420
32768
100
AcDbVertex
100
AcDb3dPolylineVertex
10
8.9879
20
127.25083
30
0.0
70
32
0
VERTEX
5
80
100
AcDbEntity
8
0
62
34
420
32768
100
AcDbVertex
100
AcDb3dPolylineVertex
10
8.98398
20
127.25146
30
0.0
70
32
0
VERTEX
5
81
100
AcDbEntity
8
0
62
34
420
32768
100
AcDbVertex
100
AcDb3dPolylineVertex
10
8.86206
20
127.26415
30
0.0
70
32
0
VERTEX
5
82
100
AcDbEntity
8
0
62
34
420
32768
100
AcDbVertex
100
AcDb3dPolylineVertex
10
8.74014
20
127.26669
30
0.0
70
32
0
VERTEX
5
83
100
AcDbEntity
8
0
62
34
420
32768
100
AcDbVertex
100
AcDb3dPolylineVertex
10
8.61821
20
127.25907
30
0.0
70
32
0
SEQEND
5
84
100
AcDbEntity
8
0
0
POLYLINE
5
D5
330
17
100
AcDbEntity
67
0
8
0
62
34
420
32768
6
ByLayer
370
-1
48
1.0
60
0
100
AcDb3dPolyline
10
0.0
20
0.0
30
0.0
70
9
75
0
210
0.0
220
0.0
230
1.0
0
VERTEX
5
86
100
AcDbEntity
8
0
62
34
420
32768
100
AcDbVertex
100
AcDb3dPolylineVertex
10
8.9827
20
124.27953
30
0.0
70
32
0
VERTEX
5
87
100
AcDbEntity
8
0
62
34
420
32768
100
AcDbVertex
100
AcDb3dPolylineVertex
10
8.86206
20
124.26695
30
0.0
70
32
0
VERTEX
5
88
100
AcDbEntity
8
0
62
34
420
32768
100
AcDbVertex
100
AcDb3dPolylineVertex
10
8.74014
20
124.26441
30
0.0
70
32
0
VERTEX
5
89
100
AcDbEntity
8
0
62
34
420
32768
100
AcDbVertex
100
AcDb3dPolylineVertex
10
8.61821
20
124.27203
30
0.0
70
32
0
VERTEX
5
8A
100
AcDbEntity
8
0
62
34
420
32768
100
AcDbVertex
100
AcDb3dPolylineVertex
10
8.49956
20
124.28934
30
0.0
70
32
0
VERTEX
5
8B
100
AcDbEntity
8
0
62
34
420
32768
100
AcDbVertex
100
AcDb3dPolylineVertex
10
8.38083
20
124.31713
30
0.0
70
32
0
VERTEX
5
8C
100
AcDbEntity
8
0
62
34
420
32768
100
AcDbVertex
100
AcDb3dPolylineVertex
10
8.26399
20
124.35269
30
0.0
70
32
0
VERTEX
5
8D
100
AcDbEntity
8
0
62
34
420
32768
100
AcDbVertex
100
AcDb3dPolylineVertex
10
8.14984
20
124.39835
30
0.0
70
32
0
VERTEX
5
8E
100
AcDbEntity
8
0
62
34
420
32768
100
AcDbVertex
100
AcDb3dPolylineVertex
10
8.04402
20
124.45249
30
0.0
70
32
0
VERTEX
5
8F
100
AcDbEntity
8
0
62
34
420
32768
100
AcDbVertex
100
AcDb3dPolylineVertex
10
7.93988
20
124.51599
30
0.0
70
32
0
VERTEX
5
90
100
AcDbEntity
8
0
62
34
420
32768
100
AcDbVertex
100
AcDb3dPolylineVertex
10
7.84336
20
124.58965
30
0.0
70
32
0
VERTEX
5
91
100
AcDbEntity
8
0
62
34
420
32768
100
AcDbVertex
100
AcDb3dPolylineVertex
10
7.74938
20
124.67093
30
0.0
70
32
0
VERTEX
5
92
100
AcDbEntity
8
0
62
34
420
32768
100
AcDbVertex
100
AcDb3dPolylineVertex
10
7.66583
20
124.75448
30
0.0
70
32
0
VERTEX
5
93
100
AcDbEntity
8
0
62
34
420
32768
100
AcDbVertex
100
AcDb3dPolylineVertex
10
7.58963
20
124.84846
30
0.0
70
32
0
VERTEX
5
94
100
AcDbEntity
8
0
62
34
420
32768
100
AcDbVertex
100
AcDb3dPolylineVertex
10
7.51851
20
124.94752
30
0.0
70
32
0
VERTEX
5
95
100
AcDbEntity
8
0
62
34
420
32768
100
AcDbVertex
100
AcDb3dPolylineVertex
10
7.45582
20
125.05284
30
0.0
70
32
0
VERTEX
5
96
100
AcDbEntity
8
0
62
34
420
32768
100
AcDbVertex
100
AcDb3dPolylineVertex
10
7.40601
20
125.16242
30
0.0
70
32
0
VERTEX
5
97
100
AcDbEntity
8
0
62
34
420
32768
100
AcDbVertex
100
AcDb3dPolylineVertex
10
7.36029
20
125.27672
30
0.0
70
32
0
VERTEX
5
98
100
AcDbEntity
8
0
62
34
420
32768
100
AcDbVertex
100
AcDb3dPolylineVertex
10
7.32727
20
125.39356
30
0.0
70
32
0
VERTEX
5
99
100
AcDbEntity
8
0
62
34
420
32768
100
AcDbVertex
100
AcDb3dPolylineVertex
10
7.30219
20
125.51146
30
0.0
70
32
0
VERTEX
5
9A
100
AcDbEntity
8
0
62
34
420
32768
100
AcDbVertex
100
AcDb3dPolylineVertex
10
7.28725
20
125.63094
30
0.0
70
32
0
VERTEX
5
9B
100
AcDbEntity
8
0
62
34
420
32768
100
AcDbVertex
100
AcDb3dPolylineVertex
10
7.28218
20
125.75285
30
0.0
70
32
0
VERTEX
5
9C
100
AcDbEntity
8
0
62
34
420
32768
100
AcDbVertex
100
AcDb3dPolylineVertex
10
7.28725
20
125.87478
30
0.0
70
32
0
VERTEX
5
9D
100
AcDbEntity
8
0
62
34
420
32768
100
AcDbVertex
100
AcDb3dPolylineVertex
10
7.30219
20
125.99425
30
0.0
70
32
0
VERTEX
5
9E
100
AcDbEntity
8
0
62
34
420
32768
100
AcDbVertex
100
AcDb3dPolylineVertex
10
7.32727
20
126.11215
30
0.0
70
32
0
VERTEX
5
9F
100
AcDbEntity
8
0
62
34
420
32768
100
AcDbVertex
100
AcDb3dPolylineVertex
10
7.36029
20
126.22899
30
0.0
70
32
0
VERTEX
5
A0
100
AcDbEntity
8
0
62
34
420
32768
100
AcDbVertex
100
AcDb3dPolylineVertex
10
7.40601
20
126.34329
30
0.0
70
32
0
VERTEX
5
A1
100
AcDbEntity
8
0
62
34
420
32768
100
AcDbVertex
100
AcDb3dPolylineVertex
10
7.45582
20
126.45287
30
0.0
70
32
0
VERTEX
5
A2
100
AcDbEntity
8
0
62
34
420
32768
100
AcDbVertex
100
AcDb3dPolylineVertex
10
7.51851
20
126.55819
30
0.0
70
32
0
VERTEX
5
A3
100
AcDbEntity
8
0
62
34
420
32768
100
AcDbVertex
100
AcDb3dPolylineVertex
10
7.58963
20
126.65725
30
0.0
70
32
0
VERTEX
5
A4
100
AcDbEntity
8
0
62
34
420
32768
100
AcDbVertex
100
AcDb3dPolylineVertex
10
7.66583
20
126.75123
30
0.0
70
32
0
VERTEX
5
A5
100
AcDbEntity
8
0
62
34
420
32768
100
AcDbVertex
100
AcDb3dPolylineVertex
10
7.74938
20
126.83478
30
0.0
70
32
0
VERTEX
5
A6
100
AcDbEntity
8
0
62
34
420
32768
100
AcDbVertex
100
AcDb3dPolylineVertex
10
7.84336
20
126.91606
30
0.0
70
32
0
VERTEX
5
A7
100
AcDbEntity
8
0
62
34
420
32768
100
AcDbVertex
100
AcDb3dPolylineVertex
10
7.93988
20
126.98972
30
0.0
70
32
0
VERTEX
5
A8
100
AcDbEntity
8
0
62
34
420
32768
100
AcDbVertex
100
AcDb3dPolylineVertex
10
8.04402
20
127.05322
30
0.0
70
32
0
VERTEX
5
A9
100
AcDbEntity
8
0
62
34
420
32768
100
AcDbVertex
100
AcDb3dPolylineVertex
10
8.14984
20
127.10736
30
0.0
70
32
0
VERTEX
5
AA
100
AcDbEntity
8
0
62
34
420
32768
100
AcDbVertex
100
AcDb3dPolylineVertex
10
8.26399
20
127.15302
30
0.0
70
32
0
VERTEX
5
AB
100
AcDbEntity
8
0
62
34
420
32768
100
AcDbVertex
100
AcDb3dPolylineVertex
10
8.38083
20
127.18858
30
0.0
70
32
0
VERTEX
5
AC
100
AcDbEntity
8
0
62
34
420
32768
100
AcDbVertex
100
AcDb3dPolylineVertex
10
8.49967
20
127.21639
30
0.0
70
32
0
VERTEX
5
AD
100
AcDbEntity
8
0
62
34
420
32768
100
AcDbVertex
100
AcDb3dPolylineVertex
10
8.61821
20
127.23368
30
0.0
70
32
0
VERTEX
5
AE
100
AcDbEntity
8
0
62
34
420
32768
100
AcDbVertex
100
AcDb3dPolylineVertex
10
8.74014
20
127.2413
30
0.0
70
32
0
VERTEX
5
AF
100
AcDbEntity
8
0
62
34
420
32768
100
AcDbVertex
100
AcDb3dPolylineVertex
10
8.86206
20
127.23876
30
0.0
70
32
0
VERTEX
5
B0
100
AcDbEntity
8
0
62
34
420
32768
100
AcDbVertex
100
AcDb3dPolylineVertex
10
8.98258
20
127.22621
30
0.0
70
32
0
VERTEX
5
B1
100
AcDbEntity
8
0
62
34
420
32768
100
AcDbVertex
100
AcDb3dPolylineVertex
10
9.10197
20
127.20382
30
0.0
70
32
0
VERTEX
5
B2
100
AcDbEntity
8
0
62
34
420
32768
100
AcDbVertex
100
AcDb3dPolylineVertex
10
9.21881
20
127.17334
30
0.0
70
32
0
VERTEX
5
B3
100
AcDbEntity
8
0
62
34
420
32768
100
AcDbVertex
100
AcDb3dPolylineVertex
10
9.33311
20
127.13016
30
0.0
70
32
0
VERTEX
5
B4
100
AcDbEntity
8
0
62
34
420
32768
100
AcDbVertex
100
AcDb3dPolylineVertex
10
9.44338
20
127.08004
30
0.0
70
32
0
VERTEX
5
B5
100
AcDbEntity
8
0
62
34
420
32768
100
AcDbVertex
100
AcDb3dPolylineVertex
10
9.54801
20
127.02274
30
0.0
70
32
0
VERTEX
5
B6
100
AcDbEntity
8
0
62
34
420
32768
100
AcDbVertex
100
AcDb3dPolylineVertex
10
9.6496
20
126.95416
30
0.0
70
32
0
VERTEX
5
B7
100
AcDbEntity
8
0
62
34
420
32768
100
AcDbVertex
100
AcDb3dPolylineVertex
10
9.74613
20
126.87796
30
0.0
70
32
0
VERTEX
5
B8
100
AcDbEntity
8
0
62
34
420
32768
100
AcDbVertex
100
AcDb3dPolylineVertex
10
9.8331
20
126.79596
30
0.0
70
32
0
VERTEX
5
B9
100
AcDbEntity
8
0
62
34
420
32768
100
AcDbVertex
100
AcDb3dPolylineVertex
10
9.9135
20
126.70551
30
0.0
70
32
0
VERTEX
5
BA
100
AcDbEntity
8
0
62
34
420
32768
100
AcDbVertex
100
AcDb3dPolylineVertex
10
9.98969
20
126.60899
30
0.0
70
32
0
VERTEX
5
BB
100
AcDbEntity
8
0
62
34
420
32768
100
AcDbVertex
100
AcDb3dPolylineVertex
10
10.05574
20
126.50485
30
0.0
70
32
0
VERTEX
5
BC
100
AcDbEntity
8
0
62
34
420
32768
100
AcDbVertex
100
AcDb3dPolylineVertex
10
10.10982
20
126.39915
30
0.0
70
32
0
VERTEX
5
BD
100
AcDbEntity
8
0
62
34
420
32768
100
AcDbVertex
100
AcDb3dPolylineVertex
10
10.16062
20
126.28741
30
0.0
70
32
0
VERTEX
5
BE
100
AcDbEntity
8
0
62
34
420
32768
100
AcDbVertex
100
AcDb3dPolylineVertex
10
10.19872
20
126.17311
30
0.0
70
32
0
VERTEX
5
BF
100
AcDbEntity
8
0
62
34
420
32768
100
AcDbVertex
100
AcDb3dPolylineVertex
10
10.2292
20
126.05373
30
0.0
70
32
0
VERTEX
5
C0
100
AcDbEntity
8
0
62
34
420
32768
100
AcDbVertex
100
AcDb3dPolylineVertex
10
10.2489
20
125.93556
30
0.0
70
32
0
VERTEX
5
C1
100
AcDbEntity
8
0
62
34
420
32768
100
AcDbVertex
100
AcDb3dPolylineVertex
10
10.25905
20
125.81381
30
0.0
70
32
0
VERTEX
5
C2
100
AcDbEntity
8
0
62
34
420
32768
100
AcDbVertex
100
AcDb3dPolylineVertex
10
10.25905
20
125.69189
30
0.0
70
32
0
VERTEX
5
C3
100
AcDbEntity
8
0
62
34
420
32768
100
AcDbVertex
100
AcDb3dPolylineVertex
10
10.2489
20
125.57015
30
0.0
70
32
0
VERTEX
5
C4
100
AcDbEntity
8
0
62
34
420
32768
100
AcDbVertex
100
AcDb3dPolylineVertex
10
10.2292
20
125.45198
30
0.0
70
32
0
VERTEX
5
C5
100
AcDbEntity
8
0
62
34
420
32768
100
AcDbVertex
100
AcDb3dPolylineVertex
10
10.19872
20
125.3326
30
0.0
70
32
0
VERTEX
5
C6
100
AcDbEntity
8
0
62
34
420
32768
100
AcDbVertex
100
AcDb3dPolylineVertex
10
10.16062
20
125.2183
30
0.0
70
32
0
VERTEX
5
C7
100
AcDbEntity
8
0
62
34
420
32768
100
AcDbVertex
100
AcDb3dPolylineVertex
10
10.10981
20
125.10654
30
0.0
70
32
0
VERTEX
5
C8
100
AcDbEntity
8
0
62
34
420
32768
100
AcDbVertex
100
AcDb3dPolylineVertex
10
10.05574
20
125.00086
30
0.0
70
32
0
VERTEX
5
C9
100
AcDbEntity
8
0
62
34
420
32768
100
AcDbVertex
100
AcDb3dPolylineVertex
10
9.98969
20
124.89672
30
0.0
70
32
0
VERTEX
5
CA
100
AcDbEntity
8
0
62
34
420
32768
100
AcDbVertex
100
AcDb3dPolylineVertex
10
9.9135
20
124.8002
30
0.0
70
32
0
VERTEX
5
CB
100
AcDbEntity
8
0
62
34
420
32768
100
AcDbVertex
100
AcDb3dPolylineVertex
10
9.8331
20
124.70975
30
0.0
70
32
0
VERTEX
5
CC
100
AcDbEntity
8
0
62
34
420
32768
100
AcDbVertex
100
AcDb3dPolylineVertex
10
9.74613
20
124.62775
30
0.0
70
32
0
VERTEX
5
CD
100
AcDbEntity
8
0
62
34
420
32768
100
AcDbVertex
100
AcDb3dPolylineVertex
10
9.6496
20
124.55155
30
0.0
70
32
0
VERTEX
5
CE
100
AcDbEntity
8
0
62
34
420
32768
100
AcDbVertex
100
AcDb3dPolylineVertex
10
9.54801
20
124.48297
30
0.0
70
32
0
VERTEX
5
CF
100
AcDbEntity
8
0
62
34
420
32768
100
AcDbVertex
100
AcDb3dPolylineVertex
10
9.44338
20
124.42567
30
0.0
70
32
0
VERTEX
5
D0
100
AcDbEntity
8
0
62
34
420
32768
100
AcDbVertex
100
AcDb3dPolylineVertex
10
9.33311
20
124.37555
30
0.0
70
32
0
VERTEX
5
D1
100
AcDbEntity
8
0
62
34
420
32768
100
AcDbVertex
100
AcDb3dPolylineVertex
10
9.21881
20
124.33237
30
0.0
70
32
0
VERTEX
5
D2
100
AcDbEntity
8
0
62
34
420
32768
100
AcDbVertex
100
AcDb3dPolylineVertex
10
9.10197
20
124.30189
30
0.0
70
32
0
VERTEX
5
D3
100
AcDbEntity
8
0
62
34
420
32768
100
AcDbVertex
100
AcDb3dPolylineVertex
10
8.9827
20
124.27953
30
0.0
70
32
0
SEQEND
5
D4
100
AcDbEntity
8
0
0
POLYLINE
5
F0
330
17
100
AcDbEntity
67
0
8
0
62
34
420
32768
6
ByLayer
370
-1
48
1.0
60
0
100
AcDb3dPolyline
10
0.0
20
0.0
30
0.0
70
9
75
0
210
0.0
220
0.0
230
1.0
0
VERTEX
5
D6
100
AcDbEntity
8
0
62
34
420
32768
100
AcDbVertex
100
AcDb3dPolylineVertex
10
3.80999
20
107.83824
30
0.0
70
32
0
VERTEX
5
D7
100
AcDbEntity
8
0
62
34
420
32768
100
AcDbVertex
100
AcDb3dPolylineVertex
10
3.79037
20
107.83513
30
0.0
70
32
0
VERTEX
5
D8
100
AcDbEntity
8
0
62
34
420
32768
100
AcDbVertex
100
AcDb3dPolylineVertex
10
3.77267
20
107.82611
30
0.0
70
32
0
VERTEX
5
D9
100
AcDbEntity
8
0
62
34
420
32768
100
AcDbVertex
100
AcDb3dPolylineVertex
10
3.75862
20
107.81206
30
0.0
70
32
0
VERTEX
5
DA
100
AcDbEntity
8
0
62
34
420
32768
100
AcDbVertex
100
AcDb3dPolylineVertex
10
3.7496
20
107.79436
30
0.0
70
32
0
VERTEX
5
DB
100
AcDbEntity
8
0
62
34
420
32768
100
AcDbVertex
100
AcDb3dPolylineVertex
10
3.7465
20
107.77474
30
0.0
70
32
0
VERTEX
5
DC
100
AcDbEntity
8
0
62
34
420
32768
100
AcDbVertex
100
AcDb3dPolylineVertex
10
3.7465
20
97.61474
30
0.0
70
32
0
VERTEX
5
DD
100
AcDbEntity
8
0
62
34
420
32768
100
AcDbVertex
100
AcDb3dPolylineVertex
10
3.7496
20
97.59511
30
0.0
70
32
0
VERTEX
5
DE
100
AcDbEntity
8
0
62
34
420
32768
100
AcDbVertex
100
AcDb3dPolylineVertex
10
3.75862
20
97.57741
30
0.0
70
32
0
VERTEX
5
DF
100
AcDbEntity
8
0
62
34
420
32768
100
AcDbVertex
100
AcDb3dPolylineVertex
10
3.77267
20
97.56336
30
0.0
70
32
0
VERTEX
5
E0
100
AcDbEntity
8
0
62
34
420
32768
100
AcDbVertex
100
AcDb3dPolylineVertex
10
3.79037
20
97.55434
30
0.0
70
32
0
VERTEX
5
E1
100
AcDbEntity
8
0
62
34
420
32768
100
AcDbVertex
100
AcDb3dPolylineVertex
10
3.80999
20
97.55124
30
0.0
70
32
0
VERTEX
5
E2
100
AcDbEntity
8
0
62
34
420
32768
100
AcDbVertex
100
AcDb3dPolylineVertex
10
8.88998
20
97.55124
30
0.0
70
32
0
VERTEX
5
E3
100
AcDbEntity
8
0
62
34
420
32768
100
AcDbVertex
100
AcDb3dPolylineVertex
10
8.90962
20
97.55434
30
0.0
70
32
0
VERTEX
5
E4
100
AcDbEntity
8
0
62
34
420
32768
100
AcDbVertex
100
AcDb3dPolylineVertex
10
8.92732
20
97.56336
30
0.0
70
32
0
VERTEX
5
E5
100
AcDbEntity
8
0
62
34
420
32768
100
AcDbVertex
100
AcDb3dPolylineVertex
10
8.94136
20
97.57741
30
0.0
70
32
0
VERTEX
5
E6
100
AcDbEntity
8
0
62
34
420
32768
100
AcDbVertex
100
AcDb3dPolylineVertex
10
8.95039
20
97.59511
30
0.0
70
32
0
VERTEX
5
E7
100
AcDbEntity
8
0
62
34
420
32768
100
AcDbVertex
100
AcDb3dPolylineVertex
10
8.95349
20
97.61474
30
0.0
70
32
0
VERTEX
5
E8
100
AcDbEntity
8
0
62
34
420
32768
100
AcDbVertex
100
AcDb3dPolylineVertex
10
8.95349
20
107.77474
30
0.0
70
32
0
VERTEX
5
E9
100
AcDbEntity
8
0
62
34
420
32768
100
AcDbVertex
100
AcDb3dPolylineVertex
10
8.95039
20
107.79436
30
0.0
70
32
0
VERTEX
5
EA
100
AcDbEntity
8
0
62
34
420
32768
100
AcDbVertex
100
AcDb3dPolylineVertex
10
8.94136
20
107.81206
30
0.0
70
32
0
VERTEX
5
EB
100
AcDbEntity
8
0
62
34
420
32768
100
AcDbVertex
100
AcDb3dPolylineVertex
10
8.92732
20
107.82611
30
0.0
70
32
0
VERTEX
5
EC
100
AcDbEntity
8
0
62
34
420
32768
100
AcDbVertex
100
AcDb3dPolylineVertex
10
8.90962
20
107.83513
30
0.0
70
32
0
VERTEX
5
ED
100
AcDbEntity
8
0
62
34
420
32768
100
AcDbVertex
100
AcDb3dPolylineVertex
10
8.88998
20
107.83824
30
0.0
70
32
0
VERTEX
5
EE
100
AcDbEntity
8
0
62
34
420
32768
100
AcDbVertex
100
AcDb3dPolylineVertex
10
3.80999
20
107.83824
30
0.0
70
32
0
SEQEND
5
EF
100
AcDbEntity
8
0
0
POLYLINE
5
F7
330
17
100
AcDbEntity
67
0
8
0
62
34
420
32768
6
ByLayer
370
-1
48
1.0
60
0
100
AcDb3dPolyline
10
0.0
20
0.0
30
0.0
70
9
75
0
210
0.0
220
0.0
230
1.0
0
VERTEX
5
F1
100
AcDbEntity
8
0
62
34
420
32768
100
AcDbVertex
100
AcDb3dPolylineVertex
10
8.82649
20
97.67824
30
0.0
70
32
0
VERTEX
5
F2
100
AcDbEntity
8
0
62
34
420
32768
100
AcDbVertex
100
AcDb3dPolylineVertex
10
3.87349
20
97.67824
30
0.0
70
32
0
VERTEX
5
F3
100
AcDbEntity
8
0
62
34
420
32768
100
AcDbVertex
100
AcDb3dPolylineVertex
10
3.87349
20
107.71123
30
0.0
70
32
0
VERTEX
5
F4
100
AcDbEntity
8
0
62
34
420
32768
100
AcDbVertex
100
AcDb3dPolylineVertex
10
8.82649
20
107.71123
30
0.0
70
32
0
VERTEX
5
F5
100
AcDbEntity
8
0
62
34
420
32768
100
AcDbVertex
100
AcDb3dPolylineVertex
10
8.82649
20
97.67824
30
0.0
70
32
0
SEQEND
5
F6
100
AcDbEntity
8
0
0
POLYLINE
5
112
330
17
100
AcDbEntity
67
0
8
0
62
34
420
32768
6
ByLayer
370
-1
48
1.0
60
0
100
AcDb3dPolyline
10
0.0
20
0.0
30
0.0
70
9
75
0
210
0.0
220
0.0
230
1.0
0
VERTEX
5
F8
100
AcDbEntity
8
0
62
34
420
32768
100
AcDbVertex
100
AcDb3dPolylineVertex
10
3.80999
20
82.43823
30
0.0
70
32
0
VERTEX
5
F9
100
AcDbEntity
8
0
62
34
420
32768
100
AcDbVertex
100
AcDb3dPolylineVertex
10
3.79037
20
82.43513
30
0.0
70
32
0
VERTEX
5
FA
100
AcDbEntity
8
0
62
34
420
32768
100
AcDbVertex
100
AcDb3dPolylineVertex
10
3.77267
20
82.4261
30
0.0
70
32
0
VERTEX
5
FB
100
AcDbEntity
8
0
62
34
420
32768
100
AcDbVertex
100
AcDb3dPolylineVertex
10
3.75862
20
82.41206
30
0.0
70
32
0
VERTEX
5
FC
100
AcDbEntity
8
0
62
34
420
32768
100
AcDbVertex
100
AcDb3dPolylineVertex
10
3.7496
20
82.39436
30
0.0
70
32
0
VERTEX
5
FD
100
AcDbEntity
8
0
62
34
420
32768
100
AcDbVertex
100
AcDb3dPolylineVertex
10
3.7465
20
82.37474
30
0.0
70
32
0
VERTEX
5
FE
100
AcDbEntity
8
0
62
34
420
32768
100
AcDbVertex
100
AcDb3dPolylineVertex
10
3.7465
20
72.21474
30
0.0
70
32
0
VERTEX
5
FF
100
AcDbEntity
8
0
62
34
420
32768
100
AcDbVertex
100
AcDb3dPolylineVertex
10
3.7496
20
72.19511
30
0.0
70
32
0
VERTEX
5
100
100
AcDbEntity
8
0
62
34
420
32768
100
AcDbVertex
100
AcDb3dPolylineVertex
10
3.75862
20
72.1774
30
0.0
70
32
0
VERTEX
5
101
100
AcDbEntity
8
0
62
34
420
32768
100
AcDbVertex
100
AcDb3dPolylineVertex
10
3.77267
20
72.16336
30
0.0
70
32
0
VERTEX
5
102
100
AcDbEntity
8
0
62
34
420
32768
100
AcDbVertex
100
AcDb3dPolylineVertex
10
3.79037
20
72.15434
30
0.0
70
32
0
VERTEX
5
103
100
AcDbEntity
8
0
62
34
420
32768
100
AcDbVertex
100
AcDb3dPolylineVertex
10
3.80999
20
72.15124
30
0.0
70
32
0
VERTEX
5
104
100
AcDbEntity
8
0
62
34
420
32768
100
AcDbVertex
100
AcDb3dPolylineVertex
10
8.88998
20
72.15124
30
0.0
70
32
0
VERTEX
5
105
100
AcDbEntity
8
0
62
34
420
32768
100
AcDbVertex
100
AcDb3dPolylineVertex
10
8.90962
20
72.15434
30
0.0
70
32
0
VERTEX
5
106
100
AcDbEntity
8
0
62
34
420
32768
100
AcDbVertex
100
AcDb3dPolylineVertex
10
8.92732
20
72.16336
30
0.0
70
32
0
VERTEX
5
107
100
AcDbEntity
8
0
62
34
420
32768
100
AcDbVertex
100
AcDb3dPolylineVertex
10
8.94136
20
72.1774
30
0.0
70
32
0
VERTEX
5
108
100
AcDbEntity
8
0
62
34
420
32768
100
AcDbVertex
100
AcDb3dPolylineVertex
10
8.95039
20
72.19511
30
0.0
70
32
0
VERTEX
5
109
100
AcDbEntity
8
0
62
34
420
32768
100
AcDbVertex
100
AcDb3dPolylineVertex
10
8.95349
20
72.21474
30
0.0
70
32
0
VERTEX
5
10A
100
AcDbEntity
8
0
62
34
420
32768
100
AcDbVertex
100
AcDb3dPolylineVertex
10
8.95349
20
82.37474
30
0.0
70
32
0
VERTEX
5
10B
100
AcDbEntity
8
0
62
34
420
32768
100
AcDbVertex
100
AcDb3dPolylineVertex
10
8.95039
20
82.39436
30
0.0
70
32
0
VERTEX
5
10C
100
AcDbEntity
8
0
62
34
420
32768
100
AcDbVertex
100
AcDb3dPolylineVertex
10
8.94136
20
82.41206
30
0.0
70
32
0
VERTEX
5
10D
100
AcDbEntity
8
0
62
34
420
32768
100
AcDbVertex
100
AcDb3dPolylineVertex
10
8.92732
20
82.4261
30
0.0
70
32
0
VERTEX
5
10E
100
AcDbEntity
8
0
62
34
420
32768
100
AcDbVertex
100
AcDb3dPolylineVertex
10
8.90962
20
82.43513
30
0.0
70
32
0
VERTEX
5
10F
100
AcDbEntity
8
0
62
34
420
32768
100
AcDbVertex
100
AcDb3dPolylineVertex
10
8.88998
20
82.43823
30
0.0
70
32
0
VERTEX
5
110
100
AcDbEntity
8
0
62
34
420
32768
100
AcDbVertex
100
AcDb3dPolylineVertex
10
3.80999
20
82.43823
30
0.0
70
32
0
SEQEND
5
111
100
AcDbEntity
8
0
0
POLYLINE
5
119
330
17
100
AcDbEntity
67
0
8
0
62
34
420
32768
6
ByLayer
370
-1
48
1.0
60
0
100
AcDb3dPolyline
10
0.0
20
0.0
30
0.0
70
9
75
0
210
0.0
220
0.0
230
1.0
0
VERTEX
5
113
100
AcDbEntity
8
0
62
34
420
32768
100
AcDbVertex
100
AcDb3dPolylineVertex
10
8.82649
20
72.27824
30
0.0
70
32
0
VERTEX
5
114
100
AcDbEntity
8
0
62
34
420
32768
100
AcDbVertex
100
AcDb3dPolylineVertex
10
3.87349
20
72.27824
30
0.0
70
32
0
VERTEX
5
115
100
AcDbEntity
8
0
62
34
420
32768
100
AcDbVertex
100
AcDb3dPolylineVertex
10
3.87349
20
82.31124
30
0.0
70
32
0
VERTEX
5
116
100
AcDbEntity
8
0
62
34
420
32768
100
AcDbVertex
100
AcDb3dPolylineVertex
10
8.82649
20
82.31124
30
0.0
70
32
0
VERTEX
5
117
100
AcDbEntity
8
0
62
34
420
32768
100
AcDbVertex
100
AcDb3dPolylineVertex
10
8.82649
20
72.27824
30
0.0
70
32
0
SEQEND
5
118
100
AcDbEntity
8
0
0
POLYLINE
5
134
330
17
100
AcDbEntity
67
0
8
0
62
34
420
32768
6
ByLayer
370
-1
48
1.0
60
0
100
AcDb3dPolyline
10
0.0
20
0.0
30
0.0
70
9
75
0
210
0.0
220
0.0
230
1.0
0
VERTEX
5
11A
100
AcDbEntity
8
0
62
34
420
32768
100
AcDbVertex
100
AcDb3dPolylineVertex
10
3.80999
20
57.03823
30
0.0
70
32
0
VERTEX
5
11B
100
AcDbEntity
8
0
62
34
420
32768
100
AcDbVertex
100
AcDb3dPolylineVertex
10
3.79037
20
57.03513
30
0.0
70
32
0
VERTEX
5
11C
100
AcDbEntity
8
0
62
34
420
32768
100
AcDbVertex
100
AcDb3dPolylineVertex
10
3.77267
20
57.02611
30
0.0
70
32
0
VERTEX
5
11D
100
AcDbEntity
8
0
62
34
420
32768
100
AcDbVertex
100
AcDb3dPolylineVertex
10
3.75862
20
57.01206
30
0.0
70
32
0
VERTEX
5
11E
100
AcDbEntity
8
0
62
34
420
32768
100
AcDbVertex
100
AcDb3dPolylineVertex
10
3.7496
20
56.99436
30
0.0
70
32
0
VERTEX
5
11F
100
AcDbEntity
8
0
62
34
420
32768
100
AcDbVertex
100
AcDb3dPolylineVertex
10
3.7465
20
56.97474
30
0.0
70
32
0
VERTEX
5
120
100
AcDbEntity
8
0
62
34
420
32768
100
AcDbVertex
100
AcDb3dPolylineVertex
10
3.7465
20
46.81473
30
0.0
70
32
0
VERTEX
5
121
100
AcDbEntity
8
0
62
34
420
32768
100
AcDbVertex
100
AcDb3dPolylineVertex
10
3.7496
20
46.79511
30
0.0
70
32
0
VERTEX
5
122
100
AcDbEntity
8
0
62
34
420
32768
100
AcDbVertex
100
AcDb3dPolylineVertex
10
3.75862
20
46.77741
30
0.0
70
32
0
VERTEX
5
123
100
AcDbEntity
8
0
62
34
420
32768
100
AcDbVertex
100
AcDb3dPolylineVertex
10
3.77267
20
46.76336
30
0.0
70
32
0
VERTEX
5
124
100
AcDbEntity
8
0
62
34
420
32768
100
AcDbVertex
100
AcDb3dPolylineVertex
10
3.79037
20
46.75434
30
0.0
70
32
0
VERTEX
5
125
100
AcDbEntity
8
0
62
34
420
32768
100
AcDbVertex
100
AcDb3dPolylineVertex
10
3.80999
20
46.75124
30
0.0
70
32
0
VERTEX
5
126
100
AcDbEntity
8
0
62
34
420
32768
100
AcDbVertex
100
AcDb3dPolylineVertex
10
8.88998
20
46.75124
30
0.0
70
32
0
VERTEX
5
127
100
AcDbEntity
8
0
62
34
420
32768
100
AcDbVertex
100
AcDb3dPolylineVertex
10
8.90962
20
46.75434
30
0.0
70
32
0
VERTEX
5
128
100
AcDbEntity
8
0
62
34
420
32768
100
AcDbVertex
100
AcDb3dPolylineVertex
10
8.92732
20
46.76336
30
0.0
70
32
0
VERTEX
5
129
100
AcDbEntity
8
0
62
34
420
32768
100
AcDbVertex
100
AcDb3dPolylineVertex
10
8.94136
20
46.77741
30
0.0
70
32
0
VERTEX
5
12A
100
AcDbEntity
8
0
62
34
420
32768
100
AcDbVertex
100
AcDb3dPolylineVertex
10
8.95039
20
46.79511
30
0.0
70
32
0
VERTEX
5
12B
100
AcDbEntity
8
0
62
34
420
32768
100
AcDbVertex
100
AcDb3dPolylineVertex
10
8.95349
20
46.81473
30
0.0
70
32
0
VERTEX
5
12C
100
AcDbEntity
8
0
62
34
420
32768
100
AcDbVertex
100
AcDb3dPolylineVertex
10
8.95349
20
56.97474
30
0.0
70
32
0
VERTEX
5
12D
100
AcDbEntity
8
0
62
34
420
32768
100
AcDbVertex
100
AcDb3dPolylineVertex
10
8.95039
20
56.99436
30
0.0
70
32
0
VERTEX
5
12E
100
AcDbEntity
8
0
62
34
420
32768
100
AcDbVertex
100
AcDb3dPolylineVertex
10
8.94136
20
57.01206
30
0.0
70
32
0
VERTEX
5
12F
100
AcDbEntity
8
0
62
34
420
32768
100
AcDbVertex
100
AcDb3dPolylineVertex
10
8.92732
20
57.02611
30
0.0
70
32
0
VERTEX
5
130
100
AcDbEntity
8
0
62
34
420
32768
100
AcDbVertex
100
AcDb3dPolylineVertex
10
8.90962
20
57.03513
30
0.0
70
32
0
VERTEX
5
131
100
AcDbEntity
8
0
62
34
420
32768
100
AcDbVertex
100
AcDb3dPolylineVertex
10
8.88998
20
57.03823
30
0.0
70
32
0
VERTEX
5
132
100
AcDbEntity
8
0
62
34
420
32768
100
AcDbVertex
100
AcDb3dPolylineVertex
10
3.80999
20
57.03823
30
0.0
70
32
0
SEQEND
5
133
100
AcDbEntity
8
0
0
POLYLINE
5
13B
330
17
100
AcDbEntity
67
0
8
0
62
34
420
32768
6
ByLayer
370
-1
48
1.0
60
0
100
AcDb3dPolyline
10
0.0
20
0.0
30
0.0
70
9
75
0
210
0.0
220
0.0
230
1.0
0
VERTEX
5
135
100
AcDbEntity
8
0
62
34
420
32768
100
AcDbVertex
100
AcDb3dPolylineVertex
10
8.82649
20
46.87823
30
0.0
70
32
0
VERTEX
5
136
100
AcDbEntity
8
0
62
34
420
32768
100
AcDbVertex
100
AcDb3dPolylineVertex
10
3.87349
20
46.87823
30
0.0
70
32
0
VERTEX
5
137
100
AcDbEntity
8
0
62
34
420
32768
100
AcDbVertex
100
AcDb3dPolylineVertex
10
3.87349
20
56.91124
30
0.0
70
32
0
VERTEX
5
138
100
AcDbEntity
8
0
62
34
420
32768
100
AcDbVertex
100
AcDb3dPolylineVertex
10
8.82649
20
56.91124
30
0.0
70
32
0
VERTEX
5
139
100
AcDbEntity
8
0
62
34
420
32768
100
AcDbVertex
100
AcDb3dPolylineVertex
10
8.82649
20
46.87823
30
0.0
70
32
0
SEQEND
5
13A
100
AcDbEntity
8
0
0
POLYLINE
5
156
330
17
100
AcDbEntity
67
0
8
0
62
34
420
32768
6
ByLayer
370
-1
48
1.0
60
0
100
AcDb3dPolyline
10
0.0
20
0.0
30
0.0
70
9
75
0
210
0.0
220
0.0
230
1.0
0
VERTEX
5
13C
100
AcDbEntity
8
0
62
34
420
32768
100
AcDbVertex
100
AcDb3dPolylineVertex
10
3.80999
20
31.63824
30
0.0
70
32
0
VERTEX
5
13D
100
AcDbEntity
8
0
62
34
420
32768
100
AcDbVertex
100
AcDb3dPolylineVertex
10
3.79037
20
31.63513
30
0.0
70
32
0
VERTEX
5
13E
100
AcDbEntity
8
0
62
34
420
32768
100
AcDbVertex
100
AcDb3dPolylineVertex
10
3.77267
20
31.62611
30
0.0
70
32
0
VERTEX
5
13F
100
AcDbEntity
8
0
62
34
420
32768
100
AcDbVertex
100
AcDb3dPolylineVertex
10
3.75862
20
31.61206
30
0.0
70
32
0
VERTEX
5
140
100
AcDbEntity
8
0
62
34
420
32768
100
AcDbVertex
100
AcDb3dPolylineVertex
10
3.7496
20
31.59436
30
0.0
70
32
0
VERTEX
5
141
100
AcDbEntity
8
0
62
34
420
32768
100
AcDbVertex
100
AcDb3dPolylineVertex
10
3.7465
20
31.57474
30
0.0
70
32
0
VERTEX
5
142
100
AcDbEntity
8
0
62
34
420
32768
100
AcDbVertex
100
AcDb3dPolylineVertex
10
3.7465
20
21.41474
30
0.0
70
32
0
VERTEX
5
143
100
AcDbEntity
8
0
62
34
420
32768
100
AcDbVertex
100
AcDb3dPolylineVertex
10
3.7496
20
21.39511
30
0.0
70
32
0
VERTEX
5
144
100
AcDbEntity
8
0
62
34
420
32768
100
AcDbVertex
100
AcDb3dPolylineVertex
10
3.75862
20
21.37741
30
0.0
70
32
0
VERTEX
5
145
100
AcDbEntity
8
0
62
34
420
32768
100
AcDbVertex
100
AcDb3dPolylineVertex
10
3.77267
20
21.36336
30
0.0
70
32
0
VERTEX
5
146
100
AcDbEntity
8
0
62
34
420
32768
100
AcDbVertex
100
AcDb3dPolylineVertex
10
3.79037
20
21.35434
30
0.0
70
32
0
VERTEX
5
147
100
AcDbEntity
8
0
62
34
420
32768
100
AcDbVertex
100
AcDb3dPolylineVertex
10
3.80999
20
21.35123
30
0.0
70
32
0
VERTEX
5
148
100
AcDbEntity
8
0
62
34
420
32768
100
AcDbVertex
100
AcDb3dPolylineVertex
10
8.88998
20
21.35123
30
0.0
70
32
0
VERTEX
5
149
100
AcDbEntity
8
0
62
34
420
32768
100
AcDbVertex
100
AcDb3dPolylineVertex
10
8.90962
20
21.35434
30
0.0
70
32
0
VERTEX
5
14A
100
AcDbEntity
8
0
62
34
420
32768
100
AcDbVertex
100
AcDb3dPolylineVertex
10
8.92732
20
21.36336
30
0.0
70
32
0
VERTEX
5
14B
100
AcDbEntity
8
0
62
34
420
32768
100
AcDbVertex
100
AcDb3dPolylineVertex
10
8.94136
20
21.37741
30
0.0
70
32
0
VERTEX
5
14C
100
AcDbEntity
8
0
62
34
420
32768
100
AcDbVertex
100
AcDb3dPolylineVertex
10
8.95039
20
21.39511
30
0.0
70
32
0
VERTEX
5
14D
100
AcDbEntity
8
0
62
34
420
32768
100
AcDbVertex
100
AcDb3dPolylineVertex
10
8.95349
20
21.41474
30
0.0
70
32
0
VERTEX
5
14E
100
AcDbEntity
8
0
62
34
420
32768
100
AcDbVertex
100
AcDb3dPolylineVertex
10
8.95349
20
31.57474
30
0.0
70
32
0
VERTEX
5
14F
100
AcDbEntity
8
0
62
34
420
32768
100
AcDbVertex
100
AcDb3dPolylineVertex
10
8.95039
20
31.59436
30
0.0
70
32
0
VERTEX
5
150
100
AcDbEntity
8
0
62
34
420
32768
100
AcDbVertex
100
AcDb3dPolylineVertex
10
8.94136
20
31.61206
30
0.0
70
32
0
VERTEX
5
151
100
AcDbEntity
8
0
62
34
420
32768
100
AcDbVertex
100
AcDb3dPolylineVertex
10
8.92732
20
31.62611
30
0.0
70
32
0
VERTEX
5
152
100
AcDbEntity
8
0
62
34
420
32768
100
AcDbVertex
100
AcDb3dPolylineVertex
10
8.90962
20
31.63513
30
0.0
70
32
0
VERTEX
5
153
100
AcDbEntity
8
0
62
34
420
32768
100
AcDbVertex
100
AcDb3dPolylineVertex
10
8.88998
20
31.63824
30
0.0
70
32
0
VERTEX
5
154
100
AcDbEntity
8
0
62
34
420
32768
100
AcDbVertex
100
AcDb3dPolylineVertex
10
3.80999
20
31.63824
30
0.0
70
32
0
SEQEND
5
155
100
AcDbEntity
8
0
0
POLYLINE
5
15D
330
17
100
AcDbEntity
67
0
8
0
62
34
420
32768
6
ByLayer
370
-1
48
1.0
60
0
100
AcDb3dPolyline
10
0.0
20
0.0
30
0.0
70
9
75
0
210
0.0
220
0.0
230
1.0
0
VERTEX
5
157
100
AcDbEntity
8
0
62
34
420
32768
100
AcDbVertex
100
AcDb3dPolylineVertex
10
8.82649
20
21.47824
30
0.0
70
32
0
VERTEX
5
158
100
AcDbEntity
8
0
62
34
420
32768
100
AcDbVertex
100
AcDb3dPolylineVertex
10
3.87349
20
21.47824
30
0.0
70
32
0
VERTEX
5
159
100
AcDbEntity
8
0
62
34
420
32768
100
AcDbVertex
100
AcDb3dPolylineVertex
10
3.87349
20
31.51124
30
0.0
70
32
0
VERTEX
5
15A
100
AcDbEntity
8
0
62
34
420
32768
100
AcDbVertex
100
AcDb3dPolylineVertex
10
8.82649
20
31.51124
30
0.0
70
32
0
VERTEX
5
15B
100
AcDbEntity
8
0
62
34
420
32768
100
AcDbVertex
100
AcDb3dPolylineVertex
10
8.82649
20
21.47824
30
0.0
70
32
0
SEQEND
5
15C
100
AcDbEntity
8
0
0
POLYLINE
5
1BF
330
17
100
AcDbEntity
67
0
8
0
62
34
420
32768
6
ByLayer
370
-1
48
1.0
60
0
100
AcDb3dPolyline
10
0.0
20
0.0
30
0.0
70
9
75
0
210
0.0
220
0.0
230
1.0
0
VERTEX
5
15E
100
AcDbEntity
8
0
62
34
420
32768
100
AcDbVertex
100
AcDb3dPolylineVertex
10
8.61821
20
4.75995
30
0.0
70
32
0
VERTEX
5
15F
100
AcDbEntity
8
0
62
34
420
32768
100
AcDbVertex
100
AcDb3dPolylineVertex
10
8.4963
20
4.74217
30
0.0
70
32
0
VERTEX
5
160
100
AcDbEntity
8
0
62
34
420
32768
100
AcDbVertex
100
AcDb3dPolylineVertex
10
8.49236
20
4.74155
30
0.0
70
32
0
VERTEX
5
161
100
AcDbEntity
8
0
62
34
420
32768
100
AcDbVertex
100
AcDb3dPolylineVertex
10
8.37299
20
4.71361
30
0.0
70
32
0
VERTEX
5
162
100
AcDbEntity
8
0
62
34
420
32768
100
AcDbVertex
100
AcDb3dPolylineVertex
10
8.25615
20
4.67805
30
0.0
70
32
0
VERTEX
5
163
100
AcDbEntity
8
0
62
34
420
32768
100
AcDbVertex
100
AcDb3dPolylineVertex
10
8.14185
20
4.63232
30
0.0
70
32
0
VERTEX
5
164
100
AcDbEntity
8
0
62
34
420
32768
100
AcDbVertex
100
AcDb3dPolylineVertex
10
8.13831
20
4.63053
30
0.0
70
32
0
VERTEX
5
165
100
AcDbEntity
8
0
62
34
420
32768
100
AcDbVertex
100
AcDb3dPolylineVertex
10
8.02909
20
4.57465
30
0.0
70
32
0
VERTEX
5
166
100
AcDbEntity
8
0
62
34
420
32768
100
AcDbVertex
100
AcDb3dPolylineVertex
10
7.92495
20
4.51115
30
0.0
70
32
0
VERTEX
5
167
100
AcDbEntity
8
0
62
34
420
32768
100
AcDbVertex
100
AcDb3dPolylineVertex
10
7.82843
20
4.43749
30
0.0
70
32
0
VERTEX
5
168
100
AcDbEntity
8
0
62
34
420
32768
100
AcDbVertex
100
AcDb3dPolylineVertex
10
7.73445
20
4.35621
30
0.0
70
32
0
VERTEX
5
169
100
AcDbEntity
8
0
62
34
420
32768
100
AcDbVertex
100
AcDb3dPolylineVertex
10
7.64528
20
4.26704
30
0.0
70
32
0
VERTEX
5
16A
100
AcDbEntity
8
0
62
34
420
32768
100
AcDbVertex
100
AcDb3dPolylineVertex
10
7.56908
20
4.17306
30
0.0
70
32
0
VERTEX
5
16B
100
AcDbEntity
8
0
62
34
420
32768
100
AcDbVertex
100
AcDb3dPolylineVertex
10
7.49796
20
4.074
30
0.0
70
32
0
VERTEX
5
16C
100
AcDbEntity
8
0
62
34
420
32768
100
AcDbVertex
100
AcDb3dPolylineVertex
10
7.43446
20
3.96732
30
0.0
70
32
0
VERTEX
5
16D
100
AcDbEntity
8
0
62
34
420
32768
100
AcDbVertex
100
AcDb3dPolylineVertex
10
7.43266
20
3.96378
30
0.0
70
32
0
VERTEX
5
16E
100
AcDbEntity
8
0
62
34
420
32768
100
AcDbVertex
100
AcDb3dPolylineVertex
10
7.38186
20
3.85202
30
0.0
70
32
0
VERTEX
5
16F
100
AcDbEntity
8
0
62
34
420
32768
100
AcDbVertex
100
AcDb3dPolylineVertex
10
7.33614
20
3.73772
30
0.0
70
32
0
VERTEX
5
170
100
AcDbEntity
8
0
62
34
420
32768
100
AcDbVertex
100
AcDb3dPolylineVertex
10
7.30312
20
3.62088
30
0.0
70
32
0
VERTEX
5
171
100
AcDbEntity
8
0
62
34
420
32768
100
AcDbVertex
100
AcDb3dPolylineVertex
10
7.27772
20
3.5015
30
0.0
70
32
0
VERTEX
5
172
100
AcDbEntity
8
0
62
34
420
32768
100
AcDbVertex
100
AcDb3dPolylineVertex
10
7.27709
20
3.49757
30
0.0
70
32
0
VERTEX
5
173
100
AcDbEntity
8
0
62
34
420
32768
100
AcDbVertex
100
AcDb3dPolylineVertex
10
7.26186
20
3.37565
30
0.0
70
32
0
VERTEX
5
174
100
AcDbEntity
8
0
62
34
420
32768
100
AcDbVertex
100
AcDb3dPolylineVertex
10
7.25678
20
3.25373
30
0.0
70
32
0
VERTEX
5
175
100
AcDbEntity
8
0
62
34
420
32768
100
AcDbVertex
100
AcDb3dPolylineVertex
10
7.26186
20
3.13182
30
0.0
70
32
0
VERTEX
5
176
100
AcDbEntity
8
0
62
34
420
32768
100
AcDbVertex
100
AcDb3dPolylineVertex
10
7.27709
20
3.00989
30
0.0
70
32
0
VERTEX
5
177
100
AcDbEntity
8
0
62
34
420
32768
100
AcDbVertex
100
AcDb3dPolylineVertex
10
7.27772
20
3.00597
30
0.0
70
32
0
VERTEX
5
178
100
AcDbEntity
8
0
62
34
420
32768
100
AcDbVertex
100
AcDb3dPolylineVertex
10
7.30312
20
2.88659
30
0.0
70
32
0
VERTEX
5
179
100
AcDbEntity
8
0
62
34
420
32768
100
AcDbVertex
100
AcDb3dPolylineVertex
10
7.33614
20
2.76975
30
0.0
70
32
0
VERTEX
5
17A
100
AcDbEntity
8
0
62
34
420
32768
100
AcDbVertex
100
AcDb3dPolylineVertex
10
7.38186
20
2.65545
30
0.0
70
32
0
VERTEX
5
17B
100
AcDbEntity
8
0
62
34
420
32768
100
AcDbVertex
100
AcDb3dPolylineVertex
10
7.43266
20
2.54368
30
0.0
70
32
0
VERTEX
5
17C
100
AcDbEntity
8
0
62
34
420
32768
100
AcDbVertex
100
AcDb3dPolylineVertex
10
7.43446
20
2.54015
30
0.0
70
32
0
VERTEX
5
17D
100
AcDbEntity
8
0
62
34
420
32768
100
AcDbVertex
100
AcDb3dPolylineVertex
10
7.49796
20
2.43346
30
0.0
70
32
0
VERTEX
5
17E
100
AcDbEntity
8
0
62
34
420
32768
100
AcDbVertex
100
AcDb3dPolylineVertex
10
7.56908
20
2.33441
30
0.0
70
32
0
VERTEX
5
17F
100
AcDbEntity
8
0
62
34
420
32768
100
AcDbVertex
100
AcDb3dPolylineVertex
10
7.64528
20
2.24043
30
0.0
70
32
0
VERTEX
5
180
100
AcDbEntity
8
0
62
34
420
32768
100
AcDbVertex
100
AcDb3dPolylineVertex
10
7.73445
20
2.15126
30
0.0
70
32
0
VERTEX
5
181
100
AcDbEntity
8
0
62
34
420
32768
100
AcDbVertex
100
AcDb3dPolylineVertex
10
7.82843
20
2.06998
30
0.0
70
32
0
VERTEX
5
182
100
AcDbEntity
8
0
62
34
420
32768
100
AcDbVertex
100
AcDb3dPolylineVertex
10
7.92495
20
1.99632
30
0.0
70
32
0
VERTEX
5
183
100
AcDbEntity
8
0
62
34
420
32768
100
AcDbVertex
100
AcDb3dPolylineVertex
10
8.02909
20
1.93282
30
0.0
70
32
0
VERTEX
5
184
100
AcDbEntity
8
0
62
34
420
32768
100
AcDbVertex
100
AcDb3dPolylineVertex
10
8.13831
20
1.87694
30
0.0
70
32
0
VERTEX
5
185
100
AcDbEntity
8
0
62
34
420
32768
100
AcDbVertex
100
AcDb3dPolylineVertex
10
8.14185
20
1.87514
30
0.0
70
32
0
VERTEX
5
186
100
AcDbEntity
8
0
62
34
420
32768
100
AcDbVertex
100
AcDb3dPolylineVertex
10
8.25615
20
1.82942
30
0.0
70
32
0
VERTEX
5
187
100
AcDbEntity
8
0
62
34
420
32768
100
AcDbVertex
100
AcDb3dPolylineVertex
10
8.37299
20
1.79386
30
0.0
70
32
0
VERTEX
5
188
100
AcDbEntity
8
0
62
34
420
32768
100
AcDbVertex
100
AcDb3dPolylineVertex
10
8.49236
20
1.76592
30
0.0
70
32
0
VERTEX
5
189
100
AcDbEntity
8
0
62
34
420
32768
100
AcDbVertex
100
AcDb3dPolylineVertex
10
8.4963
20
1.7653
30
0.0
70
32
0
VERTEX
5
18A
100
AcDbEntity
8
0
62
34
420
32768
100
AcDbVertex
100
AcDb3dPolylineVertex
10
8.61821
20
1.74752
30
0.0
70
32
0
VERTEX
5
18B
100
AcDbEntity
8
0
62
34
420
32768
100
AcDbVertex
100
AcDb3dPolylineVertex
10
8.74014
20
1.7399
30
0.0
70
32
0
VERTEX
5
18C
100
AcDbEntity
8
0
62
34
420
32768
100
AcDbVertex
100
AcDb3dPolylineVertex
10
8.86206
20
1.74243
30
0.0
70
32
0
VERTEX
5
18D
100
AcDbEntity
8
0
62
34
420
32768
100
AcDbVertex
100
AcDb3dPolylineVertex
10
8.98398
20
1.75514
30
0.0
70
32
0
VERTEX
5
18E
100
AcDbEntity
8
0
62
34
420
32768
100
AcDbVertex
100
AcDb3dPolylineVertex
10
8.9879
20
1.75576
30
0.0
70
32
0
VERTEX
5
18F
100
AcDbEntity
8
0
62
34
420
32768
100
AcDbVertex
100
AcDb3dPolylineVertex
10
9.10981
20
1.77862
30
0.0
70
32
0
VERTEX
5
190
100
AcDbEntity
8
0
62
34
420
32768
100
AcDbVertex
100
AcDb3dPolylineVertex
10
9.22666
20
1.8091
30
0.0
70
32
0
VERTEX
5
191
100
AcDbEntity
8
0
62
34
420
32768
100
AcDbVertex
100
AcDb3dPolylineVertex
10
9.34096
20
1.85228
30
0.0
70
32
0
VERTEX
5
192
100
AcDbEntity
8
0
62
34
420
32768
100
AcDbVertex
100
AcDb3dPolylineVertex
10
9.45271
20
1.90308
30
0.0
70
32
0
VERTEX
5
193
100
AcDbEntity
8
0
62
34
420
32768
100
AcDbVertex
100
AcDb3dPolylineVertex
10
9.45626
20
1.90488
30
0.0
70
32
0
VERTEX
5
194
100
AcDbEntity
8
0
62
34
420
32768
100
AcDbVertex
100
AcDb3dPolylineVertex
10
9.56293
20
1.9633
30
0.0
70
32
0
VERTEX
5
195
100
AcDbEntity
8
0
62
34
420
32768
100
AcDbVertex
100
AcDb3dPolylineVertex
10
9.66454
20
2.03188
30
0.0
70
32
0
VERTEX
5
196
100
AcDbEntity
8
0
62
34
420
32768
100
AcDbVertex
100
AcDb3dPolylineVertex
10
9.76106
20
2.10808
30
0.0
70
32
0
VERTEX
5
197
100
AcDbEntity
8
0
62
34
420
32768
100
AcDbVertex
100
AcDb3dPolylineVertex
10
9.84995
20
2.1919
30
0.0
70
32
0
VERTEX
5
198
100
AcDbEntity
8
0
62
34
420
32768
100
AcDbVertex
100
AcDb3dPolylineVertex
10
9.85277
20
2.19471
30
0.0
70
32
0
VERTEX
5
199
100
AcDbEntity
8
0
62
34
420
32768
100
AcDbVertex
100
AcDb3dPolylineVertex
10
9.93404
20
2.28615
30
0.0
70
32
0
VERTEX
5
19A
100
AcDbEntity
8
0
62
34
420
32768
100
AcDbVertex
100
AcDb3dPolylineVertex
10
10.01024
20
2.38267
30
0.0
70
32
0
VERTEX
5
19B
100
AcDbEntity
8
0
62
34
420
32768
100
AcDbVertex
100
AcDb3dPolylineVertex
10
10.07629
20
2.48681
30
0.0
70
32
0
VERTEX
5
19C
100
AcDbEntity
8
0
62
34
420
32768
100
AcDbVertex
100
AcDb3dPolylineVertex
10
10.13217
20
2.59602
30
0.0
70
32
0
VERTEX
5
19D
100
AcDbEntity
8
0
62
34
420
32768
100
AcDbVertex
100
AcDb3dPolylineVertex
10
10.13397
20
2.59957
30
0.0
70
32
0
VERTEX
5
19E
100
AcDbEntity
8
0
62
34
420
32768
100
AcDbVertex
100
AcDb3dPolylineVertex
10
10.18477
20
2.71133
30
0.0
70
32
0
VERTEX
5
19F
100
AcDbEntity
8
0
62
34
420
32768
100
AcDbVertex
100
AcDb3dPolylineVertex
10
10.22287
20
2.82563
30
0.0
70
32
0
VERTEX
5
1A0
100
AcDbEntity
8
0
62
34
420
32768
100
AcDbVertex
100
AcDb3dPolylineVertex
10
10.25334
20
2.94501
30
0.0
70
32
0
VERTEX
5
1A1
100
AcDbEntity
8
0
62
34
420
32768
100
AcDbVertex
100
AcDb3dPolylineVertex
10
10.27366
20
3.06693
30
0.0
70
32
0
VERTEX
5
1A2
100
AcDbEntity
8
0
62
34
420
32768
100
AcDbVertex
100
AcDb3dPolylineVertex
10
10.2743
20
3.07085
30
0.0
70
32
0
VERTEX
5
1A3
100
AcDbEntity
8
0
62
34
420
32768
100
AcDbVertex
100
AcDb3dPolylineVertex
10
10.28445
20
3.19278
30
0.0
70
32
0
VERTEX
5
1A4
100
AcDbEntity
8
0
62
34
420
32768
100
AcDbVertex
100
AcDb3dPolylineVertex
10
10.28445
20
3.3147
30
0.0
70
32
0
VERTEX
5
1A5
100
AcDbEntity
8
0
62
34
420
32768
100
AcDbVertex
100
AcDb3dPolylineVertex
10
10.2743
20
3.43662
30
0.0
70
32
0
VERTEX
5
1A6
100
AcDbEntity
8
0
62
34
420
32768
100
AcDbVertex
100
AcDb3dPolylineVertex
10
10.27366
20
3.44054
30
0.0
70
32
0
VERTEX
5
1A7
100
AcDbEntity
8
0
62
34
420
32768
100
AcDbVertex
100
AcDb3dPolylineVertex
10
10.25334
20
3.56246
30
0.0
70
32
0
VERTEX
5
1A8
100
AcDbEntity
8
0
62
34
420
32768
100
AcDbVertex
100
AcDb3dPolylineVertex
10
10.22287
20
3.68184
30
0.0
70
32
0
VERTEX
5
1A9
100
AcDbEntity
8
0
62
34
420
32768
100
AcDbVertex
100
AcDb3dPolylineVertex
10
10.18477
20
3.79614
30
0.0
70
32
0
VERTEX
5
1AA
100
AcDbEntity
8
0
62
34
420
32768
100
AcDbVertex
100
AcDb3dPolylineVertex
10
10.13397
20
3.9079
30
0.0
70
32
0
VERTEX
5
1AB
100
AcDbEntity
8
0
62
34
420
32768
100
AcDbVertex
100
AcDb3dPolylineVertex
10
10.13217
20
3.91144
30
0.0
70
32
0
VERTEX
5
1AC
100
AcDbEntity
8
0
62
34
420
32768
100
AcDbVertex
100
AcDb3dPolylineVertex
10
10.07629
20
4.02066
30
0.0
70
32
0
VERTEX
5
1AD
100
AcDbEntity
8
0
62
34
420
32768
100
AcDbVertex
100
AcDb3dPolylineVertex
10
10.01024
20
4.12479
30
0.0
70
32
0
VERTEX
5
1AE
100
AcDbEntity
8
0
62
34
420
32768
100
AcDbVertex
100
AcDb3dPolylineVertex
10
9.93404
20
4.22132
30
0.0
70
32
0
VERTEX
5
1AF
100
AcDbEntity
8
0
62
34
420
32768
100
AcDbVertex
100
AcDb3dPolylineVertex
10
9.85277
20
4.31276
30
0.0
70
32
0
VERTEX
5
1B0
100
AcDbEntity
8
0
62
34
420
32768
100
AcDbVertex
100
AcDb3dPolylineVertex
10
9.84995
20
4.31557
30
0.0
70
32
0
VERTEX
5
1B1
100
AcDbEntity
8
0
62
34
420
32768
100
AcDbVertex
100
AcDb3dPolylineVertex
10
9.76106
20
4.39939
30
0.0
70
32
0
VERTEX
5
1B2
100
AcDbEntity
8
0
62
34
420
32768
100
AcDbVertex
100
AcDb3dPolylineVertex
10
9.66454
20
4.47559
30
0.0
70
32
0
VERTEX
5
1B3
100
AcDbEntity
8
0
62
34
420
32768
100
AcDbVertex
100
AcDb3dPolylineVertex
10
9.56293
20
4.54417
30
0.0
70
32
0
VERTEX
5
1B4
100
AcDbEntity
8
0
62
34
420
32768
100
AcDbVertex
100
AcDb3dPolylineVertex
10
9.45626
20
4.60259
30
0.0
70
32
0
VERTEX
5
1B5
100
AcDbEntity
8
0
62
34
420
32768
100
AcDbVertex
100
AcDb3dPolylineVertex
10
9.45271
20
4.60439
30
0.0
70
32
0
VERTEX
5
1B6
100
AcDbEntity
8
0
62
34
420
32768
100
AcDbVertex
100
AcDb3dPolylineVertex
10
9.34096
20
4.65519
30
0.0
70
32
0
VERTEX
5
1B7
100
AcDbEntity
8
0
62
34
420
32768
100
AcDbVertex
100
AcDb3dPolylineVertex
10
9.22666
20
4.69837
30
0.0
70
32
0
VERTEX
5
1B8
100
AcDbEntity
8
0
62
34
420
32768
100
AcDbVertex
100
AcDb3dPolylineVertex
10
9.10981
20
4.72885
30
0.0
70
32
0
VERTEX
5
1B9
100
AcDbEntity
8
0
62
34
420
32768
100
AcDbVertex
100
AcDb3dPolylineVertex
10
8.9879
20
4.75171
30
0.0
70
32
0
VERTEX
5
1BA
100
AcDbEntity
8
0
62
34
420
32768
100
AcDbVertex
100
AcDb3dPolylineVertex
10
8.98398
20
4.75233
30
0.0
70
32
0
VERTEX
5
1BB
100
AcDbEntity
8
0
62
34
420
32768
100
AcDbVertex
100
AcDb3dPolylineVertex
10
8.86206
20
4.76503
30
0.0
70
32
0
VERTEX
5
1BC
100
AcDbEntity
8
0
62
34
420
32768
100
AcDbVertex
100
AcDb3dPolylineVertex
10
8.74014
20
4.76757
30
0.0
70
32
0
VERTEX
5
1BD
100
AcDbEntity
8
0
62
34
420
32768
100
AcDbVertex
100
AcDb3dPolylineVertex
10
8.61821
20
4.75995
30
0.0
70
32
0
SEQEND
5
1BE
100
AcDbEntity
8
0
0
POLYLINE
5
210
330
17
100
AcDbEntity
67
0
8
0
62
34
420
32768
6
ByLayer
370
-1
48
1.0
60
0
100
AcDb3dPolyline
10
0.0
20
0.0
30
0.0
70
9
75
0
210
0.0
220
0.0
230
1.0
0
VERTEX
5
1C0
100
AcDbEntity
8
0
62
34
420
32768
100
AcDbVertex
100
AcDb3dPolylineVertex
10
8.98258
20
1.78038
30
0.0
70
32
0
VERTEX
5
1C1
100
AcDbEntity
8
0
62
34
420
32768
100
AcDbVertex
100
AcDb3dPolylineVertex
10
8.86206
20
1.76783
30
0.0
70
32
0
VERTEX
5
1C2
100
AcDbEntity
8
0
62
34
420
32768
100
AcDbVertex
100
AcDb3dPolylineVertex
10
8.74014
20
1.7653
30
0.0
70
32
0
VERTEX
5
1C3
100
AcDbEntity
8
0
62
34
420
32768
100
AcDbVertex
100
AcDb3dPolylineVertex
10
8.61821
20
1.77291
30
0.0
70
32
0
VERTEX
5
1C4
100
AcDbEntity
8
0
62
34
420
32768
100
AcDbVertex
100
AcDb3dPolylineVertex
10
8.49956
20
1.79022
30
0.0
70
32
0
VERTEX
5
1C5
100
AcDbEntity
8
0
62
34
420
32768
100
AcDbVertex
100
AcDb3dPolylineVertex
10
8.38083
20
1.81801
30
0.0
70
32
0
VERTEX
5
1C6
100
AcDbEntity
8
0
62
34
420
32768
100
AcDbVertex
100
AcDb3dPolylineVertex
10
8.26399
20
1.85357
30
0.0
70
32
0
VERTEX
5
1C7
100
AcDbEntity
8
0
62
34
420
32768
100
AcDbVertex
100
AcDb3dPolylineVertex
10
8.14984
20
1.89923
30
0.0
70
32
0
VERTEX
5
1C8
100
AcDbEntity
8
0
62
34
420
32768
100
AcDbVertex
100
AcDb3dPolylineVertex
10
8.04402
20
1.95337
30
0.0
70
32
0
VERTEX
5
1C9
100
AcDbEntity
8
0
62
34
420
32768
100
AcDbVertex
100
AcDb3dPolylineVertex
10
7.93988
20
2.01687
30
0.0
70
32
0
VERTEX
5
1CA
100
AcDbEntity
8
0
62
34
420
32768
100
AcDbVertex
100
AcDb3dPolylineVertex
10
7.84336
20
2.09053
30
0.0
70
32
0
VERTEX
5
1CB
100
AcDbEntity
8
0
62
34
420
32768
100
AcDbVertex
100
AcDb3dPolylineVertex
10
7.74945
20
2.17174
30
0.0
70
32
0
VERTEX
5
1CC
100
AcDbEntity
8
0
62
34
420
32768
100
AcDbVertex
100
AcDb3dPolylineVertex
10
7.66584
20
2.25534
30
0.0
70
32
0
VERTEX
5
1CD
100
AcDbEntity
8
0
62
34
420
32768
100
AcDbVertex
100
AcDb3dPolylineVertex
10
7.66583
20
2.25536
30
0.0
70
32
0
VERTEX
5
1CE
100
AcDbEntity
8
0
62
34
420
32768
100
AcDbVertex
100
AcDb3dPolylineVertex
10
7.58963
20
2.34934
30
0.0
70
32
0
VERTEX
5
1CF
100
AcDbEntity
8
0
62
34
420
32768
100
AcDbVertex
100
AcDb3dPolylineVertex
10
7.51851
20
2.4484
30
0.0
70
32
0
VERTEX
5
1D0
100
AcDbEntity
8
0
62
34
420
32768
100
AcDbVertex
100
AcDb3dPolylineVertex
10
7.45584
20
2.55368
30
0.0
70
32
0
VERTEX
5
1D1
100
AcDbEntity
8
0
62
34
420
32768
100
AcDbVertex
100
AcDb3dPolylineVertex
10
7.40601
20
2.6633
30
0.0
70
32
0
VERTEX
5
1D2
100
AcDbEntity
8
0
62
34
420
32768
100
AcDbVertex
100
AcDb3dPolylineVertex
10
7.36029
20
2.7776
30
0.0
70
32
0
VERTEX
5
1D3
100
AcDbEntity
8
0
62
34
420
32768
100
AcDbVertex
100
AcDb3dPolylineVertex
10
7.32727
20
2.89444
30
0.0
70
32
0
VERTEX
5
1D4
100
AcDbEntity
8
0
62
34
420
32768
100
AcDbVertex
100
AcDb3dPolylineVertex
10
7.30218
20
3.01235
30
0.0
70
32
0
VERTEX
5
1D5
100
AcDbEntity
8
0
62
34
420
32768
100
AcDbVertex
100
AcDb3dPolylineVertex
10
7.28725
20
3.13182
30
0.0
70
32
0
VERTEX
5
1D6
100
AcDbEntity
8
0
62
34
420
32768
100
AcDbVertex
100
AcDb3dPolylineVertex
10
7.28218
20
3.25373
30
0.0
70
32
0
VERTEX
5
1D7
100
AcDbEntity
8
0
62
34
420
32768
100
AcDbVertex
100
AcDb3dPolylineVertex
10
7.28725
20
3.37565
30
0.0
70
32
0
VERTEX
5
1D8
100
AcDbEntity
8
0
62
34
420
32768
100
AcDbVertex
100
AcDb3dPolylineVertex
10
7.30219
20
3.49513
30
0.0
70
32
0
VERTEX
5
1D9
100
AcDbEntity
8
0
62
34
420
32768
100
AcDbVertex
100
AcDb3dPolylineVertex
10
7.32727
20
3.61303
30
0.0
70
32
0
VERTEX
5
1DA
100
AcDbEntity
8
0
62
34
420
32768
100
AcDbVertex
100
AcDb3dPolylineVertex
10
7.36029
20
3.72987
30
0.0
70
32
0
VERTEX
5
1DB
100
AcDbEntity
8
0
62
34
420
32768
100
AcDbVertex
100
AcDb3dPolylineVertex
10
7.40601
20
3.84417
30
0.0
70
32
0
VERTEX
5
1DC
100
AcDbEntity
8
0
62
34
420
32768
100
AcDbVertex
100
AcDb3dPolylineVertex
10
7.45582
20
3.95375
30
0.0
70
32
0
VERTEX
5
1DD
100
AcDbEntity
8
0
62
34
420
32768
100
AcDbVertex
100
AcDb3dPolylineVertex
10
7.51851
20
4.05907
30
0.0
70
32
0
VERTEX
5
1DE
100
AcDbEntity
8
0
62
34
420
32768
100
AcDbVertex
100
AcDb3dPolylineVertex
10
7.58963
20
4.15813
30
0.0
70
32
0
VERTEX
5
1DF
100
AcDbEntity
8
0
62
34
420
32768
100
AcDbVertex
100
AcDb3dPolylineVertex
10
7.66583
20
4.25211
30
0.0
70
32
0
VERTEX
5
1E0
100
AcDbEntity
8
0
62
34
420
32768
100
AcDbVertex
100
AcDb3dPolylineVertex
10
7.74938
20
4.33566
30
0.0
70
32
0
VERTEX
5
1E1
100
AcDbEntity
8
0
62
34
420
32768
100
AcDbVertex
100
AcDb3dPolylineVertex
10
7.84336
20
4.41694
30
0.0
70
32
0
VERTEX
5
1E2
100
AcDbEntity
8
0
62
34
420
32768
100
AcDbVertex
100
AcDb3dPolylineVertex
10
7.93988
20
4.49059
30
0.0
70
32
0
VERTEX
5
1E3
100
AcDbEntity
8
0
62
34
420
32768
100
AcDbVertex
100
AcDb3dPolylineVertex
10
8.04402
20
4.5541
30
0.0
70
32
0
VERTEX
5
1E4
100
AcDbEntity
8
0
62
34
420
32768
100
AcDbVertex
100
AcDb3dPolylineVertex
10
8.14984
20
4.60824
30
0.0
70
32
0
VERTEX
5
1E5
100
AcDbEntity
8
0
62
34
420
32768
100
AcDbVertex
100
AcDb3dPolylineVertex
10
8.26399
20
4.6539
30
0.0
70
32
0
VERTEX
5
1E6
100
AcDbEntity
8
0
62
34
420
32768
100
AcDbVertex
100
AcDb3dPolylineVertex
10
8.38083
20
4.68946
30
0.0
70
32
0
VERTEX
5
1E7
100
AcDbEntity
8
0
62
34
420
32768
100
AcDbVertex
100
AcDb3dPolylineVertex
10
8.49979
20
4.71729
30
0.0
70
32
0
VERTEX
5
1E8
100
AcDbEntity
8
0
62
34
420
32768
100
AcDbVertex
100
AcDb3dPolylineVertex
10
8.61821
20
4.73456
30
0.0
70
32
0
VERTEX
5
1E9
100
AcDbEntity
8
0
62
34
420
32768
100
AcDbVertex
100
AcDb3dPolylineVertex
10
8.74014
20
4.74218
30
0.0
70
32
0
VERTEX
5
1EA
100
AcDbEntity
8
0
62
34
420
32768
100
AcDbVertex
100
AcDb3dPolylineVertex
10
8.86206
20
4.73963
30
0.0
70
32
0
VERTEX
5
1EB
100
AcDbEntity
8
0
62
34
420
32768
100
AcDbVertex
100
AcDb3dPolylineVertex
10
8.98258
20
4.72709
30
0.0
70
32
0
VERTEX
5
1EC
100
AcDbEntity
8
0
62
34
420
32768
100
AcDbVertex
100
AcDb3dPolylineVertex
10
9.10197
20
4.7047
30
0.0
70
32
0
VERTEX
5
1ED
100
AcDbEntity
8
0
62
34
420
32768
100
AcDbVertex
100
AcDb3dPolylineVertex
10
9.21881
20
4.67422
30
0.0
70
32
0
VERTEX
5
1EE
100
AcDbEntity
8
0
62
34
420
32768
100
AcDbVertex
100
AcDb3dPolylineVertex
10
9.33311
20
4.63103
30
0.0
70
32
0
VERTEX
5
1EF
100
AcDbEntity
8
0
62
34
420
32768
100
AcDbVertex
100
AcDb3dPolylineVertex
10
9.44338
20
4.58092
30
0.0
70
32
0
VERTEX
5
1F0
100
AcDbEntity
8
0
62
34
420
32768
100
AcDbVertex
100
AcDb3dPolylineVertex
10
9.54801
20
4.52362
30
0.0
70
32
0
VERTEX
5
1F1
100
AcDbEntity
8
0
62
34
420
32768
100
AcDbVertex
100
AcDb3dPolylineVertex
10
9.6496
20
4.45504
30
0.0
70
32
0
VERTEX
5
1F2
100
AcDbEntity
8
0
62
34
420
32768
100
AcDbVertex
100
AcDb3dPolylineVertex
10
9.74613
20
4.37884
30
0.0
70
32
0
VERTEX
5
1F3
100
AcDbEntity
8
0
62
34
420
32768
100
AcDbVertex
100
AcDb3dPolylineVertex
10
9.8331
20
4.29684
30
0.0
70
32
0
VERTEX
5
1F4
100
AcDbEntity
8
0
62
34
420
32768
100
AcDbVertex
100
AcDb3dPolylineVertex
10
9.9135
20
4.20639
30
0.0
70
32
0
VERTEX
5
1F5
100
AcDbEntity
8
0
62
34
420
32768
100
AcDbVertex
100
AcDb3dPolylineVertex
10
9.98969
20
4.10987
30
0.0
70
32
0
VERTEX
5
1F6
100
AcDbEntity
8
0
62
34
420
32768
100
AcDbVertex
100
AcDb3dPolylineVertex
10
10.05574
20
4.00573
30
0.0
70
32
0
VERTEX
5
1F7
100
AcDbEntity
8
0
62
34
420
32768
100
AcDbVertex
100
AcDb3dPolylineVertex
10
10.10982
20
3.90003
30
0.0
70
32
0
VERTEX
5
1F8
100
AcDbEntity
8
0
62
34
420
32768
100
AcDbVertex
100
AcDb3dPolylineVertex
10
10.16062
20
3.78829
30
0.0
70
32
0
VERTEX
5
1F9
100
AcDbEntity
8
0
62
34
420
32768
100
AcDbVertex
100
AcDb3dPolylineVertex
10
10.19872
20
3.67399
30
0.0
70
32
0
VERTEX
5
1FA
100
AcDbEntity
8
0
62
34
420
32768
100
AcDbVertex
100
AcDb3dPolylineVertex
10
10.2292
20
3.55461
30
0.0
70
32
0
VERTEX
5
1FB
100
AcDbEntity
8
0
62
34
420
32768
100
AcDbVertex
100
AcDb3dPolylineVertex
10
10.2489
20
3.43644
30
0.0
70
32
0
VERTEX
5
1FC
100
AcDbEntity
8
0
62
34
420
32768
100
AcDbVertex
100
AcDb3dPolylineVertex
10
10.25905
20
3.3147
30
0.0
70
32
0
VERTEX
5
1FD
100
AcDbEntity
8
0
62
34
420
32768
100
AcDbVertex
100
AcDb3dPolylineVertex
10
10.25905
20
3.19278
30
0.0
70
32
0
VERTEX
5
1FE
100
AcDbEntity
8
0
62
34
420
32768
100
AcDbVertex
100
AcDb3dPolylineVertex
10
10.2489
20
3.07103
30
0.0
70
32
0
VERTEX
5
1FF
100
AcDbEntity
8
0
62
34
420
32768
100
AcDbVertex
100
AcDb3dPolylineVertex
10
10.2292
20
2.95286
30
0.0
70
32
0
VERTEX
5
200
100
AcDbEntity
8
0
62
34
420
32768
100
AcDbVertex
100
AcDb3dPolylineVertex
10
10.19872
20
2.83348
30
0.0
70
32
0
VERTEX
5
201
100
AcDbEntity
8
0
62
34
420
32768
100
AcDbVertex
100
AcDb3dPolylineVertex
10
10.16062
20
2.71918
30
0.0
70
32
0
VERTEX
5
202
100
AcDbEntity
8
0
62
34
420
32768
100
AcDbVertex
100
AcDb3dPolylineVertex
10
10.10986
20
2.60752
30
0.0
70
32
0
VERTEX
5
203
100
AcDbEntity
8
0
62
34
420
32768
100
AcDbVertex
100
AcDb3dPolylineVertex
10
10.05574
20
2.50173
30
0.0
70
32
0
VERTEX
5
204
100
AcDbEntity
8
0
62
34
420
32768
100
AcDbVertex
100
AcDb3dPolylineVertex
10
9.98969
20
2.3976
30
0.0
70
32
0
VERTEX
5
205
100
AcDbEntity
8
0
62
34
420
32768
100
AcDbVertex
100
AcDb3dPolylineVertex
10
9.9135
20
2.30107
30
0.0
70
32
0
VERTEX
5
206
100
AcDbEntity
8
0
62
34
420
32768
100
AcDbVertex
100
AcDb3dPolylineVertex
10
9.83316
20
2.21068
30
0.0
70
32
0
VERTEX
5
207
100
AcDbEntity
8
0
62
34
420
32768
100
AcDbVertex
100
AcDb3dPolylineVertex
10
9.74613
20
2.12862
30
0.0
70
32
0
VERTEX
5
208
100
AcDbEntity
8
0
62
34
420
32768
100
AcDbVertex
100
AcDb3dPolylineVertex
10
9.6496
20
2.05243
30
0.0
70
32
0
VERTEX
5
209
100
AcDbEntity
8
0
62
34
420
32768
100
AcDbVertex
100
AcDb3dPolylineVertex
10
9.54801
20
1.98385
30
0.0
70
32
0
VERTEX
5
20A
100
AcDbEntity
8
0
62
34
420
32768
100
AcDbVertex
100
AcDb3dPolylineVertex
10
9.44338
20
1.92655
30
0.0
70
32
0
VERTEX
5
20B
100
AcDbEntity
8
0
62
34
420
32768
100
AcDbVertex
100
AcDb3dPolylineVertex
10
9.33311
20
1.87643
30
0.0
70
32
0
VERTEX
5
20C
100
AcDbEntity
8
0
62
34
420
32768
100
AcDbVertex
100
AcDb3dPolylineVertex
10
9.21881
20
1.83325
30
0.0
70
32
0
VERTEX
5
20D
100
AcDbEntity
8
0
62
34
420
32768
100
AcDbVertex
100
AcDb3dPolylineVertex
10
9.10197
20
1.80277
30
0.0
70
32
0
VERTEX
5
20E
100
AcDbEntity
8
0
62
34
420
32768
100
AcDbVertex
100
AcDb3dPolylineVertex
10
8.98258
20
1.78038
30
0.0
70
32
0
SEQEND
5
20F
100
AcDbEntity
8
0
0
POLYLINE
5
217
330
17
100
AcDbEntity
67
0
8
0
62
34
420
32768
6
ByLayer
370
-1
48
1.0
60
0
100
AcDb3dPolyline
10
0.0
20
0.0
30
0.0
70
9
75
0
210
0.0
220
0.0
230
1.0
0
VERTEX
5
211
100
AcDbEntity
8
0
62
34
420
32768
100
AcDbVertex
100
AcDb3dPolylineVertex
10
1.27
20
0.254
30
0.0
70
32
0
VERTEX
5
212
100
AcDbEntity
8
0
62
34
420
32768
100
AcDbVertex
100
AcDb3dPolylineVertex
10
11.08964
20
0.254
30
0.0
70
32
0
VERTEX
5
213
100
AcDbEntity
8
0
62
34
420
32768
100
AcDbVertex
100
AcDb3dPolylineVertex
10
11.08964
20
128.75514
30
0.0
70
32
0
VERTEX
5
214
100
AcDbEntity
8
0
62
34
420
32768
100
AcDbVertex
100
AcDb3dPolylineVertex
10
1.27
20
128.75514
30
0.0
70
32
0
VERTEX
5
215
100
AcDbEntity
8
0
62
34
420
32768
100
AcDbVertex
100
AcDb3dPolylineVertex
10
1.27
20
0.254
30
0.0
70
32
0
SEQEND
5
216
100
AcDbEntity
8
0
0
VIEWPORT
5
21C
330
218
100
AcDbEntity
67
1
8
0
62
256
6
ByLayer
370
-1
48
1.0
60
0
100
AcDbViewport
10
0.0
20
0.0
30
0.0
40
297.0
41
210.0
68
1
69
1
12
50.0
22
100.0
13
0.0
23
0.0
14
10.0
24
10.0
15
10.0
25
10.0
16
0.0
26
0.0
36
1.0
17
0.0
27
0.0
37
0.0
42
50.0
43
0.0
44
0.0
45
250.0
50
0.0
51
0.0
72
1000
90
819232
110
0.0
120
0.0
130
0.0
111
1.0
121
0.0
131
0.0
112
0.0
122
1.0
132
0.0
0
ENDSEC
0
SECTION
2
OBJECTS
0
DICTIONARY
5
21F
330
0
100
AcDbDictionary
280
0
281
1
3
ACAD_GROUP
350
220
3
ACAD_LAYOUT
350
221
3
ACAD_MLINESTYLE
350
222
0
DICTIONARY
5
220
330
21F
100
AcDbDictionary
280
0
281
1
0
DICTIONARY
5
221
330
21F
100
AcDbDictionary
280
0
281
1
3
Model
350
1B
3
Layout1
350
21D
0
DICTIONARY
5
222
330
21F
100
AcDbDictionary
280
0
281
1
3
Standard
350
16
0
LAYOUT
5
1B
330
221
100
AcDbPlotSettings
1

2
none_device
4
ISO_A4_(210.00_x_297.00_MM)
6

40
7.5
41
20.0
42
7.5
43
20.0
44
210.0
45
297.0
46
0.0
47
0.0
48
0.0
49
0.0
140
0.0
141
0.0
142
1.0
143
1.0
70
11952
72
1
73
1
74
5
7

75
16
147
1.0
148
0.0
149
0.0
100
AcDbLayout
1
Model
70
1
71
0
10
-20.0
20
-7.5
11
277.0
21
202.5
12
0.0
22
0.0
32
0.0
14
25.7
24
19.5
34
0.0
15
231.3
25
175.5
35
0.0
146
0.0
13
0.0
23
0.0
33
0.0
16
1.0
26
0.0
36
0.0
17
0.0
27
1.0
37
0.0
76
0
330
17
0
LAYOUT
5
21D
330
221
100
AcDbPlotSettings
1

2
none_device
4
ISO_A4_(210.00_x_297.00_MM)
6

40
7.5
41
20.0
42
7.5
43
20.0
44
210.0
45
297.0
46
0.0
47
0.0
48
0.0
49
0.0
140
0.0
141
0.0
142
1.0
143
1.0
70
688
72
1
73
1
74
5
7

75
16
147
1.0
148
0.0
149
0.0
100
AcDbLayout
1
Layout1
70
1
71
1
10
-20.0
20
-7.5
11
277.0
21
202.5
12
0.0
22
0.0
32
0.0
14
25.7
24
19.5
34
0.0
15
231.3
25
175.5
35
0.0
146
0.0
13
0.0
23
0.0
33
0.0
16
1.0
26
0.0
36
0.0
17
0.0
27
1.0
37
0.0
76
0
330
218
0
MLINESTYLE
5
16
330
222
100
AcDbMlineStyle
2
Standard
70
0
3

62
256
51
90.0
52
90.0
71
2
49
0.5
62
256
6
ByLayer
49
-0.5
62
256
6
ByLayer
0
ENDSEC
0
EOF
