  0
SECTION
  2
HEADER
  9
$ACADVER
  1
AC1009
  9
$FILLMODE
 70
1
  9
$EXTMIN
 10
-26.2905
 20
-20.0000
 30
0.0000
  9
$EXTMAX
 10
34.3615
 20
130.0000
 30
0.0000
  0
ENDSEC
  0
SECTION
  2
TABLES
  0
TABLE
  2
LTYPE
 70
1
  0
LTYPE
  2
CONTINUOUS
 70
64
  3
Solid line
 72
65
 73
0
 40
0
  0
ENDTAB
  0
TABLE
  2
LAYER
 70
255
  0
LAYER
  2
255
 70
64
 62
2
  6
CONTINUOUS
  0
ENDTAB
  0
ENDSEC
  0
SECTION
  2
BLOCKS
  0
BLOCK
  8
0
  2
RECT
 70
64
 10
0.0000
 20
0.0000
 30
0.0000
  3
RECT
  0
SOLID
  8
0
 10
-0.5000
 20
-0.5000
 30
0.0000
 11
0.5000
 21
-0.5000
 31
0.0000
 12
-0.5000
 22
0.5000
 32
0.0000
 13
0.5000
 23
0.5000
 33
0.0000
  0
ENDBLK
  8
0
  0
BLOCK
  8
0
  2
PIE
 70
64
 10
0.0000
 20
0.0000
 30
0.0000
  3
PIE
  0
POLYLINE
  8
0
 66
1
 10
0.0000
 20
0.0000
 30
0.0000
 40
0.5000
 41
0.5000
 70
0
  0
VERTEX
  8
0
 10
0.0000
 20
-0.2500
 30
0.0000
 42
1.0000
  0
VERTEX
  8
0
 10
0.0000
 20
0.2500
 30
0.0000
 42
1.0000
  0
VERTEX
  8
0
 10
0.0000
 20
-0.2500
 30
0.0000
  0
SEQEND
  8
0
  0
ENDBLK
  8
0
  0
BLOCK
  8
0
  2
OCTAGONP
 70
64
 10
0.0000
 20
0.0000
 30
0.0000
  3
OCTAGONP
  0
POLYLINE
  8
0
 66
1
 10
0.0000
 20
0.0000
 30
0.0000
 40
0.5000
 41
0.5000
 70
0
  0
VERTEX
  8
0
 10
-0.2500
 20
-0.1036
 30
0.0000
  0
VERTEX
  8
0
 10
-0.2500
 20
0.1036
 30
0.0000
  0
VERTEX
  8
0
 10
-0.1036
 20
0.2500
 30
0.0000
  0
VERTEX
  8
0
 10
0.1036
 20
0.2500
 30
0.0000
  0
VERTEX
  8
0
 10
0.2500
 20
0.1036
 30
0.0000
  0
VERTEX
  8
0
 10
0.2500
 20
-0.1036
 30
0.0000
  0
VERTEX
  8
0
 10
0.1036
 20
-0.2500
 30
0.0000
  0
VERTEX
  8
0
 10
-0.1036
 20
-0.2500
 30
0.0000
  0
VERTEX
  8
0
 10
-0.2500
 20
-0.1036
 30
0.0000
  0
VERTEX
  8
0
 10
-0.2500
 20
0.1036
 30
0.0000
  0
SEQEND
  8
0
  0
ENDBLK
  8
0
  0
BLOCK
  8
0
  2
SQUAREP
 70
64
 10
0.0000
 20
0.0000
 30
0.0000
  3
SQUAREP
  0
SOLID
  8
0
 10
-0.5000
 20
-0.5000
 30
0.0000
 11
0.5000
 21
-0.5000
 31
0.0000
 12
-0.5000
 22
0.5000
 32
0.0000
 13
0.5000
 23
0.5000
 33
0.0000
  0
ENDBLK
  8
0
  0
BLOCK
  8
0
  2
ROUNDP
 70
64
 10
0.0000
 20
0.0000
 30
0.0000
  3
ROUNDP
  0
POLYLINE
  8
0
 66
1
 10
0.0000
 20
0.0000
 30
0.0000
 40
0.5000
 41
0.5000
 70
0
  0
VERTEX
  8
0
 10
0.0000
 20
-0.2500
 30
0.0000
 42
1.0000
  0
VERTEX
  8
0
 10
0.0000
 20
0.2500
 30
0.0000
 42
1.0000
  0
VERTEX
  8
0
 10
0.0000
 20
-0.2500
 30
0.0000
  0
SEQEND
  8
0
  0
ENDBLK
  8
0
  0
BLOCK
  8
0
  2
ANNULUSP
 70
64
 10
0.0000
 20
0.0000
 30
0.0000
  3
ANNULUSP
  0
POLYLINE
  8
0
 66
1
 10
0.0000
 20
0.0000
 30
0.0000
 40
0.5000
 41
0.5000
 70
0
  0
VERTEX
  8
0
 10
0.0000
 20
-0.2500
 30
0.0000
 42
1.0000
  0
VERTEX
  8
0
 10
0.0000
 20
0.2500
 30
0.0000
 42
1.0000
  0
VERTEX
  8
0
 10
0.0000
 20
-0.2500
 30
0.0000
  0
SEQEND
  8
0
  0
ENDBLK
  8
0
  0
BLOCK
  8
0
  2
THERMALP
 70
64
 10
0.0000
 20
0.0000
 30
0.0000
  3
THERMALP
  0
POLYLINE
  8
0
 66
1
 10
0.0000
 20
0.0000
 30
0.0000
 40
0.1000
 41
0.1000
 70
0
  0
VERTEX
  8
0
 10
-0.2379
 20
0.4500
 30
0.0000
  0
VERTEX
  8
0
 10
0.2379
 20
0.4500
 30
0.0000
  0
SEQEND
  8
0
  0
POLYLINE
  8
0
 66
1
 10
0.0000
 20
0.0000
 30
0.0000
 40
0.0500
 41
0.0500
 70
0
  0
VERTEX
  8
0
 10
0.2379
 20
0.4250
 30
0.0000
 42
1.0000
  0
VERTEX
  8
0
 10
0.2379
 20
0.4750
 30
0.0000
  0
SEQEND
  8
0
  0
POLYLINE
  8
0
 66
1
 10
0.0000
 20
0.0000
 30
0.0000
 40
0.0500
 41
0.0500
 70
0
  0
VERTEX
  8
0
 10
-0.2379
 20
0.4750
 30
0.0000
 42
1.0000
  0
VERTEX
  8
0
 10
-0.2379
 20
0.4250
 30
0.0000
  0
SEQEND
  8
0
  0
POLYLINE
  8
0
 66
1
 10
0.0000
 20
0.0000
 30
0.0000
 40
0.1000
 41
0.1000
 70
0
  0
VERTEX
  8
0
 10
0.4500
 20
0.2379
 30
0.0000
  0
VERTEX
  8
0
 10
0.4500
 20
-0.2379
 30
0.0000
  0
SEQEND
  8
0
  0
POLYLINE
  8
0
 66
1
 10
0.0000
 20
0.0000
 30
0.0000
 40
0.0500
 41
0.0500
 70
0
  0
VERTEX
  8
0
 10
0.4250
 20
-0.2379
 30
0.0000
 42
1.0000
  0
VERTEX
  8
0
 10
0.4750
 20
-0.2379
 30
0.0000
  0
SEQEND
  8
0
  0
POLYLINE
  8
0
 66
1
 10
0.0000
 20
0.0000
 30
0.0000
 40
0.0500
 41
0.0500
 70
0
  0
VERTEX
  8
0
 10
0.4750
 20
0.2379
 30
0.0000
 42
1.0000
  0
VERTEX
  8
0
 10
0.4250
 20
0.2379
 30
0.0000
  0
SEQEND
  8
0
  0
POLYLINE
  8
0
 66
1
 10
0.0000
 20
0.0000
 30
0.0000
 40
0.1000
 41
0.1000
 70
0
  0
VERTEX
  8
0
 10
0.2379
 20
-0.4500
 30
0.0000
  0
VERTEX
  8
0
 10
-0.2379
 20
-0.4500
 30
0.0000
  0
SEQEND
  8
0
  0
POLYLINE
  8
0
 66
1
 10
0.0000
 20
0.0000
 30
0.0000
 40
0.0500
 41
0.0500
 70
0
  0
VERTEX
  8
0
 10
-0.2379
 20
-0.4250
 30
0.0000
 42
1.0000
  0
VERTEX
  8
0
 10
-0.2379
 20
-0.4750
 30
0.0000
  0
SEQEND
  8
0
  0
POLYLINE
  8
0
 66
1
 10
0.0000
 20
0.0000
 30
0.0000
 40
0.0500
 41
0.0500
 70
0
  0
VERTEX
  8
0
 10
0.2379
 20
-0.4750
 30
0.0000
 42
1.0000
  0
VERTEX
  8
0
 10
0.2379
 20
-0.4250
 30
0.0000
  0
SEQEND
  8
0
  0
POLYLINE
  8
0
 66
1
 10
0.0000
 20
0.0000
 30
0.0000
 40
0.1000
 41
0.1000
 70
0
  0
VERTEX
  8
0
 10
-0.4500
 20
-0.2379
 30
0.0000
  0
VERTEX
  8
0
 10
-0.4500
 20
0.2379
 30
0.0000
  0
SEQEND
  8
0
  0
POLYLINE
  8
0
 66
1
 10
0.0000
 20
0.0000
 30
0.0000
 40
0.0500
 41
0.0500
 70
0
  0
VERTEX
  8
0
 10
-0.4250
 20
0.2379
 30
0.0000
 42
1.0000
  0
VERTEX
  8
0
 10
-0.4750
 20
0.2379
 30
0.0000
  0
SEQEND
  8
0
  0
POLYLINE
  8
0
 66
1
 10
0.0000
 20
0.0000
 30
0.0000
 40
0.0500
 41
0.0500
 70
0
  0
VERTEX
  8
0
 10
-0.4750
 20
-0.2379
 30
0.0000
 42
1.0000
  0
VERTEX
  8
0
 10
-0.4250
 20
-0.2379
 30
0.0000
  0
SEQEND
  8
0
  0
ENDBLK
  8
0
  0
BLOCK
  8
0
  2
OCTAGONV
 70
64
 10
0.0000
 20
0.0000
 30
0.0000
  3
OCTAGONV
  0
POLYLINE
  8
0
 66
1
 10
0.0000
 20
0.0000
 30
0.0000
 40
0.5000
 41
0.5000
 70
0
  0
VERTEX
  8
0
 10
-0.2500
 20
-0.1036
 30
0.0000
  0
VERTEX
  8
0
 10
-0.2500
 20
0.1036
 30
0.0000
  0
VERTEX
  8
0
 10
-0.1036
 20
0.2500
 30
0.0000
  0
VERTEX
  8
0
 10
0.1036
 20
0.2500
 30
0.0000
  0
VERTEX
  8
0
 10
0.2500
 20
0.1036
 30
0.0000
  0
VERTEX
  8
0
 10
0.2500
 20
-0.1036
 30
0.0000
  0
VERTEX
  8
0
 10
0.1036
 20
-0.2500
 30
0.0000
  0
VERTEX
  8
0
 10
-0.1036
 20
-0.2500
 30
0.0000
  0
VERTEX
  8
0
 10
-0.2500
 20
-0.1036
 30
0.0000
  0
VERTEX
  8
0
 10
-0.2500
 20
0.1036
 30
0.0000
  0
SEQEND
  8
0
  0
ENDBLK
  8
0
  0
BLOCK
  8
0
  2
SQUAREV
 70
64
 10
0.0000
 20
0.0000
 30
0.0000
  3
SQUAREV
  0
SOLID
  8
0
 10
-0.5000
 20
-0.5000
 30
0.0000
 11
0.5000
 21
-0.5000
 31
0.0000
 12
-0.5000
 22
0.5000
 32
0.0000
 13
0.5000
 23
0.5000
 33
0.0000
  0
ENDBLK
  8
0
  0
BLOCK
  8
0
  2
ROUNDV
 70
64
 10
0.0000
 20
0.0000
 30
0.0000
  3
ROUNDV
  0
POLYLINE
  8
0
 66
1
 10
0.0000
 20
0.0000
 30
0.0000
 40
0.5000
 41
0.5000
 70
0
  0
VERTEX
  8
0
 10
0.0000
 20
-0.2500
 30
0.0000
 42
1.0000
  0
VERTEX
  8
0
 10
0.0000
 20
0.2500
 30
0.0000
 42
1.0000
  0
VERTEX
  8
0
 10
0.0000
 20
-0.2500
 30
0.0000
  0
SEQEND
  8
0
  0
ENDBLK
  8
0
  0
BLOCK
  8
0
  2
ANNULUSV
 70
64
 10
0.0000
 20
0.0000
 30
0.0000
  3
ANNULUSV
  0
POLYLINE
  8
0
 66
1
 10
0.0000
 20
0.0000
 30
0.0000
 40
0.5000
 41
0.5000
 70
0
  0
VERTEX
  8
0
 10
0.0000
 20
-0.2500
 30
0.0000
 42
1.0000
  0
VERTEX
  8
0
 10
0.0000
 20
0.2500
 30
0.0000
 42
1.0000
  0
VERTEX
  8
0
 10
0.0000
 20
-0.2500
 30
0.0000
  0
SEQEND
  8
0
  0
ENDBLK
  8
0
  0
BLOCK
  8
0
  2
THERMALV
 70
64
 10
0.0000
 20
0.0000
 30
0.0000
  3
THERMALV
  0
POLYLINE
  8
0
 66
1
 10
0.0000
 20
0.0000
 30
0.0000
 40
0.1000
 41
0.1000
 70
0
  0
VERTEX
  8
0
 10
-0.2379
 20
0.4500
 30
0.0000
  0
VERTEX
  8
0
 10
0.2379
 20
0.4500
 30
0.0000
  0
SEQEND
  8
0
  0
POLYLINE
  8
0
 66
1
 10
0.0000
 20
0.0000
 30
0.0000
 40
0.0500
 41
0.0500
 70
0
  0
VERTEX
  8
0
 10
0.2379
 20
0.4250
 30
0.0000
 42
1.0000
  0
VERTEX
  8
0
 10
0.2379
 20
0.4750
 30
0.0000
  0
SEQEND
  8
0
  0
POLYLINE
  8
0
 66
1
 10
0.0000
 20
0.0000
 30
0.0000
 40
0.0500
 41
0.0500
 70
0
  0
VERTEX
  8
0
 10
-0.2379
 20
0.4750
 30
0.0000
 42
1.0000
  0
VERTEX
  8
0
 10
-0.2379
 20
0.4250
 30
0.0000
  0
SEQEND
  8
0
  0
POLYLINE
  8
0
 66
1
 10
0.0000
 20
0.0000
 30
0.0000
 40
0.1000
 41
0.1000
 70
0
  0
VERTEX
  8
0
 10
0.4500
 20
0.2379
 30
0.0000
  0
VERTEX
  8
0
 10
0.4500
 20
-0.2379
 30
0.0000
  0
SEQEND
  8
0
  0
POLYLINE
  8
0
 66
1
 10
0.0000
 20
0.0000
 30
0.0000
 40
0.0500
 41
0.0500
 70
0
  0
VERTEX
  8
0
 10
0.4250
 20
-0.2379
 30
0.0000
 42
1.0000
  0
VERTEX
  8
0
 10
0.4750
 20
-0.2379
 30
0.0000
  0
SEQEND
  8
0
  0
POLYLINE
  8
0
 66
1
 10
0.0000
 20
0.0000
 30
0.0000
 40
0.0500
 41
0.0500
 70
0
  0
VERTEX
  8
0
 10
0.4750
 20
0.2379
 30
0.0000
 42
1.0000
  0
VERTEX
  8
0
 10
0.4250
 20
0.2379
 30
0.0000
  0
SEQEND
  8
0
  0
POLYLINE
  8
0
 66
1
 10
0.0000
 20
0.0000
 30
0.0000
 40
0.1000
 41
0.1000
 70
0
  0
VERTEX
  8
0
 10
0.2379
 20
-0.4500
 30
0.0000
  0
VERTEX
  8
0
 10
-0.2379
 20
-0.4500
 30
0.0000
  0
SEQEND
  8
0
  0
POLYLINE
  8
0
 66
1
 10
0.0000
 20
0.0000
 30
0.0000
 40
0.0500
 41
0.0500
 70
0
  0
VERTEX
  8
0
 10
-0.2379
 20
-0.4250
 30
0.0000
 42
1.0000
  0
VERTEX
  8
0
 10
-0.2379
 20
-0.4750
 30
0.0000
  0
SEQEND
  8
0
  0
POLYLINE
  8
0
 66
1
 10
0.0000
 20
0.0000
 30
0.0000
 40
0.0500
 41
0.0500
 70
0
  0
VERTEX
  8
0
 10
0.2379
 20
-0.4750
 30
0.0000
 42
1.0000
  0
VERTEX
  8
0
 10
0.2379
 20
-0.4250
 30
0.0000
  0
SEQEND
  8
0
  0
POLYLINE
  8
0
 66
1
 10
0.0000
 20
0.0000
 30
0.0000
 40
0.1000
 41
0.1000
 70
0
  0
VERTEX
  8
0
 10
-0.4500
 20
-0.2379
 30
0.0000
  0
VERTEX
  8
0
 10
-0.4500
 20
0.2379
 30
0.0000
  0
SEQEND
  8
0
  0
POLYLINE
  8
0
 66
1
 10
0.0000
 20
0.0000
 30
0.0000
 40
0.0500
 41
0.0500
 70
0
  0
VERTEX
  8
0
 10
-0.4250
 20
0.2379
 30
0.0000
 42
1.0000
  0
VERTEX
  8
0
 10
-0.4750
 20
0.2379
 30
0.0000
  0
SEQEND
  8
0
  0
POLYLINE
  8
0
 66
1
 10
0.0000
 20
0.0000
 30
0.0000
 40
0.0500
 41
0.0500
 70
0
  0
VERTEX
  8
0
 10
-0.4750
 20
-0.2379
 30
0.0000
 42
1.0000
  0
VERTEX
  8
0
 10
-0.4250
 20
-0.2379
 30
0.0000
  0
SEQEND
  8
0
  0
ENDBLK
  8
0
  0
BLOCK
  8
0
  2
LONGP100
 70
64
 10
0.0000
 20
0.0000
 30
0.0000
  3
LONGP100
  0
POLYLINE
  8
0
 66
1
 10
0.0000
 20
0.0000
 30
0.0000
 40
1.0000
 41
1.0000
 70
0
  0
VERTEX
  8
0
 10
-0.5000
 20
0.0000
 30
0.0000
  0
VERTEX
  8
0
 10
0.5000
 20
0.0000
 30
0.0000
  0
SEQEND
  8
0
  0
POLYLINE
  8
0
 66
1
 10
0.0000
 20
0.0000
 30
0.0000
 40
0.5000
 41
0.5000
 70
0
  0
VERTEX
  8
0
 10
0.5000
 20
-0.2500
 30
0.0000
 42
1.0000
  0
VERTEX
  8
0
 10
0.5000
 20
0.2500
 30
0.0000
  0
SEQEND
  8
0
  0
POLYLINE
  8
0
 66
1
 10
0.0000
 20
0.0000
 30
0.0000
 40
0.5000
 41
0.5000
 70
0
  0
VERTEX
  8
0
 10
-0.5000
 20
0.2500
 30
0.0000
 42
1.0000
  0
VERTEX
  8
0
 10
-0.5000
 20
-0.2500
 30
0.0000
  0
SEQEND
  8
0
  0
ENDBLK
  8
0
  0
ENDSEC
  0
SECTION
  2
ENTITIES
  0
POLYLINE
  8
255
 66
1
 10
0.0000
 20
0.0000
 30
0.0000
 40
0.1524
 41
0.1524
 70
0
  0
VERTEX
  8
255
 10
-1.8406
 20
38.7820
 30
0.0000
  0
VERTEX
  8
255
 10
-2.1118
 20
39.0532
 30
0.0000
  0
SEQEND
  8
0
  0
POLYLINE
  8
255
 66
1
 10
0.0000
 20
0.0000
 30
0.0000
 40
0.0762
 41
0.0762
 70
0
  0
VERTEX
  8
255
 10
-2.0848
 20
39.0801
 30
0.0000
 42
1.0000
  0
VERTEX
  8
255
 10
-2.1387
 20
39.0262
 30
0.0000
  0
SEQEND
  8
0
  0
POLYLINE
  8
255
 66
1
 10
0.0000
 20
0.0000
 30
0.0000
 40
0.0762
 41
0.0762
 70
0
  0
VERTEX
  8
255
 10
-1.8675
 20
38.7551
 30
0.0000
 42
1.0000
  0
VERTEX
  8
255
 10
-1.8137
 20
38.8090
 30
0.0000
  0
SEQEND
  8
0
  0
POLYLINE
  8
255
 66
1
 10
0.0000
 20
0.0000
 30
0.0000
 40
0.1524
 41
0.1524
 70
0
  0
VERTEX
  8
255
 10
-2.1118
 20
39.0532
 30
0.0000
  0
VERTEX
  8
255
 10
-2.6541
 20
39.0532
 30
0.0000
  0
SEQEND
  8
0
  0
POLYLINE
  8
255
 66
1
 10
0.0000
 20
0.0000
 30
0.0000
 40
0.0762
 41
0.0762
 70
0
  0
VERTEX
  8
255
 10
-2.6541
 20
39.0913
 30
0.0000
 42
1.0000
  0
VERTEX
  8
255
 10
-2.6541
 20
39.0151
 30
0.0000
  0
SEQEND
  8
0
  0
POLYLINE
  8
255
 66
1
 10
0.0000
 20
0.0000
 30
0.0000
 40
0.0762
 41
0.0762
 70
0
  0
VERTEX
  8
255
 10
-2.1118
 20
39.0151
 30
0.0000
 42
1.0000
  0
VERTEX
  8
255
 10
-2.1118
 20
39.0913
 30
0.0000
  0
SEQEND
  8
0
  0
POLYLINE
  8
255
 66
1
 10
0.0000
 20
0.0000
 30
0.0000
 40
0.1524
 41
0.1524
 70
0
  0
VERTEX
  8
255
 10
-2.6541
 20
39.0532
 30
0.0000
  0
VERTEX
  8
255
 10
-2.9253
 20
38.7820
 30
0.0000
  0
SEQEND
  8
0
  0
POLYLINE
  8
255
 66
1
 10
0.0000
 20
0.0000
 30
0.0000
 40
0.0762
 41
0.0762
 70
0
  0
VERTEX
  8
255
 10
-2.9522
 20
38.8090
 30
0.0000
 42
1.0000
  0
VERTEX
  8
255
 10
-2.8983
 20
38.7551
 30
0.0000
  0
SEQEND
  8
0
  0
POLYLINE
  8
255
 66
1
 10
0.0000
 20
0.0000
 30
0.0000
 40
0.0762
 41
0.0762
 70
0
  0
VERTEX
  8
255
 10
-2.6272
 20
39.0262
 30
0.0000
 42
1.0000
  0
VERTEX
  8
255
 10
-2.6810
 20
39.0801
 30
0.0000
  0
SEQEND
  8
0
  0
POLYLINE
  8
255
 66
1
 10
0.0000
 20
0.0000
 30
0.0000
 40
0.1524
 41
0.1524
 70
0
  0
VERTEX
  8
255
 10
-2.9253
 20
38.7820
 30
0.0000
  0
VERTEX
  8
255
 10
-2.9253
 20
37.6974
 30
0.0000
  0
SEQEND
  8
0
  0
POLYLINE
  8
255
 66
1
 10
0.0000
 20
0.0000
 30
0.0000
 40
0.0762
 41
0.0762
 70
0
  0
VERTEX
  8
255
 10
-2.9634
 20
37.6974
 30
0.0000
 42
1.0000
  0
VERTEX
  8
255
 10
-2.8872
 20
37.6974
 30
0.0000
  0
SEQEND
  8
0
  0
POLYLINE
  8
255
 66
1
 10
0.0000
 20
0.0000
 30
0.0000
 40
0.0762
 41
0.0762
 70
0
  0
VERTEX
  8
255
 10
-2.8872
 20
38.7820
 30
0.0000
 42
1.0000
  0
VERTEX
  8
255
 10
-2.9634
 20
38.7820
 30
0.0000
  0
SEQEND
  8
0
  0
POLYLINE
  8
255
 66
1
 10
0.0000
 20
0.0000
 30
0.0000
 40
0.1524
 41
0.1524
 70
0
  0
VERTEX
  8
255
 10
-2.9253
 20
37.6974
 30
0.0000
  0
VERTEX
  8
255
 10
-2.6541
 20
37.4262
 30
0.0000
  0
SEQEND
  8
0
  0
POLYLINE
  8
255
 66
1
 10
0.0000
 20
0.0000
 30
0.0000
 40
0.0762
 41
0.0762
 70
0
  0
VERTEX
  8
255
 10
-2.6810
 20
37.3993
 30
0.0000
 42
1.0000
  0
VERTEX
  8
255
 10
-2.6272
 20
37.4531
 30
0.0000
  0
SEQEND
  8
0
  0
POLYLINE
  8
255
 66
1
 10
0.0000
 20
0.0000
 30
0.0000
 40
0.0762
 41
0.0762
 70
0
  0
VERTEX
  8
255
 10
-2.8983
 20
37.7243
 30
0.0000
 42
1.0000
  0
VERTEX
  8
255
 10
-2.9522
 20
37.6704
 30
0.0000
  0
SEQEND
  8
0
  0
POLYLINE
  8
255
 66
1
 10
0.0000
 20
0.0000
 30
0.0000
 40
0.1524
 41
0.1524
 70
0
  0
VERTEX
  8
255
 10
-2.6541
 20
37.4262
 30
0.0000
  0
VERTEX
  8
255
 10
-2.1118
 20
37.4262
 30
0.0000
  0
SEQEND
  8
0
  0
POLYLINE
  8
255
 66
1
 10
0.0000
 20
0.0000
 30
0.0000
 40
0.0762
 41
0.0762
 70
0
  0
VERTEX
  8
255
 10
-2.1118
 20
37.3881
 30
0.0000
 42
1.0000
  0
VERTEX
  8
255
 10
-2.1118
 20
37.4643
 30
0.0000
  0
SEQEND
  8
0
  0
POLYLINE
  8
255
 66
1
 10
0.0000
 20
0.0000
 30
0.0000
 40
0.0762
 41
0.0762
 70
0
  0
VERTEX
  8
255
 10
-2.6541
 20
37.4643
 30
0.0000
 42
1.0000
  0
VERTEX
  8
255
 10
-2.6541
 20
37.3881
 30
0.0000
  0
SEQEND
  8
0
  0
POLYLINE
  8
255
 66
1
 10
0.0000
 20
0.0000
 30
0.0000
 40
0.1524
 41
0.1524
 70
0
  0
VERTEX
  8
255
 10
-2.1118
 20
37.4262
 30
0.0000
  0
VERTEX
  8
255
 10
-1.8406
 20
37.6974
 30
0.0000
  0
SEQEND
  8
0
  0
POLYLINE
  8
255
 66
1
 10
0.0000
 20
0.0000
 30
0.0000
 40
0.0762
 41
0.0762
 70
0
  0
VERTEX
  8
255
 10
-1.8137
 20
37.6704
 30
0.0000
 42
1.0000
  0
VERTEX
  8
255
 10
-1.8675
 20
37.7243
 30
0.0000
  0
SEQEND
  8
0
  0
POLYLINE
  8
255
 66
1
 10
0.0000
 20
0.0000
 30
0.0000
 40
0.0762
 41
0.0762
 70
0
  0
VERTEX
  8
255
 10
-2.1387
 20
37.4531
 30
0.0000
 42
1.0000
  0
VERTEX
  8
255
 10
-2.0848
 20
37.3993
 30
0.0000
  0
SEQEND
  8
0
  0
POLYLINE
  8
255
 66
1
 10
0.0000
 20
0.0000
 30
0.0000
 40
0.1524
 41
0.1524
 70
0
  0
VERTEX
  8
255
 10
-1.8406
 20
37.6974
 30
0.0000
  0
VERTEX
  8
255
 10
-1.8406
 20
38.2397
 30
0.0000
  0
SEQEND
  8
0
  0
POLYLINE
  8
255
 66
1
 10
0.0000
 20
0.0000
 30
0.0000
 40
0.0762
 41
0.0762
 70
0
  0
VERTEX
  8
255
 10
-1.8025
 20
38.2397
 30
0.0000
 42
1.0000
  0
VERTEX
  8
255
 10
-1.8787
 20
38.2397
 30
0.0000
  0
SEQEND
  8
0
  0
POLYLINE
  8
255
 66
1
 10
0.0000
 20
0.0000
 30
0.0000
 40
0.0762
 41
0.0762
 70
0
  0
VERTEX
  8
255
 10
-1.8787
 20
37.6974
 30
0.0000
 42
1.0000
  0
VERTEX
  8
255
 10
-1.8025
 20
37.6974
 30
0.0000
  0
SEQEND
  8
0
  0
POLYLINE
  8
255
 66
1
 10
0.0000
 20
0.0000
 30
0.0000
 40
0.1524
 41
0.1524
 70
0
  0
VERTEX
  8
255
 10
-1.8406
 20
38.2397
 30
0.0000
  0
VERTEX
  8
255
 10
-2.3829
 20
38.2397
 30
0.0000
  0
SEQEND
  8
0
  0
POLYLINE
  8
255
 66
1
 10
0.0000
 20
0.0000
 30
0.0000
 40
0.0762
 41
0.0762
 70
0
  0
VERTEX
  8
255
 10
-2.3829
 20
38.2778
 30
0.0000
 42
1.0000
  0
VERTEX
  8
255
 10
-2.3829
 20
38.2016
 30
0.0000
  0
SEQEND
  8
0
  0
POLYLINE
  8
255
 66
1
 10
0.0000
 20
0.0000
 30
0.0000
 40
0.0762
 41
0.0762
 70
0
  0
VERTEX
  8
255
 10
-1.8406
 20
38.2016
 30
0.0000
 42
1.0000
  0
VERTEX
  8
255
 10
-1.8406
 20
38.2778
 30
0.0000
  0
SEQEND
  8
0
  0
POLYLINE
  8
255
 66
1
 10
0.0000
 20
0.0000
 30
0.0000
 40
0.1524
 41
0.1524
 70
0
  0
VERTEX
  8
255
 10
-1.0169
 20
38.5109
 30
0.0000
  0
VERTEX
  8
255
 10
-0.4746
 20
38.5109
 30
0.0000
  0
SEQEND
  8
0
  0
POLYLINE
  8
255
 66
1
 10
0.0000
 20
0.0000
 30
0.0000
 40
0.0762
 41
0.0762
 70
0
  0
VERTEX
  8
255
 10
-0.4746
 20
38.4728
 30
0.0000
 42
1.0000
  0
VERTEX
  8
255
 10
-0.4746
 20
38.5490
 30
0.0000
  0
SEQEND
  8
0
  0
POLYLINE
  8
255
 66
1
 10
0.0000
 20
0.0000
 30
0.0000
 40
0.0762
 41
0.0762
 70
0
  0
VERTEX
  8
255
 10
-1.0169
 20
38.5490
 30
0.0000
 42
1.0000
  0
VERTEX
  8
255
 10
-1.0169
 20
38.4728
 30
0.0000
  0
SEQEND
  8
0
  0
POLYLINE
  8
255
 66
1
 10
0.0000
 20
0.0000
 30
0.0000
 40
0.1524
 41
0.1524
 70
0
  0
VERTEX
  8
255
 10
-0.4746
 20
38.5109
 30
0.0000
  0
VERTEX
  8
255
 10
-0.2034
 20
38.2397
 30
0.0000
  0
SEQEND
  8
0
  0
POLYLINE
  8
255
 66
1
 10
0.0000
 20
0.0000
 30
0.0000
 40
0.0762
 41
0.0762
 70
0
  0
VERTEX
  8
255
 10
-0.2304
 20
38.2128
 30
0.0000
 42
1.0000
  0
VERTEX
  8
255
 10
-0.1765
 20
38.2666
 30
0.0000
  0
SEQEND
  8
0
  0
POLYLINE
  8
255
 66
1
 10
0.0000
 20
0.0000
 30
0.0000
 40
0.0762
 41
0.0762
 70
0
  0
VERTEX
  8
255
 10
-0.4477
 20
38.5378
 30
0.0000
 42
1.0000
  0
VERTEX
  8
255
 10
-0.5015
 20
38.4839
 30
0.0000
  0
SEQEND
  8
0
  0
POLYLINE
  8
255
 66
1
 10
0.0000
 20
0.0000
 30
0.0000
 40
0.1524
 41
0.1524
 70
0
  0
VERTEX
  8
255
 10
-0.2034
 20
38.2397
 30
0.0000
  0
VERTEX
  8
255
 10
-0.2034
 20
37.4262
 30
0.0000
  0
SEQEND
  8
0
  0
POLYLINE
  8
255
 66
1
 10
0.0000
 20
0.0000
 30
0.0000
 40
0.0762
 41
0.0762
 70
0
  0
VERTEX
  8
255
 10
-0.2415
 20
37.4262
 30
0.0000
 42
1.0000
  0
VERTEX
  8
255
 10
-0.1653
 20
37.4262
 30
0.0000
  0
SEQEND
  8
0
  0
POLYLINE
  8
255
 66
1
 10
0.0000
 20
0.0000
 30
0.0000
 40
0.0762
 41
0.0762
 70
0
  0
VERTEX
  8
255
 10
-0.1653
 20
38.2397
 30
0.0000
 42
1.0000
  0
VERTEX
  8
255
 10
-0.2415
 20
38.2397
 30
0.0000
  0
SEQEND
  8
0
  0
POLYLINE
  8
255
 66
1
 10
0.0000
 20
0.0000
 30
0.0000
 40
0.1524
 41
0.1524
 70
0
  0
VERTEX
  8
255
 10
-0.2034
 20
37.4262
 30
0.0000
  0
VERTEX
  8
255
 10
-1.0169
 20
37.4262
 30
0.0000
  0
SEQEND
  8
0
  0
POLYLINE
  8
255
 66
1
 10
0.0000
 20
0.0000
 30
0.0000
 40
0.0762
 41
0.0762
 70
0
  0
VERTEX
  8
255
 10
-1.0169
 20
37.4643
 30
0.0000
 42
1.0000
  0
VERTEX
  8
255
 10
-1.0169
 20
37.3881
 30
0.0000
  0
SEQEND
  8
0
  0
POLYLINE
  8
255
 66
1
 10
0.0000
 20
0.0000
 30
0.0000
 40
0.0762
 41
0.0762
 70
0
  0
VERTEX
  8
255
 10
-0.2034
 20
37.3881
 30
0.0000
 42
1.0000
  0
VERTEX
  8
255
 10
-0.2034
 20
37.4643
 30
0.0000
  0
SEQEND
  8
0
  0
POLYLINE
  8
255
 66
1
 10
0.0000
 20
0.0000
 30
0.0000
 40
0.1524
 41
0.1524
 70
0
  0
VERTEX
  8
255
 10
-1.0169
 20
37.4262
 30
0.0000
  0
VERTEX
  8
255
 10
-1.2881
 20
37.6974
 30
0.0000
  0
SEQEND
  8
0
  0
POLYLINE
  8
255
 66
1
 10
0.0000
 20
0.0000
 30
0.0000
 40
0.0762
 41
0.0762
 70
0
  0
VERTEX
  8
255
 10
-1.2612
 20
37.7243
 30
0.0000
 42
1.0000
  0
VERTEX
  8
255
 10
-1.3150
 20
37.6704
 30
0.0000
  0
SEQEND
  8
0
  0
POLYLINE
  8
255
 66
1
 10
0.0000
 20
0.0000
 30
0.0000
 40
0.0762
 41
0.0762
 70
0
  0
VERTEX
  8
255
 10
-1.0439
 20
37.3993
 30
0.0000
 42
1.0000
  0
VERTEX
  8
255
 10
-0.9900
 20
37.4531
 30
0.0000
  0
SEQEND
  8
0
  0
POLYLINE
  8
255
 66
1
 10
0.0000
 20
0.0000
 30
0.0000
 40
0.1524
 41
0.1524
 70
0
  0
VERTEX
  8
255
 10
-1.2881
 20
37.6974
 30
0.0000
  0
VERTEX
  8
255
 10
-1.0169
 20
37.9685
 30
0.0000
  0
SEQEND
  8
0
  0
POLYLINE
  8
255
 66
1
 10
0.0000
 20
0.0000
 30
0.0000
 40
0.0762
 41
0.0762
 70
0
  0
VERTEX
  8
255
 10
-0.9900
 20
37.9416
 30
0.0000
 42
1.0000
  0
VERTEX
  8
255
 10
-1.0439
 20
37.9955
 30
0.0000
  0
SEQEND
  8
0
  0
POLYLINE
  8
255
 66
1
 10
0.0000
 20
0.0000
 30
0.0000
 40
0.0762
 41
0.0762
 70
0
  0
VERTEX
  8
255
 10
-1.3150
 20
37.7243
 30
0.0000
 42
1.0000
  0
VERTEX
  8
255
 10
-1.2612
 20
37.6704
 30
0.0000
  0
SEQEND
  8
0
  0
POLYLINE
  8
255
 66
1
 10
0.0000
 20
0.0000
 30
0.0000
 40
0.1524
 41
0.1524
 70
0
  0
VERTEX
  8
255
 10
-1.0169
 20
37.9685
 30
0.0000
  0
VERTEX
  8
255
 10
-0.2034
 20
37.9685
 30
0.0000
  0
SEQEND
  8
0
  0
POLYLINE
  8
255
 66
1
 10
0.0000
 20
0.0000
 30
0.0000
 40
0.0762
 41
0.0762
 70
0
  0
VERTEX
  8
255
 10
-0.2034
 20
37.9304
 30
0.0000
 42
1.0000
  0
VERTEX
  8
255
 10
-0.2034
 20
38.0066
 30
0.0000
  0
SEQEND
  8
0
  0
POLYLINE
  8
255
 66
1
 10
0.0000
 20
0.0000
 30
0.0000
 40
0.0762
 41
0.0762
 70
0
  0
VERTEX
  8
255
 10
-1.0169
 20
38.0066
 30
0.0000
 42
1.0000
  0
VERTEX
  8
255
 10
-1.0169
 20
37.9304
 30
0.0000
  0
SEQEND
  8
0
  0
POLYLINE
  8
255
 66
1
 10
0.0000
 20
0.0000
 30
0.0000
 40
0.1524
 41
0.1524
 70
0
  0
VERTEX
  8
255
 10
0.6202
 20
38.7820
 30
0.0000
  0
VERTEX
  8
255
 10
0.6202
 20
37.6974
 30
0.0000
  0
SEQEND
  8
0
  0
POLYLINE
  8
255
 66
1
 10
0.0000
 20
0.0000
 30
0.0000
 40
0.0762
 41
0.0762
 70
0
  0
VERTEX
  8
255
 10
0.5821
 20
37.6974
 30
0.0000
 42
1.0000
  0
VERTEX
  8
255
 10
0.6583
 20
37.6974
 30
0.0000
  0
SEQEND
  8
0
  0
POLYLINE
  8
255
 66
1
 10
0.0000
 20
0.0000
 30
0.0000
 40
0.0762
 41
0.0762
 70
0
  0
VERTEX
  8
255
 10
0.6583
 20
38.7820
 30
0.0000
 42
1.0000
  0
VERTEX
  8
255
 10
0.5821
 20
38.7820
 30
0.0000
  0
SEQEND
  8
0
  0
POLYLINE
  8
255
 66
1
 10
0.0000
 20
0.0000
 30
0.0000
 40
0.1524
 41
0.1524
 70
0
  0
VERTEX
  8
255
 10
0.6202
 20
37.6974
 30
0.0000
  0
VERTEX
  8
255
 10
0.8914
 20
37.4262
 30
0.0000
  0
SEQEND
  8
0
  0
POLYLINE
  8
255
 66
1
 10
0.0000
 20
0.0000
 30
0.0000
 40
0.0762
 41
0.0762
 70
0
  0
VERTEX
  8
255
 10
0.8644
 20
37.3993
 30
0.0000
 42
1.0000
  0
VERTEX
  8
255
 10
0.9183
 20
37.4531
 30
0.0000
  0
SEQEND
  8
0
  0
POLYLINE
  8
255
 66
1
 10
0.0000
 20
0.0000
 30
0.0000
 40
0.0762
 41
0.0762
 70
0
  0
VERTEX
  8
255
 10
0.6472
 20
37.7243
 30
0.0000
 42
1.0000
  0
VERTEX
  8
255
 10
0.5933
 20
37.6704
 30
0.0000
  0
SEQEND
  8
0
  0
POLYLINE
  8
255
 66
1
 10
0.0000
 20
0.0000
 30
0.0000
 40
0.1524
 41
0.1524
 70
0
  0
VERTEX
  8
255
 10
0.3491
 20
38.5109
 30
0.0000
  0
VERTEX
  8
255
 10
0.8914
 20
38.5109
 30
0.0000
  0
SEQEND
  8
0
  0
POLYLINE
  8
255
 66
1
 10
0.0000
 20
0.0000
 30
0.0000
 40
0.0762
 41
0.0762
 70
0
  0
VERTEX
  8
255
 10
0.8914
 20
38.4728
 30
0.0000
 42
1.0000
  0
VERTEX
  8
255
 10
0.8914
 20
38.5490
 30
0.0000
  0
SEQEND
  8
0
  0
POLYLINE
  8
255
 66
1
 10
0.0000
 20
0.0000
 30
0.0000
 40
0.0762
 41
0.0762
 70
0
  0
VERTEX
  8
255
 10
0.3491
 20
38.5490
 30
0.0000
 42
1.0000
  0
VERTEX
  8
255
 10
0.3491
 20
38.4728
 30
0.0000
  0
SEQEND
  8
0
  0
POLYLINE
  8
255
 66
1
 10
0.0000
 20
0.0000
 30
0.0000
 40
0.1524
 41
0.1524
 70
0
  0
VERTEX
  8
255
 10
2.2540
 20
37.4262
 30
0.0000
  0
VERTEX
  8
255
 10
1.7117
 20
37.4262
 30
0.0000
  0
SEQEND
  8
0
  0
POLYLINE
  8
255
 66
1
 10
0.0000
 20
0.0000
 30
0.0000
 40
0.0762
 41
0.0762
 70
0
  0
VERTEX
  8
255
 10
1.7117
 20
37.4643
 30
0.0000
 42
1.0000
  0
VERTEX
  8
255
 10
1.7117
 20
37.3881
 30
0.0000
  0
SEQEND
  8
0
  0
POLYLINE
  8
255
 66
1
 10
0.0000
 20
0.0000
 30
0.0000
 40
0.0762
 41
0.0762
 70
0
  0
VERTEX
  8
255
 10
2.2540
 20
37.3881
 30
0.0000
 42
1.0000
  0
VERTEX
  8
255
 10
2.2540
 20
37.4643
 30
0.0000
  0
SEQEND
  8
0
  0
POLYLINE
  8
255
 66
1
 10
0.0000
 20
0.0000
 30
0.0000
 40
0.1524
 41
0.1524
 70
0
  0
VERTEX
  8
255
 10
1.7117
 20
37.4262
 30
0.0000
  0
VERTEX
  8
255
 10
1.4405
 20
37.6974
 30
0.0000
  0
SEQEND
  8
0
  0
POLYLINE
  8
255
 66
1
 10
0.0000
 20
0.0000
 30
0.0000
 40
0.0762
 41
0.0762
 70
0
  0
VERTEX
  8
255
 10
1.4674
 20
37.7243
 30
0.0000
 42
1.0000
  0
VERTEX
  8
255
 10
1.4136
 20
37.6704
 30
0.0000
  0
SEQEND
  8
0
  0
POLYLINE
  8
255
 66
1
 10
0.0000
 20
0.0000
 30
0.0000
 40
0.0762
 41
0.0762
 70
0
  0
VERTEX
  8
255
 10
1.6847
 20
37.3993
 30
0.0000
 42
1.0000
  0
VERTEX
  8
255
 10
1.7386
 20
37.4531
 30
0.0000
  0
SEQEND
  8
0
  0
POLYLINE
  8
255
 66
1
 10
0.0000
 20
0.0000
 30
0.0000
 40
0.1524
 41
0.1524
 70
0
  0
VERTEX
  8
255
 10
1.4405
 20
37.6974
 30
0.0000
  0
VERTEX
  8
255
 10
1.4405
 20
38.2397
 30
0.0000
  0
SEQEND
  8
0
  0
POLYLINE
  8
255
 66
1
 10
0.0000
 20
0.0000
 30
0.0000
 40
0.0762
 41
0.0762
 70
0
  0
VERTEX
  8
255
 10
1.4786
 20
38.2397
 30
0.0000
 42
1.0000
  0
VERTEX
  8
255
 10
1.4024
 20
38.2397
 30
0.0000
  0
SEQEND
  8
0
  0
POLYLINE
  8
255
 66
1
 10
0.0000
 20
0.0000
 30
0.0000
 40
0.0762
 41
0.0762
 70
0
  0
VERTEX
  8
255
 10
1.4024
 20
37.6974
 30
0.0000
 42
1.0000
  0
VERTEX
  8
255
 10
1.4786
 20
37.6974
 30
0.0000
  0
SEQEND
  8
0
  0
POLYLINE
  8
255
 66
1
 10
0.0000
 20
0.0000
 30
0.0000
 40
0.1524
 41
0.1524
 70
0
  0
VERTEX
  8
255
 10
1.4405
 20
38.2397
 30
0.0000
  0
VERTEX
  8
255
 10
1.7117
 20
38.5109
 30
0.0000
  0
SEQEND
  8
0
  0
POLYLINE
  8
255
 66
1
 10
0.0000
 20
0.0000
 30
0.0000
 40
0.0762
 41
0.0762
 70
0
  0
VERTEX
  8
255
 10
1.7386
 20
38.4839
 30
0.0000
 42
1.0000
  0
VERTEX
  8
255
 10
1.6847
 20
38.5378
 30
0.0000
  0
SEQEND
  8
0
  0
POLYLINE
  8
255
 66
1
 10
0.0000
 20
0.0000
 30
0.0000
 40
0.0762
 41
0.0762
 70
0
  0
VERTEX
  8
255
 10
1.4136
 20
38.2666
 30
0.0000
 42
1.0000
  0
VERTEX
  8
255
 10
1.4674
 20
38.2128
 30
0.0000
  0
SEQEND
  8
0
  0
POLYLINE
  8
255
 66
1
 10
0.0000
 20
0.0000
 30
0.0000
 40
0.1524
 41
0.1524
 70
0
  0
VERTEX
  8
255
 10
1.7117
 20
38.5109
 30
0.0000
  0
VERTEX
  8
255
 10
2.2540
 20
38.5109
 30
0.0000
  0
SEQEND
  8
0
  0
POLYLINE
  8
255
 66
1
 10
0.0000
 20
0.0000
 30
0.0000
 40
0.0762
 41
0.0762
 70
0
  0
VERTEX
  8
255
 10
2.2540
 20
38.4728
 30
0.0000
 42
1.0000
  0
VERTEX
  8
255
 10
2.2540
 20
38.5490
 30
0.0000
  0
SEQEND
  8
0
  0
POLYLINE
  8
255
 66
1
 10
0.0000
 20
0.0000
 30
0.0000
 40
0.0762
 41
0.0762
 70
0
  0
VERTEX
  8
255
 10
1.7117
 20
38.5490
 30
0.0000
 42
1.0000
  0
VERTEX
  8
255
 10
1.7117
 20
38.4728
 30
0.0000
  0
SEQEND
  8
0
  0
POLYLINE
  8
255
 66
1
 10
0.0000
 20
0.0000
 30
0.0000
 40
0.1524
 41
0.1524
 70
0
  0
VERTEX
  8
255
 10
2.2540
 20
38.5109
 30
0.0000
  0
VERTEX
  8
255
 10
2.5252
 20
38.2397
 30
0.0000
  0
SEQEND
  8
0
  0
POLYLINE
  8
255
 66
1
 10
0.0000
 20
0.0000
 30
0.0000
 40
0.0762
 41
0.0762
 70
0
  0
VERTEX
  8
255
 10
2.4982
 20
38.2128
 30
0.0000
 42
1.0000
  0
VERTEX
  8
255
 10
2.5521
 20
38.2666
 30
0.0000
  0
SEQEND
  8
0
  0
POLYLINE
  8
255
 66
1
 10
0.0000
 20
0.0000
 30
0.0000
 40
0.0762
 41
0.0762
 70
0
  0
VERTEX
  8
255
 10
2.2809
 20
38.5378
 30
0.0000
 42
1.0000
  0
VERTEX
  8
255
 10
2.2270
 20
38.4839
 30
0.0000
  0
SEQEND
  8
0
  0
POLYLINE
  8
255
 66
1
 10
0.0000
 20
0.0000
 30
0.0000
 40
0.1524
 41
0.1524
 70
0
  0
VERTEX
  8
255
 10
2.5252
 20
38.2397
 30
0.0000
  0
VERTEX
  8
255
 10
2.5252
 20
37.9685
 30
0.0000
  0
SEQEND
  8
0
  0
POLYLINE
  8
255
 66
1
 10
0.0000
 20
0.0000
 30
0.0000
 40
0.0762
 41
0.0762
 70
0
  0
VERTEX
  8
255
 10
2.4871
 20
37.9685
 30
0.0000
 42
1.0000
  0
VERTEX
  8
255
 10
2.5633
 20
37.9685
 30
0.0000
  0
SEQEND
  8
0
  0
POLYLINE
  8
255
 66
1
 10
0.0000
 20
0.0000
 30
0.0000
 40
0.0762
 41
0.0762
 70
0
  0
VERTEX
  8
255
 10
2.5633
 20
38.2397
 30
0.0000
 42
1.0000
  0
VERTEX
  8
255
 10
2.4871
 20
38.2397
 30
0.0000
  0
SEQEND
  8
0
  0
POLYLINE
  8
255
 66
1
 10
0.0000
 20
0.0000
 30
0.0000
 40
0.1524
 41
0.1524
 70
0
  0
VERTEX
  8
255
 10
2.5252
 20
37.9685
 30
0.0000
  0
VERTEX
  8
255
 10
1.4405
 20
37.9685
 30
0.0000
  0
SEQEND
  8
0
  0
POLYLINE
  8
255
 66
1
 10
0.0000
 20
0.0000
 30
0.0000
 40
0.0762
 41
0.0762
 70
0
  0
VERTEX
  8
255
 10
1.4405
 20
38.0066
 30
0.0000
 42
1.0000
  0
VERTEX
  8
255
 10
1.4405
 20
37.9304
 30
0.0000
  0
SEQEND
  8
0
  0
POLYLINE
  8
255
 66
1
 10
0.0000
 20
0.0000
 30
0.0000
 40
0.0762
 41
0.0762
 70
0
  0
VERTEX
  8
255
 10
2.5252
 20
37.9304
 30
0.0000
 42
1.0000
  0
VERTEX
  8
255
 10
2.5252
 20
38.0066
 30
0.0000
  0
SEQEND
  8
0
  0
POLYLINE
  8
255
 66
1
 10
0.0000
 20
0.0000
 30
0.0000
 40
0.0254
 41
0.0254
 70
0
  0
VERTEX
  8
255
 10
0.0000
 20
27.0000
 30
0.0000
 42
1.0000
  0
VERTEX
  8
255
 10
0.0000
 20
35.0000
 30
0.0000
 42
1.0000
  0
VERTEX
  8
255
 10
0.0000
 20
27.0000
 30
0.0000
  0
SEQEND
  8
0
  0
POLYLINE
  8
255
 66
1
 10
0.0000
 20
0.0000
 30
0.0000
 40
0.1524
 41
0.1524
 70
0
  0
VERTEX
  8
255
 10
-9.9253
 20
15.4262
 30
0.0000
  0
VERTEX
  8
255
 10
-9.3829
 20
15.4262
 30
0.0000
  0
SEQEND
  8
0
  0
POLYLINE
  8
255
 66
1
 10
0.0000
 20
0.0000
 30
0.0000
 40
0.0762
 41
0.0762
 70
0
  0
VERTEX
  8
255
 10
-9.3829
 20
15.3881
 30
0.0000
 42
1.0000
  0
VERTEX
  8
255
 10
-9.3829
 20
15.4643
 30
0.0000
  0
SEQEND
  8
0
  0
POLYLINE
  8
255
 66
1
 10
0.0000
 20
0.0000
 30
0.0000
 40
0.0762
 41
0.0762
 70
0
  0
VERTEX
  8
255
 10
-9.9253
 20
15.4643
 30
0.0000
 42
1.0000
  0
VERTEX
  8
255
 10
-9.9253
 20
15.3881
 30
0.0000
  0
SEQEND
  8
0
  0
POLYLINE
  8
255
 66
1
 10
0.0000
 20
0.0000
 30
0.0000
 40
0.1524
 41
0.1524
 70
0
  0
VERTEX
  8
255
 10
-9.6541
 20
15.4262
 30
0.0000
  0
VERTEX
  8
255
 10
-9.6541
 20
17.0532
 30
0.0000
  0
SEQEND
  8
0
  0
POLYLINE
  8
255
 66
1
 10
0.0000
 20
0.0000
 30
0.0000
 40
0.0762
 41
0.0762
 70
0
  0
VERTEX
  8
255
 10
-9.6160
 20
17.0532
 30
0.0000
 42
1.0000
  0
VERTEX
  8
255
 10
-9.6922
 20
17.0532
 30
0.0000
  0
SEQEND
  8
0
  0
POLYLINE
  8
255
 66
1
 10
0.0000
 20
0.0000
 30
0.0000
 40
0.0762
 41
0.0762
 70
0
  0
VERTEX
  8
255
 10
-9.6922
 20
15.4262
 30
0.0000
 42
1.0000
  0
VERTEX
  8
255
 10
-9.6160
 20
15.4262
 30
0.0000
  0
SEQEND
  8
0
  0
POLYLINE
  8
255
 66
1
 10
0.0000
 20
0.0000
 30
0.0000
 40
0.1524
 41
0.1524
 70
0
  0
VERTEX
  8
255
 10
-9.9253
 20
17.0532
 30
0.0000
  0
VERTEX
  8
255
 10
-9.3829
 20
17.0532
 30
0.0000
  0
SEQEND
  8
0
  0
POLYLINE
  8
255
 66
1
 10
0.0000
 20
0.0000
 30
0.0000
 40
0.0762
 41
0.0762
 70
0
  0
VERTEX
  8
255
 10
-9.3829
 20
17.0151
 30
0.0000
 42
1.0000
  0
VERTEX
  8
255
 10
-9.3829
 20
17.0913
 30
0.0000
  0
SEQEND
  8
0
  0
POLYLINE
  8
255
 66
1
 10
0.0000
 20
0.0000
 30
0.0000
 40
0.0762
 41
0.0762
 70
0
  0
VERTEX
  8
255
 10
-9.9253
 20
17.0913
 30
0.0000
 42
1.0000
  0
VERTEX
  8
255
 10
-9.9253
 20
17.0151
 30
0.0000
  0
SEQEND
  8
0
  0
POLYLINE
  8
255
 66
1
 10
0.0000
 20
0.0000
 30
0.0000
 40
0.1524
 41
0.1524
 70
0
  0
VERTEX
  8
255
 10
-8.8338
 20
15.4262
 30
0.0000
  0
VERTEX
  8
255
 10
-8.8338
 20
16.5109
 30
0.0000
  0
SEQEND
  8
0
  0
POLYLINE
  8
255
 66
1
 10
0.0000
 20
0.0000
 30
0.0000
 40
0.0762
 41
0.0762
 70
0
  0
VERTEX
  8
255
 10
-8.7957
 20
16.5109
 30
0.0000
 42
1.0000
  0
VERTEX
  8
255
 10
-8.8719
 20
16.5109
 30
0.0000
  0
SEQEND
  8
0
  0
POLYLINE
  8
255
 66
1
 10
0.0000
 20
0.0000
 30
0.0000
 40
0.0762
 41
0.0762
 70
0
  0
VERTEX
  8
255
 10
-8.8719
 20
15.4262
 30
0.0000
 42
1.0000
  0
VERTEX
  8
255
 10
-8.7957
 20
15.4262
 30
0.0000
  0
SEQEND
  8
0
  0
POLYLINE
  8
255
 66
1
 10
0.0000
 20
0.0000
 30
0.0000
 40
0.1524
 41
0.1524
 70
0
  0
VERTEX
  8
255
 10
-8.8338
 20
16.5109
 30
0.0000
  0
VERTEX
  8
255
 10
-8.0203
 20
16.5109
 30
0.0000
  0
SEQEND
  8
0
  0
POLYLINE
  8
255
 66
1
 10
0.0000
 20
0.0000
 30
0.0000
 40
0.0762
 41
0.0762
 70
0
  0
VERTEX
  8
255
 10
-8.0203
 20
16.4728
 30
0.0000
 42
1.0000
  0
VERTEX
  8
255
 10
-8.0203
 20
16.5490
 30
0.0000
  0
SEQEND
  8
0
  0
POLYLINE
  8
255
 66
1
 10
0.0000
 20
0.0000
 30
0.0000
 40
0.0762
 41
0.0762
 70
0
  0
VERTEX
  8
255
 10
-8.8338
 20
16.5490
 30
0.0000
 42
1.0000
  0
VERTEX
  8
255
 10
-8.8338
 20
16.4728
 30
0.0000
  0
SEQEND
  8
0
  0
POLYLINE
  8
255
 66
1
 10
0.0000
 20
0.0000
 30
0.0000
 40
0.1524
 41
0.1524
 70
0
  0
VERTEX
  8
255
 10
-8.0203
 20
16.5109
 30
0.0000
  0
VERTEX
  8
255
 10
-7.7492
 20
16.2397
 30
0.0000
  0
SEQEND
  8
0
  0
POLYLINE
  8
255
 66
1
 10
0.0000
 20
0.0000
 30
0.0000
 40
0.0762
 41
0.0762
 70
0
  0
VERTEX
  8
255
 10
-7.7761
 20
16.2128
 30
0.0000
 42
1.0000
  0
VERTEX
  8
255
 10
-7.7222
 20
16.2666
 30
0.0000
  0
SEQEND
  8
0
  0
POLYLINE
  8
255
 66
1
 10
0.0000
 20
0.0000
 30
0.0000
 40
0.0762
 41
0.0762
 70
0
  0
VERTEX
  8
255
 10
-7.9934
 20
16.5378
 30
0.0000
 42
1.0000
  0
VERTEX
  8
255
 10
-8.0473
 20
16.4839
 30
0.0000
  0
SEQEND
  8
0
  0
POLYLINE
  8
255
 66
1
 10
0.0000
 20
0.0000
 30
0.0000
 40
0.1524
 41
0.1524
 70
0
  0
VERTEX
  8
255
 10
-7.7492
 20
16.2397
 30
0.0000
  0
VERTEX
  8
255
 10
-7.7492
 20
15.4262
 30
0.0000
  0
SEQEND
  8
0
  0
POLYLINE
  8
255
 66
1
 10
0.0000
 20
0.0000
 30
0.0000
 40
0.0762
 41
0.0762
 70
0
  0
VERTEX
  8
255
 10
-7.7873
 20
15.4262
 30
0.0000
 42
1.0000
  0
VERTEX
  8
255
 10
-7.7111
 20
15.4262
 30
0.0000
  0
SEQEND
  8
0
  0
POLYLINE
  8
255
 66
1
 10
0.0000
 20
0.0000
 30
0.0000
 40
0.0762
 41
0.0762
 70
0
  0
VERTEX
  8
255
 10
-7.7111
 20
16.2397
 30
0.0000
 42
1.0000
  0
VERTEX
  8
255
 10
-7.7873
 20
16.2397
 30
0.0000
  0
SEQEND
  8
0
  0
POLYLINE
  8
255
 66
1
 10
0.0000
 20
0.0000
 30
0.0000
 40
0.1524
 41
0.1524
 70
0
  0
VERTEX
  8
255
 10
-4.4748
 20
15.4262
 30
0.0000
  0
VERTEX
  8
255
 10
-5.5595
 20
15.4262
 30
0.0000
  0
SEQEND
  8
0
  0
POLYLINE
  8
255
 66
1
 10
0.0000
 20
0.0000
 30
0.0000
 40
0.0762
 41
0.0762
 70
0
  0
VERTEX
  8
255
 10
-5.5595
 20
15.4643
 30
0.0000
 42
1.0000
  0
VERTEX
  8
255
 10
-5.5595
 20
15.3881
 30
0.0000
  0
SEQEND
  8
0
  0
POLYLINE
  8
255
 66
1
 10
0.0000
 20
0.0000
 30
0.0000
 40
0.0762
 41
0.0762
 70
0
  0
VERTEX
  8
255
 10
-4.4748
 20
15.3881
 30
0.0000
 42
1.0000
  0
VERTEX
  8
255
 10
-4.4748
 20
15.4643
 30
0.0000
  0
SEQEND
  8
0
  0
POLYLINE
  8
255
 66
1
 10
0.0000
 20
0.0000
 30
0.0000
 40
0.1524
 41
0.1524
 70
0
  0
VERTEX
  8
255
 10
-5.5595
 20
15.4262
 30
0.0000
  0
VERTEX
  8
255
 10
-4.4748
 20
16.5109
 30
0.0000
  0
SEQEND
  8
0
  0
POLYLINE
  8
255
 66
1
 10
0.0000
 20
0.0000
 30
0.0000
 40
0.0762
 41
0.0762
 70
0
  0
VERTEX
  8
255
 10
-4.4479
 20
16.4839
 30
0.0000
 42
1.0000
  0
VERTEX
  8
255
 10
-4.5018
 20
16.5378
 30
0.0000
  0
SEQEND
  8
0
  0
POLYLINE
  8
255
 66
1
 10
0.0000
 20
0.0000
 30
0.0000
 40
0.0762
 41
0.0762
 70
0
  0
VERTEX
  8
255
 10
-5.5864
 20
15.4531
 30
0.0000
 42
1.0000
  0
VERTEX
  8
255
 10
-5.5326
 20
15.3993
 30
0.0000
  0
SEQEND
  8
0
  0
POLYLINE
  8
255
 66
1
 10
0.0000
 20
0.0000
 30
0.0000
 40
0.1524
 41
0.1524
 70
0
  0
VERTEX
  8
255
 10
-4.4748
 20
16.5109
 30
0.0000
  0
VERTEX
  8
255
 10
-4.4748
 20
16.7820
 30
0.0000
  0
SEQEND
  8
0
  0
POLYLINE
  8
255
 66
1
 10
0.0000
 20
0.0000
 30
0.0000
 40
0.0762
 41
0.0762
 70
0
  0
VERTEX
  8
255
 10
-4.4367
 20
16.7820
 30
0.0000
 42
1.0000
  0
VERTEX
  8
255
 10
-4.5129
 20
16.7820
 30
0.0000
  0
SEQEND
  8
0
  0
POLYLINE
  8
255
 66
1
 10
0.0000
 20
0.0000
 30
0.0000
 40
0.0762
 41
0.0762
 70
0
  0
VERTEX
  8
255
 10
-4.5129
 20
16.5109
 30
0.0000
 42
1.0000
  0
VERTEX
  8
255
 10
-4.4367
 20
16.5109
 30
0.0000
  0
SEQEND
  8
0
  0
POLYLINE
  8
255
 66
1
 10
0.0000
 20
0.0000
 30
0.0000
 40
0.1524
 41
0.1524
 70
0
  0
VERTEX
  8
255
 10
-4.4748
 20
16.7820
 30
0.0000
  0
VERTEX
  8
255
 10
-4.7460
 20
17.0532
 30
0.0000
  0
SEQEND
  8
0
  0
POLYLINE
  8
255
 66
1
 10
0.0000
 20
0.0000
 30
0.0000
 40
0.0762
 41
0.0762
 70
0
  0
VERTEX
  8
255
 10
-4.7191
 20
17.0801
 30
0.0000
 42
1.0000
  0
VERTEX
  8
255
 10
-4.7730
 20
17.0262
 30
0.0000
  0
SEQEND
  8
0
  0
POLYLINE
  8
255
 66
1
 10
0.0000
 20
0.0000
 30
0.0000
 40
0.0762
 41
0.0762
 70
0
  0
VERTEX
  8
255
 10
-4.5018
 20
16.7551
 30
0.0000
 42
1.0000
  0
VERTEX
  8
255
 10
-4.4479
 20
16.8090
 30
0.0000
  0
SEQEND
  8
0
  0
POLYLINE
  8
255
 66
1
 10
0.0000
 20
0.0000
 30
0.0000
 40
0.1524
 41
0.1524
 70
0
  0
VERTEX
  8
255
 10
-4.7460
 20
17.0532
 30
0.0000
  0
VERTEX
  8
255
 10
-5.2883
 20
17.0532
 30
0.0000
  0
SEQEND
  8
0
  0
POLYLINE
  8
255
 66
1
 10
0.0000
 20
0.0000
 30
0.0000
 40
0.0762
 41
0.0762
 70
0
  0
VERTEX
  8
255
 10
-5.2883
 20
17.0913
 30
0.0000
 42
1.0000
  0
VERTEX
  8
255
 10
-5.2883
 20
17.0151
 30
0.0000
  0
SEQEND
  8
0
  0
POLYLINE
  8
255
 66
1
 10
0.0000
 20
0.0000
 30
0.0000
 40
0.0762
 41
0.0762
 70
0
  0
VERTEX
  8
255
 10
-4.7460
 20
17.0151
 30
0.0000
 42
1.0000
  0
VERTEX
  8
255
 10
-4.7460
 20
17.0913
 30
0.0000
  0
SEQEND
  8
0
  0
POLYLINE
  8
255
 66
1
 10
0.0000
 20
0.0000
 30
0.0000
 40
0.1524
 41
0.1524
 70
0
  0
VERTEX
  8
255
 10
-5.2883
 20
17.0532
 30
0.0000
  0
VERTEX
  8
255
 10
-5.5595
 20
16.7820
 30
0.0000
  0
SEQEND
  8
0
  0
POLYLINE
  8
255
 66
1
 10
0.0000
 20
0.0000
 30
0.0000
 40
0.0762
 41
0.0762
 70
0
  0
VERTEX
  8
255
 10
-5.5864
 20
16.8090
 30
0.0000
 42
1.0000
  0
VERTEX
  8
255
 10
-5.5326
 20
16.7551
 30
0.0000
  0
SEQEND
  8
0
  0
POLYLINE
  8
255
 66
1
 10
0.0000
 20
0.0000
 30
0.0000
 40
0.0762
 41
0.0762
 70
0
  0
VERTEX
  8
255
 10
-5.2614
 20
17.0262
 30
0.0000
 42
1.0000
  0
VERTEX
  8
255
 10
-5.3153
 20
17.0801
 30
0.0000
  0
SEQEND
  8
0
  0
POLYLINE
  8
255
 66
1
 10
0.0000
 20
0.0000
 30
0.0000
 40
0.0254
 41
0.0254
 70
0
  0
VERTEX
  8
255
 10
-7.0000
 20
5.0000
 30
0.0000
 42
1.0000
  0
VERTEX
  8
255
 10
-7.0000
 20
13.0000
 30
0.0000
 42
1.0000
  0
VERTEX
  8
255
 10
-7.0000
 20
5.0000
 30
0.0000
  0
SEQEND
  8
0
  0
POLYLINE
  8
255
 66
1
 10
0.0000
 20
0.0000
 30
0.0000
 40
0.1524
 41
0.1524
 70
0
  0
VERTEX
  8
255
 10
-13.9253
 20
28.9262
 30
0.0000
  0
VERTEX
  8
255
 10
-13.3829
 20
28.9262
 30
0.0000
  0
SEQEND
  8
0
  0
POLYLINE
  8
255
 66
1
 10
0.0000
 20
0.0000
 30
0.0000
 40
0.0762
 41
0.0762
 70
0
  0
VERTEX
  8
255
 10
-13.3829
 20
28.8881
 30
0.0000
 42
1.0000
  0
VERTEX
  8
255
 10
-13.3829
 20
28.9643
 30
0.0000
  0
SEQEND
  8
0
  0
POLYLINE
  8
255
 66
1
 10
0.0000
 20
0.0000
 30
0.0000
 40
0.0762
 41
0.0762
 70
0
  0
VERTEX
  8
255
 10
-13.9253
 20
28.9643
 30
0.0000
 42
1.0000
  0
VERTEX
  8
255
 10
-13.9253
 20
28.8881
 30
0.0000
  0
SEQEND
  8
0
  0
POLYLINE
  8
255
 66
1
 10
0.0000
 20
0.0000
 30
0.0000
 40
0.1524
 41
0.1524
 70
0
  0
VERTEX
  8
255
 10
-13.6541
 20
28.9262
 30
0.0000
  0
VERTEX
  8
255
 10
-13.6541
 20
30.5532
 30
0.0000
  0
SEQEND
  8
0
  0
POLYLINE
  8
255
 66
1
 10
0.0000
 20
0.0000
 30
0.0000
 40
0.0762
 41
0.0762
 70
0
  0
VERTEX
  8
255
 10
-13.6160
 20
30.5532
 30
0.0000
 42
1.0000
  0
VERTEX
  8
255
 10
-13.6922
 20
30.5532
 30
0.0000
  0
SEQEND
  8
0
  0
POLYLINE
  8
255
 66
1
 10
0.0000
 20
0.0000
 30
0.0000
 40
0.0762
 41
0.0762
 70
0
  0
VERTEX
  8
255
 10
-13.6922
 20
28.9262
 30
0.0000
 42
1.0000
  0
VERTEX
  8
255
 10
-13.6160
 20
28.9262
 30
0.0000
  0
SEQEND
  8
0
  0
POLYLINE
  8
255
 66
1
 10
0.0000
 20
0.0000
 30
0.0000
 40
0.1524
 41
0.1524
 70
0
  0
VERTEX
  8
255
 10
-13.9253
 20
30.5532
 30
0.0000
  0
VERTEX
  8
255
 10
-13.3829
 20
30.5532
 30
0.0000
  0
SEQEND
  8
0
  0
POLYLINE
  8
255
 66
1
 10
0.0000
 20
0.0000
 30
0.0000
 40
0.0762
 41
0.0762
 70
0
  0
VERTEX
  8
255
 10
-13.3829
 20
30.5151
 30
0.0000
 42
1.0000
  0
VERTEX
  8
255
 10
-13.3829
 20
30.5913
 30
0.0000
  0
SEQEND
  8
0
  0
POLYLINE
  8
255
 66
1
 10
0.0000
 20
0.0000
 30
0.0000
 40
0.0762
 41
0.0762
 70
0
  0
VERTEX
  8
255
 10
-13.9253
 20
30.5913
 30
0.0000
 42
1.0000
  0
VERTEX
  8
255
 10
-13.9253
 20
30.5151
 30
0.0000
  0
SEQEND
  8
0
  0
POLYLINE
  8
255
 66
1
 10
0.0000
 20
0.0000
 30
0.0000
 40
0.1524
 41
0.1524
 70
0
  0
VERTEX
  8
255
 10
-12.8338
 20
28.9262
 30
0.0000
  0
VERTEX
  8
255
 10
-12.8338
 20
30.0109
 30
0.0000
  0
SEQEND
  8
0
  0
POLYLINE
  8
255
 66
1
 10
0.0000
 20
0.0000
 30
0.0000
 40
0.0762
 41
0.0762
 70
0
  0
VERTEX
  8
255
 10
-12.7957
 20
30.0109
 30
0.0000
 42
1.0000
  0
VERTEX
  8
255
 10
-12.8719
 20
30.0109
 30
0.0000
  0
SEQEND
  8
0
  0
POLYLINE
  8
255
 66
1
 10
0.0000
 20
0.0000
 30
0.0000
 40
0.0762
 41
0.0762
 70
0
  0
VERTEX
  8
255
 10
-12.8719
 20
28.9262
 30
0.0000
 42
1.0000
  0
VERTEX
  8
255
 10
-12.7957
 20
28.9262
 30
0.0000
  0
SEQEND
  8
0
  0
POLYLINE
  8
255
 66
1
 10
0.0000
 20
0.0000
 30
0.0000
 40
0.1524
 41
0.1524
 70
0
  0
VERTEX
  8
255
 10
-12.8338
 20
30.0109
 30
0.0000
  0
VERTEX
  8
255
 10
-12.0203
 20
30.0109
 30
0.0000
  0
SEQEND
  8
0
  0
POLYLINE
  8
255
 66
1
 10
0.0000
 20
0.0000
 30
0.0000
 40
0.0762
 41
0.0762
 70
0
  0
VERTEX
  8
255
 10
-12.0203
 20
29.9728
 30
0.0000
 42
1.0000
  0
VERTEX
  8
255
 10
-12.0203
 20
30.0490
 30
0.0000
  0
SEQEND
  8
0
  0
POLYLINE
  8
255
 66
1
 10
0.0000
 20
0.0000
 30
0.0000
 40
0.0762
 41
0.0762
 70
0
  0
VERTEX
  8
255
 10
-12.8338
 20
30.0490
 30
0.0000
 42
1.0000
  0
VERTEX
  8
255
 10
-12.8338
 20
29.9728
 30
0.0000
  0
SEQEND
  8
0
  0
POLYLINE
  8
255
 66
1
 10
0.0000
 20
0.0000
 30
0.0000
 40
0.1524
 41
0.1524
 70
0
  0
VERTEX
  8
255
 10
-12.0203
 20
30.0109
 30
0.0000
  0
VERTEX
  8
255
 10
-11.7492
 20
29.7397
 30
0.0000
  0
SEQEND
  8
0
  0
POLYLINE
  8
255
 66
1
 10
0.0000
 20
0.0000
 30
0.0000
 40
0.0762
 41
0.0762
 70
0
  0
VERTEX
  8
255
 10
-11.7761
 20
29.7128
 30
0.0000
 42
1.0000
  0
VERTEX
  8
255
 10
-11.7222
 20
29.7666
 30
0.0000
  0
SEQEND
  8
0
  0
POLYLINE
  8
255
 66
1
 10
0.0000
 20
0.0000
 30
0.0000
 40
0.0762
 41
0.0762
 70
0
  0
VERTEX
  8
255
 10
-11.9934
 20
30.0378
 30
0.0000
 42
1.0000
  0
VERTEX
  8
255
 10
-12.0473
 20
29.9839
 30
0.0000
  0
SEQEND
  8
0
  0
POLYLINE
  8
255
 66
1
 10
0.0000
 20
0.0000
 30
0.0000
 40
0.1524
 41
0.1524
 70
0
  0
VERTEX
  8
255
 10
-11.7492
 20
29.7397
 30
0.0000
  0
VERTEX
  8
255
 10
-11.7492
 20
28.9262
 30
0.0000
  0
SEQEND
  8
0
  0
POLYLINE
  8
255
 66
1
 10
0.0000
 20
0.0000
 30
0.0000
 40
0.0762
 41
0.0762
 70
0
  0
VERTEX
  8
255
 10
-11.7873
 20
28.9262
 30
0.0000
 42
1.0000
  0
VERTEX
  8
255
 10
-11.7111
 20
28.9262
 30
0.0000
  0
SEQEND
  8
0
  0
POLYLINE
  8
255
 66
1
 10
0.0000
 20
0.0000
 30
0.0000
 40
0.0762
 41
0.0762
 70
0
  0
VERTEX
  8
255
 10
-11.7111
 20
29.7397
 30
0.0000
 42
1.0000
  0
VERTEX
  8
255
 10
-11.7873
 20
29.7397
 30
0.0000
  0
SEQEND
  8
0
  0
POLYLINE
  8
255
 66
1
 10
0.0000
 20
0.0000
 30
0.0000
 40
0.1524
 41
0.1524
 70
0
  0
VERTEX
  8
255
 10
-9.5595
 20
30.0109
 30
0.0000
  0
VERTEX
  8
255
 10
-9.0172
 20
30.5532
 30
0.0000
  0
SEQEND
  8
0
  0
POLYLINE
  8
255
 66
1
 10
0.0000
 20
0.0000
 30
0.0000
 40
0.0762
 41
0.0762
 70
0
  0
VERTEX
  8
255
 10
-8.9902
 20
30.5262
 30
0.0000
 42
1.0000
  0
VERTEX
  8
255
 10
-9.0441
 20
30.5801
 30
0.0000
  0
SEQEND
  8
0
  0
POLYLINE
  8
255
 66
1
 10
0.0000
 20
0.0000
 30
0.0000
 40
0.0762
 41
0.0762
 70
0
  0
VERTEX
  8
255
 10
-9.5864
 20
30.0378
 30
0.0000
 42
1.0000
  0
VERTEX
  8
255
 10
-9.5326
 20
29.9839
 30
0.0000
  0
SEQEND
  8
0
  0
POLYLINE
  8
255
 66
1
 10
0.0000
 20
0.0000
 30
0.0000
 40
0.1524
 41
0.1524
 70
0
  0
VERTEX
  8
255
 10
-9.0172
 20
30.5532
 30
0.0000
  0
VERTEX
  8
255
 10
-9.0172
 20
28.9262
 30
0.0000
  0
SEQEND
  8
0
  0
POLYLINE
  8
255
 66
1
 10
0.0000
 20
0.0000
 30
0.0000
 40
0.0762
 41
0.0762
 70
0
  0
VERTEX
  8
255
 10
-9.0553
 20
28.9262
 30
0.0000
 42
1.0000
  0
VERTEX
  8
255
 10
-8.9791
 20
28.9262
 30
0.0000
  0
SEQEND
  8
0
  0
POLYLINE
  8
255
 66
1
 10
0.0000
 20
0.0000
 30
0.0000
 40
0.0762
 41
0.0762
 70
0
  0
VERTEX
  8
255
 10
-8.9791
 20
30.5532
 30
0.0000
 42
1.0000
  0
VERTEX
  8
255
 10
-9.0553
 20
30.5532
 30
0.0000
  0
SEQEND
  8
0
  0
POLYLINE
  8
255
 66
1
 10
0.0000
 20
0.0000
 30
0.0000
 40
0.1524
 41
0.1524
 70
0
  0
VERTEX
  8
255
 10
-9.5595
 20
28.9262
 30
0.0000
  0
VERTEX
  8
255
 10
-8.4748
 20
28.9262
 30
0.0000
  0
SEQEND
  8
0
  0
POLYLINE
  8
255
 66
1
 10
0.0000
 20
0.0000
 30
0.0000
 40
0.0762
 41
0.0762
 70
0
  0
VERTEX
  8
255
 10
-8.4748
 20
28.8881
 30
0.0000
 42
1.0000
  0
VERTEX
  8
255
 10
-8.4748
 20
28.9643
 30
0.0000
  0
SEQEND
  8
0
  0
POLYLINE
  8
255
 66
1
 10
0.0000
 20
0.0000
 30
0.0000
 40
0.0762
 41
0.0762
 70
0
  0
VERTEX
  8
255
 10
-9.5595
 20
28.9643
 30
0.0000
 42
1.0000
  0
VERTEX
  8
255
 10
-9.5595
 20
28.8881
 30
0.0000
  0
SEQEND
  8
0
  0
POLYLINE
  8
255
 66
1
 10
0.0000
 20
0.0000
 30
0.0000
 40
0.0254
 41
0.0254
 70
0
  0
VERTEX
  8
255
 10
-11.0000
 20
18.5000
 30
0.0000
 42
1.0000
  0
VERTEX
  8
255
 10
-11.0000
 20
26.5000
 30
0.0000
 42
1.0000
  0
VERTEX
  8
255
 10
-11.0000
 20
18.5000
 30
0.0000
  0
SEQEND
  8
0
  0
POLYLINE
  8
255
 66
1
 10
0.0000
 20
0.0000
 30
0.0000
 40
0.0254
 41
0.0254
 70
0
  0
VERTEX
  8
255
 10
0.0000
 20
17.5000
 30
0.0000
 42
1.0000
  0
VERTEX
  8
255
 10
0.0000
 20
20.5000
 30
0.0000
 42
1.0000
  0
VERTEX
  8
255
 10
0.0000
 20
17.5000
 30
0.0000
  0
SEQEND
  8
0
  0
POLYLINE
  8
255
 66
1
 10
0.0000
 20
0.0000
 30
0.0000
 40
0.0254
 41
0.0254
 70
0
  0
VERTEX
  8
255
 10
16.0000
 20
4.5000
 30
0.0000
 42
1.0000
  0
VERTEX
  8
255
 10
16.0000
 20
7.5000
 30
0.0000
 42
1.0000
  0
VERTEX
  8
255
 10
16.0000
 20
4.5000
 30
0.0000
  0
SEQEND
  8
0
  0
POLYLINE
  8
255
 66
1
 10
0.0000
 20
0.0000
 30
0.0000
 40
0.0254
 41
0.0254
 70
0
  0
VERTEX
  8
255
 10
-16.0000
 20
4.5000
 30
0.0000
 42
1.0000
  0
VERTEX
  8
255
 10
-16.0000
 20
7.5000
 30
0.0000
 42
1.0000
  0
VERTEX
  8
255
 10
-16.0000
 20
4.5000
 30
0.0000
  0
SEQEND
  8
0
  0
POLYLINE
  8
255
 66
1
 10
0.0000
 20
0.0000
 30
0.0000
 40
0.1524
 41
0.1524
 70
0
  0
VERTEX
  8
255
 10
9.7076
 20
104.9962
 30
0.0000
  0
VERTEX
  8
255
 10
9.7076
 20
106.0809
 30
0.0000
  0
SEQEND
  8
0
  0
POLYLINE
  8
255
 66
1
 10
0.0000
 20
0.0000
 30
0.0000
 40
0.0762
 41
0.0762
 70
0
  0
VERTEX
  8
255
 10
9.7457
 20
106.0809
 30
0.0000
 42
1.0000
  0
VERTEX
  8
255
 10
9.6695
 20
106.0809
 30
0.0000
  0
SEQEND
  8
0
  0
POLYLINE
  8
255
 66
1
 10
0.0000
 20
0.0000
 30
0.0000
 40
0.0762
 41
0.0762
 70
0
  0
VERTEX
  8
255
 10
9.6695
 20
104.9962
 30
0.0000
 42
1.0000
  0
VERTEX
  8
255
 10
9.7457
 20
104.9962
 30
0.0000
  0
SEQEND
  8
0
  0
POLYLINE
  8
255
 66
1
 10
0.0000
 20
0.0000
 30
0.0000
 40
0.1524
 41
0.1524
 70
0
  0
VERTEX
  8
255
 10
9.7076
 20
106.0809
 30
0.0000
  0
VERTEX
  8
255
 10
10.2500
 20
106.6232
 30
0.0000
  0
SEQEND
  8
0
  0
POLYLINE
  8
255
 66
1
 10
0.0000
 20
0.0000
 30
0.0000
 40
0.0762
 41
0.0762
 70
0
  0
VERTEX
  8
255
 10
10.2769
 20
106.5962
 30
0.0000
 42
1.0000
  0
VERTEX
  8
255
 10
10.2230
 20
106.6501
 30
0.0000
  0
SEQEND
  8
0
  0
POLYLINE
  8
255
 66
1
 10
0.0000
 20
0.0000
 30
0.0000
 40
0.0762
 41
0.0762
 70
0
  0
VERTEX
  8
255
 10
9.6807
 20
106.1078
 30
0.0000
 42
1.0000
  0
VERTEX
  8
255
 10
9.7346
 20
106.0539
 30
0.0000
  0
SEQEND
  8
0
  0
POLYLINE
  8
255
 66
1
 10
0.0000
 20
0.0000
 30
0.0000
 40
0.1524
 41
0.1524
 70
0
  0
VERTEX
  8
255
 10
10.2500
 20
106.6232
 30
0.0000
  0
VERTEX
  8
255
 10
10.7923
 20
106.0809
 30
0.0000
  0
SEQEND
  8
0
  0
POLYLINE
  8
255
 66
1
 10
0.0000
 20
0.0000
 30
0.0000
 40
0.0762
 41
0.0762
 70
0
  0
VERTEX
  8
255
 10
10.7653
 20
106.0539
 30
0.0000
 42
1.0000
  0
VERTEX
  8
255
 10
10.8192
 20
106.1078
 30
0.0000
  0
SEQEND
  8
0
  0
POLYLINE
  8
255
 66
1
 10
0.0000
 20
0.0000
 30
0.0000
 40
0.0762
 41
0.0762
 70
0
  0
VERTEX
  8
255
 10
10.2769
 20
106.6501
 30
0.0000
 42
1.0000
  0
VERTEX
  8
255
 10
10.2230
 20
106.5962
 30
0.0000
  0
SEQEND
  8
0
  0
POLYLINE
  8
255
 66
1
 10
0.0000
 20
0.0000
 30
0.0000
 40
0.1524
 41
0.1524
 70
0
  0
VERTEX
  8
255
 10
10.7923
 20
106.0809
 30
0.0000
  0
VERTEX
  8
255
 10
10.7923
 20
104.9962
 30
0.0000
  0
SEQEND
  8
0
  0
POLYLINE
  8
255
 66
1
 10
0.0000
 20
0.0000
 30
0.0000
 40
0.0762
 41
0.0762
 70
0
  0
VERTEX
  8
255
 10
10.7542
 20
104.9962
 30
0.0000
 42
1.0000
  0
VERTEX
  8
255
 10
10.8304
 20
104.9962
 30
0.0000
  0
SEQEND
  8
0
  0
POLYLINE
  8
255
 66
1
 10
0.0000
 20
0.0000
 30
0.0000
 40
0.0762
 41
0.0762
 70
0
  0
VERTEX
  8
255
 10
10.8304
 20
106.0809
 30
0.0000
 42
1.0000
  0
VERTEX
  8
255
 10
10.7542
 20
106.0809
 30
0.0000
  0
SEQEND
  8
0
  0
POLYLINE
  8
255
 66
1
 10
0.0000
 20
0.0000
 30
0.0000
 40
0.1524
 41
0.1524
 70
0
  0
VERTEX
  8
255
 10
9.7076
 20
105.8097
 30
0.0000
  0
VERTEX
  8
255
 10
10.7923
 20
105.8097
 30
0.0000
  0
SEQEND
  8
0
  0
POLYLINE
  8
255
 66
1
 10
0.0000
 20
0.0000
 30
0.0000
 40
0.0762
 41
0.0762
 70
0
  0
VERTEX
  8
255
 10
10.7923
 20
105.7716
 30
0.0000
 42
1.0000
  0
VERTEX
  8
255
 10
10.7923
 20
105.8478
 30
0.0000
  0
SEQEND
  8
0
  0
POLYLINE
  8
255
 66
1
 10
0.0000
 20
0.0000
 30
0.0000
 40
0.0762
 41
0.0762
 70
0
  0
VERTEX
  8
255
 10
9.7076
 20
105.8478
 30
0.0000
 42
1.0000
  0
VERTEX
  8
255
 10
9.7076
 20
105.7716
 30
0.0000
  0
SEQEND
  8
0
  0
POLYLINE
  8
255
 66
1
 10
0.0000
 20
0.0000
 30
0.0000
 40
0.0025
 41
0.0025
 70
0
  0
VERTEX
  8
255
 10
10.4500
 20
92.8000
 30
0.0000
 42
1.0000
  0
VERTEX
  8
255
 10
10.4500
 20
101.8000
 30
0.0000
 42
1.0000
  0
VERTEX
  8
255
 10
10.4500
 20
92.8000
 30
0.0000
  0
SEQEND
  8
0
  0
POLYLINE
  8
255
 66
1
 10
0.0000
 20
0.0000
 30
0.0000
 40
0.1524
 41
0.1524
 70
0
  0
VERTEX
  8
255
 10
7.0076
 20
55.6232
 30
0.0000
  0
VERTEX
  8
255
 10
7.0076
 20
53.9962
 30
0.0000
  0
SEQEND
  8
0
  0
POLYLINE
  8
255
 66
1
 10
0.0000
 20
0.0000
 30
0.0000
 40
0.0762
 41
0.0762
 70
0
  0
VERTEX
  8
255
 10
6.9695
 20
53.9962
 30
0.0000
 42
1.0000
  0
VERTEX
  8
255
 10
7.0457
 20
53.9962
 30
0.0000
  0
SEQEND
  8
0
  0
POLYLINE
  8
255
 66
1
 10
0.0000
 20
0.0000
 30
0.0000
 40
0.0762
 41
0.0762
 70
0
  0
VERTEX
  8
255
 10
7.0457
 20
55.6232
 30
0.0000
 42
1.0000
  0
VERTEX
  8
255
 10
6.9695
 20
55.6232
 30
0.0000
  0
SEQEND
  8
0
  0
POLYLINE
  8
255
 66
1
 10
0.0000
 20
0.0000
 30
0.0000
 40
0.1524
 41
0.1524
 70
0
  0
VERTEX
  8
255
 10
7.0076
 20
53.9962
 30
0.0000
  0
VERTEX
  8
255
 10
7.8211
 20
53.9962
 30
0.0000
  0
SEQEND
  8
0
  0
POLYLINE
  8
255
 66
1
 10
0.0000
 20
0.0000
 30
0.0000
 40
0.0762
 41
0.0762
 70
0
  0
VERTEX
  8
255
 10
7.8211
 20
53.9581
 30
0.0000
 42
1.0000
  0
VERTEX
  8
255
 10
7.8211
 20
54.0343
 30
0.0000
  0
SEQEND
  8
0
  0
POLYLINE
  8
255
 66
1
 10
0.0000
 20
0.0000
 30
0.0000
 40
0.0762
 41
0.0762
 70
0
  0
VERTEX
  8
255
 10
7.0076
 20
54.0343
 30
0.0000
 42
1.0000
  0
VERTEX
  8
255
 10
7.0076
 20
53.9581
 30
0.0000
  0
SEQEND
  8
0
  0
POLYLINE
  8
255
 66
1
 10
0.0000
 20
0.0000
 30
0.0000
 40
0.1524
 41
0.1524
 70
0
  0
VERTEX
  8
255
 10
7.8211
 20
53.9962
 30
0.0000
  0
VERTEX
  8
255
 10
8.0923
 20
54.2674
 30
0.0000
  0
SEQEND
  8
0
  0
POLYLINE
  8
255
 66
1
 10
0.0000
 20
0.0000
 30
0.0000
 40
0.0762
 41
0.0762
 70
0
  0
VERTEX
  8
255
 10
8.1192
 20
54.2404
 30
0.0000
 42
1.0000
  0
VERTEX
  8
255
 10
8.0653
 20
54.2943
 30
0.0000
  0
SEQEND
  8
0
  0
POLYLINE
  8
255
 66
1
 10
0.0000
 20
0.0000
 30
0.0000
 40
0.0762
 41
0.0762
 70
0
  0
VERTEX
  8
255
 10
7.7942
 20
54.0231
 30
0.0000
 42
1.0000
  0
VERTEX
  8
255
 10
7.8481
 20
53.9693
 30
0.0000
  0
SEQEND
  8
0
  0
POLYLINE
  8
255
 66
1
 10
0.0000
 20
0.0000
 30
0.0000
 40
0.1524
 41
0.1524
 70
0
  0
VERTEX
  8
255
 10
8.0923
 20
54.2674
 30
0.0000
  0
VERTEX
  8
255
 10
8.0923
 20
55.3520
 30
0.0000
  0
SEQEND
  8
0
  0
POLYLINE
  8
255
 66
1
 10
0.0000
 20
0.0000
 30
0.0000
 40
0.0762
 41
0.0762
 70
0
  0
VERTEX
  8
255
 10
8.1304
 20
55.3520
 30
0.0000
 42
1.0000
  0
VERTEX
  8
255
 10
8.0542
 20
55.3520
 30
0.0000
  0
SEQEND
  8
0
  0
POLYLINE
  8
255
 66
1
 10
0.0000
 20
0.0000
 30
0.0000
 40
0.0762
 41
0.0762
 70
0
  0
VERTEX
  8
255
 10
8.0542
 20
54.2674
 30
0.0000
 42
1.0000
  0
VERTEX
  8
255
 10
8.1304
 20
54.2674
 30
0.0000
  0
SEQEND
  8
0
  0
POLYLINE
  8
255
 66
1
 10
0.0000
 20
0.0000
 30
0.0000
 40
0.1524
 41
0.1524
 70
0
  0
VERTEX
  8
255
 10
8.0923
 20
55.3520
 30
0.0000
  0
VERTEX
  8
255
 10
7.8211
 20
55.6232
 30
0.0000
  0
SEQEND
  8
0
  0
POLYLINE
  8
255
 66
1
 10
0.0000
 20
0.0000
 30
0.0000
 40
0.0762
 41
0.0762
 70
0
  0
VERTEX
  8
255
 10
7.8481
 20
55.6501
 30
0.0000
 42
1.0000
  0
VERTEX
  8
255
 10
7.7942
 20
55.5962
 30
0.0000
  0
SEQEND
  8
0
  0
POLYLINE
  8
255
 66
1
 10
0.0000
 20
0.0000
 30
0.0000
 40
0.0762
 41
0.0762
 70
0
  0
VERTEX
  8
255
 10
8.0653
 20
55.3251
 30
0.0000
 42
1.0000
  0
VERTEX
  8
255
 10
8.1192
 20
55.3790
 30
0.0000
  0
SEQEND
  8
0
  0
POLYLINE
  8
255
 66
1
 10
0.0000
 20
0.0000
 30
0.0000
 40
0.1524
 41
0.1524
 70
0
  0
VERTEX
  8
255
 10
7.8211
 20
55.6232
 30
0.0000
  0
VERTEX
  8
255
 10
7.0076
 20
55.6232
 30
0.0000
  0
SEQEND
  8
0
  0
POLYLINE
  8
255
 66
1
 10
0.0000
 20
0.0000
 30
0.0000
 40
0.0762
 41
0.0762
 70
0
  0
VERTEX
  8
255
 10
7.0076
 20
55.6613
 30
0.0000
 42
1.0000
  0
VERTEX
  8
255
 10
7.0076
 20
55.5851
 30
0.0000
  0
SEQEND
  8
0
  0
POLYLINE
  8
255
 66
1
 10
0.0000
 20
0.0000
 30
0.0000
 40
0.0762
 41
0.0762
 70
0
  0
VERTEX
  8
255
 10
7.8211
 20
55.5851
 30
0.0000
 42
1.0000
  0
VERTEX
  8
255
 10
7.8211
 20
55.6613
 30
0.0000
  0
SEQEND
  8
0
  0
POLYLINE
  8
255
 66
1
 10
0.0000
 20
0.0000
 30
0.0000
 40
0.0025
 41
0.0025
 70
0
  0
VERTEX
  8
255
 10
7.7500
 20
41.8000
 30
0.0000
 42
1.0000
  0
VERTEX
  8
255
 10
7.7500
 20
50.8000
 30
0.0000
 42
1.0000
  0
VERTEX
  8
255
 10
7.7500
 20
41.8000
 30
0.0000
  0
SEQEND
  8
0
  0
POLYLINE
  8
255
 66
1
 10
0.0000
 20
0.0000
 30
0.0000
 40
0.1524
 41
0.1524
 70
0
  0
VERTEX
  8
255
 10
12.1076
 20
88.0962
 30
0.0000
  0
VERTEX
  8
255
 10
12.1076
 20
89.7232
 30
0.0000
  0
SEQEND
  8
0
  0
POLYLINE
  8
255
 66
1
 10
0.0000
 20
0.0000
 30
0.0000
 40
0.0762
 41
0.0762
 70
0
  0
VERTEX
  8
255
 10
12.1457
 20
89.7232
 30
0.0000
 42
1.0000
  0
VERTEX
  8
255
 10
12.0695
 20
89.7232
 30
0.0000
  0
SEQEND
  8
0
  0
POLYLINE
  8
255
 66
1
 10
0.0000
 20
0.0000
 30
0.0000
 40
0.0762
 41
0.0762
 70
0
  0
VERTEX
  8
255
 10
12.0695
 20
88.0962
 30
0.0000
 42
1.0000
  0
VERTEX
  8
255
 10
12.1457
 20
88.0962
 30
0.0000
  0
SEQEND
  8
0
  0
POLYLINE
  8
255
 66
1
 10
0.0000
 20
0.0000
 30
0.0000
 40
0.1524
 41
0.1524
 70
0
  0
VERTEX
  8
255
 10
12.1076
 20
89.7232
 30
0.0000
  0
VERTEX
  8
255
 10
12.9211
 20
89.7232
 30
0.0000
  0
SEQEND
  8
0
  0
POLYLINE
  8
255
 66
1
 10
0.0000
 20
0.0000
 30
0.0000
 40
0.0762
 41
0.0762
 70
0
  0
VERTEX
  8
255
 10
12.9211
 20
89.6851
 30
0.0000
 42
1.0000
  0
VERTEX
  8
255
 10
12.9211
 20
89.7613
 30
0.0000
  0
SEQEND
  8
0
  0
POLYLINE
  8
255
 66
1
 10
0.0000
 20
0.0000
 30
0.0000
 40
0.0762
 41
0.0762
 70
0
  0
VERTEX
  8
255
 10
12.1076
 20
89.7613
 30
0.0000
 42
1.0000
  0
VERTEX
  8
255
 10
12.1076
 20
89.6851
 30
0.0000
  0
SEQEND
  8
0
  0
POLYLINE
  8
255
 66
1
 10
0.0000
 20
0.0000
 30
0.0000
 40
0.1524
 41
0.1524
 70
0
  0
VERTEX
  8
255
 10
12.9211
 20
89.7232
 30
0.0000
  0
VERTEX
  8
255
 10
13.1923
 20
89.4520
 30
0.0000
  0
SEQEND
  8
0
  0
POLYLINE
  8
255
 66
1
 10
0.0000
 20
0.0000
 30
0.0000
 40
0.0762
 41
0.0762
 70
0
  0
VERTEX
  8
255
 10
13.1653
 20
89.4251
 30
0.0000
 42
1.0000
  0
VERTEX
  8
255
 10
13.2192
 20
89.4790
 30
0.0000
  0
SEQEND
  8
0
  0
POLYLINE
  8
255
 66
1
 10
0.0000
 20
0.0000
 30
0.0000
 40
0.0762
 41
0.0762
 70
0
  0
VERTEX
  8
255
 10
12.9481
 20
89.7501
 30
0.0000
 42
1.0000
  0
VERTEX
  8
255
 10
12.8942
 20
89.6962
 30
0.0000
  0
SEQEND
  8
0
  0
POLYLINE
  8
255
 66
1
 10
0.0000
 20
0.0000
 30
0.0000
 40
0.1524
 41
0.1524
 70
0
  0
VERTEX
  8
255
 10
13.1923
 20
89.4520
 30
0.0000
  0
VERTEX
  8
255
 10
13.1923
 20
89.1809
 30
0.0000
  0
SEQEND
  8
0
  0
POLYLINE
  8
255
 66
1
 10
0.0000
 20
0.0000
 30
0.0000
 40
0.0762
 41
0.0762
 70
0
  0
VERTEX
  8
255
 10
13.1542
 20
89.1809
 30
0.0000
 42
1.0000
  0
VERTEX
  8
255
 10
13.2304
 20
89.1809
 30
0.0000
  0
SEQEND
  8
0
  0
POLYLINE
  8
255
 66
1
 10
0.0000
 20
0.0000
 30
0.0000
 40
0.0762
 41
0.0762
 70
0
  0
VERTEX
  8
255
 10
13.2304
 20
89.4520
 30
0.0000
 42
1.0000
  0
VERTEX
  8
255
 10
13.1542
 20
89.4520
 30
0.0000
  0
SEQEND
  8
0
  0
POLYLINE
  8
255
 66
1
 10
0.0000
 20
0.0000
 30
0.0000
 40
0.1524
 41
0.1524
 70
0
  0
VERTEX
  8
255
 10
13.1923
 20
89.1809
 30
0.0000
  0
VERTEX
  8
255
 10
12.9211
 20
88.9097
 30
0.0000
  0
SEQEND
  8
0
  0
POLYLINE
  8
255
 66
1
 10
0.0000
 20
0.0000
 30
0.0000
 40
0.0762
 41
0.0762
 70
0
  0
VERTEX
  8
255
 10
12.8942
 20
88.9366
 30
0.0000
 42
1.0000
  0
VERTEX
  8
255
 10
12.9481
 20
88.8828
 30
0.0000
  0
SEQEND
  8
0
  0
POLYLINE
  8
255
 66
1
 10
0.0000
 20
0.0000
 30
0.0000
 40
0.0762
 41
0.0762
 70
0
  0
VERTEX
  8
255
 10
13.2192
 20
89.1539
 30
0.0000
 42
1.0000
  0
VERTEX
  8
255
 10
13.1653
 20
89.2078
 30
0.0000
  0
SEQEND
  8
0
  0
POLYLINE
  8
255
 66
1
 10
0.0000
 20
0.0000
 30
0.0000
 40
0.1524
 41
0.1524
 70
0
  0
VERTEX
  8
255
 10
12.9211
 20
88.9097
 30
0.0000
  0
VERTEX
  8
255
 10
13.1923
 20
88.6385
 30
0.0000
  0
SEQEND
  8
0
  0
POLYLINE
  8
255
 66
1
 10
0.0000
 20
0.0000
 30
0.0000
 40
0.0762
 41
0.0762
 70
0
  0
VERTEX
  8
255
 10
13.1653
 20
88.6116
 30
0.0000
 42
1.0000
  0
VERTEX
  8
255
 10
13.2192
 20
88.6655
 30
0.0000
  0
SEQEND
  8
0
  0
POLYLINE
  8
255
 66
1
 10
0.0000
 20
0.0000
 30
0.0000
 40
0.0762
 41
0.0762
 70
0
  0
VERTEX
  8
255
 10
12.9481
 20
88.9366
 30
0.0000
 42
1.0000
  0
VERTEX
  8
255
 10
12.8942
 20
88.8828
 30
0.0000
  0
SEQEND
  8
0
  0
POLYLINE
  8
255
 66
1
 10
0.0000
 20
0.0000
 30
0.0000
 40
0.1524
 41
0.1524
 70
0
  0
VERTEX
  8
255
 10
13.1923
 20
88.6385
 30
0.0000
  0
VERTEX
  8
255
 10
13.1923
 20
88.3674
 30
0.0000
  0
SEQEND
  8
0
  0
POLYLINE
  8
255
 66
1
 10
0.0000
 20
0.0000
 30
0.0000
 40
0.0762
 41
0.0762
 70
0
  0
VERTEX
  8
255
 10
13.1542
 20
88.3674
 30
0.0000
 42
1.0000
  0
VERTEX
  8
255
 10
13.2304
 20
88.3674
 30
0.0000
  0
SEQEND
  8
0
  0
POLYLINE
  8
255
 66
1
 10
0.0000
 20
0.0000
 30
0.0000
 40
0.0762
 41
0.0762
 70
0
  0
VERTEX
  8
255
 10
13.2304
 20
88.6385
 30
0.0000
 42
1.0000
  0
VERTEX
  8
255
 10
13.1542
 20
88.6385
 30
0.0000
  0
SEQEND
  8
0
  0
POLYLINE
  8
255
 66
1
 10
0.0000
 20
0.0000
 30
0.0000
 40
0.1524
 41
0.1524
 70
0
  0
VERTEX
  8
255
 10
13.1923
 20
88.3674
 30
0.0000
  0
VERTEX
  8
255
 10
12.9211
 20
88.0962
 30
0.0000
  0
SEQEND
  8
0
  0
POLYLINE
  8
255
 66
1
 10
0.0000
 20
0.0000
 30
0.0000
 40
0.0762
 41
0.0762
 70
0
  0
VERTEX
  8
255
 10
12.8942
 20
88.1231
 30
0.0000
 42
1.0000
  0
VERTEX
  8
255
 10
12.9481
 20
88.0693
 30
0.0000
  0
SEQEND
  8
0
  0
POLYLINE
  8
255
 66
1
 10
0.0000
 20
0.0000
 30
0.0000
 40
0.0762
 41
0.0762
 70
0
  0
VERTEX
  8
255
 10
13.2192
 20
88.3404
 30
0.0000
 42
1.0000
  0
VERTEX
  8
255
 10
13.1653
 20
88.3943
 30
0.0000
  0
SEQEND
  8
0
  0
POLYLINE
  8
255
 66
1
 10
0.0000
 20
0.0000
 30
0.0000
 40
0.1524
 41
0.1524
 70
0
  0
VERTEX
  8
255
 10
12.9211
 20
88.0962
 30
0.0000
  0
VERTEX
  8
255
 10
12.1076
 20
88.0962
 30
0.0000
  0
SEQEND
  8
0
  0
POLYLINE
  8
255
 66
1
 10
0.0000
 20
0.0000
 30
0.0000
 40
0.0762
 41
0.0762
 70
0
  0
VERTEX
  8
255
 10
12.1076
 20
88.1343
 30
0.0000
 42
1.0000
  0
VERTEX
  8
255
 10
12.1076
 20
88.0581
 30
0.0000
  0
SEQEND
  8
0
  0
POLYLINE
  8
255
 66
1
 10
0.0000
 20
0.0000
 30
0.0000
 40
0.0762
 41
0.0762
 70
0
  0
VERTEX
  8
255
 10
12.9211
 20
88.0581
 30
0.0000
 42
1.0000
  0
VERTEX
  8
255
 10
12.9211
 20
88.1343
 30
0.0000
  0
SEQEND
  8
0
  0
POLYLINE
  8
255
 66
1
 10
0.0000
 20
0.0000
 30
0.0000
 40
0.1524
 41
0.1524
 70
0
  0
VERTEX
  8
255
 10
12.1076
 20
88.9097
 30
0.0000
  0
VERTEX
  8
255
 10
12.9211
 20
88.9097
 30
0.0000
  0
SEQEND
  8
0
  0
POLYLINE
  8
255
 66
1
 10
0.0000
 20
0.0000
 30
0.0000
 40
0.0762
 41
0.0762
 70
0
  0
VERTEX
  8
255
 10
12.9211
 20
88.8716
 30
0.0000
 42
1.0000
  0
VERTEX
  8
255
 10
12.9211
 20
88.9478
 30
0.0000
  0
SEQEND
  8
0
  0
POLYLINE
  8
255
 66
1
 10
0.0000
 20
0.0000
 30
0.0000
 40
0.0762
 41
0.0762
 70
0
  0
VERTEX
  8
255
 10
12.1076
 20
88.9478
 30
0.0000
 42
1.0000
  0
VERTEX
  8
255
 10
12.1076
 20
88.8716
 30
0.0000
  0
SEQEND
  8
0
  0
POLYLINE
  8
255
 66
1
 10
0.0000
 20
0.0000
 30
0.0000
 40
0.0025
 41
0.0025
 70
0
  0
VERTEX
  8
255
 10
12.8500
 20
75.9000
 30
0.0000
 42
1.0000
  0
VERTEX
  8
255
 10
12.8500
 20
84.9000
 30
0.0000
 42
1.0000
  0
VERTEX
  8
255
 10
12.8500
 20
75.9000
 30
0.0000
  0
SEQEND
  8
0
  0
POLYLINE
  8
255
 66
1
 10
0.0000
 20
0.0000
 30
0.0000
 40
0.1524
 41
0.1524
 70
0
  0
VERTEX
  8
255
 10
12.3923
 20
72.5520
 30
0.0000
  0
VERTEX
  8
255
 10
12.1211
 20
72.8232
 30
0.0000
  0
SEQEND
  8
0
  0
POLYLINE
  8
255
 66
1
 10
0.0000
 20
0.0000
 30
0.0000
 40
0.0762
 41
0.0762
 70
0
  0
VERTEX
  8
255
 10
12.1481
 20
72.8501
 30
0.0000
 42
1.0000
  0
VERTEX
  8
255
 10
12.0942
 20
72.7962
 30
0.0000
  0
SEQEND
  8
0
  0
POLYLINE
  8
255
 66
1
 10
0.0000
 20
0.0000
 30
0.0000
 40
0.0762
 41
0.0762
 70
0
  0
VERTEX
  8
255
 10
12.3653
 20
72.5251
 30
0.0000
 42
1.0000
  0
VERTEX
  8
255
 10
12.4192
 20
72.5790
 30
0.0000
  0
SEQEND
  8
0
  0
POLYLINE
  8
255
 66
1
 10
0.0000
 20
0.0000
 30
0.0000
 40
0.1524
 41
0.1524
 70
0
  0
VERTEX
  8
255
 10
12.1211
 20
72.8232
 30
0.0000
  0
VERTEX
  8
255
 10
11.5788
 20
72.8232
 30
0.0000
  0
SEQEND
  8
0
  0
POLYLINE
  8
255
 66
1
 10
0.0000
 20
0.0000
 30
0.0000
 40
0.0762
 41
0.0762
 70
0
  0
VERTEX
  8
255
 10
11.5788
 20
72.8613
 30
0.0000
 42
1.0000
  0
VERTEX
  8
255
 10
11.5788
 20
72.7851
 30
0.0000
  0
SEQEND
  8
0
  0
POLYLINE
  8
255
 66
1
 10
0.0000
 20
0.0000
 30
0.0000
 40
0.0762
 41
0.0762
 70
0
  0
VERTEX
  8
255
 10
12.1211
 20
72.7851
 30
0.0000
 42
1.0000
  0
VERTEX
  8
255
 10
12.1211
 20
72.8613
 30
0.0000
  0
SEQEND
  8
0
  0
POLYLINE
  8
255
 66
1
 10
0.0000
 20
0.0000
 30
0.0000
 40
0.1524
 41
0.1524
 70
0
  0
VERTEX
  8
255
 10
11.5788
 20
72.8232
 30
0.0000
  0
VERTEX
  8
255
 10
11.3076
 20
72.5520
 30
0.0000
  0
SEQEND
  8
0
  0
POLYLINE
  8
255
 66
1
 10
0.0000
 20
0.0000
 30
0.0000
 40
0.0762
 41
0.0762
 70
0
  0
VERTEX
  8
255
 10
11.2807
 20
72.5790
 30
0.0000
 42
1.0000
  0
VERTEX
  8
255
 10
11.3346
 20
72.5251
 30
0.0000
  0
SEQEND
  8
0
  0
POLYLINE
  8
255
 66
1
 10
0.0000
 20
0.0000
 30
0.0000
 40
0.0762
 41
0.0762
 70
0
  0
VERTEX
  8
255
 10
11.6057
 20
72.7962
 30
0.0000
 42
1.0000
  0
VERTEX
  8
255
 10
11.5518
 20
72.8501
 30
0.0000
  0
SEQEND
  8
0
  0
POLYLINE
  8
255
 66
1
 10
0.0000
 20
0.0000
 30
0.0000
 40
0.1524
 41
0.1524
 70
0
  0
VERTEX
  8
255
 10
11.3076
 20
72.5520
 30
0.0000
  0
VERTEX
  8
255
 10
11.3076
 20
71.4674
 30
0.0000
  0
SEQEND
  8
0
  0
POLYLINE
  8
255
 66
1
 10
0.0000
 20
0.0000
 30
0.0000
 40
0.0762
 41
0.0762
 70
0
  0
VERTEX
  8
255
 10
11.2695
 20
71.4674
 30
0.0000
 42
1.0000
  0
VERTEX
  8
255
 10
11.3457
 20
71.4674
 30
0.0000
  0
SEQEND
  8
0
  0
POLYLINE
  8
255
 66
1
 10
0.0000
 20
0.0000
 30
0.0000
 40
0.0762
 41
0.0762
 70
0
  0
VERTEX
  8
255
 10
11.3457
 20
72.5520
 30
0.0000
 42
1.0000
  0
VERTEX
  8
255
 10
11.2695
 20
72.5520
 30
0.0000
  0
SEQEND
  8
0
  0
POLYLINE
  8
255
 66
1
 10
0.0000
 20
0.0000
 30
0.0000
 40
0.1524
 41
0.1524
 70
0
  0
VERTEX
  8
255
 10
11.3076
 20
71.4674
 30
0.0000
  0
VERTEX
  8
255
 10
11.5788
 20
71.1962
 30
0.0000
  0
SEQEND
  8
0
  0
POLYLINE
  8
255
 66
1
 10
0.0000
 20
0.0000
 30
0.0000
 40
0.0762
 41
0.0762
 70
0
  0
VERTEX
  8
255
 10
11.5518
 20
71.1693
 30
0.0000
 42
1.0000
  0
VERTEX
  8
255
 10
11.6057
 20
71.2231
 30
0.0000
  0
SEQEND
  8
0
  0
POLYLINE
  8
255
 66
1
 10
0.0000
 20
0.0000
 30
0.0000
 40
0.0762
 41
0.0762
 70
0
  0
VERTEX
  8
255
 10
11.3346
 20
71.4943
 30
0.0000
 42
1.0000
  0
VERTEX
  8
255
 10
11.2807
 20
71.4404
 30
0.0000
  0
SEQEND
  8
0
  0
POLYLINE
  8
255
 66
1
 10
0.0000
 20
0.0000
 30
0.0000
 40
0.1524
 41
0.1524
 70
0
  0
VERTEX
  8
255
 10
11.5788
 20
71.1962
 30
0.0000
  0
VERTEX
  8
255
 10
12.1211
 20
71.1962
 30
0.0000
  0
SEQEND
  8
0
  0
POLYLINE
  8
255
 66
1
 10
0.0000
 20
0.0000
 30
0.0000
 40
0.0762
 41
0.0762
 70
0
  0
VERTEX
  8
255
 10
12.1211
 20
71.1581
 30
0.0000
 42
1.0000
  0
VERTEX
  8
255
 10
12.1211
 20
71.2343
 30
0.0000
  0
SEQEND
  8
0
  0
POLYLINE
  8
255
 66
1
 10
0.0000
 20
0.0000
 30
0.0000
 40
0.0762
 41
0.0762
 70
0
  0
VERTEX
  8
255
 10
11.5788
 20
71.2343
 30
0.0000
 42
1.0000
  0
VERTEX
  8
255
 10
11.5788
 20
71.1581
 30
0.0000
  0
SEQEND
  8
0
  0
POLYLINE
  8
255
 66
1
 10
0.0000
 20
0.0000
 30
0.0000
 40
0.1524
 41
0.1524
 70
0
  0
VERTEX
  8
255
 10
12.1211
 20
71.1962
 30
0.0000
  0
VERTEX
  8
255
 10
12.3923
 20
71.4674
 30
0.0000
  0
SEQEND
  8
0
  0
POLYLINE
  8
255
 66
1
 10
0.0000
 20
0.0000
 30
0.0000
 40
0.0762
 41
0.0762
 70
0
  0
VERTEX
  8
255
 10
12.4192
 20
71.4404
 30
0.0000
 42
1.0000
  0
VERTEX
  8
255
 10
12.3653
 20
71.4943
 30
0.0000
  0
SEQEND
  8
0
  0
POLYLINE
  8
255
 66
1
 10
0.0000
 20
0.0000
 30
0.0000
 40
0.0762
 41
0.0762
 70
0
  0
VERTEX
  8
255
 10
12.0942
 20
71.2231
 30
0.0000
 42
1.0000
  0
VERTEX
  8
255
 10
12.1481
 20
71.1693
 30
0.0000
  0
SEQEND
  8
0
  0
POLYLINE
  8
255
 66
1
 10
0.0000
 20
0.0000
 30
0.0000
 40
0.0025
 41
0.0025
 70
0
  0
VERTEX
  8
255
 10
12.0500
 20
59.0000
 30
0.0000
 42
1.0000
  0
VERTEX
  8
255
 10
12.0500
 20
68.0000
 30
0.0000
 42
1.0000
  0
VERTEX
  8
255
 10
12.0500
 20
59.0000
 30
0.0000
  0
SEQEND
  8
0
  0
LINE
  8
255
 10
-19.6500
 20
-11.0000
 30
0.0000
 11
20.6500
 21
-11.0000
 31
0.0000
  0
LINE
  8
255
 10
20.6500
 20
-11.0000
 30
0.0000
 11
20.6500
 21
117.5000
 31
0.0000
  0
LINE
  8
255
 10
20.6500
 20
117.5000
 30
0.0000
 11
-19.6500
 21
117.5000
 31
0.0000
  0
LINE
  8
255
 10
-19.6500
 20
117.5000
 30
0.0000
 11
-19.6500
 21
-11.0000
 31
0.0000
  0
POLYLINE
  8
255
 66
1
 10
0.0000
 20
0.0000
 30
0.0000
 40
0.0254
 41
0.0254
 70
0
  0
VERTEX
  8
255
 10
-12.1500
 20
-9.5000
 30
0.0000
 42
1.0000
  0
VERTEX
  8
255
 10
-12.1500
 20
-6.5000
 30
0.0000
 42
1.0000
  0
VERTEX
  8
255
 10
-12.1500
 20
-9.5000
 30
0.0000
  0
SEQEND
  8
0
  0
POLYLINE
  8
255
 66
1
 10
0.0000
 20
0.0000
 30
0.0000
 40
0.0254
 41
0.0254
 70
0
  0
VERTEX
  8
255
 10
-12.1500
 20
113.0000
 30
0.0000
 42
1.0000
  0
VERTEX
  8
255
 10
-12.1500
 20
116.0000
 30
0.0000
 42
1.0000
  0
VERTEX
  8
255
 10
-12.1500
 20
113.0000
 30
0.0000
  0
SEQEND
  8
0
  0
POLYLINE
  8
255
 66
1
 10
0.0000
 20
0.0000
 30
0.0000
 40
0.0254
 41
0.0254
 70
0
  0
VERTEX
  8
255
 10
-4.0000
 20
69.2000
 30
0.0000
 42
1.0000
  0
VERTEX
  8
255
 10
-4.0000
 20
75.2000
 30
0.0000
 42
1.0000
  0
VERTEX
  8
255
 10
-4.0000
 20
69.2000
 30
0.0000
  0
SEQEND
  8
0
  0
POLYLINE
  8
255
 66
1
 10
0.0000
 20
0.0000
 30
0.0000
 40
0.0254
 41
0.0254
 70
0
  0
VERTEX
  8
255
 10
-13.4500
 20
34.7000
 30
0.0000
 42
1.0000
  0
VERTEX
  8
255
 10
-13.4500
 20
40.7000
 30
0.0000
 42
1.0000
  0
VERTEX
  8
255
 10
-13.4500
 20
34.7000
 30
0.0000
  0
SEQEND
  8
0
  0
POLYLINE
  8
255
 66
1
 10
0.0000
 20
0.0000
 30
0.0000
 40
0.1524
 41
0.1524
 70
0
  0
VERTEX
  8
255
 10
4.0697
 20
17.0532
 30
0.0000
  0
VERTEX
  8
255
 10
3.5273
 20
17.0532
 30
0.0000
  0
SEQEND
  8
0
  0
POLYLINE
  8
255
 66
1
 10
0.0000
 20
0.0000
 30
0.0000
 40
0.0762
 41
0.0762
 70
0
  0
VERTEX
  8
255
 10
3.5273
 20
17.0913
 30
0.0000
 42
1.0000
  0
VERTEX
  8
255
 10
3.5273
 20
17.0151
 30
0.0000
  0
SEQEND
  8
0
  0
POLYLINE
  8
255
 66
1
 10
0.0000
 20
0.0000
 30
0.0000
 40
0.0762
 41
0.0762
 70
0
  0
VERTEX
  8
255
 10
4.0697
 20
17.0151
 30
0.0000
 42
1.0000
  0
VERTEX
  8
255
 10
4.0697
 20
17.0913
 30
0.0000
  0
SEQEND
  8
0
  0
POLYLINE
  8
255
 66
1
 10
0.0000
 20
0.0000
 30
0.0000
 40
0.1524
 41
0.1524
 70
0
  0
VERTEX
  8
255
 10
3.5273
 20
17.0532
 30
0.0000
  0
VERTEX
  8
255
 10
3.2562
 20
16.7820
 30
0.0000
  0
SEQEND
  8
0
  0
POLYLINE
  8
255
 66
1
 10
0.0000
 20
0.0000
 30
0.0000
 40
0.0762
 41
0.0762
 70
0
  0
VERTEX
  8
255
 10
3.2292
 20
16.8090
 30
0.0000
 42
1.0000
  0
VERTEX
  8
255
 10
3.2831
 20
16.7551
 30
0.0000
  0
SEQEND
  8
0
  0
POLYLINE
  8
255
 66
1
 10
0.0000
 20
0.0000
 30
0.0000
 40
0.0762
 41
0.0762
 70
0
  0
VERTEX
  8
255
 10
3.5543
 20
17.0262
 30
0.0000
 42
1.0000
  0
VERTEX
  8
255
 10
3.5004
 20
17.0801
 30
0.0000
  0
SEQEND
  8
0
  0
POLYLINE
  8
255
 66
1
 10
0.0000
 20
0.0000
 30
0.0000
 40
0.1524
 41
0.1524
 70
0
  0
VERTEX
  8
255
 10
3.2562
 20
16.7820
 30
0.0000
  0
VERTEX
  8
255
 10
3.2562
 20
15.6974
 30
0.0000
  0
SEQEND
  8
0
  0
POLYLINE
  8
255
 66
1
 10
0.0000
 20
0.0000
 30
0.0000
 40
0.0762
 41
0.0762
 70
0
  0
VERTEX
  8
255
 10
3.2181
 20
15.6974
 30
0.0000
 42
1.0000
  0
VERTEX
  8
255
 10
3.2943
 20
15.6974
 30
0.0000
  0
SEQEND
  8
0
  0
POLYLINE
  8
255
 66
1
 10
0.0000
 20
0.0000
 30
0.0000
 40
0.0762
 41
0.0762
 70
0
  0
VERTEX
  8
255
 10
3.2943
 20
16.7820
 30
0.0000
 42
1.0000
  0
VERTEX
  8
255
 10
3.2181
 20
16.7820
 30
0.0000
  0
SEQEND
  8
0
  0
POLYLINE
  8
255
 66
1
 10
0.0000
 20
0.0000
 30
0.0000
 40
0.1524
 41
0.1524
 70
0
  0
VERTEX
  8
255
 10
3.2562
 20
15.6974
 30
0.0000
  0
VERTEX
  8
255
 10
3.5273
 20
15.4262
 30
0.0000
  0
SEQEND
  8
0
  0
POLYLINE
  8
255
 66
1
 10
0.0000
 20
0.0000
 30
0.0000
 40
0.0762
 41
0.0762
 70
0
  0
VERTEX
  8
255
 10
3.5004
 20
15.3993
 30
0.0000
 42
1.0000
  0
VERTEX
  8
255
 10
3.5543
 20
15.4531
 30
0.0000
  0
SEQEND
  8
0
  0
POLYLINE
  8
255
 66
1
 10
0.0000
 20
0.0000
 30
0.0000
 40
0.0762
 41
0.0762
 70
0
  0
VERTEX
  8
255
 10
3.2831
 20
15.7243
 30
0.0000
 42
1.0000
  0
VERTEX
  8
255
 10
3.2292
 20
15.6704
 30
0.0000
  0
SEQEND
  8
0
  0
POLYLINE
  8
255
 66
1
 10
0.0000
 20
0.0000
 30
0.0000
 40
0.1524
 41
0.1524
 70
0
  0
VERTEX
  8
255
 10
3.5273
 20
15.4262
 30
0.0000
  0
VERTEX
  8
255
 10
4.0697
 20
15.4262
 30
0.0000
  0
SEQEND
  8
0
  0
POLYLINE
  8
255
 66
1
 10
0.0000
 20
0.0000
 30
0.0000
 40
0.0762
 41
0.0762
 70
0
  0
VERTEX
  8
255
 10
4.0697
 20
15.3881
 30
0.0000
 42
1.0000
  0
VERTEX
  8
255
 10
4.0697
 20
15.4643
 30
0.0000
  0
SEQEND
  8
0
  0
POLYLINE
  8
255
 66
1
 10
0.0000
 20
0.0000
 30
0.0000
 40
0.0762
 41
0.0762
 70
0
  0
VERTEX
  8
255
 10
3.5273
 20
15.4643
 30
0.0000
 42
1.0000
  0
VERTEX
  8
255
 10
3.5273
 20
15.3881
 30
0.0000
  0
SEQEND
  8
0
  0
POLYLINE
  8
255
 66
1
 10
0.0000
 20
0.0000
 30
0.0000
 40
0.1524
 41
0.1524
 70
0
  0
VERTEX
  8
255
 10
4.0697
 20
15.4262
 30
0.0000
  0
VERTEX
  8
255
 10
4.3408
 20
15.6974
 30
0.0000
  0
SEQEND
  8
0
  0
POLYLINE
  8
255
 66
1
 10
0.0000
 20
0.0000
 30
0.0000
 40
0.0762
 41
0.0762
 70
0
  0
VERTEX
  8
255
 10
4.3678
 20
15.6704
 30
0.0000
 42
1.0000
  0
VERTEX
  8
255
 10
4.3139
 20
15.7243
 30
0.0000
  0
SEQEND
  8
0
  0
POLYLINE
  8
255
 66
1
 10
0.0000
 20
0.0000
 30
0.0000
 40
0.0762
 41
0.0762
 70
0
  0
VERTEX
  8
255
 10
4.0427
 20
15.4531
 30
0.0000
 42
1.0000
  0
VERTEX
  8
255
 10
4.0966
 20
15.3993
 30
0.0000
  0
SEQEND
  8
0
  0
POLYLINE
  8
255
 66
1
 10
0.0000
 20
0.0000
 30
0.0000
 40
0.1524
 41
0.1524
 70
0
  0
VERTEX
  8
255
 10
4.3408
 20
15.6974
 30
0.0000
  0
VERTEX
  8
255
 10
4.3408
 20
16.7820
 30
0.0000
  0
SEQEND
  8
0
  0
POLYLINE
  8
255
 66
1
 10
0.0000
 20
0.0000
 30
0.0000
 40
0.0762
 41
0.0762
 70
0
  0
VERTEX
  8
255
 10
4.3789
 20
16.7820
 30
0.0000
 42
1.0000
  0
VERTEX
  8
255
 10
4.3027
 20
16.7820
 30
0.0000
  0
SEQEND
  8
0
  0
POLYLINE
  8
255
 66
1
 10
0.0000
 20
0.0000
 30
0.0000
 40
0.0762
 41
0.0762
 70
0
  0
VERTEX
  8
255
 10
4.3027
 20
15.6974
 30
0.0000
 42
1.0000
  0
VERTEX
  8
255
 10
4.3789
 20
15.6974
 30
0.0000
  0
SEQEND
  8
0
  0
POLYLINE
  8
255
 66
1
 10
0.0000
 20
0.0000
 30
0.0000
 40
0.1524
 41
0.1524
 70
0
  0
VERTEX
  8
255
 10
4.3408
 20
16.7820
 30
0.0000
  0
VERTEX
  8
255
 10
4.0697
 20
17.0532
 30
0.0000
  0
SEQEND
  8
0
  0
POLYLINE
  8
255
 66
1
 10
0.0000
 20
0.0000
 30
0.0000
 40
0.0762
 41
0.0762
 70
0
  0
VERTEX
  8
255
 10
4.0966
 20
17.0801
 30
0.0000
 42
1.0000
  0
VERTEX
  8
255
 10
4.0427
 20
17.0262
 30
0.0000
  0
SEQEND
  8
0
  0
POLYLINE
  8
255
 66
1
 10
0.0000
 20
0.0000
 30
0.0000
 40
0.0762
 41
0.0762
 70
0
  0
VERTEX
  8
255
 10
4.3139
 20
16.7551
 30
0.0000
 42
1.0000
  0
VERTEX
  8
255
 10
4.3678
 20
16.8090
 30
0.0000
  0
SEQEND
  8
0
  0
POLYLINE
  8
255
 66
1
 10
0.0000
 20
0.0000
 30
0.0000
 40
0.1524
 41
0.1524
 70
0
  0
VERTEX
  8
255
 10
4.8933
 20
16.5109
 30
0.0000
  0
VERTEX
  8
255
 10
4.8933
 20
15.6974
 30
0.0000
  0
SEQEND
  8
0
  0
POLYLINE
  8
255
 66
1
 10
0.0000
 20
0.0000
 30
0.0000
 40
0.0762
 41
0.0762
 70
0
  0
VERTEX
  8
255
 10
4.8552
 20
15.6974
 30
0.0000
 42
1.0000
  0
VERTEX
  8
255
 10
4.9314
 20
15.6974
 30
0.0000
  0
SEQEND
  8
0
  0
POLYLINE
  8
255
 66
1
 10
0.0000
 20
0.0000
 30
0.0000
 40
0.0762
 41
0.0762
 70
0
  0
VERTEX
  8
255
 10
4.9314
 20
16.5109
 30
0.0000
 42
1.0000
  0
VERTEX
  8
255
 10
4.8552
 20
16.5109
 30
0.0000
  0
SEQEND
  8
0
  0
POLYLINE
  8
255
 66
1
 10
0.0000
 20
0.0000
 30
0.0000
 40
0.1524
 41
0.1524
 70
0
  0
VERTEX
  8
255
 10
4.8933
 20
15.6974
 30
0.0000
  0
VERTEX
  8
255
 10
5.1645
 20
15.4262
 30
0.0000
  0
SEQEND
  8
0
  0
POLYLINE
  8
255
 66
1
 10
0.0000
 20
0.0000
 30
0.0000
 40
0.0762
 41
0.0762
 70
0
  0
VERTEX
  8
255
 10
5.1375
 20
15.3993
 30
0.0000
 42
1.0000
  0
VERTEX
  8
255
 10
5.1914
 20
15.4531
 30
0.0000
  0
SEQEND
  8
0
  0
POLYLINE
  8
255
 66
1
 10
0.0000
 20
0.0000
 30
0.0000
 40
0.0762
 41
0.0762
 70
0
  0
VERTEX
  8
255
 10
4.9203
 20
15.7243
 30
0.0000
 42
1.0000
  0
VERTEX
  8
255
 10
4.8664
 20
15.6704
 30
0.0000
  0
SEQEND
  8
0
  0
POLYLINE
  8
255
 66
1
 10
0.0000
 20
0.0000
 30
0.0000
 40
0.1524
 41
0.1524
 70
0
  0
VERTEX
  8
255
 10
5.1645
 20
15.4262
 30
0.0000
  0
VERTEX
  8
255
 10
5.9780
 20
15.4262
 30
0.0000
  0
SEQEND
  8
0
  0
POLYLINE
  8
255
 66
1
 10
0.0000
 20
0.0000
 30
0.0000
 40
0.0762
 41
0.0762
 70
0
  0
VERTEX
  8
255
 10
5.9780
 20
15.3881
 30
0.0000
 42
1.0000
  0
VERTEX
  8
255
 10
5.9780
 20
15.4643
 30
0.0000
  0
SEQEND
  8
0
  0
POLYLINE
  8
255
 66
1
 10
0.0000
 20
0.0000
 30
0.0000
 40
0.0762
 41
0.0762
 70
0
  0
VERTEX
  8
255
 10
5.1645
 20
15.4643
 30
0.0000
 42
1.0000
  0
VERTEX
  8
255
 10
5.1645
 20
15.3881
 30
0.0000
  0
SEQEND
  8
0
  0
POLYLINE
  8
255
 66
1
 10
0.0000
 20
0.0000
 30
0.0000
 40
0.1524
 41
0.1524
 70
0
  0
VERTEX
  8
255
 10
5.9780
 20
15.4262
 30
0.0000
  0
VERTEX
  8
255
 10
5.9780
 20
16.5109
 30
0.0000
  0
SEQEND
  8
0
  0
POLYLINE
  8
255
 66
1
 10
0.0000
 20
0.0000
 30
0.0000
 40
0.0762
 41
0.0762
 70
0
  0
VERTEX
  8
255
 10
6.0161
 20
16.5109
 30
0.0000
 42
1.0000
  0
VERTEX
  8
255
 10
5.9399
 20
16.5109
 30
0.0000
  0
SEQEND
  8
0
  0
POLYLINE
  8
255
 66
1
 10
0.0000
 20
0.0000
 30
0.0000
 40
0.0762
 41
0.0762
 70
0
  0
VERTEX
  8
255
 10
5.9399
 20
15.4262
 30
0.0000
 42
1.0000
  0
VERTEX
  8
255
 10
6.0161
 20
15.4262
 30
0.0000
  0
SEQEND
  8
0
  0
POLYLINE
  8
255
 66
1
 10
0.0000
 20
0.0000
 30
0.0000
 40
0.1524
 41
0.1524
 70
0
  0
VERTEX
  8
255
 10
6.8016
 20
16.7820
 30
0.0000
  0
VERTEX
  8
255
 10
6.8016
 20
15.6974
 30
0.0000
  0
SEQEND
  8
0
  0
POLYLINE
  8
255
 66
1
 10
0.0000
 20
0.0000
 30
0.0000
 40
0.0762
 41
0.0762
 70
0
  0
VERTEX
  8
255
 10
6.7635
 20
15.6974
 30
0.0000
 42
1.0000
  0
VERTEX
  8
255
 10
6.8397
 20
15.6974
 30
0.0000
  0
SEQEND
  8
0
  0
POLYLINE
  8
255
 66
1
 10
0.0000
 20
0.0000
 30
0.0000
 40
0.0762
 41
0.0762
 70
0
  0
VERTEX
  8
255
 10
6.8397
 20
16.7820
 30
0.0000
 42
1.0000
  0
VERTEX
  8
255
 10
6.7635
 20
16.7820
 30
0.0000
  0
SEQEND
  8
0
  0
POLYLINE
  8
255
 66
1
 10
0.0000
 20
0.0000
 30
0.0000
 40
0.1524
 41
0.1524
 70
0
  0
VERTEX
  8
255
 10
6.8016
 20
15.6974
 30
0.0000
  0
VERTEX
  8
255
 10
7.0728
 20
15.4262
 30
0.0000
  0
SEQEND
  8
0
  0
POLYLINE
  8
255
 66
1
 10
0.0000
 20
0.0000
 30
0.0000
 40
0.0762
 41
0.0762
 70
0
  0
VERTEX
  8
255
 10
7.0459
 20
15.3993
 30
0.0000
 42
1.0000
  0
VERTEX
  8
255
 10
7.0997
 20
15.4531
 30
0.0000
  0
SEQEND
  8
0
  0
POLYLINE
  8
255
 66
1
 10
0.0000
 20
0.0000
 30
0.0000
 40
0.0762
 41
0.0762
 70
0
  0
VERTEX
  8
255
 10
6.8286
 20
15.7243
 30
0.0000
 42
1.0000
  0
VERTEX
  8
255
 10
6.7747
 20
15.6704
 30
0.0000
  0
SEQEND
  8
0
  0
POLYLINE
  8
255
 66
1
 10
0.0000
 20
0.0000
 30
0.0000
 40
0.1524
 41
0.1524
 70
0
  0
VERTEX
  8
255
 10
6.5305
 20
16.5109
 30
0.0000
  0
VERTEX
  8
255
 10
7.0728
 20
16.5109
 30
0.0000
  0
SEQEND
  8
0
  0
POLYLINE
  8
255
 66
1
 10
0.0000
 20
0.0000
 30
0.0000
 40
0.0762
 41
0.0762
 70
0
  0
VERTEX
  8
255
 10
7.0728
 20
16.4728
 30
0.0000
 42
1.0000
  0
VERTEX
  8
255
 10
7.0728
 20
16.5490
 30
0.0000
  0
SEQEND
  8
0
  0
POLYLINE
  8
255
 66
1
 10
0.0000
 20
0.0000
 30
0.0000
 40
0.0762
 41
0.0762
 70
0
  0
VERTEX
  8
255
 10
6.5305
 20
16.5490
 30
0.0000
 42
1.0000
  0
VERTEX
  8
255
 10
6.5305
 20
16.4728
 30
0.0000
  0
SEQEND
  8
0
  0
POLYLINE
  8
255
 66
1
 10
0.0000
 20
0.0000
 30
0.0000
 40
0.1524
 41
0.1524
 70
0
  0
VERTEX
  8
255
 10
10.3437
 20
15.4262
 30
0.0000
  0
VERTEX
  8
255
 10
9.2591
 20
15.4262
 30
0.0000
  0
SEQEND
  8
0
  0
POLYLINE
  8
255
 66
1
 10
0.0000
 20
0.0000
 30
0.0000
 40
0.0762
 41
0.0762
 70
0
  0
VERTEX
  8
255
 10
9.2591
 20
15.4643
 30
0.0000
 42
1.0000
  0
VERTEX
  8
255
 10
9.2591
 20
15.3881
 30
0.0000
  0
SEQEND
  8
0
  0
POLYLINE
  8
255
 66
1
 10
0.0000
 20
0.0000
 30
0.0000
 40
0.0762
 41
0.0762
 70
0
  0
VERTEX
  8
255
 10
10.3437
 20
15.3881
 30
0.0000
 42
1.0000
  0
VERTEX
  8
255
 10
10.3437
 20
15.4643
 30
0.0000
  0
SEQEND
  8
0
  0
POLYLINE
  8
255
 66
1
 10
0.0000
 20
0.0000
 30
0.0000
 40
0.1524
 41
0.1524
 70
0
  0
VERTEX
  8
255
 10
9.2591
 20
15.4262
 30
0.0000
  0
VERTEX
  8
255
 10
10.3437
 20
16.5109
 30
0.0000
  0
SEQEND
  8
0
  0
POLYLINE
  8
255
 66
1
 10
0.0000
 20
0.0000
 30
0.0000
 40
0.0762
 41
0.0762
 70
0
  0
VERTEX
  8
255
 10
10.3707
 20
16.4839
 30
0.0000
 42
1.0000
  0
VERTEX
  8
255
 10
10.3168
 20
16.5378
 30
0.0000
  0
SEQEND
  8
0
  0
POLYLINE
  8
255
 66
1
 10
0.0000
 20
0.0000
 30
0.0000
 40
0.0762
 41
0.0762
 70
0
  0
VERTEX
  8
255
 10
9.2321
 20
15.4531
 30
0.0000
 42
1.0000
  0
VERTEX
  8
255
 10
9.2860
 20
15.3993
 30
0.0000
  0
SEQEND
  8
0
  0
POLYLINE
  8
255
 66
1
 10
0.0000
 20
0.0000
 30
0.0000
 40
0.1524
 41
0.1524
 70
0
  0
VERTEX
  8
255
 10
10.3437
 20
16.5109
 30
0.0000
  0
VERTEX
  8
255
 10
10.3437
 20
16.7820
 30
0.0000
  0
SEQEND
  8
0
  0
POLYLINE
  8
255
 66
1
 10
0.0000
 20
0.0000
 30
0.0000
 40
0.0762
 41
0.0762
 70
0
  0
VERTEX
  8
255
 10
10.3818
 20
16.7820
 30
0.0000
 42
1.0000
  0
VERTEX
  8
255
 10
10.3056
 20
16.7820
 30
0.0000
  0
SEQEND
  8
0
  0
POLYLINE
  8
255
 66
1
 10
0.0000
 20
0.0000
 30
0.0000
 40
0.0762
 41
0.0762
 70
0
  0
VERTEX
  8
255
 10
10.3056
 20
16.5109
 30
0.0000
 42
1.0000
  0
VERTEX
  8
255
 10
10.3818
 20
16.5109
 30
0.0000
  0
SEQEND
  8
0
  0
POLYLINE
  8
255
 66
1
 10
0.0000
 20
0.0000
 30
0.0000
 40
0.1524
 41
0.1524
 70
0
  0
VERTEX
  8
255
 10
10.3437
 20
16.7820
 30
0.0000
  0
VERTEX
  8
255
 10
10.0726
 20
17.0532
 30
0.0000
  0
SEQEND
  8
0
  0
POLYLINE
  8
255
 66
1
 10
0.0000
 20
0.0000
 30
0.0000
 40
0.0762
 41
0.0762
 70
0
  0
VERTEX
  8
255
 10
10.0995
 20
17.0801
 30
0.0000
 42
1.0000
  0
VERTEX
  8
255
 10
10.0456
 20
17.0262
 30
0.0000
  0
SEQEND
  8
0
  0
POLYLINE
  8
255
 66
1
 10
0.0000
 20
0.0000
 30
0.0000
 40
0.0762
 41
0.0762
 70
0
  0
VERTEX
  8
255
 10
10.3168
 20
16.7551
 30
0.0000
 42
1.0000
  0
VERTEX
  8
255
 10
10.3707
 20
16.8090
 30
0.0000
  0
SEQEND
  8
0
  0
POLYLINE
  8
255
 66
1
 10
0.0000
 20
0.0000
 30
0.0000
 40
0.1524
 41
0.1524
 70
0
  0
VERTEX
  8
255
 10
10.0726
 20
17.0532
 30
0.0000
  0
VERTEX
  8
255
 10
9.5302
 20
17.0532
 30
0.0000
  0
SEQEND
  8
0
  0
POLYLINE
  8
255
 66
1
 10
0.0000
 20
0.0000
 30
0.0000
 40
0.0762
 41
0.0762
 70
0
  0
VERTEX
  8
255
 10
9.5302
 20
17.0913
 30
0.0000
 42
1.0000
  0
VERTEX
  8
255
 10
9.5302
 20
17.0151
 30
0.0000
  0
SEQEND
  8
0
  0
POLYLINE
  8
255
 66
1
 10
0.0000
 20
0.0000
 30
0.0000
 40
0.0762
 41
0.0762
 70
0
  0
VERTEX
  8
255
 10
10.0726
 20
17.0151
 30
0.0000
 42
1.0000
  0
VERTEX
  8
255
 10
10.0726
 20
17.0913
 30
0.0000
  0
SEQEND
  8
0
  0
POLYLINE
  8
255
 66
1
 10
0.0000
 20
0.0000
 30
0.0000
 40
0.1524
 41
0.1524
 70
0
  0
VERTEX
  8
255
 10
9.5302
 20
17.0532
 30
0.0000
  0
VERTEX
  8
255
 10
9.2591
 20
16.7820
 30
0.0000
  0
SEQEND
  8
0
  0
POLYLINE
  8
255
 66
1
 10
0.0000
 20
0.0000
 30
0.0000
 40
0.0762
 41
0.0762
 70
0
  0
VERTEX
  8
255
 10
9.2321
 20
16.8090
 30
0.0000
 42
1.0000
  0
VERTEX
  8
255
 10
9.2860
 20
16.7551
 30
0.0000
  0
SEQEND
  8
0
  0
POLYLINE
  8
255
 66
1
 10
0.0000
 20
0.0000
 30
0.0000
 40
0.0762
 41
0.0762
 70
0
  0
VERTEX
  8
255
 10
9.5572
 20
17.0262
 30
0.0000
 42
1.0000
  0
VERTEX
  8
255
 10
9.5033
 20
17.0801
 30
0.0000
  0
SEQEND
  8
0
  0
POLYLINE
  8
255
 66
1
 10
0.0000
 20
0.0000
 30
0.0000
 40
0.0254
 41
0.0254
 70
0
  0
VERTEX
  8
255
 10
7.0000
 20
5.0000
 30
0.0000
 42
1.0000
  0
VERTEX
  8
255
 10
7.0000
 20
13.0000
 30
0.0000
 42
1.0000
  0
VERTEX
  8
255
 10
7.0000
 20
5.0000
 30
0.0000
  0
SEQEND
  8
0
  0
POLYLINE
  8
255
 66
1
 10
0.0000
 20
0.0000
 30
0.0000
 40
0.1524
 41
0.1524
 70
0
  0
VERTEX
  8
255
 10
8.0697
 20
30.5532
 30
0.0000
  0
VERTEX
  8
255
 10
7.5273
 20
30.5532
 30
0.0000
  0
SEQEND
  8
0
  0
POLYLINE
  8
255
 66
1
 10
0.0000
 20
0.0000
 30
0.0000
 40
0.0762
 41
0.0762
 70
0
  0
VERTEX
  8
255
 10
7.5273
 20
30.5913
 30
0.0000
 42
1.0000
  0
VERTEX
  8
255
 10
7.5273
 20
30.5151
 30
0.0000
  0
SEQEND
  8
0
  0
POLYLINE
  8
255
 66
1
 10
0.0000
 20
0.0000
 30
0.0000
 40
0.0762
 41
0.0762
 70
0
  0
VERTEX
  8
255
 10
8.0697
 20
30.5151
 30
0.0000
 42
1.0000
  0
VERTEX
  8
255
 10
8.0697
 20
30.5913
 30
0.0000
  0
SEQEND
  8
0
  0
POLYLINE
  8
255
 66
1
 10
0.0000
 20
0.0000
 30
0.0000
 40
0.1524
 41
0.1524
 70
0
  0
VERTEX
  8
255
 10
7.5273
 20
30.5532
 30
0.0000
  0
VERTEX
  8
255
 10
7.2562
 20
30.2820
 30
0.0000
  0
SEQEND
  8
0
  0
POLYLINE
  8
255
 66
1
 10
0.0000
 20
0.0000
 30
0.0000
 40
0.0762
 41
0.0762
 70
0
  0
VERTEX
  8
255
 10
7.2292
 20
30.3090
 30
0.0000
 42
1.0000
  0
VERTEX
  8
255
 10
7.2831
 20
30.2551
 30
0.0000
  0
SEQEND
  8
0
  0
POLYLINE
  8
255
 66
1
 10
0.0000
 20
0.0000
 30
0.0000
 40
0.0762
 41
0.0762
 70
0
  0
VERTEX
  8
255
 10
7.5543
 20
30.5262
 30
0.0000
 42
1.0000
  0
VERTEX
  8
255
 10
7.5004
 20
30.5801
 30
0.0000
  0
SEQEND
  8
0
  0
POLYLINE
  8
255
 66
1
 10
0.0000
 20
0.0000
 30
0.0000
 40
0.1524
 41
0.1524
 70
0
  0
VERTEX
  8
255
 10
7.2562
 20
30.2820
 30
0.0000
  0
VERTEX
  8
255
 10
7.2562
 20
29.1974
 30
0.0000
  0
SEQEND
  8
0
  0
POLYLINE
  8
255
 66
1
 10
0.0000
 20
0.0000
 30
0.0000
 40
0.0762
 41
0.0762
 70
0
  0
VERTEX
  8
255
 10
7.2181
 20
29.1974
 30
0.0000
 42
1.0000
  0
VERTEX
  8
255
 10
7.2943
 20
29.1974
 30
0.0000
  0
SEQEND
  8
0
  0
POLYLINE
  8
255
 66
1
 10
0.0000
 20
0.0000
 30
0.0000
 40
0.0762
 41
0.0762
 70
0
  0
VERTEX
  8
255
 10
7.2943
 20
30.2820
 30
0.0000
 42
1.0000
  0
VERTEX
  8
255
 10
7.2181
 20
30.2820
 30
0.0000
  0
SEQEND
  8
0
  0
POLYLINE
  8
255
 66
1
 10
0.0000
 20
0.0000
 30
0.0000
 40
0.1524
 41
0.1524
 70
0
  0
VERTEX
  8
255
 10
7.2562
 20
29.1974
 30
0.0000
  0
VERTEX
  8
255
 10
7.5273
 20
28.9262
 30
0.0000
  0
SEQEND
  8
0
  0
POLYLINE
  8
255
 66
1
 10
0.0000
 20
0.0000
 30
0.0000
 40
0.0762
 41
0.0762
 70
0
  0
VERTEX
  8
255
 10
7.5004
 20
28.8993
 30
0.0000
 42
1.0000
  0
VERTEX
  8
255
 10
7.5543
 20
28.9531
 30
0.0000
  0
SEQEND
  8
0
  0
POLYLINE
  8
255
 66
1
 10
0.0000
 20
0.0000
 30
0.0000
 40
0.0762
 41
0.0762
 70
0
  0
VERTEX
  8
255
 10
7.2831
 20
29.2243
 30
0.0000
 42
1.0000
  0
VERTEX
  8
255
 10
7.2292
 20
29.1704
 30
0.0000
  0
SEQEND
  8
0
  0
POLYLINE
  8
255
 66
1
 10
0.0000
 20
0.0000
 30
0.0000
 40
0.1524
 41
0.1524
 70
0
  0
VERTEX
  8
255
 10
7.5273
 20
28.9262
 30
0.0000
  0
VERTEX
  8
255
 10
8.0697
 20
28.9262
 30
0.0000
  0
SEQEND
  8
0
  0
POLYLINE
  8
255
 66
1
 10
0.0000
 20
0.0000
 30
0.0000
 40
0.0762
 41
0.0762
 70
0
  0
VERTEX
  8
255
 10
8.0697
 20
28.8881
 30
0.0000
 42
1.0000
  0
VERTEX
  8
255
 10
8.0697
 20
28.9643
 30
0.0000
  0
SEQEND
  8
0
  0
POLYLINE
  8
255
 66
1
 10
0.0000
 20
0.0000
 30
0.0000
 40
0.0762
 41
0.0762
 70
0
  0
VERTEX
  8
255
 10
7.5273
 20
28.9643
 30
0.0000
 42
1.0000
  0
VERTEX
  8
255
 10
7.5273
 20
28.8881
 30
0.0000
  0
SEQEND
  8
0
  0
POLYLINE
  8
255
 66
1
 10
0.0000
 20
0.0000
 30
0.0000
 40
0.1524
 41
0.1524
 70
0
  0
VERTEX
  8
255
 10
8.0697
 20
28.9262
 30
0.0000
  0
VERTEX
  8
255
 10
8.3408
 20
29.1974
 30
0.0000
  0
SEQEND
  8
0
  0
POLYLINE
  8
255
 66
1
 10
0.0000
 20
0.0000
 30
0.0000
 40
0.0762
 41
0.0762
 70
0
  0
VERTEX
  8
255
 10
8.3678
 20
29.1704
 30
0.0000
 42
1.0000
  0
VERTEX
  8
255
 10
8.3139
 20
29.2243
 30
0.0000
  0
SEQEND
  8
0
  0
POLYLINE
  8
255
 66
1
 10
0.0000
 20
0.0000
 30
0.0000
 40
0.0762
 41
0.0762
 70
0
  0
VERTEX
  8
255
 10
8.0427
 20
28.9531
 30
0.0000
 42
1.0000
  0
VERTEX
  8
255
 10
8.0966
 20
28.8993
 30
0.0000
  0
SEQEND
  8
0
  0
POLYLINE
  8
255
 66
1
 10
0.0000
 20
0.0000
 30
0.0000
 40
0.1524
 41
0.1524
 70
0
  0
VERTEX
  8
255
 10
8.3408
 20
29.1974
 30
0.0000
  0
VERTEX
  8
255
 10
8.3408
 20
30.2820
 30
0.0000
  0
SEQEND
  8
0
  0
POLYLINE
  8
255
 66
1
 10
0.0000
 20
0.0000
 30
0.0000
 40
0.0762
 41
0.0762
 70
0
  0
VERTEX
  8
255
 10
8.3789
 20
30.2820
 30
0.0000
 42
1.0000
  0
VERTEX
  8
255
 10
8.3027
 20
30.2820
 30
0.0000
  0
SEQEND
  8
0
  0
POLYLINE
  8
255
 66
1
 10
0.0000
 20
0.0000
 30
0.0000
 40
0.0762
 41
0.0762
 70
0
  0
VERTEX
  8
255
 10
8.3027
 20
29.1974
 30
0.0000
 42
1.0000
  0
VERTEX
  8
255
 10
8.3789
 20
29.1974
 30
0.0000
  0
SEQEND
  8
0
  0
POLYLINE
  8
255
 66
1
 10
0.0000
 20
0.0000
 30
0.0000
 40
0.1524
 41
0.1524
 70
0
  0
VERTEX
  8
255
 10
8.3408
 20
30.2820
 30
0.0000
  0
VERTEX
  8
255
 10
8.0697
 20
30.5532
 30
0.0000
  0
SEQEND
  8
0
  0
POLYLINE
  8
255
 66
1
 10
0.0000
 20
0.0000
 30
0.0000
 40
0.0762
 41
0.0762
 70
0
  0
VERTEX
  8
255
 10
8.0966
 20
30.5801
 30
0.0000
 42
1.0000
  0
VERTEX
  8
255
 10
8.0427
 20
30.5262
 30
0.0000
  0
SEQEND
  8
0
  0
POLYLINE
  8
255
 66
1
 10
0.0000
 20
0.0000
 30
0.0000
 40
0.0762
 41
0.0762
 70
0
  0
VERTEX
  8
255
 10
8.3139
 20
30.2551
 30
0.0000
 42
1.0000
  0
VERTEX
  8
255
 10
8.3678
 20
30.3090
 30
0.0000
  0
SEQEND
  8
0
  0
POLYLINE
  8
255
 66
1
 10
0.0000
 20
0.0000
 30
0.0000
 40
0.1524
 41
0.1524
 70
0
  0
VERTEX
  8
255
 10
8.8933
 20
30.0109
 30
0.0000
  0
VERTEX
  8
255
 10
8.8933
 20
29.1974
 30
0.0000
  0
SEQEND
  8
0
  0
POLYLINE
  8
255
 66
1
 10
0.0000
 20
0.0000
 30
0.0000
 40
0.0762
 41
0.0762
 70
0
  0
VERTEX
  8
255
 10
8.8552
 20
29.1974
 30
0.0000
 42
1.0000
  0
VERTEX
  8
255
 10
8.9314
 20
29.1974
 30
0.0000
  0
SEQEND
  8
0
  0
POLYLINE
  8
255
 66
1
 10
0.0000
 20
0.0000
 30
0.0000
 40
0.0762
 41
0.0762
 70
0
  0
VERTEX
  8
255
 10
8.9314
 20
30.0109
 30
0.0000
 42
1.0000
  0
VERTEX
  8
255
 10
8.8552
 20
30.0109
 30
0.0000
  0
SEQEND
  8
0
  0
POLYLINE
  8
255
 66
1
 10
0.0000
 20
0.0000
 30
0.0000
 40
0.1524
 41
0.1524
 70
0
  0
VERTEX
  8
255
 10
8.8933
 20
29.1974
 30
0.0000
  0
VERTEX
  8
255
 10
9.1645
 20
28.9262
 30
0.0000
  0
SEQEND
  8
0
  0
POLYLINE
  8
255
 66
1
 10
0.0000
 20
0.0000
 30
0.0000
 40
0.0762
 41
0.0762
 70
0
  0
VERTEX
  8
255
 10
9.1375
 20
28.8993
 30
0.0000
 42
1.0000
  0
VERTEX
  8
255
 10
9.1914
 20
28.9531
 30
0.0000
  0
SEQEND
  8
0
  0
POLYLINE
  8
255
 66
1
 10
0.0000
 20
0.0000
 30
0.0000
 40
0.0762
 41
0.0762
 70
0
  0
VERTEX
  8
255
 10
8.9203
 20
29.2243
 30
0.0000
 42
1.0000
  0
VERTEX
  8
255
 10
8.8664
 20
29.1704
 30
0.0000
  0
SEQEND
  8
0
  0
POLYLINE
  8
255
 66
1
 10
0.0000
 20
0.0000
 30
0.0000
 40
0.1524
 41
0.1524
 70
0
  0
VERTEX
  8
255
 10
9.1645
 20
28.9262
 30
0.0000
  0
VERTEX
  8
255
 10
9.9780
 20
28.9262
 30
0.0000
  0
SEQEND
  8
0
  0
POLYLINE
  8
255
 66
1
 10
0.0000
 20
0.0000
 30
0.0000
 40
0.0762
 41
0.0762
 70
0
  0
VERTEX
  8
255
 10
9.9780
 20
28.8881
 30
0.0000
 42
1.0000
  0
VERTEX
  8
255
 10
9.9780
 20
28.9643
 30
0.0000
  0
SEQEND
  8
0
  0
POLYLINE
  8
255
 66
1
 10
0.0000
 20
0.0000
 30
0.0000
 40
0.0762
 41
0.0762
 70
0
  0
VERTEX
  8
255
 10
9.1645
 20
28.9643
 30
0.0000
 42
1.0000
  0
VERTEX
  8
255
 10
9.1645
 20
28.8881
 30
0.0000
  0
SEQEND
  8
0
  0
POLYLINE
  8
255
 66
1
 10
0.0000
 20
0.0000
 30
0.0000
 40
0.1524
 41
0.1524
 70
0
  0
VERTEX
  8
255
 10
9.9780
 20
28.9262
 30
0.0000
  0
VERTEX
  8
255
 10
9.9780
 20
30.0109
 30
0.0000
  0
SEQEND
  8
0
  0
POLYLINE
  8
255
 66
1
 10
0.0000
 20
0.0000
 30
0.0000
 40
0.0762
 41
0.0762
 70
0
  0
VERTEX
  8
255
 10
10.0161
 20
30.0109
 30
0.0000
 42
1.0000
  0
VERTEX
  8
255
 10
9.9399
 20
30.0109
 30
0.0000
  0
SEQEND
  8
0
  0
POLYLINE
  8
255
 66
1
 10
0.0000
 20
0.0000
 30
0.0000
 40
0.0762
 41
0.0762
 70
0
  0
VERTEX
  8
255
 10
9.9399
 20
28.9262
 30
0.0000
 42
1.0000
  0
VERTEX
  8
255
 10
10.0161
 20
28.9262
 30
0.0000
  0
SEQEND
  8
0
  0
POLYLINE
  8
255
 66
1
 10
0.0000
 20
0.0000
 30
0.0000
 40
0.1524
 41
0.1524
 70
0
  0
VERTEX
  8
255
 10
10.8016
 20
30.2820
 30
0.0000
  0
VERTEX
  8
255
 10
10.8016
 20
29.1974
 30
0.0000
  0
SEQEND
  8
0
  0
POLYLINE
  8
255
 66
1
 10
0.0000
 20
0.0000
 30
0.0000
 40
0.0762
 41
0.0762
 70
0
  0
VERTEX
  8
255
 10
10.7635
 20
29.1974
 30
0.0000
 42
1.0000
  0
VERTEX
  8
255
 10
10.8397
 20
29.1974
 30
0.0000
  0
SEQEND
  8
0
  0
POLYLINE
  8
255
 66
1
 10
0.0000
 20
0.0000
 30
0.0000
 40
0.0762
 41
0.0762
 70
0
  0
VERTEX
  8
255
 10
10.8397
 20
30.2820
 30
0.0000
 42
1.0000
  0
VERTEX
  8
255
 10
10.7635
 20
30.2820
 30
0.0000
  0
SEQEND
  8
0
  0
POLYLINE
  8
255
 66
1
 10
0.0000
 20
0.0000
 30
0.0000
 40
0.1524
 41
0.1524
 70
0
  0
VERTEX
  8
255
 10
10.8016
 20
29.1974
 30
0.0000
  0
VERTEX
  8
255
 10
11.0728
 20
28.9262
 30
0.0000
  0
SEQEND
  8
0
  0
POLYLINE
  8
255
 66
1
 10
0.0000
 20
0.0000
 30
0.0000
 40
0.0762
 41
0.0762
 70
0
  0
VERTEX
  8
255
 10
11.0459
 20
28.8993
 30
0.0000
 42
1.0000
  0
VERTEX
  8
255
 10
11.0997
 20
28.9531
 30
0.0000
  0
SEQEND
  8
0
  0
POLYLINE
  8
255
 66
1
 10
0.0000
 20
0.0000
 30
0.0000
 40
0.0762
 41
0.0762
 70
0
  0
VERTEX
  8
255
 10
10.8286
 20
29.2243
 30
0.0000
 42
1.0000
  0
VERTEX
  8
255
 10
10.7747
 20
29.1704
 30
0.0000
  0
SEQEND
  8
0
  0
POLYLINE
  8
255
 66
1
 10
0.0000
 20
0.0000
 30
0.0000
 40
0.1524
 41
0.1524
 70
0
  0
VERTEX
  8
255
 10
10.5305
 20
30.0109
 30
0.0000
  0
VERTEX
  8
255
 10
11.0728
 20
30.0109
 30
0.0000
  0
SEQEND
  8
0
  0
POLYLINE
  8
255
 66
1
 10
0.0000
 20
0.0000
 30
0.0000
 40
0.0762
 41
0.0762
 70
0
  0
VERTEX
  8
255
 10
11.0728
 20
29.9728
 30
0.0000
 42
1.0000
  0
VERTEX
  8
255
 10
11.0728
 20
30.0490
 30
0.0000
  0
SEQEND
  8
0
  0
POLYLINE
  8
255
 66
1
 10
0.0000
 20
0.0000
 30
0.0000
 40
0.0762
 41
0.0762
 70
0
  0
VERTEX
  8
255
 10
10.5305
 20
30.0490
 30
0.0000
 42
1.0000
  0
VERTEX
  8
255
 10
10.5305
 20
29.9728
 30
0.0000
  0
SEQEND
  8
0
  0
POLYLINE
  8
255
 66
1
 10
0.0000
 20
0.0000
 30
0.0000
 40
0.1524
 41
0.1524
 70
0
  0
VERTEX
  8
255
 10
13.2591
 20
30.0109
 30
0.0000
  0
VERTEX
  8
255
 10
13.8014
 20
30.5532
 30
0.0000
  0
SEQEND
  8
0
  0
POLYLINE
  8
255
 66
1
 10
0.0000
 20
0.0000
 30
0.0000
 40
0.0762
 41
0.0762
 70
0
  0
VERTEX
  8
255
 10
13.8283
 20
30.5262
 30
0.0000
 42
1.0000
  0
VERTEX
  8
255
 10
13.7745
 20
30.5801
 30
0.0000
  0
SEQEND
  8
0
  0
POLYLINE
  8
255
 66
1
 10
0.0000
 20
0.0000
 30
0.0000
 40
0.0762
 41
0.0762
 70
0
  0
VERTEX
  8
255
 10
13.2321
 20
30.0378
 30
0.0000
 42
1.0000
  0
VERTEX
  8
255
 10
13.2860
 20
29.9839
 30
0.0000
  0
SEQEND
  8
0
  0
POLYLINE
  8
255
 66
1
 10
0.0000
 20
0.0000
 30
0.0000
 40
0.1524
 41
0.1524
 70
0
  0
VERTEX
  8
255
 10
13.8014
 20
30.5532
 30
0.0000
  0
VERTEX
  8
255
 10
13.8014
 20
28.9262
 30
0.0000
  0
SEQEND
  8
0
  0
POLYLINE
  8
255
 66
1
 10
0.0000
 20
0.0000
 30
0.0000
 40
0.0762
 41
0.0762
 70
0
  0
VERTEX
  8
255
 10
13.7633
 20
28.9262
 30
0.0000
 42
1.0000
  0
VERTEX
  8
255
 10
13.8395
 20
28.9262
 30
0.0000
  0
SEQEND
  8
0
  0
POLYLINE
  8
255
 66
1
 10
0.0000
 20
0.0000
 30
0.0000
 40
0.0762
 41
0.0762
 70
0
  0
VERTEX
  8
255
 10
13.8395
 20
30.5532
 30
0.0000
 42
1.0000
  0
VERTEX
  8
255
 10
13.7633
 20
30.5532
 30
0.0000
  0
SEQEND
  8
0
  0
POLYLINE
  8
255
 66
1
 10
0.0000
 20
0.0000
 30
0.0000
 40
0.1524
 41
0.1524
 70
0
  0
VERTEX
  8
255
 10
13.2591
 20
28.9262
 30
0.0000
  0
VERTEX
  8
255
 10
14.3437
 20
28.9262
 30
0.0000
  0
SEQEND
  8
0
  0
POLYLINE
  8
255
 66
1
 10
0.0000
 20
0.0000
 30
0.0000
 40
0.0762
 41
0.0762
 70
0
  0
VERTEX
  8
255
 10
14.3437
 20
28.8881
 30
0.0000
 42
1.0000
  0
VERTEX
  8
255
 10
14.3437
 20
28.9643
 30
0.0000
  0
SEQEND
  8
0
  0
POLYLINE
  8
255
 66
1
 10
0.0000
 20
0.0000
 30
0.0000
 40
0.0762
 41
0.0762
 70
0
  0
VERTEX
  8
255
 10
13.2591
 20
28.9643
 30
0.0000
 42
1.0000
  0
VERTEX
  8
255
 10
13.2591
 20
28.8881
 30
0.0000
  0
SEQEND
  8
0
  0
POLYLINE
  8
255
 66
1
 10
0.0000
 20
0.0000
 30
0.0000
 40
0.0254
 41
0.0254
 70
0
  0
VERTEX
  8
255
 10
11.0000
 20
18.5000
 30
0.0000
 42
1.0000
  0
VERTEX
  8
255
 10
11.0000
 20
26.5000
 30
0.0000
 42
1.0000
  0
VERTEX
  8
255
 10
11.0000
 20
18.5000
 30
0.0000
  0
SEQEND
  8
0
  0
ENDSEC
  0
EOF
