M48
;GenerationSoftware,Autodesk,EAGLE,9.2.0*%
;CreationDate,2018-10-02T14:18:00Z*%
FMAT,2
ICI,OFF
METRIC,TZ,000.000
T5C3.000
T4C4.000
T3C6.000
T2C8.000
T1C9.500
%
G90
M71
T1
X20952Y94727
X20952Y79602
X20952Y64352
X20952Y48977
X20952Y19852
T2
X6952Y110102
X18952Y110102
X30952Y110227
X6952Y94852
X6952Y79727
X6952Y64227
X6952Y49102
X6952Y19852
X40702Y19852
X52702Y19727
X52702Y38852
X52702Y54102
X52702Y69352
X52702Y84727
T3
X44327Y110102
T4
X6952Y35102
X20952Y35102
T5
X10091Y40648
X13341Y35148
X10203Y29641
X26423Y31998
X26472Y38384
X52914Y28019
X44461Y38925
X57716Y45898
X44434Y44105
X44500Y49119
X44376Y54130
X44482Y59209
X44468Y64337
X44468Y69349
X57796Y61161
X44486Y74461
X57732Y76346
X44469Y79578
X44350Y84705
X44473Y89697
X57735Y91722
X44452Y94836
X44473Y99803
M30