<!DOCTYPE svg PUBLIC "-//W3C//DTD SVG 1.1//EN" "http://www.w3.org/Graphics/SVG/1.1/DTD/svg11.dtd" >
<svg version="1.1" xmlns="http://www.w3.org/2000/svg" xmlns:xlink="http://www.w3.org/1999/xlink" xml:space="preserve" width="115" height="365">
<g>
<path fill="none" stroke="#9005D2" stroke-width="1" stroke-linecap="round" stroke-linejoin="round" d="M-102.8763,563.5599L-130.3078,402.6316L-464.4791,563.5599L-102.8763,563.5599Z"/>
<path fill="none" stroke="#9005D2" stroke-width="1" stroke-linecap="round" stroke-linejoin="round" d="M-239.0235,280.8474L-130.3078,402.6316L-464.4791,563.5599L-239.0235,280.8474Z"/>
<path fill="none" stroke="#9005D2" stroke-width="1" stroke-linecap="round" stroke-linejoin="round" d="M-130.3078,402.6316L-102.8763,563.5599L187.1067,563.5599L-130.3078,402.6316Z"/>
<path fill="none" stroke="#9005D2" stroke-width="1" stroke-linecap="round" stroke-linejoin="round" d="M-130.3078,402.6316L-239.0235,280.8474L-58.22195,54.12949L-130.3078,402.6316Z"/>
<path fill="none" stroke="#9005D2" stroke-width="1" stroke-linecap="round" stroke-linejoin="round" d="M42.11525,-71.68939L367.9081,-228.583L303.3809,54.12949L42.11525,-71.68939Z"/>
<path fill="none" stroke="#9005D2" stroke-width="1" stroke-linecap="round" stroke-linejoin="round" d="M267.571,-354.402L367.9081,-228.583L42.11525,-71.68939L267.571,-354.402Z"/>
<path fill="none" stroke="#9005D2" stroke-width="1" stroke-linecap="round" stroke-linejoin="round" d="M367.9081,-228.583L267.571,-354.402L448.3724,-581.1199L367.9081,-228.583Z"/>
</g>
<g>
<path fill="none" stroke="#5BFC39" stroke-width="1" stroke-linecap="round" stroke-linejoin="round" d="M-48.11396,364.5273L-38.89589,403.5661L-130.3078,402.6316L-48.11396,364.5273Z"/>
<path fill="none" stroke="#5BFC39" stroke-width="1" stroke-linecap="round" stroke-linejoin="round" d="M-51.91293,442.3776L-38.89589,403.5661L-130.3078,402.6316L-51.91293,442.3776Z"/>
<path fill="none" stroke="#5BFC39" stroke-width="1" stroke-linecap="round" stroke-linejoin="round" d="M-38.89589,403.5661L-51.91293,442.3776L10.95494,474.2514L-38.89589,403.5661Z"/>
<path fill="none" stroke="#5BFC39" stroke-width="1" stroke-linecap="round" stroke-linejoin="round" d="M-38.89589,403.5661L1.363079,403.382L10.95494,474.2514L-38.89589,403.5661Z"/>
<path fill="none" stroke="#5BFC39" stroke-width="1" stroke-linecap="round" stroke-linejoin="round" d="M10.95494,474.2514L69.94315,404.6788L1.363079,403.382L10.95494,474.2514Z"/>
<path fill="none" stroke="#5BFC39" stroke-width="1" stroke-linecap="round" stroke-linejoin="round" d="M10.95494,474.2514L45.84394,491.9401L69.94315,404.6788L10.95494,474.2514Z"/>
<path fill="none" stroke="#5BFC39" stroke-width="1" stroke-linecap="round" stroke-linejoin="round" d="M69.94315,404.6788L93.14884,436.1472L45.84394,491.9401L69.94315,404.6788Z"/>
<path fill="none" stroke="#5BFC39" stroke-width="1" stroke-linecap="round" stroke-linejoin="round" d="M45.84394,491.9401L134.964,492.8512L93.14884,436.1472L45.84394,491.9401Z"/>
<path fill="none" stroke="#5BFC39" stroke-width="1" stroke-linecap="round" stroke-linejoin="round" d="M124.2389,531.6861L134.964,492.8512L45.84394,491.9401L124.2389,531.6861Z"/>
<path fill="none" stroke="#5BFC39" stroke-width="1" stroke-linecap="round" stroke-linejoin="round" d="M134.964,492.8512L124.2389,531.6861L187.1067,563.5599L134.964,492.8512Z"/>
<path fill="none" stroke="#5BFC39" stroke-width="1" stroke-linecap="round" stroke-linejoin="round" d="M206.9797,476.4905L169.1984,475.9996L187.1067,563.5599L206.9797,476.4905Z"/>
<path fill="none" stroke="#5BFC39" stroke-width="1" stroke-linecap="round" stroke-linejoin="round" d="M134.964,492.8512L169.1984,475.9996L187.1067,563.5599L134.964,492.8512Z"/>
<path fill="none" stroke="#5BFC39" stroke-width="1" stroke-linecap="round" stroke-linejoin="round" d="M169.1984,475.9996L206.9797,476.4905L222.9167,406.6664L169.1984,475.9996Z"/>
<path fill="none" stroke="#5BFC39" stroke-width="1" stroke-linecap="round" stroke-linejoin="round" d="M169.1984,475.9996L161.2284,437.0317L222.9167,406.6664L169.1984,475.9996Z"/>
<path fill="none" stroke="#5BFC39" stroke-width="1" stroke-linecap="round" stroke-linejoin="round" d="M222.9167,406.6664L146.8671,366.8138L161.2284,437.0317L222.9167,406.6664Z"/>
<path fill="none" stroke="#5BFC39" stroke-width="1" stroke-linecap="round" stroke-linejoin="round" d="M222.9167,406.6664L231.761,367.9168L146.8671,366.8138L222.9167,406.6664Z"/>
<path fill="none" stroke="#5BFC39" stroke-width="1" stroke-linecap="round" stroke-linejoin="round" d="M146.8671,366.8138L170.774,335.9576L231.761,367.9168L146.8671,366.8138Z"/>
<path fill="none" stroke="#5BFC39" stroke-width="1" stroke-linecap="round" stroke-linejoin="round" d="M251.634,280.8474L213.8527,280.3565L231.761,367.9168L251.634,280.8474Z"/>
<path fill="none" stroke="#5BFC39" stroke-width="1" stroke-linecap="round" stroke-linejoin="round" d="M213.8527,280.3565L251.634,280.8474L267.571,211.0232L213.8527,280.3565Z"/>
<path fill="none" stroke="#5BFC39" stroke-width="1" stroke-linecap="round" stroke-linejoin="round" d="M213.8527,280.3565L190.647,248.8882L267.571,211.0232L213.8527,280.3565Z"/>
<path fill="none" stroke="#5BFC39" stroke-width="1" stroke-linecap="round" stroke-linejoin="round" d="M190.647,248.8882L213.8527,280.3565L170.774,335.9576L190.647,248.8882Z"/>
<path fill="none" stroke="#5BFC39" stroke-width="1" stroke-linecap="round" stroke-linejoin="round" d="M190.647,248.8882L156.4126,265.7397L170.774,335.9576L190.647,248.8882Z"/>
<path fill="none" stroke="#5BFC39" stroke-width="1" stroke-linecap="round" stroke-linejoin="round" d="M231.761,367.9168L213.8527,280.3565L170.774,335.9576L231.761,367.9168Z"/>
<path fill="none" stroke="#5BFC39" stroke-width="1" stroke-linecap="round" stroke-linejoin="round" d="M93.14883,436.1472L69.94315,404.6788L146.8671,366.8138L93.14883,436.1472Z"/>
<path fill="none" stroke="#5BFC39" stroke-width="1" stroke-linecap="round" stroke-linejoin="round" d="M93.14883,436.1472L146.8671,366.8138L161.2284,437.0317L93.14883,436.1472Z"/>
<path fill="none" stroke="#5BFC39" stroke-width="1" stroke-linecap="round" stroke-linejoin="round" d="M169.1984,475.9996L161.2284,437.0317L93.14883,436.1472L169.1984,475.9996Z"/>
<path fill="none" stroke="#5BFC39" stroke-width="1" stroke-linecap="round" stroke-linejoin="round" d="M169.1984,475.9996L134.964,492.8512L93.14883,436.1472L169.1984,475.9996Z"/>
<path fill="none" stroke="#5BFC39" stroke-width="1" stroke-linecap="round" stroke-linejoin="round" d="M-48.11395,364.5273L-73.38618,331.9462L-130.3078,402.6316L-48.11395,364.5273Z"/>
<path fill="none" stroke="#5BFC39" stroke-width="1" stroke-linecap="round" stroke-linejoin="round" d="M-112.5041,316.5587L-73.38618,331.9462L-130.3078,402.6316L-112.5041,316.5587Z"/>
<path fill="none" stroke="#5BFC39" stroke-width="1" stroke-linecap="round" stroke-linejoin="round" d="M-73.38618,331.9462L-48.11395,364.5273L17.80046,333.9701L-73.38618,331.9462Z"/>
<path fill="none" stroke="#5BFC39" stroke-width="1" stroke-linecap="round" stroke-linejoin="round" d="M-73.38618,331.9462L-47.84278,301.2049L17.80046,333.9701L-73.38618,331.9462Z"/>
<path fill="none" stroke="#5BFC39" stroke-width="1" stroke-linecap="round" stroke-linejoin="round" d="M-73.38618,331.9462L-112.5041,316.5587L-98.2266,247.5335L-73.38618,331.9462Z"/>
<path fill="none" stroke="#5BFC39" stroke-width="1" stroke-linecap="round" stroke-linejoin="round" d="M-73.38618,331.9462L-47.84278,301.2049L-98.2266,247.5335L-73.38618,331.9462Z"/>
<path fill="none" stroke="#5BFC39" stroke-width="1" stroke-linecap="round" stroke-linejoin="round" d="M-98.2266,247.5335L-5.612809,247.7852L-47.84278,301.2049L-98.2266,247.5335Z"/>
<path fill="none" stroke="#5BFC39" stroke-width="1" stroke-linecap="round" stroke-linejoin="round" d="M-98.2266,247.5335L-90.30319,209.2275L-5.612809,247.7852L-98.2266,247.5335Z"/>
<path fill="none" stroke="#5BFC39" stroke-width="1" stroke-linecap="round" stroke-linejoin="round" d="M-5.612809,247.7852L-16.0327,209.4293L-90.30319,209.2275L-5.612809,247.7852Z"/>
<path fill="none" stroke="#5BFC39" stroke-width="1" stroke-linecap="round" stroke-linejoin="round" d="M-90.30319,209.2275L-34.80869,140.3144L-16.0327,209.4293L-90.30319,209.2275Z"/>
<path fill="none" stroke="#5BFC39" stroke-width="1" stroke-linecap="round" stroke-linejoin="round" d="M-72.49945,123.1546L-34.80869,140.3144L-90.30319,209.2275L-72.49945,123.1546Z"/>
<path fill="none" stroke="#5BFC39" stroke-width="1" stroke-linecap="round" stroke-linejoin="round" d="M-34.80869,140.3144L-72.49945,123.1546L-58.22195,54.12949L-34.80869,140.3144Z"/>
<path fill="none" stroke="#5BFC39" stroke-width="1" stroke-linecap="round" stroke-linejoin="round" d="M-34.80869,140.3144L-0.5743039,123.4629L-58.22195,54.12949L-34.80869,140.3144Z"/>
<path fill="none" stroke="#5BFC39" stroke-width="1" stroke-linecap="round" stroke-linejoin="round" d="M203.0437,179.9485L180.2271,210.5323L122.5795,141.1989L203.0437,179.9485Z"/>
<path fill="none" stroke="#5BFC39" stroke-width="1" stroke-linecap="round" stroke-linejoin="round" d="M180.2271,210.5323L203.0437,179.9485L267.571,211.0232L180.2271,210.5323Z"/>
<path fill="none" stroke="#5BFC39" stroke-width="1" stroke-linecap="round" stroke-linejoin="round" d="M180.2271,210.5323L190.647,248.8882L267.571,211.0232L180.2271,210.5323Z"/>
<path fill="none" stroke="#5BFC39" stroke-width="1" stroke-linecap="round" stroke-linejoin="round" d="M190.647,248.8882L180.2271,210.5323L110.1828,210.1386L190.647,248.8882Z"/>
<path fill="none" stroke="#5BFC39" stroke-width="1" stroke-linecap="round" stroke-linejoin="round" d="M190.647,248.8882L156.4126,265.7397L110.1828,210.1386L190.647,248.8882Z"/>
<path fill="none" stroke="#5BFC39" stroke-width="1" stroke-linecap="round" stroke-linejoin="round" d="M122.5795,141.1989L180.2271,210.5323L110.1828,210.1386L122.5795,141.1989Z"/>
<path fill="none" stroke="#5BFC39" stroke-width="1" stroke-linecap="round" stroke-linejoin="round" d="M-0.5743039,123.4629L-34.80869,140.3144L-16.03271,209.4293L-0.5743039,123.4629Z"/>
<path fill="none" stroke="#5BFC39" stroke-width="1" stroke-linecap="round" stroke-linejoin="round" d="M142.4525,54.12951L167.2337,85.20422L122.5795,141.1989L142.4525,54.12951Z"/>
<path fill="none" stroke="#5BFC39" stroke-width="1" stroke-linecap="round" stroke-linejoin="round" d="M122.5795,141.1989L211.888,141.1989L167.2337,85.20422L122.5795,141.1989Z"/>
<path fill="none" stroke="#5BFC39" stroke-width="1" stroke-linecap="round" stroke-linejoin="round" d="M203.0437,179.9484L211.888,141.1989L122.5795,141.1989L203.0437,179.9484Z"/>
<path fill="none" stroke="#5BFC39" stroke-width="1" stroke-linecap="round" stroke-linejoin="round" d="M211.888,141.1989L203.0437,179.9484L267.571,211.0231L211.888,141.1989Z"/>
<path fill="none" stroke="#5BFC39" stroke-width="1" stroke-linecap="round" stroke-linejoin="round" d="M287.444,123.9537L247.1869,121.7146L267.571,211.0231L287.444,123.9537Z"/>
<path fill="none" stroke="#5BFC39" stroke-width="1" stroke-linecap="round" stroke-linejoin="round" d="M211.888,141.1989L247.1869,121.7146L267.571,211.0231L211.888,141.1989Z"/>
<path fill="none" stroke="#5BFC39" stroke-width="1" stroke-linecap="round" stroke-linejoin="round" d="M247.1869,121.7146L287.444,123.9537L303.3809,54.12949L247.1869,121.7146Z"/>
<path fill="none" stroke="#5BFC39" stroke-width="1" stroke-linecap="round" stroke-linejoin="round" d="M247.1869,121.7146L238.7938,82.27849L303.3809,54.12949L247.1869,121.7146Z"/>
<path fill="none" stroke="#5BFC39" stroke-width="1" stroke-linecap="round" stroke-linejoin="round" d="M303.3809,54.12949L222.9167,15.37997L238.7938,82.27849L303.3809,54.12949Z"/>
<path fill="none" stroke="#5BFC39" stroke-width="1" stroke-linecap="round" stroke-linejoin="round" d="M247.1869,121.7146L211.888,141.1989L167.2337,85.20422L247.1869,121.7146Z"/>
<path fill="none" stroke="#5BFC39" stroke-width="1" stroke-linecap="round" stroke-linejoin="round" d="M247.1869,121.7146L238.7938,82.27849L167.2337,85.20422L247.1869,121.7146Z"/>
<path fill="none" stroke="#5BFC39" stroke-width="1" stroke-linecap="round" stroke-linejoin="round" d="M167.2337,85.20422L222.9167,15.37997L238.7938,82.27849L167.2337,85.20422Z"/>
<path fill="none" stroke="#5BFC39" stroke-width="1" stroke-linecap="round" stroke-linejoin="round" d="M167.2337,85.20422L142.4525,54.12953L222.9167,15.37997L167.2337,85.20422Z"/>
<path fill="none" stroke="#5BFC39" stroke-width="1" stroke-linecap="round" stroke-linejoin="round" d="M222.9167,15.37997L187.1067,-1.865189L142.4525,54.12953L222.9167,15.37997Z"/>
<path fill="none" stroke="#5BFC39" stroke-width="1" stroke-linecap="round" stroke-linejoin="round" d="M142.4525,54.12953L122.5795,-32.93987L187.1067,-1.865189L142.4525,54.12953Z"/>
<path fill="none" stroke="#5BFC39" stroke-width="1" stroke-linecap="round" stroke-linejoin="round" d="M122.5795,-32.93987L86.76952,-15.69471L42.11525,-71.68939L122.5795,-32.93987Z"/>
</g>
<g>
<path fill="none" stroke="#B300B4" stroke-width="1" stroke-linecap="round" stroke-linejoin="round" d="M-44.01153,381.9012L-33.83703,381.4494L-38.89589,403.5661L-44.01153,381.9012Z"/>
<path fill="none" stroke="#B300B4" stroke-width="1" stroke-linecap="round" stroke-linejoin="round" d="M-24.89305,386.3773L-33.83703,381.4494L-38.89589,403.5661L-24.89305,386.3773Z"/>
<path fill="none" stroke="#B300B4" stroke-width="1" stroke-linecap="round" stroke-linejoin="round" d="M-33.83703,381.4494L-44.01153,381.9012L-48.11396,364.5273L-33.83703,381.4494Z"/>
<path fill="none" stroke="#B300B4" stroke-width="1" stroke-linecap="round" stroke-linejoin="round" d="M-33.83703,381.4494L-31.75688,371.6817L-48.11396,364.5273L-33.83703,381.4494Z"/>
<path fill="none" stroke="#B300B4" stroke-width="1" stroke-linecap="round" stroke-linejoin="round" d="M-48.11396,364.5273L-27.81374,355.1164L-31.75688,371.6817L-48.11396,364.5273Z"/>
<path fill="none" stroke="#B300B4" stroke-width="1" stroke-linecap="round" stroke-linejoin="round" d="M-33.83703,381.4494L-24.89305,386.3773L-13.66364,372.593L-33.83703,381.4494Z"/>
<path fill="none" stroke="#B300B4" stroke-width="1" stroke-linecap="round" stroke-linejoin="round" d="M-33.83703,381.4494L-31.75688,371.6817L-13.66364,372.593L-33.83703,381.4494Z"/>
<path fill="none" stroke="#B300B4" stroke-width="1" stroke-linecap="round" stroke-linejoin="round" d="M-13.66364,372.593L-27.81374,355.1164L-31.75688,371.6817L-13.66364,372.593Z"/>
<path fill="none" stroke="#B300B4" stroke-width="1" stroke-linecap="round" stroke-linejoin="round" d="M-13.66364,372.593L-7.431797,364.9433L-27.81374,355.1164L-13.66364,372.593Z"/>
<path fill="none" stroke="#B300B4" stroke-width="1" stroke-linecap="round" stroke-linejoin="round" d="M-27.81374,355.1164L-18.77929,350.9281L-7.431797,364.9433L-27.81374,355.1164Z"/>
<path fill="none" stroke="#B300B4" stroke-width="1" stroke-linecap="round" stroke-linejoin="round" d="M-7.431797,364.9433L-2.499773,343.3811L-18.77929,350.9281L-7.431797,364.9433Z"/>
<path fill="none" stroke="#B300B4" stroke-width="1" stroke-linecap="round" stroke-linejoin="round" d="M-16.55385,403.4639L-18.20729,393.7236L-38.89589,403.5661L-16.55385,403.4639Z"/>
<path fill="none" stroke="#B300B4" stroke-width="1" stroke-linecap="round" stroke-linejoin="round" d="M-24.89305,386.3773L-18.20729,393.7236L-38.89589,403.5661L-24.89305,386.3773Z"/>
<path fill="none" stroke="#B300B4" stroke-width="1" stroke-linecap="round" stroke-linejoin="round" d="M-18.20729,393.7236L-16.55385,403.4639L1.363079,403.382L-18.20729,393.7236Z"/>
<path fill="none" stroke="#B300B4" stroke-width="1" stroke-linecap="round" stroke-linejoin="round" d="M-18.20729,393.7236L-9.038575,389.5226L1.363079,403.382L-18.20729,393.7236Z"/>
<path fill="none" stroke="#B300B4" stroke-width="1" stroke-linecap="round" stroke-linejoin="round" d="M1.363079,403.382L6.425437,382.0046L-9.038575,389.5226L1.363079,403.382Z"/>
<path fill="none" stroke="#B300B4" stroke-width="1" stroke-linecap="round" stroke-linejoin="round" d="M-18.20729,393.7236L-24.89305,386.3773L-13.66364,372.593L-18.20729,393.7236Z"/>
<path fill="none" stroke="#B300B4" stroke-width="1" stroke-linecap="round" stroke-linejoin="round" d="M-18.20729,393.7236L-9.038575,389.5226L-13.66364,372.593L-18.20729,393.7236Z"/>
<path fill="none" stroke="#B300B4" stroke-width="1" stroke-linecap="round" stroke-linejoin="round" d="M-13.66364,372.593L6.425437,382.0046L-9.038575,389.5226L-13.66364,372.593Z"/>
<path fill="none" stroke="#B300B4" stroke-width="1" stroke-linecap="round" stroke-linejoin="round" d="M-13.66364,372.593L-7.431793,364.9433L6.425437,382.0046L-13.66364,372.593Z"/>
<path fill="none" stroke="#B300B4" stroke-width="1" stroke-linecap="round" stroke-linejoin="round" d="M6.425437,382.0046L8.678398,372.4908L-7.431793,364.9433L6.425437,382.0046Z"/>
<path fill="none" stroke="#B300B4" stroke-width="1" stroke-linecap="round" stroke-linejoin="round" d="M41.00613,365.4385L27.54662,382.404L24.06825,365.1182L41.00613,365.4385Z"/>
<path fill="none" stroke="#B300B4" stroke-width="1" stroke-linecap="round" stroke-linejoin="round" d="M41.00613,365.4385L46.73746,373.2105L27.54662,382.404L41.00613,365.4385Z"/>
<path fill="none" stroke="#B300B4" stroke-width="1" stroke-linecap="round" stroke-linejoin="round" d="M27.54662,382.404L35.94378,386.8158L46.73746,373.2105L27.54662,382.404Z"/>
<path fill="none" stroke="#B300B4" stroke-width="1" stroke-linecap="round" stroke-linejoin="round" d="M59.61565,390.6741L51.07492,394.7656L46.73746,373.2105L59.61565,390.6741Z"/>
<path fill="none" stroke="#B300B4" stroke-width="1" stroke-linecap="round" stroke-linejoin="round" d="M51.07492,394.7656L59.61565,390.6741L69.94315,404.6788L51.07492,394.7656Z"/>
<path fill="none" stroke="#B300B4" stroke-width="1" stroke-linecap="round" stroke-linejoin="round" d="M51.07492,394.7656L48.82196,404.2794L69.94315,404.6788L51.07492,394.7656Z"/>
<path fill="none" stroke="#B300B4" stroke-width="1" stroke-linecap="round" stroke-linejoin="round" d="M48.82196,404.2794L51.07492,394.7656L35.94378,386.8158L48.82196,404.2794Z"/>
<path fill="none" stroke="#B300B4" stroke-width="1" stroke-linecap="round" stroke-linejoin="round" d="M48.82196,404.2794L39.42214,404.1017L35.94378,386.8158L48.82196,404.2794Z"/>
<path fill="none" stroke="#B300B4" stroke-width="1" stroke-linecap="round" stroke-linejoin="round" d="M46.73746,373.2105L51.07492,394.7656L35.94378,386.8158L46.73746,373.2105Z"/>
<path fill="none" stroke="#B300B4" stroke-width="1" stroke-linecap="round" stroke-linejoin="round" d="M35.94378,386.8158L22.48426,403.7814L39.42214,404.1017L35.94378,386.8158Z"/>
<path fill="none" stroke="#B300B4" stroke-width="1" stroke-linecap="round" stroke-linejoin="round" d="M35.94378,386.8158L27.54662,382.404L22.48426,403.7814L35.94378,386.8158Z"/>
<path fill="none" stroke="#B300B4" stroke-width="1" stroke-linecap="round" stroke-linejoin="round" d="M22.48426,403.7814L16.75294,396.0093L27.54662,382.404L22.48426,403.7814Z"/>
<path fill="none" stroke="#B300B4" stroke-width="1" stroke-linecap="round" stroke-linejoin="round" d="M22.48426,403.7814L16.75294,396.0093L1.363079,403.382L22.48426,403.7814Z"/>
<path fill="none" stroke="#B300B4" stroke-width="1" stroke-linecap="round" stroke-linejoin="round" d="M1.363079,403.382L6.425436,382.0046L16.75294,396.0093L1.363079,403.382Z"/>
<path fill="none" stroke="#B300B4" stroke-width="1" stroke-linecap="round" stroke-linejoin="round" d="M27.54662,382.404L6.425436,382.0046L16.75294,396.0093L27.54662,382.404Z"/>
<path fill="none" stroke="#B300B4" stroke-width="1" stroke-linecap="round" stroke-linejoin="round" d="M8.678394,372.4908L6.425436,382.0046L27.54662,382.404L8.678394,372.4908Z"/>
<path fill="none" stroke="#B300B4" stroke-width="1" stroke-linecap="round" stroke-linejoin="round" d="M8.678394,372.4908L27.54662,382.404L24.06825,365.1182L8.678394,372.4908Z"/>
<path fill="none" stroke="#B300B4" stroke-width="1" stroke-linecap="round" stroke-linejoin="round" d="M151.9913,326.1148L157.8958,318.494L170.774,335.9576L151.9913,326.1148Z"/>
<path fill="none" stroke="#B300B4" stroke-width="1" stroke-linecap="round" stroke-linejoin="round" d="M166.351,314.332L157.8958,318.494L170.774,335.9576L166.351,314.332Z"/>
<path fill="none" stroke="#B300B4" stroke-width="1" stroke-linecap="round" stroke-linejoin="round" d="M157.8958,318.494L151.9913,326.1148L136.9287,318.2216L157.8958,318.494Z"/>
<path fill="none" stroke="#B300B4" stroke-width="1" stroke-linecap="round" stroke-linejoin="round" d="M157.8958,318.494L152.1645,310.7219L136.9287,318.2216L157.8958,318.494Z"/>
<path fill="none" stroke="#B300B4" stroke-width="1" stroke-linecap="round" stroke-linejoin="round" d="M136.9287,318.2216L141.8369,296.7172L152.1645,310.7219L136.9287,318.2216Z"/>
<path fill="none" stroke="#B300B4" stroke-width="1" stroke-linecap="round" stroke-linejoin="round" d="M136.9287,318.2216L128.5697,313.8411L141.8369,296.7172L136.9287,318.2216Z"/>
<path fill="none" stroke="#B300B4" stroke-width="1" stroke-linecap="round" stroke-linejoin="round" d="M141.8369,296.7172L132.5057,296.5959L128.5697,313.8411L141.8369,296.7172Z"/>
<path fill="none" stroke="#B300B4" stroke-width="1" stroke-linecap="round" stroke-linejoin="round" d="M109.7869,303.9984L115.6915,296.3775L128.5697,313.8411L109.7869,303.9984Z"/>
<path fill="none" stroke="#B300B4" stroke-width="1" stroke-linecap="round" stroke-linejoin="round" d="M115.6915,296.3775L109.7869,303.9984L94.72441,296.1051L115.6915,296.3775Z"/>
<path fill="none" stroke="#B300B4" stroke-width="1" stroke-linecap="round" stroke-linejoin="round" d="M113.723,286.7532L115.6915,296.3775L132.5057,296.5959L113.723,286.7532Z"/>
<path fill="none" stroke="#B300B4" stroke-width="1" stroke-linecap="round" stroke-linejoin="round" d="M113.723,286.7532L122.1782,282.5912L132.5057,296.5959L113.723,286.7532Z"/>
<path fill="none" stroke="#B300B4" stroke-width="1" stroke-linecap="round" stroke-linejoin="round" d="M128.5697,313.8411L115.6915,296.3775L132.5057,296.5959L128.5697,313.8411Z"/>
<path fill="none" stroke="#B300B4" stroke-width="1" stroke-linecap="round" stroke-linejoin="round" d="M132.5057,296.5959L137.414,275.0916L122.1782,282.5912L132.5057,296.5959Z"/>
<path fill="none" stroke="#B300B4" stroke-width="1" stroke-linecap="round" stroke-linejoin="round" d="M132.5057,296.5959L141.8369,296.7172L137.414,275.0916L132.5057,296.5959Z"/>
<path fill="none" stroke="#B300B4" stroke-width="1" stroke-linecap="round" stroke-linejoin="round" d="M137.414,275.0916L145.773,279.472L141.8369,296.7172L137.414,275.0916Z"/>
<path fill="none" stroke="#B300B4" stroke-width="1" stroke-linecap="round" stroke-linejoin="round" d="M137.414,275.0916L145.773,279.472L156.4126,265.7397L137.414,275.0916Z"/>
<path fill="none" stroke="#B300B4" stroke-width="1" stroke-linecap="round" stroke-linejoin="round" d="M156.4126,265.7397L160.8356,287.3653L145.773,279.472L156.4126,265.7397Z"/>
<path fill="none" stroke="#B300B4" stroke-width="1" stroke-linecap="round" stroke-linejoin="round" d="M141.8369,296.7172L160.8356,287.3653L145.773,279.472L141.8369,296.7172Z"/>
<path fill="none" stroke="#B300B4" stroke-width="1" stroke-linecap="round" stroke-linejoin="round" d="M162.804,296.9896L160.8356,287.3653L141.8369,296.7172L162.804,296.9896Z"/>
<path fill="none" stroke="#B300B4" stroke-width="1" stroke-linecap="round" stroke-linejoin="round" d="M162.804,296.9896L141.8369,296.7172L152.1645,310.7219L162.804,296.9896Z"/>
<path fill="none" stroke="#B300B4" stroke-width="1" stroke-linecap="round" stroke-linejoin="round" d="M157.8958,318.494L152.1645,310.7219L162.804,296.9896L157.8958,318.494Z"/>
<path fill="none" stroke="#B300B4" stroke-width="1" stroke-linecap="round" stroke-linejoin="round" d="M157.8958,318.494L166.351,314.332L162.804,296.9896L157.8958,318.494Z"/>
<path fill="none" stroke="#B300B4" stroke-width="1" stroke-linecap="round" stroke-linejoin="round" d="M151.2867,345.55L160.1344,349.6899L170.774,335.9576L151.2867,345.55Z"/>
<path fill="none" stroke="#B300B4" stroke-width="1" stroke-linecap="round" stroke-linejoin="round" d="M151.2867,345.55L149.8069,335.6852L170.774,335.9576L151.2867,345.55Z"/>
<path fill="none" stroke="#B300B4" stroke-width="1" stroke-linecap="round" stroke-linejoin="round" d="M151.9913,326.1148L149.8069,335.6852L170.774,335.9576L151.9913,326.1148Z"/>
<path fill="none" stroke="#B300B4" stroke-width="1" stroke-linecap="round" stroke-linejoin="round" d="M160.1344,349.6899L151.2867,345.55L146.8671,366.8138L160.1344,349.6899Z"/>
<path fill="none" stroke="#B300B4" stroke-width="1" stroke-linecap="round" stroke-linejoin="round" d="M146.8671,366.8138L151.2867,345.55L136.5396,352.8091L146.8671,366.8138Z"/>
<path fill="none" stroke="#B300B4" stroke-width="1" stroke-linecap="round" stroke-linejoin="round" d="M149.8069,335.6852L151.2867,345.55L136.5396,352.8091L149.8069,335.6852Z"/>
<path fill="none" stroke="#B300B4" stroke-width="1" stroke-linecap="round" stroke-linejoin="round" d="M149.8069,335.6852L140.4757,335.5639L136.5396,352.8091L149.8069,335.6852Z"/>
<path fill="none" stroke="#B300B4" stroke-width="1" stroke-linecap="round" stroke-linejoin="round" d="M136.5396,352.8091L123.6614,335.3455L140.4757,335.5639L136.5396,352.8091Z"/>
<path fill="none" stroke="#B300B4" stroke-width="1" stroke-linecap="round" stroke-linejoin="round" d="M149.8069,335.6852L151.9913,326.1148L136.9287,318.2216L149.8069,335.6852Z"/>
<path fill="none" stroke="#B300B4" stroke-width="1" stroke-linecap="round" stroke-linejoin="round" d="M149.8069,335.6852L140.4757,335.5639L136.9287,318.2216L149.8069,335.6852Z"/>
<path fill="none" stroke="#B300B4" stroke-width="1" stroke-linecap="round" stroke-linejoin="round" d="M136.9287,318.2216L123.6614,335.3455L140.4757,335.5639L136.9287,318.2216Z"/>
<path fill="none" stroke="#B300B4" stroke-width="1" stroke-linecap="round" stroke-linejoin="round" d="M136.9287,318.2216L128.5696,313.8411L123.6614,335.3455L136.9287,318.2216Z"/>
<path fill="none" stroke="#B300B4" stroke-width="1" stroke-linecap="round" stroke-linejoin="round" d="M123.6614,335.3455L117.9301,327.5734L128.5696,313.8411L123.6614,335.3455Z"/>
<path fill="none" stroke="#B300B4" stroke-width="1" stroke-linecap="round" stroke-linejoin="round" d="M123.6614,335.3455L128.0844,356.971L113.0219,349.0778L123.6614,335.3455Z"/>
<path fill="none" stroke="#B300B4" stroke-width="1" stroke-linecap="round" stroke-linejoin="round" d="M136.5396,352.8091L128.0844,356.971L123.6614,335.3455L136.5396,352.8091Z"/>
<path fill="none" stroke="#B300B4" stroke-width="1" stroke-linecap="round" stroke-linejoin="round" d="M128.0844,356.971L136.5396,352.8091L146.8671,366.8138L128.0844,356.971Z"/>
<path fill="none" stroke="#B300B4" stroke-width="1" stroke-linecap="round" stroke-linejoin="round" d="M38.76752,334.2425L33.03618,326.4705L17.80045,333.9701L38.76752,334.2425Z"/>
<path fill="none" stroke="#B300B4" stroke-width="1" stroke-linecap="round" stroke-linejoin="round" d="M59.61565,390.6741L65.52016,383.0533L46.73747,373.2105L59.61565,390.6741Z"/>
<path fill="none" stroke="#B300B4" stroke-width="1" stroke-linecap="round" stroke-linejoin="round" d="M65.52016,383.0533L59.61565,390.6741L69.94315,404.6788L65.52016,383.0533Z"/>
<path fill="none" stroke="#B300B4" stroke-width="1" stroke-linecap="round" stroke-linejoin="round" d="M65.52016,383.0533L74.85138,383.1745L69.94315,404.6788L65.52016,383.0533Z"/>
<path fill="none" stroke="#B300B4" stroke-width="1" stroke-linecap="round" stroke-linejoin="round" d="M74.85138,383.1745L65.52016,383.0533L61.9732,365.7109L74.85138,383.1745Z"/>
<path fill="none" stroke="#B300B4" stroke-width="1" stroke-linecap="round" stroke-linejoin="round" d="M74.85138,383.1745L77.03575,373.6041L61.9732,365.7109L74.85138,383.1745Z"/>
<path fill="none" stroke="#B300B4" stroke-width="1" stroke-linecap="round" stroke-linejoin="round" d="M46.73747,373.2105L65.52016,383.0533L61.9732,365.7109L46.73747,373.2105Z"/>
<path fill="none" stroke="#B300B4" stroke-width="1" stroke-linecap="round" stroke-linejoin="round" d="M127.8684,376.1657L125.9,366.5414L146.8671,366.8138L127.8684,376.1657Z"/>
<path fill="none" stroke="#B300B4" stroke-width="1" stroke-linecap="round" stroke-linejoin="round" d="M128.0844,356.971L125.9,366.5414L146.8671,366.8138L128.0844,356.971Z"/>
<path fill="none" stroke="#B300B4" stroke-width="1" stroke-linecap="round" stroke-linejoin="round" d="M125.9,366.5414L127.8684,376.1657L112.6327,383.6653L125.9,366.5414Z"/>
<path fill="none" stroke="#B300B4" stroke-width="1" stroke-linecap="round" stroke-linejoin="round" d="M125.9,366.5414L116.5688,366.4202L112.6327,383.6653L125.9,366.5414Z"/>
<path fill="none" stroke="#B300B4" stroke-width="1" stroke-linecap="round" stroke-linejoin="round" d="M112.6327,383.6653L99.75453,366.2017L116.5688,366.4202L112.6327,383.6653Z"/>
<path fill="none" stroke="#B300B4" stroke-width="1" stroke-linecap="round" stroke-linejoin="round" d="M112.6327,383.6653L104.1775,387.8273L99.75453,366.2017L112.6327,383.6653Z"/>
<path fill="none" stroke="#B300B4" stroke-width="1" stroke-linecap="round" stroke-linejoin="round" d="M99.75453,366.2017L93.85002,373.8226L104.1775,387.8273L99.75453,366.2017Z"/>
<path fill="none" stroke="#B300B4" stroke-width="1" stroke-linecap="round" stroke-linejoin="round" d="M85.17888,397.1792L83.21046,387.5549L104.1775,387.8273L85.17888,397.1792Z"/>
<path fill="none" stroke="#B300B4" stroke-width="1" stroke-linecap="round" stroke-linejoin="round" d="M83.21046,387.5549L85.17888,397.1792L69.94315,404.6788L83.21046,387.5549Z"/>
<path fill="none" stroke="#B300B4" stroke-width="1" stroke-linecap="round" stroke-linejoin="round" d="M83.21046,387.5549L74.85138,383.1745L69.94315,404.6788L83.21046,387.5549Z"/>
<path fill="none" stroke="#B300B4" stroke-width="1" stroke-linecap="round" stroke-linejoin="round" d="M74.85138,383.1745L83.21046,387.5549L93.85002,373.8226L74.85138,383.1745Z"/>
<path fill="none" stroke="#B300B4" stroke-width="1" stroke-linecap="round" stroke-linejoin="round" d="M74.85138,383.1745L77.03575,373.6041L93.85002,373.8226L74.85138,383.1745Z"/>
<path fill="none" stroke="#B300B4" stroke-width="1" stroke-linecap="round" stroke-linejoin="round" d="M104.1775,387.8273L83.21046,387.5549L93.85002,373.8226L104.1775,387.8273Z"/>
<path fill="none" stroke="#B300B4" stroke-width="1" stroke-linecap="round" stroke-linejoin="round" d="M125.9,366.5414L116.5688,366.4202L113.0219,349.0778L125.9,366.5414Z"/>
<path fill="none" stroke="#B300B4" stroke-width="1" stroke-linecap="round" stroke-linejoin="round" d="M125.9,366.5414L128.0844,356.971L113.0219,349.0778L125.9,366.5414Z"/>
<path fill="none" stroke="#B300B4" stroke-width="1" stroke-linecap="round" stroke-linejoin="round" d="M12.01785,312.6842L3.371925,316.5573L17.80045,333.9701L12.01785,312.6842Z"/>
<path fill="none" stroke="#B300B4" stroke-width="1" stroke-linecap="round" stroke-linejoin="round" d="M-2.416258,323.8792L3.371925,316.5573L17.80045,333.9701L-2.416258,323.8792Z"/>
<path fill="none" stroke="#B300B4" stroke-width="1" stroke-linecap="round" stroke-linejoin="round" d="M3.371925,316.5573L12.01785,312.6842L7.380569,295.6143L3.371925,316.5573Z"/>
<path fill="none" stroke="#B300B4" stroke-width="1" stroke-linecap="round" stroke-linejoin="round" d="M3.371925,316.5573L-3.049375,308.8078L7.380569,295.6143L3.371925,316.5573Z"/>
<path fill="none" stroke="#B300B4" stroke-width="1" stroke-linecap="round" stroke-linejoin="round" d="M7.380569,295.6143L-14.62015,294.8438L-3.049375,308.8078L7.380569,295.6143Z"/>
<path fill="none" stroke="#B300B4" stroke-width="1" stroke-linecap="round" stroke-linejoin="round" d="M-14.62015,294.8438L-12.83614,285.5233L4.807071,286.1411L-14.62015,294.8438Z"/>
<path fill="none" stroke="#B300B4" stroke-width="1" stroke-linecap="round" stroke-linejoin="round" d="M-9.621456,268.7282L-0.9755284,264.8552L-5.612811,247.7852L-9.621456,268.7282Z"/>
<path fill="none" stroke="#B300B4" stroke-width="1" stroke-linecap="round" stroke-linejoin="round" d="M-9.621456,268.7282L-18.61874,264.2373L-5.612811,247.7852L-9.621456,268.7282Z"/>
<path fill="none" stroke="#B300B4" stroke-width="1" stroke-linecap="round" stroke-linejoin="round" d="M-18.61874,264.2373L-9.621456,268.7282L-12.83614,285.5233L-18.61874,264.2373Z"/>
<path fill="none" stroke="#B300B4" stroke-width="1" stroke-linecap="round" stroke-linejoin="round" d="M-18.61874,264.2373L-24.40692,271.5592L-12.83614,285.5233L-18.61874,264.2373Z"/>
<path fill="none" stroke="#B300B4" stroke-width="1" stroke-linecap="round" stroke-linejoin="round" d="M-12.83614,285.5233L-34.83686,284.7528L-24.40692,271.5592L-12.83614,285.5233Z"/>
<path fill="none" stroke="#B300B4" stroke-width="1" stroke-linecap="round" stroke-linejoin="round" d="M-12.83614,285.5233L-14.62015,294.8438L-34.83686,284.7528L-12.83614,285.5233Z"/>
<path fill="none" stroke="#B300B4" stroke-width="1" stroke-linecap="round" stroke-linejoin="round" d="M-34.83686,284.7528L-32.26336,294.2259L-14.62015,294.8438L-34.83686,284.7528Z"/>
<path fill="none" stroke="#B300B4" stroke-width="1" stroke-linecap="round" stroke-linejoin="round" d="M-34.83686,284.7528L-32.26336,294.2259L-47.84278,301.2049L-34.83686,284.7528Z"/>
<path fill="none" stroke="#B300B4" stroke-width="1" stroke-linecap="round" stroke-linejoin="round" d="M-47.84278,301.2049L-27.62608,311.2959L-32.26336,294.2259L-47.84278,301.2049Z"/>
<path fill="none" stroke="#B300B4" stroke-width="1" stroke-linecap="round" stroke-linejoin="round" d="M-14.62015,294.8438L-27.62608,311.2959L-32.26336,294.2259L-14.62015,294.8438Z"/>
<path fill="none" stroke="#B300B4" stroke-width="1" stroke-linecap="round" stroke-linejoin="round" d="M-18.6288,315.7868L-27.62608,311.2959L-14.62015,294.8438L-18.6288,315.7868Z"/>
<path fill="none" stroke="#B300B4" stroke-width="1" stroke-linecap="round" stroke-linejoin="round" d="M-18.6288,315.7868L-14.62015,294.8438L-3.049375,308.8078L-18.6288,315.7868Z"/>
<path fill="none" stroke="#B300B4" stroke-width="1" stroke-linecap="round" stroke-linejoin="round" d="M3.371925,316.5573L-3.049375,308.8078L-18.6288,315.7868L3.371925,316.5573Z"/>
<path fill="none" stroke="#B300B4" stroke-width="1" stroke-linecap="round" stroke-linejoin="round" d="M3.371925,316.5573L-2.416258,323.8792L-18.6288,315.7868L3.371925,316.5573Z"/>
<path fill="none" stroke="#B300B4" stroke-width="1" stroke-linecap="round" stroke-linejoin="round" d="M-0.5743024,123.4629L2.755025,102.4714L-11.99212,109.7306L-0.5743024,123.4629Z"/>
<path fill="none" stroke="#B300B4" stroke-width="1" stroke-linecap="round" stroke-linejoin="round" d="M0.6701126,92.75781L2.755025,102.4714L-11.99212,109.7306L0.6701126,92.75781Z"/>
<path fill="none" stroke="#B300B4" stroke-width="1" stroke-linecap="round" stroke-linejoin="round" d="M0.6701126,92.75781L-8.930397,92.70386L-11.99212,109.7306L0.6701126,92.75781Z"/>
<path fill="none" stroke="#B300B4" stroke-width="1" stroke-linecap="round" stroke-linejoin="round" d="M-11.99212,109.7306L-26.22992,92.60662L-8.930397,92.70386L-11.99212,109.7306Z"/>
<path fill="none" stroke="#B300B4" stroke-width="1" stroke-linecap="round" stroke-linejoin="round" d="M0.6701126,92.75781L2.369241,83.30869L-13.56769,75.63387L0.6701126,92.75781Z"/>
<path fill="none" stroke="#B300B4" stroke-width="1" stroke-linecap="round" stroke-linejoin="round" d="M0.6701126,92.75781L-8.930397,92.70386L-13.56769,75.63387L0.6701126,92.75781Z"/>
<path fill="none" stroke="#B300B4" stroke-width="1" stroke-linecap="round" stroke-linejoin="round" d="M-13.56769,75.63387L-26.22992,92.60662L-8.930397,92.70386L-13.56769,75.63387Z"/>
<path fill="none" stroke="#B300B4" stroke-width="1" stroke-linecap="round" stroke-linejoin="round" d="M-13.56769,75.63387L-22.41201,71.37466L-26.22992,92.60662L-13.56769,75.63387Z"/>
<path fill="none" stroke="#B300B4" stroke-width="1" stroke-linecap="round" stroke-linejoin="round" d="M-26.22992,92.60662L-32.56633,84.98576L-22.41201,71.37466L-26.22992,92.60662Z"/>
<path fill="none" stroke="#B300B4" stroke-width="1" stroke-linecap="round" stroke-linejoin="round" d="M-22.41201,71.37466L-43.98416,71.25343L-32.56633,84.98576L-22.41201,71.37466Z"/>
<path fill="none" stroke="#B300B4" stroke-width="1" stroke-linecap="round" stroke-linejoin="round" d="M-42.28503,61.80432L-43.98416,71.25343L-22.41201,71.37466L-42.28503,61.80432Z"/>
<path fill="none" stroke="#B300B4" stroke-width="1" stroke-linecap="round" stroke-linejoin="round" d="M-43.98416,71.25343L-42.28503,61.80432L-58.22195,54.12949L-43.98416,71.25343Z"/>
<path fill="none" stroke="#B300B4" stroke-width="1" stroke-linecap="round" stroke-linejoin="round" d="M38.29736,123.6813L47.89787,123.7353L42.11527,102.4494L38.29736,123.6813Z"/>
<path fill="none" stroke="#B300B4" stroke-width="1" stroke-linecap="round" stroke-linejoin="round" d="M42.11527,102.4494L50.9596,106.7086L47.89787,123.7353L42.11527,102.4494Z"/>
<path fill="none" stroke="#B300B4" stroke-width="1" stroke-linecap="round" stroke-linejoin="round" d="M47.89787,123.7353L66.89651,114.3834L50.9596,106.7086L47.89787,123.7353Z"/>
<path fill="none" stroke="#B300B4" stroke-width="1" stroke-linecap="round" stroke-linejoin="round" d="M69.47002,123.8565L66.89651,114.3834L47.89787,123.7353L69.47002,123.8565Z"/>
<path fill="none" stroke="#B300B4" stroke-width="1" stroke-linecap="round" stroke-linejoin="round" d="M79.88989,162.2124L58.31775,162.0912L68.47207,148.4801L79.88989,162.2124Z"/>
<path fill="none" stroke="#B300B4" stroke-width="1" stroke-linecap="round" stroke-linejoin="round" d="M58.31775,162.0912L60.89125,171.5643L78.19076,171.6615L58.31775,162.0912Z"/>
<path fill="none" stroke="#B300B4" stroke-width="1" stroke-linecap="round" stroke-linejoin="round" d="M65.52853,188.6343L74.37285,192.8935L71.31113,209.9202L65.52853,188.6343Z"/>
<path fill="none" stroke="#B300B4" stroke-width="1" stroke-linecap="round" stroke-linejoin="round" d="M65.52853,188.6343L57.07333,192.7962L71.31113,209.9202L65.52853,188.6343Z"/>
<path fill="none" stroke="#B300B4" stroke-width="1" stroke-linecap="round" stroke-linejoin="round" d="M60.89125,171.5643L58.31775,162.0912L39.3191,171.4431L60.89125,171.5643Z"/>
<path fill="none" stroke="#B300B4" stroke-width="1" stroke-linecap="round" stroke-linejoin="round" d="M39.3191,171.4431L41.01823,161.994L58.31775,162.0912L39.3191,171.4431Z"/>
<path fill="none" stroke="#B300B4" stroke-width="1" stroke-linecap="round" stroke-linejoin="round" d="M39.3191,171.4431L41.01823,161.994L25.08131,154.3192L39.3191,171.4431Z"/>
<path fill="none" stroke="#B300B4" stroke-width="1" stroke-linecap="round" stroke-linejoin="round" d="M58.31775,162.0912L44.07996,144.9673L41.01823,161.994L58.31775,162.0912Z"/>
<path fill="none" stroke="#B300B4" stroke-width="1" stroke-linecap="round" stroke-linejoin="round" d="M92.88326,210.0414L90.79836,200.3278L71.31113,209.9202L92.88326,210.0414Z"/>
<path fill="none" stroke="#B300B4" stroke-width="1" stroke-linecap="round" stroke-linejoin="round" d="M90.79836,200.3278L92.88326,210.0414L110.1828,210.1386L90.79836,200.3278Z"/>
<path fill="none" stroke="#B300B4" stroke-width="1" stroke-linecap="round" stroke-linejoin="round" d="M118.7616,162.4309L112.4251,154.81L122.5795,141.1989L118.7616,162.4309Z"/>
<path fill="none" stroke="#B300B4" stroke-width="1" stroke-linecap="round" stroke-linejoin="round" d="M103.3032,248.3973L123.1762,257.9677L118.5389,240.8977L103.3032,248.3973Z"/>
<path fill="none" stroke="#B300B4" stroke-width="1" stroke-linecap="round" stroke-linejoin="round" d="M103.3032,248.3973L101.604,257.8464L123.1762,257.9677L103.3032,248.3973Z"/>
<path fill="none" stroke="#B300B4" stroke-width="1" stroke-linecap="round" stroke-linejoin="round" d="M123.1762,257.9677L117.5409,265.5212L101.604,257.8464L123.1762,257.9677Z"/>
<path fill="none" stroke="#B300B4" stroke-width="1" stroke-linecap="round" stroke-linejoin="round" d="M113.723,286.7532L122.1782,282.5912L117.5409,265.5212L113.723,286.7532Z"/>
<path fill="none" stroke="#B300B4" stroke-width="1" stroke-linecap="round" stroke-linejoin="round" d="M117.5409,265.5212L137.414,275.0916L122.1782,282.5912L117.5409,265.5212Z"/>
<path fill="none" stroke="#B300B4" stroke-width="1" stroke-linecap="round" stroke-linejoin="round" d="M117.5409,265.5212L123.1762,257.9677L137.414,275.0916L117.5409,265.5212Z"/>
<path fill="none" stroke="#B300B4" stroke-width="1" stroke-linecap="round" stroke-linejoin="round" d="M137.414,275.0916L139.1131,265.6425L123.1762,257.9677L137.414,275.0916Z"/>
<path fill="none" stroke="#B300B4" stroke-width="1" stroke-linecap="round" stroke-linejoin="round" d="M137.414,275.0916L139.1131,265.6425L156.4126,265.7397L137.414,275.0916Z"/>
<path fill="none" stroke="#B300B4" stroke-width="1" stroke-linecap="round" stroke-linejoin="round" d="M156.4126,265.7397L142.1748,248.6158L139.1131,265.6425L156.4126,265.7397Z"/>
<path fill="none" stroke="#B300B4" stroke-width="1" stroke-linecap="round" stroke-linejoin="round" d="M123.1762,257.9677L142.1748,248.6158L139.1131,265.6425L123.1762,257.9677Z"/>
<path fill="none" stroke="#B300B4" stroke-width="1" stroke-linecap="round" stroke-linejoin="round" d="M135.8384,240.9949L142.1748,248.6158L123.1762,257.9677L135.8384,240.9949Z"/>
<path fill="none" stroke="#B300B4" stroke-width="1" stroke-linecap="round" stroke-linejoin="round" d="M135.8384,240.9949L123.1762,257.9677L118.5389,240.8977L135.8384,240.9949Z"/>
<path fill="none" stroke="#B300B4" stroke-width="1" stroke-linecap="round" stroke-linejoin="round" d="M115.9654,231.4246L118.5389,240.8977L135.8384,240.9949L115.9654,231.4246Z"/>
<path fill="none" stroke="#B300B4" stroke-width="1" stroke-linecap="round" stroke-linejoin="round" d="M115.9654,231.4246L124.4206,227.2626L135.8384,240.9949L115.9654,231.4246Z"/>
<path fill="none" stroke="#B300B4" stroke-width="1" stroke-linecap="round" stroke-linejoin="round" d="M90.69556,219.731L92.88326,210.0414L110.1828,210.1386L90.69556,219.731Z"/>
<path fill="none" stroke="#B300B4" stroke-width="1" stroke-linecap="round" stroke-linejoin="round" d="M92.88326,210.0414L90.69556,219.731L71.31113,209.9202L92.88326,210.0414Z"/>
<path fill="none" stroke="#B300B4" stroke-width="1" stroke-linecap="round" stroke-linejoin="round" d="M30.46269,316.9974L33.03618,326.4705L17.80045,333.9701L30.46269,316.9974Z"/>
<path fill="none" stroke="#B300B4" stroke-width="1" stroke-linecap="round" stroke-linejoin="round" d="M12.01786,312.6842L21.61837,312.7382L17.80046,333.9701L12.01786,312.6842Z"/>
<path fill="none" stroke="#B300B4" stroke-width="1" stroke-linecap="round" stroke-linejoin="round" d="M30.4627,316.9974L21.61837,312.7382L17.80046,333.9701L30.4627,316.9974Z"/>
<path fill="none" stroke="#B300B4" stroke-width="1" stroke-linecap="round" stroke-linejoin="round" d="M21.61837,312.7382L12.01786,312.6842L7.380573,295.6142L21.61837,312.7382Z"/>
<path fill="none" stroke="#B300B4" stroke-width="1" stroke-linecap="round" stroke-linejoin="round" d="M21.61837,312.7382L23.3175,303.2891L7.380573,295.6142L21.61837,312.7382Z"/>
<path fill="none" stroke="#B300B4" stroke-width="1" stroke-linecap="round" stroke-linejoin="round" d="M21.61837,312.7382L23.3175,303.2891L40.61702,303.3863L21.61837,312.7382Z"/>
<path fill="none" stroke="#B300B4" stroke-width="1" stroke-linecap="round" stroke-linejoin="round" d="M21.61837,312.7382L30.4627,316.9974L40.61702,303.3863L21.61837,312.7382Z"/>
<path fill="none" stroke="#B300B4" stroke-width="1" stroke-linecap="round" stroke-linejoin="round" d="M15.95933,247.9065L9.622916,240.2856L-5.612811,247.7852L15.95933,247.9065Z"/>
<path fill="none" stroke="#B300B4" stroke-width="1" stroke-linecap="round" stroke-linejoin="round" d="M33.25885,248.0037L42.85936,248.0576L39.04146,269.2896L33.25885,248.0037Z"/>
<path fill="none" stroke="#B300B4" stroke-width="1" stroke-linecap="round" stroke-linejoin="round" d="M-1.428764,226.9936L-11.39542,226.4993L-16.03271,209.4293L-1.428764,226.9936Z"/>
<path fill="none" stroke="#B300B4" stroke-width="1" stroke-linecap="round" stroke-linejoin="round" d="M5.539433,209.5506L3.840305,218.9997L-16.03271,209.4293L5.539433,209.5506Z"/>
<path fill="none" stroke="#B300B4" stroke-width="1" stroke-linecap="round" stroke-linejoin="round" d="M-11.39542,226.4993L-1.428764,226.9936L-5.612814,247.7852L-11.39542,226.4993Z"/>
<path fill="none" stroke="#B300B4" stroke-width="1" stroke-linecap="round" stroke-linejoin="round" d="M3.840305,218.9997L5.539433,209.5506L22.83895,209.6478L3.840305,218.9997Z"/>
<path fill="none" stroke="#B300B4" stroke-width="1" stroke-linecap="round" stroke-linejoin="round" d="M52.31248,219.2721L54.0116,209.823L71.31113,209.9202L52.31248,219.2721Z"/>
<path fill="none" stroke="#B300B4" stroke-width="1" stroke-linecap="round" stroke-linejoin="round" d="M5.539438,209.5506L2.96594,200.0774L-16.03271,209.4293L5.539438,209.5506Z"/>
<path fill="none" stroke="#B300B4" stroke-width="1" stroke-linecap="round" stroke-linejoin="round" d="M-3.370473,192.4566L2.96594,200.0774L-16.03271,209.4293L-3.370473,192.4566Z"/>
<path fill="none" stroke="#B300B4" stroke-width="1" stroke-linecap="round" stroke-linejoin="round" d="M2.96594,200.0774L5.539438,209.5506L22.83896,209.6478L2.96594,200.0774Z"/>
<path fill="none" stroke="#B300B4" stroke-width="1" stroke-linecap="round" stroke-linejoin="round" d="M54.01161,209.823L51.43811,200.3498L32.43946,209.7017L54.01161,209.823Z"/>
<path fill="none" stroke="#B300B4" stroke-width="1" stroke-linecap="round" stroke-linejoin="round" d="M51.43811,200.3498L54.01161,209.823L71.31113,209.9202L51.43811,200.3498Z"/>
<path fill="none" stroke="#B300B4" stroke-width="1" stroke-linecap="round" stroke-linejoin="round" d="M51.43811,200.3498L57.07333,192.7962L71.31113,209.9202L51.43811,200.3498Z"/>
<path fill="none" stroke="#B300B4" stroke-width="1" stroke-linecap="round" stroke-linejoin="round" d="M57.07333,192.7962L51.43811,200.3498L35.50119,192.675L57.07333,192.7962Z"/>
<path fill="none" stroke="#B300B4" stroke-width="1" stroke-linecap="round" stroke-linejoin="round" d="M32.43946,209.7017L51.43811,200.3498L35.50119,192.675L32.43946,209.7017Z"/>
<path fill="none" stroke="#B300B4" stroke-width="1" stroke-linecap="round" stroke-linejoin="round" d="M-12.97098,192.4026L-3.370473,192.4566L-9.15307,171.1707L-12.97098,192.4026Z"/>
<path fill="none" stroke="#B300B4" stroke-width="1" stroke-linecap="round" stroke-linejoin="round" d="M-3.370473,192.4566L-12.97098,192.4026L-16.03271,209.4293L-3.370473,192.4566Z"/>
<path fill="none" stroke="#B300B4" stroke-width="1" stroke-linecap="round" stroke-linejoin="round" d="M0.7422829,14.83834L-9.635282,14.89449L-13.56771,-1.865194L0.7422829,14.83834Z"/>
<path fill="none" stroke="#B300B4" stroke-width="1" stroke-linecap="round" stroke-linejoin="round" d="M-13.56771,-1.865194L-27.32026,15.37996L-9.635282,14.89449L-13.56771,-1.865194Z"/>
<path fill="none" stroke="#B300B4" stroke-width="1" stroke-linecap="round" stroke-linejoin="round" d="M0.7422829,14.83834L3.927429,24.19991L-12.41934,32.0721L0.7422829,14.83834Z"/>
<path fill="none" stroke="#B300B4" stroke-width="1" stroke-linecap="round" stroke-linejoin="round" d="M0.7422829,14.83834L-9.635282,14.89449L-12.41934,32.0721L0.7422829,14.83834Z"/>
<path fill="none" stroke="#B300B4" stroke-width="1" stroke-linecap="round" stroke-linejoin="round" d="M-12.41934,32.0721L-27.32026,15.37996L-9.635282,14.89449L-12.41934,32.0721Z"/>
<path fill="none" stroke="#B300B4" stroke-width="1" stroke-linecap="round" stroke-linejoin="round" d="M-12.41934,32.0721L-21.49111,36.44083L-27.32026,15.37996L-12.41934,32.0721Z"/>
<path fill="none" stroke="#B300B4" stroke-width="1" stroke-linecap="round" stroke-linejoin="round" d="M-27.32026,15.37996L-33.44073,23.05478L-21.49111,36.44083L-27.32026,15.37996Z"/>
<path fill="none" stroke="#B300B4" stroke-width="1" stroke-linecap="round" stroke-linejoin="round" d="M-21.49111,36.44083L-44.46941,36.88432L-33.44073,23.05478L-21.49111,36.44083Z"/>
<path fill="none" stroke="#B300B4" stroke-width="1" stroke-linecap="round" stroke-linejoin="round" d="M-41.8752,46.25729L-44.46941,36.88432L-21.49111,36.44083L-41.8752,46.25729Z"/>
<path fill="none" stroke="#B300B4" stroke-width="1" stroke-linecap="round" stroke-linejoin="round" d="M-44.46941,36.88432L-41.8752,46.25729L-58.22196,54.12948L-44.46941,36.88432Z"/>
<path fill="none" stroke="#B300B4" stroke-width="1" stroke-linecap="round" stroke-linejoin="round" d="M9.638048,32.0721L3.927428,24.19991L-12.41934,32.0721L9.638048,32.0721Z"/>
<path fill="none" stroke="#B300B4" stroke-width="1" stroke-linecap="round" stroke-linejoin="round" d="M9.638048,32.0721L3.10774,39.94429L-12.41934,32.0721L9.638048,32.0721Z"/>
<path fill="none" stroke="#B300B4" stroke-width="1" stroke-linecap="round" stroke-linejoin="round" d="M-12.41934,32.0721L-8.65947,54.12949L3.10774,39.94429L-12.41934,32.0721Z"/>
<path fill="none" stroke="#B300B4" stroke-width="1" stroke-linecap="round" stroke-linejoin="round" d="M-12.41934,32.0721L-21.49111,36.44083L-8.65947,54.12949L-12.41934,32.0721Z"/>
<path fill="none" stroke="#B300B4" stroke-width="1" stroke-linecap="round" stroke-linejoin="round" d="M-8.65947,54.12949L-18.47593,54.12949L-21.49111,36.44083L-8.65947,54.12949Z"/>
<path fill="none" stroke="#B300B4" stroke-width="1" stroke-linecap="round" stroke-linejoin="round" d="M-21.49111,36.44083L-36.16458,54.12948L-18.47593,54.12949L-21.49111,36.44083Z"/>
<path fill="none" stroke="#B300B4" stroke-width="1" stroke-linecap="round" stroke-linejoin="round" d="M-41.87519,46.25729L-36.16458,54.12948L-21.49111,36.44083L-41.87519,46.25729Z"/>
<path fill="none" stroke="#B300B4" stroke-width="1" stroke-linecap="round" stroke-linejoin="round" d="M-36.16458,54.12948L-41.87519,46.25729L-58.22196,54.12948L-36.16458,54.12948Z"/>
<path fill="none" stroke="#B300B4" stroke-width="1" stroke-linecap="round" stroke-linejoin="round" d="M8.489691,75.63385L2.369227,83.30866L-13.5677,75.63385L8.489691,75.63385Z"/>
<path fill="none" stroke="#B300B4" stroke-width="1" stroke-linecap="round" stroke-linejoin="round" d="M8.489691,75.63385L2.369226,67.95903L-13.5677,75.63385L8.489691,75.63385Z"/>
<path fill="none" stroke="#B300B4" stroke-width="1" stroke-linecap="round" stroke-linejoin="round" d="M-13.5677,75.63385L-8.65947,54.12948L2.369226,67.95903L-13.5677,75.63385Z"/>
<path fill="none" stroke="#B300B4" stroke-width="1" stroke-linecap="round" stroke-linejoin="round" d="M-13.5677,75.63385L-22.41202,71.37465L-8.65947,54.12948L-13.5677,75.63385Z"/>
<path fill="none" stroke="#B300B4" stroke-width="1" stroke-linecap="round" stroke-linejoin="round" d="M-8.65947,54.12948L-18.47593,54.12949L-22.41202,71.37465L-8.65947,54.12948Z"/>
<path fill="none" stroke="#B300B4" stroke-width="1" stroke-linecap="round" stroke-linejoin="round" d="M-22.41202,71.37465L-36.16458,54.12949L-18.47593,54.12949L-22.41202,71.37465Z"/>
<path fill="none" stroke="#B300B4" stroke-width="1" stroke-linecap="round" stroke-linejoin="round" d="M-42.28504,61.80431L-36.16458,54.12949L-22.41202,71.37465L-42.28504,61.80431Z"/>
<path fill="none" stroke="#B300B4" stroke-width="1" stroke-linecap="round" stroke-linejoin="round" d="M-36.16458,54.12949L-42.28504,61.80431L-58.22196,54.12948L-36.16458,54.12949Z"/>
<path fill="none" stroke="#B300B4" stroke-width="1" stroke-linecap="round" stroke-linejoin="round" d="M10.00152,-2.320084L6.816374,-11.68165L-13.56771,-1.865192L10.00152,-2.320084Z"/>
<path fill="none" stroke="#B300B4" stroke-width="1" stroke-linecap="round" stroke-linejoin="round" d="M0.1848402,-19.11035L6.816374,-11.68165L-13.56771,-1.865192L0.1848402,-19.11035Z"/>
<path fill="none" stroke="#B300B4" stroke-width="1" stroke-linecap="round" stroke-linejoin="round" d="M6.816374,-11.68165L10.00152,-2.320084L27.83776,-2.664331L6.816374,-11.68165Z"/>
<path fill="none" stroke="#B300B4" stroke-width="1" stroke-linecap="round" stroke-linejoin="round" d="M6.816374,-11.68165L15.88815,-16.05038L27.83776,-2.664331L6.816374,-11.68165Z"/>
<path fill="none" stroke="#B300B4" stroke-width="1" stroke-linecap="round" stroke-linejoin="round" d="M27.83776,-2.664331L32.23492,-23.92257L15.88815,-16.05038L27.83776,-2.664331Z"/>
<path fill="none" stroke="#B300B4" stroke-width="1" stroke-linecap="round" stroke-linejoin="round" d="M6.816374,-11.68165L0.1848402,-19.11035L11.21354,-32.93989L6.816374,-11.68165Z"/>
<path fill="none" stroke="#B300B4" stroke-width="1" stroke-linecap="round" stroke-linejoin="round" d="M6.816374,-11.68165L15.88815,-16.05038L11.21354,-32.93989L6.816374,-11.68165Z"/>
<path fill="none" stroke="#B300B4" stroke-width="1" stroke-linecap="round" stroke-linejoin="round" d="M11.21354,-32.93989L32.23492,-23.92257L15.88815,-16.05038L11.21354,-32.93989Z"/>
<path fill="none" stroke="#B300B4" stroke-width="1" stroke-linecap="round" stroke-linejoin="round" d="M11.21354,-32.93989L17.33399,-40.6147L32.23492,-23.92257L11.21354,-32.93989Z"/>
<path fill="none" stroke="#B300B4" stroke-width="1" stroke-linecap="round" stroke-linejoin="round" d="M32.23492,-23.92257L34.19184,-33.38338L17.33399,-40.6147L32.23492,-23.92257Z"/>
<path fill="none" stroke="#B300B4" stroke-width="1" stroke-linecap="round" stroke-linejoin="round" d="M17.33399,-40.6147L37.71808,-50.43116L34.19184,-33.38338L17.33399,-40.6147Z"/>
<path fill="none" stroke="#B300B4" stroke-width="1" stroke-linecap="round" stroke-linejoin="round" d="M31.08655,-57.85986L37.71808,-50.43116L17.33399,-40.6147L31.08655,-57.85986Z"/>
<path fill="none" stroke="#B300B4" stroke-width="1" stroke-linecap="round" stroke-linejoin="round" d="M37.71808,-50.43116L31.08655,-57.85986L42.11524,-71.6894L37.71808,-50.43116Z"/>
<path fill="none" stroke="#B300B4" stroke-width="1" stroke-linecap="round" stroke-linejoin="round" d="M37.71809,-50.43116L47.3071,-50.32162L42.11525,-71.6894L37.71809,-50.43116Z"/>
<path fill="none" stroke="#B300B4" stroke-width="1" stroke-linecap="round" stroke-linejoin="round" d="M55.8678,-54.44424L47.3071,-50.32162L42.11525,-71.6894L55.8678,-54.44424Z"/>
<path fill="none" stroke="#B300B4" stroke-width="1" stroke-linecap="round" stroke-linejoin="round" d="M47.3071,-50.32162L37.71809,-50.43116L34.19184,-33.38338L47.3071,-50.32162Z"/>
<path fill="none" stroke="#B300B4" stroke-width="1" stroke-linecap="round" stroke-linejoin="round" d="M47.3071,-50.32162L49.61769,-40.81207L34.19184,-33.38338L47.3071,-50.32162Z"/>
<path fill="none" stroke="#B300B4" stroke-width="1" stroke-linecap="round" stroke-linejoin="round" d="M34.19184,-33.38338L53.78123,-23.67645L49.61769,-40.81207L34.19184,-33.38338Z"/>
<path fill="none" stroke="#B300B4" stroke-width="1" stroke-linecap="round" stroke-linejoin="round" d="M34.19184,-33.38338L32.23492,-23.92257L53.78123,-23.67645L34.19184,-33.38338Z"/>
<path fill="none" stroke="#B300B4" stroke-width="1" stroke-linecap="round" stroke-linejoin="round" d="M53.78123,-23.67645L47.94439,-16.13822L32.23492,-23.92257L53.78123,-23.67645Z"/>
<path fill="none" stroke="#B300B4" stroke-width="1" stroke-linecap="round" stroke-linejoin="round" d="M27.83776,-2.664332L37.42677,-2.554795L32.23492,-23.92257L27.83776,-2.664332Z"/>
<path fill="none" stroke="#B300B4" stroke-width="1" stroke-linecap="round" stroke-linejoin="round" d="M32.23492,-23.92257L37.42677,-2.554795L47.94439,-16.13822L32.23492,-23.92257Z"/>
<path fill="none" stroke="#B300B4" stroke-width="1" stroke-linecap="round" stroke-linejoin="round" d="M47.94439,-16.13822L53.78123,-23.67645L67.53378,-6.431287L47.94439,-16.13822Z"/>
<path fill="none" stroke="#B300B4" stroke-width="1" stroke-linecap="round" stroke-linejoin="round" d="M67.53378,-6.431287L69.4907,-15.89209L53.78123,-23.67645L67.53378,-6.431287Z"/>
<path fill="none" stroke="#B300B4" stroke-width="1" stroke-linecap="round" stroke-linejoin="round" d="M67.53378,-6.431287L69.4907,-15.89209L86.7695,-15.69471L67.53378,-6.431287Z"/>
<path fill="none" stroke="#B300B4" stroke-width="1" stroke-linecap="round" stroke-linejoin="round" d="M86.7695,-15.69471L73.01695,-32.93987L69.4907,-15.89209L86.7695,-15.69471Z"/>
<path fill="none" stroke="#B300B4" stroke-width="1" stroke-linecap="round" stroke-linejoin="round" d="M53.78123,-23.67645L73.01695,-32.93987L69.4907,-15.89209L53.78123,-23.67645Z"/>
<path fill="none" stroke="#B300B4" stroke-width="1" stroke-linecap="round" stroke-linejoin="round" d="M66.89648,-40.61469L73.01695,-32.93987L53.78123,-23.67645L66.89648,-40.61469Z"/>
<path fill="none" stroke="#B300B4" stroke-width="1" stroke-linecap="round" stroke-linejoin="round" d="M66.89648,-40.61469L53.78123,-23.67645L49.61769,-40.81207L66.89648,-40.61469Z"/>
<path fill="none" stroke="#B300B4" stroke-width="1" stroke-linecap="round" stroke-linejoin="round" d="M47.3071,-50.32162L49.61769,-40.81207L66.89648,-40.61469L47.3071,-50.32162Z"/>
<path fill="none" stroke="#B300B4" stroke-width="1" stroke-linecap="round" stroke-linejoin="round" d="M47.3071,-50.32162L55.8678,-54.44424L66.89648,-40.61469L47.3071,-50.32162Z"/>
<path fill="none" stroke="#B300B4" stroke-width="1" stroke-linecap="round" stroke-linejoin="round" d="M36.77469,31.75731L44.8391,36.88433L55.8678,23.05479L36.77469,31.75731Z"/>
<path fill="none" stroke="#B300B4" stroke-width="1" stroke-linecap="round" stroke-linejoin="round" d="M67.53378,-6.431284L75.74081,-1.865175L86.7695,-15.69471L67.53378,-6.431284Z"/>
<path fill="none" stroke="#B300B4" stroke-width="1" stroke-linecap="round" stroke-linejoin="round" d="M51.47064,44.31304L44.83911,36.88434L55.8678,23.05479L51.47064,44.31304Z"/>
<path fill="none" stroke="#B300B4" stroke-width="1" stroke-linecap="round" stroke-linejoin="round" d="M51.47064,44.31304L60.50508,40.12477L55.8678,23.05479L51.47064,44.31304Z"/>
<path fill="none" stroke="#B300B4" stroke-width="1" stroke-linecap="round" stroke-linejoin="round" d="M55.8678,23.05479L75.74081,32.62514L60.50508,40.12477L55.8678,23.05479Z"/>
<path fill="none" stroke="#B300B4" stroke-width="1" stroke-linecap="round" stroke-linejoin="round" d="M111.5508,15.37999L117.6712,23.05481L97.7982,32.62514L111.5508,15.37999Z"/>
<path fill="none" stroke="#B300B4" stroke-width="1" stroke-linecap="round" stroke-linejoin="round" d="M97.7982,32.62514L106.6425,36.88435L117.6712,23.05481L97.7982,32.62514Z"/>
<path fill="none" stroke="#B300B4" stroke-width="1" stroke-linecap="round" stroke-linejoin="round" d="M131.4238,40.29997L122.5795,44.55917L117.6712,23.05481L131.4238,40.29997Z"/>
<path fill="none" stroke="#B300B4" stroke-width="1" stroke-linecap="round" stroke-linejoin="round" d="M122.5795,44.55917L131.4238,40.29997L142.4525,54.12951L122.5795,44.55917Z"/>
<path fill="none" stroke="#B300B4" stroke-width="1" stroke-linecap="round" stroke-linejoin="round" d="M122.5795,44.55917L120.3951,54.1295L142.4525,54.12951L122.5795,44.55917Z"/>
<path fill="none" stroke="#B300B4" stroke-width="1" stroke-linecap="round" stroke-linejoin="round" d="M120.3951,54.1295L122.5795,44.55917L106.6425,36.88435L120.3951,54.1295Z"/>
<path fill="none" stroke="#B300B4" stroke-width="1" stroke-linecap="round" stroke-linejoin="round" d="M120.3951,54.1295L110.5786,54.1295L106.6425,36.88435L120.3951,54.1295Z"/>
<path fill="none" stroke="#B300B4" stroke-width="1" stroke-linecap="round" stroke-linejoin="round" d="M117.6712,23.05481L122.5795,44.55917L106.6425,36.88435L117.6712,23.05481Z"/>
<path fill="none" stroke="#B300B4" stroke-width="1" stroke-linecap="round" stroke-linejoin="round" d="M77.92519,23.0548L75.74081,32.62514L97.7982,32.62514L77.92519,23.0548Z"/>
<path fill="none" stroke="#B300B4" stroke-width="1" stroke-linecap="round" stroke-linejoin="round" d="M36.12101,76.18687L44.83911,71.37465L55.86782,85.2042L36.12101,76.18687Z"/>
<path fill="none" stroke="#B300B4" stroke-width="1" stroke-linecap="round" stroke-linejoin="round" d="M36.12101,76.18687L38.19392,85.92679L55.86782,85.2042L36.12101,76.18687Z"/>
<path fill="none" stroke="#B300B4" stroke-width="1" stroke-linecap="round" stroke-linejoin="round" d="M51.47065,63.94595L44.83912,71.37465L55.86782,85.2042L51.47065,63.94595Z"/>
<path fill="none" stroke="#B300B4" stroke-width="1" stroke-linecap="round" stroke-linejoin="round" d="M51.47065,63.94595L60.50509,68.13422L55.86782,85.2042L51.47065,63.94595Z"/>
<path fill="none" stroke="#B300B4" stroke-width="1" stroke-linecap="round" stroke-linejoin="round" d="M55.86782,85.2042L75.74083,75.63387L60.50509,68.13422L55.86782,85.2042Z"/>
<path fill="none" stroke="#B300B4" stroke-width="1" stroke-linecap="round" stroke-linejoin="round" d="M97.79821,75.63386L106.6425,71.37466L117.6712,85.20421L97.79821,75.63386Z"/>
<path fill="none" stroke="#B300B4" stroke-width="1" stroke-linecap="round" stroke-linejoin="round" d="M131.4238,67.95905L122.5795,63.69984L117.6712,85.20421L131.4238,67.95905Z"/>
<path fill="none" stroke="#B300B4" stroke-width="1" stroke-linecap="round" stroke-linejoin="round" d="M122.5795,63.69984L131.4238,67.95905L142.4525,54.12951L122.5795,63.69984Z"/>
<path fill="none" stroke="#B300B4" stroke-width="1" stroke-linecap="round" stroke-linejoin="round" d="M122.5795,63.69984L120.3951,54.1295L142.4525,54.12951L122.5795,63.69984Z"/>
<path fill="none" stroke="#B300B4" stroke-width="1" stroke-linecap="round" stroke-linejoin="round" d="M120.3951,54.1295L122.5795,63.69984L106.6425,71.37466L120.3951,54.1295Z"/>
<path fill="none" stroke="#B300B4" stroke-width="1" stroke-linecap="round" stroke-linejoin="round" d="M120.3951,54.1295L110.5786,54.1295L106.6425,71.37466L120.3951,54.1295Z"/>
<path fill="none" stroke="#B300B4" stroke-width="1" stroke-linecap="round" stroke-linejoin="round" d="M117.6712,85.20421L122.5795,63.69984L106.6425,71.37466L117.6712,85.20421Z"/>
<path fill="none" stroke="#B300B4" stroke-width="1" stroke-linecap="round" stroke-linejoin="round" d="M122.5795,141.1989L109.3942,123.9537L126.5155,123.9537L122.5795,141.1989Z"/>
<path fill="none" stroke="#B300B4" stroke-width="1" stroke-linecap="round" stroke-linejoin="round" d="M106.6425,114.3834L109.3942,123.9537L126.5155,123.9537L106.6425,114.3834Z"/>
<path fill="none" stroke="#B300B4" stroke-width="1" stroke-linecap="round" stroke-linejoin="round" d="M106.6425,114.3834L115.4869,110.1242L126.5155,123.9537L106.6425,114.3834Z"/>
<path fill="none" stroke="#B300B4" stroke-width="1" stroke-linecap="round" stroke-linejoin="round" d="M126.5155,123.9537L131.4238,102.4494L115.4869,110.1242L126.5155,123.9537Z"/>
<path fill="none" stroke="#B300B4" stroke-width="1" stroke-linecap="round" stroke-linejoin="round" d="M106.6425,114.3834L115.4869,110.1242L111.5508,92.87903L106.6425,114.3834Z"/>
<path fill="none" stroke="#B300B4" stroke-width="1" stroke-linecap="round" stroke-linejoin="round" d="M111.5508,92.87903L131.4238,102.4494L115.4869,110.1242L111.5508,92.87903Z"/>
<path fill="none" stroke="#B300B4" stroke-width="1" stroke-linecap="round" stroke-linejoin="round" d="M111.5508,92.87903L117.6712,85.20422L131.4238,102.4494L111.5508,92.87903Z"/>
<path fill="none" stroke="#B300B4" stroke-width="1" stroke-linecap="round" stroke-linejoin="round" d="M131.4238,102.4494L133.6082,92.87904L117.6712,85.20422L131.4238,102.4494Z"/>
<path fill="none" stroke="#B300B4" stroke-width="1" stroke-linecap="round" stroke-linejoin="round" d="M117.6712,85.20422L137.5443,75.63387L133.6082,92.87904L117.6712,85.20422Z"/>
<path fill="none" stroke="#B300B4" stroke-width="1" stroke-linecap="round" stroke-linejoin="round" d="M131.4238,67.95905L137.5443,75.63387L117.6712,85.20422L131.4238,67.95905Z"/>
<path fill="none" stroke="#B300B4" stroke-width="1" stroke-linecap="round" stroke-linejoin="round" d="M137.5443,75.63387L131.4238,67.95905L142.4525,54.12951L137.5443,75.63387Z"/>
<path fill="none" stroke="#B300B4" stroke-width="1" stroke-linecap="round" stroke-linejoin="round" d="M109.3941,-15.69472L102.7064,-23.36953L86.76952,-15.69471L109.3941,-15.69472Z"/>
<path fill="none" stroke="#B300B4" stroke-width="1" stroke-linecap="round" stroke-linejoin="round" d="M109.3941,-15.69472L106.6425,-6.124372L86.76952,-15.69471L109.3941,-15.69472Z"/>
<path fill="none" stroke="#B300B4" stroke-width="1" stroke-linecap="round" stroke-linejoin="round" d="M102.7064,-23.36953L109.3941,-15.69472L122.5795,-32.93987L102.7064,-23.36953Z"/>
<path fill="none" stroke="#B300B4" stroke-width="1" stroke-linecap="round" stroke-linejoin="round" d="M122.5795,-32.93987L109.3941,-15.69472L126.5155,-15.69471L122.5795,-32.93987Z"/>
<path fill="none" stroke="#B300B4" stroke-width="1" stroke-linecap="round" stroke-linejoin="round" d="M106.6425,-6.124372L109.3941,-15.69472L126.5155,-15.69471L106.6425,-6.124372Z"/>
<path fill="none" stroke="#B300B4" stroke-width="1" stroke-linecap="round" stroke-linejoin="round" d="M106.6425,-6.124372L115.4869,-1.865168L126.5155,-15.69471L106.6425,-6.124372Z"/>
<path fill="none" stroke="#B300B4" stroke-width="1" stroke-linecap="round" stroke-linejoin="round" d="M126.5155,-15.69471L131.4238,5.809652L115.4869,-1.865168L126.5155,-15.69471Z"/>
<path fill="none" stroke="#B300B4" stroke-width="1" stroke-linecap="round" stroke-linejoin="round" d="M111.5508,15.38L131.4238,5.809652L115.4869,-1.865168L111.5508,15.38Z"/>
<path fill="none" stroke="#B300B4" stroke-width="1" stroke-linecap="round" stroke-linejoin="round" d="M111.5508,15.38L117.6712,23.05482L131.4238,5.809652L111.5508,15.38Z"/>
<path fill="none" stroke="#B300B4" stroke-width="1" stroke-linecap="round" stroke-linejoin="round" d="M131.4238,5.809652L133.6082,15.38L117.6712,23.05482L131.4238,5.809652Z"/>
<path fill="none" stroke="#B300B4" stroke-width="1" stroke-linecap="round" stroke-linejoin="round" d="M117.6712,23.05482L137.5443,32.62516L133.6082,15.38L117.6712,23.05482Z"/>
<path fill="none" stroke="#B300B4" stroke-width="1" stroke-linecap="round" stroke-linejoin="round" d="M131.4238,40.29998L137.5443,32.62516L117.6712,23.05482L131.4238,40.29998Z"/>
<path fill="none" stroke="#B300B4" stroke-width="1" stroke-linecap="round" stroke-linejoin="round" d="M137.5443,32.62516L131.4238,40.29998L142.4525,54.12953L137.5443,32.62516Z"/>
</g>
</svg>
