<!DOCTYPE svg PUBLIC "-//W3C//DTD SVG 1.1//EN" "http://www.w3.org/Graphics/SVG/1.1/DTD/svg11.dtd" >
<svg version="1.1" xmlns="http://www.w3.org/2000/svg" xmlns:xlink="http://www.w3.org/1999/xlink" xml:space="preserve" width="152" height="839">
<g>
<path fill="none" stroke="#9005D2" stroke-width="1" stroke-linecap="round" stroke-linejoin="round" d="M-1162.61,1008.197L-284.2664,-461.1612L-141.1151,900.833L-1162.61,1008.197Z"/>
<path fill="none" stroke="#9005D2" stroke-width="1" stroke-linecap="round" stroke-linejoin="round" d="M421.0252,-39.55589L1674.877,709.9646L512.6421,832.1204L421.0252,-39.55589Z"/>
</g>
<g>
<path fill="none" stroke="#5BFC39" stroke-width="1" stroke-linecap="round" stroke-linejoin="round" d="M-284.2664,-461.1612L-232.7319,29.15677L-30.36144,-309.3833L-284.2664,-461.1612Z"/>
<path fill="none" stroke="#5BFC39" stroke-width="1" stroke-linecap="round" stroke-linejoin="round" d="M132.1378,-212.2454L-159.8786,-92.71765L-30.36144,-309.3833L132.1378,-212.2454Z"/>
<path fill="none" stroke="#5BFC39" stroke-width="1" stroke-linecap="round" stroke-linejoin="round" d="M-141.1151,900.833L-174.0972,587.0295L-2.362991,772.0324L-141.1151,900.833Z"/>
<path fill="none" stroke="#5BFC39" stroke-width="1" stroke-linecap="round" stroke-linejoin="round" d="M-2.362991,772.0324L72.57323,358.0506L-174.0972,587.0295L-2.362991,772.0324Z"/>
<path fill="none" stroke="#5BFC39" stroke-width="1" stroke-linecap="round" stroke-linejoin="round" d="M-174.0972,587.0295L-232.7319,29.15679L72.57323,358.0506L-174.0972,587.0295Z"/>
<path fill="none" stroke="#5BFC39" stroke-width="1" stroke-linecap="round" stroke-linejoin="round" d="M421.0252,-39.55589L454.0073,274.2476L282.2731,89.24475L421.0252,-39.55589Z"/>
<path fill="none" stroke="#5BFC39" stroke-width="1" stroke-linecap="round" stroke-linejoin="round" d="M207.3369,503.2265L282.2731,89.24475L35.60271,318.2237L207.3369,503.2265Z"/>
<path fill="none" stroke="#5BFC39" stroke-width="1" stroke-linecap="round" stroke-linejoin="round" d="M282.2731,89.24475L207.3369,503.2265L454.0073,274.2476L282.2731,89.24475Z"/>
<path fill="none" stroke="#5BFC39" stroke-width="1" stroke-linecap="round" stroke-linejoin="round" d="M454.0073,274.2476L512.6421,832.1204L207.3369,503.2265L454.0073,274.2476Z"/>
</g>
<g>
<path fill="none" stroke="#B300B4" stroke-width="1" stroke-linecap="round" stroke-linejoin="round" d="M-232.7319,29.15677L-159.8786,-92.71765L-148.005,20.25161L-232.7319,29.15677Z"/>
<path fill="none" stroke="#B300B4" stroke-width="1" stroke-linecap="round" stroke-linejoin="round" d="M-159.8786,-92.71765L-101.3788,-57.74802L-155.6041,-52.04871L-159.8786,-92.71765Z"/>
<path fill="none" stroke="#B300B4" stroke-width="1" stroke-linecap="round" stroke-linejoin="round" d="M-93.77976,14.55231L-155.6041,-52.04871L-148.005,20.25161L-93.77976,14.55231Z"/>
<path fill="none" stroke="#B300B4" stroke-width="1" stroke-linecap="round" stroke-linejoin="round" d="M-155.6041,-52.04871L-93.77976,14.55231L-101.3788,-57.74802L-155.6041,-52.04871Z"/>
<path fill="none" stroke="#B300B4" stroke-width="1" stroke-linecap="round" stroke-linejoin="round" d="M12.5279,-163.2868L-18.03375,-46.04021L-54.75267,-135.7476L12.5279,-163.2868Z"/>
<path fill="none" stroke="#B300B4" stroke-width="1" stroke-linecap="round" stroke-linejoin="round" d="M-18.03375,-46.04021L12.5279,-163.2868L49.24683,-73.57941L-18.03375,-46.04021Z"/>
<path fill="none" stroke="#B300B4" stroke-width="1" stroke-linecap="round" stroke-linejoin="round" d="M49.24683,-73.57941L132.1378,-212.2454L12.5279,-163.2868L49.24683,-73.57941Z"/>
<path fill="none" stroke="#B300B4" stroke-width="1" stroke-linecap="round" stroke-linejoin="round" d="M132.1378,-212.2454L236.1373,-150.0772L139.7368,-139.9451L132.1378,-212.2454Z"/>
<path fill="none" stroke="#B300B4" stroke-width="1" stroke-linecap="round" stroke-linejoin="round" d="M249.6467,-21.54328L139.7368,-139.9451L153.2463,-11.41119L249.6467,-21.54328Z"/>
<path fill="none" stroke="#B300B4" stroke-width="1" stroke-linecap="round" stroke-linejoin="round" d="M139.7368,-139.9451L249.6467,-21.54328L236.1373,-150.0772L139.7368,-139.9451Z"/>
<path fill="none" stroke="#B300B4" stroke-width="1" stroke-linecap="round" stroke-linejoin="round" d="M236.1373,-150.0772L421.0252,-39.5559L249.6467,-21.54328L236.1373,-150.0772Z"/>
<path fill="none" stroke="#B300B4" stroke-width="1" stroke-linecap="round" stroke-linejoin="round" d="M512.6421,832.1204L244.3074,543.0535L277.2895,856.8569L512.6421,832.1204Z"/>
<path fill="none" stroke="#B300B4" stroke-width="1" stroke-linecap="round" stroke-linejoin="round" d="M126.6638,872.6884L256.181,656.0227L277.2895,856.8569L126.6638,872.6884Z"/>
<path fill="none" stroke="#B300B4" stroke-width="1" stroke-linecap="round" stroke-linejoin="round" d="M72.57323,358.0506L244.3074,543.0535L45.59619,507.084L72.57323,358.0506Z"/>
<path fill="none" stroke="#B300B4" stroke-width="1" stroke-linecap="round" stroke-linejoin="round" d="M244.3074,543.0535L155.5061,625.4859L172.7714,530.1045L244.3074,543.0535Z"/>
<path fill="none" stroke="#B300B4" stroke-width="1" stroke-linecap="round" stroke-linejoin="round" d="M35.60271,318.2237L174.3548,189.423L23.72916,205.2544L35.60271,318.2237Z"/>
<path fill="none" stroke="#B300B4" stroke-width="1" stroke-linecap="round" stroke-linejoin="round" d="M174.3548,189.423L421.0252,-39.55589L153.2463,-11.41118L174.3548,189.423Z"/>
</g>
<g>
<path fill="none" stroke="#3AFC5A" stroke-width="1" stroke-linecap="round" stroke-linejoin="round" d="M-101.3788,-57.74802L-93.77976,14.55231L-63.93901,-35.36745L-101.3788,-57.74802Z"/>
<path fill="none" stroke="#3AFC5A" stroke-width="1" stroke-linecap="round" stroke-linejoin="round" d="M-93.77976,14.55231L-59.07561,10.90476L-83.03709,-3.418807L-93.77976,14.55231Z"/>
<path fill="none" stroke="#3AFC5A" stroke-width="1" stroke-linecap="round" stroke-linejoin="round" d="M-39.97754,-21.04389L-83.03709,-3.418807L-63.93901,-35.36745L-39.97754,-21.04389Z"/>
<path fill="none" stroke="#3AFC5A" stroke-width="1" stroke-linecap="round" stroke-linejoin="round" d="M-83.03709,-3.418807L-39.97754,-21.04389L-59.07561,10.90476L-83.03709,-3.418807Z"/>
<path fill="none" stroke="#3AFC5A" stroke-width="1" stroke-linecap="round" stroke-linejoin="round" d="M-159.8786,-92.71765L-54.75267,-135.7476L-101.3788,-57.74802L-159.8786,-92.71765Z"/>
<path fill="none" stroke="#3AFC5A" stroke-width="1" stroke-linecap="round" stroke-linejoin="round" d="M-54.75267,-135.7476L-34.09827,-85.28721L-71.53809,-107.6678L-54.75267,-135.7476Z"/>
<path fill="none" stroke="#3AFC5A" stroke-width="1" stroke-linecap="round" stroke-linejoin="round" d="M-63.93902,-35.36745L-71.53809,-107.6678L-101.3788,-57.74802L-63.93902,-35.36745Z"/>
<path fill="none" stroke="#3AFC5A" stroke-width="1" stroke-linecap="round" stroke-linejoin="round" d="M-71.53809,-107.6678L-63.93902,-35.36745L-34.09827,-85.28721L-71.53809,-107.6678Z"/>
<path fill="none" stroke="#3AFC5A" stroke-width="1" stroke-linecap="round" stroke-linejoin="round" d="M-18.03375,-46.04021L6.187263,-55.95433L-4.55541,-37.98321L-18.03375,-46.04021Z"/>
<path fill="none" stroke="#3AFC5A" stroke-width="1" stroke-linecap="round" stroke-linejoin="round" d="M30.14875,-41.63077L-4.55541,-37.98321L19.40608,-23.65965L30.14875,-41.63077Z"/>
<path fill="none" stroke="#3AFC5A" stroke-width="1" stroke-linecap="round" stroke-linejoin="round" d="M-4.55541,-37.98321L30.14875,-41.63077L6.187263,-55.95433L-4.55541,-37.98321Z"/>
<path fill="none" stroke="#3AFC5A" stroke-width="1" stroke-linecap="round" stroke-linejoin="round" d="M6.187263,-55.95433L49.24683,-73.57941L30.14875,-41.63077L6.187263,-55.95433Z"/>
<path fill="none" stroke="#3AFC5A" stroke-width="1" stroke-linecap="round" stroke-linejoin="round" d="M153.2463,-11.41119L145.6472,-83.71152L115.8065,-33.79175L153.2463,-11.41119Z"/>
<path fill="none" stroke="#3AFC5A" stroke-width="1" stroke-linecap="round" stroke-linejoin="round" d="M79.08757,-123.4992L115.8065,-33.79175L49.24683,-73.57941L79.08757,-123.4992Z"/>
<path fill="none" stroke="#3AFC5A" stroke-width="1" stroke-linecap="round" stroke-linejoin="round" d="M115.8065,-33.79175L79.08757,-123.4992L145.6472,-83.71152L115.8065,-33.79175Z"/>
<path fill="none" stroke="#3AFC5A" stroke-width="1" stroke-linecap="round" stroke-linejoin="round" d="M145.6472,-83.71152L132.1378,-212.2454L79.08757,-123.4992L145.6472,-83.71152Z"/>
<path fill="none" stroke="#3AFC5A" stroke-width="1" stroke-linecap="round" stroke-linejoin="round" d="M244.3074,543.0535L256.181,656.0227L194.3567,589.4217L244.3074,543.0535Z"/>
<path fill="none" stroke="#3AFC5A" stroke-width="1" stroke-linecap="round" stroke-linejoin="round" d="M256.181,656.0227L201.9557,661.722L233.9242,632.0463L256.181,656.0227Z"/>
<path fill="none" stroke="#3AFC5A" stroke-width="1" stroke-linecap="round" stroke-linejoin="round" d="M162.3882,619.0974L233.9242,632.0463L194.3567,589.4217L162.3882,619.0974Z"/>
<path fill="none" stroke="#3AFC5A" stroke-width="1" stroke-linecap="round" stroke-linejoin="round" d="M233.9242,632.0463L162.3882,619.0974L201.9557,661.722L233.9242,632.0463Z"/>
<path fill="none" stroke="#3AFC5A" stroke-width="1" stroke-linecap="round" stroke-linejoin="round" d="M179.7141,783.9421L142.9951,694.2347L209.5548,734.0223L179.7141,783.9421Z"/>
<path fill="none" stroke="#3AFC5A" stroke-width="1" stroke-linecap="round" stroke-linejoin="round" d="M142.9951,694.2347L179.7141,783.9421L113.1544,744.1545L142.9951,694.2347Z"/>
<path fill="none" stroke="#3AFC5A" stroke-width="1" stroke-linecap="round" stroke-linejoin="round" d="M30.26339,882.8204L-141.1151,900.833L-40.07892,807.0433L30.26339,882.8204Z"/>
<path fill="none" stroke="#3AFC5A" stroke-width="1" stroke-linecap="round" stroke-linejoin="round" d="M28.33088,602.4655L45.59619,507.084L80.32946,576.4155L28.33088,602.4655Z"/>
<path fill="none" stroke="#3AFC5A" stroke-width="1" stroke-linecap="round" stroke-linejoin="round" d="M45.59619,507.084L91.37926,515.3714L58.10017,532.0433L45.59619,507.084Z"/>
<path fill="none" stroke="#3AFC5A" stroke-width="1" stroke-linecap="round" stroke-linejoin="round" d="M113.6086,559.7435L58.10017,532.0433L80.32946,576.4155L113.6086,559.7435Z"/>
<path fill="none" stroke="#3AFC5A" stroke-width="1" stroke-linecap="round" stroke-linejoin="round" d="M58.10017,532.0433L113.6086,559.7435L91.37926,515.3714L58.10017,532.0433Z"/>
<path fill="none" stroke="#3AFC5A" stroke-width="1" stroke-linecap="round" stroke-linejoin="round" d="M28.33088,602.4655L17.28109,663.5096L53.65412,629.7452L28.33088,602.4655Z"/>
<path fill="none" stroke="#3AFC5A" stroke-width="1" stroke-linecap="round" stroke-linejoin="round" d="M62.30017,712.007L53.65412,629.7452L98.67321,678.2426L62.30017,712.007Z"/>
<path fill="none" stroke="#3AFC5A" stroke-width="1" stroke-linecap="round" stroke-linejoin="round" d="M53.65412,629.7452L62.30017,712.007L17.28109,663.5096L53.65412,629.7452Z"/>
<path fill="none" stroke="#3AFC5A" stroke-width="1" stroke-linecap="round" stroke-linejoin="round" d="M17.28109,663.5096L-2.362986,772.0324L62.30017,712.007L17.28109,663.5096Z"/>
<path fill="none" stroke="#3AFC5A" stroke-width="1" stroke-linecap="round" stroke-linejoin="round" d="M-74.30714,199.8219L-47.33013,50.78844L-136.1315,133.2209L-74.30714,199.8219Z"/>
<path fill="none" stroke="#3AFC5A" stroke-width="1" stroke-linecap="round" stroke-linejoin="round" d="M14.49418,117.3895L35.60271,318.2237L-74.30714,199.8219L14.49418,117.3895Z"/>
<path fill="none" stroke="#3AFC5A" stroke-width="1" stroke-linecap="round" stroke-linejoin="round" d="M23.72917,205.2544L174.3548,189.423L70.35533,127.2548L23.72917,205.2544Z"/>
<path fill="none" stroke="#3AFC5A" stroke-width="1" stroke-linecap="round" stroke-linejoin="round" d="M174.3548,189.423L166.7558,117.1227L136.915,167.0425L174.3548,189.423Z"/>
</g>
<g>
<path fill="none" stroke="#D10492" stroke-width="1" stroke-linecap="round" stroke-linejoin="round" d="M-59.07561,10.90476L-39.97754,-21.04389L-36.86496,8.570322L-59.07561,10.90476Z"/>
<path fill="none" stroke="#D10492" stroke-width="1" stroke-linecap="round" stroke-linejoin="round" d="M-39.97754,-21.04389L-24.64219,-11.87681L-38.85701,-10.38277L-39.97754,-21.04389Z"/>
<path fill="none" stroke="#D10492" stroke-width="1" stroke-linecap="round" stroke-linejoin="round" d="M-22.65014,7.076283L-38.85701,-10.38277L-36.86496,8.570322L-22.65014,7.076283Z"/>
<path fill="none" stroke="#D10492" stroke-width="1" stroke-linecap="round" stroke-linejoin="round" d="M-38.85701,-10.38277L-22.65014,7.076283L-24.64219,-11.87681L-38.85701,-10.38277Z"/>
<path fill="none" stroke="#D10492" stroke-width="1" stroke-linecap="round" stroke-linejoin="round" d="M-34.09827,-85.28721L-63.93902,-35.36745L-20.87946,-52.99253L-34.09827,-85.28721Z"/>
<path fill="none" stroke="#D10492" stroke-width="1" stroke-linecap="round" stroke-linejoin="round" d="M-63.93902,-35.36745L-39.97754,-21.04389L-48.43758,-41.71248L-63.93902,-35.36745Z"/>
<path fill="none" stroke="#D10492" stroke-width="1" stroke-linecap="round" stroke-linejoin="round" d="M-12.41942,-32.32394L-48.43758,-41.71248L-20.87946,-52.99253L-12.41942,-32.32394Z"/>
<path fill="none" stroke="#D10492" stroke-width="1" stroke-linecap="round" stroke-linejoin="round" d="M-48.43758,-41.71248L-12.41942,-32.32394L-39.97754,-21.04389L-48.43758,-41.71248Z"/>
<path fill="none" stroke="#D10492" stroke-width="1" stroke-linecap="round" stroke-linejoin="round" d="M19.40608,-23.65965L5.927739,-31.71666L10.68651,-20.09057L19.40608,-23.65965Z"/>
<path fill="none" stroke="#D10492" stroke-width="1" stroke-linecap="round" stroke-linejoin="round" d="M-9.573707,-25.37162L10.68651,-20.09057L-4.814931,-13.74554L-9.573707,-25.37162Z"/>
<path fill="none" stroke="#D10492" stroke-width="1" stroke-linecap="round" stroke-linejoin="round" d="M10.68651,-20.09057L-9.573707,-25.37162L5.927739,-31.71666L10.68651,-20.09057Z"/>
<path fill="none" stroke="#D10492" stroke-width="1" stroke-linecap="round" stroke-linejoin="round" d="M5.927739,-31.71666L-18.03375,-46.04021L-9.573707,-25.37162L5.927739,-31.71666Z"/>
<path fill="none" stroke="#D10492" stroke-width="1" stroke-linecap="round" stroke-linejoin="round" d="M49.24683,-73.57941L86.68663,-51.19885L51.98248,-47.55129L49.24683,-73.57941Z"/>
<path fill="none" stroke="#D10492" stroke-width="1" stroke-linecap="round" stroke-linejoin="round" d="M91.55003,-4.926646L51.98248,-47.55129L56.84587,-1.279091L91.55003,-4.926646Z"/>
<path fill="none" stroke="#D10492" stroke-width="1" stroke-linecap="round" stroke-linejoin="round" d="M51.98248,-47.55129L91.55003,-4.926646L86.68663,-51.19885L51.98248,-47.55129Z"/>
<path fill="none" stroke="#D10492" stroke-width="1" stroke-linecap="round" stroke-linejoin="round" d="M86.68663,-51.19885L153.2463,-11.41119L91.55003,-4.926646L86.68663,-51.19885Z"/>
<path fill="none" stroke="#D10492" stroke-width="1" stroke-linecap="round" stroke-linejoin="round" d="M201.9557,661.722L162.3882,619.0974L167.2516,665.3696L201.9557,661.722Z"/>
<path fill="none" stroke="#D10492" stroke-width="1" stroke-linecap="round" stroke-linejoin="round" d="M145.0409,667.704L164.139,635.7554L167.2516,665.3696L145.0409,667.704Z"/>
<path fill="none" stroke="#D10492" stroke-width="1" stroke-linecap="round" stroke-linejoin="round" d="M256.181,656.0227L209.5548,734.0223L201.9557,661.722L256.181,656.0227Z"/>
<path fill="none" stroke="#D10492" stroke-width="1" stroke-linecap="round" stroke-linejoin="round" d="M209.5548,734.0223L172.115,711.6418L206.8191,707.9943L209.5548,734.0223Z"/>
<path fill="none" stroke="#D10492" stroke-width="1" stroke-linecap="round" stroke-linejoin="round" d="M167.2516,665.3696L206.8191,707.9943L201.9557,661.722L167.2516,665.3696Z"/>
<path fill="none" stroke="#D10492" stroke-width="1" stroke-linecap="round" stroke-linejoin="round" d="M206.8191,707.9943L167.2516,665.3696L172.115,711.6418L206.8191,707.9943Z"/>
<path fill="none" stroke="#D10492" stroke-width="1" stroke-linecap="round" stroke-linejoin="round" d="M132.2524,712.2058L113.1544,744.1545L110.0418,714.5403L132.2524,712.2058Z"/>
<path fill="none" stroke="#D10492" stroke-width="1" stroke-linecap="round" stroke-linejoin="round" d="M179.7141,783.9421L160.616,815.8907L157.5034,786.2766L179.7141,783.9421Z"/>
<path fill="none" stroke="#D10492" stroke-width="1" stroke-linecap="round" stroke-linejoin="round" d="M105.5553,671.8541L16.75395,754.2865L113.1544,744.1544L105.5553,671.8541Z"/>
<path fill="none" stroke="#D10492" stroke-width="1" stroke-linecap="round" stroke-linejoin="round" d="M69.74901,878.6703L88.84709,846.7217L91.95966,876.3358L69.74901,878.6703Z"/>
<path fill="none" stroke="#D10492" stroke-width="1" stroke-linecap="round" stroke-linejoin="round" d="M88.84709,846.7217L69.74901,878.6703L66.63643,849.0561L88.84709,846.7217Z"/>
<path fill="none" stroke="#D10492" stroke-width="1" stroke-linecap="round" stroke-linejoin="round" d="M66.63643,849.0561L30.2634,882.8204L69.74901,878.6703L66.63643,849.0561Z"/>
<path fill="none" stroke="#D10492" stroke-width="1" stroke-linecap="round" stroke-linejoin="round" d="M30.26339,882.8204L4.940158,855.5406L34.24133,860.8445L30.26339,882.8204Z"/>
<path fill="none" stroke="#D10492" stroke-width="1" stroke-linecap="round" stroke-linejoin="round" d="M91.37926,515.3714L113.6086,559.7435L120.6804,520.6753L91.37926,515.3714Z"/>
<path fill="none" stroke="#D10492" stroke-width="1" stroke-linecap="round" stroke-linejoin="round" d="M139.4332,524.0698L116.1544,545.679L120.6804,520.6753L139.4332,524.0698Z"/>
<path fill="none" stroke="#D10492" stroke-width="1" stroke-linecap="round" stroke-linejoin="round" d="M116.1544,545.679L139.4332,524.0698L134.9072,549.0735L116.1544,545.679Z"/>
<path fill="none" stroke="#D10492" stroke-width="1" stroke-linecap="round" stroke-linejoin="round" d="M134.9072,549.0735L172.7714,530.1045L139.4332,524.0698L134.9072,549.0735Z"/>
<path fill="none" stroke="#D10492" stroke-width="1" stroke-linecap="round" stroke-linejoin="round" d="M87.49371,572.8264L66.19509,583.4965L84.94784,586.891L87.49371,572.8264Z"/>
<path fill="none" stroke="#D10492" stroke-width="1" stroke-linecap="round" stroke-linejoin="round" d="M61.6691,608.5001L84.94784,586.891L80.42184,611.8946L61.6691,608.5001Z"/>
<path fill="none" stroke="#D10492" stroke-width="1" stroke-linecap="round" stroke-linejoin="round" d="M84.94784,586.891L61.6691,608.5001L66.19509,583.4965L84.94784,586.891Z"/>
<path fill="none" stroke="#D10492" stroke-width="1" stroke-linecap="round" stroke-linejoin="round" d="M66.19509,583.4965L28.33089,602.4655L61.6691,608.5001L66.19509,583.4965Z"/>
<path fill="none" stroke="#D10492" stroke-width="1" stroke-linecap="round" stroke-linejoin="round" d="M98.67321,678.2426L73.34997,650.9628L102.6511,656.2667L98.67321,678.2426Z"/>
<path fill="none" stroke="#D10492" stroke-width="1" stroke-linecap="round" stroke-linejoin="round" d="M102.6511,656.2667L80.42184,611.8947L73.34997,650.9628L102.6511,656.2667Z"/>
<path fill="none" stroke="#D10492" stroke-width="1" stroke-linecap="round" stroke-linejoin="round" d="M73.34997,650.9628L28.33089,602.4655L80.42184,611.8947L73.34997,650.9628Z"/>
<path fill="none" stroke="#D10492" stroke-width="1" stroke-linecap="round" stroke-linejoin="round" d="M-232.7319,29.15678L-136.1315,133.2209L-148.005,20.25162L-232.7319,29.15678Z"/>
<path fill="none" stroke="#D10492" stroke-width="1" stroke-linecap="round" stroke-linejoin="round" d="M-136.1315,133.2209L-86.18071,86.85262L-140.4059,92.55193L-136.1315,133.2209Z"/>
<path fill="none" stroke="#D10492" stroke-width="1" stroke-linecap="round" stroke-linejoin="round" d="M-93.77977,14.55231L-140.4059,92.55193L-148.005,20.25162L-93.77977,14.55231Z"/>
<path fill="none" stroke="#D10492" stroke-width="1" stroke-linecap="round" stroke-linejoin="round" d="M-140.4059,92.55193L-93.77977,14.55231L-86.18071,86.85262L-140.4059,92.55193Z"/>
<path fill="none" stroke="#D10492" stroke-width="1" stroke-linecap="round" stroke-linejoin="round" d="M-47.33013,50.78844L-25.07338,74.76482L-27.80905,48.7367L-47.33013,50.78844Z"/>
<path fill="none" stroke="#D10492" stroke-width="1" stroke-linecap="round" stroke-linejoin="round" d="M14.49418,117.3895L-17.4743,147.0651L-11.25879,112.7278L14.49418,117.3895Z"/>
<path fill="none" stroke="#D10492" stroke-width="1" stroke-linecap="round" stroke-linejoin="round" d="M-63.25736,138.7778L-11.25879,112.7278L-57.04185,104.4405L-63.25736,138.7778Z"/>
<path fill="none" stroke="#D10492" stroke-width="1" stroke-linecap="round" stroke-linejoin="round" d="M-11.25879,112.7278L-63.25736,138.7778L-17.4743,147.0651L-11.25879,112.7278Z"/>
<path fill="none" stroke="#D10492" stroke-width="1" stroke-linecap="round" stroke-linejoin="round" d="M-17.4743,147.0651L-74.30714,199.8219L-63.25736,138.7778L-17.4743,147.0651Z"/>
<path fill="none" stroke="#D10492" stroke-width="1" stroke-linecap="round" stroke-linejoin="round" d="M76.77938,116.5082L57.6813,148.4568L54.56872,118.8426L76.77938,116.5082Z"/>
<path fill="none" stroke="#D10492" stroke-width="1" stroke-linecap="round" stroke-linejoin="round" d="M18.19569,152.6069L54.56872,118.8426L15.08311,122.9927L18.19569,152.6069Z"/>
<path fill="none" stroke="#D10492" stroke-width="1" stroke-linecap="round" stroke-linejoin="round" d="M54.56872,118.8426L18.19569,152.6069L57.6813,148.4568L54.56872,118.8426Z"/>
<path fill="none" stroke="#D10492" stroke-width="1" stroke-linecap="round" stroke-linejoin="round" d="M57.6813,148.4568L23.72917,205.2544L18.19569,152.6069L57.6813,148.4568Z"/>
<path fill="none" stroke="#D10492" stroke-width="1" stroke-linecap="round" stroke-linejoin="round" d="M70.35533,127.2548L94.31682,141.5784L85.85678,120.9098L70.35533,127.2548Z"/>
<path fill="none" stroke="#D10492" stroke-width="1" stroke-linecap="round" stroke-linejoin="round" d="M121.8749,130.2983L85.85678,120.9098L113.4149,109.6297L121.8749,130.2983Z"/>
<path fill="none" stroke="#D10492" stroke-width="1" stroke-linecap="round" stroke-linejoin="round" d="M85.85678,120.9098L121.8749,130.2983L94.31682,141.5784L85.85678,120.9098Z"/>
<path fill="none" stroke="#D10492" stroke-width="1" stroke-linecap="round" stroke-linejoin="round" d="M94.31682,141.5784L136.915,167.0425L121.8749,130.2983L94.31682,141.5784Z"/>
<path fill="none" stroke="#D10492" stroke-width="1" stroke-linecap="round" stroke-linejoin="round" d="M136.915,167.0425L166.7558,117.1227L123.6962,134.7478L136.915,167.0425Z"/>
<path fill="none" stroke="#D10492" stroke-width="1" stroke-linecap="round" stroke-linejoin="round" d="M115.2362,114.0792L151.2543,123.4677L123.6962,134.7478L115.2362,114.0792Z"/>
</g>
<g>
<path fill="none" stroke="#1FF27D" stroke-width="1" stroke-linecap="round" stroke-linejoin="round" d="M-24.64219,-11.87681L-22.65014,7.076283L-14.82757,-6.009881L-24.64219,-11.87681Z"/>
<path fill="none" stroke="#1FF27D" stroke-width="1" stroke-linecap="round" stroke-linejoin="round" d="M-22.65014,7.076283L-13.55266,6.1201L-19.83401,2.365264L-22.65014,7.076283Z"/>
<path fill="none" stroke="#1FF27D" stroke-width="1" stroke-linecap="round" stroke-linejoin="round" d="M-8.546211,-2.255045L-19.83401,2.365264L-14.82757,-6.009881L-8.546211,-2.255045Z"/>
<path fill="none" stroke="#1FF27D" stroke-width="1" stroke-linecap="round" stroke-linejoin="round" d="M-19.83401,2.365264L-8.546211,-2.255045L-13.55266,6.1201L-19.83401,2.365264Z"/>
<path fill="none" stroke="#1FF27D" stroke-width="1" stroke-linecap="round" stroke-linejoin="round" d="M-39.97754,-21.04389L-12.41942,-32.32394L-24.64219,-11.87681L-39.97754,-21.04389Z"/>
<path fill="none" stroke="#1FF27D" stroke-width="1" stroke-linecap="round" stroke-linejoin="round" d="M-12.41942,-32.32394L-7.004993,-19.09604L-16.81962,-24.96297L-12.41942,-32.32394Z"/>
<path fill="none" stroke="#1FF27D" stroke-width="1" stroke-linecap="round" stroke-linejoin="round" d="M-14.82756,-6.009881L-16.81962,-24.96297L-24.64219,-11.87681L-14.82756,-6.009881Z"/>
<path fill="none" stroke="#1FF27D" stroke-width="1" stroke-linecap="round" stroke-linejoin="round" d="M-16.81962,-24.96297L-14.82756,-6.009881L-7.004993,-19.09604L-16.81962,-24.96297Z"/>
<path fill="none" stroke="#1FF27D" stroke-width="1" stroke-linecap="round" stroke-linejoin="round" d="M-4.814931,-13.74554L3.904632,-17.31462L0.03726959,-10.84502L-4.814931,-13.74554Z"/>
<path fill="none" stroke="#1FF27D" stroke-width="1" stroke-linecap="round" stroke-linejoin="round" d="M12.53077,-12.15814L0.03726959,-10.84502L8.663404,-5.688535L12.53077,-12.15814Z"/>
<path fill="none" stroke="#1FF27D" stroke-width="1" stroke-linecap="round" stroke-linejoin="round" d="M0.03726959,-10.84502L12.53077,-12.15814L3.904632,-17.31462L0.03726959,-10.84502Z"/>
<path fill="none" stroke="#1FF27D" stroke-width="1" stroke-linecap="round" stroke-linejoin="round" d="M3.904632,-17.31462L19.40608,-23.65965L12.53077,-12.15814L3.904632,-17.31462Z"/>
<path fill="none" stroke="#1FF27D" stroke-width="1" stroke-linecap="round" stroke-linejoin="round" d="M56.84587,-1.279091L54.11022,-27.30721L43.36755,-9.336092L56.84587,-1.279091Z"/>
<path fill="none" stroke="#1FF27D" stroke-width="1" stroke-linecap="round" stroke-linejoin="round" d="M30.14875,-41.63076L43.36755,-9.336092L19.40608,-23.65965L30.14875,-41.63076Z"/>
<path fill="none" stroke="#1FF27D" stroke-width="1" stroke-linecap="round" stroke-linejoin="round" d="M43.36755,-9.336092L30.14875,-41.63076L54.11022,-27.30721L43.36755,-9.336092Z"/>
<path fill="none" stroke="#1FF27D" stroke-width="1" stroke-linecap="round" stroke-linejoin="round" d="M54.11022,-27.30721L49.24683,-73.57941L30.14875,-41.63076L54.11022,-27.30721Z"/>
<path fill="none" stroke="#1FF27D" stroke-width="1" stroke-linecap="round" stroke-linejoin="round" d="M162.3882,619.0974L164.139,635.7554L155.0226,625.9346L162.3882,619.0974Z"/>
<path fill="none" stroke="#1FF27D" stroke-width="1" stroke-linecap="round" stroke-linejoin="round" d="M164.139,635.7554L156.1432,636.5958L160.8571,632.2199L164.139,635.7554Z"/>
<path fill="none" stroke="#1FF27D" stroke-width="1" stroke-linecap="round" stroke-linejoin="round" d="M172.115,711.6418L167.2516,665.3696L148.1535,697.3182L172.115,711.6418Z"/>
<path fill="none" stroke="#1FF27D" stroke-width="1" stroke-linecap="round" stroke-linejoin="round" d="M167.2516,665.3696L145.0409,667.704L160.3763,676.8711L167.2516,665.3696Z"/>
<path fill="none" stroke="#1FF27D" stroke-width="1" stroke-linecap="round" stroke-linejoin="round" d="M132.8181,688.1511L160.3763,676.8711L148.1535,697.3182L132.8181,688.1511Z"/>
<path fill="none" stroke="#1FF27D" stroke-width="1" stroke-linecap="round" stroke-linejoin="round" d="M105.5553,671.8541L108.291,697.8822L119.0336,679.9111L105.5553,671.8541Z"/>
<path fill="none" stroke="#1FF27D" stroke-width="1" stroke-linecap="round" stroke-linejoin="round" d="M108.291,697.8822L120.7845,696.5691L112.1583,691.4126L108.291,697.8822Z"/>
<path fill="none" stroke="#1FF27D" stroke-width="1" stroke-linecap="round" stroke-linejoin="round" d="M142.9951,694.2347L130.5016,695.5478L139.1277,700.7042L142.9951,694.2347Z"/>
<path fill="none" stroke="#1FF27D" stroke-width="1" stroke-linecap="round" stroke-linejoin="round" d="M136.6526,704.8448L133.607,697.4041L139.1277,700.7042L136.6526,704.8448Z"/>
<path fill="none" stroke="#1FF27D" stroke-width="1" stroke-linecap="round" stroke-linejoin="round" d="M133.607,697.4041L136.6526,704.8448L131.1319,701.5447L133.607,697.4041Z"/>
<path fill="none" stroke="#1FF27D" stroke-width="1" stroke-linecap="round" stroke-linejoin="round" d="M131.1319,701.5447L132.2524,712.2058L136.6526,704.8448L131.1319,701.5447Z"/>
<path fill="none" stroke="#1FF27D" stroke-width="1" stroke-linecap="round" stroke-linejoin="round" d="M110.0418,714.5403L108.291,697.8822L117.4073,707.703L110.0418,714.5403Z"/>
<path fill="none" stroke="#1FF27D" stroke-width="1" stroke-linecap="round" stroke-linejoin="round" d="M108.291,697.8822L116.2868,697.0418L111.5728,701.4177L108.291,697.8822Z"/>
<path fill="none" stroke="#1FF27D" stroke-width="1" stroke-linecap="round" stroke-linejoin="round" d="M122.1213,703.3271L111.5728,701.4177L117.4073,707.703L122.1213,703.3271Z"/>
<path fill="none" stroke="#1FF27D" stroke-width="1" stroke-linecap="round" stroke-linejoin="round" d="M111.5728,701.4177L122.1213,703.3271L116.2868,697.0418L111.5728,701.4177Z"/>
<path fill="none" stroke="#1FF27D" stroke-width="1" stroke-linecap="round" stroke-linejoin="round" d="M132.2524,712.2058L124.2566,713.0463L128.9706,708.6703L132.2524,712.2058Z"/>
<path fill="none" stroke="#1FF27D" stroke-width="1" stroke-linecap="round" stroke-linejoin="round" d="M118.4221,706.761L128.9706,708.6703L123.1361,702.3851L118.4221,706.761Z"/>
<path fill="none" stroke="#1FF27D" stroke-width="1" stroke-linecap="round" stroke-linejoin="round" d="M128.9706,708.6703L118.4221,706.761L124.2566,713.0463L128.9706,708.6703Z"/>
<path fill="none" stroke="#1FF27D" stroke-width="1" stroke-linecap="round" stroke-linejoin="round" d="M124.2566,713.0463L110.0418,714.5403L118.4221,706.761L124.2566,713.0463Z"/>
<path fill="none" stroke="#1FF27D" stroke-width="1" stroke-linecap="round" stroke-linejoin="round" d="M123.1224,838.994L126.6638,872.6884L140.5706,849.4241L123.1224,838.994Z"/>
<path fill="none" stroke="#1FF27D" stroke-width="1" stroke-linecap="round" stroke-linejoin="round" d="M113.1544,744.1544L90.9437,746.4888L106.2791,755.6559L113.1544,744.1544Z"/>
<path fill="none" stroke="#1FF27D" stroke-width="1" stroke-linecap="round" stroke-linejoin="round" d="M126.6638,872.6884L91.95966,876.3358L112.4195,857.3434L126.6638,872.6884Z"/>
<path fill="none" stroke="#1FF27D" stroke-width="1" stroke-linecap="round" stroke-linejoin="round" d="M91.95966,876.3358L90.20884,859.6779L99.32521,869.4986L91.95966,876.3358Z"/>
<path fill="none" stroke="#1FF27D" stroke-width="1" stroke-linecap="round" stroke-linejoin="round" d="M103.3031,847.5227L99.32521,869.4986L112.4195,857.3434L103.3031,847.5227Z"/>
<path fill="none" stroke="#1FF27D" stroke-width="1" stroke-linecap="round" stroke-linejoin="round" d="M99.32521,869.4986L103.3031,847.5227L90.20884,859.6779L99.32521,869.4986Z"/>
<path fill="none" stroke="#1FF27D" stroke-width="1" stroke-linecap="round" stroke-linejoin="round" d="M88.84709,846.7217L80.85125,847.562L85.5652,843.1862L88.84709,846.7217Z"/>
<path fill="none" stroke="#1FF27D" stroke-width="1" stroke-linecap="round" stroke-linejoin="round" d="M75.01678,841.2768L85.5652,843.1862L79.73073,836.9009L75.01678,841.2768Z"/>
<path fill="none" stroke="#1FF27D" stroke-width="1" stroke-linecap="round" stroke-linejoin="round" d="M85.5652,843.1862L75.01678,841.2768L80.85125,847.562L85.5652,843.1862Z"/>
<path fill="none" stroke="#1FF27D" stroke-width="1" stroke-linecap="round" stroke-linejoin="round" d="M80.85125,847.562L66.63643,849.0561L75.01678,841.2768L80.85125,847.562Z"/>
<path fill="none" stroke="#1FF27D" stroke-width="1" stroke-linecap="round" stroke-linejoin="round" d="M-6.524788,775.8957L-3.412216,805.51L-19.61908,788.0509L-6.524788,775.8957Z"/>
<path fill="none" stroke="#1FF27D" stroke-width="1" stroke-linecap="round" stroke-linejoin="round" d="M53.54214,861.2113L50.42957,831.597L66.63643,849.056L53.54214,861.2113Z"/>
<path fill="none" stroke="#1FF27D" stroke-width="1" stroke-linecap="round" stroke-linejoin="round" d="M50.42957,831.597L53.54214,861.2113L37.33527,843.7522L50.42957,831.597Z"/>
<path fill="none" stroke="#1FF27D" stroke-width="1" stroke-linecap="round" stroke-linejoin="round" d="M37.33527,843.7522L30.26339,882.8204L53.54214,861.2113L37.33527,843.7522Z"/>
<path fill="none" stroke="#1FF27D" stroke-width="1" stroke-linecap="round" stroke-linejoin="round" d="M38.76733,835.8409L34.24133,860.8445L25.13621,842.6697L38.76733,835.8409Z"/>
<path fill="none" stroke="#1FF27D" stroke-width="1" stroke-linecap="round" stroke-linejoin="round" d="M34.24133,860.8445L4.940158,855.5406L26.23878,844.8706L34.24133,860.8445Z"/>
<path fill="none" stroke="#1FF27D" stroke-width="1" stroke-linecap="round" stroke-linejoin="round" d="M4.940158,855.5406L7.486032,841.4761L12.60766,851.6995L4.940158,855.5406Z"/>
<path fill="none" stroke="#1FF27D" stroke-width="1" stroke-linecap="round" stroke-linejoin="round" d="M21.11715,834.6473L12.60766,851.6995L26.23878,844.8706L21.11715,834.6473Z"/>
<path fill="none" stroke="#1FF27D" stroke-width="1" stroke-linecap="round" stroke-linejoin="round" d="M12.60766,851.6995L21.11715,834.6473L7.486032,841.4761L12.60766,851.6995Z"/>
<path fill="none" stroke="#1FF27D" stroke-width="1" stroke-linecap="round" stroke-linejoin="round" d="M-21.63911,826.9078L3.631686,824.2518L-11.26671,838.0816L-21.63911,826.9078Z"/>
<path fill="none" stroke="#1FF27D" stroke-width="1" stroke-linecap="round" stroke-linejoin="round" d="M3.631686,824.2518L-21.63911,826.9078L-6.740711,813.078L3.631686,824.2518Z"/>
<path fill="none" stroke="#1FF27D" stroke-width="1" stroke-linecap="round" stroke-linejoin="round" d="M-6.740711,813.078L-40.07892,807.0433L-21.63911,826.9078L-6.740711,813.078Z"/>
<path fill="none" stroke="#1FF27D" stroke-width="1" stroke-linecap="round" stroke-linejoin="round" d="M116.1544,545.679L122.9054,546.901L117.9982,549.3594L116.1544,545.679Z"/>
<path fill="none" stroke="#1FF27D" stroke-width="1" stroke-linecap="round" stroke-linejoin="round" d="M117.9982,549.3594L126.1833,553.444L122.9054,546.901L117.9982,549.3594Z"/>
<path fill="none" stroke="#1FF27D" stroke-width="1" stroke-linecap="round" stroke-linejoin="round" d="M172.7714,530.1045L166.5559,564.4418L154.0519,539.4824L172.7714,530.1045Z"/>
<path fill="none" stroke="#1FF27D" stroke-width="1" stroke-linecap="round" stroke-linejoin="round" d="M166.5559,564.4418L150.074,561.4584L162.0544,555.4564L166.5559,564.4418Z"/>
<path fill="none" stroke="#1FF27D" stroke-width="1" stroke-linecap="round" stroke-linejoin="round" d="M142.0714,545.4844L162.0544,555.4564L154.0519,539.4824L142.0714,545.4844Z"/>
<path fill="none" stroke="#1FF27D" stroke-width="1" stroke-linecap="round" stroke-linejoin="round" d="M162.0544,555.4564L142.0714,545.4844L150.074,561.4584L162.0544,555.4564Z"/>
<path fill="none" stroke="#1FF27D" stroke-width="1" stroke-linecap="round" stroke-linejoin="round" d="M162.5779,586.4177L166.5559,564.4418L153.4616,576.5969L162.5779,586.4177Z"/>
<path fill="none" stroke="#1FF27D" stroke-width="1" stroke-linecap="round" stroke-linejoin="round" d="M166.5559,564.4418L156.0074,562.5323L161.8419,568.8176L166.5559,564.4418Z"/>
<path fill="none" stroke="#1FF27D" stroke-width="1" stroke-linecap="round" stroke-linejoin="round" d="M162.5779,586.4177L160.0321,600.4822L154.9104,590.2589L162.5779,586.4177Z"/>
<path fill="none" stroke="#1FF27D" stroke-width="1" stroke-linecap="round" stroke-linejoin="round" d="M107.1417,562.9833L104.5958,577.0479L99.47418,566.8245L107.1417,562.9833Z"/>
<path fill="none" stroke="#1FF27D" stroke-width="1" stroke-linecap="round" stroke-linejoin="round" d="M93.32098,584.4583L105.3227,586.6307L96.59882,591.0012L93.32098,584.4583Z"/>
<path fill="none" stroke="#1FF27D" stroke-width="1" stroke-linecap="round" stroke-linejoin="round" d="M102.0449,580.0878L87.49371,572.8264L93.32098,584.4583L102.0449,580.0878Z"/>
<path fill="none" stroke="#1FF27D" stroke-width="1" stroke-linecap="round" stroke-linejoin="round" d="M80.42184,611.8946L82.96771,597.83L88.08934,608.0533L80.42184,611.8946Z"/>
<path fill="none" stroke="#1FF27D" stroke-width="1" stroke-linecap="round" stroke-linejoin="round" d="M96.59883,591.0012L88.08934,608.0533L101.7205,601.2245L96.59883,591.0012Z"/>
<path fill="none" stroke="#1FF27D" stroke-width="1" stroke-linecap="round" stroke-linejoin="round" d="M88.08934,608.0533L96.59883,591.0012L82.96771,597.83L88.08934,608.0533Z"/>
<path fill="none" stroke="#1FF27D" stroke-width="1" stroke-linecap="round" stroke-linejoin="round" d="M82.96771,597.83L87.49371,572.8264L96.59883,591.0012L82.96771,597.83Z"/>
<path fill="none" stroke="#1FF27D" stroke-width="1" stroke-linecap="round" stroke-linejoin="round" d="M-86.18071,86.85262L-93.77977,14.55231L-54.21223,57.17696L-86.18071,86.85262Z"/>
<path fill="none" stroke="#1FF27D" stroke-width="1" stroke-linecap="round" stroke-linejoin="round" d="M-93.77977,14.55231L-59.07563,10.90476L-79.53545,29.89719L-93.77977,14.55231Z"/>
<path fill="none" stroke="#1FF27D" stroke-width="1" stroke-linecap="round" stroke-linejoin="round" d="M-33.7524,38.18453L-79.53545,29.89719L-54.21223,57.17696L-33.7524,38.18453Z"/>
<path fill="none" stroke="#1FF27D" stroke-width="1" stroke-linecap="round" stroke-linejoin="round" d="M-79.53545,29.89719L-33.7524,38.18453L-59.07563,10.90476L-79.53545,29.89719Z"/>
<path fill="none" stroke="#1FF27D" stroke-width="1" stroke-linecap="round" stroke-linejoin="round" d="M-26.87031,31.79602L-1.11733,36.45765L-15.36165,21.11278L-26.87031,31.79602Z"/>
<path fill="none" stroke="#1FF27D" stroke-width="1" stroke-linecap="round" stroke-linejoin="round" d="M-1.11733,36.45765L-26.87031,31.79602L-12.62598,47.14089L-1.11733,36.45765Z"/>
<path fill="none" stroke="#1FF27D" stroke-width="1" stroke-linecap="round" stroke-linejoin="round" d="M-12.62598,47.14089L-47.33013,50.78844L-26.87031,31.79602L-12.62598,47.14089Z"/>
<path fill="none" stroke="#1FF27D" stroke-width="1" stroke-linecap="round" stroke-linejoin="round" d="M-5.598393,46.40226L-27.80905,48.7367L-12.4737,57.90378L-5.598393,46.40226Z"/>
<path fill="none" stroke="#1FF27D" stroke-width="1" stroke-linecap="round" stroke-linejoin="round" d="M-27.80905,48.7367L-25.07338,74.76482L-14.33071,56.7937L-27.80905,48.7367Z"/>
<path fill="none" stroke="#1FF27D" stroke-width="1" stroke-linecap="round" stroke-linejoin="round" d="M-25.07338,74.76482L-12.57988,73.4517L-21.20602,68.29521L-25.07338,74.76482Z"/>
<path fill="none" stroke="#1FF27D" stroke-width="1" stroke-linecap="round" stroke-linejoin="round" d="M-5.704577,61.95019L-21.20602,68.29521L-14.33071,56.7937L-5.704577,61.95019Z"/>
<path fill="none" stroke="#1FF27D" stroke-width="1" stroke-linecap="round" stroke-linejoin="round" d="M-21.20602,68.29521L-5.704577,61.95019L-12.57988,73.4517L-21.20602,68.29521Z"/>
<path fill="none" stroke="#1FF27D" stroke-width="1" stroke-linecap="round" stroke-linejoin="round" d="M-47.33013,50.78845L-57.04185,104.4405L-25.07338,74.76482L-47.33013,50.78845Z"/>
<path fill="none" stroke="#1FF27D" stroke-width="1" stroke-linecap="round" stroke-linejoin="round" d="M-57.04185,104.4405L-31.28888,109.1021L-45.5332,93.75724L-57.04185,104.4405Z"/>
<path fill="none" stroke="#1FF27D" stroke-width="1" stroke-linecap="round" stroke-linejoin="round" d="M-10.82906,90.1097L-45.5332,93.75724L-25.07338,74.76482L-10.82906,90.1097Z"/>
<path fill="none" stroke="#1FF27D" stroke-width="1" stroke-linecap="round" stroke-linejoin="round" d="M-45.5332,93.75724L-10.82906,90.1097L-31.28888,109.1021L-45.5332,93.75724Z"/>
<path fill="none" stroke="#1FF27D" stroke-width="1" stroke-linecap="round" stroke-linejoin="round" d="M15.08311,122.9927L37.29377,120.6583L21.95841,111.4912L15.08311,122.9927Z"/>
<path fill="none" stroke="#1FF27D" stroke-width="1" stroke-linecap="round" stroke-linejoin="round" d="M97.91345,115.9747L70.35533,127.2548L82.57811,106.8077L97.91345,115.9747Z"/>
<path fill="none" stroke="#1FF27D" stroke-width="1" stroke-linecap="round" stroke-linejoin="round" d="M166.7558,117.1227L151.2543,123.4677L158.1296,111.9662L166.7558,117.1227Z"/>
<path fill="none" stroke="#1FF27D" stroke-width="1" stroke-linecap="round" stroke-linejoin="round" d="M151.2543,123.4677L148.2087,116.027L153.7294,119.3272L151.2543,123.4677Z"/>
<path fill="none" stroke="#1FF27D" stroke-width="1" stroke-linecap="round" stroke-linejoin="round" d="M152.6089,108.6661L153.7294,119.3272L158.1296,111.9662L152.6089,108.6661Z"/>
<path fill="none" stroke="#1FF27D" stroke-width="1" stroke-linecap="round" stroke-linejoin="round" d="M153.7294,119.3272L152.6089,108.6661L148.2087,116.027L153.7294,119.3272Z"/>
<path fill="none" stroke="#1FF27D" stroke-width="1" stroke-linecap="round" stroke-linejoin="round" d="M129.9892,117.9247L141.1719,109.0231L138.2878,120.0879L129.9892,117.9247Z"/>
<path fill="none" stroke="#1FF27D" stroke-width="1" stroke-linecap="round" stroke-linejoin="round" d="M141.1719,109.0231L129.9892,117.9247L132.8734,106.86L141.1719,109.0231Z"/>
<path fill="none" stroke="#1FF27D" stroke-width="1" stroke-linecap="round" stroke-linejoin="round" d="M132.8734,106.86L115.2362,114.0792L129.9892,117.9247L132.8734,106.86Z"/>
</g>
</svg>
