<!DOCTYPE svg PUBLIC "-//W3C//DTD SVG 1.1//EN" "http://www.w3.org/Graphics/SVG/1.1/DTD/svg11.dtd" >
<svg version="1.1" xmlns="http://www.w3.org/2000/svg" xmlns:xlink="http://www.w3.org/1999/xlink" xml:space="preserve" width="474" height="839">
<g>
<path fill="none" stroke="#9005D2" stroke-width="1" stroke-linecap="round" stroke-linejoin="round" d="M-1063.8,1183.397L-242.1673,-510.9537L45.27624,967.8146L-1063.8,1183.397Z"/>
<path fill="none" stroke="#9005D2" stroke-width="1" stroke-linecap="round" stroke-linejoin="round" d="M-242.1673,-510.9537L571.1212,-116.57L-138.6877,21.40289L-242.1673,-510.9537Z"/>
<path fill="none" stroke="#9005D2" stroke-width="1" stroke-linecap="round" stroke-linejoin="round" d="M571.1212,-116.57L2016.967,584.5566L755.0851,829.8417L571.1212,-116.57Z"/>
</g>
<g>
<path fill="none" stroke="#5BFC39" stroke-width="1" stroke-linecap="round" stroke-linejoin="round" d="M571.1212,-116.57L637.3483,224.1382L431.423,37.87392L571.1212,-116.57Z"/>
<path fill="none" stroke="#5BFC39" stroke-width="1" stroke-linecap="round" stroke-linejoin="round" d="M431.423,37.87392L388.9958,498.7052L637.3483,224.1382L431.423,37.87392Z"/>
<path fill="none" stroke="#5BFC39" stroke-width="1" stroke-linecap="round" stroke-linejoin="round" d="M637.3483,224.1382L755.0851,829.8417L388.9958,498.7052L637.3483,224.1382Z"/>
</g>
<g>
<path fill="none" stroke="#B300B4" stroke-width="1" stroke-linecap="round" stroke-linejoin="round" d="M6.175807,766.6604L126.1001,824.8146L21.43451,845.1595L6.175807,766.6604Z"/>
<path fill="none" stroke="#B300B4" stroke-width="1" stroke-linecap="round" stroke-linejoin="round" d="M-20.95078,627.1063L68.45609,528.2622L58.68087,634.4377L-20.95078,627.1063Z"/>
<path fill="none" stroke="#B300B4" stroke-width="1" stroke-linecap="round" stroke-linejoin="round" d="M-90.46263,269.499L122.7361,372.8843L-63.33605,409.0531L-90.46263,269.499Z"/>
<path fill="none" stroke="#B300B4" stroke-width="1" stroke-linecap="round" stroke-linejoin="round" d="M95.60947,233.3302L-138.6877,21.40292L-90.46263,269.499L95.60947,233.3302Z"/>
<path fill="none" stroke="#B300B4" stroke-width="1" stroke-linecap="round" stroke-linejoin="round" d="M280.3835,-60.0563L159.2288,189.7859L116.8435,-28.26734L280.3835,-60.0563Z"/>
<path fill="none" stroke="#B300B4" stroke-width="1" stroke-linecap="round" stroke-linejoin="round" d="M159.2288,189.7859L280.3835,-60.0563L322.7688,157.9969L159.2288,189.7859Z"/>
<path fill="none" stroke="#B300B4" stroke-width="1" stroke-linecap="round" stroke-linejoin="round" d="M322.7688,157.9969L571.1212,-116.57L280.3835,-60.0563L322.7688,157.9969Z"/>
</g>
<g>
<path fill="none" stroke="#3AFC5A" stroke-width="1" stroke-linecap="round" stroke-linejoin="round" d="M755.0851,829.8417L499.5539,879.5118L639.2521,725.0679L755.0851,829.8417Z"/>
<path fill="none" stroke="#3AFC5A" stroke-width="1" stroke-linecap="round" stroke-linejoin="round" d="M499.5539,879.5118L475.7122,756.8569L549.8453,823.912L499.5539,879.5118Z"/>
<path fill="none" stroke="#3AFC5A" stroke-width="1" stroke-linecap="round" stroke-linejoin="round" d="M565.119,658.0128L549.8453,823.912L639.2521,725.0679L565.119,658.0128Z"/>
<path fill="none" stroke="#3AFC5A" stroke-width="1" stroke-linecap="round" stroke-linejoin="round" d="M549.8453,823.912L565.119,658.0128L475.7122,756.8569L549.8453,823.912Z"/>
<path fill="none" stroke="#3AFC5A" stroke-width="1" stroke-linecap="round" stroke-linejoin="round" d="M336.0139,911.3009L499.5539,879.5118L379.6296,821.3577L336.0139,911.3009Z"/>
<path fill="none" stroke="#3AFC5A" stroke-width="1" stroke-linecap="round" stroke-linejoin="round" d="M499.5539,879.5118L484.2952,801.0127L456.3812,858.5764L499.5539,879.5118Z"/>
<path fill="none" stroke="#3AFC5A" stroke-width="1" stroke-linecap="round" stroke-linejoin="round" d="M407.5437,763.794L456.3812,858.5764L379.6296,821.3577L407.5437,763.794Z"/>
<path fill="none" stroke="#3AFC5A" stroke-width="1" stroke-linecap="round" stroke-linejoin="round" d="M456.3812,858.5764L407.5437,763.794L484.2952,801.0127L456.3812,858.5764Z"/>
<path fill="none" stroke="#3AFC5A" stroke-width="1" stroke-linecap="round" stroke-linejoin="round" d="M336.0139,911.3009L231.3484,931.6459L288.5688,868.3856L336.0139,911.3009Z"/>
<path fill="none" stroke="#3AFC5A" stroke-width="1" stroke-linecap="round" stroke-linejoin="round" d="M288.5688,868.3856L147.0014,855.3519L231.3484,931.6459L288.5688,868.3856Z"/>
<path fill="none" stroke="#3AFC5A" stroke-width="1" stroke-linecap="round" stroke-linejoin="round" d="M231.3484,931.6459L45.27626,967.8146L147.0014,855.3519L231.3484,931.6459Z"/>
<path fill="none" stroke="#3AFC5A" stroke-width="1" stroke-linecap="round" stroke-linejoin="round" d="M45.27625,967.8146L21.43451,845.1595L95.56761,912.2147L45.27625,967.8146Z"/>
<path fill="none" stroke="#3AFC5A" stroke-width="1" stroke-linecap="round" stroke-linejoin="round" d="M21.43451,845.1595L80.30891,833.7156L48.12243,869.2994L21.43451,845.1595Z"/>
<path fill="none" stroke="#3AFC5A" stroke-width="1" stroke-linecap="round" stroke-linejoin="round" d="M127.7541,876.6309L48.12243,869.2994L95.56761,912.2147L127.7541,876.6309Z"/>
<path fill="none" stroke="#3AFC5A" stroke-width="1" stroke-linecap="round" stroke-linejoin="round" d="M48.12243,869.2994L127.7541,876.6309L80.30891,833.7156L48.12243,869.2994Z"/>
<path fill="none" stroke="#3AFC5A" stroke-width="1" stroke-linecap="round" stroke-linejoin="round" d="M55.29679,790.4803L100.7923,767.0384L82.92735,803.8791L55.29679,790.4803Z"/>
<path fill="none" stroke="#3AFC5A" stroke-width="1" stroke-linecap="round" stroke-linejoin="round" d="M100.7923,767.0384L55.29679,790.4803L73.16177,753.6396L100.7923,767.0384Z"/>
<path fill="none" stroke="#3AFC5A" stroke-width="1" stroke-linecap="round" stroke-linejoin="round" d="M73.16177,753.6396L6.175809,766.6604L55.29679,790.4803L73.16177,753.6396Z"/>
<path fill="none" stroke="#3AFC5A" stroke-width="1" stroke-linecap="round" stroke-linejoin="round" d="M6.175807,766.6604L-3.589768,716.421L26.77515,743.8867L6.175807,766.6604Z"/>
<path fill="none" stroke="#3AFC5A" stroke-width="1" stroke-linecap="round" stroke-linejoin="round" d="M33.03128,675.9344L26.77515,743.8867L63.3962,703.4001L33.03128,675.9344Z"/>
<path fill="none" stroke="#3AFC5A" stroke-width="1" stroke-linecap="round" stroke-linejoin="round" d="M26.77515,743.8867L33.03128,675.9344L-3.589768,716.421L26.77515,743.8867Z"/>
<path fill="none" stroke="#3AFC5A" stroke-width="1" stroke-linecap="round" stroke-linejoin="round" d="M-3.589768,716.421L-20.95078,627.1063L33.03128,675.9344L-3.589768,716.421Z"/>
<path fill="none" stroke="#3AFC5A" stroke-width="1" stroke-linecap="round" stroke-linejoin="round" d="M433.3269,538.8036L353.6953,531.4722L401.1404,574.3875L433.3269,538.8036Z"/>
<path fill="none" stroke="#3AFC5A" stroke-width="1" stroke-linecap="round" stroke-linejoin="round" d="M353.6953,531.4722L350.1762,569.6954L370.7755,546.9218L353.6953,531.4722Z"/>
<path fill="none" stroke="#3AFC5A" stroke-width="1" stroke-linecap="round" stroke-linejoin="round" d="M380.5411,597.1613L370.7755,546.9218L401.1404,574.3875L380.5411,597.1613Z"/>
<path fill="none" stroke="#3AFC5A" stroke-width="1" stroke-linecap="round" stroke-linejoin="round" d="M370.7755,546.9218L380.5411,597.1613L350.1762,569.6954L370.7755,546.9218Z"/>
<path fill="none" stroke="#3AFC5A" stroke-width="1" stroke-linecap="round" stroke-linejoin="round" d="M202.3526,624.6142L196.0965,692.5665L232.7176,652.08L202.3526,624.6142Z"/>
<path fill="none" stroke="#3AFC5A" stroke-width="1" stroke-linecap="round" stroke-linejoin="round" d="M200.2482,647.4714L120.6166,640.14L168.0618,683.0553L200.2482,647.4714Z"/>
<path fill="none" stroke="#3AFC5A" stroke-width="1" stroke-linecap="round" stroke-linejoin="round" d="M168.0618,683.0553L63.3962,703.4001L120.6166,640.14L168.0618,683.0553Z"/>
<path fill="none" stroke="#3AFC5A" stroke-width="1" stroke-linecap="round" stroke-linejoin="round" d="M120.6166,640.14L-20.95078,627.1063L63.3962,703.4001L120.6166,640.14Z"/>
<path fill="none" stroke="#3AFC5A" stroke-width="1" stroke-linecap="round" stroke-linejoin="round" d="M200.2482,647.4714L149.284,642.7793L184.1533,621.3194L200.2482,647.4714Z"/>
<path fill="none" stroke="#3AFC5A" stroke-width="1" stroke-linecap="round" stroke-linejoin="round" d="M120.6708,596.2869L184.1533,621.3194L155.5401,574.827L120.6708,596.2869Z"/>
<path fill="none" stroke="#3AFC5A" stroke-width="1" stroke-linecap="round" stroke-linejoin="round" d="M184.1533,621.3194L120.6708,596.2869L149.284,642.7793L184.1533,621.3194Z"/>
<path fill="none" stroke="#3AFC5A" stroke-width="1" stroke-linecap="round" stroke-linejoin="round" d="M149.284,642.7793L58.68087,634.4377L120.6708,596.2869L149.284,642.7793Z"/>
<path fill="none" stroke="#3AFC5A" stroke-width="1" stroke-linecap="round" stroke-linejoin="round" d="M58.68087,634.4377L68.45609,528.2622L113.1642,600.9067L58.68087,634.4377Z"/>
<path fill="none" stroke="#3AFC5A" stroke-width="1" stroke-linecap="round" stroke-linejoin="round" d="M68.45609,528.2622L119.4203,532.9543L84.55101,554.4142L68.45609,528.2622Z"/>
<path fill="none" stroke="#3AFC5A" stroke-width="1" stroke-linecap="round" stroke-linejoin="round" d="M148.0335,579.4468L84.55101,554.4142L113.1642,600.9067L148.0335,579.4468Z"/>
<path fill="none" stroke="#3AFC5A" stroke-width="1" stroke-linecap="round" stroke-linejoin="round" d="M84.55101,554.4142L148.0335,579.4468L119.4203,532.9543L84.55101,554.4142Z"/>
<path fill="none" stroke="#3AFC5A" stroke-width="1" stroke-linecap="round" stroke-linejoin="round" d="M-20.95078,627.1063L-63.33605,409.0531L68.45608,528.2622L-20.95078,627.1063Z"/>
<path fill="none" stroke="#3AFC5A" stroke-width="1" stroke-linecap="round" stroke-linejoin="round" d="M-63.33605,409.0531L41.32952,388.7082L-15.89088,451.9684L-63.33605,409.0531Z"/>
<path fill="none" stroke="#3AFC5A" stroke-width="1" stroke-linecap="round" stroke-linejoin="round" d="M125.6765,465.002L-15.89088,451.9684L68.45608,528.2622L125.6765,465.002Z"/>
<path fill="none" stroke="#3AFC5A" stroke-width="1" stroke-linecap="round" stroke-linejoin="round" d="M-15.89088,451.9684L125.6765,465.002L41.32952,388.7082L-15.89088,451.9684Z"/>
<path fill="none" stroke="#3AFC5A" stroke-width="1" stroke-linecap="round" stroke-linejoin="round" d="M122.7361,372.8843L112.9705,322.6449L143.3354,350.1107L122.7361,372.8843Z"/>
<path fill="none" stroke="#3AFC5A" stroke-width="1" stroke-linecap="round" stroke-linejoin="round" d="M95.60947,233.3302L28.6235,246.351L77.74449,270.171L95.60947,233.3302Z"/>
<path fill="none" stroke="#3AFC5A" stroke-width="1" stroke-linecap="round" stroke-linejoin="round" d="M-3.136457,311.8456L77.74449,270.171L45.98452,335.6656L-3.136457,311.8456Z"/>
<path fill="none" stroke="#3AFC5A" stroke-width="1" stroke-linecap="round" stroke-linejoin="round" d="M77.74449,270.171L-3.136457,311.8456L28.6235,246.351L77.74449,270.171Z"/>
<path fill="none" stroke="#3AFC5A" stroke-width="1" stroke-linecap="round" stroke-linejoin="round" d="M28.6235,246.351L-90.46263,269.499L-3.136457,311.8456L28.6235,246.351Z"/>
<path fill="none" stroke="#3AFC5A" stroke-width="1" stroke-linecap="round" stroke-linejoin="round" d="M-138.6876,21.4029L116.8435,-28.26734L-22.85469,126.1765L-138.6876,21.4029Z"/>
<path fill="none" stroke="#3AFC5A" stroke-width="1" stroke-linecap="round" stroke-linejoin="round" d="M116.8435,-28.26734L140.6853,94.38762L66.55217,27.33246L116.8435,-28.26734Z"/>
<path fill="none" stroke="#3AFC5A" stroke-width="1" stroke-linecap="round" stroke-linejoin="round" d="M51.27841,193.2317L66.55217,27.33246L-22.85469,126.1765L51.27841,193.2317Z"/>
<path fill="none" stroke="#3AFC5A" stroke-width="1" stroke-linecap="round" stroke-linejoin="round" d="M66.55217,27.33246L51.27841,193.2317L140.6853,94.38762L66.55217,27.33246Z"/>
<path fill="none" stroke="#3AFC5A" stroke-width="1" stroke-linecap="round" stroke-linejoin="round" d="M159.2288,189.7859L218.1032,178.3419L185.9167,213.9257L159.2288,189.7859Z"/>
<path fill="none" stroke="#3AFC5A" stroke-width="1" stroke-linecap="round" stroke-linejoin="round" d="M404.2696,332.8059L353.3054,328.1138L388.1747,306.6539L404.2696,332.8059Z"/>
<path fill="none" stroke="#3AFC5A" stroke-width="1" stroke-linecap="round" stroke-linejoin="round" d="M414.0448,226.6304L420.301,158.6781L383.6799,199.1646L414.0448,226.6304Z"/>
<path fill="none" stroke="#3AFC5A" stroke-width="1" stroke-linecap="round" stroke-linejoin="round" d="M366.3189,109.85L383.6799,199.1646L329.6978,150.3365L366.3189,109.85Z"/>
<path fill="none" stroke="#3AFC5A" stroke-width="1" stroke-linecap="round" stroke-linejoin="round" d="M383.6799,199.1646L366.3189,109.85L420.301,158.6781L383.6799,199.1646Z"/>
<path fill="none" stroke="#3AFC5A" stroke-width="1" stroke-linecap="round" stroke-linejoin="round" d="M420.301,158.6781L431.423,37.87394L366.3189,109.85L420.301,158.6781Z"/>
</g>
<g>
<path fill="none" stroke="#D10492" stroke-width="1" stroke-linecap="round" stroke-linejoin="round" d="M565.119,658.0128L517.6739,615.0975L527.4395,665.337L565.119,658.0128Z"/>
<path fill="none" stroke="#D10492" stroke-width="1" stroke-linecap="round" stroke-linejoin="round" d="M433.3269,538.8036L383.0355,594.4034L441.9099,582.9594L433.3269,538.8036Z"/>
<path fill="none" stroke="#D10492" stroke-width="1" stroke-linecap="round" stroke-linejoin="round" d="M447.4031,611.2192L404.2303,590.2836L441.9099,582.9594L447.4031,611.2192Z"/>
<path fill="none" stroke="#D10492" stroke-width="1" stroke-linecap="round" stroke-linejoin="round" d="M383.0355,594.4034L400.1158,609.8529L381.7687,608.1638L383.0355,594.4034Z"/>
<path fill="none" stroke="#D10492" stroke-width="1" stroke-linecap="round" stroke-linejoin="round" d="M484.2952,801.0127L407.5437,763.794L474.5297,750.7732L484.2952,801.0127Z"/>
<path fill="none" stroke="#D10492" stroke-width="1" stroke-linecap="round" stroke-linejoin="round" d="M407.5437,763.794L425.4087,726.9532L431.6586,759.1066L407.5437,763.794Z"/>
<path fill="none" stroke="#D10492" stroke-width="1" stroke-linecap="round" stroke-linejoin="round" d="M468.2797,718.62L431.6586,759.1066L474.5297,750.7732L468.2797,718.62Z"/>
<path fill="none" stroke="#D10492" stroke-width="1" stroke-linecap="round" stroke-linejoin="round" d="M431.6586,759.1066L468.2797,718.62L425.4087,726.9532L431.6586,759.1066Z"/>
<path fill="none" stroke="#D10492" stroke-width="1" stroke-linecap="round" stroke-linejoin="round" d="M413.5529,751.4018L370.3802,730.4662L408.0598,723.1421L413.5529,751.4018Z"/>
<path fill="none" stroke="#D10492" stroke-width="1" stroke-linecap="round" stroke-linejoin="round" d="M413.5529,751.4018L385.9224,738.0031L397.1745,759.8409L413.5529,751.4018Z"/>
<path fill="none" stroke="#D10492" stroke-width="1" stroke-linecap="round" stroke-linejoin="round" d="M385.6389,808.9655L367.7739,845.8063L361.5239,813.653L385.6389,808.9655Z"/>
<path fill="none" stroke="#D10492" stroke-width="1" stroke-linecap="round" stroke-linejoin="round" d="M324.9029,854.1396L361.5239,813.653L318.6529,821.9863L324.9029,854.1396Z"/>
<path fill="none" stroke="#D10492" stroke-width="1" stroke-linecap="round" stroke-linejoin="round" d="M361.5239,813.653L324.9029,854.1396L367.7739,845.8063L361.5239,813.653Z"/>
<path fill="none" stroke="#D10492" stroke-width="1" stroke-linecap="round" stroke-linejoin="round" d="M367.7739,845.8063L336.0139,911.3009L324.9029,854.1396L367.7739,845.8063Z"/>
<path fill="none" stroke="#D10492" stroke-width="1" stroke-linecap="round" stroke-linejoin="round" d="M251.667,835.007L336.0139,911.3009L318.6529,821.9863L251.667,835.007Z"/>
<path fill="none" stroke="#D10492" stroke-width="1" stroke-linecap="round" stroke-linejoin="round" d="M230.5828,863.047L201.9696,816.5545L197.9656,860.044L230.5828,863.047Z"/>
<path fill="none" stroke="#D10492" stroke-width="1" stroke-linecap="round" stroke-linejoin="round" d="M201.9696,816.5545L230.5828,863.047L234.5867,819.5575L201.9696,816.5545Z"/>
<path fill="none" stroke="#D10492" stroke-width="1" stroke-linecap="round" stroke-linejoin="round" d="M234.5867,819.5575L288.5688,868.3856L230.5828,863.047L234.5867,819.5575Z"/>
<path fill="none" stroke="#D10492" stroke-width="1" stroke-linecap="round" stroke-linejoin="round" d="M80.30891,833.7156L127.7541,876.6309L117.9885,826.3914L80.30891,833.7156Z"/>
<path fill="none" stroke="#D10492" stroke-width="1" stroke-linecap="round" stroke-linejoin="round" d="M127.7541,876.6309L148.3534,853.8572L124.2385,858.5447L127.7541,876.6309Z"/>
<path fill="none" stroke="#D10492" stroke-width="1" stroke-linecap="round" stroke-linejoin="round" d="M142.1035,821.704L124.2385,858.5447L117.9885,826.3914L142.1035,821.704Z"/>
<path fill="none" stroke="#D10492" stroke-width="1" stroke-linecap="round" stroke-linejoin="round" d="M124.2385,858.5447L142.1035,821.704L148.3534,853.8572L124.2385,858.5447Z"/>
<path fill="none" stroke="#D10492" stroke-width="1" stroke-linecap="round" stroke-linejoin="round" d="M82.92735,803.8791L92.9764,783.1562L96.492,801.2424L82.92735,803.8791Z"/>
<path fill="none" stroke="#D10492" stroke-width="1" stroke-linecap="round" stroke-linejoin="round" d="M100.7923,767.0384L90.84533,762.2148L99.52671,760.5273L100.7923,767.0384Z"/>
<path fill="none" stroke="#D10492" stroke-width="1" stroke-linecap="round" stroke-linejoin="round" d="M88.59534,750.6396L99.52671,760.5273L97.27672,748.9521L88.59534,750.6396Z"/>
<path fill="none" stroke="#D10492" stroke-width="1" stroke-linecap="round" stroke-linejoin="round" d="M99.52671,760.5273L88.59534,750.6396L90.84533,762.2148L99.52671,760.5273Z"/>
<path fill="none" stroke="#D10492" stroke-width="1" stroke-linecap="round" stroke-linejoin="round" d="M90.84533,762.2148L73.16177,753.6396L88.59534,750.6396L90.84533,762.2148Z"/>
<path fill="none" stroke="#D10492" stroke-width="1" stroke-linecap="round" stroke-linejoin="round" d="M63.3962,703.4001L42.79686,726.1738L66.91181,721.4864L63.3962,703.4001Z"/>
<path fill="none" stroke="#D10492" stroke-width="1" stroke-linecap="round" stroke-linejoin="round" d="M49.04683,758.3271L66.91181,721.4864L73.16177,753.6396L49.04683,758.3271Z"/>
<path fill="none" stroke="#D10492" stroke-width="1" stroke-linecap="round" stroke-linejoin="round" d="M66.91181,721.4864L49.04683,758.3271L42.79686,726.1738L66.91181,721.4864Z"/>
<path fill="none" stroke="#D10492" stroke-width="1" stroke-linecap="round" stroke-linejoin="round" d="M42.79686,726.1738L6.175808,766.6604L49.04683,758.3271L42.79686,726.1738Z"/>
<path fill="none" stroke="#D10492" stroke-width="1" stroke-linecap="round" stroke-linejoin="round" d="M287.1854,474.5215L305.0504,437.6807L311.3003,469.834L287.1854,474.5215Z"/>
<path fill="none" stroke="#D10492" stroke-width="1" stroke-linecap="round" stroke-linejoin="round" d="M312.3589,502.9963L348.9799,462.5098L306.1089,470.8431L312.3589,502.9963Z"/>
<path fill="none" stroke="#D10492" stroke-width="1" stroke-linecap="round" stroke-linejoin="round" d="M348.9799,462.5098L379.3448,489.9756L346.7277,486.9727L348.9799,462.5098Z"/>
<path fill="none" stroke="#D10492" stroke-width="1" stroke-linecap="round" stroke-linejoin="round" d="M375.3409,533.4651L346.7277,486.9727L342.7238,530.4621L375.3409,533.4651Z"/>
<path fill="none" stroke="#D10492" stroke-width="1" stroke-linecap="round" stroke-linejoin="round" d="M346.7277,486.9727L375.3409,533.4651L379.3448,489.9756L346.7277,486.9727Z"/>
<path fill="none" stroke="#D10492" stroke-width="1" stroke-linecap="round" stroke-linejoin="round" d="M379.3448,489.9756L433.3269,538.8036L375.3409,533.4651L379.3448,489.9756Z"/>
<path fill="none" stroke="#D10492" stroke-width="1" stroke-linecap="round" stroke-linejoin="round" d="M350.1762,569.6954L380.5411,597.1613L347.924,594.1583L350.1762,569.6954Z"/>
<path fill="none" stroke="#D10492" stroke-width="1" stroke-linecap="round" stroke-linejoin="round" d="M380.5411,597.1613L367.3575,611.7365L368.7989,596.0802L380.5411,597.1613Z"/>
<path fill="none" stroke="#D10492" stroke-width="1" stroke-linecap="round" stroke-linejoin="round" d="M346.4825,609.8146L368.7989,596.0802L347.924,594.1583L346.4825,609.8146Z"/>
<path fill="none" stroke="#D10492" stroke-width="1" stroke-linecap="round" stroke-linejoin="round" d="M368.7989,596.0802L346.4825,609.8146L367.3575,611.7365L368.7989,596.0802Z"/>
<path fill="none" stroke="#D10492" stroke-width="1" stroke-linecap="round" stroke-linejoin="round" d="M314.0217,555.8888L353.6953,531.4722L316.5842,528.0555L314.0217,555.8888Z"/>
<path fill="none" stroke="#D10492" stroke-width="1" stroke-linecap="round" stroke-linejoin="round" d="M353.6953,531.4722L299.2119,565.0033L350.1762,569.6954L353.6953,531.4722Z"/>
<path fill="none" stroke="#D10492" stroke-width="1" stroke-linecap="round" stroke-linejoin="round" d="M299.2119,565.0033L315.3069,591.1553L317.5591,566.6925L299.2119,565.0033Z"/>
<path fill="none" stroke="#D10492" stroke-width="1" stroke-linecap="round" stroke-linejoin="round" d="M347.924,594.1583L317.5591,566.6925L350.1762,569.6954L347.924,594.1583Z"/>
<path fill="none" stroke="#D10492" stroke-width="1" stroke-linecap="round" stroke-linejoin="round" d="M317.5591,566.6925L347.924,594.1583L315.3069,591.1553L317.5591,566.6925Z"/>
<path fill="none" stroke="#D10492" stroke-width="1" stroke-linecap="round" stroke-linejoin="round" d="M299.2119,565.0033L309.5127,581.7406L294.8863,575.9731L299.2119,565.0033Z"/>
<path fill="none" stroke="#D10492" stroke-width="1" stroke-linecap="round" stroke-linejoin="round" d="M301.8227,601.2425L294.8863,575.9731L287.1963,595.475L301.8227,601.2425Z"/>
<path fill="none" stroke="#D10492" stroke-width="1" stroke-linecap="round" stroke-linejoin="round" d="M294.8863,575.9731L301.8227,601.2425L309.5127,581.7406L294.8863,575.9731Z"/>
<path fill="none" stroke="#D10492" stroke-width="1" stroke-linecap="round" stroke-linejoin="round" d="M309.5127,581.7406L327.8251,611.4958L301.8227,601.2425L309.5127,581.7406Z"/>
<path fill="none" stroke="#D10492" stroke-width="1" stroke-linecap="round" stroke-linejoin="round" d="M282.655,616.2184L264.3426,586.4633L290.345,596.7166L282.655,616.2184Z"/>
<path fill="none" stroke="#D10492" stroke-width="1" stroke-linecap="round" stroke-linejoin="round" d="M286.6996,700.908L267.2661,683.3299L271.2661,703.908L286.6996,700.908Z"/>
<path fill="none" stroke="#D10492" stroke-width="1" stroke-linecap="round" stroke-linejoin="round" d="M239.8286,688.6632L271.2661,703.908L243.8286,709.2413L239.8286,688.6632Z"/>
<path fill="none" stroke="#D10492" stroke-width="1" stroke-linecap="round" stroke-linejoin="round" d="M271.2661,703.908L239.8286,688.6632L267.2661,683.3299L271.2661,703.908Z"/>
<path fill="none" stroke="#D10492" stroke-width="1" stroke-linecap="round" stroke-linejoin="round" d="M267.2661,683.3299L232.7176,652.08L239.8286,688.6632L267.2661,683.3299Z"/>
<path fill="none" stroke="#D10492" stroke-width="1" stroke-linecap="round" stroke-linejoin="round" d="M232.7176,652.08L196.0965,692.5665L238.9675,684.2332L232.7176,652.08Z"/>
<path fill="none" stroke="#D10492" stroke-width="1" stroke-linecap="round" stroke-linejoin="round" d="M196.0965,692.5665L215.5301,710.1447L211.5301,689.5665L196.0965,692.5665Z"/>
<path fill="none" stroke="#D10492" stroke-width="1" stroke-linecap="round" stroke-linejoin="round" d="M242.9675,704.8113L211.5301,689.5665L238.9675,684.2332L242.9675,704.8113Z"/>
<path fill="none" stroke="#D10492" stroke-width="1" stroke-linecap="round" stroke-linejoin="round" d="M211.5301,689.5665L242.9675,704.8113L215.5301,710.1447L211.5301,689.5665Z"/>
<path fill="none" stroke="#D10492" stroke-width="1" stroke-linecap="round" stroke-linejoin="round" d="M143.0279,710.7316L200.2482,647.4714L193.9921,715.4237L143.0279,710.7316Z"/>
<path fill="none" stroke="#D10492" stroke-width="1" stroke-linecap="round" stroke-linejoin="round" d="M125.1908,691.3885L107.3258,728.2292L101.0758,696.076L125.1908,691.3885Z"/>
<path fill="none" stroke="#D10492" stroke-width="1" stroke-linecap="round" stroke-linejoin="round" d="M131.4407,723.5418L168.0618,683.0553L125.1908,691.3885L131.4407,723.5418Z"/>
<path fill="none" stroke="#D10492" stroke-width="1" stroke-linecap="round" stroke-linejoin="round" d="M155.5401,574.827L171.6351,600.9789L173.8873,576.5161L155.5401,574.827Z"/>
<path fill="none" stroke="#D10492" stroke-width="1" stroke-linecap="round" stroke-linejoin="round" d="M173.8873,576.5161L204.2522,603.9819L171.6351,600.9789L173.8873,576.5161Z"/>
<path fill="none" stroke="#D10492" stroke-width="1" stroke-linecap="round" stroke-linejoin="round" d="M171.6351,600.9789L200.2482,647.4714L204.2522,603.9819L171.6351,600.9789Z"/>
<path fill="none" stroke="#D10492" stroke-width="1" stroke-linecap="round" stroke-linejoin="round" d="M119.4203,532.9543L148.0335,579.4468L152.0375,535.9573L119.4203,532.9543Z"/>
<path fill="none" stroke="#D10492" stroke-width="1" stroke-linecap="round" stroke-linejoin="round" d="M148.0335,579.4468L170.3499,565.7125L149.4749,563.7905L148.0335,579.4468Z"/>
<path fill="none" stroke="#D10492" stroke-width="1" stroke-linecap="round" stroke-linejoin="round" d="M172.9124,537.8792L149.4749,563.7905L152.0375,535.9573L172.9124,537.8792Z"/>
<path fill="none" stroke="#D10492" stroke-width="1" stroke-linecap="round" stroke-linejoin="round" d="M149.4749,563.7905L172.9124,537.8792L170.3499,565.7125L149.4749,563.7905Z"/>
<path fill="none" stroke="#D10492" stroke-width="1" stroke-linecap="round" stroke-linejoin="round" d="M68.45609,528.2622L125.6765,465.002L119.4203,532.9543L68.45609,528.2622Z"/>
<path fill="none" stroke="#D10492" stroke-width="1" stroke-linecap="round" stroke-linejoin="round" d="M125.6765,465.002L156.0414,492.4678L123.4243,489.4648L125.6765,465.002Z"/>
<path fill="none" stroke="#D10492" stroke-width="1" stroke-linecap="round" stroke-linejoin="round" d="M152.0375,535.9573L123.4243,489.4648L119.4203,532.9543L152.0375,535.9573Z"/>
<path fill="none" stroke="#D10492" stroke-width="1" stroke-linecap="round" stroke-linejoin="round" d="M123.4243,489.4648L152.0375,535.9573L156.0414,492.4678L123.4243,489.4648Z"/>
<path fill="none" stroke="#D10492" stroke-width="1" stroke-linecap="round" stroke-linejoin="round" d="M162.2975,424.5154L125.6765,465.002L168.5475,456.6687L162.2975,424.5154Z"/>
<path fill="none" stroke="#D10492" stroke-width="1" stroke-linecap="round" stroke-linejoin="round" d="M125.6765,465.002L145.11,482.5801L141.11,462.002L125.6765,465.002Z"/>
<path fill="none" stroke="#D10492" stroke-width="1" stroke-linecap="round" stroke-linejoin="round" d="M172.5475,477.2468L141.11,462.002L168.5475,456.6687L172.5475,477.2468Z"/>
<path fill="none" stroke="#D10492" stroke-width="1" stroke-linecap="round" stroke-linejoin="round" d="M141.11,462.002L172.5475,477.2468L145.11,482.5801L141.11,462.002Z"/>
<path fill="none" stroke="#D10492" stroke-width="1" stroke-linecap="round" stroke-linejoin="round" d="M162.2975,424.5154L185.735,398.6041L183.1725,426.4373L162.2975,424.5154Z"/>
<path fill="none" stroke="#D10492" stroke-width="1" stroke-linecap="round" stroke-linejoin="round" d="M41.32953,388.7082L125.6765,465.002L108.3155,375.6874L41.32953,388.7082Z"/>
<path fill="none" stroke="#D10492" stroke-width="1" stroke-linecap="round" stroke-linejoin="round" d="M125.6765,465.002L162.2975,424.5155L119.4265,432.8488L125.6765,465.002Z"/>
<path fill="none" stroke="#D10492" stroke-width="1" stroke-linecap="round" stroke-linejoin="round" d="M151.1865,367.3541L119.4265,432.8488L108.3155,375.6874L151.1865,367.3541Z"/>
<path fill="none" stroke="#D10492" stroke-width="1" stroke-linecap="round" stroke-linejoin="round" d="M119.4265,432.8488L151.1865,367.3541L162.2975,424.5155L119.4265,432.8488Z"/>
<path fill="none" stroke="#D10492" stroke-width="1" stroke-linecap="round" stroke-linejoin="round" d="M179.9564,309.6241L159.3571,332.3978L183.472,327.7103L179.9564,309.6241Z"/>
<path fill="none" stroke="#D10492" stroke-width="1" stroke-linecap="round" stroke-linejoin="round" d="M165.6071,364.551L183.472,327.7103L189.722,359.8636L165.6071,364.551Z"/>
<path fill="none" stroke="#D10492" stroke-width="1" stroke-linecap="round" stroke-linejoin="round" d="M183.472,327.7103L165.6071,364.551L159.3571,332.3978L183.472,327.7103Z"/>
<path fill="none" stroke="#D10492" stroke-width="1" stroke-linecap="round" stroke-linejoin="round" d="M159.3571,332.3978L122.7361,372.8843L165.6071,364.551L159.3571,332.3978Z"/>
<path fill="none" stroke="#D10492" stroke-width="1" stroke-linecap="round" stroke-linejoin="round" d="M179.9564,309.6241L166.7729,324.1992L168.2143,308.543L179.9564,309.6241Z"/>
<path fill="none" stroke="#D10492" stroke-width="1" stroke-linecap="round" stroke-linejoin="round" d="M145.8979,322.2774L168.2143,308.543L147.3393,306.6212L145.8979,322.2774Z"/>
<path fill="none" stroke="#D10492" stroke-width="1" stroke-linecap="round" stroke-linejoin="round" d="M168.2143,308.543L145.8979,322.2774L166.7729,324.1992L168.2143,308.543Z"/>
<path fill="none" stroke="#D10492" stroke-width="1" stroke-linecap="round" stroke-linejoin="round" d="M166.7729,324.1992L143.3354,350.1107L145.8979,322.2774L166.7729,324.1992Z"/>
<path fill="none" stroke="#D10492" stroke-width="1" stroke-linecap="round" stroke-linejoin="round" d="M143.3354,350.1107L112.9705,322.6449L145.5876,325.6478L143.3354,350.1107Z"/>
<path fill="none" stroke="#D10492" stroke-width="1" stroke-linecap="round" stroke-linejoin="round" d="M112.9705,322.6449L126.1541,308.0697L124.7126,323.7259L112.9705,322.6449Z"/>
<path fill="none" stroke="#D10492" stroke-width="1" stroke-linecap="round" stroke-linejoin="round" d="M147.029,309.9916L124.7126,323.7259L145.5876,325.6478L147.029,309.9916Z"/>
<path fill="none" stroke="#D10492" stroke-width="1" stroke-linecap="round" stroke-linejoin="round" d="M124.7126,323.7259L147.029,309.9916L126.1541,308.0697L124.7126,323.7259Z"/>
<path fill="none" stroke="#D10492" stroke-width="1" stroke-linecap="round" stroke-linejoin="round" d="M122.7361,372.8843L45.98452,335.6656L112.9705,322.6448L122.7361,372.8843Z"/>
<path fill="none" stroke="#D10492" stroke-width="1" stroke-linecap="round" stroke-linejoin="round" d="M45.98452,335.6656L63.8495,298.8249L70.09947,330.9781L45.98452,335.6656Z"/>
<path fill="none" stroke="#D10492" stroke-width="1" stroke-linecap="round" stroke-linejoin="round" d="M106.7205,290.4916L70.09947,330.9781L112.9705,322.6448L106.7205,290.4916Z"/>
<path fill="none" stroke="#D10492" stroke-width="1" stroke-linecap="round" stroke-linejoin="round" d="M70.09947,330.9781L106.7205,290.4916L63.8495,298.8249L70.09947,330.9781Z"/>
<path fill="none" stroke="#D10492" stroke-width="1" stroke-linecap="round" stroke-linejoin="round" d="M140.6853,94.38763L51.27841,193.2317L155.944,172.8868L140.6853,94.38763Z"/>
<path fill="none" stroke="#D10492" stroke-width="1" stroke-linecap="round" stroke-linejoin="round" d="M218.1032,178.3419L235.1835,193.7914L216.8363,192.1022L218.1032,178.3419Z"/>
<path fill="none" stroke="#D10492" stroke-width="1" stroke-linecap="round" stroke-linejoin="round" d="M279.8978,166.3302L262.0328,203.1709L255.7828,171.0177L279.8978,166.3302Z"/>
<path fill="none" stroke="#D10492" stroke-width="1" stroke-linecap="round" stroke-linejoin="round" d="M262.0328,203.1709L279.8978,166.3302L286.1478,198.4835L262.0328,203.1709Z"/>
<path fill="none" stroke="#D10492" stroke-width="1" stroke-linecap="round" stroke-linejoin="round" d="M286.1478,198.4835L322.7688,157.9969L279.8978,166.3302L286.1478,198.4835Z"/>
<path fill="none" stroke="#D10492" stroke-width="1" stroke-linecap="round" stroke-linejoin="round" d="M388.9958,498.7052L314.8627,431.65L394.4944,438.9814L388.9958,498.7052Z"/>
<path fill="none" stroke="#D10492" stroke-width="1" stroke-linecap="round" stroke-linejoin="round" d="M324.6379,325.4745L304.0386,348.2482L328.1536,343.5607L324.6379,325.4745Z"/>
<path fill="none" stroke="#D10492" stroke-width="1" stroke-linecap="round" stroke-linejoin="round" d="M241.0565,317.7794L269.6697,364.2719L273.6737,320.7823L241.0565,317.7794Z"/>
<path fill="none" stroke="#D10492" stroke-width="1" stroke-linecap="round" stroke-linejoin="round" d="M230.0851,316.7693L213.9902,290.6173L211.7379,315.0801L230.0851,316.7693Z"/>
<path fill="none" stroke="#D10492" stroke-width="1" stroke-linecap="round" stroke-linejoin="round" d="M213.9902,290.6173L230.0851,316.7693L232.3373,292.3065L213.9902,290.6173Z"/>
<path fill="none" stroke="#D10492" stroke-width="1" stroke-linecap="round" stroke-linejoin="round" d="M232.3373,292.3065L262.7022,319.7723L230.0851,316.7693L232.3373,292.3065Z"/>
<path fill="none" stroke="#D10492" stroke-width="1" stroke-linecap="round" stroke-linejoin="round" d="M262.7022,319.7723L245.6219,304.3228L263.9691,306.0119L262.7022,319.7723Z"/>
<path fill="none" stroke="#D10492" stroke-width="1" stroke-linecap="round" stroke-linejoin="round" d="M245.6219,304.3228L253.0377,296.1242L252.2269,304.9308L245.6219,304.3228Z"/>
<path fill="none" stroke="#D10492" stroke-width="1" stroke-linecap="round" stroke-linejoin="round" d="M264.7799,297.2053L252.2269,304.9308L263.9691,306.0119L264.7799,297.2053Z"/>
<path fill="none" stroke="#D10492" stroke-width="1" stroke-linecap="round" stroke-linejoin="round" d="M252.2269,304.9308L264.7799,297.2053L253.0377,296.1242L252.2269,304.9308Z"/>
<path fill="none" stroke="#D10492" stroke-width="1" stroke-linecap="round" stroke-linejoin="round" d="M408.2735,289.3164L377.9086,261.8506L410.5257,264.8536L408.2735,289.3164Z"/>
<path fill="none" stroke="#D10492" stroke-width="1" stroke-linecap="round" stroke-linejoin="round" d="M377.9086,261.8506L408.2735,289.3164L375.6564,286.3134L377.9086,261.8506Z"/>
<path fill="none" stroke="#D10492" stroke-width="1" stroke-linecap="round" stroke-linejoin="round" d="M375.6564,286.3134L404.2696,332.8059L408.2735,289.3164L375.6564,286.3134Z"/>
<path fill="none" stroke="#D10492" stroke-width="1" stroke-linecap="round" stroke-linejoin="round" d="M369.8622,276.8987L388.1747,306.6539L362.1722,296.4006L369.8622,276.8987Z"/>
<path fill="none" stroke="#D10492" stroke-width="1" stroke-linecap="round" stroke-linejoin="round" d="M388.1747,306.6539L353.3054,328.1138L365.321,297.6422L388.1747,306.6539Z"/>
<path fill="none" stroke="#D10492" stroke-width="1" stroke-linecap="round" stroke-linejoin="round" d="M353.3054,328.1138L343.0046,311.3765L357.631,317.144L353.3054,328.1138Z"/>
<path fill="none" stroke="#D10492" stroke-width="1" stroke-linecap="round" stroke-linejoin="round" d="M350.6946,291.8747L357.631,317.144L365.321,297.6422L350.6946,291.8747Z"/>
<path fill="none" stroke="#D10492" stroke-width="1" stroke-linecap="round" stroke-linejoin="round" d="M357.631,317.144L350.6946,291.8747L343.0046,311.3765L357.631,317.144Z"/>
<path fill="none" stroke="#D10492" stroke-width="1" stroke-linecap="round" stroke-linejoin="round" d="M299.8133,323.189L323.2507,297.2776L320.6882,325.1108L299.8133,323.189Z"/>
<path fill="none" stroke="#D10492" stroke-width="1" stroke-linecap="round" stroke-linejoin="round" d="M323.2507,297.2776L299.8133,323.189L302.3758,295.3557L323.2507,297.2776Z"/>
<path fill="none" stroke="#D10492" stroke-width="1" stroke-linecap="round" stroke-linejoin="round" d="M302.3758,295.3557L262.7022,319.7723L299.8133,323.189L302.3758,295.3557Z"/>
<path fill="none" stroke="#D10492" stroke-width="1" stroke-linecap="round" stroke-linejoin="round" d="M329.6978,150.3365L360.0627,177.8023L327.4456,174.7993L329.6978,150.3365Z"/>
</g>
<g>
<path fill="none" stroke="#1FF27D" stroke-width="1" stroke-linecap="round" stroke-linejoin="round" d="M528.498,698.4994L477.5337,693.8073L507.8986,721.273L528.498,698.4994Z"/>
<path fill="none" stroke="#1FF27D" stroke-width="1" stroke-linecap="round" stroke-linejoin="round" d="M477.5337,693.8073L528.498,698.4994L498.1331,671.0336L477.5337,693.8073Z"/>
<path fill="none" stroke="#1FF27D" stroke-width="1" stroke-linecap="round" stroke-linejoin="round" d="M498.1331,671.0336L565.119,658.0128L528.498,698.4994L498.1331,671.0336Z"/>
<path fill="none" stroke="#1FF27D" stroke-width="1" stroke-linecap="round" stroke-linejoin="round" d="M484.5684,673.6703L527.4395,665.337L496.002,650.0922L484.5684,673.6703Z"/>
<path fill="none" stroke="#1FF27D" stroke-width="1" stroke-linecap="round" stroke-linejoin="round" d="M527.4395,665.337L517.6739,615.0975L499.8089,651.9383L527.4395,665.337Z"/>
<path fill="none" stroke="#1FF27D" stroke-width="1" stroke-linecap="round" stroke-linejoin="round" d="M517.6739,615.0975L493.559,619.785L511.2425,628.3602L517.6739,615.0975Z"/>
<path fill="none" stroke="#1FF27D" stroke-width="1" stroke-linecap="round" stroke-linejoin="round" d="M482.1254,643.3631L511.2425,628.3602L499.8089,651.9383L482.1254,643.3631Z"/>
<path fill="none" stroke="#1FF27D" stroke-width="1" stroke-linecap="round" stroke-linejoin="round" d="M511.2425,628.3602L482.1254,643.3631L493.559,619.785L511.2425,628.3602Z"/>
<path fill="none" stroke="#1FF27D" stroke-width="1" stroke-linecap="round" stroke-linejoin="round" d="M467.8754,570.0536L463.8715,613.5431L487.309,587.6317L467.8754,570.0536Z"/>
<path fill="none" stroke="#1FF27D" stroke-width="1" stroke-linecap="round" stroke-linejoin="round" d="M463.8715,613.5431L467.8754,570.0536L444.438,595.965L463.8715,613.5431Z"/>
<path fill="none" stroke="#1FF27D" stroke-width="1" stroke-linecap="round" stroke-linejoin="round" d="M444.438,595.965L433.3269,538.8036L467.8754,570.0536L444.438,595.965Z"/>
<path fill="none" stroke="#1FF27D" stroke-width="1" stroke-linecap="round" stroke-linejoin="round" d="M383.0355,594.4034L404.2303,590.2836L392.6432,603.0938L383.0355,594.4034Z"/>
<path fill="none" stroke="#1FF27D" stroke-width="1" stroke-linecap="round" stroke-linejoin="round" d="M404.2303,590.2836L406.2078,600.4571L400.059,594.8953L404.2303,590.2836Z"/>
<path fill="none" stroke="#1FF27D" stroke-width="1" stroke-linecap="round" stroke-linejoin="round" d="M398.7921,608.6556L400.059,594.8953L392.6432,603.0938L398.7921,608.6556Z"/>
<path fill="none" stroke="#1FF27D" stroke-width="1" stroke-linecap="round" stroke-linejoin="round" d="M400.059,594.8953L398.7921,608.6556L406.2078,600.4571L400.059,594.8953Z"/>
<path fill="none" stroke="#1FF27D" stroke-width="1" stroke-linecap="round" stroke-linejoin="round" d="M429.7195,602.6439L413.3411,611.0831L419.7725,597.8204L429.7195,602.6439Z"/>
<path fill="none" stroke="#1FF27D" stroke-width="1" stroke-linecap="round" stroke-linejoin="round" d="M299.1218,721.5073L307.8032,719.8198L303.0571,725.0669L299.1218,721.5073Z"/>
<path fill="none" stroke="#1FF27D" stroke-width="1" stroke-linecap="round" stroke-linejoin="round" d="M303.0571,725.0669L314.7993,726.1479L307.8032,719.8198L303.0571,725.0669Z"/>
<path fill="none" stroke="#1FF27D" stroke-width="1" stroke-linecap="round" stroke-linejoin="round" d="M402.1193,774.9799L378.0044,779.6674L395.6879,788.2426L402.1193,774.9799Z"/>
<path fill="none" stroke="#1FF27D" stroke-width="1" stroke-linecap="round" stroke-linejoin="round" d="M378.0044,779.6674L402.1193,774.9799L384.4358,766.4047L378.0044,779.6674Z"/>
<path fill="none" stroke="#1FF27D" stroke-width="1" stroke-linecap="round" stroke-linejoin="round" d="M384.4358,766.4047L413.5529,751.4018L402.1193,774.9799L384.4358,766.4047Z"/>
<path fill="none" stroke="#1FF27D" stroke-width="1" stroke-linecap="round" stroke-linejoin="round" d="M378.5396,769.4427L397.1745,759.8409L380.6393,757.0414L378.5396,769.4427Z"/>
<path fill="none" stroke="#1FF27D" stroke-width="1" stroke-linecap="round" stroke-linejoin="round" d="M397.1745,759.8409L385.9224,738.0031L382.6416,757.3804L397.1745,759.8409Z"/>
<path fill="none" stroke="#1FF27D" stroke-width="1" stroke-linecap="round" stroke-linejoin="round" d="M385.9224,738.0031L375.4402,743.4041L384.7413,744.9789L385.9224,738.0031Z"/>
<path fill="none" stroke="#1FF27D" stroke-width="1" stroke-linecap="round" stroke-linejoin="round" d="M373.3405,755.8055L384.7413,744.9789L382.6416,757.3804L373.3405,755.8055Z"/>
<path fill="none" stroke="#1FF27D" stroke-width="1" stroke-linecap="round" stroke-linejoin="round" d="M251.667,835.007L275.7819,830.3196L258.0984,821.7444L251.667,835.007Z"/>
<path fill="none" stroke="#1FF27D" stroke-width="1" stroke-linecap="round" stroke-linejoin="round" d="M197.9656,860.044L200.2179,835.5812L187.0343,850.1564L197.9656,860.044Z"/>
<path fill="none" stroke="#1FF27D" stroke-width="1" stroke-linecap="round" stroke-linejoin="round" d="M148.3534,853.8572L142.1035,821.704L161.537,839.282L148.3534,853.8572Z"/>
<path fill="none" stroke="#1FF27D" stroke-width="1" stroke-linecap="round" stroke-linejoin="round" d="M142.1035,821.704L157.537,818.704L149.0995,828.0321L142.1035,821.704Z"/>
<path fill="none" stroke="#1FF27D" stroke-width="1" stroke-linecap="round" stroke-linejoin="round" d="M169.9745,829.954L149.0995,828.0321L161.537,839.282L169.9745,829.954Z"/>
<path fill="none" stroke="#1FF27D" stroke-width="1" stroke-linecap="round" stroke-linejoin="round" d="M149.0995,828.0321L169.9745,829.954L157.537,818.704L149.0995,828.0321Z"/>
<path fill="none" stroke="#1FF27D" stroke-width="1" stroke-linecap="round" stroke-linejoin="round" d="M150.215,820.1272L141.5337,821.8147L146.2798,816.5676L150.215,820.1272Z"/>
<path fill="none" stroke="#1FF27D" stroke-width="1" stroke-linecap="round" stroke-linejoin="round" d="M146.2798,816.5676L134.5376,815.4865L141.5337,821.8147L146.2798,816.5676Z"/>
<path fill="none" stroke="#1FF27D" stroke-width="1" stroke-linecap="round" stroke-linejoin="round" d="M141.5337,821.8147L126.1001,824.8146L134.5376,815.4865L141.5337,821.8147Z"/>
<path fill="none" stroke="#1FF27D" stroke-width="1" stroke-linecap="round" stroke-linejoin="round" d="M126.1001,824.8146L124.1226,814.6411L130.2715,820.2029L126.1001,824.8146Z"/>
<path fill="none" stroke="#1FF27D" stroke-width="1" stroke-linecap="round" stroke-linejoin="round" d="M132.9411,817.2515L126.3362,816.6434L130.2715,820.2029L132.9411,817.2515Z"/>
<path fill="none" stroke="#1FF27D" stroke-width="1" stroke-linecap="round" stroke-linejoin="round" d="M100.6109,812.4543L116.9893,804.0151L110.5579,817.2778L100.6109,812.4543Z"/>
<path fill="none" stroke="#1FF27D" stroke-width="1" stroke-linecap="round" stroke-linejoin="round" d="M116.9893,804.0151L100.6109,812.4543L107.0423,799.1917L116.9893,804.0151Z"/>
<path fill="none" stroke="#1FF27D" stroke-width="1" stroke-linecap="round" stroke-linejoin="round" d="M107.0423,799.1917L82.92735,803.8791L100.6109,812.4543L107.0423,799.1917Z"/>
<path fill="none" stroke="#1FF27D" stroke-width="1" stroke-linecap="round" stroke-linejoin="round" d="M104.9295,791.9143L116.6717,792.9954L109.6756,786.6672L104.9295,791.9143Z"/>
<path fill="none" stroke="#1FF27D" stroke-width="1" stroke-linecap="round" stroke-linejoin="round" d="M111.9256,798.2424L96.492,801.2424L104.9295,791.9143L111.9256,798.2424Z"/>
<path fill="none" stroke="#1FF27D" stroke-width="1" stroke-linecap="round" stroke-linejoin="round" d="M96.492,801.2424L92.9764,783.1562L103.9078,793.0439L96.492,801.2424Z"/>
<path fill="none" stroke="#1FF27D" stroke-width="1" stroke-linecap="round" stroke-linejoin="round" d="M92.9764,783.1562L101.6578,781.4687L96.9117,786.7158L92.9764,783.1562Z"/>
<path fill="none" stroke="#1FF27D" stroke-width="1" stroke-linecap="round" stroke-linejoin="round" d="M108.6539,787.7969L96.9117,786.7158L103.9078,793.0439L108.6539,787.7969Z"/>
<path fill="none" stroke="#1FF27D" stroke-width="1" stroke-linecap="round" stroke-linejoin="round" d="M96.9117,786.7158L108.6539,787.7969L101.6578,781.4687L96.9117,786.7158Z"/>
<path fill="none" stroke="#1FF27D" stroke-width="1" stroke-linecap="round" stroke-linejoin="round" d="M73.16177,753.6396L69.64617,735.5535L80.57755,745.4412L73.16177,753.6396Z"/>
<path fill="none" stroke="#1FF27D" stroke-width="1" stroke-linecap="round" stroke-linejoin="round" d="M82.82974,720.9783L80.57755,745.4412L93.76112,730.866L82.82974,720.9783Z"/>
<path fill="none" stroke="#1FF27D" stroke-width="1" stroke-linecap="round" stroke-linejoin="round" d="M80.57755,745.4412L82.82974,720.9783L69.64617,735.5535L80.57755,745.4412Z"/>
<path fill="none" stroke="#1FF27D" stroke-width="1" stroke-linecap="round" stroke-linejoin="round" d="M69.64617,735.5535L63.3962,703.4001L82.82974,720.9783L69.64617,735.5535Z"/>
<path fill="none" stroke="#1FF27D" stroke-width="1" stroke-linecap="round" stroke-linejoin="round" d="M348.9799,462.5098L311.3003,469.834L331.8996,447.0603L348.9799,462.5098Z"/>
<path fill="none" stroke="#1FF27D" stroke-width="1" stroke-linecap="round" stroke-linejoin="round" d="M311.3003,469.834L307.7847,451.7478L318.7161,461.6355L311.3003,469.834Z"/>
<path fill="none" stroke="#1FF27D" stroke-width="1" stroke-linecap="round" stroke-linejoin="round" d="M320.9683,437.1726L318.7161,461.6355L331.8996,447.0603L320.9683,437.1726Z"/>
<path fill="none" stroke="#1FF27D" stroke-width="1" stroke-linecap="round" stroke-linejoin="round" d="M318.7161,461.6355L320.9683,437.1726L307.7847,451.7478L318.7161,461.6355Z"/>
<path fill="none" stroke="#1FF27D" stroke-width="1" stroke-linecap="round" stroke-linejoin="round" d="M305.0504,437.6807L296.369,439.3682L301.1151,434.1212L305.0504,437.6807Z"/>
<path fill="none" stroke="#1FF27D" stroke-width="1" stroke-linecap="round" stroke-linejoin="round" d="M289.3729,433.0401L301.1151,434.1212L294.119,427.793L289.3729,433.0401Z"/>
<path fill="none" stroke="#1FF27D" stroke-width="1" stroke-linecap="round" stroke-linejoin="round" d="M301.1151,434.1212L289.3729,433.0401L296.369,439.3682L301.1151,434.1212Z"/>
<path fill="none" stroke="#1FF27D" stroke-width="1" stroke-linecap="round" stroke-linejoin="round" d="M294.5029,459.4315L287.3015,445.4553L298.619,450.9434L294.5029,459.4315Z"/>
<path fill="none" stroke="#1FF27D" stroke-width="1" stroke-linecap="round" stroke-linejoin="round" d="M312.3589,502.9963L310.1089,491.4212L305.9928,499.9093L312.3589,502.9963Z"/>
<path fill="none" stroke="#1FF27D" stroke-width="1" stroke-linecap="round" stroke-linejoin="round" d="M305.9928,499.9093L298.7914,485.933L310.1089,491.4212L305.9928,499.9093Z"/>
<path fill="none" stroke="#1FF27D" stroke-width="1" stroke-linecap="round" stroke-linejoin="round" d="M310.1089,491.4212L306.1089,470.8431L298.7914,485.933L310.1089,491.4212Z"/>
<path fill="none" stroke="#1FF27D" stroke-width="1" stroke-linecap="round" stroke-linejoin="round" d="M342.7238,530.4621L344.976,505.9993L331.7924,520.5745L342.7238,530.4621Z"/>
<path fill="none" stroke="#1FF27D" stroke-width="1" stroke-linecap="round" stroke-linejoin="round" d="M325.5424,488.4212L331.7924,520.5745L312.3589,502.9963L325.5424,488.4212Z"/>
<path fill="none" stroke="#1FF27D" stroke-width="1" stroke-linecap="round" stroke-linejoin="round" d="M331.7924,520.5745L325.5424,488.4212L344.976,505.9993L331.7924,520.5745Z"/>
<path fill="none" stroke="#1FF27D" stroke-width="1" stroke-linecap="round" stroke-linejoin="round" d="M344.976,505.9993L348.9799,462.5098L325.5424,488.4212L344.976,505.9993Z"/>
<path fill="none" stroke="#1FF27D" stroke-width="1" stroke-linecap="round" stroke-linejoin="round" d="M202.3526,624.6142L205.8717,586.391L221.9666,612.543L202.3526,624.6142Z"/>
<path fill="none" stroke="#1FF27D" stroke-width="1" stroke-linecap="round" stroke-linejoin="round" d="M304.8809,561.5144L295.52,557.8232L299.7392,564.6788L304.8809,561.5144Z"/>
<path fill="none" stroke="#1FF27D" stroke-width="1" stroke-linecap="round" stroke-linejoin="round" d="M295.52,557.8232L304.8809,561.5144L300.6617,554.6588L295.52,557.8232Z"/>
<path fill="none" stroke="#1FF27D" stroke-width="1" stroke-linecap="round" stroke-linejoin="round" d="M300.6617,554.6588L314.0217,555.8888L304.8809,561.5144L300.6617,554.6588Z"/>
<path fill="none" stroke="#1FF27D" stroke-width="1" stroke-linecap="round" stroke-linejoin="round" d="M314.0217,555.8888L314.9442,545.8688L309.5442,551.8388L314.0217,555.8888Z"/>
<path fill="none" stroke="#1FF27D" stroke-width="1" stroke-linecap="round" stroke-linejoin="round" d="M306.9843,538.6688L309.5442,551.8388L301.5842,544.6388L306.9843,538.6688Z"/>
<path fill="none" stroke="#1FF27D" stroke-width="1" stroke-linecap="round" stroke-linejoin="round" d="M309.5442,551.8388L306.9843,538.6688L314.9442,545.8688L309.5442,551.8388Z"/>
<path fill="none" stroke="#1FF27D" stroke-width="1" stroke-linecap="round" stroke-linejoin="round" d="M314.9442,545.8688L316.5842,528.0555L306.9843,538.6688L314.9442,545.8688Z"/>
<path fill="none" stroke="#1FF27D" stroke-width="1" stroke-linecap="round" stroke-linejoin="round" d="M315.3069,591.1553L347.924,594.1583L325.6076,607.8926L315.3069,591.1553Z"/>
<path fill="none" stroke="#1FF27D" stroke-width="1" stroke-linecap="round" stroke-linejoin="round" d="M347.924,594.1583L346.4826,609.8146L339.8901,599.1027L347.924,594.1583Z"/>
<path fill="none" stroke="#1FF27D" stroke-width="1" stroke-linecap="round" stroke-linejoin="round" d="M287.1963,595.475L291.5219,584.5052L283.488,589.4495L287.1963,595.475Z"/>
<path fill="none" stroke="#1FF27D" stroke-width="1" stroke-linecap="round" stroke-linejoin="round" d="M283.488,589.4495L284.9294,573.7933L291.5219,584.5052L283.488,589.4495Z"/>
<path fill="none" stroke="#1FF27D" stroke-width="1" stroke-linecap="round" stroke-linejoin="round" d="M291.5219,584.5052L299.2119,565.0033L284.9294,573.7933L291.5219,584.5052Z"/>
<path fill="none" stroke="#1FF27D" stroke-width="1" stroke-linecap="round" stroke-linejoin="round" d="M304.9714,602.4841L300.6458,613.4539L308.6797,608.5096L304.9714,602.4841Z"/>
<path fill="none" stroke="#1FF27D" stroke-width="1" stroke-linecap="round" stroke-linejoin="round" d="M290.345,596.7166L304.9714,602.4841L292.8421,605.8135L290.345,596.7166Z"/>
<path fill="none" stroke="#1FF27D" stroke-width="1" stroke-linecap="round" stroke-linejoin="round" d="M304.9714,602.4841L302.203,609.5048L300.6049,603.6827L304.9714,602.4841Z"/>
<path fill="none" stroke="#1FF27D" stroke-width="1" stroke-linecap="round" stroke-linejoin="round" d="M294.4403,611.6356L300.6049,603.6827L292.8421,605.8135L294.4403,611.6356Z"/>
<path fill="none" stroke="#1FF27D" stroke-width="1" stroke-linecap="round" stroke-linejoin="round" d="M300.6049,603.6827L294.4403,611.6356L302.203,609.5048L300.6049,603.6827Z"/>
<path fill="none" stroke="#1FF27D" stroke-width="1" stroke-linecap="round" stroke-linejoin="round" d="M282.655,616.2184L285.4234,609.1978L287.0216,615.0198L282.655,616.2184Z"/>
<path fill="none" stroke="#1FF27D" stroke-width="1" stroke-linecap="round" stroke-linejoin="round" d="M293.1862,607.067L287.0216,615.0198L294.7843,612.889L293.1862,607.067Z"/>
<path fill="none" stroke="#1FF27D" stroke-width="1" stroke-linecap="round" stroke-linejoin="round" d="M287.0216,615.0198L293.1862,607.067L285.4234,609.1978L287.0216,615.0198Z"/>
<path fill="none" stroke="#1FF27D" stroke-width="1" stroke-linecap="round" stroke-linejoin="round" d="M285.4234,609.1978L290.345,596.7166L293.1862,607.067L285.4234,609.1978Z"/>
<path fill="none" stroke="#1FF27D" stroke-width="1" stroke-linecap="round" stroke-linejoin="round" d="M260.3387,629.9528L261.7801,614.2966L268.3726,625.0084L260.3387,629.9528Z"/>
<path fill="none" stroke="#1FF27D" stroke-width="1" stroke-linecap="round" stroke-linejoin="round" d="M276.0626,605.5066L268.3726,625.0084L282.655,616.2184L276.0626,605.5066Z"/>
<path fill="none" stroke="#1FF27D" stroke-width="1" stroke-linecap="round" stroke-linejoin="round" d="M268.3726,625.0084L276.0626,605.5066L261.7801,614.2966L268.3726,625.0084Z"/>
<path fill="none" stroke="#1FF27D" stroke-width="1" stroke-linecap="round" stroke-linejoin="round" d="M261.7801,614.2966L264.3426,586.4633L276.0626,605.5066L261.7801,614.2966Z"/>
<path fill="none" stroke="#1FF27D" stroke-width="1" stroke-linecap="round" stroke-linejoin="round" d="M264.3426,586.4633L262.9012,602.1195L256.3087,591.4076L264.3426,586.4633Z"/>
<path fill="none" stroke="#1FF27D" stroke-width="1" stroke-linecap="round" stroke-linejoin="round" d="M262.9012,602.1195L255.3862,601.4276L260.5279,598.2632L262.9012,602.1195Z"/>
<path fill="none" stroke="#1FF27D" stroke-width="1" stroke-linecap="round" stroke-linejoin="round" d="M260.3387,629.9528L261.2612,619.9328L255.8612,625.9028L260.3387,629.9528Z"/>
<path fill="none" stroke="#1FF27D" stroke-width="1" stroke-linecap="round" stroke-linejoin="round" d="M253.3012,612.7328L255.8612,625.9028L247.9012,618.7028L253.3012,612.7328Z"/>
<path fill="none" stroke="#1FF27D" stroke-width="1" stroke-linecap="round" stroke-linejoin="round" d="M255.8612,625.9028L253.3012,612.7328L261.2612,619.9328L255.8612,625.9028Z"/>
<path fill="none" stroke="#1FF27D" stroke-width="1" stroke-linecap="round" stroke-linejoin="round" d="M261.2612,619.9328L262.9012,602.1195L253.3012,612.7328L261.2612,619.9328Z"/>
<path fill="none" stroke="#1FF27D" stroke-width="1" stroke-linecap="round" stroke-linejoin="round" d="M226.1037,626.8009L202.3526,624.6142L218.6029,614.6132L226.1037,626.8009Z"/>
<path fill="none" stroke="#1FF27D" stroke-width="1" stroke-linecap="round" stroke-linejoin="round" d="M268.7722,684.6923L284.2057,681.6923L275.7682,691.0203L268.7722,684.6923Z"/>
<path fill="none" stroke="#1FF27D" stroke-width="1" stroke-linecap="round" stroke-linejoin="round" d="M284.2057,681.6923L268.7722,684.6923L277.2097,675.3641L284.2057,681.6923Z"/>
<path fill="none" stroke="#1FF27D" stroke-width="1" stroke-linecap="round" stroke-linejoin="round" d="M277.2097,675.3641L256.3347,673.4423L268.7722,684.6923L277.2097,675.3641Z"/>
<path fill="none" stroke="#1FF27D" stroke-width="1" stroke-linecap="round" stroke-linejoin="round" d="M277.2319,657.4019L284.9219,637.9001L270.6394,646.6901L277.2319,657.4019Z"/>
<path fill="none" stroke="#1FF27D" stroke-width="1" stroke-linecap="round" stroke-linejoin="round" d="M256.3347,673.4423L257.7761,657.7861L264.3686,668.4979L256.3347,673.4423Z"/>
<path fill="none" stroke="#1FF27D" stroke-width="1" stroke-linecap="round" stroke-linejoin="round" d="M272.0586,648.9961L264.3686,668.4979L278.6511,659.7079L272.0586,648.9961Z"/>
<path fill="none" stroke="#1FF27D" stroke-width="1" stroke-linecap="round" stroke-linejoin="round" d="M264.3686,668.4979L272.0586,648.9961L257.7761,657.7861L264.3686,668.4979Z"/>
<path fill="none" stroke="#1FF27D" stroke-width="1" stroke-linecap="round" stroke-linejoin="round" d="M257.7761,657.7861L260.3386,629.9528L272.0586,648.9961L257.7761,657.7861Z"/>
<path fill="none" stroke="#1FF27D" stroke-width="1" stroke-linecap="round" stroke-linejoin="round" d="M256.3347,673.4423L260.3386,629.9528L236.9012,655.8641L256.3347,673.4423Z"/>
<path fill="none" stroke="#1FF27D" stroke-width="1" stroke-linecap="round" stroke-linejoin="round" d="M224.4637,644.6141L251.9011,639.2809L236.9012,655.8641L224.4637,644.6141Z"/>
<path fill="none" stroke="#1FF27D" stroke-width="1" stroke-linecap="round" stroke-linejoin="round" d="M243.8286,709.2413L259.2622,706.2413L250.8247,715.5695L243.8286,709.2413Z"/>
<path fill="none" stroke="#1FF27D" stroke-width="1" stroke-linecap="round" stroke-linejoin="round" d="M250.8247,715.5695L271.6996,717.4913L259.2622,706.2413L250.8247,715.5695Z"/>
<path fill="none" stroke="#1FF27D" stroke-width="1" stroke-linecap="round" stroke-linejoin="round" d="M259.2622,706.2413L286.6996,700.908L271.6996,717.4913L259.2622,706.2413Z"/>
<path fill="none" stroke="#1FF27D" stroke-width="1" stroke-linecap="round" stroke-linejoin="round" d="M215.5301,710.1447L242.9675,704.8113L227.9675,721.3946L215.5301,710.1447Z"/>
<path fill="none" stroke="#1FF27D" stroke-width="1" stroke-linecap="round" stroke-linejoin="round" d="M242.9675,704.8113L245.5275,717.9813L237.5675,710.7813L242.9675,704.8113Z"/>
<path fill="none" stroke="#1FF27D" stroke-width="1" stroke-linecap="round" stroke-linejoin="round" d="M143.0279,710.7316L161.375,712.4207L148.822,720.1463L143.0279,710.7316Z"/>
<path fill="none" stroke="#1FF27D" stroke-width="1" stroke-linecap="round" stroke-linejoin="round" d="M63.39621,703.4001L101.0758,696.076L80.47647,718.8496L63.39621,703.4001Z"/>
<path fill="none" stroke="#1FF27D" stroke-width="1" stroke-linecap="round" stroke-linejoin="round" d="M101.0758,696.076L104.5914,714.1622L93.66005,704.2745L101.0758,696.076Z"/>
<path fill="none" stroke="#1FF27D" stroke-width="1" stroke-linecap="round" stroke-linejoin="round" d="M91.40785,728.7373L93.66005,704.2745L80.47647,718.8496L91.40785,728.7373Z"/>
<path fill="none" stroke="#1FF27D" stroke-width="1" stroke-linecap="round" stroke-linejoin="round" d="M93.66005,704.2745L91.40785,728.7373L104.5914,714.1622L93.66005,704.2745Z"/>
<path fill="none" stroke="#1FF27D" stroke-width="1" stroke-linecap="round" stroke-linejoin="round" d="M131.4407,723.5418L129.1907,711.9666L125.0747,720.4547L131.4407,723.5418Z"/>
<path fill="none" stroke="#1FF27D" stroke-width="1" stroke-linecap="round" stroke-linejoin="round" d="M117.8733,706.4785L125.0747,720.4547L113.7572,714.9666L117.8733,706.4785Z"/>
<path fill="none" stroke="#1FF27D" stroke-width="1" stroke-linecap="round" stroke-linejoin="round" d="M125.0747,720.4547L117.8733,706.4785L129.1907,711.9666L125.0747,720.4547Z"/>
<path fill="none" stroke="#1FF27D" stroke-width="1" stroke-linecap="round" stroke-linejoin="round" d="M129.1907,711.9666L125.1908,691.3885L117.8733,706.4785L129.1907,711.9666Z"/>
<path fill="none" stroke="#1FF27D" stroke-width="1" stroke-linecap="round" stroke-linejoin="round" d="M188.1573,577.8299L155.5401,574.827L177.8565,561.0927L188.1573,577.8299Z"/>
<path fill="none" stroke="#1FF27D" stroke-width="1" stroke-linecap="round" stroke-linejoin="round" d="M186.3247,587.7661L201.7583,584.7661L193.3208,594.0942L186.3247,587.7661Z"/>
<path fill="none" stroke="#1FF27D" stroke-width="1" stroke-linecap="round" stroke-linejoin="round" d="M201.7583,584.7661L186.3247,587.7661L194.7622,578.438L201.7583,584.7661Z"/>
<path fill="none" stroke="#1FF27D" stroke-width="1" stroke-linecap="round" stroke-linejoin="round" d="M194.7622,578.438L173.8873,576.5161L186.3247,587.7661L194.7622,578.438Z"/>
<path fill="none" stroke="#1FF27D" stroke-width="1" stroke-linecap="round" stroke-linejoin="round" d="M152.0375,535.9573L172.9124,537.8792L160.475,526.6292L152.0375,535.9573Z"/>
<path fill="none" stroke="#1FF27D" stroke-width="1" stroke-linecap="round" stroke-linejoin="round" d="M145.11,482.5801L172.5475,477.2468L157.5475,493.8301L145.11,482.5801Z"/>
<path fill="none" stroke="#1FF27D" stroke-width="1" stroke-linecap="round" stroke-linejoin="round" d="M172.5475,477.2468L175.1075,490.4168L167.1475,483.2168L172.5475,477.2468Z"/>
<path fill="none" stroke="#1FF27D" stroke-width="1" stroke-linecap="round" stroke-linejoin="round" d="M165.5075,501.0301L167.1475,483.2168L157.5475,493.8301L165.5075,501.0301Z"/>
<path fill="none" stroke="#1FF27D" stroke-width="1" stroke-linecap="round" stroke-linejoin="round" d="M167.1475,483.2168L165.5075,501.0301L175.1075,490.4168L167.1475,483.2168Z"/>
<path fill="none" stroke="#1FF27D" stroke-width="1" stroke-linecap="round" stroke-linejoin="round" d="M169.4086,461.0987L173.4086,481.6768L180.7261,466.5868L169.4086,461.0987Z"/>
<path fill="none" stroke="#1FF27D" stroke-width="1" stroke-linecap="round" stroke-linejoin="round" d="M173.4086,481.6768L183.2861,479.7568L176.0429,476.2444L173.4086,481.6768Z"/>
<path fill="none" stroke="#1FF27D" stroke-width="1" stroke-linecap="round" stroke-linejoin="round" d="M187.9693,470.0992L176.0429,476.2444L180.7261,466.5868L187.9693,470.0992Z"/>
<path fill="none" stroke="#1FF27D" stroke-width="1" stroke-linecap="round" stroke-linejoin="round" d="M176.0429,476.2444L187.9693,470.0992L183.2861,479.7568L176.0429,476.2444Z"/>
<path fill="none" stroke="#1FF27D" stroke-width="1" stroke-linecap="round" stroke-linejoin="round" d="M186.9686,457.6854L169.4086,461.0987L182.2854,467.343L186.9686,457.6854Z"/>
<path fill="none" stroke="#1FF27D" stroke-width="1" stroke-linecap="round" stroke-linejoin="round" d="M169.4086,461.0987L166.8486,447.9287L174.8086,455.1287L169.4086,461.0987Z"/>
<path fill="none" stroke="#1FF27D" stroke-width="1" stroke-linecap="round" stroke-linejoin="round" d="M176.4486,437.3154L174.8086,455.1287L184.4086,444.5154L176.4486,437.3154Z"/>
<path fill="none" stroke="#1FF27D" stroke-width="1" stroke-linecap="round" stroke-linejoin="round" d="M174.8086,455.1287L176.4486,437.3154L166.8486,447.9287L174.8086,455.1287Z"/>
<path fill="none" stroke="#1FF27D" stroke-width="1" stroke-linecap="round" stroke-linejoin="round" d="M166.8486,447.9287L162.2975,424.5154L176.4486,437.3154L166.8486,447.9287Z"/>
<path fill="none" stroke="#1FF27D" stroke-width="1" stroke-linecap="round" stroke-linejoin="round" d="M162.2975,424.5155L151.1865,367.3541L185.735,398.6041L162.2975,424.5155Z"/>
<path fill="none" stroke="#1FF27D" stroke-width="1" stroke-linecap="round" stroke-linejoin="round" d="M151.1865,367.3541L178.6239,362.0208L163.624,378.6041L151.1865,367.3541Z"/>
<path fill="none" stroke="#1FF27D" stroke-width="1" stroke-linecap="round" stroke-linejoin="round" d="M200.735,382.0208L163.624,378.6041L185.735,398.6041L200.735,382.0208Z"/>
<path fill="none" stroke="#1FF27D" stroke-width="1" stroke-linecap="round" stroke-linejoin="round" d="M163.624,378.6041L200.735,382.0208L178.6239,362.0208L163.624,378.6041Z"/>
<path fill="none" stroke="#1FF27D" stroke-width="1" stroke-linecap="round" stroke-linejoin="round" d="M189.722,359.8636L186.2064,341.7773L197.1378,351.665L189.722,359.8636Z"/>
<path fill="none" stroke="#1FF27D" stroke-width="1" stroke-linecap="round" stroke-linejoin="round" d="M199.39,327.2022L197.1378,351.665L210.3214,337.0899L199.39,327.2022Z"/>
<path fill="none" stroke="#1FF27D" stroke-width="1" stroke-linecap="round" stroke-linejoin="round" d="M197.1378,351.665L199.39,327.2022L186.2064,341.7773L197.1378,351.665Z"/>
<path fill="none" stroke="#1FF27D" stroke-width="1" stroke-linecap="round" stroke-linejoin="round" d="M186.2064,341.7773L179.9564,309.6241L199.39,327.2022L186.2064,341.7773Z"/>
<path fill="none" stroke="#1FF27D" stroke-width="1" stroke-linecap="round" stroke-linejoin="round" d="M147.3393,306.6212L159.0815,307.7022L152.0854,301.3741L147.3393,306.6212Z"/>
<path fill="none" stroke="#1FF27D" stroke-width="1" stroke-linecap="round" stroke-linejoin="round" d="M167.519,298.3741L152.0854,301.3741L160.5229,292.046L167.519,298.3741Z"/>
<path fill="none" stroke="#1FF27D" stroke-width="1" stroke-linecap="round" stroke-linejoin="round" d="M152.0854,301.3741L167.519,298.3741L159.0815,307.7022L152.0854,301.3741Z"/>
<path fill="none" stroke="#1FF27D" stroke-width="1" stroke-linecap="round" stroke-linejoin="round" d="M159.0815,307.7022L179.9564,309.6241L167.519,298.3741L159.0815,307.7022Z"/>
<path fill="none" stroke="#1FF27D" stroke-width="1" stroke-linecap="round" stroke-linejoin="round" d="M126.1541,308.0697L147.029,309.9916L134.5915,298.7416L126.1541,308.0697Z"/>
<path fill="none" stroke="#1FF27D" stroke-width="1" stroke-linecap="round" stroke-linejoin="round" d="M147.029,309.9916L147.9515,299.9716L142.5515,305.9416L147.029,309.9916Z"/>
<path fill="none" stroke="#1FF27D" stroke-width="1" stroke-linecap="round" stroke-linejoin="round" d="M139.9915,292.7716L142.5515,305.9416L134.5915,298.7416L139.9915,292.7716Z"/>
<path fill="none" stroke="#1FF27D" stroke-width="1" stroke-linecap="round" stroke-linejoin="round" d="M142.5515,305.9416L139.9915,292.7716L147.9515,299.9716L142.5515,305.9416Z"/>
<path fill="none" stroke="#1FF27D" stroke-width="1" stroke-linecap="round" stroke-linejoin="round" d="M112.9705,322.6449L106.7205,290.4916L126.1541,308.0697L112.9705,322.6449Z"/>
<path fill="none" stroke="#1FF27D" stroke-width="1" stroke-linecap="round" stroke-linejoin="round" d="M134.5915,298.7416L113.7166,296.8197L126.1541,308.0697L134.5915,298.7416Z"/>
<path fill="none" stroke="#1FF27D" stroke-width="1" stroke-linecap="round" stroke-linejoin="round" d="M106.7205,290.4916L116.598,288.5716L109.3548,285.0592L106.7205,290.4916Z"/>
<path fill="none" stroke="#1FF27D" stroke-width="1" stroke-linecap="round" stroke-linejoin="round" d="M63.84951,298.8249L106.7205,290.4916L75.28309,275.2468L63.84951,298.8249Z"/>
<path fill="none" stroke="#1FF27D" stroke-width="1" stroke-linecap="round" stroke-linejoin="round" d="M106.7205,290.4916L102.7205,269.9135L95.40305,285.0035L106.7205,290.4916Z"/>
<path fill="none" stroke="#1FF27D" stroke-width="1" stroke-linecap="round" stroke-linejoin="round" d="M82.60059,260.1569L95.40305,285.0035L75.28309,275.2468L82.60059,260.1569Z"/>
<path fill="none" stroke="#1FF27D" stroke-width="1" stroke-linecap="round" stroke-linejoin="round" d="M95.40305,285.0035L82.60059,260.1569L102.7205,269.9135L95.40305,285.0035Z"/>
<path fill="none" stroke="#1FF27D" stroke-width="1" stroke-linecap="round" stroke-linejoin="round" d="M51.27841,193.2317L88.95801,185.9075L68.35867,208.6812L51.27841,193.2317Z"/>
<path fill="none" stroke="#1FF27D" stroke-width="1" stroke-linecap="round" stroke-linejoin="round" d="M88.95801,185.9075L92.47362,203.9937L81.54225,194.1061L88.95801,185.9075Z"/>
<path fill="none" stroke="#1FF27D" stroke-width="1" stroke-linecap="round" stroke-linejoin="round" d="M79.29005,218.5689L81.54225,194.1061L68.35867,208.6812L79.29005,218.5689Z"/>
<path fill="none" stroke="#1FF27D" stroke-width="1" stroke-linecap="round" stroke-linejoin="round" d="M81.54225,194.1061L79.29005,218.5689L92.47362,203.9937L81.54225,194.1061Z"/>
<path fill="none" stroke="#1FF27D" stroke-width="1" stroke-linecap="round" stroke-linejoin="round" d="M155.944,172.8868L131.829,177.5742L149.5126,186.1494L155.944,172.8868Z"/>
<path fill="none" stroke="#1FF27D" stroke-width="1" stroke-linecap="round" stroke-linejoin="round" d="M120.3954,201.1523L149.5126,186.1494L138.079,209.7275L120.3954,201.1523Z"/>
<path fill="none" stroke="#1FF27D" stroke-width="1" stroke-linecap="round" stroke-linejoin="round" d="M149.5126,186.1494L120.3954,201.1523L131.829,177.5742L149.5126,186.1494Z"/>
<path fill="none" stroke="#1FF27D" stroke-width="1" stroke-linecap="round" stroke-linejoin="round" d="M131.829,177.5742L88.95801,185.9075L120.3954,201.1523L131.829,177.5742Z"/>
<path fill="none" stroke="#1FF27D" stroke-width="1" stroke-linecap="round" stroke-linejoin="round" d="M204.9196,192.917L208.4352,211.0032L197.5039,201.1155L204.9196,192.917Z"/>
<path fill="none" stroke="#1FF27D" stroke-width="1" stroke-linecap="round" stroke-linejoin="round" d="M208.4352,211.0032L204.9196,192.917L215.851,202.8047L208.4352,211.0032Z"/>
<path fill="none" stroke="#1FF27D" stroke-width="1" stroke-linecap="round" stroke-linejoin="round" d="M215.851,202.8047L218.1032,178.3419L204.9196,192.917L215.851,202.8047Z"/>
<path fill="none" stroke="#1FF27D" stroke-width="1" stroke-linecap="round" stroke-linejoin="round" d="M223.4288,202.8141L219.1032,213.7838L227.1371,208.8395L223.4288,202.8141Z"/>
<path fill="none" stroke="#1FF27D" stroke-width="1" stroke-linecap="round" stroke-linejoin="round" d="M219.1032,213.7838L223.4288,202.8141L215.3949,207.7584L219.1032,213.7838Z"/>
<path fill="none" stroke="#1FF27D" stroke-width="1" stroke-linecap="round" stroke-linejoin="round" d="M215.3949,207.7584L216.8363,192.1022L223.4288,202.8141L215.3949,207.7584Z"/>
<path fill="none" stroke="#1FF27D" stroke-width="1" stroke-linecap="round" stroke-linejoin="round" d="M216.8363,192.1022L235.1835,193.7914L222.6305,201.5169L216.8363,192.1022Z"/>
<path fill="none" stroke="#1FF27D" stroke-width="1" stroke-linecap="round" stroke-linejoin="round" d="M235.1835,193.7914L234.3727,202.598L230.6644,196.5725L235.1835,193.7914Z"/>
<path fill="none" stroke="#1FF27D" stroke-width="1" stroke-linecap="round" stroke-linejoin="round" d="M226.3388,207.5423L230.6644,196.5725L222.6305,201.5169L226.3388,207.5423Z"/>
<path fill="none" stroke="#1FF27D" stroke-width="1" stroke-linecap="round" stroke-linejoin="round" d="M230.6644,196.5725L226.3388,207.5423L234.3727,202.598L230.6644,196.5725Z"/>
<path fill="none" stroke="#1FF27D" stroke-width="1" stroke-linecap="round" stroke-linejoin="round" d="M253.1109,210.0071L237.6774,213.0071L246.1148,203.679L253.1109,210.0071Z"/>
<path fill="none" stroke="#1FF27D" stroke-width="1" stroke-linecap="round" stroke-linejoin="round" d="M218.1032,178.3419L255.7828,171.0177L235.1835,193.7914L218.1032,178.3419Z"/>
<path fill="none" stroke="#1FF27D" stroke-width="1" stroke-linecap="round" stroke-linejoin="round" d="M255.7828,171.0177L259.2984,189.1039L248.367,179.2162L255.7828,171.0177Z"/>
<path fill="none" stroke="#1FF27D" stroke-width="1" stroke-linecap="round" stroke-linejoin="round" d="M246.1149,203.679L248.367,179.2162L235.1835,193.7914L246.1149,203.679Z"/>
<path fill="none" stroke="#1FF27D" stroke-width="1" stroke-linecap="round" stroke-linejoin="round" d="M248.367,179.2162L246.1149,203.679L259.2984,189.1039L248.367,179.2162Z"/>
<path fill="none" stroke="#1FF27D" stroke-width="1" stroke-linecap="round" stroke-linejoin="round" d="M262.0328,203.1709L270.7142,201.4834L265.9681,206.7305L262.0328,203.1709Z"/>
<path fill="none" stroke="#1FF27D" stroke-width="1" stroke-linecap="round" stroke-linejoin="round" d="M277.7103,207.8116L265.9681,206.7305L272.9642,213.0586L277.7103,207.8116Z"/>
<path fill="none" stroke="#1FF27D" stroke-width="1" stroke-linecap="round" stroke-linejoin="round" d="M265.9681,206.7305L277.7103,207.8116L270.7142,201.4834L265.9681,206.7305Z"/>
<path fill="none" stroke="#1FF27D" stroke-width="1" stroke-linecap="round" stroke-linejoin="round" d="M270.7142,201.4834L286.1478,198.4835L277.7103,207.8116L270.7142,201.4834Z"/>
<path fill="none" stroke="#1FF27D" stroke-width="1" stroke-linecap="round" stroke-linejoin="round" d="M394.4944,438.9814L376.1472,437.2923L388.7002,429.5667L394.4944,438.9814Z"/>
<path fill="none" stroke="#1FF27D" stroke-width="1" stroke-linecap="round" stroke-linejoin="round" d="M398.0135,400.7582L400.2657,376.2954L387.0821,390.8705L398.0135,400.7582Z"/>
<path fill="none" stroke="#1FF27D" stroke-width="1" stroke-linecap="round" stroke-linejoin="round" d="M400.2657,376.2954L404.2696,332.8059L380.8321,358.7173L400.2657,376.2954Z"/>
<path fill="none" stroke="#1FF27D" stroke-width="1" stroke-linecap="round" stroke-linejoin="round" d="M404.2696,332.8059L375.6022,330.1666L392.6825,345.6161L404.2696,332.8059Z"/>
<path fill="none" stroke="#1FF27D" stroke-width="1" stroke-linecap="round" stroke-linejoin="round" d="M375.6022,330.1666L374.3353,343.9269L381.7511,335.7284L375.6022,330.1666Z"/>
<path fill="none" stroke="#1FF27D" stroke-width="1" stroke-linecap="round" stroke-linejoin="round" d="M385.2667,353.8147L381.7511,335.7284L392.6825,345.6161L385.2667,353.8147Z"/>
<path fill="none" stroke="#1FF27D" stroke-width="1" stroke-linecap="round" stroke-linejoin="round" d="M381.7511,335.7284L385.2667,353.8147L374.3353,343.9269L381.7511,335.7284Z"/>
<path fill="none" stroke="#1FF27D" stroke-width="1" stroke-linecap="round" stroke-linejoin="round" d="M357.2551,328.4775L375.6022,330.1666L363.0492,337.8922L357.2551,328.4775Z"/>
<path fill="none" stroke="#1FF27D" stroke-width="1" stroke-linecap="round" stroke-linejoin="round" d="M375.6022,330.1666L374.7914,338.9732L371.0831,332.9478L375.6022,330.1666Z"/>
<path fill="none" stroke="#1FF27D" stroke-width="1" stroke-linecap="round" stroke-linejoin="round" d="M366.7575,343.9176L371.0831,332.9478L363.0492,337.8922L366.7575,343.9176Z"/>
<path fill="none" stroke="#1FF27D" stroke-width="1" stroke-linecap="round" stroke-linejoin="round" d="M371.0831,332.9478L366.7575,343.9176L374.7914,338.9732L371.0831,332.9478Z"/>
<path fill="none" stroke="#1FF27D" stroke-width="1" stroke-linecap="round" stroke-linejoin="round" d="M363.8475,339.1893L359.5219,350.1591L367.5558,345.2147L363.8475,339.1893Z"/>
<path fill="none" stroke="#1FF27D" stroke-width="1" stroke-linecap="round" stroke-linejoin="round" d="M359.5219,350.1591L363.8475,339.1893L355.8137,344.1337L359.5219,350.1591Z"/>
<path fill="none" stroke="#1FF27D" stroke-width="1" stroke-linecap="round" stroke-linejoin="round" d="M355.8137,344.1337L357.2551,328.4775L363.8475,339.1893L355.8137,344.1337Z"/>
<path fill="none" stroke="#1FF27D" stroke-width="1" stroke-linecap="round" stroke-linejoin="round" d="M357.2551,328.4775L345.5129,327.3964L352.509,333.7245L357.2551,328.4775Z"/>
<path fill="none" stroke="#1FF27D" stroke-width="1" stroke-linecap="round" stroke-linejoin="round" d="M337.0754,336.7245L352.509,333.7245L344.0715,343.0526L337.0754,336.7245Z"/>
<path fill="none" stroke="#1FF27D" stroke-width="1" stroke-linecap="round" stroke-linejoin="round" d="M352.509,333.7245L337.0754,336.7245L345.5129,327.3964L352.509,333.7245Z"/>
<path fill="none" stroke="#1FF27D" stroke-width="1" stroke-linecap="round" stroke-linejoin="round" d="M345.5129,327.3964L324.6379,325.4745L337.0754,336.7245L345.5129,327.3964Z"/>
<path fill="none" stroke="#1FF27D" stroke-width="1" stroke-linecap="round" stroke-linejoin="round" d="M324.6379,325.4745L273.6737,320.7823L304.0386,348.2481L324.6379,325.4745Z"/>
<path fill="none" stroke="#1FF27D" stroke-width="1" stroke-linecap="round" stroke-linejoin="round" d="M273.6737,320.7823L271.4215,345.2452L284.605,330.67L273.6737,320.7823Z"/>
<path fill="none" stroke="#1FF27D" stroke-width="1" stroke-linecap="round" stroke-linejoin="round" d="M241.0565,317.7794L220.1816,315.8575L232.619,327.1075L241.0565,317.7794Z"/>
<path fill="none" stroke="#1FF27D" stroke-width="1" stroke-linecap="round" stroke-linejoin="round" d="M205.1816,332.4408L232.619,327.1075L217.6191,343.6908L205.1816,332.4408Z"/>
<path fill="none" stroke="#1FF27D" stroke-width="1" stroke-linecap="round" stroke-linejoin="round" d="M232.619,327.1075L205.1816,332.4408L220.1816,315.8575L232.619,327.1075Z"/>
<path fill="none" stroke="#1FF27D" stroke-width="1" stroke-linecap="round" stroke-linejoin="round" d="M220.1816,315.8575L183.0706,312.4408L205.1816,332.4408L220.1816,315.8575Z"/>
<path fill="none" stroke="#1FF27D" stroke-width="1" stroke-linecap="round" stroke-linejoin="round" d="M183.0705,312.4408L211.7379,315.0801L194.6577,299.6306L183.0705,312.4408Z"/>
<path fill="none" stroke="#1FF27D" stroke-width="1" stroke-linecap="round" stroke-linejoin="round" d="M211.7379,315.0801L213.0048,301.3198L205.5891,309.5183L211.7379,315.0801Z"/>
<path fill="none" stroke="#1FF27D" stroke-width="1" stroke-linecap="round" stroke-linejoin="round" d="M202.0734,291.4321L205.5891,309.5183L194.6577,299.6306L202.0734,291.4321Z"/>
<path fill="none" stroke="#1FF27D" stroke-width="1" stroke-linecap="round" stroke-linejoin="round" d="M205.5891,309.5183L202.0734,291.4321L213.0048,301.3198L205.5891,309.5183Z"/>
<path fill="none" stroke="#1FF27D" stroke-width="1" stroke-linecap="round" stroke-linejoin="round" d="M253.0377,296.1242L264.7799,297.2053L257.7838,290.8772L253.0377,296.1242Z"/>
<path fill="none" stroke="#1FF27D" stroke-width="1" stroke-linecap="round" stroke-linejoin="round" d="M264.7799,297.2053L265.2988,291.5691L262.2613,294.9272L264.7799,297.2053Z"/>
<path fill="none" stroke="#1FF27D" stroke-width="1" stroke-linecap="round" stroke-linejoin="round" d="M243.062,291.1528L245.6219,304.3228L237.662,297.1227L243.062,291.1528Z"/>
<path fill="none" stroke="#1FF27D" stroke-width="1" stroke-linecap="round" stroke-linejoin="round" d="M257.7838,290.8772L246.0416,289.7961L253.0377,296.1242L257.7838,290.8772Z"/>
<path fill="none" stroke="#1FF27D" stroke-width="1" stroke-linecap="round" stroke-linejoin="round" d="M414.0448,226.6304L410.5257,264.8536L394.4308,238.7016L414.0448,226.6304Z"/>
<path fill="none" stroke="#1FF27D" stroke-width="1" stroke-linecap="round" stroke-linejoin="round" d="M410.5257,264.8536L392.1786,263.1644L404.7315,255.4389L410.5257,264.8536Z"/>
<path fill="none" stroke="#1FF27D" stroke-width="1" stroke-linecap="round" stroke-linejoin="round" d="M381.8778,246.4271L404.7315,255.4389L394.4308,238.7016L381.8778,246.4271Z"/>
<path fill="none" stroke="#1FF27D" stroke-width="1" stroke-linecap="round" stroke-linejoin="round" d="M404.7315,255.4389L381.8778,246.4271L392.1786,263.1644L404.7315,255.4389Z"/>
<path fill="none" stroke="#1FF27D" stroke-width="1" stroke-linecap="round" stroke-linejoin="round" d="M377.9086,261.8506L377.0978,270.6572L373.3895,264.6318L377.9086,261.8506Z"/>
<path fill="none" stroke="#1FF27D" stroke-width="1" stroke-linecap="round" stroke-linejoin="round" d="M373.3895,264.6318L369.0639,275.6016L377.0978,270.6572L373.3895,264.6318Z"/>
<path fill="none" stroke="#1FF27D" stroke-width="1" stroke-linecap="round" stroke-linejoin="round" d="M377.0978,270.6572L375.6564,286.3134L369.0639,275.6016L377.0978,270.6572Z"/>
<path fill="none" stroke="#1FF27D" stroke-width="1" stroke-linecap="round" stroke-linejoin="round" d="M343.0046,311.3765L350.6946,291.8747L336.4121,300.6647L343.0046,311.3765Z"/>
<path fill="none" stroke="#1FF27D" stroke-width="1" stroke-linecap="round" stroke-linejoin="round" d="M332.1929,293.8091L345.5529,295.0391L336.4121,300.6647L332.1929,293.8091Z"/>
<path fill="none" stroke="#1FF27D" stroke-width="1" stroke-linecap="round" stroke-linejoin="round" d="M353.3054,328.1138L320.6882,325.1108L343.0046,311.3765L353.3054,328.1138Z"/>
<path fill="none" stroke="#1FF27D" stroke-width="1" stroke-linecap="round" stroke-linejoin="round" d="M320.6882,325.1108L322.1296,309.4547L328.7221,320.1665L320.6882,325.1108Z"/>
<path fill="none" stroke="#1FF27D" stroke-width="1" stroke-linecap="round" stroke-linejoin="round" d="M336.4121,300.6647L328.7221,320.1665L343.0046,311.3765L336.4121,300.6647Z"/>
<path fill="none" stroke="#1FF27D" stroke-width="1" stroke-linecap="round" stroke-linejoin="round" d="M328.7221,320.1665L336.4121,300.6647L322.1296,309.4547L328.7221,320.1665Z"/>
<path fill="none" stroke="#1FF27D" stroke-width="1" stroke-linecap="round" stroke-linejoin="round" d="M323.2507,297.2776L315.7357,296.5857L320.8774,293.4213L323.2507,297.2776Z"/>
<path fill="none" stroke="#1FF27D" stroke-width="1" stroke-linecap="round" stroke-linejoin="round" d="M320.8774,293.4213L311.5165,289.7301L315.7357,296.5857L320.8774,293.4213Z"/>
<path fill="none" stroke="#1FF27D" stroke-width="1" stroke-linecap="round" stroke-linejoin="round" d="M315.7357,296.5857L302.3758,295.3557L311.5165,289.7301L315.7357,296.5857Z"/>
<path fill="none" stroke="#1FF27D" stroke-width="1" stroke-linecap="round" stroke-linejoin="round" d="M294.8692,299.9755L272.0154,290.9638L282.3162,307.7011L294.8692,299.9755Z"/>
<path fill="none" stroke="#1FF27D" stroke-width="1" stroke-linecap="round" stroke-linejoin="round" d="M302.5667,216.367L290.8246,215.2859L297.8206,221.614L302.5667,216.367Z"/>
<path fill="none" stroke="#1FF27D" stroke-width="1" stroke-linecap="round" stroke-linejoin="round" d="M390.2938,224.4437L414.0448,226.6304L397.7945,236.6314L390.2938,224.4437Z"/>
<path fill="none" stroke="#1FF27D" stroke-width="1" stroke-linecap="round" stroke-linejoin="round" d="M323.4417,218.2888L325.6939,193.826L312.5103,208.4012L323.4417,218.2888Z"/>
<path fill="none" stroke="#1FF27D" stroke-width="1" stroke-linecap="round" stroke-linejoin="round" d="M306.2603,176.2479L312.5103,208.4012L293.0768,190.823L306.2603,176.2479Z"/>
<path fill="none" stroke="#1FF27D" stroke-width="1" stroke-linecap="round" stroke-linejoin="round" d="M312.5103,208.4012L306.2603,176.2479L325.6939,193.826L312.5103,208.4012Z"/>
<path fill="none" stroke="#1FF27D" stroke-width="1" stroke-linecap="round" stroke-linejoin="round" d="M325.6939,193.826L329.6978,150.3365L306.2603,176.2479L325.6939,193.826Z"/>
<path fill="none" stroke="#1FF27D" stroke-width="1" stroke-linecap="round" stroke-linejoin="round" d="M339.1656,193.8427L331.4756,213.3445L345.7581,204.5545L339.1656,193.8427Z"/>
<path fill="none" stroke="#1FF27D" stroke-width="1" stroke-linecap="round" stroke-linejoin="round" d="M331.4756,213.3445L339.1656,193.8427L324.8831,202.6326L331.4756,213.3445Z"/>
<path fill="none" stroke="#1FF27D" stroke-width="1" stroke-linecap="round" stroke-linejoin="round" d="M324.8831,202.6326L327.4456,174.7993L339.1656,193.8427L324.8831,202.6326Z"/>
<path fill="none" stroke="#1FF27D" stroke-width="1" stroke-linecap="round" stroke-linejoin="round" d="M327.4456,174.7993L360.0627,177.8023L337.7463,191.5366L327.4456,174.7993Z"/>
<path fill="none" stroke="#1FF27D" stroke-width="1" stroke-linecap="round" stroke-linejoin="round" d="M360.0627,177.8023L358.6213,193.4585L352.0289,182.7467L360.0627,177.8023Z"/>
<path fill="none" stroke="#1FF27D" stroke-width="1" stroke-linecap="round" stroke-linejoin="round" d="M344.3389,202.2485L352.0289,182.7467L337.7463,191.5366L344.3389,202.2485Z"/>
<path fill="none" stroke="#1FF27D" stroke-width="1" stroke-linecap="round" stroke-linejoin="round" d="M352.0289,182.7467L344.3389,202.2485L358.6213,193.4585L352.0289,182.7467Z"/>
<path fill="none" stroke="#1FF27D" stroke-width="1" stroke-linecap="round" stroke-linejoin="round" d="M391.9338,206.6304L364.4963,211.9637L379.4963,195.3804L391.9338,206.6304Z"/>
</g>
</svg>
