M48
INCH
T01C0.012
T02C0.022
T03C0.022
T04C0.0354
T05C0.0402
T06C0.0433
T07C0.0866
%
T01
X+007313Y+011064
X+006876Y+011439
X+006813Y+011814
X+007001Y+012126
X+006876Y+012439
X+006938Y+012814
X+008188Y+012376
X+008626Y+012376
X+009063Y+012376
X+009063Y+011626
X+008631Y+011626
X+008180Y+011626
X+007751Y+010314
X+008001Y+010064
X+007376Y+010376
X+006313Y+009814
X+007751Y+008751
X+007751Y+007876
X+008813Y+008751
X+008563Y+009564
X+009063Y+010501
X+009438Y+011001
X+009939Y+011001
X+010189Y+012001
X+010126Y+012376
X+010677Y+013490
X+011302Y+013490
X+011001Y+014502
X+010314Y+014189
X+010126Y+014752
X+009751Y+014377
X+009251Y+014877
X+008376Y+014564
X+008063Y+014814
X+007876Y+013939
X+008876Y+013501
X+009376Y+013439
X+009501Y+016064
X+010189Y+016127
X+010189Y+016502
X+010251Y+016877
X+010064Y+017788
X+009814Y+018127
X+010564Y+018189
X+009876Y+019252
X+009438Y+019377
X+009188Y+018877
X+008376Y+019190
X+008188Y+018627
X+007313Y+019565
X+007813Y+020752
X+007313Y+021190
X+006813Y+021654
X+007001Y+022690
X+006126Y+023252
X+006001Y+023940
X+005501Y+023627
X+005251Y+023627
X+004876Y+024128
X+005251Y+024503
X+006126Y+025128
X+006876Y+024379
X+007001Y+023940
X+008313Y+023127
X+009126Y+022877
X+008876Y+022252
X+009626Y+022127
X+009126Y+021315
X+009188Y+020815
X+008876Y+020627
X+009609Y+020565
X+010751Y+020627
X+011439Y+021252
X+012126Y+020065
X+011814Y+019502
X+012323Y+018772
X+012251Y+016127
X+012251Y+015877
X+008188Y+016564
X+007751Y+017127
X+006126Y+017127
X+005813Y+017314
X+005313Y+017502
X+005001Y+017689
X+004688Y+017877
X+004313Y+017939
X+004188Y+018252
X+004188Y+018627
X+003313Y+018002
X+003063Y+018877
X+002000Y+018127
X+002000Y+020315
X+002438Y+023315
X+003063Y+023315
X+002750Y+024003
X+002813Y+024753
X+003250Y+025878
X+002063Y+026065
X+002327Y+026878
X+004625Y+027378
X+004938Y+028816
X+005812Y+029002
X+006313Y+027940
X+006323Y+027025
X+005813Y+026378
X+004000Y+024440
X+005751Y+021822
X+005626Y+020877
X+005514Y+019932
X+005438Y+018689
X+005626Y+016689
X+006313Y+015814
X+011501Y+010689
X+011064Y+008063
X+010876Y+005938
X+009814Y+004813
X+009188Y+004000
X+009126Y+003063
X+009001Y+002563
X+008376Y+001625
X+006938Y+001750
X+006313Y+002500
X+005001Y+002188
X+004955Y+001439
X+003875Y+001875
X+003000Y+001063
X+002750Y+002438
X+002000Y+002438
X+003563Y+003938
X+004688Y+003438
X+004710Y+004960
X+006375Y+004814
X+006438Y+005501
X+005813Y+006251
X+005501Y+007751
X+003438Y+008251
X+002813Y+006313
X+002188Y+005813
X+002188Y+005063
X+007501Y+005563
X+011314Y+003585
X+012250Y+004187
X+012439Y+003563
X+012689Y+005188
X+012376Y+006376
X+012314Y+001875
X+010887Y+001438
X+009126Y+025065
X+008938Y+025378
X+008626Y+025940
X+009313Y+025940
X+009001Y+026940
X+011001Y+026565
X+012689Y+026565
X+012001Y+028691
X+010251Y+028691
X+009751Y+031316
X+009438Y+031316
X+006322Y+030700
X+005688Y+031003
X+002375Y+029816
X+001438Y+029502
X+007501Y+034066
X+007501Y+034941
X+007501Y+035816
X+007501Y+036254
X+006626Y+035379
X+006376Y+037191
X+006126Y+038129
T02
X+001375Y+038379
X+001375Y+035379
X+001750Y+033941
X+001750Y+030941
T03
X+010189Y+024753
X+010689Y+024753
X+010689Y+024253
X+010189Y+024253
X+010189Y+023753
X+010689Y+023753
X+010689Y+023253
X+010189Y+023253
X+010189Y+022753
X+010689Y+022753
T04
X+011197Y+033857
X+011197Y+037006
T05
X+000500Y+019502
X+000500Y+018502
X+000500Y+017502
X+000500Y+016500
X+000500Y+015500
X+000500Y+014500
X+000500Y+013500
X+000500Y+012500
X+000500Y+011500
X+000500Y+010500
X+000500Y+009500
X+000500Y+008500
X+000500Y+007500
X+000500Y+006500
X+000500Y+005500
X+001501Y+000500
X+002501Y+000500
X+003501Y+000500
X+004501Y+000500
X+005501Y+000500
X+006501Y+000500
X+007501Y+000500
X+008501Y+000500
X+009501Y+000500
X+010501Y+000500
X+011501Y+000500
X+012501Y+000500
X+000500Y+021000
X+000500Y+022000
X+000500Y+023000
X+000500Y+024000
X+000500Y+025000
X+000500Y+026000
X+000500Y+029500
X+000500Y+030500
X+000500Y+031500
T06
X+003500Y+030066
X+004500Y+030066
X+004500Y+031066
X+003500Y+031066
X+003500Y+032066
X+004500Y+032066
X+004500Y+033066
X+003500Y+033066
X+003500Y+034066
X+004500Y+034066
X+004500Y+035066
X+003500Y+035066
X+003500Y+036066
X+004500Y+036066
X+004500Y+037066
X+003500Y+037066
T07
X+007874Y+028740
T00
M30
