G04 DipTrace 2.4.0.2*
%INcodec_rev2.GTS*%
%MOIN*%
%ADD20R,0.0394X0.0433*%
%ADD22R,0.0787X0.0472*%
%ADD23R,0.0433X0.0394*%
%ADD25R,0.1063X0.0551*%
%ADD26R,0.0551X0.1063*%
%ADD27R,0.0472X0.0787*%
%ADD29R,0.0413X0.0256*%
%ADD30R,0.0638X0.0638*%
%ADD31C,0.0638*%
%ADD32R,0.0669X0.0669*%
%ADD33C,0.0669*%
%ADD34R,0.063X0.0276*%
%ADD35R,0.063X0.0472*%
%ADD36R,0.0866X0.0472*%
%ADD37R,0.0551X0.063*%
%ADD39C,0.05*%
%ADD40C,0.05*%
%ADD41R,0.0256X0.0413*%
%ADD42R,0.0591X0.0512*%
%ADD43R,0.0512X0.0591*%
%ADD45C,0.042*%
%ADD46R,0.0787X0.0236*%
%ADD47R,0.0433X0.0236*%
%ADD48R,0.063X0.0118*%
%ADD49R,0.0118X0.063*%
%ADD50R,0.0551X0.0866*%
%ADD52C,0.0866*%
%ADD53C,0.0354*%
%FSLAX44Y44*%
G04*
G70*
G90*
G75*
G01*
%LNTopMask*%
%LPD*%
D20*
X2063Y27462D3*
Y26793D3*
X6063Y27025D3*
Y26356D3*
D22*
X5302Y23315D3*
X4199D3*
D20*
X6063Y16399D3*
Y15730D3*
D23*
X8166Y21315D3*
X8836D3*
D20*
X12564Y16774D3*
Y16105D3*
D25*
X9822Y31003D3*
X11555D3*
X8054D3*
X6322D3*
D20*
X6251Y24418D3*
Y25087D3*
D23*
X7479Y23752D3*
X8148D3*
D20*
X8876Y24418D3*
Y25087D3*
X6188Y34629D3*
Y35298D3*
D23*
X11417Y20315D3*
X12086D3*
D20*
X12564Y17480D3*
Y18149D3*
Y19524D3*
Y18855D3*
D23*
X9979Y20940D3*
X10648D3*
D20*
X7302Y8030D3*
Y8699D3*
D23*
X8280Y7364D3*
X8949D3*
D20*
X9927Y8030D3*
Y8699D3*
X2125Y3853D3*
Y4523D3*
X6813Y21399D3*
Y20730D3*
X7313Y20899D3*
Y20230D3*
D26*
X3125Y8367D3*
Y6635D3*
D20*
X6126Y3353D3*
Y4023D3*
D26*
X5501Y8367D3*
Y6635D3*
D23*
X8023Y13689D3*
X7354D3*
D27*
X6001Y9637D3*
Y10740D3*
D20*
X8251Y9416D3*
Y10086D3*
X9001Y9416D3*
Y10086D3*
X7563Y3085D3*
Y2416D3*
D23*
X7604Y14314D3*
X8273D3*
D27*
X11001Y13490D3*
Y12388D3*
D26*
X11251Y7492D3*
Y5760D3*
D23*
X6916Y4250D3*
X7585D3*
X9916Y1375D3*
X10586D3*
X9211D3*
X8541D3*
D20*
X11564Y2916D3*
Y3585D3*
D23*
X4041Y5188D3*
X4710D3*
X4398Y2188D3*
X3728D3*
X3835Y25628D3*
X3166D3*
X4291Y28565D3*
X4960D3*
D26*
X11876Y10930D3*
Y9197D3*
D20*
X12189Y2853D3*
Y3522D3*
D23*
X1728Y24003D3*
X2397D3*
D29*
X4610Y24877D3*
Y24129D3*
X5516Y24503D3*
D23*
X9961Y26940D3*
X9291D3*
D52*
X7874Y28740D3*
D30*
X500Y19502D3*
D31*
Y18502D3*
Y17502D3*
D30*
Y26000D3*
D31*
Y25000D3*
Y24000D3*
Y23000D3*
Y22000D3*
Y21000D3*
D30*
Y31500D3*
D31*
Y30500D3*
Y29500D3*
D32*
X3500Y30066D3*
D33*
X4500D3*
X3500Y31066D3*
X4500D3*
X3500Y32066D3*
X4500D3*
X3500Y33066D3*
X4500D3*
X3500Y34066D3*
X4500D3*
X3500Y35066D3*
X4500D3*
X3500Y36066D3*
X4500D3*
X3500Y37066D3*
X4500D3*
D34*
X7063Y36691D3*
Y36258D3*
Y35825D3*
Y35392D3*
Y34959D3*
Y34526D3*
Y34093D3*
Y33660D3*
Y33227D3*
D35*
X7299Y32754D3*
D36*
X11040D3*
Y38857D3*
D37*
X7260Y38502D3*
D53*
X11197Y33857D3*
Y37006D3*
D30*
X500Y16500D3*
D31*
Y15500D3*
Y14500D3*
Y13500D3*
Y12500D3*
Y11500D3*
Y10500D3*
Y9500D3*
Y8500D3*
Y7500D3*
Y6500D3*
Y5500D3*
D30*
X1501Y500D3*
D31*
X2501D3*
X3501D3*
X4501D3*
X5501D3*
X6501D3*
X7501D3*
X8501D3*
X9501D3*
X10501D3*
X11501D3*
X12501D3*
D39*
X1375Y38379D3*
D40*
Y35379D3*
D39*
X1750Y30941D3*
D40*
Y33941D3*
D23*
X12086Y20940D3*
X11417D3*
D41*
X2389Y18768D3*
X1641D3*
X2015Y17863D3*
D20*
X3041Y18587D3*
Y17917D3*
D42*
X2374Y20376D3*
Y19628D3*
X1375Y27939D3*
Y27191D3*
X6876Y26877D3*
Y26129D3*
X2563Y29502D3*
Y28754D3*
X6188Y29002D3*
Y28254D3*
X1749Y29502D3*
Y28754D3*
D20*
X6376Y37460D3*
Y38129D3*
D23*
X9291Y27690D3*
X9961D3*
X8836Y22877D3*
X8166D3*
X8836Y22002D3*
X8166D3*
D42*
X2063Y1376D3*
Y2124D3*
X2938Y1376D3*
Y2124D3*
D43*
X2874Y5438D3*
X2126D3*
D23*
X5148Y18689D3*
X4478D3*
D42*
X6188Y1439D3*
Y2187D3*
D23*
X6166Y13126D3*
X6835D3*
D42*
X5313Y1439D3*
Y2187D3*
D43*
X5627Y5188D3*
X6375D3*
X8939D3*
X9687D3*
X7439D3*
X8187D3*
X8377Y4313D3*
X9125D3*
X12313Y1438D3*
X11565D3*
X11502Y4500D3*
X12250D3*
X12313Y2250D3*
X11565D3*
D23*
X3750Y24003D3*
X3081D3*
D43*
X3125Y24753D3*
X3873D3*
D45*
X10189D3*
X10689D3*
X10189Y24253D3*
X10689D3*
X10189Y23753D3*
X10689D3*
X10189Y23253D3*
X10689D3*
X10189Y22753D3*
X10689D3*
D46*
X5126Y26378D3*
Y26878D3*
Y27378D3*
Y27878D3*
X3000D3*
Y27378D3*
Y26878D3*
Y26378D3*
D47*
X7032Y25127D3*
Y24753D3*
Y24379D3*
X8095D3*
Y25127D3*
D48*
X11558Y16213D3*
Y16410D3*
Y16607D3*
Y16804D3*
Y17000D3*
Y17197D3*
Y17394D3*
Y17591D3*
Y17788D3*
Y17985D3*
Y18181D3*
Y18378D3*
Y18575D3*
Y18772D3*
Y18969D3*
Y19166D3*
D49*
X10790Y19933D3*
X10593D3*
X10396D3*
X10199D3*
X10002D3*
X9806D3*
X9609D3*
X9412D3*
X9215D3*
X9018D3*
X8821D3*
X8625D3*
X8428D3*
X8231D3*
X8034D3*
X7837D3*
D48*
X7069Y19166D3*
Y18969D3*
Y18772D3*
Y18575D3*
Y18378D3*
Y18181D3*
Y17985D3*
Y17788D3*
Y17591D3*
Y17394D3*
Y17197D3*
Y17000D3*
Y16804D3*
Y16607D3*
Y16410D3*
Y16213D3*
D49*
X7837Y15445D3*
X8034D3*
X8231D3*
X8428D3*
X8625D3*
X8821D3*
X9018D3*
X9215D3*
X9412D3*
X9609D3*
X9806D3*
X10002D3*
X10199D3*
X10396D3*
X10593D3*
X10790D3*
D47*
X8083Y8738D3*
Y8364D3*
Y7990D3*
X9146D3*
Y8738D3*
D46*
X3062Y4438D3*
Y3938D3*
Y3438D3*
Y2938D3*
X5188D3*
Y3438D3*
Y3938D3*
Y4438D3*
G36*
X9458Y11367D2*
Y11454D1*
X9930D1*
Y11367D1*
X9458D1*
G37*
G36*
Y11564D2*
Y11651D1*
X9930D1*
Y11564D1*
X9458D1*
G37*
G36*
Y11761D2*
Y11848D1*
X9930D1*
Y11761D1*
X9458D1*
G37*
G36*
Y11958D2*
Y12045D1*
X9930D1*
Y11958D1*
X9458D1*
G37*
G36*
Y12155D2*
Y12241D1*
X9930D1*
Y12155D1*
X9458D1*
G37*
G36*
Y12352D2*
Y12438D1*
X9930D1*
Y12352D1*
X9458D1*
G37*
G36*
Y12549D2*
Y12635D1*
X9930D1*
Y12549D1*
X9458D1*
G37*
G36*
X9265Y12828D2*
X9178D1*
Y13300D1*
X9265D1*
Y12828D1*
G37*
G36*
X9068D2*
X8982D1*
Y13300D1*
X9068D1*
Y12828D1*
G37*
G36*
X8871D2*
X8785D1*
Y13300D1*
X8871D1*
Y12828D1*
G37*
G36*
X8675D2*
X8588D1*
Y13300D1*
X8675D1*
Y12828D1*
G37*
G36*
X8478D2*
X8391D1*
Y13300D1*
X8478D1*
Y12828D1*
G37*
G36*
X8281D2*
X8194D1*
Y13300D1*
X8281D1*
Y12828D1*
G37*
G36*
X8084D2*
X7997D1*
Y13300D1*
X8084D1*
Y12828D1*
G37*
G36*
X7332Y12549D2*
Y12635D1*
X7804D1*
Y12549D1*
X7332D1*
G37*
G36*
Y12352D2*
Y12438D1*
X7804D1*
Y12352D1*
X7332D1*
G37*
G36*
Y12155D2*
Y12241D1*
X7804D1*
Y12155D1*
X7332D1*
G37*
G36*
Y11958D2*
Y12045D1*
X7804D1*
Y11958D1*
X7332D1*
G37*
G36*
Y11761D2*
Y11848D1*
X7804D1*
Y11761D1*
X7332D1*
G37*
G36*
Y11564D2*
Y11651D1*
X7804D1*
Y11564D1*
X7332D1*
G37*
G36*
Y11367D2*
Y11454D1*
X7804D1*
Y11367D1*
X7332D1*
G37*
G36*
X8084Y10702D2*
X7997D1*
Y11174D1*
X8084D1*
Y10702D1*
G37*
G36*
X8281D2*
X8194D1*
Y11174D1*
X8281D1*
Y10702D1*
G37*
G36*
X8478D2*
X8391D1*
Y11174D1*
X8478D1*
Y10702D1*
G37*
G36*
X8675D2*
X8588D1*
Y11174D1*
X8675D1*
Y10702D1*
G37*
G36*
X8871D2*
X8785D1*
Y11174D1*
X8871D1*
Y10702D1*
G37*
G36*
X9068D2*
X8982D1*
Y11174D1*
X9068D1*
Y10702D1*
G37*
G36*
X9265D2*
X9178D1*
Y11174D1*
X9265D1*
Y10702D1*
G37*
G36*
X9320Y11312D2*
X7942D1*
Y12690D1*
X9320D1*
Y11312D1*
G37*
D46*
X10626Y2063D3*
Y2563D3*
Y3063D3*
Y3563D3*
X8501D3*
Y3063D3*
Y2563D3*
Y2063D3*
D50*
X5133Y21822D3*
Y19932D3*
X6118D3*
Y21822D3*
M02*
