G04 DipTrace 2.4.0.2*
%INcodec_rev2.GBO*%
%MOIN*%
%ADD10C,0.0098*%
%ADD19C,0.024*%
%ADD57C,0.0046*%
%ADD58C,0.0077*%
%FSLAX44Y44*%
G04*
G70*
G90*
G75*
G01*
%LNBotSilk*%
%LPD*%
X5800Y28066D2*
D10*
X2200D1*
Y39066D1*
X5800D1*
Y28066D1*
X3250Y29378D2*
D19*
X4750D1*
X1063Y29066D2*
D10*
Y31753D1*
X5249Y27772D2*
D57*
X5478D1*
X5521Y27786D1*
X5536Y27801D1*
X5550Y27829D1*
Y27858D1*
X5536Y27887D1*
X5521Y27901D1*
X5478Y27916D1*
X5450D1*
X5550Y27536D2*
X5249D1*
X5450Y27679D1*
Y27464D1*
X9490Y21727D2*
X9719D1*
X9762Y21742D1*
X9777Y21756D1*
X9791Y21785D1*
Y21814D1*
X9777Y21842D1*
X9762Y21856D1*
X9719Y21871D1*
X9691D1*
X9533Y21463D2*
X9504Y21477D1*
X9490Y21520D1*
Y21549D1*
X9504Y21592D1*
X9548Y21621D1*
X9619Y21635D1*
X9691D1*
X9748Y21621D1*
X9777Y21592D1*
X9791Y21549D1*
Y21534D1*
X9777Y21492D1*
X9748Y21463D1*
X9705Y21448D1*
X9691D1*
X9648Y21463D1*
X9619Y21492D1*
X9605Y21534D1*
Y21549D1*
X9619Y21592D1*
X9648Y21621D1*
X9691Y21635D1*
X7577Y30058D2*
D58*
X7301D1*
X7147Y30214D2*
X7099Y30238D1*
X7027Y30309D1*
Y29807D1*
X6848Y30190D2*
Y30214D1*
X6824Y30262D1*
X6801Y30285D1*
X6752Y30309D1*
X6657D1*
X6609Y30285D1*
X6586Y30262D1*
X6561Y30214D1*
Y30166D1*
X6586Y30118D1*
X6633Y30047D1*
X6872Y29807D1*
X6537D1*
X6383Y30310D2*
X6192Y29807D1*
X6001Y30310D1*
X1689Y28872D2*
Y28370D1*
X1473D1*
X1401Y28394D1*
X1377Y28418D1*
X1354Y28465D1*
Y28537D1*
X1377Y28585D1*
X1401Y28609D1*
X1473Y28633D1*
X1401Y28657D1*
X1377Y28681D1*
X1354Y28728D1*
Y28776D1*
X1377Y28824D1*
X1401Y28848D1*
X1473Y28872D1*
X1689D1*
Y28633D2*
X1473D1*
X1199Y28872D2*
Y28513D1*
X1176Y28442D1*
X1127Y28394D1*
X1056Y28370D1*
X1008D1*
X936Y28394D1*
X888Y28442D1*
X864Y28513D1*
Y28872D1*
X375Y28800D2*
X423Y28848D1*
X494Y28872D1*
X590D1*
X662Y28848D1*
X710Y28800D1*
Y28753D1*
X686Y28705D1*
X662Y28681D1*
X614Y28657D1*
X471Y28609D1*
X423Y28585D1*
X399Y28561D1*
X375Y28513D1*
Y28442D1*
X423Y28394D1*
X494Y28370D1*
X590D1*
X662Y28394D1*
X710Y28442D1*
X1293Y27745D2*
Y28247D1*
X1484Y27745D1*
X1676Y28247D1*
Y27745D1*
X1139Y28247D2*
Y27745D1*
X984Y28247D2*
X649Y27745D1*
Y28247D2*
X984Y27745D1*
X495Y28151D2*
X447Y28175D1*
X375Y28246D1*
Y27745D1*
X1321Y27120D2*
Y27622D1*
X1512Y27120D1*
X1703Y27622D1*
Y27120D1*
X1166Y27622D2*
Y27120D1*
X1012Y27622D2*
X677Y27120D1*
Y27622D2*
X1012Y27120D1*
X498Y27502D2*
Y27526D1*
X474Y27574D1*
X451Y27598D1*
X403Y27621D1*
X307D1*
X259Y27598D1*
X236Y27574D1*
X211Y27526D1*
Y27478D1*
X236Y27430D1*
X283Y27359D1*
X522Y27120D1*
X188D1*
X1916Y26127D2*
X1940Y26175D1*
X1988Y26223D1*
X2036Y26247D1*
X2131D1*
X2179Y26223D1*
X2227Y26175D1*
X2251Y26127D1*
X2275Y26056D1*
Y25936D1*
X2251Y25864D1*
X2227Y25816D1*
X2179Y25769D1*
X2131Y25744D1*
X2036D1*
X1988Y25769D1*
X1940Y25816D1*
X1916Y25864D1*
Y25936D1*
X2036D1*
X1427Y26247D2*
Y25744D1*
X1762Y26247D1*
Y25744D1*
X1273Y26247D2*
Y25744D1*
X1105D1*
X1033Y25769D1*
X985Y25816D1*
X961Y25864D1*
X938Y25936D1*
Y26056D1*
X961Y26127D1*
X985Y26175D1*
X1033Y26223D1*
X1105Y26247D1*
X1273D1*
X2454Y25210D2*
Y24780D1*
X2669Y24995D2*
X2238D1*
X2084Y25151D2*
X2036Y25175D1*
X1964Y25246D1*
Y24744D1*
X1785Y25127D2*
Y25151D1*
X1761Y25199D1*
X1738Y25222D1*
X1689Y25246D1*
X1594D1*
X1546Y25222D1*
X1523Y25199D1*
X1498Y25151D1*
Y25103D1*
X1523Y25055D1*
X1570Y24984D1*
X1809Y24744D1*
X1474D1*
X1320Y25247D2*
X1129Y24744D1*
X938Y25247D1*
X2514Y23995D2*
X2238D1*
X2084Y24150D2*
X2036Y24175D1*
X1964Y24246D1*
Y23744D1*
X1785Y24127D2*
Y24150D1*
X1761Y24198D1*
X1738Y24222D1*
X1689Y24246D1*
X1594D1*
X1546Y24222D1*
X1523Y24198D1*
X1498Y24150D1*
Y24103D1*
X1523Y24055D1*
X1570Y23983D1*
X1809Y23744D1*
X1474D1*
X1320Y24247D2*
X1129Y23744D1*
X938Y24247D1*
X2871Y23148D2*
Y22717D1*
X3086Y22932D2*
X2656D1*
X2453Y23183D2*
X2191D1*
X2334Y22992D1*
X2262D1*
X2214Y22968D1*
X2191Y22945D1*
X2166Y22873D1*
Y22825D1*
X2191Y22753D1*
X2238Y22705D1*
X2310Y22682D1*
X2382D1*
X2453Y22705D1*
X2477Y22730D1*
X2501Y22777D1*
X1988Y22730D2*
X2012Y22705D1*
X1988Y22682D1*
X1964Y22705D1*
X1988Y22730D1*
X1761Y23183D2*
X1499D1*
X1642Y22992D1*
X1570D1*
X1523Y22968D1*
X1499Y22945D1*
X1474Y22873D1*
Y22825D1*
X1499Y22753D1*
X1546Y22705D1*
X1618Y22682D1*
X1690D1*
X1761Y22705D1*
X1785Y22730D1*
X1809Y22777D1*
X1320Y23184D2*
X1129Y22682D1*
X938Y23184D1*
X1916Y22127D2*
X1940Y22175D1*
X1988Y22223D1*
X2036Y22246D1*
X2131D1*
X2179Y22223D1*
X2227Y22175D1*
X2251Y22127D1*
X2275Y22055D1*
Y21935D1*
X2251Y21864D1*
X2227Y21816D1*
X2179Y21768D1*
X2131Y21744D1*
X2036D1*
X1988Y21768D1*
X1940Y21816D1*
X1916Y21864D1*
Y21935D1*
X2036D1*
X1427Y22246D2*
Y21744D1*
X1762Y22246D1*
Y21744D1*
X1273Y22246D2*
Y21744D1*
X1105D1*
X1033Y21768D1*
X985Y21816D1*
X961Y21864D1*
X938Y21935D1*
Y22055D1*
X961Y22127D1*
X985Y22175D1*
X1033Y22223D1*
X1105Y22246D1*
X1273D1*
X4243Y21246D2*
X4052Y20744D1*
X3860Y21246D1*
X3706Y21007D2*
X3491D1*
X3419Y21031D1*
X3395Y21055D1*
X3371Y21103D1*
Y21151D1*
X3395Y21198D1*
X3419Y21222D1*
X3491Y21246D1*
X3706D1*
Y20744D1*
X3539Y21007D2*
X3371Y20744D1*
X2906Y21246D2*
X3217D1*
Y20744D1*
X2906D1*
X3217Y21007D2*
X3026D1*
X2441Y21246D2*
X2752D1*
Y20744D1*
Y21007D2*
X2561D1*
X2286Y21150D2*
X2238Y21174D1*
X2166Y21246D1*
Y20744D1*
X1988Y20792D2*
X2012Y20768D1*
X1988Y20744D1*
X1964Y20768D1*
X1988Y20792D1*
X1785Y21126D2*
Y21150D1*
X1761Y21198D1*
X1738Y21222D1*
X1689Y21246D1*
X1594D1*
X1546Y21222D1*
X1523Y21198D1*
X1498Y21150D1*
Y21103D1*
X1523Y21054D1*
X1570Y20983D1*
X1809Y20744D1*
X1474D1*
X1320Y21246D2*
X1129Y20744D1*
X938Y21246D1*
X3960Y19627D2*
X3984Y19674D1*
X4032Y19722D1*
X4079Y19746D1*
X4175D1*
X4223Y19722D1*
X4270Y19674D1*
X4295Y19627D1*
X4319Y19555D1*
Y19435D1*
X4295Y19364D1*
X4270Y19316D1*
X4223Y19268D1*
X4175Y19244D1*
X4079D1*
X4032Y19268D1*
X3984Y19316D1*
X3960Y19364D1*
Y19435D1*
X4079D1*
X3422Y19244D2*
X3614Y19746D1*
X3805Y19244D1*
X3734Y19411D2*
X3494D1*
X3101Y19746D2*
Y19244D1*
X3268Y19746D2*
X2933D1*
X2468D2*
X2779D1*
Y19244D1*
X2468D1*
X2779Y19507D2*
X2587D1*
X2314Y19746D2*
Y19244D1*
X2098D1*
X2026Y19268D1*
X2003Y19292D1*
X1979Y19339D1*
Y19411D1*
X2003Y19459D1*
X2026Y19483D1*
X2098Y19507D1*
X2026Y19531D1*
X2003Y19555D1*
X1979Y19602D1*
Y19650D1*
X2003Y19698D1*
X2026Y19722D1*
X2098Y19746D1*
X2314D1*
Y19507D2*
X2098D1*
X1824Y19746D2*
Y19387D1*
X1801Y19316D1*
X1753Y19268D1*
X1681Y19244D1*
X1633D1*
X1561Y19268D1*
X1513Y19316D1*
X1489Y19387D1*
Y19746D1*
X1000Y19674D2*
X1048Y19722D1*
X1119Y19746D1*
X1215D1*
X1287Y19722D1*
X1335Y19674D1*
Y19627D1*
X1311Y19579D1*
X1287Y19555D1*
X1239Y19531D1*
X1096Y19483D1*
X1048Y19459D1*
X1024Y19435D1*
X1000Y19387D1*
Y19316D1*
X1048Y19268D1*
X1119Y19244D1*
X1215D1*
X1287Y19268D1*
X1335Y19316D1*
X3136Y18627D2*
X3159Y18674D1*
X3207Y18722D1*
X3255Y18746D1*
X3351D1*
X3399Y18722D1*
X3446Y18674D1*
X3471Y18627D1*
X3494Y18555D1*
Y18435D1*
X3471Y18364D1*
X3446Y18315D1*
X3399Y18268D1*
X3351Y18244D1*
X3255D1*
X3207Y18268D1*
X3159Y18315D1*
X3136Y18364D1*
Y18435D1*
X3255D1*
X2598Y18244D2*
X2790Y18746D1*
X2981Y18244D1*
X2909Y18411D2*
X2670D1*
X2276Y18746D2*
Y18244D1*
X2444Y18746D2*
X2109D1*
X1644D2*
X1954D1*
Y18244D1*
X1644D1*
X1954Y18507D2*
X1763D1*
X1489Y18746D2*
Y18244D1*
X1000Y18746D2*
Y18244D1*
X1335Y18746D1*
Y18244D1*
X1979Y17627D2*
X2003Y17674D1*
X2051Y17722D1*
X2098Y17746D1*
X2194D1*
X2242Y17722D1*
X2289Y17674D1*
X2314Y17627D1*
X2337Y17555D1*
Y17435D1*
X2314Y17363D1*
X2289Y17315D1*
X2242Y17268D1*
X2194Y17243D1*
X2098D1*
X2051Y17268D1*
X2003Y17315D1*
X1979Y17363D1*
Y17435D1*
X2098D1*
X1489Y17746D2*
Y17243D1*
X1824Y17746D1*
Y17243D1*
X1335Y17746D2*
Y17243D1*
X1168D1*
X1096Y17268D1*
X1048Y17315D1*
X1024Y17363D1*
X1000Y17435D1*
Y17555D1*
X1024Y17627D1*
X1048Y17674D1*
X1096Y17722D1*
X1168Y17746D1*
X1335D1*
X2803Y16483D2*
X2587D1*
X2516Y16506D1*
X2492Y16531D1*
X2468Y16578D1*
Y16650D1*
X2492Y16698D1*
X2516Y16722D1*
X2587Y16746D1*
X2803D1*
Y16243D1*
X2146Y16746D2*
Y16243D1*
X2314Y16746D2*
X1979D1*
X1824D2*
Y16243D1*
X1609D1*
X1537Y16268D1*
X1513Y16291D1*
X1489Y16339D1*
Y16411D1*
X1513Y16459D1*
X1537Y16483D1*
X1609Y16506D1*
X1537Y16531D1*
X1513Y16555D1*
X1489Y16602D1*
Y16650D1*
X1513Y16698D1*
X1537Y16722D1*
X1609Y16746D1*
X1824D1*
Y16506D2*
X1609D1*
X1191Y16745D2*
X1263Y16721D1*
X1311Y16650D1*
X1335Y16530D1*
Y16458D1*
X1311Y16339D1*
X1263Y16267D1*
X1191Y16243D1*
X1144D1*
X1072Y16267D1*
X1024Y16339D1*
X1000Y16458D1*
Y16530D1*
X1024Y16650D1*
X1072Y16721D1*
X1144Y16745D1*
X1191D1*
X1024Y16650D2*
X1311Y16339D1*
X2651Y15483D2*
X2435D1*
X2364Y15506D1*
X2339Y15531D1*
X2316Y15578D1*
Y15650D1*
X2339Y15698D1*
X2364Y15722D1*
X2435Y15746D1*
X2651D1*
Y15243D1*
X1994Y15746D2*
Y15243D1*
X2161Y15746D2*
X1826D1*
X1672D2*
Y15243D1*
X1456D1*
X1384Y15268D1*
X1361Y15291D1*
X1337Y15339D1*
Y15411D1*
X1361Y15459D1*
X1384Y15483D1*
X1456Y15506D1*
X1384Y15531D1*
X1361Y15554D1*
X1337Y15602D1*
Y15650D1*
X1361Y15698D1*
X1384Y15722D1*
X1456Y15746D1*
X1672D1*
Y15506D2*
X1456D1*
X1183Y15650D2*
X1134Y15674D1*
X1063Y15745D1*
Y15243D1*
X2741Y14545D2*
X2525D1*
X2454Y14569D1*
X2429Y14593D1*
X2406Y14641D1*
Y14712D1*
X2429Y14760D1*
X2454Y14784D1*
X2525Y14808D1*
X2741D1*
Y14306D1*
X2084Y14808D2*
Y14306D1*
X2251Y14808D2*
X1916D1*
X1762D2*
Y14306D1*
X1546D1*
X1474Y14330D1*
X1451Y14354D1*
X1427Y14401D1*
Y14473D1*
X1451Y14521D1*
X1474Y14545D1*
X1546Y14569D1*
X1474Y14593D1*
X1451Y14617D1*
X1427Y14664D1*
Y14712D1*
X1451Y14760D1*
X1474Y14784D1*
X1546Y14808D1*
X1762D1*
Y14569D2*
X1546D1*
X1248Y14688D2*
Y14712D1*
X1224Y14760D1*
X1201Y14784D1*
X1153Y14808D1*
X1057D1*
X1009Y14784D1*
X986Y14760D1*
X961Y14712D1*
Y14664D1*
X986Y14616D1*
X1033Y14545D1*
X1273Y14306D1*
X938D1*
X2741Y13482D2*
X2525D1*
X2454Y13506D1*
X2429Y13530D1*
X2406Y13578D1*
Y13650D1*
X2429Y13697D1*
X2454Y13722D1*
X2525Y13745D1*
X2741D1*
Y13243D1*
X2084Y13745D2*
Y13243D1*
X2251Y13745D2*
X1916D1*
X1762D2*
Y13243D1*
X1546D1*
X1474Y13267D1*
X1451Y13291D1*
X1427Y13339D1*
Y13411D1*
X1451Y13459D1*
X1474Y13482D1*
X1546Y13506D1*
X1474Y13530D1*
X1451Y13554D1*
X1427Y13602D1*
Y13650D1*
X1451Y13697D1*
X1474Y13722D1*
X1546Y13745D1*
X1762D1*
Y13506D2*
X1546D1*
X1224Y13745D2*
X962D1*
X1105Y13554D1*
X1033D1*
X986Y13530D1*
X962Y13506D1*
X938Y13434D1*
Y13387D1*
X962Y13315D1*
X1009Y13267D1*
X1081Y13243D1*
X1153D1*
X1224Y13267D1*
X1248Y13291D1*
X1273Y13339D1*
X2991Y12482D2*
X2775D1*
X2704Y12506D1*
X2679Y12530D1*
X2656Y12578D1*
Y12650D1*
X2679Y12697D1*
X2704Y12722D1*
X2775Y12745D1*
X2991D1*
Y12243D1*
X2334Y12745D2*
Y12243D1*
X2501Y12745D2*
X2166D1*
X2012D2*
Y12243D1*
X1796D1*
X1724Y12267D1*
X1701Y12291D1*
X1677Y12339D1*
Y12410D1*
X1701Y12459D1*
X1724Y12482D1*
X1796Y12506D1*
X1724Y12530D1*
X1701Y12554D1*
X1677Y12602D1*
Y12650D1*
X1701Y12697D1*
X1724Y12722D1*
X1796Y12745D1*
X2012D1*
Y12506D2*
X1796D1*
X1523Y12649D2*
X1474Y12674D1*
X1403Y12745D1*
Y12243D1*
X961Y12674D2*
X985Y12721D1*
X1057Y12745D1*
X1105D1*
X1176Y12721D1*
X1224Y12649D1*
X1248Y12530D1*
Y12410D1*
X1224Y12315D1*
X1176Y12267D1*
X1105Y12243D1*
X1081D1*
X1009Y12267D1*
X961Y12315D1*
X938Y12387D1*
Y12410D1*
X961Y12482D1*
X1009Y12530D1*
X1081Y12554D1*
X1105D1*
X1176Y12530D1*
X1224Y12482D1*
X1248Y12410D1*
X3015Y11482D2*
X2799D1*
X2728Y11506D1*
X2704Y11530D1*
X2680Y11578D1*
Y11650D1*
X2704Y11697D1*
X2728Y11721D1*
X2799Y11745D1*
X3015D1*
Y11243D1*
X2358Y11745D2*
Y11243D1*
X2526Y11745D2*
X2191D1*
X2036D2*
Y11243D1*
X1821D1*
X1749Y11267D1*
X1725Y11291D1*
X1701Y11338D1*
Y11410D1*
X1725Y11458D1*
X1749Y11482D1*
X1821Y11506D1*
X1749Y11530D1*
X1725Y11554D1*
X1701Y11602D1*
Y11650D1*
X1725Y11697D1*
X1749Y11721D1*
X1821Y11745D1*
X2036D1*
Y11506D2*
X1821D1*
X1547Y11649D2*
X1499Y11673D1*
X1427Y11745D1*
Y11243D1*
X1177D2*
X938Y11745D1*
X1273D1*
X2764Y10482D2*
X2549D1*
X2477Y10506D1*
X2453Y10530D1*
X2429Y10578D1*
Y10650D1*
X2453Y10697D1*
X2477Y10721D1*
X2549Y10745D1*
X2764D1*
Y10243D1*
X2107Y10745D2*
Y10243D1*
X2275Y10745D2*
X1940D1*
X1427Y10626D2*
X1451Y10673D1*
X1499Y10721D1*
X1546Y10745D1*
X1642D1*
X1690Y10721D1*
X1738Y10673D1*
X1762Y10626D1*
X1786Y10554D1*
Y10434D1*
X1762Y10363D1*
X1738Y10315D1*
X1690Y10267D1*
X1642Y10243D1*
X1546D1*
X1499Y10267D1*
X1451Y10315D1*
X1427Y10363D1*
X1129Y10745D2*
X1201Y10721D1*
X1249Y10649D1*
X1273Y10530D1*
Y10458D1*
X1249Y10338D1*
X1201Y10267D1*
X1129Y10243D1*
X1081D1*
X1009Y10267D1*
X962Y10338D1*
X938Y10458D1*
Y10530D1*
X962Y10649D1*
X1009Y10721D1*
X1081Y10745D1*
X1129D1*
X962Y10649D2*
X1249Y10338D1*
X2764Y9544D2*
X2549D1*
X2477Y9568D1*
X2453Y9593D1*
X2429Y9640D1*
Y9712D1*
X2453Y9759D1*
X2477Y9784D1*
X2549Y9808D1*
X2764D1*
Y9305D1*
X2107Y9808D2*
Y9305D1*
X2275Y9808D2*
X1940D1*
X1427Y9688D2*
X1451Y9736D1*
X1499Y9784D1*
X1546Y9808D1*
X1642D1*
X1690Y9784D1*
X1738Y9736D1*
X1762Y9688D1*
X1786Y9616D1*
Y9496D1*
X1762Y9425D1*
X1738Y9377D1*
X1690Y9329D1*
X1642Y9305D1*
X1546D1*
X1499Y9329D1*
X1451Y9377D1*
X1427Y9425D1*
X1248Y9688D2*
Y9711D1*
X1224Y9759D1*
X1201Y9783D1*
X1153Y9807D1*
X1057D1*
X1009Y9783D1*
X986Y9759D1*
X961Y9711D1*
Y9664D1*
X986Y9616D1*
X1033Y9544D1*
X1273Y9305D1*
X938D1*
X1979Y8626D2*
X2003Y8673D1*
X2051Y8721D1*
X2098Y8745D1*
X2194D1*
X2242Y8721D1*
X2289Y8673D1*
X2314Y8626D1*
X2337Y8554D1*
Y8434D1*
X2314Y8362D1*
X2289Y8314D1*
X2242Y8267D1*
X2194Y8243D1*
X2098D1*
X2051Y8267D1*
X2003Y8314D1*
X1979Y8362D1*
Y8434D1*
X2098D1*
X1489Y8745D2*
Y8243D1*
X1824Y8745D1*
Y8243D1*
X1335Y8745D2*
Y8243D1*
X1168D1*
X1096Y8267D1*
X1048Y8314D1*
X1024Y8362D1*
X1000Y8434D1*
Y8554D1*
X1024Y8626D1*
X1048Y8673D1*
X1096Y8721D1*
X1168Y8745D1*
X1335D1*
X2741Y7482D2*
X2525D1*
X2454Y7506D1*
X2429Y7530D1*
X2406Y7577D1*
Y7649D1*
X2429Y7697D1*
X2454Y7721D1*
X2525Y7745D1*
X2741D1*
Y7242D1*
X2084Y7745D2*
Y7242D1*
X2251Y7745D2*
X1916D1*
X1762D2*
Y7242D1*
X1594D1*
X1523Y7267D1*
X1474Y7314D1*
X1451Y7362D1*
X1427Y7434D1*
Y7554D1*
X1451Y7625D1*
X1474Y7673D1*
X1523Y7721D1*
X1594Y7745D1*
X1762D1*
X1177Y7242D2*
X938Y7744D1*
X1273D1*
X2779Y6482D2*
X2563D1*
X2492Y6505D1*
X2468Y6530D1*
X2444Y6577D1*
Y6649D1*
X2468Y6697D1*
X2492Y6721D1*
X2563Y6745D1*
X2779D1*
Y6242D1*
X2122Y6745D2*
Y6242D1*
X2289Y6745D2*
X1954D1*
X1800D2*
Y6242D1*
X1633D1*
X1561Y6267D1*
X1513Y6314D1*
X1489Y6362D1*
X1465Y6434D1*
Y6553D1*
X1489Y6625D1*
X1513Y6673D1*
X1561Y6721D1*
X1633Y6745D1*
X1800D1*
X1024Y6673D2*
X1048Y6720D1*
X1119Y6744D1*
X1167D1*
X1239Y6720D1*
X1287Y6649D1*
X1311Y6529D1*
Y6410D1*
X1287Y6314D1*
X1239Y6266D1*
X1167Y6242D1*
X1143D1*
X1072Y6266D1*
X1024Y6314D1*
X1000Y6386D1*
Y6410D1*
X1024Y6482D1*
X1072Y6529D1*
X1143Y6553D1*
X1167D1*
X1239Y6529D1*
X1287Y6482D1*
X1311Y6410D1*
X2803Y5482D2*
X2587D1*
X2516Y5505D1*
X2492Y5530D1*
X2468Y5577D1*
Y5649D1*
X2492Y5697D1*
X2516Y5721D1*
X2587Y5745D1*
X2803D1*
Y5242D1*
X2146Y5745D2*
Y5242D1*
X2314Y5745D2*
X1979D1*
X1824D2*
Y5242D1*
X1657D1*
X1585Y5267D1*
X1537Y5314D1*
X1513Y5362D1*
X1489Y5433D1*
Y5553D1*
X1513Y5625D1*
X1537Y5673D1*
X1585Y5721D1*
X1657Y5745D1*
X1824D1*
X1048Y5744D2*
X1287D1*
X1311Y5529D1*
X1287Y5553D1*
X1215Y5577D1*
X1144D1*
X1072Y5553D1*
X1024Y5505D1*
X1000Y5433D1*
Y5386D1*
X1024Y5314D1*
X1072Y5266D1*
X1144Y5242D1*
X1215D1*
X1287Y5266D1*
X1311Y5290D1*
X1335Y5338D1*
X1382Y2023D2*
X1334Y2047D1*
X1286Y2095D1*
X1262Y2142D1*
Y2238D1*
X1286Y2286D1*
X1334Y2333D1*
X1382Y2358D1*
X1454Y2382D1*
X1574D1*
X1645Y2358D1*
X1693Y2333D1*
X1741Y2286D1*
X1765Y2238D1*
Y2142D1*
X1741Y2095D1*
X1693Y2047D1*
X1645Y2023D1*
X1574D1*
Y2142D1*
X1262Y1534D2*
X1765D1*
X1262Y1868D1*
X1765D1*
X1262Y1379D2*
X1765D1*
Y1212D1*
X1741Y1140D1*
X1693Y1092D1*
X1645Y1068D1*
X1574Y1044D1*
X1454D1*
X1382Y1068D1*
X1334Y1092D1*
X1286Y1140D1*
X1262Y1212D1*
Y1379D1*
X2263Y2037D2*
X2765D1*
Y1750D1*
X2263Y1596D2*
X2765D1*
X2263Y1107D2*
X2765D1*
X2263Y1442D1*
X2765D1*
X3502Y2023D2*
Y1808D1*
X3478Y1736D1*
X3454Y1712D1*
X3406Y1688D1*
X3358D1*
X3311Y1712D1*
X3286Y1736D1*
X3263Y1808D1*
Y2023D1*
X3765D1*
X3502Y1855D2*
X3765Y1688D1*
X3263Y1534D2*
X3765D1*
X3263Y1044D2*
X3765D1*
X3263Y1379D1*
X3765D1*
X4382Y1960D2*
X4335Y1984D1*
X4287Y2032D1*
X4263Y2080D1*
Y2175D1*
X4287Y2223D1*
X4335Y2271D1*
X4382Y2295D1*
X4454Y2319D1*
X4574D1*
X4645Y2295D1*
X4693Y2271D1*
X4741Y2223D1*
X4765Y2175D1*
Y2080D1*
X4741Y2032D1*
X4693Y1984D1*
X4645Y1960D1*
X4574D1*
Y2080D1*
X4263Y1471D2*
X4765D1*
X4263Y1806D1*
X4765D1*
X4263Y1317D2*
X4765D1*
Y1149D1*
X4741Y1077D1*
X4693Y1029D1*
X4645Y1005D1*
X4574Y982D1*
X4454D1*
X4382Y1005D1*
X4335Y1029D1*
X4287Y1077D1*
X4263Y1149D1*
Y1317D1*
X5237Y2498D2*
X5667D1*
X5452Y2713D2*
Y2282D1*
X5297Y2128D2*
X5272Y2080D1*
X5201Y2008D1*
X5703D1*
X5320Y1829D2*
X5297D1*
X5248Y1805D1*
X5225Y1782D1*
X5201Y1734D1*
Y1638D1*
X5225Y1590D1*
X5248Y1567D1*
X5297Y1542D1*
X5344D1*
X5392Y1567D1*
X5463Y1614D1*
X5703Y1854D1*
Y1519D1*
X5200Y1364D2*
X5703Y1173D1*
X5200Y982D1*
X6514Y2559D2*
Y2282D1*
X6359Y2128D2*
X6335Y2080D1*
X6264Y2008D1*
X6765D1*
X6383Y1829D2*
X6359D1*
X6311Y1805D1*
X6287Y1782D1*
X6264Y1734D1*
Y1638D1*
X6287Y1590D1*
X6311Y1567D1*
X6359Y1542D1*
X6407D1*
X6455Y1567D1*
X6526Y1614D1*
X6765Y1854D1*
Y1519D1*
X6263Y1364D2*
X6765Y1173D1*
X6263Y982D1*
X7382Y1960D2*
X7335Y1984D1*
X7287Y2032D1*
X7263Y2080D1*
Y2175D1*
X7287Y2223D1*
X7335Y2271D1*
X7382Y2295D1*
X7454Y2319D1*
X7574D1*
X7646Y2295D1*
X7694Y2271D1*
X7741Y2223D1*
X7765Y2175D1*
Y2080D1*
X7741Y2032D1*
X7694Y1984D1*
X7646Y1960D1*
X7574D1*
Y2080D1*
X7263Y1471D2*
X7765D1*
X7263Y1806D1*
X7765D1*
X7263Y1317D2*
X7765D1*
Y1149D1*
X7741Y1077D1*
X7694Y1029D1*
X7646Y1005D1*
X7574Y982D1*
X7454D1*
X7382Y1005D1*
X7335Y1029D1*
X7287Y1077D1*
X7263Y1149D1*
Y1317D1*
X8263Y2784D2*
X8766D1*
Y2497D1*
X8263Y2199D2*
X8287Y2247D1*
X8335Y2295D1*
X8383Y2319D1*
X8454Y2343D1*
X8574D1*
X8646Y2319D1*
X8694Y2295D1*
X8741Y2247D1*
X8766Y2199D1*
Y2104D1*
X8741Y2056D1*
X8694Y2008D1*
X8646Y1984D1*
X8574Y1960D1*
X8454D1*
X8383Y1984D1*
X8335Y2008D1*
X8287Y2056D1*
X8263Y2104D1*
Y2199D1*
Y1806D2*
X8622D1*
X8694Y1782D1*
X8741Y1734D1*
X8766Y1662D1*
Y1615D1*
X8741Y1543D1*
X8694Y1495D1*
X8622Y1471D1*
X8263D1*
Y1149D2*
X8766D1*
X8263Y1317D2*
Y982D1*
X9383Y1960D2*
X9335Y1984D1*
X9287Y2032D1*
X9263Y2080D1*
Y2175D1*
X9287Y2223D1*
X9335Y2271D1*
X9383Y2295D1*
X9455Y2319D1*
X9574D1*
X9646Y2295D1*
X9694Y2271D1*
X9741Y2223D1*
X9766Y2175D1*
Y2080D1*
X9741Y2032D1*
X9694Y1984D1*
X9646Y1960D1*
X9574D1*
Y2080D1*
X9263Y1471D2*
X9766D1*
X9263Y1806D1*
X9766D1*
X9263Y1317D2*
X9766D1*
Y1149D1*
X9741Y1077D1*
X9694Y1029D1*
X9646Y1005D1*
X9574Y982D1*
X9455D1*
X9383Y1005D1*
X9335Y1029D1*
X9287Y1077D1*
X9263Y1149D1*
Y1317D1*
X10440Y2832D2*
Y2617D1*
X10416Y2545D1*
X10392Y2521D1*
X10345Y2497D1*
X10297D1*
X10249Y2521D1*
X10225Y2545D1*
X10201Y2617D1*
Y2832D1*
X10703D1*
X10440Y2665D2*
X10703Y2497D1*
X10201Y2199D2*
X10225Y2247D1*
X10273Y2295D1*
X10320Y2319D1*
X10392Y2343D1*
X10512D1*
X10583Y2319D1*
X10631Y2295D1*
X10679Y2247D1*
X10703Y2199D1*
Y2104D1*
X10679Y2056D1*
X10631Y2008D1*
X10583Y1984D1*
X10512Y1960D1*
X10392D1*
X10320Y1984D1*
X10273Y2008D1*
X10225Y2056D1*
X10201Y2104D1*
Y2199D1*
Y1806D2*
X10560D1*
X10631Y1782D1*
X10679Y1734D1*
X10703Y1662D1*
Y1615D1*
X10679Y1543D1*
X10631Y1495D1*
X10560Y1471D1*
X10201D1*
Y1149D2*
X10703D1*
X10201Y1317D2*
Y982D1*
X11383Y1960D2*
X11335Y1984D1*
X11287Y2032D1*
X11263Y2080D1*
Y2175D1*
X11287Y2223D1*
X11335Y2271D1*
X11383Y2295D1*
X11455Y2319D1*
X11575D1*
X11646Y2295D1*
X11694Y2271D1*
X11742Y2223D1*
X11766Y2175D1*
Y2080D1*
X11742Y2032D1*
X11694Y1984D1*
X11646Y1960D1*
X11575D1*
Y2080D1*
X11263Y1471D2*
X11766D1*
X11263Y1806D1*
X11766D1*
X11263Y1317D2*
X11766D1*
Y1149D1*
X11742Y1077D1*
X11694Y1029D1*
X11646Y1005D1*
X11575Y982D1*
X11455D1*
X11383Y1005D1*
X11335Y1029D1*
X11287Y1077D1*
X11263Y1149D1*
Y1317D1*
X12383Y3034D2*
X12335Y3058D1*
X12287Y3106D1*
X12264Y3153D1*
Y3249D1*
X12287Y3297D1*
X12335Y3345D1*
X12383Y3369D1*
X12455Y3393D1*
X12575D1*
X12646Y3369D1*
X12694Y3345D1*
X12742Y3297D1*
X12766Y3249D1*
Y3153D1*
X12742Y3106D1*
X12694Y3058D1*
X12646Y3034D1*
X12264Y2880D2*
X12766Y2688D1*
X12264Y2497D1*
Y2199D2*
X12287Y2247D1*
X12335Y2295D1*
X12383Y2319D1*
X12455Y2343D1*
X12575D1*
X12646Y2319D1*
X12694Y2295D1*
X12742Y2247D1*
X12766Y2199D1*
Y2104D1*
X12742Y2056D1*
X12694Y2008D1*
X12646Y1984D1*
X12575Y1960D1*
X12455D1*
X12383Y1984D1*
X12335Y2008D1*
X12287Y2056D1*
X12264Y2104D1*
Y2199D1*
Y1806D2*
X12622D1*
X12694Y1782D1*
X12742Y1734D1*
X12766Y1662D1*
Y1615D1*
X12742Y1543D1*
X12694Y1495D1*
X12622Y1471D1*
X12264D1*
Y1149D2*
X12766D1*
X12264Y1317D2*
Y982D1*
X10823Y12472D2*
Y12782D1*
X11326D1*
Y12472D1*
X11063Y12782D2*
Y12591D1*
X10823Y12317D2*
X11182D1*
X11254Y12294D1*
X11301Y12246D1*
X11326Y12174D1*
Y12126D1*
X11301Y12054D1*
X11254Y12006D1*
X11182Y11983D1*
X10823D1*
X11063Y11828D2*
Y11613D1*
X11038Y11541D1*
X11014Y11517D1*
X10967Y11493D1*
X10919D1*
X10871Y11517D1*
X10847Y11541D1*
X10823Y11613D1*
Y11828D1*
X11326D1*
X11063Y11661D2*
X11326Y11493D1*
X10823Y11195D2*
X10847Y11243D1*
X10895Y11291D1*
X10943Y11315D1*
X11014Y11339D1*
X11134D1*
X11206Y11315D1*
X11254Y11291D1*
X11301Y11243D1*
X11326Y11195D1*
Y11099D1*
X11301Y11052D1*
X11254Y11004D1*
X11206Y10980D1*
X11134Y10956D1*
X11014D1*
X10943Y10980D1*
X10895Y11004D1*
X10847Y11052D1*
X10823Y11099D1*
Y11195D1*
X10943Y10443D2*
X10895Y10467D1*
X10847Y10515D1*
X10823Y10563D1*
Y10658D1*
X10847Y10706D1*
X10895Y10754D1*
X10943Y10778D1*
X11014Y10802D1*
X11134D1*
X11206Y10778D1*
X11254Y10754D1*
X11301Y10706D1*
X11326Y10658D1*
Y10563D1*
X11301Y10515D1*
X11254Y10467D1*
X11206Y10443D1*
X10823Y10145D2*
X10847Y10193D1*
X10895Y10241D1*
X10943Y10265D1*
X11014Y10289D1*
X11134D1*
X11206Y10265D1*
X11254Y10241D1*
X11301Y10193D1*
X11326Y10145D1*
Y10050D1*
X11301Y10002D1*
X11254Y9954D1*
X11206Y9930D1*
X11134Y9906D1*
X11014D1*
X10943Y9930D1*
X10895Y9954D1*
X10847Y10002D1*
X10823Y10050D1*
Y10145D1*
Y9752D2*
X11326D1*
Y9585D1*
X11301Y9513D1*
X11254Y9465D1*
X11206Y9441D1*
X11134Y9417D1*
X11014D1*
X10943Y9441D1*
X10895Y9465D1*
X10847Y9513D1*
X10823Y9585D1*
Y9752D1*
Y8952D2*
Y9263D1*
X11326D1*
Y8952D1*
X11063Y9263D2*
Y9071D1*
X10943Y8439D2*
X10895Y8463D1*
X10847Y8511D1*
X10823Y8558D1*
Y8654D1*
X10847Y8702D1*
X10895Y8750D1*
X10943Y8774D1*
X11014Y8798D1*
X11134D1*
X11206Y8774D1*
X11254Y8750D1*
X11301Y8702D1*
X11326Y8654D1*
Y8558D1*
X11301Y8511D1*
X11254Y8463D1*
X11206Y8439D1*
X10991Y7799D2*
X11326D1*
X11134D2*
X11063Y7774D1*
X11014Y7727D1*
X10991Y7679D1*
Y7607D1*
X11134Y7452D2*
Y7166D1*
X11086D1*
X11038Y7189D1*
X11014Y7213D1*
X10991Y7261D1*
Y7333D1*
X11014Y7381D1*
X11063Y7429D1*
X11134Y7452D1*
X11182D1*
X11254Y7429D1*
X11301Y7381D1*
X11326Y7333D1*
Y7261D1*
X11301Y7213D1*
X11254Y7166D1*
X10991Y7011D2*
X11326Y6867D1*
X10991Y6724D1*
X10943Y6546D2*
X10919D1*
X10871Y6522D1*
X10848Y6498D1*
X10824Y6450D1*
Y6354D1*
X10848Y6307D1*
X10871Y6283D1*
X10919Y6259D1*
X10967D1*
X11015Y6283D1*
X11086Y6331D1*
X11326Y6570D1*
Y6235D1*
X11722Y12716D2*
X12224D1*
Y12429D1*
X11722Y12275D2*
X12224D1*
X11722Y11940D2*
X12057Y12275D1*
X11937Y12156D2*
X12224Y11940D1*
X11842Y11275D2*
X11818D1*
X11770Y11251D1*
X11746Y11228D1*
X11723Y11180D1*
Y11084D1*
X11746Y11036D1*
X11770Y11013D1*
X11818Y10988D1*
X11866D1*
X11914Y11013D1*
X11985Y11060D1*
X12224Y11300D1*
Y10965D1*
X11723Y10667D2*
X11746Y10738D1*
X11818Y10786D1*
X11938Y10810D1*
X12009D1*
X12129Y10786D1*
X12201Y10738D1*
X12224Y10667D1*
Y10619D1*
X12201Y10547D1*
X12129Y10500D1*
X12009Y10475D1*
X11938D1*
X11818Y10500D1*
X11746Y10547D1*
X11723Y10619D1*
Y10667D1*
X11818Y10500D2*
X12129Y10786D1*
X11818Y10321D2*
X11794Y10273D1*
X11723Y10201D1*
X12224D1*
X11723Y9760D2*
Y9999D1*
X11938Y10022D1*
X11914Y9999D1*
X11889Y9927D1*
Y9855D1*
X11914Y9784D1*
X11961Y9735D1*
X12033Y9712D1*
X12081D1*
X12153Y9735D1*
X12201Y9784D1*
X12224Y9855D1*
Y9927D1*
X12201Y9999D1*
X12176Y10022D1*
X12129Y10047D1*
X2412Y27815D2*
X2436Y27863D1*
X2484Y27911D1*
X2531Y27934D1*
X2627D1*
X2675Y27911D1*
X2723Y27863D1*
X2747Y27815D1*
X2771Y27743D1*
Y27623D1*
X2747Y27552D1*
X2723Y27504D1*
X2675Y27456D1*
X2627Y27432D1*
X2531D1*
X2484Y27456D1*
X2436Y27504D1*
X2412Y27552D1*
X2258Y27934D2*
X2066Y27432D1*
X1875Y27934D1*
M02*
