G04 DipTrace 2.4.0.2*
%INcodec_rev2.GBL*%
%MOIN*%
%ADD13C,0.012*%
%ADD14C,0.0079*%
%ADD15C,0.0071*%
%ADD16C,0.006*%
%ADD18C,0.01*%
%ADD30R,0.0638X0.0638*%
%ADD31C,0.0638*%
%ADD32R,0.0669X0.0669*%
%ADD33C,0.0669*%
%ADD38R,0.0394X0.0236*%
%ADD39C,0.05*%
%ADD40C,0.05*%
%ADD45C,0.042*%
%ADD51C,0.026*%
%FSLAX44Y44*%
G04*
G70*
G90*
G75*
G01*
%LNBottom*%
%LPD*%
X7313Y11064D2*
D13*
X7376Y11126D1*
X7438D1*
X7938Y11626D1*
X8180D1*
X8631D1*
X8563Y9564D2*
X8631Y9631D1*
Y11626D1*
X7876Y13939D2*
X8251Y13564D1*
Y12751D1*
X8626Y12376D1*
X10126D2*
X9063D1*
X6813Y11814D2*
X7063D1*
X7626Y12376D1*
X8188D1*
X9063D2*
X8626D1*
X8188D1*
X7813Y20752D2*
Y19565D1*
Y19502D1*
X7438Y19127D1*
X6188D1*
X6001Y19315D1*
X5514D1*
X4750D1*
X4625Y19440D1*
Y20874D1*
Y22440D1*
X5751D1*
X6376D1*
X7162Y21654D1*
X7626Y21190D1*
X7813Y21002D1*
Y20627D1*
X7313Y19565D2*
X7813D1*
X5626Y20877D2*
X4625Y20874D1*
X6813Y21654D2*
X7162D1*
X7313Y21190D2*
X7626D1*
X5751Y21822D2*
Y22440D1*
X5514Y19932D2*
Y19315D1*
X8631Y11626D2*
D16*
X9063D1*
D13*
X9313D1*
X9939Y11001D1*
X3000Y1063D2*
D16*
X2501Y563D1*
Y500D1*
X9001Y2563D2*
X9063D1*
X9438Y2938D1*
Y4438D1*
X9814Y4813D1*
X8501Y500D2*
X9001Y1000D1*
Y2563D1*
X9063Y10501D2*
X9188D1*
X11064Y8626D1*
Y8063D1*
X8376Y19190D2*
X8001D1*
X7751Y18939D1*
X3125D1*
X2813D1*
X2000Y18127D1*
X3063Y18877D2*
D14*
X3125Y18939D1*
X12250Y4187D2*
D16*
Y3939D1*
X12439Y3750D1*
Y3563D1*
X12314Y3438D1*
Y1875D1*
X8188Y16564D2*
Y15877D1*
X7813Y15502D1*
Y14377D1*
X8688Y13501D1*
X8876D1*
X9376Y13439D2*
X8634Y14181D1*
X8321D1*
X8063Y14439D1*
Y14814D1*
X8376Y14564D2*
D13*
X8876D1*
X9063Y14377D1*
X9501D1*
Y14189D1*
X10189Y13501D1*
X10439D1*
X11064D1*
X10689D1*
X10677Y13490D1*
X10439Y13501D2*
D15*
Y12251D1*
X10189Y12001D1*
X6876Y11439D2*
X6938D1*
X7501Y12001D1*
X10189D1*
X5501Y23627D2*
D13*
X7188D1*
X8626Y25065D1*
X8938Y25378D1*
X9126Y25065D2*
X8626D1*
X9126Y21315D2*
Y22440D1*
X8626Y22940D1*
Y23127D1*
Y24565D1*
X8938Y24878D1*
Y25378D1*
X9126Y25065D2*
X8938Y24878D1*
X4188Y18627D2*
D15*
X4375Y18439D1*
X6938D1*
X7438Y17939D1*
X7376D1*
D13*
X6438Y17002D1*
Y16127D1*
X6313Y16002D1*
Y15814D1*
X11302Y13490D2*
X11689Y13876D1*
Y15314D1*
X12251Y15877D1*
X11439Y21252D2*
X11626Y21440D1*
Y24690D1*
X10876Y25440D1*
X9501D1*
X9126Y25065D1*
X3313Y18002D2*
D15*
X3563D1*
X4188Y18627D1*
X11439Y21252D2*
D13*
X11001D1*
X10314Y20565D1*
Y17252D1*
X10126D1*
X9438Y17939D1*
X7438D1*
X12251Y16127D2*
Y15877D1*
X10314Y17252D2*
X10376D1*
X10564Y17064D1*
Y16002D1*
X9501Y14939D1*
Y14377D1*
X500Y23000D2*
X560D1*
X875Y23315D1*
X2438D1*
X3063D2*
X4938D1*
X5251Y23627D1*
X9001Y26940D2*
X8938Y26878D1*
Y25378D1*
X11064Y13501D2*
X11302Y13490D1*
X11626Y24690D2*
Y26940D1*
X10876Y27690D1*
Y31316D1*
X8563Y33629D1*
X7251D1*
X6626Y34254D1*
Y35379D1*
X6126Y38129D2*
D14*
X6001Y38004D1*
Y36504D1*
X6626Y35879D1*
Y35379D1*
X4876Y24128D2*
Y24003D1*
X5251Y23627D1*
X8313Y23127D2*
D16*
X8626D1*
X5501Y23627D2*
D13*
X5251D1*
X10689Y22753D2*
D16*
X9751Y21815D1*
Y21065D1*
X9376Y20690D1*
Y20502D1*
X9188Y20315D1*
Y18877D1*
X8188Y18627D2*
Y18689D1*
X5438D1*
X8876Y20627D2*
Y22252D1*
X9626Y22127D2*
Y22315D1*
X9689Y22377D1*
X3500Y30066D2*
D13*
X4500D1*
X3500D2*
D14*
X2625D1*
X1750Y30941D1*
X3500Y34066D2*
D13*
X4500D1*
D14*
X4750D1*
X5313Y34629D1*
Y36004D1*
X4750Y36566D1*
X2438D1*
X1375Y37629D1*
Y38379D1*
X500Y18502D2*
X688D1*
X2000Y19815D1*
Y20315D1*
X2750Y2438D2*
D16*
X2563Y2625D1*
Y3063D1*
X3438Y3938D1*
X3563D1*
X2188Y5063D2*
X2125D1*
Y2563D1*
X2000Y2438D1*
X2188Y5813D2*
X2688Y6313D1*
X2813D1*
X2188Y5813D2*
Y5063D1*
X5001Y2188D2*
X4688Y2500D1*
Y3438D1*
X7501Y5563D2*
X7876Y5938D1*
X10876D1*
X11001Y14502D2*
D14*
X11439Y14939D1*
Y20127D1*
X12439Y21127D1*
Y27190D1*
X11689Y27940D1*
Y31566D1*
X7938Y35316D1*
Y35816D1*
X7501Y36254D1*
X6688D1*
X6376Y36566D1*
Y37191D1*
X10314Y14189D2*
X11251Y15127D1*
Y20190D1*
X12251Y21190D1*
Y27128D1*
X11501Y27878D1*
Y31503D1*
X7751Y35254D1*
Y35629D1*
X7563Y35816D1*
X7501D1*
X10189Y22753D2*
D16*
X9749D1*
X9689Y22692D1*
X8001Y10064D2*
D13*
Y9626D1*
X8813Y8813D1*
Y8751D1*
X6313Y9814D2*
X7188Y10689D1*
X7876D1*
X8063Y10501D1*
Y10126D1*
X8001Y10064D1*
X7751Y17127D2*
D16*
X7251Y16627D1*
Y14189D1*
X6938Y13876D1*
Y12814D1*
X9501Y16064D2*
X9376D1*
X8438Y17002D1*
X8001D1*
X7626Y16627D1*
Y15752D1*
X7438Y15564D1*
Y12876D1*
X7001Y12439D1*
X6876D1*
X9251Y14877D2*
Y15877D1*
X8313Y16814D1*
X8063D1*
X7813Y16564D1*
Y15752D1*
X7626Y15564D1*
Y12751D1*
X7001Y12126D1*
X9438Y11001D2*
X9751Y10689D1*
X11501D1*
X12323Y18772D2*
D15*
Y19868D1*
X12126Y20065D1*
X3875Y1875D2*
D13*
X4000Y1750D1*
X6938D1*
X4938Y28816D2*
X4960D1*
Y29338D1*
X6322Y30700D1*
X8242D1*
X10251Y28691D1*
X12001D2*
X12939Y27753D1*
Y6001D1*
X12001Y5063D1*
Y4813D1*
X11314Y4125D1*
Y3585D1*
X12001Y5063D2*
X9564D1*
X8688Y4188D1*
Y1438D1*
X8251Y1000D1*
X7001D1*
X6501Y500D1*
X5688Y31003D2*
X5126Y31566D1*
X2938D1*
X1750Y32753D1*
Y33941D1*
X500Y24000D2*
X1060D1*
X2375Y25315D1*
Y26190D1*
X1938Y26628D1*
Y27378D1*
X3375Y28816D1*
X4938D1*
X5688Y31003D2*
X6019D1*
X6322Y30700D1*
X5688Y31003D2*
X5992Y30700D1*
X6322D1*
X7751Y7876D2*
Y8751D1*
X5501Y500D2*
X6313Y1313D1*
X7251D1*
Y2500D1*
X7376Y2625D1*
X7688D1*
X8376Y1938D1*
Y1625D1*
X7751Y7876D2*
Y6376D1*
X6938Y5563D1*
Y5251D1*
Y3375D1*
X7688Y2625D1*
X3250Y25878D2*
X4000Y25128D1*
X6126D1*
X6876Y24379D2*
Y24940D1*
X6688Y25128D1*
X6126D1*
X6626D1*
Y25378D1*
X9251Y28003D1*
X10501D1*
Y27065D1*
X11001Y26565D1*
X12689D2*
Y6251D1*
X11814Y5376D1*
X9126D1*
X9001Y5251D1*
X6938D1*
X4710Y4960D2*
X5001Y5251D1*
X6938D1*
X9438Y31316D2*
X9376D1*
Y31378D1*
X9188Y31566D1*
X6938D1*
X4938Y33566D1*
X3125D1*
X1375Y35316D1*
Y35379D1*
X9751Y31316D2*
D14*
X9438D1*
D13*
X9751Y31003D1*
X10501Y30253D1*
Y28003D1*
X2063Y26065D2*
X997Y25000D1*
X500D1*
X9751Y31316D2*
Y31003D1*
X9438Y31316D2*
D3*
X9126Y3063D2*
D16*
X9188Y3125D1*
Y4000D1*
X2327Y26878D2*
D14*
X2577Y27128D1*
X3375D1*
X4750Y28503D1*
X5313D1*
X5812Y29002D1*
X4500Y36066D2*
X3500D1*
X1125D1*
X500Y35441D1*
Y31500D1*
X6323Y27025D2*
D16*
Y27013D1*
X6313Y27003D2*
Y27940D1*
X2813Y24753D2*
Y25878D1*
X3313Y26378D1*
X5813D1*
X500Y30500D2*
D18*
Y30566D1*
X813Y30253D1*
X1938D1*
X2375Y29816D1*
X500Y16500D2*
D16*
X2436D1*
X4188Y18252D1*
X500Y15500D2*
X1874D1*
X4313Y17939D1*
X500Y14500D2*
X1311D1*
X4688Y17877D1*
X500Y13500D2*
X564Y13564D1*
X875D1*
X5001Y17689D1*
X500Y12500D2*
X3000Y15000D1*
Y15252D1*
X5251Y17502D1*
X5313D1*
X500Y11500D2*
X938Y11938D1*
Y12126D1*
X3250Y14439D1*
Y15127D1*
X5376Y17252D1*
X5751D1*
X5813Y17314D1*
X500Y10500D2*
X1125Y11125D1*
Y11751D1*
X3563Y14189D1*
Y15002D1*
X5626Y17064D1*
X6063D1*
X6126Y17127D1*
X500Y9500D2*
X1500Y10500D1*
Y11626D1*
X3875Y14001D1*
Y14939D1*
X5626Y16689D1*
X6375Y4814D2*
X6438Y4750D1*
Y2625D1*
X6313Y2500D1*
X6438Y5501D2*
Y5626D1*
X5813Y6251D1*
X7376Y10376D2*
X7313Y10314D1*
Y9251D1*
X6313Y8251D1*
X3438D1*
X7751Y10314D2*
X7813D1*
X7626Y10126D1*
Y9126D1*
X7438Y8938D1*
Y8126D1*
X7063Y7751D1*
X5501D1*
X10126Y14752D2*
D14*
X10876Y15502D1*
Y20315D1*
X11876Y21315D1*
Y27003D1*
X11126Y27753D1*
Y31378D1*
X8438Y34066D1*
X7501D1*
X9751Y14377D2*
X9876Y14502D1*
X10251D1*
X11064Y15314D1*
Y20252D1*
X12064Y21252D1*
Y27065D1*
X11314Y27815D1*
Y31441D1*
X7813Y34941D1*
X7501D1*
X500Y7500D2*
D16*
X1125Y8125D1*
Y8438D1*
X2813Y10126D1*
Y11751D1*
X6688Y15627D1*
Y16939D1*
X7501Y17752D1*
X8813D1*
X9689Y16877D1*
X10251D1*
X500Y6500D2*
X1313Y7313D1*
Y8313D1*
X3000Y10001D1*
Y11689D1*
X6876Y15564D1*
Y16877D1*
X7563Y17564D1*
X8751D1*
X9814Y16502D1*
X10189D1*
X9438Y19377D2*
X9376D1*
X9438Y19315D1*
Y20002D1*
X9876Y20440D1*
Y20690D1*
X10126Y20940D1*
Y21690D1*
X10626Y22190D1*
X10939D1*
X11251Y22502D1*
Y23190D1*
X10689Y23753D1*
X500Y5500D2*
X1500Y6500D1*
Y8188D1*
X3188Y9876D1*
Y11626D1*
X7063Y15502D1*
Y16814D1*
X7626Y17377D1*
X8626D1*
X9876Y16127D1*
X10189D1*
X4500Y37066D2*
D14*
D3*
D16*
X3500D1*
X4500D2*
D14*
X4876D1*
X5876Y36066D1*
Y33128D1*
X6938Y32066D1*
X9626D1*
X10689Y31003D1*
Y27503D1*
X11314Y26878D1*
Y26253D1*
X11001Y25940D1*
X9313D1*
X8626D2*
Y25628D1*
X6938Y23940D1*
X7001D1*
Y22690D2*
X3688D1*
X500Y19502D1*
X9876Y19252D2*
D16*
Y20190D1*
X10064Y20377D1*
Y20627D1*
X10314Y20877D1*
Y21502D1*
X10689Y21877D1*
X11189D1*
X11439Y22127D1*
Y23502D1*
X10689Y24253D1*
X9188Y20815D2*
Y21002D1*
X9376Y21190D1*
Y22627D1*
X9126Y22877D1*
Y22940D1*
X9438Y23252D1*
Y24565D1*
X10001Y25128D1*
X10501D1*
X10814Y24815D1*
Y24753D1*
X10689D1*
X9609Y20565D2*
X9626D1*
Y20690D1*
X9939Y21002D1*
Y21752D1*
X10564Y22377D1*
X10814D1*
X11064Y22627D1*
Y22878D1*
X10689Y23253D1*
X500Y29500D2*
D18*
X1438Y29502D1*
X11814Y19502D2*
D16*
X11876D1*
X12021Y19357D1*
Y16752D1*
X12064D1*
X12501Y16314D1*
Y15627D1*
X12376Y15502D1*
Y6376D1*
X12689Y5188D2*
Y5001D1*
X12751Y4938D1*
Y751D1*
X12501Y500D1*
X10064Y17788D2*
D14*
Y18252D1*
X9814Y18502D1*
X9126D1*
X8933Y18695D1*
Y19945D1*
X8626Y20252D1*
Y22377D1*
X7751Y23252D1*
X6126D1*
X6001Y23940D2*
X5813D1*
X5251Y24503D1*
D16*
X4125D1*
X4063Y24440D1*
X4000D1*
X4955Y1439D2*
X4439D1*
X3501Y500D1*
X10887Y1438D2*
Y887D1*
X10501Y500D1*
X10564Y18189D2*
D14*
Y20440D1*
X10751Y20627D1*
X4625Y27378D2*
X4063Y26815D1*
X3250D1*
X2625Y26190D1*
Y25253D1*
X2500Y25128D1*
Y24503D1*
X2750Y24253D1*
Y24003D1*
Y22565D1*
X1188Y21002D1*
X563D1*
X500Y20940D1*
Y21000D1*
X9814Y18127D2*
X9063D1*
X8688Y18502D1*
Y19752D1*
X8438Y20002D1*
Y22127D1*
X7626Y22940D1*
X3125D1*
X2750Y22565D1*
Y24003D2*
D16*
D3*
D51*
X7313Y11064D3*
X8631Y11626D3*
X8563Y9564D3*
X7876Y13939D3*
X8626Y12376D3*
X10126D3*
X9063D3*
X6813Y11814D3*
X8188Y12376D3*
X7813Y20752D3*
X7313Y19565D3*
X5626Y20877D3*
X6813Y21654D3*
X7313Y21190D3*
X5751Y21822D3*
X5514Y19932D3*
X8180Y11626D3*
X9063D3*
X9939Y11001D3*
X3000Y1063D3*
X9001Y2563D3*
X9814Y4813D3*
X9001Y2563D3*
X9063Y10501D3*
X11064Y8063D3*
X8376Y19190D3*
X2000Y18127D3*
X3063Y18877D3*
X12250Y4187D3*
X12439Y3563D3*
X12314Y1875D3*
X8188Y16564D3*
X8876Y13501D3*
X9376Y13439D3*
X8063Y14814D3*
X8376Y14564D3*
X10677Y13490D3*
X10189Y12001D3*
D3*
X6876Y11439D3*
X5501Y23627D3*
X8938Y25378D3*
X9126Y25065D3*
Y21315D3*
Y25065D3*
X4188Y18627D3*
X6313Y15814D3*
X11302Y13490D3*
X12251Y15877D3*
X11439Y21252D3*
X9126Y25065D3*
X3313Y18002D3*
X4188Y18627D3*
X11439Y21252D3*
X12251Y16127D3*
X2438Y23315D3*
X3063D3*
X5251Y23627D3*
X9001Y26940D3*
X11302Y13490D3*
X6626Y35379D3*
X6126Y38129D3*
X4876Y24128D3*
X8313Y23127D3*
X5501Y23627D3*
X9188Y18877D3*
X8188Y18627D3*
X5438Y18689D3*
X8876Y20627D3*
Y22252D3*
X9626Y22127D3*
X2000Y20315D3*
X2750Y2438D3*
X3563Y3938D3*
X2188Y5063D3*
X2000Y2438D3*
X2188Y5813D3*
X2813Y6313D3*
X2188Y5813D3*
Y5063D3*
X5001Y2188D3*
X4688Y3438D3*
X7501Y5563D3*
X10876Y5938D3*
X11001Y14502D3*
X6376Y37191D3*
X7501Y36254D3*
X10314Y14189D3*
X7501Y35816D3*
X8001Y10064D3*
X8813Y8751D3*
X6313Y9814D3*
X8001Y10064D3*
X7751Y17127D3*
X6938Y12814D3*
D3*
X9501Y16064D3*
X6876Y12439D3*
X9251Y14877D3*
X7001Y12126D3*
X9438Y11001D3*
X11501Y10689D3*
X12126Y20065D3*
X12323Y18772D3*
X3875Y1875D3*
X6938Y1750D3*
X4938Y28816D3*
X6322Y30700D3*
X10251Y28691D3*
X12001D3*
X11314Y3585D3*
X5688Y31003D3*
X4938Y28816D3*
X5688Y31003D3*
D3*
X7751Y7876D3*
Y8751D3*
X8376Y1625D3*
X7751Y7876D3*
X3250Y25878D3*
X6126Y25128D3*
X6876Y24379D3*
X11001Y26565D3*
X12689D3*
X4710Y4960D3*
X9438Y31316D3*
X9751D3*
X9438D3*
D3*
X2063Y26065D3*
X9751Y31316D3*
X9438D3*
X9126Y3063D3*
X9188Y4000D3*
X5812Y29002D3*
X2327Y26878D3*
X6313Y27940D3*
X6323Y27025D3*
X2813Y24753D3*
X5813Y26378D3*
X2375Y29816D3*
X4188Y18252D3*
X4313Y17939D3*
X4688Y17877D3*
X5001Y17689D3*
X5313Y17502D3*
X5813Y17314D3*
X6126Y17127D3*
X5626Y16689D3*
X6375Y4814D3*
X6313Y2500D3*
X6438Y5501D3*
X5813Y6251D3*
X7376Y10376D3*
X3438Y8251D3*
X7751Y10314D3*
X5501Y7751D3*
X10126Y14752D3*
X7501Y34066D3*
X9751Y14377D3*
X7501Y34941D3*
X10251Y16877D3*
X10189Y16502D3*
X9438Y19377D3*
X10189Y16127D3*
X9313Y25940D3*
X8626D3*
X7001Y23940D3*
Y22690D3*
X9876Y19252D3*
X9188Y20815D3*
X9126Y22877D3*
X9609Y20565D3*
X1438Y29502D3*
X11814Y19502D3*
X12376Y6376D3*
X12689Y5188D3*
X10064Y17788D3*
X6126Y23252D3*
X6001Y23940D3*
X5251Y24503D3*
X4000Y24440D3*
X4955Y1439D3*
X10887Y1438D3*
X10564Y18189D3*
X10751Y20627D3*
X4625Y27378D3*
X2750Y24003D3*
X9814Y18127D3*
X2750Y24003D3*
X4611Y22384D2*
D14*
X6430D1*
X4611Y22305D2*
X6509D1*
X4611Y22227D2*
X6587D1*
X4611Y22148D2*
X6666D1*
X4611Y22069D2*
X6745D1*
X4611Y21991D2*
X6823D1*
X4611Y21912D2*
X6901D1*
X4611Y21834D2*
X6979D1*
X4611Y21755D2*
X7058D1*
X4611Y21676D2*
X7137D1*
X4611Y21598D2*
X7215D1*
X4611Y21519D2*
X7294D1*
X4611Y21440D2*
X7373D1*
X4611Y21362D2*
X7452D1*
X4611Y21283D2*
X7530D1*
X4611Y21205D2*
X7609D1*
X4611Y21126D2*
X7688D1*
X4611Y21047D2*
X7766D1*
X4611Y20969D2*
X7827D1*
X4611Y20890D2*
X7827D1*
X4611Y20812D2*
X7827D1*
X4611Y20733D2*
X7827D1*
X4611Y20654D2*
X7827D1*
X4611Y20576D2*
X7827D1*
X4611Y20497D2*
X7827D1*
X4611Y20419D2*
X7827D1*
X4611Y20340D2*
X7827D1*
X4611Y20261D2*
X7827D1*
X4611Y20183D2*
X7827D1*
X4611Y20104D2*
X7827D1*
X4611Y20026D2*
X7827D1*
X4611Y19947D2*
X7827D1*
X4611Y19868D2*
X7827D1*
X4611Y19790D2*
X7827D1*
X4611Y19711D2*
X7827D1*
X4611Y19632D2*
X7827D1*
X4611Y19554D2*
X7827D1*
X4611Y19475D2*
X7785D1*
X4611Y19397D2*
X7706D1*
X4611Y19318D2*
X7628D1*
X6078Y19239D2*
X7549D1*
X6156Y19161D2*
X7470D1*
X6187Y19122D2*
X6210Y19116D1*
X6236Y19104D1*
X7421D1*
X7836Y19519D1*
Y20985D1*
X6360Y22462D1*
X4937D1*
X4603D1*
Y19292D1*
X6002Y19291D1*
X6029Y19280D1*
X6187Y19122D1*
D30*
X500Y19502D3*
D31*
Y18502D3*
Y17502D3*
D30*
Y26000D3*
D31*
Y25000D3*
Y24000D3*
Y23000D3*
Y22000D3*
Y21000D3*
D30*
Y31500D3*
D31*
Y30500D3*
Y29500D3*
D32*
X3500Y30066D3*
D33*
X4500D3*
X3500Y31066D3*
X4500D3*
X3500Y32066D3*
X4500D3*
X3500Y33066D3*
X4500D3*
X3500Y34066D3*
X4500D3*
X3500Y35066D3*
X4500D3*
X3500Y36066D3*
X4500D3*
X3500Y37066D3*
X4500D3*
D38*
X9689Y22377D3*
Y22692D3*
D30*
X500Y16500D3*
D31*
Y15500D3*
Y14500D3*
Y13500D3*
Y12500D3*
Y11500D3*
Y10500D3*
Y9500D3*
Y8500D3*
Y7500D3*
Y6500D3*
Y5500D3*
D30*
X1501Y500D3*
D31*
X2501D3*
X3501D3*
X4501D3*
X5501D3*
X6501D3*
X7501D3*
X8501D3*
X9501D3*
X10501D3*
X11501D3*
X12501D3*
D39*
X1375Y38379D3*
D40*
Y35379D3*
D39*
X1750Y30941D3*
D40*
Y33941D3*
D45*
X10189Y24753D3*
X10689D3*
X10189Y24253D3*
X10689D3*
X10189Y23753D3*
X10689D3*
X10189Y23253D3*
X10689D3*
X10189Y22753D3*
X10689D3*
M02*
