G04 DipTrace 2.4.0.2*
%INcodec_rev2.GTO*%
%MOIN*%
%ADD10C,0.0098*%
%ADD17C,0.0118*%
%ADD21C,0.0157*%
%ADD24C,0.0236*%
%ADD28C,0.0154*%
%ADD44C,0.005*%
%ADD57C,0.0046*%
%FSLAX44Y44*%
G04*
G70*
G90*
G75*
G01*
%LNTopSilk*%
%LPD*%
X5420Y22961D2*
D10*
X4081D1*
X5420Y23669D2*
X4081D1*
D21*
X5892Y23315D3*
X11732Y32047D2*
D10*
Y31436D1*
Y32047D2*
X9980D1*
X9645Y31712D2*
X9980Y32047D1*
X9645Y31712D2*
Y31436D1*
X11732Y30570D2*
Y29960D1*
X9980D1*
X9645Y30295D2*
X9980Y29960D1*
X9645Y30570D2*
Y30295D1*
D24*
X9389Y31515D3*
X6145Y29960D2*
D10*
Y30570D1*
Y29960D2*
X7897D1*
X8231Y30295D2*
X7897Y29960D1*
X8231Y30295D2*
Y30570D1*
X6145Y31436D2*
Y32047D1*
X7897D1*
X8231Y31712D2*
X7897Y32047D1*
X8231Y31436D2*
Y31712D1*
D24*
X8487Y30491D3*
X4169Y6458D2*
D10*
X3558D1*
X4169D2*
Y8209D1*
X3834Y8544D2*
X4169Y8209D1*
X3834Y8544D2*
X3558D1*
X2692Y6458D2*
X2082D1*
Y8209D1*
X2417Y8544D2*
X2082Y8209D1*
X2692Y8544D2*
X2417D1*
D24*
X3637Y8800D3*
X6544Y6458D2*
D10*
X5934D1*
X6544D2*
Y8209D1*
X6209Y8544D2*
X6544Y8209D1*
X6209Y8544D2*
X5934D1*
X5068Y6458D2*
X4457D1*
Y8209D1*
X4792Y8544D2*
X4457Y8209D1*
X5068Y8544D2*
X4792D1*
D24*
X6012Y8800D3*
X5646Y9519D2*
D10*
Y10858D1*
X6355Y9519D2*
Y10858D1*
D21*
X6001Y9047D3*
X11355Y13608D2*
D10*
Y12269D1*
X10647Y13608D2*
Y12269D1*
D21*
X11001Y14081D3*
X12294Y5582D2*
D10*
X11684D1*
X12294D2*
Y7334D1*
X11960Y7669D2*
X12294Y7334D1*
X11960Y7669D2*
X11684D1*
X10818Y5582D2*
X10208D1*
Y7334D1*
X10543Y7669D2*
X10208Y7334D1*
X10818Y7669D2*
X10543D1*
D24*
X11763Y7925D3*
X12920Y9020D2*
D10*
X12309D1*
X12920D2*
Y10772D1*
X12585Y11107D2*
X12920Y10772D1*
X12585Y11107D2*
X12309D1*
X11443Y9020D2*
X10833D1*
Y10772D1*
X11168Y11107D2*
X10833Y10772D1*
X11443Y11107D2*
X11168D1*
D24*
X12388Y11363D3*
D28*
X4463Y25185D3*
X4965Y25093D2*
D10*
Y23912D1*
X5161D1*
Y25093D1*
X4965D1*
X10295Y27098D2*
Y26783D1*
X992Y20100D2*
X8D1*
Y16904D1*
X992D1*
Y20100D1*
Y27098D2*
X8D1*
Y20902D1*
X992D1*
Y27098D1*
Y32098D2*
X8D1*
Y28902D1*
X992D1*
Y32098D1*
X7221Y32912D2*
X12654D1*
X12929Y38699D2*
X7221D1*
X7197Y38055D2*
Y36930D1*
X12635Y32930D2*
Y36305D1*
X12947Y38681D2*
Y37368D1*
X12635Y36305D1*
X992Y17098D2*
X8D1*
Y4902D1*
X992D1*
Y17098D1*
X902Y992D2*
X13099D1*
Y8D1*
X902D1*
Y992D1*
X1675Y37680D2*
X1075D1*
X1675Y36077D2*
Y37680D1*
Y36077D2*
X1075D1*
Y37680D1*
X1450Y31639D2*
X2050D1*
X1450Y33242D2*
Y31639D1*
Y33242D2*
X2050D1*
Y31639D1*
D28*
X2698Y18915D3*
X2606Y18414D2*
D10*
X1425D1*
Y18217D1*
X2606D1*
Y18414D1*
X11189Y25253D2*
D44*
Y22253D1*
X9689D1*
Y24753D1*
Y25253D1*
X11189D1*
X9689Y24753D2*
X9439Y25003D1*
Y24502D1*
X9689Y24753D1*
X11620Y26115D2*
X9257D1*
Y21390D1*
X11620D1*
Y26115D1*
X4575Y26144D2*
D10*
Y28112D1*
X3551Y26144D2*
Y28112D1*
X4575D2*
X3551D1*
X4260Y26144D2*
X4575D1*
X3866D2*
X3551D1*
X4260D2*
G03X3866Y26144I-197J0D01*
G01*
D28*
X6866Y25396D3*
X7406Y25343D2*
D10*
Y24162D1*
X7721Y25343D2*
Y24162D1*
X7406D2*
X7721D1*
X7406Y25343D2*
X7721D1*
X11085Y15917D2*
X7542D1*
Y19461D1*
X11085D1*
Y15917D1*
G36*
D2*
Y16233D1*
X10770Y15917D1*
X11085D1*
G37*
D21*
X11558Y15937D3*
D28*
X7917Y9007D3*
X8457Y8955D2*
D10*
Y7774D1*
X8772Y8955D2*
Y7774D1*
X8457D2*
X8772D1*
X8457Y8955D2*
X8772D1*
X3614Y4672D2*
Y2704D1*
X4637Y4672D2*
Y2704D1*
X3614D2*
X4637D1*
X3928Y4672D2*
X3614D1*
X4322D2*
X4637D1*
X3928D2*
G03X4322Y4672I197J0D01*
G01*
X7844Y11017D2*
X7647D1*
Y11214D1*
X7844Y12986D2*
X7647D1*
Y12789D2*
Y12986D1*
X9615D2*
X9418D1*
X9615Y12789D2*
Y12986D1*
D17*
X10068Y11411D3*
X9418Y11017D2*
D10*
X9615Y11214D1*
X10075Y1829D2*
Y3797D1*
X9052Y1829D2*
Y3797D1*
X10075D2*
X9052D1*
X9760Y1829D2*
X10075D1*
X9367D2*
X9052D1*
X9760D2*
G03X9367Y1829I-197J0D01*
G01*
D28*
X4767Y22469D3*
X6314Y21192D2*
D10*
Y20564D1*
X5567Y22061D2*
X5685D1*
X4936Y21192D2*
Y20564D1*
X5567Y19695D2*
X5685D1*
X1998Y28028D2*
D57*
X1970Y28014D1*
X1941Y27985D1*
X1927Y27957D1*
Y27899D1*
X1941Y27870D1*
X1970Y27842D1*
X1998Y27827D1*
X2041Y27813D1*
X2113D1*
X2156Y27827D1*
X2185Y27842D1*
X2213Y27870D1*
X2228Y27899D1*
Y27957D1*
X2213Y27985D1*
X2185Y28014D1*
X2156Y28028D1*
X1984Y28121D2*
X1970Y28150D1*
X1927Y28193D1*
X2228D1*
X5874Y27589D2*
X5845Y27574D1*
X5816Y27546D1*
X5802Y27517D1*
Y27460D1*
X5816Y27431D1*
X5845Y27402D1*
X5874Y27388D1*
X5917Y27373D1*
X5989D1*
X6031Y27388D1*
X6060Y27402D1*
X6089Y27431D1*
X6103Y27460D1*
Y27517D1*
X6089Y27546D1*
X6060Y27574D1*
X6031Y27589D1*
X5874Y27696D2*
X5860D1*
X5831Y27710D1*
X5817Y27724D1*
X5802Y27753D1*
Y27811D1*
X5817Y27839D1*
X5831Y27853D1*
X5860Y27868D1*
X5888D1*
X5917Y27853D1*
X5960Y27825D1*
X6103Y27681D1*
Y27882D1*
X5787Y22849D2*
X5772Y22878D1*
X5744Y22907D1*
X5715Y22921D1*
X5658D1*
X5629Y22907D1*
X5600Y22878D1*
X5586Y22849D1*
X5571Y22806D1*
Y22734D1*
X5586Y22692D1*
X5600Y22663D1*
X5629Y22634D1*
X5658Y22620D1*
X5715D1*
X5744Y22634D1*
X5772Y22663D1*
X5787Y22692D1*
X5908Y22921D2*
X6066D1*
X5980Y22806D1*
X6023D1*
X6051Y22792D1*
X6066Y22777D1*
X6080Y22734D1*
Y22706D1*
X6066Y22663D1*
X6037Y22634D1*
X5994Y22620D1*
X5951D1*
X5908Y22634D1*
X5894Y22648D1*
X5879Y22677D1*
X5499Y16018D2*
X5470Y16004D1*
X5441Y15975D1*
X5427Y15946D1*
Y15889D1*
X5441Y15860D1*
X5470Y15832D1*
X5499Y15817D1*
X5542Y15803D1*
X5614D1*
X5656Y15817D1*
X5685Y15832D1*
X5714Y15860D1*
X5728Y15889D1*
Y15946D1*
X5714Y15975D1*
X5685Y16004D1*
X5656Y16018D1*
X5728Y16254D2*
X5427D1*
X5628Y16111D1*
Y16326D1*
X7587Y21692D2*
X7572Y21720D1*
X7544Y21749D1*
X7515Y21763D1*
X7458D1*
X7429Y21749D1*
X7400Y21720D1*
X7386Y21692D1*
X7371Y21649D1*
Y21577D1*
X7386Y21534D1*
X7400Y21505D1*
X7429Y21477D1*
X7458Y21462D1*
X7515D1*
X7544Y21477D1*
X7572Y21505D1*
X7587Y21534D1*
X7851Y21763D2*
X7708D1*
X7694Y21634D1*
X7708Y21648D1*
X7751Y21663D1*
X7794D1*
X7837Y21648D1*
X7866Y21620D1*
X7880Y21577D1*
Y21548D1*
X7866Y21505D1*
X7837Y21476D1*
X7794Y21462D1*
X7751D1*
X7708Y21476D1*
X7694Y21491D1*
X7679Y21519D1*
X12562Y15470D2*
X12533Y15455D1*
X12504Y15427D1*
X12490Y15398D1*
Y15341D1*
X12504Y15312D1*
X12533Y15283D1*
X12562Y15269D1*
X12605Y15255D1*
X12677D1*
X12720Y15269D1*
X12749Y15283D1*
X12777Y15312D1*
X12792Y15341D1*
Y15398D1*
X12777Y15427D1*
X12749Y15455D1*
X12720Y15470D1*
X12533Y15734D2*
X12505Y15720D1*
X12491Y15677D1*
Y15649D1*
X12505Y15605D1*
X12548Y15577D1*
X12620Y15562D1*
X12691D1*
X12749Y15577D1*
X12777Y15605D1*
X12792Y15649D1*
Y15663D1*
X12777Y15706D1*
X12749Y15734D1*
X12705Y15749D1*
X12691D1*
X12648Y15734D1*
X12620Y15706D1*
X12605Y15663D1*
Y15649D1*
X12620Y15605D1*
X12648Y15577D1*
X12691Y15562D1*
X9389Y32164D2*
X9375Y32193D1*
X9346Y32222D1*
X9318Y32236D1*
X9260D1*
X9232Y32222D1*
X9203Y32193D1*
X9189Y32164D1*
X9174Y32121D1*
Y32049D1*
X9189Y32006D1*
X9203Y31978D1*
X9232Y31949D1*
X9260Y31934D1*
X9318D1*
X9346Y31949D1*
X9375Y31978D1*
X9389Y32006D1*
X9539Y31934D2*
X9683Y32236D1*
X9482D1*
X8597Y30164D2*
X8582Y30193D1*
X8554Y30221D1*
X8525Y30236D1*
X8468D1*
X8439Y30221D1*
X8410Y30193D1*
X8396Y30164D1*
X8382Y30121D1*
Y30049D1*
X8396Y30006D1*
X8410Y29977D1*
X8439Y29949D1*
X8468Y29934D1*
X8525D1*
X8554Y29949D1*
X8582Y29977D1*
X8597Y30006D1*
X8761Y30235D2*
X8718Y30221D1*
X8704Y30193D1*
Y30164D1*
X8718Y30135D1*
X8747Y30121D1*
X8804Y30106D1*
X8847Y30092D1*
X8876Y30063D1*
X8890Y30035D1*
Y29992D1*
X8876Y29963D1*
X8861Y29948D1*
X8818Y29934D1*
X8761D1*
X8718Y29948D1*
X8704Y29963D1*
X8689Y29992D1*
Y30035D1*
X8704Y30063D1*
X8732Y30092D1*
X8775Y30106D1*
X8833Y30121D1*
X8861Y30135D1*
X8876Y30164D1*
Y30193D1*
X8861Y30221D1*
X8818Y30235D1*
X8761D1*
X6186Y25658D2*
X6158Y25644D1*
X6129Y25615D1*
X6115Y25587D1*
Y25529D1*
X6129Y25500D1*
X6158Y25472D1*
X6186Y25457D1*
X6229Y25443D1*
X6301D1*
X6344Y25457D1*
X6373Y25472D1*
X6401Y25500D1*
X6416Y25529D1*
Y25587D1*
X6401Y25615D1*
X6373Y25644D1*
X6344Y25658D1*
X6215Y25937D2*
X6258Y25923D1*
X6287Y25894D1*
X6301Y25851D1*
Y25837D1*
X6287Y25794D1*
X6258Y25765D1*
X6215Y25751D1*
X6201D1*
X6158Y25765D1*
X6129Y25794D1*
X6115Y25837D1*
Y25851D1*
X6129Y25894D1*
X6158Y25923D1*
X6215Y25937D1*
X6287D1*
X6359Y25923D1*
X6402Y25894D1*
X6416Y25851D1*
Y25823D1*
X6402Y25780D1*
X6373Y25765D1*
X6692Y23692D2*
X6677Y23721D1*
X6649Y23749D1*
X6620Y23764D1*
X6563D1*
X6534Y23749D1*
X6505Y23721D1*
X6491Y23692D1*
X6477Y23649D1*
Y23577D1*
X6491Y23534D1*
X6505Y23505D1*
X6534Y23477D1*
X6563Y23462D1*
X6620D1*
X6649Y23477D1*
X6677Y23505D1*
X6692Y23534D1*
X6784Y23706D2*
X6813Y23721D1*
X6856Y23763D1*
Y23462D1*
X7035Y23763D2*
X6992Y23749D1*
X6963Y23706D1*
X6949Y23634D1*
Y23591D1*
X6963Y23520D1*
X6992Y23476D1*
X7035Y23462D1*
X7064D1*
X7107Y23476D1*
X7135Y23520D1*
X7150Y23591D1*
Y23634D1*
X7135Y23706D1*
X7107Y23749D1*
X7064Y23763D1*
X7035D1*
X7135Y23706D2*
X6963Y23520D1*
X8811Y23696D2*
X8783Y23681D1*
X8754Y23652D1*
X8740Y23624D1*
Y23567D1*
X8754Y23538D1*
X8783Y23509D1*
X8811Y23495D1*
X8855Y23480D1*
X8926D1*
X8969Y23495D1*
X8998Y23509D1*
X9027Y23538D1*
X9041Y23567D1*
Y23624D1*
X9027Y23652D1*
X8998Y23681D1*
X8969Y23696D1*
X8797Y23788D2*
X8783Y23817D1*
X8740Y23860D1*
X9041D1*
X8797Y23953D2*
X8783Y23982D1*
X8740Y24025D1*
X9041D1*
X6124Y35967D2*
X6095Y35953D1*
X6066Y35924D1*
X6052Y35895D1*
Y35838D1*
X6066Y35809D1*
X6095Y35781D1*
X6124Y35766D1*
X6167Y35752D1*
X6239D1*
X6281Y35766D1*
X6310Y35781D1*
X6339Y35809D1*
X6353Y35838D1*
Y35895D1*
X6339Y35924D1*
X6310Y35953D1*
X6281Y35967D1*
X6110Y36060D2*
X6095Y36088D1*
X6052Y36132D1*
X6353D1*
X6124Y36239D2*
X6110D1*
X6081Y36253D1*
X6067Y36267D1*
X6052Y36296D1*
Y36353D1*
X6067Y36382D1*
X6081Y36396D1*
X6110Y36411D1*
X6138D1*
X6167Y36396D1*
X6210Y36368D1*
X6353Y36224D1*
Y36425D1*
X12255Y21442D2*
X12241Y21470D1*
X12212Y21499D1*
X12183Y21513D1*
X12126D1*
X12097Y21499D1*
X12068Y21470D1*
X12054Y21442D1*
X12040Y21399D1*
Y21327D1*
X12054Y21284D1*
X12068Y21255D1*
X12097Y21227D1*
X12126Y21212D1*
X12183D1*
X12212Y21227D1*
X12241Y21255D1*
X12255Y21284D1*
X12347Y21456D2*
X12376Y21470D1*
X12419Y21513D1*
Y21212D1*
X12541Y21513D2*
X12698D1*
X12613Y21398D1*
X12656D1*
X12684Y21384D1*
X12698Y21370D1*
X12713Y21327D1*
Y21298D1*
X12698Y21255D1*
X12670Y21226D1*
X12627Y21212D1*
X12584D1*
X12541Y21226D1*
X12527Y21241D1*
X12512Y21269D1*
X12062Y17623D2*
X12033Y17609D1*
X12004Y17580D1*
X11990Y17552D1*
Y17494D1*
X12004Y17465D1*
X12033Y17437D1*
X12062Y17422D1*
X12105Y17408D1*
X12177D1*
X12220Y17422D1*
X12248Y17437D1*
X12277Y17465D1*
X12292Y17494D1*
Y17552D1*
X12277Y17580D1*
X12248Y17609D1*
X12220Y17623D1*
X12048Y17716D2*
X12033Y17745D1*
X11990Y17788D1*
X12292D1*
Y18024D2*
X11990D1*
X12191Y17880D1*
Y18096D1*
X12624Y20131D2*
X12596Y20116D1*
X12567Y20088D1*
X12553Y20059D1*
Y20002D1*
X12567Y19973D1*
X12596Y19944D1*
X12624Y19930D1*
X12667Y19915D1*
X12739D1*
X12782Y19930D1*
X12811Y19944D1*
X12840Y19973D1*
X12854Y20002D1*
Y20059D1*
X12840Y20088D1*
X12811Y20116D1*
X12782Y20131D1*
X12610Y20223D2*
X12596Y20252D1*
X12553Y20295D1*
X12854D1*
X12553Y20560D2*
Y20417D1*
X12682Y20402D1*
X12668Y20417D1*
X12653Y20460D1*
Y20503D1*
X12668Y20546D1*
X12696Y20575D1*
X12739Y20589D1*
X12768D1*
X12811Y20575D1*
X12840Y20546D1*
X12854Y20503D1*
Y20460D1*
X12840Y20417D1*
X12825Y20402D1*
X12797Y20388D1*
X10199Y21692D2*
X10185Y21720D1*
X10156Y21749D1*
X10128Y21763D1*
X10070D1*
X10042Y21749D1*
X10013Y21720D1*
X9998Y21692D1*
X9984Y21649D1*
Y21577D1*
X9998Y21534D1*
X10013Y21505D1*
X10042Y21477D1*
X10070Y21462D1*
X10128D1*
X10156Y21477D1*
X10185Y21505D1*
X10199Y21534D1*
X10292Y21706D2*
X10321Y21720D1*
X10364Y21763D1*
Y21462D1*
X10629Y21720D2*
X10614Y21749D1*
X10571Y21763D1*
X10543D1*
X10500Y21749D1*
X10471Y21706D1*
X10457Y21634D1*
Y21562D1*
X10471Y21505D1*
X10500Y21476D1*
X10543Y21462D1*
X10557D1*
X10600Y21476D1*
X10629Y21505D1*
X10643Y21548D1*
Y21562D1*
X10629Y21606D1*
X10600Y21634D1*
X10557Y21648D1*
X10543D1*
X10500Y21634D1*
X10471Y21606D1*
X10457Y21562D1*
X7237Y7243D2*
X7209Y7228D1*
X7180Y7200D1*
X7166Y7171D1*
Y7114D1*
X7180Y7085D1*
X7209Y7056D1*
X7237Y7042D1*
X7280Y7027D1*
X7352D1*
X7395Y7042D1*
X7424Y7056D1*
X7452Y7085D1*
X7467Y7114D1*
Y7171D1*
X7452Y7200D1*
X7424Y7228D1*
X7395Y7243D1*
X7223Y7335D2*
X7209Y7364D1*
X7166Y7407D1*
X7467D1*
Y7557D2*
X7166Y7701D1*
Y7500D1*
X8430Y6929D2*
X8416Y6957D1*
X8387Y6986D1*
X8359Y7000D1*
X8301D1*
X8273Y6986D1*
X8244Y6957D1*
X8229Y6929D1*
X8215Y6885D1*
Y6814D1*
X8229Y6771D1*
X8244Y6742D1*
X8273Y6713D1*
X8301Y6699D1*
X8359D1*
X8387Y6713D1*
X8416Y6742D1*
X8430Y6771D1*
X8523Y6943D2*
X8552Y6957D1*
X8595Y7000D1*
Y6699D1*
X8759Y7000D2*
X8717Y6986D1*
X8702Y6957D1*
Y6928D1*
X8717Y6900D1*
X8745Y6885D1*
X8802Y6871D1*
X8846Y6857D1*
X8874Y6828D1*
X8888Y6799D1*
Y6756D1*
X8874Y6728D1*
X8860Y6713D1*
X8817Y6699D1*
X8759D1*
X8717Y6713D1*
X8702Y6728D1*
X8688Y6756D1*
Y6799D1*
X8702Y6828D1*
X8731Y6857D1*
X8774Y6871D1*
X8831Y6885D1*
X8860Y6900D1*
X8874Y6928D1*
Y6957D1*
X8860Y6986D1*
X8817Y7000D1*
X8759D1*
X10362Y8250D2*
X10334Y8236D1*
X10305Y8207D1*
X10291Y8178D1*
Y8121D1*
X10305Y8092D1*
X10334Y8064D1*
X10362Y8049D1*
X10406Y8035D1*
X10478D1*
X10520Y8049D1*
X10549Y8064D1*
X10578Y8092D1*
X10592Y8121D1*
Y8178D1*
X10578Y8207D1*
X10549Y8236D1*
X10520Y8250D1*
X10349Y8343D2*
X10334Y8371D1*
X10291Y8414D1*
X10592D1*
X10391Y8694D2*
X10434Y8679D1*
X10463Y8651D1*
X10478Y8608D1*
Y8593D1*
X10463Y8550D1*
X10434Y8522D1*
X10391Y8507D1*
X10377D1*
X10334Y8522D1*
X10305Y8550D1*
X10291Y8593D1*
Y8608D1*
X10305Y8651D1*
X10334Y8679D1*
X10391Y8694D1*
X10463D1*
X10535Y8679D1*
X10578Y8651D1*
X10592Y8608D1*
Y8579D1*
X10578Y8536D1*
X10549Y8522D1*
X1561Y4002D2*
X1532Y3988D1*
X1503Y3959D1*
X1489Y3930D1*
Y3873D1*
X1503Y3844D1*
X1532Y3816D1*
X1561Y3801D1*
X1604Y3787D1*
X1676D1*
X1719Y3801D1*
X1747Y3816D1*
X1776Y3844D1*
X1790Y3873D1*
Y3930D1*
X1776Y3959D1*
X1747Y3988D1*
X1719Y4002D1*
X1561Y4109D2*
X1547D1*
X1518Y4123D1*
X1504Y4138D1*
X1489Y4167D1*
Y4224D1*
X1504Y4252D1*
X1518Y4267D1*
X1547Y4281D1*
X1575D1*
X1604Y4267D1*
X1647Y4238D1*
X1790Y4095D1*
Y4296D1*
X1489Y4474D2*
X1504Y4431D1*
X1547Y4402D1*
X1618Y4388D1*
X1661D1*
X1733Y4402D1*
X1776Y4431D1*
X1790Y4474D1*
Y4503D1*
X1776Y4546D1*
X1733Y4575D1*
X1661Y4589D1*
X1618D1*
X1547Y4575D1*
X1504Y4546D1*
X1489Y4503D1*
Y4474D1*
X1547Y4575D2*
X1733Y4402D1*
X6499Y22256D2*
X6470Y22242D1*
X6441Y22213D1*
X6427Y22184D1*
Y22127D1*
X6441Y22098D1*
X6470Y22069D1*
X6499Y22055D1*
X6542Y22041D1*
X6614D1*
X6657Y22055D1*
X6685Y22069D1*
X6714Y22098D1*
X6728Y22127D1*
Y22184D1*
X6714Y22213D1*
X6685Y22242D1*
X6657Y22256D1*
X6499Y22363D2*
X6485D1*
X6456Y22377D1*
X6442Y22392D1*
X6427Y22420D1*
Y22478D1*
X6442Y22506D1*
X6456Y22521D1*
X6485Y22535D1*
X6513D1*
X6542Y22521D1*
X6585Y22492D1*
X6728Y22348D1*
Y22549D1*
X6485Y22642D2*
X6470Y22671D1*
X6427Y22714D1*
X6728D1*
X6936Y21941D2*
X6908Y21927D1*
X6879Y21898D1*
X6865Y21870D1*
Y21812D1*
X6879Y21783D1*
X6908Y21755D1*
X6936Y21740D1*
X6979Y21726D1*
X7051D1*
X7094Y21740D1*
X7123Y21755D1*
X7151Y21783D1*
X7166Y21812D1*
Y21870D1*
X7151Y21898D1*
X7123Y21927D1*
X7094Y21941D1*
X6937Y22049D2*
X6922D1*
X6893Y22063D1*
X6879Y22077D1*
X6865Y22106D1*
Y22163D1*
X6879Y22192D1*
X6893Y22206D1*
X6922Y22221D1*
X6951D1*
X6980Y22206D1*
X7022Y22178D1*
X7166Y22034D1*
Y22235D1*
X6937Y22342D2*
X6922D1*
X6893Y22356D1*
X6879Y22371D1*
X6865Y22400D1*
Y22457D1*
X6879Y22485D1*
X6893Y22500D1*
X6922Y22514D1*
X6951D1*
X6980Y22500D1*
X7022Y22471D1*
X7166Y22328D1*
Y22529D1*
X1877Y8973D2*
X1862Y9002D1*
X1834Y9031D1*
X1805Y9045D1*
X1748D1*
X1719Y9031D1*
X1690Y9002D1*
X1676Y8973D1*
X1662Y8930D1*
Y8858D1*
X1676Y8815D1*
X1690Y8787D1*
X1719Y8758D1*
X1748Y8743D1*
X1805D1*
X1834Y8758D1*
X1862Y8787D1*
X1877Y8815D1*
X1984Y8973D2*
Y8987D1*
X1998Y9016D1*
X2012Y9030D1*
X2041Y9045D1*
X2099D1*
X2127Y9030D1*
X2141Y9016D1*
X2156Y8987D1*
Y8959D1*
X2141Y8930D1*
X2113Y8887D1*
X1969Y8743D1*
X2170D1*
X2292Y9045D2*
X2449D1*
X2363Y8930D1*
X2407D1*
X2435Y8916D1*
X2449Y8901D1*
X2464Y8858D1*
Y8830D1*
X2449Y8787D1*
X2421Y8758D1*
X2378Y8743D1*
X2335D1*
X2292Y8758D1*
X2278Y8772D1*
X2263Y8801D1*
X6561Y3307D2*
X6533Y3293D1*
X6504Y3264D1*
X6490Y3236D1*
Y3178D1*
X6504Y3149D1*
X6533Y3121D1*
X6561Y3106D1*
X6604Y3092D1*
X6676D1*
X6719Y3106D1*
X6748Y3121D1*
X6776Y3149D1*
X6791Y3178D1*
Y3236D1*
X6776Y3264D1*
X6748Y3293D1*
X6719Y3307D1*
X6562Y3414D2*
X6547D1*
X6518Y3429D1*
X6504Y3443D1*
X6490Y3472D1*
Y3529D1*
X6504Y3558D1*
X6518Y3572D1*
X6547Y3587D1*
X6576D1*
X6605Y3572D1*
X6647Y3543D1*
X6791Y3400D1*
Y3601D1*
Y3837D2*
X6490D1*
X6691Y3693D1*
Y3909D1*
X4377Y8973D2*
X4363Y9002D1*
X4334Y9031D1*
X4305Y9045D1*
X4248D1*
X4219Y9031D1*
X4191Y9002D1*
X4176Y8973D1*
X4162Y8930D1*
Y8858D1*
X4176Y8815D1*
X4191Y8787D1*
X4219Y8758D1*
X4248Y8743D1*
X4305D1*
X4334Y8758D1*
X4363Y8787D1*
X4377Y8815D1*
X4484Y8973D2*
Y8987D1*
X4498Y9016D1*
X4513Y9030D1*
X4542Y9045D1*
X4599D1*
X4627Y9030D1*
X4642Y9016D1*
X4656Y8987D1*
Y8959D1*
X4642Y8930D1*
X4613Y8887D1*
X4470Y8743D1*
X4671D1*
X4935Y9045D2*
X4792D1*
X4778Y8916D1*
X4792Y8930D1*
X4835Y8944D1*
X4878D1*
X4921Y8930D1*
X4950Y8901D1*
X4964Y8858D1*
Y8830D1*
X4950Y8787D1*
X4921Y8758D1*
X4878Y8743D1*
X4835D1*
X4792Y8758D1*
X4778Y8772D1*
X4763Y8801D1*
X6384Y13816D2*
X6370Y13844D1*
X6341Y13873D1*
X6313Y13888D1*
X6255D1*
X6227Y13873D1*
X6198Y13844D1*
X6184Y13816D1*
X6169Y13773D1*
Y13701D1*
X6184Y13658D1*
X6198Y13629D1*
X6227Y13601D1*
X6255Y13586D1*
X6313D1*
X6341Y13601D1*
X6370Y13629D1*
X6384Y13658D1*
X6492Y13816D2*
Y13830D1*
X6506Y13859D1*
X6520Y13873D1*
X6549Y13887D1*
X6606D1*
X6635Y13873D1*
X6649Y13859D1*
X6664Y13830D1*
Y13801D1*
X6649Y13773D1*
X6621Y13730D1*
X6477Y13586D1*
X6678D1*
X6943Y13844D2*
X6929Y13873D1*
X6885Y13887D1*
X6857D1*
X6814Y13873D1*
X6785Y13830D1*
X6771Y13758D1*
Y13687D1*
X6785Y13629D1*
X6814Y13600D1*
X6857Y13586D1*
X6871D1*
X6914Y13600D1*
X6943Y13629D1*
X6957Y13672D1*
Y13687D1*
X6943Y13730D1*
X6914Y13758D1*
X6871Y13773D1*
X6857D1*
X6814Y13758D1*
X6785Y13730D1*
X6771Y13687D1*
X5279Y9552D2*
X5250Y9538D1*
X5221Y9509D1*
X5207Y9481D1*
Y9423D1*
X5221Y9394D1*
X5250Y9366D1*
X5279Y9351D1*
X5322Y9337D1*
X5394D1*
X5436Y9351D1*
X5465Y9366D1*
X5494Y9394D1*
X5508Y9423D1*
Y9481D1*
X5494Y9509D1*
X5465Y9538D1*
X5436Y9552D1*
X5279Y9659D2*
X5265D1*
X5236Y9674D1*
X5222Y9688D1*
X5207Y9717D1*
Y9774D1*
X5222Y9803D1*
X5236Y9817D1*
X5265Y9832D1*
X5293D1*
X5322Y9817D1*
X5365Y9788D1*
X5508Y9645D1*
Y9846D1*
Y9996D2*
X5207Y10139D1*
Y9938D1*
X7436Y9565D2*
X7408Y9551D1*
X7379Y9522D1*
X7365Y9494D1*
Y9436D1*
X7379Y9407D1*
X7408Y9379D1*
X7436Y9364D1*
X7479Y9350D1*
X7551D1*
X7594Y9364D1*
X7623Y9379D1*
X7652Y9407D1*
X7666Y9436D1*
Y9494D1*
X7652Y9522D1*
X7623Y9551D1*
X7594Y9565D1*
X7437Y9672D2*
X7422D1*
X7394Y9687D1*
X7379Y9701D1*
X7365Y9730D1*
Y9787D1*
X7379Y9816D1*
X7394Y9830D1*
X7422Y9845D1*
X7451D1*
X7480Y9830D1*
X7523Y9801D1*
X7666Y9658D1*
Y9859D1*
X7365Y10023D2*
X7379Y9980D1*
X7408Y9966D1*
X7437D1*
X7465Y9980D1*
X7480Y10009D1*
X7494Y10066D1*
X7508Y10109D1*
X7537Y10138D1*
X7566Y10152D1*
X7609D1*
X7637Y10138D1*
X7652Y10124D1*
X7666Y10080D1*
Y10023D1*
X7652Y9980D1*
X7637Y9966D1*
X7609Y9951D1*
X7566D1*
X7537Y9966D1*
X7508Y9995D1*
X7494Y10037D1*
X7480Y10095D1*
X7465Y10124D1*
X7437Y10138D1*
X7408D1*
X7379Y10124D1*
X7365Y10080D1*
Y10023D1*
X9624Y9572D2*
X9595Y9558D1*
X9567Y9529D1*
X9552Y9501D1*
Y9443D1*
X9567Y9414D1*
X9595Y9386D1*
X9624Y9371D1*
X9667Y9357D1*
X9739D1*
X9782Y9371D1*
X9811Y9386D1*
X9839Y9414D1*
X9854Y9443D1*
Y9501D1*
X9839Y9529D1*
X9811Y9558D1*
X9782Y9572D1*
X9624Y9679D2*
X9610D1*
X9581Y9694D1*
X9567Y9708D1*
X9553Y9737D1*
Y9794D1*
X9567Y9823D1*
X9581Y9837D1*
X9610Y9852D1*
X9639D1*
X9667Y9837D1*
X9710Y9808D1*
X9854Y9665D1*
Y9866D1*
X9653Y10145D2*
X9696Y10131D1*
X9725Y10102D1*
X9739Y10059D1*
Y10045D1*
X9725Y10002D1*
X9696Y9973D1*
X9653Y9958D1*
X9639D1*
X9595Y9973D1*
X9567Y10002D1*
X9553Y10045D1*
Y10059D1*
X9567Y10102D1*
X9595Y10131D1*
X9653Y10145D1*
X9725D1*
X9796Y10131D1*
X9840Y10102D1*
X9854Y10059D1*
Y10030D1*
X9840Y9987D1*
X9811Y9973D1*
X6999Y2689D2*
X6970Y2675D1*
X6941Y2646D1*
X6927Y2618D1*
Y2560D1*
X6941Y2531D1*
X6970Y2503D1*
X6999Y2488D1*
X7042Y2474D1*
X7114D1*
X7157Y2488D1*
X7185Y2503D1*
X7214Y2531D1*
X7229Y2560D1*
Y2618D1*
X7214Y2646D1*
X7185Y2675D1*
X7157Y2689D1*
X6927Y2811D2*
Y2968D1*
X7042Y2882D1*
Y2926D1*
X7056Y2954D1*
X7071Y2968D1*
X7114Y2983D1*
X7142D1*
X7185Y2968D1*
X7214Y2940D1*
X7229Y2897D1*
Y2854D1*
X7214Y2811D1*
X7200Y2797D1*
X7171Y2782D1*
X6927Y3162D2*
X6942Y3119D1*
X6985Y3090D1*
X7056Y3076D1*
X7100D1*
X7171Y3090D1*
X7214Y3119D1*
X7229Y3162D1*
Y3190D1*
X7214Y3233D1*
X7171Y3262D1*
X7100Y3277D1*
X7056D1*
X6985Y3262D1*
X6942Y3233D1*
X6927Y3190D1*
Y3162D1*
X6985Y3262D2*
X7171Y3090D1*
X6754Y14379D2*
X6740Y14407D1*
X6711Y14436D1*
X6683Y14450D1*
X6625D1*
X6596Y14436D1*
X6568Y14407D1*
X6553Y14379D1*
X6539Y14335D1*
Y14263D1*
X6553Y14221D1*
X6568Y14192D1*
X6596Y14163D1*
X6625Y14149D1*
X6683D1*
X6711Y14163D1*
X6740Y14192D1*
X6754Y14221D1*
X6876Y14450D2*
X7033D1*
X6947Y14335D1*
X6990D1*
X7019Y14321D1*
X7033Y14307D1*
X7048Y14263D1*
Y14235D1*
X7033Y14192D1*
X7005Y14163D1*
X6962Y14149D1*
X6919D1*
X6876Y14163D1*
X6861Y14178D1*
X6847Y14206D1*
X7140Y14392D2*
X7169Y14407D1*
X7212Y14450D1*
Y14149D1*
X11654Y13266D2*
X11626Y13251D1*
X11597Y13223D1*
X11583Y13194D1*
Y13137D1*
X11597Y13108D1*
X11626Y13079D1*
X11654Y13065D1*
X11697Y13050D1*
X11769D1*
X11812Y13065D1*
X11841Y13079D1*
X11869Y13108D1*
X11884Y13137D1*
Y13194D1*
X11869Y13223D1*
X11841Y13251D1*
X11812Y13266D1*
X11583Y13387D2*
Y13545D1*
X11698Y13459D1*
Y13502D1*
X11712Y13530D1*
X11726Y13545D1*
X11769Y13559D1*
X11798D1*
X11841Y13545D1*
X11870Y13516D1*
X11884Y13473D1*
Y13430D1*
X11870Y13387D1*
X11855Y13373D1*
X11827Y13358D1*
X11655Y13667D2*
X11640D1*
X11611Y13681D1*
X11597Y13695D1*
X11583Y13724D1*
Y13781D1*
X11597Y13810D1*
X11611Y13824D1*
X11640Y13839D1*
X11669D1*
X11698Y13824D1*
X11740Y13796D1*
X11884Y13652D1*
Y13853D1*
X12571Y7107D2*
X12543Y7093D1*
X12514Y7064D1*
X12500Y7035D1*
Y6978D1*
X12514Y6949D1*
X12543Y6921D1*
X12571Y6906D1*
X12614Y6892D1*
X12686D1*
X12729Y6906D1*
X12758Y6921D1*
X12786Y6949D1*
X12801Y6978D1*
Y7035D1*
X12786Y7064D1*
X12758Y7093D1*
X12729Y7107D1*
X12500Y7228D2*
Y7386D1*
X12615Y7300D1*
Y7343D1*
X12629Y7372D1*
X12643Y7386D1*
X12686Y7401D1*
X12715D1*
X12758Y7386D1*
X12787Y7357D1*
X12801Y7314D1*
Y7271D1*
X12787Y7228D1*
X12772Y7214D1*
X12744Y7200D1*
X12500Y7522D2*
Y7680D1*
X12615Y7594D1*
Y7637D1*
X12629Y7665D1*
X12643Y7680D1*
X12686Y7694D1*
X12715D1*
X12758Y7680D1*
X12787Y7651D1*
X12801Y7608D1*
Y7565D1*
X12787Y7522D1*
X12772Y7508D1*
X12744Y7493D1*
X7120Y3815D2*
X7106Y3843D1*
X7077Y3872D1*
X7049Y3887D1*
X6991D1*
X6962Y3872D1*
X6934Y3843D1*
X6919Y3815D1*
X6905Y3772D1*
Y3700D1*
X6919Y3657D1*
X6934Y3628D1*
X6962Y3600D1*
X6991Y3585D1*
X7049D1*
X7077Y3600D1*
X7106Y3628D1*
X7120Y3657D1*
X7242Y3886D2*
X7399D1*
X7313Y3771D1*
X7356D1*
X7385Y3757D1*
X7399Y3743D1*
X7414Y3700D1*
Y3671D1*
X7399Y3628D1*
X7371Y3599D1*
X7328Y3585D1*
X7284D1*
X7242Y3599D1*
X7227Y3614D1*
X7213Y3642D1*
X7650Y3585D2*
Y3886D1*
X7506Y3686D1*
X7722D1*
X10628Y1815D2*
X10613Y1843D1*
X10585Y1872D1*
X10556Y1886D1*
X10499D1*
X10470Y1872D1*
X10441Y1843D1*
X10427Y1815D1*
X10412Y1772D1*
Y1700D1*
X10427Y1657D1*
X10441Y1628D1*
X10470Y1599D1*
X10499Y1585D1*
X10556D1*
X10585Y1599D1*
X10613Y1628D1*
X10628Y1657D1*
X10749Y1886D2*
X10907D1*
X10821Y1771D1*
X10864D1*
X10892Y1757D1*
X10907Y1743D1*
X10921Y1700D1*
Y1671D1*
X10907Y1628D1*
X10878Y1599D1*
X10835Y1585D1*
X10792D1*
X10749Y1599D1*
X10735Y1614D1*
X10720Y1642D1*
X11186Y1886D2*
X11043D1*
X11028Y1757D1*
X11043Y1771D1*
X11086Y1786D1*
X11129D1*
X11172Y1771D1*
X11201Y1743D1*
X11215Y1700D1*
Y1671D1*
X11201Y1628D1*
X11172Y1599D1*
X11129Y1585D1*
X11086D1*
X11043Y1599D1*
X11028Y1614D1*
X11014Y1642D1*
X7635Y1315D2*
X7620Y1343D1*
X7592Y1372D1*
X7563Y1386D1*
X7506D1*
X7477Y1372D1*
X7448Y1343D1*
X7434Y1315D1*
X7419Y1272D1*
Y1200D1*
X7434Y1157D1*
X7448Y1128D1*
X7477Y1099D1*
X7506Y1085D1*
X7563D1*
X7592Y1099D1*
X7620Y1128D1*
X7635Y1157D1*
X7756Y1386D2*
X7914D1*
X7828Y1271D1*
X7871D1*
X7899Y1257D1*
X7914Y1243D1*
X7928Y1200D1*
Y1171D1*
X7914Y1128D1*
X7885Y1099D1*
X7842Y1085D1*
X7799D1*
X7756Y1099D1*
X7742Y1114D1*
X7727Y1142D1*
X8193Y1343D2*
X8179Y1372D1*
X8136Y1386D1*
X8107D1*
X8064Y1372D1*
X8035Y1329D1*
X8021Y1257D1*
Y1185D1*
X8035Y1128D1*
X8064Y1099D1*
X8107Y1085D1*
X8121D1*
X8164Y1099D1*
X8193Y1128D1*
X8207Y1171D1*
Y1185D1*
X8193Y1228D1*
X8164Y1257D1*
X8121Y1271D1*
X8107D1*
X8064Y1257D1*
X8035Y1228D1*
X8021Y1185D1*
X10812Y4064D2*
X10783Y4050D1*
X10754Y4021D1*
X10740Y3993D1*
Y3935D1*
X10754Y3907D1*
X10783Y3878D1*
X10812Y3864D1*
X10855Y3849D1*
X10927D1*
X10969Y3864D1*
X10998Y3878D1*
X11027Y3907D1*
X11041Y3935D1*
Y3993D1*
X11027Y4021D1*
X10998Y4050D1*
X10969Y4064D1*
X10740Y4186D2*
Y4343D1*
X10855Y4258D1*
Y4301D1*
X10869Y4329D1*
X10884Y4343D1*
X10927Y4358D1*
X10955D1*
X10998Y4343D1*
X11027Y4315D1*
X11041Y4272D1*
Y4229D1*
X11027Y4186D1*
X11013Y4172D1*
X10984Y4157D1*
X11041Y4508D2*
X10740Y4652D1*
Y4451D1*
X4190Y5753D2*
X4175Y5781D1*
X4147Y5810D1*
X4118Y5824D1*
X4061D1*
X4032Y5810D1*
X4003Y5781D1*
X3989Y5753D1*
X3974Y5709D1*
Y5638D1*
X3989Y5595D1*
X4003Y5566D1*
X4032Y5537D1*
X4061Y5523D1*
X4118D1*
X4147Y5537D1*
X4175Y5566D1*
X4190Y5595D1*
X4311Y5824D2*
X4469D1*
X4383Y5709D1*
X4426D1*
X4454Y5695D1*
X4469Y5681D1*
X4483Y5638D1*
Y5609D1*
X4469Y5566D1*
X4440Y5537D1*
X4397Y5523D1*
X4354D1*
X4311Y5537D1*
X4297Y5552D1*
X4282Y5580D1*
X4647Y5824D2*
X4605Y5810D1*
X4590Y5781D1*
Y5752D1*
X4605Y5724D1*
X4633Y5709D1*
X4691Y5695D1*
X4734Y5681D1*
X4762Y5652D1*
X4776Y5623D1*
Y5580D1*
X4762Y5552D1*
X4748Y5537D1*
X4705Y5523D1*
X4647D1*
X4605Y5537D1*
X4590Y5552D1*
X4576Y5580D1*
Y5623D1*
X4590Y5652D1*
X4619Y5681D1*
X4662Y5695D1*
X4719Y5709D1*
X4748Y5724D1*
X4762Y5752D1*
Y5781D1*
X4748Y5810D1*
X4705Y5824D1*
X4647D1*
X3697Y1565D2*
X3682Y1593D1*
X3653Y1622D1*
X3625Y1636D1*
X3568D1*
X3539Y1622D1*
X3510Y1593D1*
X3496Y1565D1*
X3481Y1522D1*
Y1450D1*
X3496Y1407D1*
X3510Y1378D1*
X3539Y1349D1*
X3568Y1335D1*
X3625D1*
X3653Y1349D1*
X3682Y1378D1*
X3697Y1407D1*
X3818Y1636D2*
X3976D1*
X3890Y1521D1*
X3933D1*
X3961Y1507D1*
X3976Y1493D1*
X3990Y1450D1*
Y1421D1*
X3976Y1378D1*
X3947Y1349D1*
X3904Y1335D1*
X3861D1*
X3818Y1349D1*
X3804Y1364D1*
X3789Y1392D1*
X4269Y1536D2*
X4255Y1493D1*
X4226Y1464D1*
X4183Y1450D1*
X4169D1*
X4126Y1464D1*
X4097Y1493D1*
X4083Y1536D1*
Y1550D1*
X4097Y1593D1*
X4126Y1622D1*
X4169Y1636D1*
X4183D1*
X4226Y1622D1*
X4255Y1593D1*
X4269Y1536D1*
Y1464D1*
X4255Y1392D1*
X4226Y1349D1*
X4183Y1335D1*
X4155D1*
X4112Y1349D1*
X4097Y1378D1*
X2182Y25692D2*
X2168Y25721D1*
X2139Y25750D1*
X2111Y25764D1*
X2053D1*
X2024Y25750D1*
X1996Y25721D1*
X1981Y25692D1*
X1967Y25649D1*
Y25577D1*
X1981Y25534D1*
X1996Y25505D1*
X2024Y25477D1*
X2053Y25462D1*
X2111D1*
X2139Y25477D1*
X2168Y25505D1*
X2182Y25534D1*
X2418Y25462D2*
Y25763D1*
X2275Y25563D1*
X2490D1*
X2669Y25763D2*
X2626Y25749D1*
X2597Y25706D1*
X2583Y25634D1*
Y25591D1*
X2597Y25520D1*
X2626Y25477D1*
X2669Y25462D1*
X2697D1*
X2740Y25477D1*
X2769Y25520D1*
X2784Y25591D1*
Y25634D1*
X2769Y25706D1*
X2740Y25749D1*
X2697Y25763D1*
X2669D1*
X2769Y25706D2*
X2597Y25520D1*
X4497Y29255D2*
X4483Y29284D1*
X4454Y29312D1*
X4425Y29327D1*
X4368D1*
X4339Y29312D1*
X4311Y29284D1*
X4296Y29255D1*
X4282Y29212D1*
Y29140D1*
X4296Y29097D1*
X4311Y29068D1*
X4339Y29040D1*
X4368Y29025D1*
X4425D1*
X4454Y29040D1*
X4483Y29068D1*
X4497Y29097D1*
X4733Y29025D2*
Y29326D1*
X4590Y29126D1*
X4805D1*
X4897Y29269D2*
X4926Y29284D1*
X4969Y29326D1*
Y29025D1*
X12509Y11850D2*
X12480Y11836D1*
X12451Y11807D1*
X12437Y11779D1*
Y11721D1*
X12451Y11692D1*
X12480Y11664D1*
X12509Y11649D1*
X12552Y11635D1*
X12624D1*
X12666Y11649D1*
X12695Y11664D1*
X12724Y11692D1*
X12738Y11721D1*
Y11779D1*
X12724Y11807D1*
X12695Y11836D1*
X12666Y11850D1*
X12738Y12087D2*
X12437D1*
X12638Y11943D1*
Y12158D1*
X12509Y12265D2*
X12495D1*
X12466Y12280D1*
X12452Y12294D1*
X12437Y12323D1*
Y12380D1*
X12452Y12409D1*
X12466Y12423D1*
X12495Y12438D1*
X12523D1*
X12552Y12423D1*
X12595Y12394D1*
X12738Y12251D1*
Y12452D1*
X12749Y2995D2*
X12721Y2980D1*
X12692Y2952D1*
X12678Y2923D1*
Y2866D1*
X12692Y2837D1*
X12721Y2808D1*
X12749Y2794D1*
X12792Y2780D1*
X12864D1*
X12907Y2794D1*
X12936Y2808D1*
X12965Y2837D1*
X12979Y2866D1*
Y2923D1*
X12965Y2952D1*
X12936Y2980D1*
X12907Y2995D1*
X12979Y3231D2*
X12678D1*
X12879Y3087D1*
Y3303D1*
X12678Y3424D2*
Y3582D1*
X12793Y3496D1*
Y3539D1*
X12807Y3567D1*
X12821Y3582D1*
X12864Y3596D1*
X12893D1*
X12936Y3582D1*
X12965Y3553D1*
X12979Y3510D1*
Y3467D1*
X12965Y3424D1*
X12950Y3410D1*
X12922Y3395D1*
X1675Y23629D2*
X1661Y23658D1*
X1632Y23687D1*
X1603Y23701D1*
X1546D1*
X1517Y23687D1*
X1489Y23658D1*
X1474Y23629D1*
X1460Y23586D1*
Y23514D1*
X1474Y23472D1*
X1489Y23443D1*
X1517Y23414D1*
X1546Y23400D1*
X1603D1*
X1632Y23414D1*
X1661Y23443D1*
X1675Y23472D1*
X1911Y23400D2*
Y23701D1*
X1768Y23500D1*
X1983D1*
X2219Y23400D2*
Y23701D1*
X2075Y23500D1*
X2291D1*
X4621Y25514D2*
Y25212D1*
X4722D1*
X4765Y25227D1*
X4794Y25256D1*
X4808Y25284D1*
X4822Y25327D1*
Y25399D1*
X4808Y25442D1*
X4794Y25471D1*
X4765Y25500D1*
X4722Y25514D1*
X4621D1*
X4915Y25456D2*
X4944Y25471D1*
X4987Y25514D1*
Y25212D1*
X10493Y27139D2*
Y26838D1*
X10594D1*
X10637Y26852D1*
X10666Y26881D1*
X10680Y26909D1*
X10694Y26952D1*
Y27024D1*
X10680Y27067D1*
X10666Y27096D1*
X10637Y27125D1*
X10594Y27139D1*
X10493D1*
X10930Y26838D2*
Y27139D1*
X10787Y26938D1*
X11002D1*
X490Y20540D2*
Y20310D1*
X475Y20267D1*
X461Y20253D1*
X432Y20238D1*
X403D1*
X375Y20253D1*
X361Y20267D1*
X346Y20310D1*
Y20339D1*
X582Y20482D2*
X611Y20497D1*
X654Y20539D1*
Y20238D1*
X425Y27538D2*
Y27308D1*
X411Y27265D1*
X396Y27251D1*
X368Y27236D1*
X339D1*
X310Y27251D1*
X296Y27265D1*
X281Y27308D1*
Y27337D1*
X532Y27466D2*
Y27480D1*
X547Y27509D1*
X561Y27523D1*
X590Y27537D1*
X647D1*
X676Y27523D1*
X690Y27509D1*
X704Y27480D1*
Y27452D1*
X690Y27423D1*
X661Y27380D1*
X518Y27236D1*
X719D1*
X425Y32538D2*
Y32308D1*
X411Y32265D1*
X396Y32251D1*
X368Y32236D1*
X339D1*
X310Y32251D1*
X296Y32265D1*
X281Y32308D1*
Y32337D1*
X547Y32537D2*
X704D1*
X618Y32423D1*
X661D1*
X690Y32408D1*
X704Y32394D1*
X719Y32351D1*
Y32323D1*
X704Y32279D1*
X676Y32251D1*
X632Y32236D1*
X589D1*
X547Y32251D1*
X532Y32265D1*
X518Y32294D1*
X6147Y33282D2*
Y33052D1*
X6133Y33009D1*
X6118Y32995D1*
X6090Y32980D1*
X6061D1*
X6033Y32995D1*
X6018Y33009D1*
X6004Y33052D1*
Y33081D1*
X6412Y33281D2*
X6269D1*
X6255Y33152D1*
X6269Y33167D1*
X6312Y33181D1*
X6355D1*
X6398Y33167D1*
X6427Y33138D1*
X6441Y33095D1*
Y33066D1*
X6427Y33023D1*
X6398Y32994D1*
X6355Y32980D1*
X6312D1*
X6269Y32994D1*
X6255Y33009D1*
X6240Y33038D1*
X1300Y16663D2*
Y16433D1*
X1286Y16390D1*
X1271Y16376D1*
X1243Y16361D1*
X1214D1*
X1185Y16376D1*
X1171Y16390D1*
X1157Y16433D1*
Y16462D1*
X1450Y16361D2*
X1594Y16662D1*
X1393D1*
X425Y681D2*
Y452D1*
X411Y409D1*
X396Y395D1*
X368Y380D1*
X339D1*
X310Y395D1*
X296Y409D1*
X282Y452D1*
Y480D1*
X589Y681D2*
X547Y667D1*
X532Y638D1*
Y609D1*
X547Y581D1*
X575Y566D1*
X633Y552D1*
X676Y538D1*
X704Y509D1*
X718Y480D1*
Y437D1*
X704Y409D1*
X690Y394D1*
X647Y380D1*
X589D1*
X547Y394D1*
X532Y409D1*
X518Y437D1*
Y480D1*
X532Y509D1*
X561Y538D1*
X604Y552D1*
X661Y566D1*
X690Y581D1*
X704Y609D1*
Y638D1*
X690Y667D1*
X647Y681D1*
X589D1*
X561Y36773D2*
X862D1*
Y36945D1*
X618Y37038D2*
X604Y37066D1*
X561Y37110D1*
X862D1*
X936Y32458D2*
X1237D1*
Y32630D1*
X1008Y32737D2*
X994D1*
X965Y32751D1*
X950Y32766D1*
X936Y32795D1*
Y32852D1*
X950Y32880D1*
X965Y32895D1*
X994Y32909D1*
X1022D1*
X1051Y32895D1*
X1094Y32866D1*
X1237Y32723D1*
Y32924D1*
X12081Y21951D2*
Y21649D1*
X12253D1*
X12375Y21951D2*
X12532D1*
X12446Y21836D1*
X12489D1*
X12518Y21822D1*
X12532Y21807D1*
X12547Y21764D1*
Y21736D1*
X12532Y21693D1*
X12504Y21664D1*
X12460Y21649D1*
X12417D1*
X12375Y21664D1*
X12360Y21678D1*
X12346Y21707D1*
X1864Y17432D2*
X1835Y17418D1*
X1807Y17389D1*
X1792Y17360D1*
X1778Y17317D1*
Y17245D1*
X1792Y17202D1*
X1807Y17174D1*
X1835Y17145D1*
X1864Y17130D1*
X1921D1*
X1950Y17145D1*
X1979Y17174D1*
X1993Y17202D1*
X2008Y17245D1*
Y17317D1*
X1993Y17360D1*
X1979Y17389D1*
X1950Y17418D1*
X1921Y17432D1*
X1864D1*
X1907Y17188D2*
X1993Y17102D1*
X2100Y17374D2*
X2129Y17388D1*
X2172Y17431D1*
Y17130D1*
X3548Y18319D2*
Y18448D1*
X3534Y18491D1*
X3519Y18506D1*
X3491Y18520D1*
X3462D1*
X3433Y18506D1*
X3419Y18491D1*
X3405Y18448D1*
Y18319D1*
X3706D1*
X3548Y18420D2*
X3706Y18520D1*
X3462Y18613D2*
X3448Y18642D1*
X3405Y18685D1*
X3706D1*
X1877Y20343D2*
X2006D1*
X2049Y20358D1*
X2064Y20372D1*
X2078Y20400D1*
Y20429D1*
X2064Y20458D1*
X2049Y20472D1*
X2006Y20487D1*
X1877D1*
Y20185D1*
X1977Y20343D2*
X2078Y20185D1*
X2185Y20415D2*
Y20429D1*
X2199Y20458D1*
X2214Y20472D1*
X2242Y20486D1*
X2300D1*
X2328Y20472D1*
X2343Y20458D1*
X2357Y20429D1*
Y20400D1*
X2343Y20372D1*
X2314Y20329D1*
X2171Y20185D1*
X2371D1*
X1347Y26256D2*
Y26385D1*
X1332Y26428D1*
X1318Y26442D1*
X1289Y26456D1*
X1260D1*
X1232Y26442D1*
X1217Y26428D1*
X1203Y26385D1*
Y26256D1*
X1505D1*
X1347Y26356D2*
X1505Y26456D1*
X1203Y26578D2*
Y26735D1*
X1318Y26650D1*
Y26693D1*
X1332Y26721D1*
X1347Y26735D1*
X1390Y26750D1*
X1418D1*
X1461Y26735D1*
X1490Y26707D1*
X1505Y26664D1*
Y26621D1*
X1490Y26578D1*
X1476Y26564D1*
X1447Y26549D1*
X7410Y26311D2*
Y26440D1*
X7395Y26483D1*
X7381Y26498D1*
X7352Y26512D1*
X7324D1*
X7295Y26498D1*
X7280Y26483D1*
X7266Y26440D1*
Y26311D1*
X7568D1*
X7410Y26411D2*
X7568Y26512D1*
Y26748D2*
X7267D1*
X7467Y26604D1*
Y26820D1*
X2722Y29881D2*
Y30010D1*
X2707Y30053D1*
X2693Y30068D1*
X2664Y30082D1*
X2636D1*
X2607Y30068D1*
X2592Y30053D1*
X2578Y30010D1*
Y29881D1*
X2880D1*
X2722Y29981D2*
X2880Y30082D1*
X2579Y30347D2*
Y30203D1*
X2708Y30189D1*
X2693Y30203D1*
X2679Y30246D1*
Y30289D1*
X2693Y30332D1*
X2722Y30361D1*
X2765Y30375D1*
X2793D1*
X2837Y30361D1*
X2865Y30332D1*
X2880Y30289D1*
Y30246D1*
X2865Y30203D1*
X2851Y30189D1*
X2822Y30174D1*
X6785Y27888D2*
Y28017D1*
X6770Y28060D1*
X6756Y28075D1*
X6727Y28089D1*
X6699D1*
X6670Y28075D1*
X6655Y28060D1*
X6641Y28017D1*
Y27888D1*
X6943D1*
X6785Y27988D2*
X6943Y28089D1*
X6684Y28354D2*
X6656Y28339D1*
X6641Y28296D1*
Y28268D1*
X6656Y28225D1*
X6699Y28196D1*
X6770Y28182D1*
X6842D1*
X6899Y28196D1*
X6928Y28225D1*
X6943Y28268D1*
Y28282D1*
X6928Y28325D1*
X6899Y28354D1*
X6856Y28368D1*
X6842D1*
X6799Y28354D1*
X6770Y28325D1*
X6756Y28282D1*
Y28268D1*
X6770Y28225D1*
X6799Y28196D1*
X6842Y28182D1*
X1783Y29881D2*
Y30010D1*
X1769Y30053D1*
X1754Y30068D1*
X1726Y30082D1*
X1697D1*
X1668Y30068D1*
X1654Y30053D1*
X1640Y30010D1*
Y29881D1*
X1941D1*
X1783Y29981D2*
X1941Y30082D1*
Y30232D2*
X1640Y30375D1*
Y30174D1*
X5821Y37422D2*
Y37551D1*
X5806Y37594D1*
X5792Y37609D1*
X5763Y37623D1*
X5734D1*
X5706Y37609D1*
X5691Y37594D1*
X5677Y37551D1*
Y37422D1*
X5978D1*
X5821Y37523D2*
X5978Y37623D1*
X5677Y37787D2*
X5692Y37745D1*
X5720Y37730D1*
X5749D1*
X5777Y37745D1*
X5792Y37773D1*
X5806Y37831D1*
X5821Y37874D1*
X5849Y37902D1*
X5878Y37916D1*
X5921D1*
X5950Y37902D1*
X5964Y37888D1*
X5978Y37845D1*
Y37787D1*
X5964Y37745D1*
X5950Y37730D1*
X5921Y37716D1*
X5878D1*
X5849Y37730D1*
X5821Y37759D1*
X5806Y37802D1*
X5792Y37859D1*
X5777Y37888D1*
X5749Y37902D1*
X5720D1*
X5692Y37888D1*
X5677Y37845D1*
Y37787D1*
X9448Y28183D2*
X9577D1*
X9620Y28198D1*
X9635Y28212D1*
X9649Y28240D1*
Y28269D1*
X9635Y28298D1*
X9620Y28312D1*
X9577Y28327D1*
X9448D1*
Y28025D1*
X9549Y28183D2*
X9649Y28025D1*
X9929Y28226D2*
X9914Y28183D1*
X9886Y28154D1*
X9842Y28140D1*
X9828D1*
X9785Y28154D1*
X9757Y28183D1*
X9742Y28226D1*
Y28240D1*
X9757Y28283D1*
X9785Y28312D1*
X9828Y28326D1*
X9842D1*
X9886Y28312D1*
X9914Y28283D1*
X9929Y28226D1*
Y28154D1*
X9914Y28083D1*
X9886Y28039D1*
X9842Y28025D1*
X9814D1*
X9771Y28039D1*
X9757Y28068D1*
X7171Y22932D2*
X7300D1*
X7343Y22947D1*
X7358Y22961D1*
X7372Y22990D1*
Y23019D1*
X7358Y23047D1*
X7343Y23062D1*
X7300Y23076D1*
X7171D1*
Y22775D1*
X7272Y22932D2*
X7372Y22775D1*
X7465Y23018D2*
X7494Y23033D1*
X7537Y23076D1*
Y22775D1*
X7716Y23076D2*
X7673Y23061D1*
X7644Y23018D1*
X7629Y22947D1*
Y22904D1*
X7644Y22832D1*
X7673Y22789D1*
X7716Y22775D1*
X7744D1*
X7787Y22789D1*
X7816Y22832D1*
X7830Y22904D1*
Y22947D1*
X7816Y23018D1*
X7787Y23061D1*
X7744Y23076D1*
X7716D1*
X7816Y23018D2*
X7644Y22832D1*
X7298Y22182D2*
X7427D1*
X7470Y22197D1*
X7485Y22211D1*
X7499Y22240D1*
Y22269D1*
X7485Y22297D1*
X7470Y22312D1*
X7427Y22326D1*
X7298D1*
Y22025D1*
X7399Y22182D2*
X7499Y22025D1*
X7592Y22268D2*
X7621Y22283D1*
X7664Y22326D1*
Y22025D1*
X7756Y22268D2*
X7785Y22283D1*
X7828Y22326D1*
Y22025D1*
X847Y1421D2*
Y1550D1*
X832Y1593D1*
X818Y1607D1*
X789Y1622D1*
X760D1*
X732Y1607D1*
X717Y1593D1*
X703Y1550D1*
Y1421D1*
X1004D1*
X847Y1521D2*
X1004Y1622D1*
X761Y1714D2*
X746Y1743D1*
X703Y1786D1*
X1004D1*
X775Y1893D2*
X761D1*
X732Y1908D1*
X718Y1922D1*
X703Y1951D1*
Y2008D1*
X718Y2037D1*
X732Y2051D1*
X761Y2066D1*
X789D1*
X818Y2051D1*
X861Y2022D1*
X1004Y1879D1*
Y2080D1*
X1409Y1421D2*
Y1550D1*
X1395Y1593D1*
X1380Y1607D1*
X1352Y1622D1*
X1323D1*
X1294Y1607D1*
X1280Y1593D1*
X1266Y1550D1*
Y1421D1*
X1567D1*
X1409Y1521D2*
X1567Y1622D1*
X1323Y1714D2*
X1309Y1743D1*
X1266Y1786D1*
X1567D1*
X1266Y1908D2*
Y2065D1*
X1381Y1979D1*
Y2022D1*
X1395Y2051D1*
X1409Y2065D1*
X1452Y2080D1*
X1481D1*
X1524Y2065D1*
X1553Y2037D1*
X1567Y1994D1*
Y1950D1*
X1553Y1908D1*
X1538Y1893D1*
X1510Y1879D1*
X2164Y6029D2*
X2293D1*
X2336Y6044D1*
X2350Y6058D1*
X2365Y6086D1*
Y6115D1*
X2350Y6144D1*
X2336Y6158D1*
X2293Y6173D1*
X2164D1*
Y5871D1*
X2264Y6029D2*
X2365Y5871D1*
X2457Y6115D2*
X2486Y6130D1*
X2529Y6172D1*
Y5871D1*
X2765D2*
Y6172D1*
X2622Y5972D1*
X2837D1*
X4608Y18244D2*
X4737D1*
X4781Y18259D1*
X4795Y18273D1*
X4809Y18302D1*
Y18331D1*
X4795Y18359D1*
X4781Y18374D1*
X4737Y18388D1*
X4608D1*
Y18087D1*
X4709Y18244D2*
X4809Y18087D1*
X4902Y18330D2*
X4931Y18345D1*
X4974Y18388D1*
Y18087D1*
X5239Y18388D2*
X5095D1*
X5081Y18259D1*
X5095Y18273D1*
X5139Y18288D1*
X5181D1*
X5224Y18273D1*
X5253Y18244D1*
X5268Y18201D1*
Y18173D1*
X5253Y18130D1*
X5224Y18101D1*
X5181Y18087D1*
X5139D1*
X5095Y18101D1*
X5081Y18115D1*
X5067Y18144D1*
X6722Y2115D2*
Y2244D1*
X6708Y2288D1*
X6693Y2302D1*
X6665Y2316D1*
X6636D1*
X6608Y2302D1*
X6593Y2288D1*
X6579Y2244D1*
Y2115D1*
X6880D1*
X6722Y2216D2*
X6880Y2316D1*
X6636Y2409D2*
X6622Y2438D1*
X6579Y2481D1*
X6880D1*
X6622Y2746D2*
X6593Y2732D1*
X6579Y2688D1*
Y2660D1*
X6593Y2617D1*
X6636Y2588D1*
X6708Y2574D1*
X6780D1*
X6837Y2588D1*
X6866Y2617D1*
X6880Y2660D1*
Y2674D1*
X6866Y2717D1*
X6837Y2746D1*
X6794Y2760D1*
X6780D1*
X6737Y2746D1*
X6708Y2717D1*
X6694Y2674D1*
Y2660D1*
X6708Y2617D1*
X6737Y2588D1*
X6780Y2574D1*
X5921Y12619D2*
X6050D1*
X6093Y12633D1*
X6108Y12648D1*
X6122Y12676D1*
Y12705D1*
X6108Y12734D1*
X6093Y12748D1*
X6050Y12762D1*
X5921D1*
Y12461D1*
X6022Y12619D2*
X6122Y12461D1*
X6215Y12705D2*
X6244Y12719D1*
X6287Y12762D1*
Y12461D1*
X6437D2*
X6580Y12762D1*
X6379D1*
X4597Y1108D2*
Y1237D1*
X4582Y1280D1*
X4568Y1295D1*
X4540Y1309D1*
X4511D1*
X4482Y1295D1*
X4468Y1280D1*
X4453Y1237D1*
Y1108D1*
X4755D1*
X4597Y1209D2*
X4755Y1309D1*
X4511Y1402D2*
X4497Y1431D1*
X4454Y1474D1*
X4755D1*
X4454Y1638D2*
X4468Y1595D1*
X4497Y1581D1*
X4525D1*
X4554Y1595D1*
X4569Y1624D1*
X4583Y1681D1*
X4597Y1724D1*
X4626Y1753D1*
X4654Y1767D1*
X4698D1*
X4726Y1753D1*
X4741Y1739D1*
X4755Y1695D1*
Y1638D1*
X4741Y1595D1*
X4726Y1581D1*
X4698Y1566D1*
X4654D1*
X4626Y1581D1*
X4597Y1610D1*
X4583Y1652D1*
X4569Y1710D1*
X4554Y1739D1*
X4525Y1753D1*
X4497D1*
X4468Y1739D1*
X4454Y1695D1*
Y1638D1*
X5678Y5779D2*
X5807D1*
X5850Y5794D1*
X5865Y5808D1*
X5879Y5836D1*
Y5865D1*
X5865Y5894D1*
X5850Y5908D1*
X5807Y5923D1*
X5678D1*
Y5621D1*
X5779Y5779D2*
X5879Y5621D1*
X5972Y5865D2*
X6001Y5880D1*
X6044Y5922D1*
Y5621D1*
X6323Y5822D2*
X6308Y5779D1*
X6280Y5750D1*
X6237Y5736D1*
X6223D1*
X6179Y5750D1*
X6151Y5779D1*
X6136Y5822D1*
Y5836D1*
X6151Y5880D1*
X6179Y5908D1*
X6223Y5922D1*
X6237D1*
X6280Y5908D1*
X6308Y5880D1*
X6323Y5822D1*
Y5750D1*
X6308Y5679D1*
X6280Y5635D1*
X6237Y5621D1*
X6208D1*
X6165Y5635D1*
X6151Y5664D1*
X8919Y5779D2*
X9048D1*
X9092Y5794D1*
X9106Y5808D1*
X9120Y5836D1*
Y5865D1*
X9106Y5894D1*
X9092Y5908D1*
X9048Y5923D1*
X8919D1*
Y5621D1*
X9020Y5779D2*
X9120Y5621D1*
X9228Y5851D2*
Y5865D1*
X9242Y5894D1*
X9256Y5908D1*
X9285Y5922D1*
X9342D1*
X9371Y5908D1*
X9385Y5894D1*
X9400Y5865D1*
Y5836D1*
X9385Y5808D1*
X9357Y5765D1*
X9213Y5621D1*
X9414D1*
X9593Y5922D2*
X9550Y5908D1*
X9521Y5865D1*
X9507Y5793D1*
Y5750D1*
X9521Y5679D1*
X9550Y5635D1*
X9593Y5621D1*
X9621D1*
X9664Y5635D1*
X9693Y5679D1*
X9708Y5750D1*
Y5793D1*
X9693Y5865D1*
X9664Y5908D1*
X9621Y5922D1*
X9593D1*
X9693Y5865D2*
X9521Y5679D1*
X7734Y5779D2*
X7863D1*
X7906Y5794D1*
X7920Y5808D1*
X7935Y5836D1*
Y5865D1*
X7920Y5894D1*
X7906Y5908D1*
X7863Y5923D1*
X7734D1*
Y5621D1*
X7834Y5779D2*
X7935Y5621D1*
X8042Y5851D2*
Y5865D1*
X8056Y5894D1*
X8070Y5908D1*
X8099Y5922D1*
X8157D1*
X8185Y5908D1*
X8199Y5894D1*
X8214Y5865D1*
Y5836D1*
X8199Y5808D1*
X8171Y5765D1*
X8027Y5621D1*
X8228D1*
X8321Y5865D2*
X8350Y5880D1*
X8393Y5922D1*
Y5621D1*
X9544Y4216D2*
X9673D1*
X9717Y4231D1*
X9731Y4245D1*
X9745Y4274D1*
Y4303D1*
X9731Y4331D1*
X9717Y4346D1*
X9673Y4360D1*
X9544D1*
Y4059D1*
X9645Y4216D2*
X9745Y4059D1*
X9853Y4288D2*
Y4302D1*
X9867Y4331D1*
X9881Y4345D1*
X9910Y4360D1*
X9967D1*
X9996Y4345D1*
X10010Y4331D1*
X10025Y4302D1*
Y4274D1*
X10010Y4245D1*
X9982Y4202D1*
X9838Y4059D1*
X10039D1*
X10146Y4288D2*
Y4302D1*
X10161Y4331D1*
X10175Y4345D1*
X10204Y4360D1*
X10261D1*
X10290Y4345D1*
X10304Y4331D1*
X10318Y4302D1*
Y4274D1*
X10304Y4245D1*
X10275Y4202D1*
X10132Y4059D1*
X10333D1*
X12420Y1466D2*
X12549D1*
X12592Y1481D1*
X12606Y1495D1*
X12621Y1523D1*
Y1552D1*
X12606Y1581D1*
X12592Y1595D1*
X12549Y1610D1*
X12420D1*
Y1308D1*
X12520Y1466D2*
X12621Y1308D1*
X12728Y1538D2*
Y1552D1*
X12742Y1581D1*
X12756Y1595D1*
X12785Y1609D1*
X12843D1*
X12871Y1595D1*
X12885Y1581D1*
X12900Y1552D1*
Y1523D1*
X12885Y1495D1*
X12857Y1452D1*
X12713Y1308D1*
X12914D1*
X13036Y1609D2*
X13193D1*
X13107Y1495D1*
X13151D1*
X13179Y1480D1*
X13193Y1466D1*
X13208Y1423D1*
Y1394D1*
X13193Y1351D1*
X13165Y1323D1*
X13122Y1308D1*
X13079D1*
X13036Y1323D1*
X13022Y1337D1*
X13007Y1366D1*
X10350Y4904D2*
X10479D1*
X10522Y4919D1*
X10537Y4933D1*
X10551Y4961D1*
Y4990D1*
X10537Y5019D1*
X10522Y5033D1*
X10479Y5048D1*
X10350D1*
Y4746D1*
X10450Y4904D2*
X10551Y4746D1*
X10658Y4976D2*
Y4990D1*
X10672Y5019D1*
X10687Y5033D1*
X10715Y5047D1*
X10773D1*
X10801Y5033D1*
X10816Y5019D1*
X10830Y4990D1*
Y4961D1*
X10816Y4932D1*
X10787Y4890D1*
X10644Y4746D1*
X10844D1*
X11081D2*
Y5047D1*
X10937Y4847D1*
X11152D1*
X12420Y2279D2*
X12549D1*
X12592Y2293D1*
X12606Y2308D1*
X12621Y2336D1*
Y2365D1*
X12606Y2393D1*
X12592Y2408D1*
X12549Y2422D1*
X12420D1*
Y2121D1*
X12520Y2279D2*
X12621Y2121D1*
X12728Y2350D2*
Y2365D1*
X12742Y2393D1*
X12756Y2408D1*
X12785Y2422D1*
X12843D1*
X12871Y2408D1*
X12885Y2393D1*
X12900Y2365D1*
Y2336D1*
X12885Y2307D1*
X12857Y2264D1*
X12713Y2121D1*
X12914D1*
X13179Y2422D2*
X13036D1*
X13022Y2293D1*
X13036Y2307D1*
X13079Y2322D1*
X13122D1*
X13165Y2307D1*
X13194Y2279D1*
X13208Y2236D1*
Y2207D1*
X13194Y2164D1*
X13165Y2135D1*
X13122Y2121D1*
X13079D1*
X13036Y2135D1*
X13022Y2150D1*
X13007Y2178D1*
X2966Y23558D2*
X3095D1*
X3139Y23572D1*
X3153Y23586D1*
X3167Y23615D1*
Y23644D1*
X3153Y23672D1*
X3139Y23687D1*
X3095Y23701D1*
X2966D1*
Y23400D1*
X3067Y23558D2*
X3167Y23400D1*
X3275Y23629D2*
Y23643D1*
X3289Y23672D1*
X3303Y23687D1*
X3332Y23701D1*
X3389D1*
X3418Y23687D1*
X3432Y23672D1*
X3447Y23643D1*
Y23615D1*
X3432Y23586D1*
X3404Y23543D1*
X3260Y23400D1*
X3461D1*
X3726Y23658D2*
X3712Y23687D1*
X3668Y23701D1*
X3640D1*
X3597Y23687D1*
X3568Y23643D1*
X3554Y23572D1*
Y23500D1*
X3568Y23443D1*
X3597Y23414D1*
X3640Y23400D1*
X3654D1*
X3697Y23414D1*
X3726Y23443D1*
X3740Y23486D1*
Y23500D1*
X3726Y23543D1*
X3697Y23572D1*
X3654Y23586D1*
X3640D1*
X3597Y23572D1*
X3568Y23543D1*
X3554Y23500D1*
X1980Y24781D2*
X2109D1*
X2152Y24796D1*
X2167Y24810D1*
X2181Y24838D1*
Y24867D1*
X2167Y24896D1*
X2152Y24910D1*
X2109Y24925D1*
X1980D1*
Y24623D1*
X2081Y24781D2*
X2181Y24623D1*
X2288Y24853D2*
Y24867D1*
X2303Y24896D1*
X2317Y24910D1*
X2346Y24924D1*
X2403D1*
X2432Y24910D1*
X2446Y24896D1*
X2460Y24867D1*
Y24838D1*
X2446Y24810D1*
X2417Y24767D1*
X2274Y24623D1*
X2475D1*
X2625D2*
X2768Y24924D1*
X2567D1*
X9432Y26511D2*
X9404Y26540D1*
X9361Y26554D1*
X9303D1*
X9260Y26540D1*
X9232Y26511D1*
Y26483D1*
X9246Y26454D1*
X9260Y26439D1*
X9289Y26425D1*
X9375Y26396D1*
X9404Y26382D1*
X9418Y26367D1*
X9432Y26339D1*
Y26296D1*
X9404Y26267D1*
X9361Y26253D1*
X9303D1*
X9260Y26267D1*
X9232Y26296D1*
X9525Y26554D2*
X9597Y26253D1*
X9669Y26554D1*
X9740Y26253D1*
X9812Y26554D1*
X9905D2*
Y26253D1*
X10005D1*
X10049Y26267D1*
X10077Y26296D1*
X10092Y26325D1*
X10106Y26367D1*
Y26439D1*
X10092Y26483D1*
X10077Y26511D1*
X10049Y26540D1*
X10005Y26554D1*
X9905D1*
X10199Y26496D2*
X10227Y26511D1*
X10270Y26554D1*
Y26253D1*
X4255Y25989D2*
Y25773D1*
X4269Y25730D1*
X4298Y25702D1*
X4341Y25687D1*
X4370D1*
X4413Y25702D1*
X4442Y25730D1*
X4456Y25773D1*
Y25989D1*
X4549Y25931D2*
X4578Y25946D1*
X4621Y25988D1*
Y25687D1*
X6990Y25787D2*
Y25572D1*
X7004Y25529D1*
X7033Y25500D1*
X7076Y25486D1*
X7105D1*
X7148Y25500D1*
X7177Y25529D1*
X7191Y25572D1*
Y25787D1*
X7298Y25715D2*
Y25729D1*
X7313Y25758D1*
X7327Y25772D1*
X7356Y25787D1*
X7413D1*
X7442Y25772D1*
X7456Y25758D1*
X7470Y25729D1*
Y25701D1*
X7456Y25672D1*
X7427Y25629D1*
X7284Y25486D1*
X7485D1*
X11316Y15687D2*
Y15472D1*
X11331Y15429D1*
X11360Y15400D1*
X11403Y15386D1*
X11431D1*
X11474Y15400D1*
X11503Y15429D1*
X11517Y15472D1*
Y15687D1*
X11639D2*
X11796D1*
X11711Y15572D1*
X11754D1*
X11782Y15558D1*
X11796Y15544D1*
X11811Y15501D1*
Y15472D1*
X11796Y15429D1*
X11768Y15400D1*
X11725Y15386D1*
X11682D1*
X11639Y15400D1*
X11625Y15415D1*
X11610Y15443D1*
X7284Y9336D2*
Y9121D1*
X7298Y9078D1*
X7327Y9049D1*
X7370Y9035D1*
X7399D1*
X7442Y9049D1*
X7471Y9078D1*
X7485Y9121D1*
Y9336D1*
X7721Y9035D2*
Y9336D1*
X7578Y9135D1*
X7793D1*
X3191Y5049D2*
Y4834D1*
X3205Y4791D1*
X3234Y4762D1*
X3277Y4748D1*
X3305D1*
X3348Y4762D1*
X3377Y4791D1*
X3392Y4834D1*
Y5049D1*
X3656D2*
X3513D1*
X3499Y4920D1*
X3513Y4934D1*
X3556Y4949D1*
X3599D1*
X3642Y4934D1*
X3671Y4905D1*
X3685Y4862D1*
Y4834D1*
X3671Y4791D1*
X3642Y4762D1*
X3599Y4748D1*
X3556D1*
X3513Y4762D1*
X3499Y4776D1*
X3484Y4805D1*
X10239Y11552D2*
Y11337D1*
X10254Y11294D1*
X10283Y11265D1*
X10326Y11251D1*
X10354D1*
X10397Y11265D1*
X10426Y11294D1*
X10440Y11337D1*
Y11552D1*
X10705Y11509D2*
X10691Y11537D1*
X10648Y11552D1*
X10619D1*
X10576Y11537D1*
X10547Y11494D1*
X10533Y11423D1*
Y11351D1*
X10547Y11294D1*
X10576Y11265D1*
X10619Y11251D1*
X10634D1*
X10676Y11265D1*
X10705Y11294D1*
X10719Y11337D1*
Y11351D1*
X10705Y11394D1*
X10676Y11423D1*
X10634Y11437D1*
X10619D1*
X10576Y11423D1*
X10547Y11394D1*
X10533Y11351D1*
X7441Y1986D2*
Y1771D1*
X7455Y1728D1*
X7484Y1699D1*
X7527Y1685D1*
X7556D1*
X7599Y1699D1*
X7628Y1728D1*
X7642Y1771D1*
Y1986D1*
X7792Y1685D2*
X7936Y1986D1*
X7735D1*
X4032Y22173D2*
X4147Y22030D1*
Y21872D1*
X4262Y22173D2*
X4147Y22030D1*
X4354Y22115D2*
X4383Y22130D1*
X4426Y22173D1*
Y21872D1*
M02*
