G04 DipTrace 2.4.0.2*
%INcodec_rev2.GBS*%
%MOIN*%
%ADD30R,0.0638X0.0638*%
%ADD31C,0.0638*%
%ADD32R,0.0669X0.0669*%
%ADD33C,0.0669*%
%ADD38R,0.0394X0.0236*%
%ADD39C,0.05*%
%ADD40C,0.05*%
%ADD45C,0.042*%
%ADD52C,0.0866*%
%ADD53C,0.0354*%
%FSLAX44Y44*%
G04*
G70*
G90*
G75*
G01*
%LNBotMask*%
%LPD*%
D52*
X7874Y28740D3*
D30*
X500Y19502D3*
D31*
Y18502D3*
Y17502D3*
D30*
Y26000D3*
D31*
Y25000D3*
Y24000D3*
Y23000D3*
Y22000D3*
Y21000D3*
D30*
Y31500D3*
D31*
Y30500D3*
Y29500D3*
D32*
X3500Y30066D3*
D33*
X4500D3*
X3500Y31066D3*
X4500D3*
X3500Y32066D3*
X4500D3*
X3500Y33066D3*
X4500D3*
X3500Y34066D3*
X4500D3*
X3500Y35066D3*
X4500D3*
X3500Y36066D3*
X4500D3*
X3500Y37066D3*
X4500D3*
D53*
X11197Y33857D3*
Y37006D3*
D38*
X9689Y22377D3*
Y22692D3*
D30*
X500Y16500D3*
D31*
Y15500D3*
Y14500D3*
Y13500D3*
Y12500D3*
Y11500D3*
Y10500D3*
Y9500D3*
Y8500D3*
Y7500D3*
Y6500D3*
Y5500D3*
D30*
X1501Y500D3*
D31*
X2501D3*
X3501D3*
X4501D3*
X5501D3*
X6501D3*
X7501D3*
X8501D3*
X9501D3*
X10501D3*
X11501D3*
X12501D3*
D39*
X1375Y38379D3*
D40*
Y35379D3*
D39*
X1750Y30941D3*
D40*
Y33941D3*
D45*
X10189Y24753D3*
X10689D3*
X10189Y24253D3*
X10689D3*
X10189Y23753D3*
X10689D3*
X10189Y23253D3*
X10689D3*
X10189Y22753D3*
X10689D3*
M02*
