G04 EAGLE Gerber RS-274X export*
G75*
%MOMM*%
%FSLAX34Y34*%
%LPD*%
%INFrontpanel*%
%IPPOS*%
%AMOC8*
5,1,8,0,0,1.08239X$1,22.5*%
G01*
%ADD10C,0.025400*%
%ADD11C,0.002541*%
%ADD12C,0.000000*%
%ADD13C,0.127000*%
%ADD14C,0.010000*%


D10*
X15000Y430000D02*
X15012Y430982D01*
X15048Y431963D01*
X15108Y432943D01*
X15193Y433921D01*
X15301Y434896D01*
X15433Y435869D01*
X15589Y436838D01*
X15769Y437804D01*
X15972Y438764D01*
X16199Y439719D01*
X16449Y440669D01*
X16722Y441611D01*
X17019Y442547D01*
X17338Y443476D01*
X17680Y444396D01*
X18045Y445307D01*
X18432Y446210D01*
X18840Y447102D01*
X19271Y447984D01*
X19723Y448856D01*
X20197Y449716D01*
X20691Y450564D01*
X21206Y451400D01*
X21741Y452223D01*
X22297Y453032D01*
X22872Y453828D01*
X23466Y454609D01*
X24080Y455376D01*
X24712Y456127D01*
X25362Y456862D01*
X26030Y457582D01*
X26716Y458284D01*
X27418Y458970D01*
X28138Y459638D01*
X28873Y460288D01*
X29624Y460920D01*
X30391Y461534D01*
X31172Y462128D01*
X31968Y462703D01*
X32777Y463259D01*
X33600Y463794D01*
X34436Y464309D01*
X35284Y464803D01*
X36144Y465277D01*
X37016Y465729D01*
X37898Y466160D01*
X38790Y466568D01*
X39693Y466955D01*
X40604Y467320D01*
X41524Y467662D01*
X42453Y467981D01*
X43389Y468278D01*
X44331Y468551D01*
X45281Y468801D01*
X46236Y469028D01*
X47196Y469231D01*
X48162Y469411D01*
X49131Y469567D01*
X50104Y469699D01*
X51079Y469807D01*
X52057Y469892D01*
X53037Y469952D01*
X54018Y469988D01*
X55000Y470000D01*
X55982Y469988D01*
X56963Y469952D01*
X57943Y469892D01*
X58921Y469807D01*
X59896Y469699D01*
X60869Y469567D01*
X61838Y469411D01*
X62804Y469231D01*
X63764Y469028D01*
X64719Y468801D01*
X65669Y468551D01*
X66611Y468278D01*
X67547Y467981D01*
X68476Y467662D01*
X69396Y467320D01*
X70307Y466955D01*
X71210Y466568D01*
X72102Y466160D01*
X72984Y465729D01*
X73856Y465277D01*
X74716Y464803D01*
X75564Y464309D01*
X76400Y463794D01*
X77223Y463259D01*
X78032Y462703D01*
X78828Y462128D01*
X79609Y461534D01*
X80376Y460920D01*
X81127Y460288D01*
X81862Y459638D01*
X82582Y458970D01*
X83284Y458284D01*
X83970Y457582D01*
X84638Y456862D01*
X85288Y456127D01*
X85920Y455376D01*
X86534Y454609D01*
X87128Y453828D01*
X87703Y453032D01*
X88259Y452223D01*
X88794Y451400D01*
X89309Y450564D01*
X89803Y449716D01*
X90277Y448856D01*
X90729Y447984D01*
X91160Y447102D01*
X91568Y446210D01*
X91955Y445307D01*
X92320Y444396D01*
X92662Y443476D01*
X92981Y442547D01*
X93278Y441611D01*
X93551Y440669D01*
X93801Y439719D01*
X94028Y438764D01*
X94231Y437804D01*
X94411Y436838D01*
X94567Y435869D01*
X94699Y434896D01*
X94807Y433921D01*
X94892Y432943D01*
X94952Y431963D01*
X94988Y430982D01*
X95000Y430000D01*
X94988Y429018D01*
X94952Y428037D01*
X94892Y427057D01*
X94807Y426079D01*
X94699Y425104D01*
X94567Y424131D01*
X94411Y423162D01*
X94231Y422196D01*
X94028Y421236D01*
X93801Y420281D01*
X93551Y419331D01*
X93278Y418389D01*
X92981Y417453D01*
X92662Y416524D01*
X92320Y415604D01*
X91955Y414693D01*
X91568Y413790D01*
X91160Y412898D01*
X90729Y412016D01*
X90277Y411144D01*
X89803Y410284D01*
X89309Y409436D01*
X88794Y408600D01*
X88259Y407777D01*
X87703Y406968D01*
X87128Y406172D01*
X86534Y405391D01*
X85920Y404624D01*
X85288Y403873D01*
X84638Y403138D01*
X83970Y402418D01*
X83284Y401716D01*
X82582Y401030D01*
X81862Y400362D01*
X81127Y399712D01*
X80376Y399080D01*
X79609Y398466D01*
X78828Y397872D01*
X78032Y397297D01*
X77223Y396741D01*
X76400Y396206D01*
X75564Y395691D01*
X74716Y395197D01*
X73856Y394723D01*
X72984Y394271D01*
X72102Y393840D01*
X71210Y393432D01*
X70307Y393045D01*
X69396Y392680D01*
X68476Y392338D01*
X67547Y392019D01*
X66611Y391722D01*
X65669Y391449D01*
X64719Y391199D01*
X63764Y390972D01*
X62804Y390769D01*
X61838Y390589D01*
X60869Y390433D01*
X59896Y390301D01*
X58921Y390193D01*
X57943Y390108D01*
X56963Y390048D01*
X55982Y390012D01*
X55000Y390000D01*
X54018Y390012D01*
X53037Y390048D01*
X52057Y390108D01*
X51079Y390193D01*
X50104Y390301D01*
X49131Y390433D01*
X48162Y390589D01*
X47196Y390769D01*
X46236Y390972D01*
X45281Y391199D01*
X44331Y391449D01*
X43389Y391722D01*
X42453Y392019D01*
X41524Y392338D01*
X40604Y392680D01*
X39693Y393045D01*
X38790Y393432D01*
X37898Y393840D01*
X37016Y394271D01*
X36144Y394723D01*
X35284Y395197D01*
X34436Y395691D01*
X33600Y396206D01*
X32777Y396741D01*
X31968Y397297D01*
X31172Y397872D01*
X30391Y398466D01*
X29624Y399080D01*
X28873Y399712D01*
X28138Y400362D01*
X27418Y401030D01*
X26716Y401716D01*
X26030Y402418D01*
X25362Y403138D01*
X24712Y403873D01*
X24080Y404624D01*
X23466Y405391D01*
X22872Y406172D01*
X22297Y406968D01*
X21741Y407777D01*
X21206Y408600D01*
X20691Y409436D01*
X20197Y410284D01*
X19723Y411144D01*
X19271Y412016D01*
X18840Y412898D01*
X18432Y413790D01*
X18045Y414693D01*
X17680Y415604D01*
X17338Y416524D01*
X17019Y417453D01*
X16722Y418389D01*
X16449Y419331D01*
X16199Y420281D01*
X15972Y421236D01*
X15769Y422196D01*
X15589Y423162D01*
X15433Y424131D01*
X15301Y425104D01*
X15193Y426079D01*
X15108Y427057D01*
X15048Y428037D01*
X15012Y429018D01*
X15000Y430000D01*
X15000Y305000D02*
X15012Y305982D01*
X15048Y306963D01*
X15108Y307943D01*
X15193Y308921D01*
X15301Y309896D01*
X15433Y310869D01*
X15589Y311838D01*
X15769Y312804D01*
X15972Y313764D01*
X16199Y314719D01*
X16449Y315669D01*
X16722Y316611D01*
X17019Y317547D01*
X17338Y318476D01*
X17680Y319396D01*
X18045Y320307D01*
X18432Y321210D01*
X18840Y322102D01*
X19271Y322984D01*
X19723Y323856D01*
X20197Y324716D01*
X20691Y325564D01*
X21206Y326400D01*
X21741Y327223D01*
X22297Y328032D01*
X22872Y328828D01*
X23466Y329609D01*
X24080Y330376D01*
X24712Y331127D01*
X25362Y331862D01*
X26030Y332582D01*
X26716Y333284D01*
X27418Y333970D01*
X28138Y334638D01*
X28873Y335288D01*
X29624Y335920D01*
X30391Y336534D01*
X31172Y337128D01*
X31968Y337703D01*
X32777Y338259D01*
X33600Y338794D01*
X34436Y339309D01*
X35284Y339803D01*
X36144Y340277D01*
X37016Y340729D01*
X37898Y341160D01*
X38790Y341568D01*
X39693Y341955D01*
X40604Y342320D01*
X41524Y342662D01*
X42453Y342981D01*
X43389Y343278D01*
X44331Y343551D01*
X45281Y343801D01*
X46236Y344028D01*
X47196Y344231D01*
X48162Y344411D01*
X49131Y344567D01*
X50104Y344699D01*
X51079Y344807D01*
X52057Y344892D01*
X53037Y344952D01*
X54018Y344988D01*
X55000Y345000D01*
X55982Y344988D01*
X56963Y344952D01*
X57943Y344892D01*
X58921Y344807D01*
X59896Y344699D01*
X60869Y344567D01*
X61838Y344411D01*
X62804Y344231D01*
X63764Y344028D01*
X64719Y343801D01*
X65669Y343551D01*
X66611Y343278D01*
X67547Y342981D01*
X68476Y342662D01*
X69396Y342320D01*
X70307Y341955D01*
X71210Y341568D01*
X72102Y341160D01*
X72984Y340729D01*
X73856Y340277D01*
X74716Y339803D01*
X75564Y339309D01*
X76400Y338794D01*
X77223Y338259D01*
X78032Y337703D01*
X78828Y337128D01*
X79609Y336534D01*
X80376Y335920D01*
X81127Y335288D01*
X81862Y334638D01*
X82582Y333970D01*
X83284Y333284D01*
X83970Y332582D01*
X84638Y331862D01*
X85288Y331127D01*
X85920Y330376D01*
X86534Y329609D01*
X87128Y328828D01*
X87703Y328032D01*
X88259Y327223D01*
X88794Y326400D01*
X89309Y325564D01*
X89803Y324716D01*
X90277Y323856D01*
X90729Y322984D01*
X91160Y322102D01*
X91568Y321210D01*
X91955Y320307D01*
X92320Y319396D01*
X92662Y318476D01*
X92981Y317547D01*
X93278Y316611D01*
X93551Y315669D01*
X93801Y314719D01*
X94028Y313764D01*
X94231Y312804D01*
X94411Y311838D01*
X94567Y310869D01*
X94699Y309896D01*
X94807Y308921D01*
X94892Y307943D01*
X94952Y306963D01*
X94988Y305982D01*
X95000Y305000D01*
X94988Y304018D01*
X94952Y303037D01*
X94892Y302057D01*
X94807Y301079D01*
X94699Y300104D01*
X94567Y299131D01*
X94411Y298162D01*
X94231Y297196D01*
X94028Y296236D01*
X93801Y295281D01*
X93551Y294331D01*
X93278Y293389D01*
X92981Y292453D01*
X92662Y291524D01*
X92320Y290604D01*
X91955Y289693D01*
X91568Y288790D01*
X91160Y287898D01*
X90729Y287016D01*
X90277Y286144D01*
X89803Y285284D01*
X89309Y284436D01*
X88794Y283600D01*
X88259Y282777D01*
X87703Y281968D01*
X87128Y281172D01*
X86534Y280391D01*
X85920Y279624D01*
X85288Y278873D01*
X84638Y278138D01*
X83970Y277418D01*
X83284Y276716D01*
X82582Y276030D01*
X81862Y275362D01*
X81127Y274712D01*
X80376Y274080D01*
X79609Y273466D01*
X78828Y272872D01*
X78032Y272297D01*
X77223Y271741D01*
X76400Y271206D01*
X75564Y270691D01*
X74716Y270197D01*
X73856Y269723D01*
X72984Y269271D01*
X72102Y268840D01*
X71210Y268432D01*
X70307Y268045D01*
X69396Y267680D01*
X68476Y267338D01*
X67547Y267019D01*
X66611Y266722D01*
X65669Y266449D01*
X64719Y266199D01*
X63764Y265972D01*
X62804Y265769D01*
X61838Y265589D01*
X60869Y265433D01*
X59896Y265301D01*
X58921Y265193D01*
X57943Y265108D01*
X56963Y265048D01*
X55982Y265012D01*
X55000Y265000D01*
X54018Y265012D01*
X53037Y265048D01*
X52057Y265108D01*
X51079Y265193D01*
X50104Y265301D01*
X49131Y265433D01*
X48162Y265589D01*
X47196Y265769D01*
X46236Y265972D01*
X45281Y266199D01*
X44331Y266449D01*
X43389Y266722D01*
X42453Y267019D01*
X41524Y267338D01*
X40604Y267680D01*
X39693Y268045D01*
X38790Y268432D01*
X37898Y268840D01*
X37016Y269271D01*
X36144Y269723D01*
X35284Y270197D01*
X34436Y270691D01*
X33600Y271206D01*
X32777Y271741D01*
X31968Y272297D01*
X31172Y272872D01*
X30391Y273466D01*
X29624Y274080D01*
X28873Y274712D01*
X28138Y275362D01*
X27418Y276030D01*
X26716Y276716D01*
X26030Y277418D01*
X25362Y278138D01*
X24712Y278873D01*
X24080Y279624D01*
X23466Y280391D01*
X22872Y281172D01*
X22297Y281968D01*
X21741Y282777D01*
X21206Y283600D01*
X20691Y284436D01*
X20197Y285284D01*
X19723Y286144D01*
X19271Y287016D01*
X18840Y287898D01*
X18432Y288790D01*
X18045Y289693D01*
X17680Y290604D01*
X17338Y291524D01*
X17019Y292453D01*
X16722Y293389D01*
X16449Y294331D01*
X16199Y295281D01*
X15972Y296236D01*
X15769Y297196D01*
X15589Y298162D01*
X15433Y299131D01*
X15301Y300104D01*
X15193Y301079D01*
X15108Y302057D01*
X15048Y303037D01*
X15012Y304018D01*
X15000Y305000D01*
X15000Y180000D02*
X15012Y180982D01*
X15048Y181963D01*
X15108Y182943D01*
X15193Y183921D01*
X15301Y184896D01*
X15433Y185869D01*
X15589Y186838D01*
X15769Y187804D01*
X15972Y188764D01*
X16199Y189719D01*
X16449Y190669D01*
X16722Y191611D01*
X17019Y192547D01*
X17338Y193476D01*
X17680Y194396D01*
X18045Y195307D01*
X18432Y196210D01*
X18840Y197102D01*
X19271Y197984D01*
X19723Y198856D01*
X20197Y199716D01*
X20691Y200564D01*
X21206Y201400D01*
X21741Y202223D01*
X22297Y203032D01*
X22872Y203828D01*
X23466Y204609D01*
X24080Y205376D01*
X24712Y206127D01*
X25362Y206862D01*
X26030Y207582D01*
X26716Y208284D01*
X27418Y208970D01*
X28138Y209638D01*
X28873Y210288D01*
X29624Y210920D01*
X30391Y211534D01*
X31172Y212128D01*
X31968Y212703D01*
X32777Y213259D01*
X33600Y213794D01*
X34436Y214309D01*
X35284Y214803D01*
X36144Y215277D01*
X37016Y215729D01*
X37898Y216160D01*
X38790Y216568D01*
X39693Y216955D01*
X40604Y217320D01*
X41524Y217662D01*
X42453Y217981D01*
X43389Y218278D01*
X44331Y218551D01*
X45281Y218801D01*
X46236Y219028D01*
X47196Y219231D01*
X48162Y219411D01*
X49131Y219567D01*
X50104Y219699D01*
X51079Y219807D01*
X52057Y219892D01*
X53037Y219952D01*
X54018Y219988D01*
X55000Y220000D01*
X55982Y219988D01*
X56963Y219952D01*
X57943Y219892D01*
X58921Y219807D01*
X59896Y219699D01*
X60869Y219567D01*
X61838Y219411D01*
X62804Y219231D01*
X63764Y219028D01*
X64719Y218801D01*
X65669Y218551D01*
X66611Y218278D01*
X67547Y217981D01*
X68476Y217662D01*
X69396Y217320D01*
X70307Y216955D01*
X71210Y216568D01*
X72102Y216160D01*
X72984Y215729D01*
X73856Y215277D01*
X74716Y214803D01*
X75564Y214309D01*
X76400Y213794D01*
X77223Y213259D01*
X78032Y212703D01*
X78828Y212128D01*
X79609Y211534D01*
X80376Y210920D01*
X81127Y210288D01*
X81862Y209638D01*
X82582Y208970D01*
X83284Y208284D01*
X83970Y207582D01*
X84638Y206862D01*
X85288Y206127D01*
X85920Y205376D01*
X86534Y204609D01*
X87128Y203828D01*
X87703Y203032D01*
X88259Y202223D01*
X88794Y201400D01*
X89309Y200564D01*
X89803Y199716D01*
X90277Y198856D01*
X90729Y197984D01*
X91160Y197102D01*
X91568Y196210D01*
X91955Y195307D01*
X92320Y194396D01*
X92662Y193476D01*
X92981Y192547D01*
X93278Y191611D01*
X93551Y190669D01*
X93801Y189719D01*
X94028Y188764D01*
X94231Y187804D01*
X94411Y186838D01*
X94567Y185869D01*
X94699Y184896D01*
X94807Y183921D01*
X94892Y182943D01*
X94952Y181963D01*
X94988Y180982D01*
X95000Y180000D01*
X94988Y179018D01*
X94952Y178037D01*
X94892Y177057D01*
X94807Y176079D01*
X94699Y175104D01*
X94567Y174131D01*
X94411Y173162D01*
X94231Y172196D01*
X94028Y171236D01*
X93801Y170281D01*
X93551Y169331D01*
X93278Y168389D01*
X92981Y167453D01*
X92662Y166524D01*
X92320Y165604D01*
X91955Y164693D01*
X91568Y163790D01*
X91160Y162898D01*
X90729Y162016D01*
X90277Y161144D01*
X89803Y160284D01*
X89309Y159436D01*
X88794Y158600D01*
X88259Y157777D01*
X87703Y156968D01*
X87128Y156172D01*
X86534Y155391D01*
X85920Y154624D01*
X85288Y153873D01*
X84638Y153138D01*
X83970Y152418D01*
X83284Y151716D01*
X82582Y151030D01*
X81862Y150362D01*
X81127Y149712D01*
X80376Y149080D01*
X79609Y148466D01*
X78828Y147872D01*
X78032Y147297D01*
X77223Y146741D01*
X76400Y146206D01*
X75564Y145691D01*
X74716Y145197D01*
X73856Y144723D01*
X72984Y144271D01*
X72102Y143840D01*
X71210Y143432D01*
X70307Y143045D01*
X69396Y142680D01*
X68476Y142338D01*
X67547Y142019D01*
X66611Y141722D01*
X65669Y141449D01*
X64719Y141199D01*
X63764Y140972D01*
X62804Y140769D01*
X61838Y140589D01*
X60869Y140433D01*
X59896Y140301D01*
X58921Y140193D01*
X57943Y140108D01*
X56963Y140048D01*
X55982Y140012D01*
X55000Y140000D01*
X54018Y140012D01*
X53037Y140048D01*
X52057Y140108D01*
X51079Y140193D01*
X50104Y140301D01*
X49131Y140433D01*
X48162Y140589D01*
X47196Y140769D01*
X46236Y140972D01*
X45281Y141199D01*
X44331Y141449D01*
X43389Y141722D01*
X42453Y142019D01*
X41524Y142338D01*
X40604Y142680D01*
X39693Y143045D01*
X38790Y143432D01*
X37898Y143840D01*
X37016Y144271D01*
X36144Y144723D01*
X35284Y145197D01*
X34436Y145691D01*
X33600Y146206D01*
X32777Y146741D01*
X31968Y147297D01*
X31172Y147872D01*
X30391Y148466D01*
X29624Y149080D01*
X28873Y149712D01*
X28138Y150362D01*
X27418Y151030D01*
X26716Y151716D01*
X26030Y152418D01*
X25362Y153138D01*
X24712Y153873D01*
X24080Y154624D01*
X23466Y155391D01*
X22872Y156172D01*
X22297Y156968D01*
X21741Y157777D01*
X21206Y158600D01*
X20691Y159436D01*
X20197Y160284D01*
X19723Y161144D01*
X19271Y162016D01*
X18840Y162898D01*
X18432Y163790D01*
X18045Y164693D01*
X17680Y165604D01*
X17338Y166524D01*
X17019Y167453D01*
X16722Y168389D01*
X16449Y169331D01*
X16199Y170281D01*
X15972Y171236D01*
X15769Y172196D01*
X15589Y173162D01*
X15433Y174131D01*
X15301Y175104D01*
X15193Y176079D01*
X15108Y177057D01*
X15048Y178037D01*
X15012Y179018D01*
X15000Y180000D01*
X15000Y55000D02*
X15012Y55982D01*
X15048Y56963D01*
X15108Y57943D01*
X15193Y58921D01*
X15301Y59896D01*
X15433Y60869D01*
X15589Y61838D01*
X15769Y62804D01*
X15972Y63764D01*
X16199Y64719D01*
X16449Y65669D01*
X16722Y66611D01*
X17019Y67547D01*
X17338Y68476D01*
X17680Y69396D01*
X18045Y70307D01*
X18432Y71210D01*
X18840Y72102D01*
X19271Y72984D01*
X19723Y73856D01*
X20197Y74716D01*
X20691Y75564D01*
X21206Y76400D01*
X21741Y77223D01*
X22297Y78032D01*
X22872Y78828D01*
X23466Y79609D01*
X24080Y80376D01*
X24712Y81127D01*
X25362Y81862D01*
X26030Y82582D01*
X26716Y83284D01*
X27418Y83970D01*
X28138Y84638D01*
X28873Y85288D01*
X29624Y85920D01*
X30391Y86534D01*
X31172Y87128D01*
X31968Y87703D01*
X32777Y88259D01*
X33600Y88794D01*
X34436Y89309D01*
X35284Y89803D01*
X36144Y90277D01*
X37016Y90729D01*
X37898Y91160D01*
X38790Y91568D01*
X39693Y91955D01*
X40604Y92320D01*
X41524Y92662D01*
X42453Y92981D01*
X43389Y93278D01*
X44331Y93551D01*
X45281Y93801D01*
X46236Y94028D01*
X47196Y94231D01*
X48162Y94411D01*
X49131Y94567D01*
X50104Y94699D01*
X51079Y94807D01*
X52057Y94892D01*
X53037Y94952D01*
X54018Y94988D01*
X55000Y95000D01*
X55982Y94988D01*
X56963Y94952D01*
X57943Y94892D01*
X58921Y94807D01*
X59896Y94699D01*
X60869Y94567D01*
X61838Y94411D01*
X62804Y94231D01*
X63764Y94028D01*
X64719Y93801D01*
X65669Y93551D01*
X66611Y93278D01*
X67547Y92981D01*
X68476Y92662D01*
X69396Y92320D01*
X70307Y91955D01*
X71210Y91568D01*
X72102Y91160D01*
X72984Y90729D01*
X73856Y90277D01*
X74716Y89803D01*
X75564Y89309D01*
X76400Y88794D01*
X77223Y88259D01*
X78032Y87703D01*
X78828Y87128D01*
X79609Y86534D01*
X80376Y85920D01*
X81127Y85288D01*
X81862Y84638D01*
X82582Y83970D01*
X83284Y83284D01*
X83970Y82582D01*
X84638Y81862D01*
X85288Y81127D01*
X85920Y80376D01*
X86534Y79609D01*
X87128Y78828D01*
X87703Y78032D01*
X88259Y77223D01*
X88794Y76400D01*
X89309Y75564D01*
X89803Y74716D01*
X90277Y73856D01*
X90729Y72984D01*
X91160Y72102D01*
X91568Y71210D01*
X91955Y70307D01*
X92320Y69396D01*
X92662Y68476D01*
X92981Y67547D01*
X93278Y66611D01*
X93551Y65669D01*
X93801Y64719D01*
X94028Y63764D01*
X94231Y62804D01*
X94411Y61838D01*
X94567Y60869D01*
X94699Y59896D01*
X94807Y58921D01*
X94892Y57943D01*
X94952Y56963D01*
X94988Y55982D01*
X95000Y55000D01*
X94988Y54018D01*
X94952Y53037D01*
X94892Y52057D01*
X94807Y51079D01*
X94699Y50104D01*
X94567Y49131D01*
X94411Y48162D01*
X94231Y47196D01*
X94028Y46236D01*
X93801Y45281D01*
X93551Y44331D01*
X93278Y43389D01*
X92981Y42453D01*
X92662Y41524D01*
X92320Y40604D01*
X91955Y39693D01*
X91568Y38790D01*
X91160Y37898D01*
X90729Y37016D01*
X90277Y36144D01*
X89803Y35284D01*
X89309Y34436D01*
X88794Y33600D01*
X88259Y32777D01*
X87703Y31968D01*
X87128Y31172D01*
X86534Y30391D01*
X85920Y29624D01*
X85288Y28873D01*
X84638Y28138D01*
X83970Y27418D01*
X83284Y26716D01*
X82582Y26030D01*
X81862Y25362D01*
X81127Y24712D01*
X80376Y24080D01*
X79609Y23466D01*
X78828Y22872D01*
X78032Y22297D01*
X77223Y21741D01*
X76400Y21206D01*
X75564Y20691D01*
X74716Y20197D01*
X73856Y19723D01*
X72984Y19271D01*
X72102Y18840D01*
X71210Y18432D01*
X70307Y18045D01*
X69396Y17680D01*
X68476Y17338D01*
X67547Y17019D01*
X66611Y16722D01*
X65669Y16449D01*
X64719Y16199D01*
X63764Y15972D01*
X62804Y15769D01*
X61838Y15589D01*
X60869Y15433D01*
X59896Y15301D01*
X58921Y15193D01*
X57943Y15108D01*
X56963Y15048D01*
X55982Y15012D01*
X55000Y15000D01*
X54018Y15012D01*
X53037Y15048D01*
X52057Y15108D01*
X51079Y15193D01*
X50104Y15301D01*
X49131Y15433D01*
X48162Y15589D01*
X47196Y15769D01*
X46236Y15972D01*
X45281Y16199D01*
X44331Y16449D01*
X43389Y16722D01*
X42453Y17019D01*
X41524Y17338D01*
X40604Y17680D01*
X39693Y18045D01*
X38790Y18432D01*
X37898Y18840D01*
X37016Y19271D01*
X36144Y19723D01*
X35284Y20197D01*
X34436Y20691D01*
X33600Y21206D01*
X32777Y21741D01*
X31968Y22297D01*
X31172Y22872D01*
X30391Y23466D01*
X29624Y24080D01*
X28873Y24712D01*
X28138Y25362D01*
X27418Y26030D01*
X26716Y26716D01*
X26030Y27418D01*
X25362Y28138D01*
X24712Y28873D01*
X24080Y29624D01*
X23466Y30391D01*
X22872Y31172D01*
X22297Y31968D01*
X21741Y32777D01*
X21206Y33600D01*
X20691Y34436D01*
X20197Y35284D01*
X19723Y36144D01*
X19271Y37016D01*
X18840Y37898D01*
X18432Y38790D01*
X18045Y39693D01*
X17680Y40604D01*
X17338Y41524D01*
X17019Y42453D01*
X16722Y43389D01*
X16449Y44331D01*
X16199Y45281D01*
X15972Y46236D01*
X15769Y47196D01*
X15589Y48162D01*
X15433Y49131D01*
X15301Y50104D01*
X15193Y51079D01*
X15108Y52057D01*
X15048Y53037D01*
X15012Y54018D01*
X15000Y55000D01*
X140000Y430000D02*
X140012Y430982D01*
X140048Y431963D01*
X140108Y432943D01*
X140193Y433921D01*
X140301Y434896D01*
X140433Y435869D01*
X140589Y436838D01*
X140769Y437804D01*
X140972Y438764D01*
X141199Y439719D01*
X141449Y440669D01*
X141722Y441611D01*
X142019Y442547D01*
X142338Y443476D01*
X142680Y444396D01*
X143045Y445307D01*
X143432Y446210D01*
X143840Y447102D01*
X144271Y447984D01*
X144723Y448856D01*
X145197Y449716D01*
X145691Y450564D01*
X146206Y451400D01*
X146741Y452223D01*
X147297Y453032D01*
X147872Y453828D01*
X148466Y454609D01*
X149080Y455376D01*
X149712Y456127D01*
X150362Y456862D01*
X151030Y457582D01*
X151716Y458284D01*
X152418Y458970D01*
X153138Y459638D01*
X153873Y460288D01*
X154624Y460920D01*
X155391Y461534D01*
X156172Y462128D01*
X156968Y462703D01*
X157777Y463259D01*
X158600Y463794D01*
X159436Y464309D01*
X160284Y464803D01*
X161144Y465277D01*
X162016Y465729D01*
X162898Y466160D01*
X163790Y466568D01*
X164693Y466955D01*
X165604Y467320D01*
X166524Y467662D01*
X167453Y467981D01*
X168389Y468278D01*
X169331Y468551D01*
X170281Y468801D01*
X171236Y469028D01*
X172196Y469231D01*
X173162Y469411D01*
X174131Y469567D01*
X175104Y469699D01*
X176079Y469807D01*
X177057Y469892D01*
X178037Y469952D01*
X179018Y469988D01*
X180000Y470000D01*
X180982Y469988D01*
X181963Y469952D01*
X182943Y469892D01*
X183921Y469807D01*
X184896Y469699D01*
X185869Y469567D01*
X186838Y469411D01*
X187804Y469231D01*
X188764Y469028D01*
X189719Y468801D01*
X190669Y468551D01*
X191611Y468278D01*
X192547Y467981D01*
X193476Y467662D01*
X194396Y467320D01*
X195307Y466955D01*
X196210Y466568D01*
X197102Y466160D01*
X197984Y465729D01*
X198856Y465277D01*
X199716Y464803D01*
X200564Y464309D01*
X201400Y463794D01*
X202223Y463259D01*
X203032Y462703D01*
X203828Y462128D01*
X204609Y461534D01*
X205376Y460920D01*
X206127Y460288D01*
X206862Y459638D01*
X207582Y458970D01*
X208284Y458284D01*
X208970Y457582D01*
X209638Y456862D01*
X210288Y456127D01*
X210920Y455376D01*
X211534Y454609D01*
X212128Y453828D01*
X212703Y453032D01*
X213259Y452223D01*
X213794Y451400D01*
X214309Y450564D01*
X214803Y449716D01*
X215277Y448856D01*
X215729Y447984D01*
X216160Y447102D01*
X216568Y446210D01*
X216955Y445307D01*
X217320Y444396D01*
X217662Y443476D01*
X217981Y442547D01*
X218278Y441611D01*
X218551Y440669D01*
X218801Y439719D01*
X219028Y438764D01*
X219231Y437804D01*
X219411Y436838D01*
X219567Y435869D01*
X219699Y434896D01*
X219807Y433921D01*
X219892Y432943D01*
X219952Y431963D01*
X219988Y430982D01*
X220000Y430000D01*
X219988Y429018D01*
X219952Y428037D01*
X219892Y427057D01*
X219807Y426079D01*
X219699Y425104D01*
X219567Y424131D01*
X219411Y423162D01*
X219231Y422196D01*
X219028Y421236D01*
X218801Y420281D01*
X218551Y419331D01*
X218278Y418389D01*
X217981Y417453D01*
X217662Y416524D01*
X217320Y415604D01*
X216955Y414693D01*
X216568Y413790D01*
X216160Y412898D01*
X215729Y412016D01*
X215277Y411144D01*
X214803Y410284D01*
X214309Y409436D01*
X213794Y408600D01*
X213259Y407777D01*
X212703Y406968D01*
X212128Y406172D01*
X211534Y405391D01*
X210920Y404624D01*
X210288Y403873D01*
X209638Y403138D01*
X208970Y402418D01*
X208284Y401716D01*
X207582Y401030D01*
X206862Y400362D01*
X206127Y399712D01*
X205376Y399080D01*
X204609Y398466D01*
X203828Y397872D01*
X203032Y397297D01*
X202223Y396741D01*
X201400Y396206D01*
X200564Y395691D01*
X199716Y395197D01*
X198856Y394723D01*
X197984Y394271D01*
X197102Y393840D01*
X196210Y393432D01*
X195307Y393045D01*
X194396Y392680D01*
X193476Y392338D01*
X192547Y392019D01*
X191611Y391722D01*
X190669Y391449D01*
X189719Y391199D01*
X188764Y390972D01*
X187804Y390769D01*
X186838Y390589D01*
X185869Y390433D01*
X184896Y390301D01*
X183921Y390193D01*
X182943Y390108D01*
X181963Y390048D01*
X180982Y390012D01*
X180000Y390000D01*
X179018Y390012D01*
X178037Y390048D01*
X177057Y390108D01*
X176079Y390193D01*
X175104Y390301D01*
X174131Y390433D01*
X173162Y390589D01*
X172196Y390769D01*
X171236Y390972D01*
X170281Y391199D01*
X169331Y391449D01*
X168389Y391722D01*
X167453Y392019D01*
X166524Y392338D01*
X165604Y392680D01*
X164693Y393045D01*
X163790Y393432D01*
X162898Y393840D01*
X162016Y394271D01*
X161144Y394723D01*
X160284Y395197D01*
X159436Y395691D01*
X158600Y396206D01*
X157777Y396741D01*
X156968Y397297D01*
X156172Y397872D01*
X155391Y398466D01*
X154624Y399080D01*
X153873Y399712D01*
X153138Y400362D01*
X152418Y401030D01*
X151716Y401716D01*
X151030Y402418D01*
X150362Y403138D01*
X149712Y403873D01*
X149080Y404624D01*
X148466Y405391D01*
X147872Y406172D01*
X147297Y406968D01*
X146741Y407777D01*
X146206Y408600D01*
X145691Y409436D01*
X145197Y410284D01*
X144723Y411144D01*
X144271Y412016D01*
X143840Y412898D01*
X143432Y413790D01*
X143045Y414693D01*
X142680Y415604D01*
X142338Y416524D01*
X142019Y417453D01*
X141722Y418389D01*
X141449Y419331D01*
X141199Y420281D01*
X140972Y421236D01*
X140769Y422196D01*
X140589Y423162D01*
X140433Y424131D01*
X140301Y425104D01*
X140193Y426079D01*
X140108Y427057D01*
X140048Y428037D01*
X140012Y429018D01*
X140000Y430000D01*
X140000Y305000D02*
X140012Y305982D01*
X140048Y306963D01*
X140108Y307943D01*
X140193Y308921D01*
X140301Y309896D01*
X140433Y310869D01*
X140589Y311838D01*
X140769Y312804D01*
X140972Y313764D01*
X141199Y314719D01*
X141449Y315669D01*
X141722Y316611D01*
X142019Y317547D01*
X142338Y318476D01*
X142680Y319396D01*
X143045Y320307D01*
X143432Y321210D01*
X143840Y322102D01*
X144271Y322984D01*
X144723Y323856D01*
X145197Y324716D01*
X145691Y325564D01*
X146206Y326400D01*
X146741Y327223D01*
X147297Y328032D01*
X147872Y328828D01*
X148466Y329609D01*
X149080Y330376D01*
X149712Y331127D01*
X150362Y331862D01*
X151030Y332582D01*
X151716Y333284D01*
X152418Y333970D01*
X153138Y334638D01*
X153873Y335288D01*
X154624Y335920D01*
X155391Y336534D01*
X156172Y337128D01*
X156968Y337703D01*
X157777Y338259D01*
X158600Y338794D01*
X159436Y339309D01*
X160284Y339803D01*
X161144Y340277D01*
X162016Y340729D01*
X162898Y341160D01*
X163790Y341568D01*
X164693Y341955D01*
X165604Y342320D01*
X166524Y342662D01*
X167453Y342981D01*
X168389Y343278D01*
X169331Y343551D01*
X170281Y343801D01*
X171236Y344028D01*
X172196Y344231D01*
X173162Y344411D01*
X174131Y344567D01*
X175104Y344699D01*
X176079Y344807D01*
X177057Y344892D01*
X178037Y344952D01*
X179018Y344988D01*
X180000Y345000D01*
X180982Y344988D01*
X181963Y344952D01*
X182943Y344892D01*
X183921Y344807D01*
X184896Y344699D01*
X185869Y344567D01*
X186838Y344411D01*
X187804Y344231D01*
X188764Y344028D01*
X189719Y343801D01*
X190669Y343551D01*
X191611Y343278D01*
X192547Y342981D01*
X193476Y342662D01*
X194396Y342320D01*
X195307Y341955D01*
X196210Y341568D01*
X197102Y341160D01*
X197984Y340729D01*
X198856Y340277D01*
X199716Y339803D01*
X200564Y339309D01*
X201400Y338794D01*
X202223Y338259D01*
X203032Y337703D01*
X203828Y337128D01*
X204609Y336534D01*
X205376Y335920D01*
X206127Y335288D01*
X206862Y334638D01*
X207582Y333970D01*
X208284Y333284D01*
X208970Y332582D01*
X209638Y331862D01*
X210288Y331127D01*
X210920Y330376D01*
X211534Y329609D01*
X212128Y328828D01*
X212703Y328032D01*
X213259Y327223D01*
X213794Y326400D01*
X214309Y325564D01*
X214803Y324716D01*
X215277Y323856D01*
X215729Y322984D01*
X216160Y322102D01*
X216568Y321210D01*
X216955Y320307D01*
X217320Y319396D01*
X217662Y318476D01*
X217981Y317547D01*
X218278Y316611D01*
X218551Y315669D01*
X218801Y314719D01*
X219028Y313764D01*
X219231Y312804D01*
X219411Y311838D01*
X219567Y310869D01*
X219699Y309896D01*
X219807Y308921D01*
X219892Y307943D01*
X219952Y306963D01*
X219988Y305982D01*
X220000Y305000D01*
X219988Y304018D01*
X219952Y303037D01*
X219892Y302057D01*
X219807Y301079D01*
X219699Y300104D01*
X219567Y299131D01*
X219411Y298162D01*
X219231Y297196D01*
X219028Y296236D01*
X218801Y295281D01*
X218551Y294331D01*
X218278Y293389D01*
X217981Y292453D01*
X217662Y291524D01*
X217320Y290604D01*
X216955Y289693D01*
X216568Y288790D01*
X216160Y287898D01*
X215729Y287016D01*
X215277Y286144D01*
X214803Y285284D01*
X214309Y284436D01*
X213794Y283600D01*
X213259Y282777D01*
X212703Y281968D01*
X212128Y281172D01*
X211534Y280391D01*
X210920Y279624D01*
X210288Y278873D01*
X209638Y278138D01*
X208970Y277418D01*
X208284Y276716D01*
X207582Y276030D01*
X206862Y275362D01*
X206127Y274712D01*
X205376Y274080D01*
X204609Y273466D01*
X203828Y272872D01*
X203032Y272297D01*
X202223Y271741D01*
X201400Y271206D01*
X200564Y270691D01*
X199716Y270197D01*
X198856Y269723D01*
X197984Y269271D01*
X197102Y268840D01*
X196210Y268432D01*
X195307Y268045D01*
X194396Y267680D01*
X193476Y267338D01*
X192547Y267019D01*
X191611Y266722D01*
X190669Y266449D01*
X189719Y266199D01*
X188764Y265972D01*
X187804Y265769D01*
X186838Y265589D01*
X185869Y265433D01*
X184896Y265301D01*
X183921Y265193D01*
X182943Y265108D01*
X181963Y265048D01*
X180982Y265012D01*
X180000Y265000D01*
X179018Y265012D01*
X178037Y265048D01*
X177057Y265108D01*
X176079Y265193D01*
X175104Y265301D01*
X174131Y265433D01*
X173162Y265589D01*
X172196Y265769D01*
X171236Y265972D01*
X170281Y266199D01*
X169331Y266449D01*
X168389Y266722D01*
X167453Y267019D01*
X166524Y267338D01*
X165604Y267680D01*
X164693Y268045D01*
X163790Y268432D01*
X162898Y268840D01*
X162016Y269271D01*
X161144Y269723D01*
X160284Y270197D01*
X159436Y270691D01*
X158600Y271206D01*
X157777Y271741D01*
X156968Y272297D01*
X156172Y272872D01*
X155391Y273466D01*
X154624Y274080D01*
X153873Y274712D01*
X153138Y275362D01*
X152418Y276030D01*
X151716Y276716D01*
X151030Y277418D01*
X150362Y278138D01*
X149712Y278873D01*
X149080Y279624D01*
X148466Y280391D01*
X147872Y281172D01*
X147297Y281968D01*
X146741Y282777D01*
X146206Y283600D01*
X145691Y284436D01*
X145197Y285284D01*
X144723Y286144D01*
X144271Y287016D01*
X143840Y287898D01*
X143432Y288790D01*
X143045Y289693D01*
X142680Y290604D01*
X142338Y291524D01*
X142019Y292453D01*
X141722Y293389D01*
X141449Y294331D01*
X141199Y295281D01*
X140972Y296236D01*
X140769Y297196D01*
X140589Y298162D01*
X140433Y299131D01*
X140301Y300104D01*
X140193Y301079D01*
X140108Y302057D01*
X140048Y303037D01*
X140012Y304018D01*
X140000Y305000D01*
X140000Y180000D02*
X140012Y180982D01*
X140048Y181963D01*
X140108Y182943D01*
X140193Y183921D01*
X140301Y184896D01*
X140433Y185869D01*
X140589Y186838D01*
X140769Y187804D01*
X140972Y188764D01*
X141199Y189719D01*
X141449Y190669D01*
X141722Y191611D01*
X142019Y192547D01*
X142338Y193476D01*
X142680Y194396D01*
X143045Y195307D01*
X143432Y196210D01*
X143840Y197102D01*
X144271Y197984D01*
X144723Y198856D01*
X145197Y199716D01*
X145691Y200564D01*
X146206Y201400D01*
X146741Y202223D01*
X147297Y203032D01*
X147872Y203828D01*
X148466Y204609D01*
X149080Y205376D01*
X149712Y206127D01*
X150362Y206862D01*
X151030Y207582D01*
X151716Y208284D01*
X152418Y208970D01*
X153138Y209638D01*
X153873Y210288D01*
X154624Y210920D01*
X155391Y211534D01*
X156172Y212128D01*
X156968Y212703D01*
X157777Y213259D01*
X158600Y213794D01*
X159436Y214309D01*
X160284Y214803D01*
X161144Y215277D01*
X162016Y215729D01*
X162898Y216160D01*
X163790Y216568D01*
X164693Y216955D01*
X165604Y217320D01*
X166524Y217662D01*
X167453Y217981D01*
X168389Y218278D01*
X169331Y218551D01*
X170281Y218801D01*
X171236Y219028D01*
X172196Y219231D01*
X173162Y219411D01*
X174131Y219567D01*
X175104Y219699D01*
X176079Y219807D01*
X177057Y219892D01*
X178037Y219952D01*
X179018Y219988D01*
X180000Y220000D01*
X180982Y219988D01*
X181963Y219952D01*
X182943Y219892D01*
X183921Y219807D01*
X184896Y219699D01*
X185869Y219567D01*
X186838Y219411D01*
X187804Y219231D01*
X188764Y219028D01*
X189719Y218801D01*
X190669Y218551D01*
X191611Y218278D01*
X192547Y217981D01*
X193476Y217662D01*
X194396Y217320D01*
X195307Y216955D01*
X196210Y216568D01*
X197102Y216160D01*
X197984Y215729D01*
X198856Y215277D01*
X199716Y214803D01*
X200564Y214309D01*
X201400Y213794D01*
X202223Y213259D01*
X203032Y212703D01*
X203828Y212128D01*
X204609Y211534D01*
X205376Y210920D01*
X206127Y210288D01*
X206862Y209638D01*
X207582Y208970D01*
X208284Y208284D01*
X208970Y207582D01*
X209638Y206862D01*
X210288Y206127D01*
X210920Y205376D01*
X211534Y204609D01*
X212128Y203828D01*
X212703Y203032D01*
X213259Y202223D01*
X213794Y201400D01*
X214309Y200564D01*
X214803Y199716D01*
X215277Y198856D01*
X215729Y197984D01*
X216160Y197102D01*
X216568Y196210D01*
X216955Y195307D01*
X217320Y194396D01*
X217662Y193476D01*
X217981Y192547D01*
X218278Y191611D01*
X218551Y190669D01*
X218801Y189719D01*
X219028Y188764D01*
X219231Y187804D01*
X219411Y186838D01*
X219567Y185869D01*
X219699Y184896D01*
X219807Y183921D01*
X219892Y182943D01*
X219952Y181963D01*
X219988Y180982D01*
X220000Y180000D01*
X219988Y179018D01*
X219952Y178037D01*
X219892Y177057D01*
X219807Y176079D01*
X219699Y175104D01*
X219567Y174131D01*
X219411Y173162D01*
X219231Y172196D01*
X219028Y171236D01*
X218801Y170281D01*
X218551Y169331D01*
X218278Y168389D01*
X217981Y167453D01*
X217662Y166524D01*
X217320Y165604D01*
X216955Y164693D01*
X216568Y163790D01*
X216160Y162898D01*
X215729Y162016D01*
X215277Y161144D01*
X214803Y160284D01*
X214309Y159436D01*
X213794Y158600D01*
X213259Y157777D01*
X212703Y156968D01*
X212128Y156172D01*
X211534Y155391D01*
X210920Y154624D01*
X210288Y153873D01*
X209638Y153138D01*
X208970Y152418D01*
X208284Y151716D01*
X207582Y151030D01*
X206862Y150362D01*
X206127Y149712D01*
X205376Y149080D01*
X204609Y148466D01*
X203828Y147872D01*
X203032Y147297D01*
X202223Y146741D01*
X201400Y146206D01*
X200564Y145691D01*
X199716Y145197D01*
X198856Y144723D01*
X197984Y144271D01*
X197102Y143840D01*
X196210Y143432D01*
X195307Y143045D01*
X194396Y142680D01*
X193476Y142338D01*
X192547Y142019D01*
X191611Y141722D01*
X190669Y141449D01*
X189719Y141199D01*
X188764Y140972D01*
X187804Y140769D01*
X186838Y140589D01*
X185869Y140433D01*
X184896Y140301D01*
X183921Y140193D01*
X182943Y140108D01*
X181963Y140048D01*
X180982Y140012D01*
X180000Y140000D01*
X179018Y140012D01*
X178037Y140048D01*
X177057Y140108D01*
X176079Y140193D01*
X175104Y140301D01*
X174131Y140433D01*
X173162Y140589D01*
X172196Y140769D01*
X171236Y140972D01*
X170281Y141199D01*
X169331Y141449D01*
X168389Y141722D01*
X167453Y142019D01*
X166524Y142338D01*
X165604Y142680D01*
X164693Y143045D01*
X163790Y143432D01*
X162898Y143840D01*
X162016Y144271D01*
X161144Y144723D01*
X160284Y145197D01*
X159436Y145691D01*
X158600Y146206D01*
X157777Y146741D01*
X156968Y147297D01*
X156172Y147872D01*
X155391Y148466D01*
X154624Y149080D01*
X153873Y149712D01*
X153138Y150362D01*
X152418Y151030D01*
X151716Y151716D01*
X151030Y152418D01*
X150362Y153138D01*
X149712Y153873D01*
X149080Y154624D01*
X148466Y155391D01*
X147872Y156172D01*
X147297Y156968D01*
X146741Y157777D01*
X146206Y158600D01*
X145691Y159436D01*
X145197Y160284D01*
X144723Y161144D01*
X144271Y162016D01*
X143840Y162898D01*
X143432Y163790D01*
X143045Y164693D01*
X142680Y165604D01*
X142338Y166524D01*
X142019Y167453D01*
X141722Y168389D01*
X141449Y169331D01*
X141199Y170281D01*
X140972Y171236D01*
X140769Y172196D01*
X140589Y173162D01*
X140433Y174131D01*
X140301Y175104D01*
X140193Y176079D01*
X140108Y177057D01*
X140048Y178037D01*
X140012Y179018D01*
X140000Y180000D01*
X140000Y55000D02*
X140012Y55982D01*
X140048Y56963D01*
X140108Y57943D01*
X140193Y58921D01*
X140301Y59896D01*
X140433Y60869D01*
X140589Y61838D01*
X140769Y62804D01*
X140972Y63764D01*
X141199Y64719D01*
X141449Y65669D01*
X141722Y66611D01*
X142019Y67547D01*
X142338Y68476D01*
X142680Y69396D01*
X143045Y70307D01*
X143432Y71210D01*
X143840Y72102D01*
X144271Y72984D01*
X144723Y73856D01*
X145197Y74716D01*
X145691Y75564D01*
X146206Y76400D01*
X146741Y77223D01*
X147297Y78032D01*
X147872Y78828D01*
X148466Y79609D01*
X149080Y80376D01*
X149712Y81127D01*
X150362Y81862D01*
X151030Y82582D01*
X151716Y83284D01*
X152418Y83970D01*
X153138Y84638D01*
X153873Y85288D01*
X154624Y85920D01*
X155391Y86534D01*
X156172Y87128D01*
X156968Y87703D01*
X157777Y88259D01*
X158600Y88794D01*
X159436Y89309D01*
X160284Y89803D01*
X161144Y90277D01*
X162016Y90729D01*
X162898Y91160D01*
X163790Y91568D01*
X164693Y91955D01*
X165604Y92320D01*
X166524Y92662D01*
X167453Y92981D01*
X168389Y93278D01*
X169331Y93551D01*
X170281Y93801D01*
X171236Y94028D01*
X172196Y94231D01*
X173162Y94411D01*
X174131Y94567D01*
X175104Y94699D01*
X176079Y94807D01*
X177057Y94892D01*
X178037Y94952D01*
X179018Y94988D01*
X180000Y95000D01*
X180982Y94988D01*
X181963Y94952D01*
X182943Y94892D01*
X183921Y94807D01*
X184896Y94699D01*
X185869Y94567D01*
X186838Y94411D01*
X187804Y94231D01*
X188764Y94028D01*
X189719Y93801D01*
X190669Y93551D01*
X191611Y93278D01*
X192547Y92981D01*
X193476Y92662D01*
X194396Y92320D01*
X195307Y91955D01*
X196210Y91568D01*
X197102Y91160D01*
X197984Y90729D01*
X198856Y90277D01*
X199716Y89803D01*
X200564Y89309D01*
X201400Y88794D01*
X202223Y88259D01*
X203032Y87703D01*
X203828Y87128D01*
X204609Y86534D01*
X205376Y85920D01*
X206127Y85288D01*
X206862Y84638D01*
X207582Y83970D01*
X208284Y83284D01*
X208970Y82582D01*
X209638Y81862D01*
X210288Y81127D01*
X210920Y80376D01*
X211534Y79609D01*
X212128Y78828D01*
X212703Y78032D01*
X213259Y77223D01*
X213794Y76400D01*
X214309Y75564D01*
X214803Y74716D01*
X215277Y73856D01*
X215729Y72984D01*
X216160Y72102D01*
X216568Y71210D01*
X216955Y70307D01*
X217320Y69396D01*
X217662Y68476D01*
X217981Y67547D01*
X218278Y66611D01*
X218551Y65669D01*
X218801Y64719D01*
X219028Y63764D01*
X219231Y62804D01*
X219411Y61838D01*
X219567Y60869D01*
X219699Y59896D01*
X219807Y58921D01*
X219892Y57943D01*
X219952Y56963D01*
X219988Y55982D01*
X220000Y55000D01*
X219988Y54018D01*
X219952Y53037D01*
X219892Y52057D01*
X219807Y51079D01*
X219699Y50104D01*
X219567Y49131D01*
X219411Y48162D01*
X219231Y47196D01*
X219028Y46236D01*
X218801Y45281D01*
X218551Y44331D01*
X218278Y43389D01*
X217981Y42453D01*
X217662Y41524D01*
X217320Y40604D01*
X216955Y39693D01*
X216568Y38790D01*
X216160Y37898D01*
X215729Y37016D01*
X215277Y36144D01*
X214803Y35284D01*
X214309Y34436D01*
X213794Y33600D01*
X213259Y32777D01*
X212703Y31968D01*
X212128Y31172D01*
X211534Y30391D01*
X210920Y29624D01*
X210288Y28873D01*
X209638Y28138D01*
X208970Y27418D01*
X208284Y26716D01*
X207582Y26030D01*
X206862Y25362D01*
X206127Y24712D01*
X205376Y24080D01*
X204609Y23466D01*
X203828Y22872D01*
X203032Y22297D01*
X202223Y21741D01*
X201400Y21206D01*
X200564Y20691D01*
X199716Y20197D01*
X198856Y19723D01*
X197984Y19271D01*
X197102Y18840D01*
X196210Y18432D01*
X195307Y18045D01*
X194396Y17680D01*
X193476Y17338D01*
X192547Y17019D01*
X191611Y16722D01*
X190669Y16449D01*
X189719Y16199D01*
X188764Y15972D01*
X187804Y15769D01*
X186838Y15589D01*
X185869Y15433D01*
X184896Y15301D01*
X183921Y15193D01*
X182943Y15108D01*
X181963Y15048D01*
X180982Y15012D01*
X180000Y15000D01*
X179018Y15012D01*
X178037Y15048D01*
X177057Y15108D01*
X176079Y15193D01*
X175104Y15301D01*
X174131Y15433D01*
X173162Y15589D01*
X172196Y15769D01*
X171236Y15972D01*
X170281Y16199D01*
X169331Y16449D01*
X168389Y16722D01*
X167453Y17019D01*
X166524Y17338D01*
X165604Y17680D01*
X164693Y18045D01*
X163790Y18432D01*
X162898Y18840D01*
X162016Y19271D01*
X161144Y19723D01*
X160284Y20197D01*
X159436Y20691D01*
X158600Y21206D01*
X157777Y21741D01*
X156968Y22297D01*
X156172Y22872D01*
X155391Y23466D01*
X154624Y24080D01*
X153873Y24712D01*
X153138Y25362D01*
X152418Y26030D01*
X151716Y26716D01*
X151030Y27418D01*
X150362Y28138D01*
X149712Y28873D01*
X149080Y29624D01*
X148466Y30391D01*
X147872Y31172D01*
X147297Y31968D01*
X146741Y32777D01*
X146206Y33600D01*
X145691Y34436D01*
X145197Y35284D01*
X144723Y36144D01*
X144271Y37016D01*
X143840Y37898D01*
X143432Y38790D01*
X143045Y39693D01*
X142680Y40604D01*
X142338Y41524D01*
X142019Y42453D01*
X141722Y43389D01*
X141449Y44331D01*
X141199Y45281D01*
X140972Y46236D01*
X140769Y47196D01*
X140589Y48162D01*
X140433Y49131D01*
X140301Y50104D01*
X140193Y51079D01*
X140108Y52057D01*
X140048Y53037D01*
X140012Y54018D01*
X140000Y55000D01*
X510000Y430000D02*
X510012Y430982D01*
X510048Y431963D01*
X510108Y432943D01*
X510193Y433921D01*
X510301Y434896D01*
X510433Y435869D01*
X510589Y436838D01*
X510769Y437804D01*
X510972Y438764D01*
X511199Y439719D01*
X511449Y440669D01*
X511722Y441611D01*
X512019Y442547D01*
X512338Y443476D01*
X512680Y444396D01*
X513045Y445307D01*
X513432Y446210D01*
X513840Y447102D01*
X514271Y447984D01*
X514723Y448856D01*
X515197Y449716D01*
X515691Y450564D01*
X516206Y451400D01*
X516741Y452223D01*
X517297Y453032D01*
X517872Y453828D01*
X518466Y454609D01*
X519080Y455376D01*
X519712Y456127D01*
X520362Y456862D01*
X521030Y457582D01*
X521716Y458284D01*
X522418Y458970D01*
X523138Y459638D01*
X523873Y460288D01*
X524624Y460920D01*
X525391Y461534D01*
X526172Y462128D01*
X526968Y462703D01*
X527777Y463259D01*
X528600Y463794D01*
X529436Y464309D01*
X530284Y464803D01*
X531144Y465277D01*
X532016Y465729D01*
X532898Y466160D01*
X533790Y466568D01*
X534693Y466955D01*
X535604Y467320D01*
X536524Y467662D01*
X537453Y467981D01*
X538389Y468278D01*
X539331Y468551D01*
X540281Y468801D01*
X541236Y469028D01*
X542196Y469231D01*
X543162Y469411D01*
X544131Y469567D01*
X545104Y469699D01*
X546079Y469807D01*
X547057Y469892D01*
X548037Y469952D01*
X549018Y469988D01*
X550000Y470000D01*
X550982Y469988D01*
X551963Y469952D01*
X552943Y469892D01*
X553921Y469807D01*
X554896Y469699D01*
X555869Y469567D01*
X556838Y469411D01*
X557804Y469231D01*
X558764Y469028D01*
X559719Y468801D01*
X560669Y468551D01*
X561611Y468278D01*
X562547Y467981D01*
X563476Y467662D01*
X564396Y467320D01*
X565307Y466955D01*
X566210Y466568D01*
X567102Y466160D01*
X567984Y465729D01*
X568856Y465277D01*
X569716Y464803D01*
X570564Y464309D01*
X571400Y463794D01*
X572223Y463259D01*
X573032Y462703D01*
X573828Y462128D01*
X574609Y461534D01*
X575376Y460920D01*
X576127Y460288D01*
X576862Y459638D01*
X577582Y458970D01*
X578284Y458284D01*
X578970Y457582D01*
X579638Y456862D01*
X580288Y456127D01*
X580920Y455376D01*
X581534Y454609D01*
X582128Y453828D01*
X582703Y453032D01*
X583259Y452223D01*
X583794Y451400D01*
X584309Y450564D01*
X584803Y449716D01*
X585277Y448856D01*
X585729Y447984D01*
X586160Y447102D01*
X586568Y446210D01*
X586955Y445307D01*
X587320Y444396D01*
X587662Y443476D01*
X587981Y442547D01*
X588278Y441611D01*
X588551Y440669D01*
X588801Y439719D01*
X589028Y438764D01*
X589231Y437804D01*
X589411Y436838D01*
X589567Y435869D01*
X589699Y434896D01*
X589807Y433921D01*
X589892Y432943D01*
X589952Y431963D01*
X589988Y430982D01*
X590000Y430000D01*
X589988Y429018D01*
X589952Y428037D01*
X589892Y427057D01*
X589807Y426079D01*
X589699Y425104D01*
X589567Y424131D01*
X589411Y423162D01*
X589231Y422196D01*
X589028Y421236D01*
X588801Y420281D01*
X588551Y419331D01*
X588278Y418389D01*
X587981Y417453D01*
X587662Y416524D01*
X587320Y415604D01*
X586955Y414693D01*
X586568Y413790D01*
X586160Y412898D01*
X585729Y412016D01*
X585277Y411144D01*
X584803Y410284D01*
X584309Y409436D01*
X583794Y408600D01*
X583259Y407777D01*
X582703Y406968D01*
X582128Y406172D01*
X581534Y405391D01*
X580920Y404624D01*
X580288Y403873D01*
X579638Y403138D01*
X578970Y402418D01*
X578284Y401716D01*
X577582Y401030D01*
X576862Y400362D01*
X576127Y399712D01*
X575376Y399080D01*
X574609Y398466D01*
X573828Y397872D01*
X573032Y397297D01*
X572223Y396741D01*
X571400Y396206D01*
X570564Y395691D01*
X569716Y395197D01*
X568856Y394723D01*
X567984Y394271D01*
X567102Y393840D01*
X566210Y393432D01*
X565307Y393045D01*
X564396Y392680D01*
X563476Y392338D01*
X562547Y392019D01*
X561611Y391722D01*
X560669Y391449D01*
X559719Y391199D01*
X558764Y390972D01*
X557804Y390769D01*
X556838Y390589D01*
X555869Y390433D01*
X554896Y390301D01*
X553921Y390193D01*
X552943Y390108D01*
X551963Y390048D01*
X550982Y390012D01*
X550000Y390000D01*
X549018Y390012D01*
X548037Y390048D01*
X547057Y390108D01*
X546079Y390193D01*
X545104Y390301D01*
X544131Y390433D01*
X543162Y390589D01*
X542196Y390769D01*
X541236Y390972D01*
X540281Y391199D01*
X539331Y391449D01*
X538389Y391722D01*
X537453Y392019D01*
X536524Y392338D01*
X535604Y392680D01*
X534693Y393045D01*
X533790Y393432D01*
X532898Y393840D01*
X532016Y394271D01*
X531144Y394723D01*
X530284Y395197D01*
X529436Y395691D01*
X528600Y396206D01*
X527777Y396741D01*
X526968Y397297D01*
X526172Y397872D01*
X525391Y398466D01*
X524624Y399080D01*
X523873Y399712D01*
X523138Y400362D01*
X522418Y401030D01*
X521716Y401716D01*
X521030Y402418D01*
X520362Y403138D01*
X519712Y403873D01*
X519080Y404624D01*
X518466Y405391D01*
X517872Y406172D01*
X517297Y406968D01*
X516741Y407777D01*
X516206Y408600D01*
X515691Y409436D01*
X515197Y410284D01*
X514723Y411144D01*
X514271Y412016D01*
X513840Y412898D01*
X513432Y413790D01*
X513045Y414693D01*
X512680Y415604D01*
X512338Y416524D01*
X512019Y417453D01*
X511722Y418389D01*
X511449Y419331D01*
X511199Y420281D01*
X510972Y421236D01*
X510769Y422196D01*
X510589Y423162D01*
X510433Y424131D01*
X510301Y425104D01*
X510193Y426079D01*
X510108Y427057D01*
X510048Y428037D01*
X510012Y429018D01*
X510000Y430000D01*
X510000Y305000D02*
X510012Y305982D01*
X510048Y306963D01*
X510108Y307943D01*
X510193Y308921D01*
X510301Y309896D01*
X510433Y310869D01*
X510589Y311838D01*
X510769Y312804D01*
X510972Y313764D01*
X511199Y314719D01*
X511449Y315669D01*
X511722Y316611D01*
X512019Y317547D01*
X512338Y318476D01*
X512680Y319396D01*
X513045Y320307D01*
X513432Y321210D01*
X513840Y322102D01*
X514271Y322984D01*
X514723Y323856D01*
X515197Y324716D01*
X515691Y325564D01*
X516206Y326400D01*
X516741Y327223D01*
X517297Y328032D01*
X517872Y328828D01*
X518466Y329609D01*
X519080Y330376D01*
X519712Y331127D01*
X520362Y331862D01*
X521030Y332582D01*
X521716Y333284D01*
X522418Y333970D01*
X523138Y334638D01*
X523873Y335288D01*
X524624Y335920D01*
X525391Y336534D01*
X526172Y337128D01*
X526968Y337703D01*
X527777Y338259D01*
X528600Y338794D01*
X529436Y339309D01*
X530284Y339803D01*
X531144Y340277D01*
X532016Y340729D01*
X532898Y341160D01*
X533790Y341568D01*
X534693Y341955D01*
X535604Y342320D01*
X536524Y342662D01*
X537453Y342981D01*
X538389Y343278D01*
X539331Y343551D01*
X540281Y343801D01*
X541236Y344028D01*
X542196Y344231D01*
X543162Y344411D01*
X544131Y344567D01*
X545104Y344699D01*
X546079Y344807D01*
X547057Y344892D01*
X548037Y344952D01*
X549018Y344988D01*
X550000Y345000D01*
X550982Y344988D01*
X551963Y344952D01*
X552943Y344892D01*
X553921Y344807D01*
X554896Y344699D01*
X555869Y344567D01*
X556838Y344411D01*
X557804Y344231D01*
X558764Y344028D01*
X559719Y343801D01*
X560669Y343551D01*
X561611Y343278D01*
X562547Y342981D01*
X563476Y342662D01*
X564396Y342320D01*
X565307Y341955D01*
X566210Y341568D01*
X567102Y341160D01*
X567984Y340729D01*
X568856Y340277D01*
X569716Y339803D01*
X570564Y339309D01*
X571400Y338794D01*
X572223Y338259D01*
X573032Y337703D01*
X573828Y337128D01*
X574609Y336534D01*
X575376Y335920D01*
X576127Y335288D01*
X576862Y334638D01*
X577582Y333970D01*
X578284Y333284D01*
X578970Y332582D01*
X579638Y331862D01*
X580288Y331127D01*
X580920Y330376D01*
X581534Y329609D01*
X582128Y328828D01*
X582703Y328032D01*
X583259Y327223D01*
X583794Y326400D01*
X584309Y325564D01*
X584803Y324716D01*
X585277Y323856D01*
X585729Y322984D01*
X586160Y322102D01*
X586568Y321210D01*
X586955Y320307D01*
X587320Y319396D01*
X587662Y318476D01*
X587981Y317547D01*
X588278Y316611D01*
X588551Y315669D01*
X588801Y314719D01*
X589028Y313764D01*
X589231Y312804D01*
X589411Y311838D01*
X589567Y310869D01*
X589699Y309896D01*
X589807Y308921D01*
X589892Y307943D01*
X589952Y306963D01*
X589988Y305982D01*
X590000Y305000D01*
X589988Y304018D01*
X589952Y303037D01*
X589892Y302057D01*
X589807Y301079D01*
X589699Y300104D01*
X589567Y299131D01*
X589411Y298162D01*
X589231Y297196D01*
X589028Y296236D01*
X588801Y295281D01*
X588551Y294331D01*
X588278Y293389D01*
X587981Y292453D01*
X587662Y291524D01*
X587320Y290604D01*
X586955Y289693D01*
X586568Y288790D01*
X586160Y287898D01*
X585729Y287016D01*
X585277Y286144D01*
X584803Y285284D01*
X584309Y284436D01*
X583794Y283600D01*
X583259Y282777D01*
X582703Y281968D01*
X582128Y281172D01*
X581534Y280391D01*
X580920Y279624D01*
X580288Y278873D01*
X579638Y278138D01*
X578970Y277418D01*
X578284Y276716D01*
X577582Y276030D01*
X576862Y275362D01*
X576127Y274712D01*
X575376Y274080D01*
X574609Y273466D01*
X573828Y272872D01*
X573032Y272297D01*
X572223Y271741D01*
X571400Y271206D01*
X570564Y270691D01*
X569716Y270197D01*
X568856Y269723D01*
X567984Y269271D01*
X567102Y268840D01*
X566210Y268432D01*
X565307Y268045D01*
X564396Y267680D01*
X563476Y267338D01*
X562547Y267019D01*
X561611Y266722D01*
X560669Y266449D01*
X559719Y266199D01*
X558764Y265972D01*
X557804Y265769D01*
X556838Y265589D01*
X555869Y265433D01*
X554896Y265301D01*
X553921Y265193D01*
X552943Y265108D01*
X551963Y265048D01*
X550982Y265012D01*
X550000Y265000D01*
X549018Y265012D01*
X548037Y265048D01*
X547057Y265108D01*
X546079Y265193D01*
X545104Y265301D01*
X544131Y265433D01*
X543162Y265589D01*
X542196Y265769D01*
X541236Y265972D01*
X540281Y266199D01*
X539331Y266449D01*
X538389Y266722D01*
X537453Y267019D01*
X536524Y267338D01*
X535604Y267680D01*
X534693Y268045D01*
X533790Y268432D01*
X532898Y268840D01*
X532016Y269271D01*
X531144Y269723D01*
X530284Y270197D01*
X529436Y270691D01*
X528600Y271206D01*
X527777Y271741D01*
X526968Y272297D01*
X526172Y272872D01*
X525391Y273466D01*
X524624Y274080D01*
X523873Y274712D01*
X523138Y275362D01*
X522418Y276030D01*
X521716Y276716D01*
X521030Y277418D01*
X520362Y278138D01*
X519712Y278873D01*
X519080Y279624D01*
X518466Y280391D01*
X517872Y281172D01*
X517297Y281968D01*
X516741Y282777D01*
X516206Y283600D01*
X515691Y284436D01*
X515197Y285284D01*
X514723Y286144D01*
X514271Y287016D01*
X513840Y287898D01*
X513432Y288790D01*
X513045Y289693D01*
X512680Y290604D01*
X512338Y291524D01*
X512019Y292453D01*
X511722Y293389D01*
X511449Y294331D01*
X511199Y295281D01*
X510972Y296236D01*
X510769Y297196D01*
X510589Y298162D01*
X510433Y299131D01*
X510301Y300104D01*
X510193Y301079D01*
X510108Y302057D01*
X510048Y303037D01*
X510012Y304018D01*
X510000Y305000D01*
X510000Y180000D02*
X510012Y180982D01*
X510048Y181963D01*
X510108Y182943D01*
X510193Y183921D01*
X510301Y184896D01*
X510433Y185869D01*
X510589Y186838D01*
X510769Y187804D01*
X510972Y188764D01*
X511199Y189719D01*
X511449Y190669D01*
X511722Y191611D01*
X512019Y192547D01*
X512338Y193476D01*
X512680Y194396D01*
X513045Y195307D01*
X513432Y196210D01*
X513840Y197102D01*
X514271Y197984D01*
X514723Y198856D01*
X515197Y199716D01*
X515691Y200564D01*
X516206Y201400D01*
X516741Y202223D01*
X517297Y203032D01*
X517872Y203828D01*
X518466Y204609D01*
X519080Y205376D01*
X519712Y206127D01*
X520362Y206862D01*
X521030Y207582D01*
X521716Y208284D01*
X522418Y208970D01*
X523138Y209638D01*
X523873Y210288D01*
X524624Y210920D01*
X525391Y211534D01*
X526172Y212128D01*
X526968Y212703D01*
X527777Y213259D01*
X528600Y213794D01*
X529436Y214309D01*
X530284Y214803D01*
X531144Y215277D01*
X532016Y215729D01*
X532898Y216160D01*
X533790Y216568D01*
X534693Y216955D01*
X535604Y217320D01*
X536524Y217662D01*
X537453Y217981D01*
X538389Y218278D01*
X539331Y218551D01*
X540281Y218801D01*
X541236Y219028D01*
X542196Y219231D01*
X543162Y219411D01*
X544131Y219567D01*
X545104Y219699D01*
X546079Y219807D01*
X547057Y219892D01*
X548037Y219952D01*
X549018Y219988D01*
X550000Y220000D01*
X550982Y219988D01*
X551963Y219952D01*
X552943Y219892D01*
X553921Y219807D01*
X554896Y219699D01*
X555869Y219567D01*
X556838Y219411D01*
X557804Y219231D01*
X558764Y219028D01*
X559719Y218801D01*
X560669Y218551D01*
X561611Y218278D01*
X562547Y217981D01*
X563476Y217662D01*
X564396Y217320D01*
X565307Y216955D01*
X566210Y216568D01*
X567102Y216160D01*
X567984Y215729D01*
X568856Y215277D01*
X569716Y214803D01*
X570564Y214309D01*
X571400Y213794D01*
X572223Y213259D01*
X573032Y212703D01*
X573828Y212128D01*
X574609Y211534D01*
X575376Y210920D01*
X576127Y210288D01*
X576862Y209638D01*
X577582Y208970D01*
X578284Y208284D01*
X578970Y207582D01*
X579638Y206862D01*
X580288Y206127D01*
X580920Y205376D01*
X581534Y204609D01*
X582128Y203828D01*
X582703Y203032D01*
X583259Y202223D01*
X583794Y201400D01*
X584309Y200564D01*
X584803Y199716D01*
X585277Y198856D01*
X585729Y197984D01*
X586160Y197102D01*
X586568Y196210D01*
X586955Y195307D01*
X587320Y194396D01*
X587662Y193476D01*
X587981Y192547D01*
X588278Y191611D01*
X588551Y190669D01*
X588801Y189719D01*
X589028Y188764D01*
X589231Y187804D01*
X589411Y186838D01*
X589567Y185869D01*
X589699Y184896D01*
X589807Y183921D01*
X589892Y182943D01*
X589952Y181963D01*
X589988Y180982D01*
X590000Y180000D01*
X589988Y179018D01*
X589952Y178037D01*
X589892Y177057D01*
X589807Y176079D01*
X589699Y175104D01*
X589567Y174131D01*
X589411Y173162D01*
X589231Y172196D01*
X589028Y171236D01*
X588801Y170281D01*
X588551Y169331D01*
X588278Y168389D01*
X587981Y167453D01*
X587662Y166524D01*
X587320Y165604D01*
X586955Y164693D01*
X586568Y163790D01*
X586160Y162898D01*
X585729Y162016D01*
X585277Y161144D01*
X584803Y160284D01*
X584309Y159436D01*
X583794Y158600D01*
X583259Y157777D01*
X582703Y156968D01*
X582128Y156172D01*
X581534Y155391D01*
X580920Y154624D01*
X580288Y153873D01*
X579638Y153138D01*
X578970Y152418D01*
X578284Y151716D01*
X577582Y151030D01*
X576862Y150362D01*
X576127Y149712D01*
X575376Y149080D01*
X574609Y148466D01*
X573828Y147872D01*
X573032Y147297D01*
X572223Y146741D01*
X571400Y146206D01*
X570564Y145691D01*
X569716Y145197D01*
X568856Y144723D01*
X567984Y144271D01*
X567102Y143840D01*
X566210Y143432D01*
X565307Y143045D01*
X564396Y142680D01*
X563476Y142338D01*
X562547Y142019D01*
X561611Y141722D01*
X560669Y141449D01*
X559719Y141199D01*
X558764Y140972D01*
X557804Y140769D01*
X556838Y140589D01*
X555869Y140433D01*
X554896Y140301D01*
X553921Y140193D01*
X552943Y140108D01*
X551963Y140048D01*
X550982Y140012D01*
X550000Y140000D01*
X549018Y140012D01*
X548037Y140048D01*
X547057Y140108D01*
X546079Y140193D01*
X545104Y140301D01*
X544131Y140433D01*
X543162Y140589D01*
X542196Y140769D01*
X541236Y140972D01*
X540281Y141199D01*
X539331Y141449D01*
X538389Y141722D01*
X537453Y142019D01*
X536524Y142338D01*
X535604Y142680D01*
X534693Y143045D01*
X533790Y143432D01*
X532898Y143840D01*
X532016Y144271D01*
X531144Y144723D01*
X530284Y145197D01*
X529436Y145691D01*
X528600Y146206D01*
X527777Y146741D01*
X526968Y147297D01*
X526172Y147872D01*
X525391Y148466D01*
X524624Y149080D01*
X523873Y149712D01*
X523138Y150362D01*
X522418Y151030D01*
X521716Y151716D01*
X521030Y152418D01*
X520362Y153138D01*
X519712Y153873D01*
X519080Y154624D01*
X518466Y155391D01*
X517872Y156172D01*
X517297Y156968D01*
X516741Y157777D01*
X516206Y158600D01*
X515691Y159436D01*
X515197Y160284D01*
X514723Y161144D01*
X514271Y162016D01*
X513840Y162898D01*
X513432Y163790D01*
X513045Y164693D01*
X512680Y165604D01*
X512338Y166524D01*
X512019Y167453D01*
X511722Y168389D01*
X511449Y169331D01*
X511199Y170281D01*
X510972Y171236D01*
X510769Y172196D01*
X510589Y173162D01*
X510433Y174131D01*
X510301Y175104D01*
X510193Y176079D01*
X510108Y177057D01*
X510048Y178037D01*
X510012Y179018D01*
X510000Y180000D01*
X510000Y55000D02*
X510012Y55982D01*
X510048Y56963D01*
X510108Y57943D01*
X510193Y58921D01*
X510301Y59896D01*
X510433Y60869D01*
X510589Y61838D01*
X510769Y62804D01*
X510972Y63764D01*
X511199Y64719D01*
X511449Y65669D01*
X511722Y66611D01*
X512019Y67547D01*
X512338Y68476D01*
X512680Y69396D01*
X513045Y70307D01*
X513432Y71210D01*
X513840Y72102D01*
X514271Y72984D01*
X514723Y73856D01*
X515197Y74716D01*
X515691Y75564D01*
X516206Y76400D01*
X516741Y77223D01*
X517297Y78032D01*
X517872Y78828D01*
X518466Y79609D01*
X519080Y80376D01*
X519712Y81127D01*
X520362Y81862D01*
X521030Y82582D01*
X521716Y83284D01*
X522418Y83970D01*
X523138Y84638D01*
X523873Y85288D01*
X524624Y85920D01*
X525391Y86534D01*
X526172Y87128D01*
X526968Y87703D01*
X527777Y88259D01*
X528600Y88794D01*
X529436Y89309D01*
X530284Y89803D01*
X531144Y90277D01*
X532016Y90729D01*
X532898Y91160D01*
X533790Y91568D01*
X534693Y91955D01*
X535604Y92320D01*
X536524Y92662D01*
X537453Y92981D01*
X538389Y93278D01*
X539331Y93551D01*
X540281Y93801D01*
X541236Y94028D01*
X542196Y94231D01*
X543162Y94411D01*
X544131Y94567D01*
X545104Y94699D01*
X546079Y94807D01*
X547057Y94892D01*
X548037Y94952D01*
X549018Y94988D01*
X550000Y95000D01*
X550982Y94988D01*
X551963Y94952D01*
X552943Y94892D01*
X553921Y94807D01*
X554896Y94699D01*
X555869Y94567D01*
X556838Y94411D01*
X557804Y94231D01*
X558764Y94028D01*
X559719Y93801D01*
X560669Y93551D01*
X561611Y93278D01*
X562547Y92981D01*
X563476Y92662D01*
X564396Y92320D01*
X565307Y91955D01*
X566210Y91568D01*
X567102Y91160D01*
X567984Y90729D01*
X568856Y90277D01*
X569716Y89803D01*
X570564Y89309D01*
X571400Y88794D01*
X572223Y88259D01*
X573032Y87703D01*
X573828Y87128D01*
X574609Y86534D01*
X575376Y85920D01*
X576127Y85288D01*
X576862Y84638D01*
X577582Y83970D01*
X578284Y83284D01*
X578970Y82582D01*
X579638Y81862D01*
X580288Y81127D01*
X580920Y80376D01*
X581534Y79609D01*
X582128Y78828D01*
X582703Y78032D01*
X583259Y77223D01*
X583794Y76400D01*
X584309Y75564D01*
X584803Y74716D01*
X585277Y73856D01*
X585729Y72984D01*
X586160Y72102D01*
X586568Y71210D01*
X586955Y70307D01*
X587320Y69396D01*
X587662Y68476D01*
X587981Y67547D01*
X588278Y66611D01*
X588551Y65669D01*
X588801Y64719D01*
X589028Y63764D01*
X589231Y62804D01*
X589411Y61838D01*
X589567Y60869D01*
X589699Y59896D01*
X589807Y58921D01*
X589892Y57943D01*
X589952Y56963D01*
X589988Y55982D01*
X590000Y55000D01*
X589988Y54018D01*
X589952Y53037D01*
X589892Y52057D01*
X589807Y51079D01*
X589699Y50104D01*
X589567Y49131D01*
X589411Y48162D01*
X589231Y47196D01*
X589028Y46236D01*
X588801Y45281D01*
X588551Y44331D01*
X588278Y43389D01*
X587981Y42453D01*
X587662Y41524D01*
X587320Y40604D01*
X586955Y39693D01*
X586568Y38790D01*
X586160Y37898D01*
X585729Y37016D01*
X585277Y36144D01*
X584803Y35284D01*
X584309Y34436D01*
X583794Y33600D01*
X583259Y32777D01*
X582703Y31968D01*
X582128Y31172D01*
X581534Y30391D01*
X580920Y29624D01*
X580288Y28873D01*
X579638Y28138D01*
X578970Y27418D01*
X578284Y26716D01*
X577582Y26030D01*
X576862Y25362D01*
X576127Y24712D01*
X575376Y24080D01*
X574609Y23466D01*
X573828Y22872D01*
X573032Y22297D01*
X572223Y21741D01*
X571400Y21206D01*
X570564Y20691D01*
X569716Y20197D01*
X568856Y19723D01*
X567984Y19271D01*
X567102Y18840D01*
X566210Y18432D01*
X565307Y18045D01*
X564396Y17680D01*
X563476Y17338D01*
X562547Y17019D01*
X561611Y16722D01*
X560669Y16449D01*
X559719Y16199D01*
X558764Y15972D01*
X557804Y15769D01*
X556838Y15589D01*
X555869Y15433D01*
X554896Y15301D01*
X553921Y15193D01*
X552943Y15108D01*
X551963Y15048D01*
X550982Y15012D01*
X550000Y15000D01*
X549018Y15012D01*
X548037Y15048D01*
X547057Y15108D01*
X546079Y15193D01*
X545104Y15301D01*
X544131Y15433D01*
X543162Y15589D01*
X542196Y15769D01*
X541236Y15972D01*
X540281Y16199D01*
X539331Y16449D01*
X538389Y16722D01*
X537453Y17019D01*
X536524Y17338D01*
X535604Y17680D01*
X534693Y18045D01*
X533790Y18432D01*
X532898Y18840D01*
X532016Y19271D01*
X531144Y19723D01*
X530284Y20197D01*
X529436Y20691D01*
X528600Y21206D01*
X527777Y21741D01*
X526968Y22297D01*
X526172Y22872D01*
X525391Y23466D01*
X524624Y24080D01*
X523873Y24712D01*
X523138Y25362D01*
X522418Y26030D01*
X521716Y26716D01*
X521030Y27418D01*
X520362Y28138D01*
X519712Y28873D01*
X519080Y29624D01*
X518466Y30391D01*
X517872Y31172D01*
X517297Y31968D01*
X516741Y32777D01*
X516206Y33600D01*
X515691Y34436D01*
X515197Y35284D01*
X514723Y36144D01*
X514271Y37016D01*
X513840Y37898D01*
X513432Y38790D01*
X513045Y39693D01*
X512680Y40604D01*
X512338Y41524D01*
X512019Y42453D01*
X511722Y43389D01*
X511449Y44331D01*
X511199Y45281D01*
X510972Y46236D01*
X510769Y47196D01*
X510589Y48162D01*
X510433Y49131D01*
X510301Y50104D01*
X510193Y51079D01*
X510108Y52057D01*
X510048Y53037D01*
X510012Y54018D01*
X510000Y55000D01*
X385000Y430000D02*
X385012Y430982D01*
X385048Y431963D01*
X385108Y432943D01*
X385193Y433921D01*
X385301Y434896D01*
X385433Y435869D01*
X385589Y436838D01*
X385769Y437804D01*
X385972Y438764D01*
X386199Y439719D01*
X386449Y440669D01*
X386722Y441611D01*
X387019Y442547D01*
X387338Y443476D01*
X387680Y444396D01*
X388045Y445307D01*
X388432Y446210D01*
X388840Y447102D01*
X389271Y447984D01*
X389723Y448856D01*
X390197Y449716D01*
X390691Y450564D01*
X391206Y451400D01*
X391741Y452223D01*
X392297Y453032D01*
X392872Y453828D01*
X393466Y454609D01*
X394080Y455376D01*
X394712Y456127D01*
X395362Y456862D01*
X396030Y457582D01*
X396716Y458284D01*
X397418Y458970D01*
X398138Y459638D01*
X398873Y460288D01*
X399624Y460920D01*
X400391Y461534D01*
X401172Y462128D01*
X401968Y462703D01*
X402777Y463259D01*
X403600Y463794D01*
X404436Y464309D01*
X405284Y464803D01*
X406144Y465277D01*
X407016Y465729D01*
X407898Y466160D01*
X408790Y466568D01*
X409693Y466955D01*
X410604Y467320D01*
X411524Y467662D01*
X412453Y467981D01*
X413389Y468278D01*
X414331Y468551D01*
X415281Y468801D01*
X416236Y469028D01*
X417196Y469231D01*
X418162Y469411D01*
X419131Y469567D01*
X420104Y469699D01*
X421079Y469807D01*
X422057Y469892D01*
X423037Y469952D01*
X424018Y469988D01*
X425000Y470000D01*
X425982Y469988D01*
X426963Y469952D01*
X427943Y469892D01*
X428921Y469807D01*
X429896Y469699D01*
X430869Y469567D01*
X431838Y469411D01*
X432804Y469231D01*
X433764Y469028D01*
X434719Y468801D01*
X435669Y468551D01*
X436611Y468278D01*
X437547Y467981D01*
X438476Y467662D01*
X439396Y467320D01*
X440307Y466955D01*
X441210Y466568D01*
X442102Y466160D01*
X442984Y465729D01*
X443856Y465277D01*
X444716Y464803D01*
X445564Y464309D01*
X446400Y463794D01*
X447223Y463259D01*
X448032Y462703D01*
X448828Y462128D01*
X449609Y461534D01*
X450376Y460920D01*
X451127Y460288D01*
X451862Y459638D01*
X452582Y458970D01*
X453284Y458284D01*
X453970Y457582D01*
X454638Y456862D01*
X455288Y456127D01*
X455920Y455376D01*
X456534Y454609D01*
X457128Y453828D01*
X457703Y453032D01*
X458259Y452223D01*
X458794Y451400D01*
X459309Y450564D01*
X459803Y449716D01*
X460277Y448856D01*
X460729Y447984D01*
X461160Y447102D01*
X461568Y446210D01*
X461955Y445307D01*
X462320Y444396D01*
X462662Y443476D01*
X462981Y442547D01*
X463278Y441611D01*
X463551Y440669D01*
X463801Y439719D01*
X464028Y438764D01*
X464231Y437804D01*
X464411Y436838D01*
X464567Y435869D01*
X464699Y434896D01*
X464807Y433921D01*
X464892Y432943D01*
X464952Y431963D01*
X464988Y430982D01*
X465000Y430000D01*
X464988Y429018D01*
X464952Y428037D01*
X464892Y427057D01*
X464807Y426079D01*
X464699Y425104D01*
X464567Y424131D01*
X464411Y423162D01*
X464231Y422196D01*
X464028Y421236D01*
X463801Y420281D01*
X463551Y419331D01*
X463278Y418389D01*
X462981Y417453D01*
X462662Y416524D01*
X462320Y415604D01*
X461955Y414693D01*
X461568Y413790D01*
X461160Y412898D01*
X460729Y412016D01*
X460277Y411144D01*
X459803Y410284D01*
X459309Y409436D01*
X458794Y408600D01*
X458259Y407777D01*
X457703Y406968D01*
X457128Y406172D01*
X456534Y405391D01*
X455920Y404624D01*
X455288Y403873D01*
X454638Y403138D01*
X453970Y402418D01*
X453284Y401716D01*
X452582Y401030D01*
X451862Y400362D01*
X451127Y399712D01*
X450376Y399080D01*
X449609Y398466D01*
X448828Y397872D01*
X448032Y397297D01*
X447223Y396741D01*
X446400Y396206D01*
X445564Y395691D01*
X444716Y395197D01*
X443856Y394723D01*
X442984Y394271D01*
X442102Y393840D01*
X441210Y393432D01*
X440307Y393045D01*
X439396Y392680D01*
X438476Y392338D01*
X437547Y392019D01*
X436611Y391722D01*
X435669Y391449D01*
X434719Y391199D01*
X433764Y390972D01*
X432804Y390769D01*
X431838Y390589D01*
X430869Y390433D01*
X429896Y390301D01*
X428921Y390193D01*
X427943Y390108D01*
X426963Y390048D01*
X425982Y390012D01*
X425000Y390000D01*
X424018Y390012D01*
X423037Y390048D01*
X422057Y390108D01*
X421079Y390193D01*
X420104Y390301D01*
X419131Y390433D01*
X418162Y390589D01*
X417196Y390769D01*
X416236Y390972D01*
X415281Y391199D01*
X414331Y391449D01*
X413389Y391722D01*
X412453Y392019D01*
X411524Y392338D01*
X410604Y392680D01*
X409693Y393045D01*
X408790Y393432D01*
X407898Y393840D01*
X407016Y394271D01*
X406144Y394723D01*
X405284Y395197D01*
X404436Y395691D01*
X403600Y396206D01*
X402777Y396741D01*
X401968Y397297D01*
X401172Y397872D01*
X400391Y398466D01*
X399624Y399080D01*
X398873Y399712D01*
X398138Y400362D01*
X397418Y401030D01*
X396716Y401716D01*
X396030Y402418D01*
X395362Y403138D01*
X394712Y403873D01*
X394080Y404624D01*
X393466Y405391D01*
X392872Y406172D01*
X392297Y406968D01*
X391741Y407777D01*
X391206Y408600D01*
X390691Y409436D01*
X390197Y410284D01*
X389723Y411144D01*
X389271Y412016D01*
X388840Y412898D01*
X388432Y413790D01*
X388045Y414693D01*
X387680Y415604D01*
X387338Y416524D01*
X387019Y417453D01*
X386722Y418389D01*
X386449Y419331D01*
X386199Y420281D01*
X385972Y421236D01*
X385769Y422196D01*
X385589Y423162D01*
X385433Y424131D01*
X385301Y425104D01*
X385193Y426079D01*
X385108Y427057D01*
X385048Y428037D01*
X385012Y429018D01*
X385000Y430000D01*
X385000Y305000D02*
X385012Y305982D01*
X385048Y306963D01*
X385108Y307943D01*
X385193Y308921D01*
X385301Y309896D01*
X385433Y310869D01*
X385589Y311838D01*
X385769Y312804D01*
X385972Y313764D01*
X386199Y314719D01*
X386449Y315669D01*
X386722Y316611D01*
X387019Y317547D01*
X387338Y318476D01*
X387680Y319396D01*
X388045Y320307D01*
X388432Y321210D01*
X388840Y322102D01*
X389271Y322984D01*
X389723Y323856D01*
X390197Y324716D01*
X390691Y325564D01*
X391206Y326400D01*
X391741Y327223D01*
X392297Y328032D01*
X392872Y328828D01*
X393466Y329609D01*
X394080Y330376D01*
X394712Y331127D01*
X395362Y331862D01*
X396030Y332582D01*
X396716Y333284D01*
X397418Y333970D01*
X398138Y334638D01*
X398873Y335288D01*
X399624Y335920D01*
X400391Y336534D01*
X401172Y337128D01*
X401968Y337703D01*
X402777Y338259D01*
X403600Y338794D01*
X404436Y339309D01*
X405284Y339803D01*
X406144Y340277D01*
X407016Y340729D01*
X407898Y341160D01*
X408790Y341568D01*
X409693Y341955D01*
X410604Y342320D01*
X411524Y342662D01*
X412453Y342981D01*
X413389Y343278D01*
X414331Y343551D01*
X415281Y343801D01*
X416236Y344028D01*
X417196Y344231D01*
X418162Y344411D01*
X419131Y344567D01*
X420104Y344699D01*
X421079Y344807D01*
X422057Y344892D01*
X423037Y344952D01*
X424018Y344988D01*
X425000Y345000D01*
X425982Y344988D01*
X426963Y344952D01*
X427943Y344892D01*
X428921Y344807D01*
X429896Y344699D01*
X430869Y344567D01*
X431838Y344411D01*
X432804Y344231D01*
X433764Y344028D01*
X434719Y343801D01*
X435669Y343551D01*
X436611Y343278D01*
X437547Y342981D01*
X438476Y342662D01*
X439396Y342320D01*
X440307Y341955D01*
X441210Y341568D01*
X442102Y341160D01*
X442984Y340729D01*
X443856Y340277D01*
X444716Y339803D01*
X445564Y339309D01*
X446400Y338794D01*
X447223Y338259D01*
X448032Y337703D01*
X448828Y337128D01*
X449609Y336534D01*
X450376Y335920D01*
X451127Y335288D01*
X451862Y334638D01*
X452582Y333970D01*
X453284Y333284D01*
X453970Y332582D01*
X454638Y331862D01*
X455288Y331127D01*
X455920Y330376D01*
X456534Y329609D01*
X457128Y328828D01*
X457703Y328032D01*
X458259Y327223D01*
X458794Y326400D01*
X459309Y325564D01*
X459803Y324716D01*
X460277Y323856D01*
X460729Y322984D01*
X461160Y322102D01*
X461568Y321210D01*
X461955Y320307D01*
X462320Y319396D01*
X462662Y318476D01*
X462981Y317547D01*
X463278Y316611D01*
X463551Y315669D01*
X463801Y314719D01*
X464028Y313764D01*
X464231Y312804D01*
X464411Y311838D01*
X464567Y310869D01*
X464699Y309896D01*
X464807Y308921D01*
X464892Y307943D01*
X464952Y306963D01*
X464988Y305982D01*
X465000Y305000D01*
X464988Y304018D01*
X464952Y303037D01*
X464892Y302057D01*
X464807Y301079D01*
X464699Y300104D01*
X464567Y299131D01*
X464411Y298162D01*
X464231Y297196D01*
X464028Y296236D01*
X463801Y295281D01*
X463551Y294331D01*
X463278Y293389D01*
X462981Y292453D01*
X462662Y291524D01*
X462320Y290604D01*
X461955Y289693D01*
X461568Y288790D01*
X461160Y287898D01*
X460729Y287016D01*
X460277Y286144D01*
X459803Y285284D01*
X459309Y284436D01*
X458794Y283600D01*
X458259Y282777D01*
X457703Y281968D01*
X457128Y281172D01*
X456534Y280391D01*
X455920Y279624D01*
X455288Y278873D01*
X454638Y278138D01*
X453970Y277418D01*
X453284Y276716D01*
X452582Y276030D01*
X451862Y275362D01*
X451127Y274712D01*
X450376Y274080D01*
X449609Y273466D01*
X448828Y272872D01*
X448032Y272297D01*
X447223Y271741D01*
X446400Y271206D01*
X445564Y270691D01*
X444716Y270197D01*
X443856Y269723D01*
X442984Y269271D01*
X442102Y268840D01*
X441210Y268432D01*
X440307Y268045D01*
X439396Y267680D01*
X438476Y267338D01*
X437547Y267019D01*
X436611Y266722D01*
X435669Y266449D01*
X434719Y266199D01*
X433764Y265972D01*
X432804Y265769D01*
X431838Y265589D01*
X430869Y265433D01*
X429896Y265301D01*
X428921Y265193D01*
X427943Y265108D01*
X426963Y265048D01*
X425982Y265012D01*
X425000Y265000D01*
X424018Y265012D01*
X423037Y265048D01*
X422057Y265108D01*
X421079Y265193D01*
X420104Y265301D01*
X419131Y265433D01*
X418162Y265589D01*
X417196Y265769D01*
X416236Y265972D01*
X415281Y266199D01*
X414331Y266449D01*
X413389Y266722D01*
X412453Y267019D01*
X411524Y267338D01*
X410604Y267680D01*
X409693Y268045D01*
X408790Y268432D01*
X407898Y268840D01*
X407016Y269271D01*
X406144Y269723D01*
X405284Y270197D01*
X404436Y270691D01*
X403600Y271206D01*
X402777Y271741D01*
X401968Y272297D01*
X401172Y272872D01*
X400391Y273466D01*
X399624Y274080D01*
X398873Y274712D01*
X398138Y275362D01*
X397418Y276030D01*
X396716Y276716D01*
X396030Y277418D01*
X395362Y278138D01*
X394712Y278873D01*
X394080Y279624D01*
X393466Y280391D01*
X392872Y281172D01*
X392297Y281968D01*
X391741Y282777D01*
X391206Y283600D01*
X390691Y284436D01*
X390197Y285284D01*
X389723Y286144D01*
X389271Y287016D01*
X388840Y287898D01*
X388432Y288790D01*
X388045Y289693D01*
X387680Y290604D01*
X387338Y291524D01*
X387019Y292453D01*
X386722Y293389D01*
X386449Y294331D01*
X386199Y295281D01*
X385972Y296236D01*
X385769Y297196D01*
X385589Y298162D01*
X385433Y299131D01*
X385301Y300104D01*
X385193Y301079D01*
X385108Y302057D01*
X385048Y303037D01*
X385012Y304018D01*
X385000Y305000D01*
X385000Y180000D02*
X385012Y180982D01*
X385048Y181963D01*
X385108Y182943D01*
X385193Y183921D01*
X385301Y184896D01*
X385433Y185869D01*
X385589Y186838D01*
X385769Y187804D01*
X385972Y188764D01*
X386199Y189719D01*
X386449Y190669D01*
X386722Y191611D01*
X387019Y192547D01*
X387338Y193476D01*
X387680Y194396D01*
X388045Y195307D01*
X388432Y196210D01*
X388840Y197102D01*
X389271Y197984D01*
X389723Y198856D01*
X390197Y199716D01*
X390691Y200564D01*
X391206Y201400D01*
X391741Y202223D01*
X392297Y203032D01*
X392872Y203828D01*
X393466Y204609D01*
X394080Y205376D01*
X394712Y206127D01*
X395362Y206862D01*
X396030Y207582D01*
X396716Y208284D01*
X397418Y208970D01*
X398138Y209638D01*
X398873Y210288D01*
X399624Y210920D01*
X400391Y211534D01*
X401172Y212128D01*
X401968Y212703D01*
X402777Y213259D01*
X403600Y213794D01*
X404436Y214309D01*
X405284Y214803D01*
X406144Y215277D01*
X407016Y215729D01*
X407898Y216160D01*
X408790Y216568D01*
X409693Y216955D01*
X410604Y217320D01*
X411524Y217662D01*
X412453Y217981D01*
X413389Y218278D01*
X414331Y218551D01*
X415281Y218801D01*
X416236Y219028D01*
X417196Y219231D01*
X418162Y219411D01*
X419131Y219567D01*
X420104Y219699D01*
X421079Y219807D01*
X422057Y219892D01*
X423037Y219952D01*
X424018Y219988D01*
X425000Y220000D01*
X425982Y219988D01*
X426963Y219952D01*
X427943Y219892D01*
X428921Y219807D01*
X429896Y219699D01*
X430869Y219567D01*
X431838Y219411D01*
X432804Y219231D01*
X433764Y219028D01*
X434719Y218801D01*
X435669Y218551D01*
X436611Y218278D01*
X437547Y217981D01*
X438476Y217662D01*
X439396Y217320D01*
X440307Y216955D01*
X441210Y216568D01*
X442102Y216160D01*
X442984Y215729D01*
X443856Y215277D01*
X444716Y214803D01*
X445564Y214309D01*
X446400Y213794D01*
X447223Y213259D01*
X448032Y212703D01*
X448828Y212128D01*
X449609Y211534D01*
X450376Y210920D01*
X451127Y210288D01*
X451862Y209638D01*
X452582Y208970D01*
X453284Y208284D01*
X453970Y207582D01*
X454638Y206862D01*
X455288Y206127D01*
X455920Y205376D01*
X456534Y204609D01*
X457128Y203828D01*
X457703Y203032D01*
X458259Y202223D01*
X458794Y201400D01*
X459309Y200564D01*
X459803Y199716D01*
X460277Y198856D01*
X460729Y197984D01*
X461160Y197102D01*
X461568Y196210D01*
X461955Y195307D01*
X462320Y194396D01*
X462662Y193476D01*
X462981Y192547D01*
X463278Y191611D01*
X463551Y190669D01*
X463801Y189719D01*
X464028Y188764D01*
X464231Y187804D01*
X464411Y186838D01*
X464567Y185869D01*
X464699Y184896D01*
X464807Y183921D01*
X464892Y182943D01*
X464952Y181963D01*
X464988Y180982D01*
X465000Y180000D01*
X464988Y179018D01*
X464952Y178037D01*
X464892Y177057D01*
X464807Y176079D01*
X464699Y175104D01*
X464567Y174131D01*
X464411Y173162D01*
X464231Y172196D01*
X464028Y171236D01*
X463801Y170281D01*
X463551Y169331D01*
X463278Y168389D01*
X462981Y167453D01*
X462662Y166524D01*
X462320Y165604D01*
X461955Y164693D01*
X461568Y163790D01*
X461160Y162898D01*
X460729Y162016D01*
X460277Y161144D01*
X459803Y160284D01*
X459309Y159436D01*
X458794Y158600D01*
X458259Y157777D01*
X457703Y156968D01*
X457128Y156172D01*
X456534Y155391D01*
X455920Y154624D01*
X455288Y153873D01*
X454638Y153138D01*
X453970Y152418D01*
X453284Y151716D01*
X452582Y151030D01*
X451862Y150362D01*
X451127Y149712D01*
X450376Y149080D01*
X449609Y148466D01*
X448828Y147872D01*
X448032Y147297D01*
X447223Y146741D01*
X446400Y146206D01*
X445564Y145691D01*
X444716Y145197D01*
X443856Y144723D01*
X442984Y144271D01*
X442102Y143840D01*
X441210Y143432D01*
X440307Y143045D01*
X439396Y142680D01*
X438476Y142338D01*
X437547Y142019D01*
X436611Y141722D01*
X435669Y141449D01*
X434719Y141199D01*
X433764Y140972D01*
X432804Y140769D01*
X431838Y140589D01*
X430869Y140433D01*
X429896Y140301D01*
X428921Y140193D01*
X427943Y140108D01*
X426963Y140048D01*
X425982Y140012D01*
X425000Y140000D01*
X424018Y140012D01*
X423037Y140048D01*
X422057Y140108D01*
X421079Y140193D01*
X420104Y140301D01*
X419131Y140433D01*
X418162Y140589D01*
X417196Y140769D01*
X416236Y140972D01*
X415281Y141199D01*
X414331Y141449D01*
X413389Y141722D01*
X412453Y142019D01*
X411524Y142338D01*
X410604Y142680D01*
X409693Y143045D01*
X408790Y143432D01*
X407898Y143840D01*
X407016Y144271D01*
X406144Y144723D01*
X405284Y145197D01*
X404436Y145691D01*
X403600Y146206D01*
X402777Y146741D01*
X401968Y147297D01*
X401172Y147872D01*
X400391Y148466D01*
X399624Y149080D01*
X398873Y149712D01*
X398138Y150362D01*
X397418Y151030D01*
X396716Y151716D01*
X396030Y152418D01*
X395362Y153138D01*
X394712Y153873D01*
X394080Y154624D01*
X393466Y155391D01*
X392872Y156172D01*
X392297Y156968D01*
X391741Y157777D01*
X391206Y158600D01*
X390691Y159436D01*
X390197Y160284D01*
X389723Y161144D01*
X389271Y162016D01*
X388840Y162898D01*
X388432Y163790D01*
X388045Y164693D01*
X387680Y165604D01*
X387338Y166524D01*
X387019Y167453D01*
X386722Y168389D01*
X386449Y169331D01*
X386199Y170281D01*
X385972Y171236D01*
X385769Y172196D01*
X385589Y173162D01*
X385433Y174131D01*
X385301Y175104D01*
X385193Y176079D01*
X385108Y177057D01*
X385048Y178037D01*
X385012Y179018D01*
X385000Y180000D01*
X385000Y55000D02*
X385012Y55982D01*
X385048Y56963D01*
X385108Y57943D01*
X385193Y58921D01*
X385301Y59896D01*
X385433Y60869D01*
X385589Y61838D01*
X385769Y62804D01*
X385972Y63764D01*
X386199Y64719D01*
X386449Y65669D01*
X386722Y66611D01*
X387019Y67547D01*
X387338Y68476D01*
X387680Y69396D01*
X388045Y70307D01*
X388432Y71210D01*
X388840Y72102D01*
X389271Y72984D01*
X389723Y73856D01*
X390197Y74716D01*
X390691Y75564D01*
X391206Y76400D01*
X391741Y77223D01*
X392297Y78032D01*
X392872Y78828D01*
X393466Y79609D01*
X394080Y80376D01*
X394712Y81127D01*
X395362Y81862D01*
X396030Y82582D01*
X396716Y83284D01*
X397418Y83970D01*
X398138Y84638D01*
X398873Y85288D01*
X399624Y85920D01*
X400391Y86534D01*
X401172Y87128D01*
X401968Y87703D01*
X402777Y88259D01*
X403600Y88794D01*
X404436Y89309D01*
X405284Y89803D01*
X406144Y90277D01*
X407016Y90729D01*
X407898Y91160D01*
X408790Y91568D01*
X409693Y91955D01*
X410604Y92320D01*
X411524Y92662D01*
X412453Y92981D01*
X413389Y93278D01*
X414331Y93551D01*
X415281Y93801D01*
X416236Y94028D01*
X417196Y94231D01*
X418162Y94411D01*
X419131Y94567D01*
X420104Y94699D01*
X421079Y94807D01*
X422057Y94892D01*
X423037Y94952D01*
X424018Y94988D01*
X425000Y95000D01*
X425982Y94988D01*
X426963Y94952D01*
X427943Y94892D01*
X428921Y94807D01*
X429896Y94699D01*
X430869Y94567D01*
X431838Y94411D01*
X432804Y94231D01*
X433764Y94028D01*
X434719Y93801D01*
X435669Y93551D01*
X436611Y93278D01*
X437547Y92981D01*
X438476Y92662D01*
X439396Y92320D01*
X440307Y91955D01*
X441210Y91568D01*
X442102Y91160D01*
X442984Y90729D01*
X443856Y90277D01*
X444716Y89803D01*
X445564Y89309D01*
X446400Y88794D01*
X447223Y88259D01*
X448032Y87703D01*
X448828Y87128D01*
X449609Y86534D01*
X450376Y85920D01*
X451127Y85288D01*
X451862Y84638D01*
X452582Y83970D01*
X453284Y83284D01*
X453970Y82582D01*
X454638Y81862D01*
X455288Y81127D01*
X455920Y80376D01*
X456534Y79609D01*
X457128Y78828D01*
X457703Y78032D01*
X458259Y77223D01*
X458794Y76400D01*
X459309Y75564D01*
X459803Y74716D01*
X460277Y73856D01*
X460729Y72984D01*
X461160Y72102D01*
X461568Y71210D01*
X461955Y70307D01*
X462320Y69396D01*
X462662Y68476D01*
X462981Y67547D01*
X463278Y66611D01*
X463551Y65669D01*
X463801Y64719D01*
X464028Y63764D01*
X464231Y62804D01*
X464411Y61838D01*
X464567Y60869D01*
X464699Y59896D01*
X464807Y58921D01*
X464892Y57943D01*
X464952Y56963D01*
X464988Y55982D01*
X465000Y55000D01*
X464988Y54018D01*
X464952Y53037D01*
X464892Y52057D01*
X464807Y51079D01*
X464699Y50104D01*
X464567Y49131D01*
X464411Y48162D01*
X464231Y47196D01*
X464028Y46236D01*
X463801Y45281D01*
X463551Y44331D01*
X463278Y43389D01*
X462981Y42453D01*
X462662Y41524D01*
X462320Y40604D01*
X461955Y39693D01*
X461568Y38790D01*
X461160Y37898D01*
X460729Y37016D01*
X460277Y36144D01*
X459803Y35284D01*
X459309Y34436D01*
X458794Y33600D01*
X458259Y32777D01*
X457703Y31968D01*
X457128Y31172D01*
X456534Y30391D01*
X455920Y29624D01*
X455288Y28873D01*
X454638Y28138D01*
X453970Y27418D01*
X453284Y26716D01*
X452582Y26030D01*
X451862Y25362D01*
X451127Y24712D01*
X450376Y24080D01*
X449609Y23466D01*
X448828Y22872D01*
X448032Y22297D01*
X447223Y21741D01*
X446400Y21206D01*
X445564Y20691D01*
X444716Y20197D01*
X443856Y19723D01*
X442984Y19271D01*
X442102Y18840D01*
X441210Y18432D01*
X440307Y18045D01*
X439396Y17680D01*
X438476Y17338D01*
X437547Y17019D01*
X436611Y16722D01*
X435669Y16449D01*
X434719Y16199D01*
X433764Y15972D01*
X432804Y15769D01*
X431838Y15589D01*
X430869Y15433D01*
X429896Y15301D01*
X428921Y15193D01*
X427943Y15108D01*
X426963Y15048D01*
X425982Y15012D01*
X425000Y15000D01*
X424018Y15012D01*
X423037Y15048D01*
X422057Y15108D01*
X421079Y15193D01*
X420104Y15301D01*
X419131Y15433D01*
X418162Y15589D01*
X417196Y15769D01*
X416236Y15972D01*
X415281Y16199D01*
X414331Y16449D01*
X413389Y16722D01*
X412453Y17019D01*
X411524Y17338D01*
X410604Y17680D01*
X409693Y18045D01*
X408790Y18432D01*
X407898Y18840D01*
X407016Y19271D01*
X406144Y19723D01*
X405284Y20197D01*
X404436Y20691D01*
X403600Y21206D01*
X402777Y21741D01*
X401968Y22297D01*
X401172Y22872D01*
X400391Y23466D01*
X399624Y24080D01*
X398873Y24712D01*
X398138Y25362D01*
X397418Y26030D01*
X396716Y26716D01*
X396030Y27418D01*
X395362Y28138D01*
X394712Y28873D01*
X394080Y29624D01*
X393466Y30391D01*
X392872Y31172D01*
X392297Y31968D01*
X391741Y32777D01*
X391206Y33600D01*
X390691Y34436D01*
X390197Y35284D01*
X389723Y36144D01*
X389271Y37016D01*
X388840Y37898D01*
X388432Y38790D01*
X388045Y39693D01*
X387680Y40604D01*
X387338Y41524D01*
X387019Y42453D01*
X386722Y43389D01*
X386449Y44331D01*
X386199Y45281D01*
X385972Y46236D01*
X385769Y47196D01*
X385589Y48162D01*
X385433Y49131D01*
X385301Y50104D01*
X385193Y51079D01*
X385108Y52057D01*
X385048Y53037D01*
X385012Y54018D01*
X385000Y55000D01*
D11*
X330000Y635000D02*
X330014Y636166D01*
X330057Y637331D01*
X330129Y638494D01*
X330229Y639656D01*
X330357Y640815D01*
X330514Y641970D01*
X330699Y643121D01*
X330913Y644267D01*
X331154Y645407D01*
X331424Y646542D01*
X331721Y647669D01*
X332045Y648789D01*
X332397Y649900D01*
X332777Y651002D01*
X333183Y652095D01*
X333616Y653177D01*
X334075Y654249D01*
X334561Y655309D01*
X335072Y656357D01*
X335609Y657391D01*
X336171Y658413D01*
X336758Y659420D01*
X337369Y660412D01*
X338005Y661390D01*
X338665Y662351D01*
X339348Y663296D01*
X340054Y664224D01*
X340782Y665134D01*
X341533Y666026D01*
X342305Y666899D01*
X343098Y667753D01*
X343912Y668588D01*
X344747Y669402D01*
X345601Y670195D01*
X346474Y670967D01*
X347366Y671718D01*
X348276Y672446D01*
X349204Y673152D01*
X350149Y673835D01*
X351110Y674495D01*
X352088Y675131D01*
X353080Y675742D01*
X354087Y676329D01*
X355109Y676891D01*
X356143Y677428D01*
X357191Y677939D01*
X358251Y678425D01*
X359323Y678884D01*
X360405Y679317D01*
X361498Y679723D01*
X362600Y680103D01*
X363711Y680455D01*
X364831Y680779D01*
X365958Y681076D01*
X367093Y681346D01*
X368233Y681587D01*
X369379Y681801D01*
X370530Y681986D01*
X371685Y682143D01*
X372844Y682271D01*
X374006Y682371D01*
X375169Y682443D01*
X376334Y682486D01*
X377500Y682500D01*
X378666Y682486D01*
X379831Y682443D01*
X380994Y682371D01*
X382156Y682271D01*
X383315Y682143D01*
X384470Y681986D01*
X385621Y681801D01*
X386767Y681587D01*
X387907Y681346D01*
X389042Y681076D01*
X390169Y680779D01*
X391289Y680455D01*
X392400Y680103D01*
X393502Y679723D01*
X394595Y679317D01*
X395677Y678884D01*
X396749Y678425D01*
X397809Y677939D01*
X398857Y677428D01*
X399891Y676891D01*
X400913Y676329D01*
X401920Y675742D01*
X402912Y675131D01*
X403890Y674495D01*
X404851Y673835D01*
X405796Y673152D01*
X406724Y672446D01*
X407634Y671718D01*
X408526Y670967D01*
X409399Y670195D01*
X410253Y669402D01*
X411088Y668588D01*
X411902Y667753D01*
X412695Y666899D01*
X413467Y666026D01*
X414218Y665134D01*
X414946Y664224D01*
X415652Y663296D01*
X416335Y662351D01*
X416995Y661390D01*
X417631Y660412D01*
X418242Y659420D01*
X418829Y658413D01*
X419391Y657391D01*
X419928Y656357D01*
X420439Y655309D01*
X420925Y654249D01*
X421384Y653177D01*
X421817Y652095D01*
X422223Y651002D01*
X422603Y649900D01*
X422955Y648789D01*
X423279Y647669D01*
X423576Y646542D01*
X423846Y645407D01*
X424087Y644267D01*
X424301Y643121D01*
X424486Y641970D01*
X424643Y640815D01*
X424771Y639656D01*
X424871Y638494D01*
X424943Y637331D01*
X424986Y636166D01*
X425000Y635000D01*
X424986Y633834D01*
X424943Y632669D01*
X424871Y631506D01*
X424771Y630344D01*
X424643Y629185D01*
X424486Y628030D01*
X424301Y626879D01*
X424087Y625733D01*
X423846Y624593D01*
X423576Y623458D01*
X423279Y622331D01*
X422955Y621211D01*
X422603Y620100D01*
X422223Y618998D01*
X421817Y617905D01*
X421384Y616823D01*
X420925Y615751D01*
X420439Y614691D01*
X419928Y613643D01*
X419391Y612609D01*
X418829Y611587D01*
X418242Y610580D01*
X417631Y609588D01*
X416995Y608610D01*
X416335Y607649D01*
X415652Y606704D01*
X414946Y605776D01*
X414218Y604866D01*
X413467Y603974D01*
X412695Y603101D01*
X411902Y602247D01*
X411088Y601412D01*
X410253Y600598D01*
X409399Y599805D01*
X408526Y599033D01*
X407634Y598282D01*
X406724Y597554D01*
X405796Y596848D01*
X404851Y596165D01*
X403890Y595505D01*
X402912Y594869D01*
X401920Y594258D01*
X400913Y593671D01*
X399891Y593109D01*
X398857Y592572D01*
X397809Y592061D01*
X396749Y591575D01*
X395677Y591116D01*
X394595Y590683D01*
X393502Y590277D01*
X392400Y589897D01*
X391289Y589545D01*
X390169Y589221D01*
X389042Y588924D01*
X387907Y588654D01*
X386767Y588413D01*
X385621Y588199D01*
X384470Y588014D01*
X383315Y587857D01*
X382156Y587729D01*
X380994Y587629D01*
X379831Y587557D01*
X378666Y587514D01*
X377500Y587500D01*
X376334Y587514D01*
X375169Y587557D01*
X374006Y587629D01*
X372844Y587729D01*
X371685Y587857D01*
X370530Y588014D01*
X369379Y588199D01*
X368233Y588413D01*
X367093Y588654D01*
X365958Y588924D01*
X364831Y589221D01*
X363711Y589545D01*
X362600Y589897D01*
X361498Y590277D01*
X360405Y590683D01*
X359323Y591116D01*
X358251Y591575D01*
X357191Y592061D01*
X356143Y592572D01*
X355109Y593109D01*
X354087Y593671D01*
X353080Y594258D01*
X352088Y594869D01*
X351110Y595505D01*
X350149Y596165D01*
X349204Y596848D01*
X348276Y597554D01*
X347366Y598282D01*
X346474Y599033D01*
X345601Y599805D01*
X344747Y600598D01*
X343912Y601412D01*
X343098Y602247D01*
X342305Y603101D01*
X341533Y603974D01*
X340782Y604866D01*
X340054Y605776D01*
X339348Y606704D01*
X338665Y607649D01*
X338005Y608610D01*
X337369Y609588D01*
X336758Y610580D01*
X336171Y611587D01*
X335609Y612609D01*
X335072Y613643D01*
X334561Y614691D01*
X334075Y615751D01*
X333616Y616823D01*
X333183Y617905D01*
X332777Y618998D01*
X332397Y620100D01*
X332045Y621211D01*
X331721Y622331D01*
X331424Y623458D01*
X331154Y624593D01*
X330913Y625733D01*
X330699Y626879D01*
X330514Y628030D01*
X330357Y629185D01*
X330229Y630344D01*
X330129Y631506D01*
X330057Y632669D01*
X330014Y633834D01*
X330000Y635000D01*
X182500Y635000D02*
X182514Y636166D01*
X182557Y637331D01*
X182629Y638494D01*
X182729Y639656D01*
X182857Y640815D01*
X183014Y641970D01*
X183199Y643121D01*
X183413Y644267D01*
X183654Y645407D01*
X183924Y646542D01*
X184221Y647669D01*
X184545Y648789D01*
X184897Y649900D01*
X185277Y651002D01*
X185683Y652095D01*
X186116Y653177D01*
X186575Y654249D01*
X187061Y655309D01*
X187572Y656357D01*
X188109Y657391D01*
X188671Y658413D01*
X189258Y659420D01*
X189869Y660412D01*
X190505Y661390D01*
X191165Y662351D01*
X191848Y663296D01*
X192554Y664224D01*
X193282Y665134D01*
X194033Y666026D01*
X194805Y666899D01*
X195598Y667753D01*
X196412Y668588D01*
X197247Y669402D01*
X198101Y670195D01*
X198974Y670967D01*
X199866Y671718D01*
X200776Y672446D01*
X201704Y673152D01*
X202649Y673835D01*
X203610Y674495D01*
X204588Y675131D01*
X205580Y675742D01*
X206587Y676329D01*
X207609Y676891D01*
X208643Y677428D01*
X209691Y677939D01*
X210751Y678425D01*
X211823Y678884D01*
X212905Y679317D01*
X213998Y679723D01*
X215100Y680103D01*
X216211Y680455D01*
X217331Y680779D01*
X218458Y681076D01*
X219593Y681346D01*
X220733Y681587D01*
X221879Y681801D01*
X223030Y681986D01*
X224185Y682143D01*
X225344Y682271D01*
X226506Y682371D01*
X227669Y682443D01*
X228834Y682486D01*
X230000Y682500D01*
X231166Y682486D01*
X232331Y682443D01*
X233494Y682371D01*
X234656Y682271D01*
X235815Y682143D01*
X236970Y681986D01*
X238121Y681801D01*
X239267Y681587D01*
X240407Y681346D01*
X241542Y681076D01*
X242669Y680779D01*
X243789Y680455D01*
X244900Y680103D01*
X246002Y679723D01*
X247095Y679317D01*
X248177Y678884D01*
X249249Y678425D01*
X250309Y677939D01*
X251357Y677428D01*
X252391Y676891D01*
X253413Y676329D01*
X254420Y675742D01*
X255412Y675131D01*
X256390Y674495D01*
X257351Y673835D01*
X258296Y673152D01*
X259224Y672446D01*
X260134Y671718D01*
X261026Y670967D01*
X261899Y670195D01*
X262753Y669402D01*
X263588Y668588D01*
X264402Y667753D01*
X265195Y666899D01*
X265967Y666026D01*
X266718Y665134D01*
X267446Y664224D01*
X268152Y663296D01*
X268835Y662351D01*
X269495Y661390D01*
X270131Y660412D01*
X270742Y659420D01*
X271329Y658413D01*
X271891Y657391D01*
X272428Y656357D01*
X272939Y655309D01*
X273425Y654249D01*
X273884Y653177D01*
X274317Y652095D01*
X274723Y651002D01*
X275103Y649900D01*
X275455Y648789D01*
X275779Y647669D01*
X276076Y646542D01*
X276346Y645407D01*
X276587Y644267D01*
X276801Y643121D01*
X276986Y641970D01*
X277143Y640815D01*
X277271Y639656D01*
X277371Y638494D01*
X277443Y637331D01*
X277486Y636166D01*
X277500Y635000D01*
X277486Y633834D01*
X277443Y632669D01*
X277371Y631506D01*
X277271Y630344D01*
X277143Y629185D01*
X276986Y628030D01*
X276801Y626879D01*
X276587Y625733D01*
X276346Y624593D01*
X276076Y623458D01*
X275779Y622331D01*
X275455Y621211D01*
X275103Y620100D01*
X274723Y618998D01*
X274317Y617905D01*
X273884Y616823D01*
X273425Y615751D01*
X272939Y614691D01*
X272428Y613643D01*
X271891Y612609D01*
X271329Y611587D01*
X270742Y610580D01*
X270131Y609588D01*
X269495Y608610D01*
X268835Y607649D01*
X268152Y606704D01*
X267446Y605776D01*
X266718Y604866D01*
X265967Y603974D01*
X265195Y603101D01*
X264402Y602247D01*
X263588Y601412D01*
X262753Y600598D01*
X261899Y599805D01*
X261026Y599033D01*
X260134Y598282D01*
X259224Y597554D01*
X258296Y596848D01*
X257351Y596165D01*
X256390Y595505D01*
X255412Y594869D01*
X254420Y594258D01*
X253413Y593671D01*
X252391Y593109D01*
X251357Y592572D01*
X250309Y592061D01*
X249249Y591575D01*
X248177Y591116D01*
X247095Y590683D01*
X246002Y590277D01*
X244900Y589897D01*
X243789Y589545D01*
X242669Y589221D01*
X241542Y588924D01*
X240407Y588654D01*
X239267Y588413D01*
X238121Y588199D01*
X236970Y588014D01*
X235815Y587857D01*
X234656Y587729D01*
X233494Y587629D01*
X232331Y587557D01*
X231166Y587514D01*
X230000Y587500D01*
X228834Y587514D01*
X227669Y587557D01*
X226506Y587629D01*
X225344Y587729D01*
X224185Y587857D01*
X223030Y588014D01*
X221879Y588199D01*
X220733Y588413D01*
X219593Y588654D01*
X218458Y588924D01*
X217331Y589221D01*
X216211Y589545D01*
X215100Y589897D01*
X213998Y590277D01*
X212905Y590683D01*
X211823Y591116D01*
X210751Y591575D01*
X209691Y592061D01*
X208643Y592572D01*
X207609Y593109D01*
X206587Y593671D01*
X205580Y594258D01*
X204588Y594869D01*
X203610Y595505D01*
X202649Y596165D01*
X201704Y596848D01*
X200776Y597554D01*
X199866Y598282D01*
X198974Y599033D01*
X198101Y599805D01*
X197247Y600598D01*
X196412Y601412D01*
X195598Y602247D01*
X194805Y603101D01*
X194033Y603974D01*
X193282Y604866D01*
X192554Y605776D01*
X191848Y606704D01*
X191165Y607649D01*
X190505Y608610D01*
X189869Y609588D01*
X189258Y610580D01*
X188671Y611587D01*
X188109Y612609D01*
X187572Y613643D01*
X187061Y614691D01*
X186575Y615751D01*
X186116Y616823D01*
X185683Y617905D01*
X185277Y618998D01*
X184897Y620100D01*
X184545Y621211D01*
X184221Y622331D01*
X183924Y623458D01*
X183654Y624593D01*
X183413Y625733D01*
X183199Y626879D01*
X183014Y628030D01*
X182857Y629185D01*
X182729Y630344D01*
X182629Y631506D01*
X182557Y632669D01*
X182514Y633834D01*
X182500Y635000D01*
X30000Y635000D02*
X30014Y636166D01*
X30057Y637331D01*
X30129Y638494D01*
X30229Y639656D01*
X30357Y640815D01*
X30514Y641970D01*
X30699Y643121D01*
X30913Y644267D01*
X31154Y645407D01*
X31424Y646542D01*
X31721Y647669D01*
X32045Y648789D01*
X32397Y649900D01*
X32777Y651002D01*
X33183Y652095D01*
X33616Y653177D01*
X34075Y654249D01*
X34561Y655309D01*
X35072Y656357D01*
X35609Y657391D01*
X36171Y658413D01*
X36758Y659420D01*
X37369Y660412D01*
X38005Y661390D01*
X38665Y662351D01*
X39348Y663296D01*
X40054Y664224D01*
X40782Y665134D01*
X41533Y666026D01*
X42305Y666899D01*
X43098Y667753D01*
X43912Y668588D01*
X44747Y669402D01*
X45601Y670195D01*
X46474Y670967D01*
X47366Y671718D01*
X48276Y672446D01*
X49204Y673152D01*
X50149Y673835D01*
X51110Y674495D01*
X52088Y675131D01*
X53080Y675742D01*
X54087Y676329D01*
X55109Y676891D01*
X56143Y677428D01*
X57191Y677939D01*
X58251Y678425D01*
X59323Y678884D01*
X60405Y679317D01*
X61498Y679723D01*
X62600Y680103D01*
X63711Y680455D01*
X64831Y680779D01*
X65958Y681076D01*
X67093Y681346D01*
X68233Y681587D01*
X69379Y681801D01*
X70530Y681986D01*
X71685Y682143D01*
X72844Y682271D01*
X74006Y682371D01*
X75169Y682443D01*
X76334Y682486D01*
X77500Y682500D01*
X78666Y682486D01*
X79831Y682443D01*
X80994Y682371D01*
X82156Y682271D01*
X83315Y682143D01*
X84470Y681986D01*
X85621Y681801D01*
X86767Y681587D01*
X87907Y681346D01*
X89042Y681076D01*
X90169Y680779D01*
X91289Y680455D01*
X92400Y680103D01*
X93502Y679723D01*
X94595Y679317D01*
X95677Y678884D01*
X96749Y678425D01*
X97809Y677939D01*
X98857Y677428D01*
X99891Y676891D01*
X100913Y676329D01*
X101920Y675742D01*
X102912Y675131D01*
X103890Y674495D01*
X104851Y673835D01*
X105796Y673152D01*
X106724Y672446D01*
X107634Y671718D01*
X108526Y670967D01*
X109399Y670195D01*
X110253Y669402D01*
X111088Y668588D01*
X111902Y667753D01*
X112695Y666899D01*
X113467Y666026D01*
X114218Y665134D01*
X114946Y664224D01*
X115652Y663296D01*
X116335Y662351D01*
X116995Y661390D01*
X117631Y660412D01*
X118242Y659420D01*
X118829Y658413D01*
X119391Y657391D01*
X119928Y656357D01*
X120439Y655309D01*
X120925Y654249D01*
X121384Y653177D01*
X121817Y652095D01*
X122223Y651002D01*
X122603Y649900D01*
X122955Y648789D01*
X123279Y647669D01*
X123576Y646542D01*
X123846Y645407D01*
X124087Y644267D01*
X124301Y643121D01*
X124486Y641970D01*
X124643Y640815D01*
X124771Y639656D01*
X124871Y638494D01*
X124943Y637331D01*
X124986Y636166D01*
X125000Y635000D01*
X124986Y633834D01*
X124943Y632669D01*
X124871Y631506D01*
X124771Y630344D01*
X124643Y629185D01*
X124486Y628030D01*
X124301Y626879D01*
X124087Y625733D01*
X123846Y624593D01*
X123576Y623458D01*
X123279Y622331D01*
X122955Y621211D01*
X122603Y620100D01*
X122223Y618998D01*
X121817Y617905D01*
X121384Y616823D01*
X120925Y615751D01*
X120439Y614691D01*
X119928Y613643D01*
X119391Y612609D01*
X118829Y611587D01*
X118242Y610580D01*
X117631Y609588D01*
X116995Y608610D01*
X116335Y607649D01*
X115652Y606704D01*
X114946Y605776D01*
X114218Y604866D01*
X113467Y603974D01*
X112695Y603101D01*
X111902Y602247D01*
X111088Y601412D01*
X110253Y600598D01*
X109399Y599805D01*
X108526Y599033D01*
X107634Y598282D01*
X106724Y597554D01*
X105796Y596848D01*
X104851Y596165D01*
X103890Y595505D01*
X102912Y594869D01*
X101920Y594258D01*
X100913Y593671D01*
X99891Y593109D01*
X98857Y592572D01*
X97809Y592061D01*
X96749Y591575D01*
X95677Y591116D01*
X94595Y590683D01*
X93502Y590277D01*
X92400Y589897D01*
X91289Y589545D01*
X90169Y589221D01*
X89042Y588924D01*
X87907Y588654D01*
X86767Y588413D01*
X85621Y588199D01*
X84470Y588014D01*
X83315Y587857D01*
X82156Y587729D01*
X80994Y587629D01*
X79831Y587557D01*
X78666Y587514D01*
X77500Y587500D01*
X76334Y587514D01*
X75169Y587557D01*
X74006Y587629D01*
X72844Y587729D01*
X71685Y587857D01*
X70530Y588014D01*
X69379Y588199D01*
X68233Y588413D01*
X67093Y588654D01*
X65958Y588924D01*
X64831Y589221D01*
X63711Y589545D01*
X62600Y589897D01*
X61498Y590277D01*
X60405Y590683D01*
X59323Y591116D01*
X58251Y591575D01*
X57191Y592061D01*
X56143Y592572D01*
X55109Y593109D01*
X54087Y593671D01*
X53080Y594258D01*
X52088Y594869D01*
X51110Y595505D01*
X50149Y596165D01*
X49204Y596848D01*
X48276Y597554D01*
X47366Y598282D01*
X46474Y599033D01*
X45601Y599805D01*
X44747Y600598D01*
X43912Y601412D01*
X43098Y602247D01*
X42305Y603101D01*
X41533Y603974D01*
X40782Y604866D01*
X40054Y605776D01*
X39348Y606704D01*
X38665Y607649D01*
X38005Y608610D01*
X37369Y609588D01*
X36758Y610580D01*
X36171Y611587D01*
X35609Y612609D01*
X35072Y613643D01*
X34561Y614691D01*
X34075Y615751D01*
X33616Y616823D01*
X33183Y617905D01*
X32777Y618998D01*
X32397Y620100D01*
X32045Y621211D01*
X31721Y622331D01*
X31424Y623458D01*
X31154Y624593D01*
X30913Y625733D01*
X30699Y626879D01*
X30514Y628030D01*
X30357Y629185D01*
X30229Y630344D01*
X30129Y631506D01*
X30057Y632669D01*
X30014Y633834D01*
X30000Y635000D01*
X482500Y635000D02*
X482514Y636166D01*
X482557Y637331D01*
X482629Y638494D01*
X482729Y639656D01*
X482857Y640815D01*
X483014Y641970D01*
X483199Y643121D01*
X483413Y644267D01*
X483654Y645407D01*
X483924Y646542D01*
X484221Y647669D01*
X484545Y648789D01*
X484897Y649900D01*
X485277Y651002D01*
X485683Y652095D01*
X486116Y653177D01*
X486575Y654249D01*
X487061Y655309D01*
X487572Y656357D01*
X488109Y657391D01*
X488671Y658413D01*
X489258Y659420D01*
X489869Y660412D01*
X490505Y661390D01*
X491165Y662351D01*
X491848Y663296D01*
X492554Y664224D01*
X493282Y665134D01*
X494033Y666026D01*
X494805Y666899D01*
X495598Y667753D01*
X496412Y668588D01*
X497247Y669402D01*
X498101Y670195D01*
X498974Y670967D01*
X499866Y671718D01*
X500776Y672446D01*
X501704Y673152D01*
X502649Y673835D01*
X503610Y674495D01*
X504588Y675131D01*
X505580Y675742D01*
X506587Y676329D01*
X507609Y676891D01*
X508643Y677428D01*
X509691Y677939D01*
X510751Y678425D01*
X511823Y678884D01*
X512905Y679317D01*
X513998Y679723D01*
X515100Y680103D01*
X516211Y680455D01*
X517331Y680779D01*
X518458Y681076D01*
X519593Y681346D01*
X520733Y681587D01*
X521879Y681801D01*
X523030Y681986D01*
X524185Y682143D01*
X525344Y682271D01*
X526506Y682371D01*
X527669Y682443D01*
X528834Y682486D01*
X530000Y682500D01*
X531166Y682486D01*
X532331Y682443D01*
X533494Y682371D01*
X534656Y682271D01*
X535815Y682143D01*
X536970Y681986D01*
X538121Y681801D01*
X539267Y681587D01*
X540407Y681346D01*
X541542Y681076D01*
X542669Y680779D01*
X543789Y680455D01*
X544900Y680103D01*
X546002Y679723D01*
X547095Y679317D01*
X548177Y678884D01*
X549249Y678425D01*
X550309Y677939D01*
X551357Y677428D01*
X552391Y676891D01*
X553413Y676329D01*
X554420Y675742D01*
X555412Y675131D01*
X556390Y674495D01*
X557351Y673835D01*
X558296Y673152D01*
X559224Y672446D01*
X560134Y671718D01*
X561026Y670967D01*
X561899Y670195D01*
X562753Y669402D01*
X563588Y668588D01*
X564402Y667753D01*
X565195Y666899D01*
X565967Y666026D01*
X566718Y665134D01*
X567446Y664224D01*
X568152Y663296D01*
X568835Y662351D01*
X569495Y661390D01*
X570131Y660412D01*
X570742Y659420D01*
X571329Y658413D01*
X571891Y657391D01*
X572428Y656357D01*
X572939Y655309D01*
X573425Y654249D01*
X573884Y653177D01*
X574317Y652095D01*
X574723Y651002D01*
X575103Y649900D01*
X575455Y648789D01*
X575779Y647669D01*
X576076Y646542D01*
X576346Y645407D01*
X576587Y644267D01*
X576801Y643121D01*
X576986Y641970D01*
X577143Y640815D01*
X577271Y639656D01*
X577371Y638494D01*
X577443Y637331D01*
X577486Y636166D01*
X577500Y635000D01*
X577486Y633834D01*
X577443Y632669D01*
X577371Y631506D01*
X577271Y630344D01*
X577143Y629185D01*
X576986Y628030D01*
X576801Y626879D01*
X576587Y625733D01*
X576346Y624593D01*
X576076Y623458D01*
X575779Y622331D01*
X575455Y621211D01*
X575103Y620100D01*
X574723Y618998D01*
X574317Y617905D01*
X573884Y616823D01*
X573425Y615751D01*
X572939Y614691D01*
X572428Y613643D01*
X571891Y612609D01*
X571329Y611587D01*
X570742Y610580D01*
X570131Y609588D01*
X569495Y608610D01*
X568835Y607649D01*
X568152Y606704D01*
X567446Y605776D01*
X566718Y604866D01*
X565967Y603974D01*
X565195Y603101D01*
X564402Y602247D01*
X563588Y601412D01*
X562753Y600598D01*
X561899Y599805D01*
X561026Y599033D01*
X560134Y598282D01*
X559224Y597554D01*
X558296Y596848D01*
X557351Y596165D01*
X556390Y595505D01*
X555412Y594869D01*
X554420Y594258D01*
X553413Y593671D01*
X552391Y593109D01*
X551357Y592572D01*
X550309Y592061D01*
X549249Y591575D01*
X548177Y591116D01*
X547095Y590683D01*
X546002Y590277D01*
X544900Y589897D01*
X543789Y589545D01*
X542669Y589221D01*
X541542Y588924D01*
X540407Y588654D01*
X539267Y588413D01*
X538121Y588199D01*
X536970Y588014D01*
X535815Y587857D01*
X534656Y587729D01*
X533494Y587629D01*
X532331Y587557D01*
X531166Y587514D01*
X530000Y587500D01*
X528834Y587514D01*
X527669Y587557D01*
X526506Y587629D01*
X525344Y587729D01*
X524185Y587857D01*
X523030Y588014D01*
X521879Y588199D01*
X520733Y588413D01*
X519593Y588654D01*
X518458Y588924D01*
X517331Y589221D01*
X516211Y589545D01*
X515100Y589897D01*
X513998Y590277D01*
X512905Y590683D01*
X511823Y591116D01*
X510751Y591575D01*
X509691Y592061D01*
X508643Y592572D01*
X507609Y593109D01*
X506587Y593671D01*
X505580Y594258D01*
X504588Y594869D01*
X503610Y595505D01*
X502649Y596165D01*
X501704Y596848D01*
X500776Y597554D01*
X499866Y598282D01*
X498974Y599033D01*
X498101Y599805D01*
X497247Y600598D01*
X496412Y601412D01*
X495598Y602247D01*
X494805Y603101D01*
X494033Y603974D01*
X493282Y604866D01*
X492554Y605776D01*
X491848Y606704D01*
X491165Y607649D01*
X490505Y608610D01*
X489869Y609588D01*
X489258Y610580D01*
X488671Y611587D01*
X488109Y612609D01*
X487572Y613643D01*
X487061Y614691D01*
X486575Y615751D01*
X486116Y616823D01*
X485683Y617905D01*
X485277Y618998D01*
X484897Y620100D01*
X484545Y621211D01*
X484221Y622331D01*
X483924Y623458D01*
X483654Y624593D01*
X483413Y625733D01*
X483199Y626879D01*
X483014Y628030D01*
X482857Y629185D01*
X482729Y630344D01*
X482629Y631506D01*
X482557Y632669D01*
X482514Y633834D01*
X482500Y635000D01*
D12*
X606200Y-110000D02*
X0Y-110000D01*
X606200Y-110000D02*
X606200Y1175000D01*
X0Y1175000D01*
X0Y-110000D01*
D10*
X59000Y-80000D02*
X59005Y-79607D01*
X59019Y-79215D01*
X59043Y-78823D01*
X59077Y-78432D01*
X59120Y-78041D01*
X59173Y-77652D01*
X59236Y-77265D01*
X59307Y-76879D01*
X59389Y-76494D01*
X59479Y-76112D01*
X59580Y-75733D01*
X59689Y-75355D01*
X59808Y-74981D01*
X59935Y-74610D01*
X60072Y-74242D01*
X60218Y-73877D01*
X60373Y-73516D01*
X60536Y-73159D01*
X60708Y-72806D01*
X60889Y-72458D01*
X61079Y-72114D01*
X61276Y-71774D01*
X61482Y-71440D01*
X61696Y-71111D01*
X61919Y-70787D01*
X62149Y-70469D01*
X62386Y-70156D01*
X62632Y-69850D01*
X62885Y-69549D01*
X63145Y-69255D01*
X63412Y-68967D01*
X63686Y-68686D01*
X63967Y-68412D01*
X64255Y-68145D01*
X64549Y-67885D01*
X64850Y-67632D01*
X65156Y-67386D01*
X65469Y-67149D01*
X65787Y-66919D01*
X66111Y-66696D01*
X66440Y-66482D01*
X66774Y-66276D01*
X67114Y-66079D01*
X67458Y-65889D01*
X67806Y-65708D01*
X68159Y-65536D01*
X68516Y-65373D01*
X68877Y-65218D01*
X69242Y-65072D01*
X69610Y-64935D01*
X69981Y-64808D01*
X70355Y-64689D01*
X70733Y-64580D01*
X71112Y-64479D01*
X71494Y-64389D01*
X71879Y-64307D01*
X72265Y-64236D01*
X72652Y-64173D01*
X73041Y-64120D01*
X73432Y-64077D01*
X73823Y-64043D01*
X74215Y-64019D01*
X74607Y-64005D01*
X75000Y-64000D01*
X75393Y-64005D01*
X75785Y-64019D01*
X76177Y-64043D01*
X76568Y-64077D01*
X76959Y-64120D01*
X77348Y-64173D01*
X77735Y-64236D01*
X78121Y-64307D01*
X78506Y-64389D01*
X78888Y-64479D01*
X79267Y-64580D01*
X79645Y-64689D01*
X80019Y-64808D01*
X80390Y-64935D01*
X80758Y-65072D01*
X81123Y-65218D01*
X81484Y-65373D01*
X81841Y-65536D01*
X82194Y-65708D01*
X82542Y-65889D01*
X82886Y-66079D01*
X83226Y-66276D01*
X83560Y-66482D01*
X83889Y-66696D01*
X84213Y-66919D01*
X84531Y-67149D01*
X84844Y-67386D01*
X85150Y-67632D01*
X85451Y-67885D01*
X85745Y-68145D01*
X86033Y-68412D01*
X86314Y-68686D01*
X86588Y-68967D01*
X86855Y-69255D01*
X87115Y-69549D01*
X87368Y-69850D01*
X87614Y-70156D01*
X87851Y-70469D01*
X88081Y-70787D01*
X88304Y-71111D01*
X88518Y-71440D01*
X88724Y-71774D01*
X88921Y-72114D01*
X89111Y-72458D01*
X89292Y-72806D01*
X89464Y-73159D01*
X89627Y-73516D01*
X89782Y-73877D01*
X89928Y-74242D01*
X90065Y-74610D01*
X90192Y-74981D01*
X90311Y-75355D01*
X90420Y-75733D01*
X90521Y-76112D01*
X90611Y-76494D01*
X90693Y-76879D01*
X90764Y-77265D01*
X90827Y-77652D01*
X90880Y-78041D01*
X90923Y-78432D01*
X90957Y-78823D01*
X90981Y-79215D01*
X90995Y-79607D01*
X91000Y-80000D01*
X90995Y-80393D01*
X90981Y-80785D01*
X90957Y-81177D01*
X90923Y-81568D01*
X90880Y-81959D01*
X90827Y-82348D01*
X90764Y-82735D01*
X90693Y-83121D01*
X90611Y-83506D01*
X90521Y-83888D01*
X90420Y-84267D01*
X90311Y-84645D01*
X90192Y-85019D01*
X90065Y-85390D01*
X89928Y-85758D01*
X89782Y-86123D01*
X89627Y-86484D01*
X89464Y-86841D01*
X89292Y-87194D01*
X89111Y-87542D01*
X88921Y-87886D01*
X88724Y-88226D01*
X88518Y-88560D01*
X88304Y-88889D01*
X88081Y-89213D01*
X87851Y-89531D01*
X87614Y-89844D01*
X87368Y-90150D01*
X87115Y-90451D01*
X86855Y-90745D01*
X86588Y-91033D01*
X86314Y-91314D01*
X86033Y-91588D01*
X85745Y-91855D01*
X85451Y-92115D01*
X85150Y-92368D01*
X84844Y-92614D01*
X84531Y-92851D01*
X84213Y-93081D01*
X83889Y-93304D01*
X83560Y-93518D01*
X83226Y-93724D01*
X82886Y-93921D01*
X82542Y-94111D01*
X82194Y-94292D01*
X81841Y-94464D01*
X81484Y-94627D01*
X81123Y-94782D01*
X80758Y-94928D01*
X80390Y-95065D01*
X80019Y-95192D01*
X79645Y-95311D01*
X79267Y-95420D01*
X78888Y-95521D01*
X78506Y-95611D01*
X78121Y-95693D01*
X77735Y-95764D01*
X77348Y-95827D01*
X76959Y-95880D01*
X76568Y-95923D01*
X76177Y-95957D01*
X75785Y-95981D01*
X75393Y-95995D01*
X75000Y-96000D01*
X74607Y-95995D01*
X74215Y-95981D01*
X73823Y-95957D01*
X73432Y-95923D01*
X73041Y-95880D01*
X72652Y-95827D01*
X72265Y-95764D01*
X71879Y-95693D01*
X71494Y-95611D01*
X71112Y-95521D01*
X70733Y-95420D01*
X70355Y-95311D01*
X69981Y-95192D01*
X69610Y-95065D01*
X69242Y-94928D01*
X68877Y-94782D01*
X68516Y-94627D01*
X68159Y-94464D01*
X67806Y-94292D01*
X67458Y-94111D01*
X67114Y-93921D01*
X66774Y-93724D01*
X66440Y-93518D01*
X66111Y-93304D01*
X65787Y-93081D01*
X65469Y-92851D01*
X65156Y-92614D01*
X64850Y-92368D01*
X64549Y-92115D01*
X64255Y-91855D01*
X63967Y-91588D01*
X63686Y-91314D01*
X63412Y-91033D01*
X63145Y-90745D01*
X62885Y-90451D01*
X62632Y-90150D01*
X62386Y-89844D01*
X62149Y-89531D01*
X61919Y-89213D01*
X61696Y-88889D01*
X61482Y-88560D01*
X61276Y-88226D01*
X61079Y-87886D01*
X60889Y-87542D01*
X60708Y-87194D01*
X60536Y-86841D01*
X60373Y-86484D01*
X60218Y-86123D01*
X60072Y-85758D01*
X59935Y-85390D01*
X59808Y-85019D01*
X59689Y-84645D01*
X59580Y-84267D01*
X59479Y-83888D01*
X59389Y-83506D01*
X59307Y-83121D01*
X59236Y-82735D01*
X59173Y-82348D01*
X59120Y-81959D01*
X59077Y-81568D01*
X59043Y-81177D01*
X59019Y-80785D01*
X59005Y-80393D01*
X59000Y-80000D01*
X59000Y1145000D02*
X59005Y1145393D01*
X59019Y1145785D01*
X59043Y1146177D01*
X59077Y1146568D01*
X59120Y1146959D01*
X59173Y1147348D01*
X59236Y1147735D01*
X59307Y1148121D01*
X59389Y1148506D01*
X59479Y1148888D01*
X59580Y1149267D01*
X59689Y1149645D01*
X59808Y1150019D01*
X59935Y1150390D01*
X60072Y1150758D01*
X60218Y1151123D01*
X60373Y1151484D01*
X60536Y1151841D01*
X60708Y1152194D01*
X60889Y1152542D01*
X61079Y1152886D01*
X61276Y1153226D01*
X61482Y1153560D01*
X61696Y1153889D01*
X61919Y1154213D01*
X62149Y1154531D01*
X62386Y1154844D01*
X62632Y1155150D01*
X62885Y1155451D01*
X63145Y1155745D01*
X63412Y1156033D01*
X63686Y1156314D01*
X63967Y1156588D01*
X64255Y1156855D01*
X64549Y1157115D01*
X64850Y1157368D01*
X65156Y1157614D01*
X65469Y1157851D01*
X65787Y1158081D01*
X66111Y1158304D01*
X66440Y1158518D01*
X66774Y1158724D01*
X67114Y1158921D01*
X67458Y1159111D01*
X67806Y1159292D01*
X68159Y1159464D01*
X68516Y1159627D01*
X68877Y1159782D01*
X69242Y1159928D01*
X69610Y1160065D01*
X69981Y1160192D01*
X70355Y1160311D01*
X70733Y1160420D01*
X71112Y1160521D01*
X71494Y1160611D01*
X71879Y1160693D01*
X72265Y1160764D01*
X72652Y1160827D01*
X73041Y1160880D01*
X73432Y1160923D01*
X73823Y1160957D01*
X74215Y1160981D01*
X74607Y1160995D01*
X75000Y1161000D01*
X75393Y1160995D01*
X75785Y1160981D01*
X76177Y1160957D01*
X76568Y1160923D01*
X76959Y1160880D01*
X77348Y1160827D01*
X77735Y1160764D01*
X78121Y1160693D01*
X78506Y1160611D01*
X78888Y1160521D01*
X79267Y1160420D01*
X79645Y1160311D01*
X80019Y1160192D01*
X80390Y1160065D01*
X80758Y1159928D01*
X81123Y1159782D01*
X81484Y1159627D01*
X81841Y1159464D01*
X82194Y1159292D01*
X82542Y1159111D01*
X82886Y1158921D01*
X83226Y1158724D01*
X83560Y1158518D01*
X83889Y1158304D01*
X84213Y1158081D01*
X84531Y1157851D01*
X84844Y1157614D01*
X85150Y1157368D01*
X85451Y1157115D01*
X85745Y1156855D01*
X86033Y1156588D01*
X86314Y1156314D01*
X86588Y1156033D01*
X86855Y1155745D01*
X87115Y1155451D01*
X87368Y1155150D01*
X87614Y1154844D01*
X87851Y1154531D01*
X88081Y1154213D01*
X88304Y1153889D01*
X88518Y1153560D01*
X88724Y1153226D01*
X88921Y1152886D01*
X89111Y1152542D01*
X89292Y1152194D01*
X89464Y1151841D01*
X89627Y1151484D01*
X89782Y1151123D01*
X89928Y1150758D01*
X90065Y1150390D01*
X90192Y1150019D01*
X90311Y1149645D01*
X90420Y1149267D01*
X90521Y1148888D01*
X90611Y1148506D01*
X90693Y1148121D01*
X90764Y1147735D01*
X90827Y1147348D01*
X90880Y1146959D01*
X90923Y1146568D01*
X90957Y1146177D01*
X90981Y1145785D01*
X90995Y1145393D01*
X91000Y1145000D01*
X90995Y1144607D01*
X90981Y1144215D01*
X90957Y1143823D01*
X90923Y1143432D01*
X90880Y1143041D01*
X90827Y1142652D01*
X90764Y1142265D01*
X90693Y1141879D01*
X90611Y1141494D01*
X90521Y1141112D01*
X90420Y1140733D01*
X90311Y1140355D01*
X90192Y1139981D01*
X90065Y1139610D01*
X89928Y1139242D01*
X89782Y1138877D01*
X89627Y1138516D01*
X89464Y1138159D01*
X89292Y1137806D01*
X89111Y1137458D01*
X88921Y1137114D01*
X88724Y1136774D01*
X88518Y1136440D01*
X88304Y1136111D01*
X88081Y1135787D01*
X87851Y1135469D01*
X87614Y1135156D01*
X87368Y1134850D01*
X87115Y1134549D01*
X86855Y1134255D01*
X86588Y1133967D01*
X86314Y1133686D01*
X86033Y1133412D01*
X85745Y1133145D01*
X85451Y1132885D01*
X85150Y1132632D01*
X84844Y1132386D01*
X84531Y1132149D01*
X84213Y1131919D01*
X83889Y1131696D01*
X83560Y1131482D01*
X83226Y1131276D01*
X82886Y1131079D01*
X82542Y1130889D01*
X82194Y1130708D01*
X81841Y1130536D01*
X81484Y1130373D01*
X81123Y1130218D01*
X80758Y1130072D01*
X80390Y1129935D01*
X80019Y1129808D01*
X79645Y1129689D01*
X79267Y1129580D01*
X78888Y1129479D01*
X78506Y1129389D01*
X78121Y1129307D01*
X77735Y1129236D01*
X77348Y1129173D01*
X76959Y1129120D01*
X76568Y1129077D01*
X76177Y1129043D01*
X75785Y1129019D01*
X75393Y1129005D01*
X75000Y1129000D01*
X74607Y1129005D01*
X74215Y1129019D01*
X73823Y1129043D01*
X73432Y1129077D01*
X73041Y1129120D01*
X72652Y1129173D01*
X72265Y1129236D01*
X71879Y1129307D01*
X71494Y1129389D01*
X71112Y1129479D01*
X70733Y1129580D01*
X70355Y1129689D01*
X69981Y1129808D01*
X69610Y1129935D01*
X69242Y1130072D01*
X68877Y1130218D01*
X68516Y1130373D01*
X68159Y1130536D01*
X67806Y1130708D01*
X67458Y1130889D01*
X67114Y1131079D01*
X66774Y1131276D01*
X66440Y1131482D01*
X66111Y1131696D01*
X65787Y1131919D01*
X65469Y1132149D01*
X65156Y1132386D01*
X64850Y1132632D01*
X64549Y1132885D01*
X64255Y1133145D01*
X63967Y1133412D01*
X63686Y1133686D01*
X63412Y1133967D01*
X63145Y1134255D01*
X62885Y1134549D01*
X62632Y1134850D01*
X62386Y1135156D01*
X62149Y1135469D01*
X61919Y1135787D01*
X61696Y1136111D01*
X61482Y1136440D01*
X61276Y1136774D01*
X61079Y1137114D01*
X60889Y1137458D01*
X60708Y1137806D01*
X60536Y1138159D01*
X60373Y1138516D01*
X60218Y1138877D01*
X60072Y1139242D01*
X59935Y1139610D01*
X59808Y1139981D01*
X59689Y1140355D01*
X59580Y1140733D01*
X59479Y1141112D01*
X59389Y1141494D01*
X59307Y1141879D01*
X59236Y1142265D01*
X59173Y1142652D01*
X59120Y1143041D01*
X59077Y1143432D01*
X59043Y1143823D01*
X59019Y1144215D01*
X59005Y1144607D01*
X59000Y1145000D01*
X516200Y-80000D02*
X516205Y-79607D01*
X516219Y-79215D01*
X516243Y-78823D01*
X516277Y-78432D01*
X516320Y-78041D01*
X516373Y-77652D01*
X516436Y-77265D01*
X516507Y-76879D01*
X516589Y-76494D01*
X516679Y-76112D01*
X516780Y-75733D01*
X516889Y-75355D01*
X517008Y-74981D01*
X517135Y-74610D01*
X517272Y-74242D01*
X517418Y-73877D01*
X517573Y-73516D01*
X517736Y-73159D01*
X517908Y-72806D01*
X518089Y-72458D01*
X518279Y-72114D01*
X518476Y-71774D01*
X518682Y-71440D01*
X518896Y-71111D01*
X519119Y-70787D01*
X519349Y-70469D01*
X519586Y-70156D01*
X519832Y-69850D01*
X520085Y-69549D01*
X520345Y-69255D01*
X520612Y-68967D01*
X520886Y-68686D01*
X521167Y-68412D01*
X521455Y-68145D01*
X521749Y-67885D01*
X522050Y-67632D01*
X522356Y-67386D01*
X522669Y-67149D01*
X522987Y-66919D01*
X523311Y-66696D01*
X523640Y-66482D01*
X523974Y-66276D01*
X524314Y-66079D01*
X524658Y-65889D01*
X525006Y-65708D01*
X525359Y-65536D01*
X525716Y-65373D01*
X526077Y-65218D01*
X526442Y-65072D01*
X526810Y-64935D01*
X527181Y-64808D01*
X527555Y-64689D01*
X527933Y-64580D01*
X528312Y-64479D01*
X528694Y-64389D01*
X529079Y-64307D01*
X529465Y-64236D01*
X529852Y-64173D01*
X530241Y-64120D01*
X530632Y-64077D01*
X531023Y-64043D01*
X531415Y-64019D01*
X531807Y-64005D01*
X532200Y-64000D01*
X532593Y-64005D01*
X532985Y-64019D01*
X533377Y-64043D01*
X533768Y-64077D01*
X534159Y-64120D01*
X534548Y-64173D01*
X534935Y-64236D01*
X535321Y-64307D01*
X535706Y-64389D01*
X536088Y-64479D01*
X536467Y-64580D01*
X536845Y-64689D01*
X537219Y-64808D01*
X537590Y-64935D01*
X537958Y-65072D01*
X538323Y-65218D01*
X538684Y-65373D01*
X539041Y-65536D01*
X539394Y-65708D01*
X539742Y-65889D01*
X540086Y-66079D01*
X540426Y-66276D01*
X540760Y-66482D01*
X541089Y-66696D01*
X541413Y-66919D01*
X541731Y-67149D01*
X542044Y-67386D01*
X542350Y-67632D01*
X542651Y-67885D01*
X542945Y-68145D01*
X543233Y-68412D01*
X543514Y-68686D01*
X543788Y-68967D01*
X544055Y-69255D01*
X544315Y-69549D01*
X544568Y-69850D01*
X544814Y-70156D01*
X545051Y-70469D01*
X545281Y-70787D01*
X545504Y-71111D01*
X545718Y-71440D01*
X545924Y-71774D01*
X546121Y-72114D01*
X546311Y-72458D01*
X546492Y-72806D01*
X546664Y-73159D01*
X546827Y-73516D01*
X546982Y-73877D01*
X547128Y-74242D01*
X547265Y-74610D01*
X547392Y-74981D01*
X547511Y-75355D01*
X547620Y-75733D01*
X547721Y-76112D01*
X547811Y-76494D01*
X547893Y-76879D01*
X547964Y-77265D01*
X548027Y-77652D01*
X548080Y-78041D01*
X548123Y-78432D01*
X548157Y-78823D01*
X548181Y-79215D01*
X548195Y-79607D01*
X548200Y-80000D01*
X548195Y-80393D01*
X548181Y-80785D01*
X548157Y-81177D01*
X548123Y-81568D01*
X548080Y-81959D01*
X548027Y-82348D01*
X547964Y-82735D01*
X547893Y-83121D01*
X547811Y-83506D01*
X547721Y-83888D01*
X547620Y-84267D01*
X547511Y-84645D01*
X547392Y-85019D01*
X547265Y-85390D01*
X547128Y-85758D01*
X546982Y-86123D01*
X546827Y-86484D01*
X546664Y-86841D01*
X546492Y-87194D01*
X546311Y-87542D01*
X546121Y-87886D01*
X545924Y-88226D01*
X545718Y-88560D01*
X545504Y-88889D01*
X545281Y-89213D01*
X545051Y-89531D01*
X544814Y-89844D01*
X544568Y-90150D01*
X544315Y-90451D01*
X544055Y-90745D01*
X543788Y-91033D01*
X543514Y-91314D01*
X543233Y-91588D01*
X542945Y-91855D01*
X542651Y-92115D01*
X542350Y-92368D01*
X542044Y-92614D01*
X541731Y-92851D01*
X541413Y-93081D01*
X541089Y-93304D01*
X540760Y-93518D01*
X540426Y-93724D01*
X540086Y-93921D01*
X539742Y-94111D01*
X539394Y-94292D01*
X539041Y-94464D01*
X538684Y-94627D01*
X538323Y-94782D01*
X537958Y-94928D01*
X537590Y-95065D01*
X537219Y-95192D01*
X536845Y-95311D01*
X536467Y-95420D01*
X536088Y-95521D01*
X535706Y-95611D01*
X535321Y-95693D01*
X534935Y-95764D01*
X534548Y-95827D01*
X534159Y-95880D01*
X533768Y-95923D01*
X533377Y-95957D01*
X532985Y-95981D01*
X532593Y-95995D01*
X532200Y-96000D01*
X531807Y-95995D01*
X531415Y-95981D01*
X531023Y-95957D01*
X530632Y-95923D01*
X530241Y-95880D01*
X529852Y-95827D01*
X529465Y-95764D01*
X529079Y-95693D01*
X528694Y-95611D01*
X528312Y-95521D01*
X527933Y-95420D01*
X527555Y-95311D01*
X527181Y-95192D01*
X526810Y-95065D01*
X526442Y-94928D01*
X526077Y-94782D01*
X525716Y-94627D01*
X525359Y-94464D01*
X525006Y-94292D01*
X524658Y-94111D01*
X524314Y-93921D01*
X523974Y-93724D01*
X523640Y-93518D01*
X523311Y-93304D01*
X522987Y-93081D01*
X522669Y-92851D01*
X522356Y-92614D01*
X522050Y-92368D01*
X521749Y-92115D01*
X521455Y-91855D01*
X521167Y-91588D01*
X520886Y-91314D01*
X520612Y-91033D01*
X520345Y-90745D01*
X520085Y-90451D01*
X519832Y-90150D01*
X519586Y-89844D01*
X519349Y-89531D01*
X519119Y-89213D01*
X518896Y-88889D01*
X518682Y-88560D01*
X518476Y-88226D01*
X518279Y-87886D01*
X518089Y-87542D01*
X517908Y-87194D01*
X517736Y-86841D01*
X517573Y-86484D01*
X517418Y-86123D01*
X517272Y-85758D01*
X517135Y-85390D01*
X517008Y-85019D01*
X516889Y-84645D01*
X516780Y-84267D01*
X516679Y-83888D01*
X516589Y-83506D01*
X516507Y-83121D01*
X516436Y-82735D01*
X516373Y-82348D01*
X516320Y-81959D01*
X516277Y-81568D01*
X516243Y-81177D01*
X516219Y-80785D01*
X516205Y-80393D01*
X516200Y-80000D01*
X516200Y1145000D02*
X516205Y1145393D01*
X516219Y1145785D01*
X516243Y1146177D01*
X516277Y1146568D01*
X516320Y1146959D01*
X516373Y1147348D01*
X516436Y1147735D01*
X516507Y1148121D01*
X516589Y1148506D01*
X516679Y1148888D01*
X516780Y1149267D01*
X516889Y1149645D01*
X517008Y1150019D01*
X517135Y1150390D01*
X517272Y1150758D01*
X517418Y1151123D01*
X517573Y1151484D01*
X517736Y1151841D01*
X517908Y1152194D01*
X518089Y1152542D01*
X518279Y1152886D01*
X518476Y1153226D01*
X518682Y1153560D01*
X518896Y1153889D01*
X519119Y1154213D01*
X519349Y1154531D01*
X519586Y1154844D01*
X519832Y1155150D01*
X520085Y1155451D01*
X520345Y1155745D01*
X520612Y1156033D01*
X520886Y1156314D01*
X521167Y1156588D01*
X521455Y1156855D01*
X521749Y1157115D01*
X522050Y1157368D01*
X522356Y1157614D01*
X522669Y1157851D01*
X522987Y1158081D01*
X523311Y1158304D01*
X523640Y1158518D01*
X523974Y1158724D01*
X524314Y1158921D01*
X524658Y1159111D01*
X525006Y1159292D01*
X525359Y1159464D01*
X525716Y1159627D01*
X526077Y1159782D01*
X526442Y1159928D01*
X526810Y1160065D01*
X527181Y1160192D01*
X527555Y1160311D01*
X527933Y1160420D01*
X528312Y1160521D01*
X528694Y1160611D01*
X529079Y1160693D01*
X529465Y1160764D01*
X529852Y1160827D01*
X530241Y1160880D01*
X530632Y1160923D01*
X531023Y1160957D01*
X531415Y1160981D01*
X531807Y1160995D01*
X532200Y1161000D01*
X532593Y1160995D01*
X532985Y1160981D01*
X533377Y1160957D01*
X533768Y1160923D01*
X534159Y1160880D01*
X534548Y1160827D01*
X534935Y1160764D01*
X535321Y1160693D01*
X535706Y1160611D01*
X536088Y1160521D01*
X536467Y1160420D01*
X536845Y1160311D01*
X537219Y1160192D01*
X537590Y1160065D01*
X537958Y1159928D01*
X538323Y1159782D01*
X538684Y1159627D01*
X539041Y1159464D01*
X539394Y1159292D01*
X539742Y1159111D01*
X540086Y1158921D01*
X540426Y1158724D01*
X540760Y1158518D01*
X541089Y1158304D01*
X541413Y1158081D01*
X541731Y1157851D01*
X542044Y1157614D01*
X542350Y1157368D01*
X542651Y1157115D01*
X542945Y1156855D01*
X543233Y1156588D01*
X543514Y1156314D01*
X543788Y1156033D01*
X544055Y1155745D01*
X544315Y1155451D01*
X544568Y1155150D01*
X544814Y1154844D01*
X545051Y1154531D01*
X545281Y1154213D01*
X545504Y1153889D01*
X545718Y1153560D01*
X545924Y1153226D01*
X546121Y1152886D01*
X546311Y1152542D01*
X546492Y1152194D01*
X546664Y1151841D01*
X546827Y1151484D01*
X546982Y1151123D01*
X547128Y1150758D01*
X547265Y1150390D01*
X547392Y1150019D01*
X547511Y1149645D01*
X547620Y1149267D01*
X547721Y1148888D01*
X547811Y1148506D01*
X547893Y1148121D01*
X547964Y1147735D01*
X548027Y1147348D01*
X548080Y1146959D01*
X548123Y1146568D01*
X548157Y1146177D01*
X548181Y1145785D01*
X548195Y1145393D01*
X548200Y1145000D01*
X548195Y1144607D01*
X548181Y1144215D01*
X548157Y1143823D01*
X548123Y1143432D01*
X548080Y1143041D01*
X548027Y1142652D01*
X547964Y1142265D01*
X547893Y1141879D01*
X547811Y1141494D01*
X547721Y1141112D01*
X547620Y1140733D01*
X547511Y1140355D01*
X547392Y1139981D01*
X547265Y1139610D01*
X547128Y1139242D01*
X546982Y1138877D01*
X546827Y1138516D01*
X546664Y1138159D01*
X546492Y1137806D01*
X546311Y1137458D01*
X546121Y1137114D01*
X545924Y1136774D01*
X545718Y1136440D01*
X545504Y1136111D01*
X545281Y1135787D01*
X545051Y1135469D01*
X544814Y1135156D01*
X544568Y1134850D01*
X544315Y1134549D01*
X544055Y1134255D01*
X543788Y1133967D01*
X543514Y1133686D01*
X543233Y1133412D01*
X542945Y1133145D01*
X542651Y1132885D01*
X542350Y1132632D01*
X542044Y1132386D01*
X541731Y1132149D01*
X541413Y1131919D01*
X541089Y1131696D01*
X540760Y1131482D01*
X540426Y1131276D01*
X540086Y1131079D01*
X539742Y1130889D01*
X539394Y1130708D01*
X539041Y1130536D01*
X538684Y1130373D01*
X538323Y1130218D01*
X537958Y1130072D01*
X537590Y1129935D01*
X537219Y1129808D01*
X536845Y1129689D01*
X536467Y1129580D01*
X536088Y1129479D01*
X535706Y1129389D01*
X535321Y1129307D01*
X534935Y1129236D01*
X534548Y1129173D01*
X534159Y1129120D01*
X533768Y1129077D01*
X533377Y1129043D01*
X532985Y1129019D01*
X532593Y1129005D01*
X532200Y1129000D01*
X531807Y1129005D01*
X531415Y1129019D01*
X531023Y1129043D01*
X530632Y1129077D01*
X530241Y1129120D01*
X529852Y1129173D01*
X529465Y1129236D01*
X529079Y1129307D01*
X528694Y1129389D01*
X528312Y1129479D01*
X527933Y1129580D01*
X527555Y1129689D01*
X527181Y1129808D01*
X526810Y1129935D01*
X526442Y1130072D01*
X526077Y1130218D01*
X525716Y1130373D01*
X525359Y1130536D01*
X525006Y1130708D01*
X524658Y1130889D01*
X524314Y1131079D01*
X523974Y1131276D01*
X523640Y1131482D01*
X523311Y1131696D01*
X522987Y1131919D01*
X522669Y1132149D01*
X522356Y1132386D01*
X522050Y1132632D01*
X521749Y1132885D01*
X521455Y1133145D01*
X521167Y1133412D01*
X520886Y1133686D01*
X520612Y1133967D01*
X520345Y1134255D01*
X520085Y1134549D01*
X519832Y1134850D01*
X519586Y1135156D01*
X519349Y1135469D01*
X519119Y1135787D01*
X518896Y1136111D01*
X518682Y1136440D01*
X518476Y1136774D01*
X518279Y1137114D01*
X518089Y1137458D01*
X517908Y1137806D01*
X517736Y1138159D01*
X517573Y1138516D01*
X517418Y1138877D01*
X517272Y1139242D01*
X517135Y1139610D01*
X517008Y1139981D01*
X516889Y1140355D01*
X516780Y1140733D01*
X516679Y1141112D01*
X516589Y1141494D01*
X516507Y1141879D01*
X516436Y1142265D01*
X516373Y1142652D01*
X516320Y1143041D01*
X516277Y1143432D01*
X516243Y1143823D01*
X516219Y1144215D01*
X516205Y1144607D01*
X516200Y1145000D01*
D13*
X460850Y966500D02*
X146650Y966500D01*
X146650Y799500D01*
X460850Y799500D01*
X460850Y966500D01*
X440750Y720000D02*
X440755Y720368D01*
X440768Y720736D01*
X440791Y721103D01*
X440822Y721470D01*
X440863Y721836D01*
X440912Y722201D01*
X440971Y722564D01*
X441038Y722926D01*
X441114Y723287D01*
X441200Y723645D01*
X441293Y724001D01*
X441396Y724354D01*
X441507Y724705D01*
X441627Y725053D01*
X441755Y725398D01*
X441892Y725740D01*
X442037Y726079D01*
X442190Y726413D01*
X442352Y726744D01*
X442521Y727071D01*
X442699Y727393D01*
X442884Y727712D01*
X443077Y728025D01*
X443278Y728334D01*
X443486Y728637D01*
X443702Y728935D01*
X443925Y729228D01*
X444155Y729516D01*
X444392Y729798D01*
X444636Y730073D01*
X444886Y730343D01*
X445143Y730607D01*
X445407Y730864D01*
X445677Y731114D01*
X445952Y731358D01*
X446234Y731595D01*
X446522Y731825D01*
X446815Y732048D01*
X447113Y732264D01*
X447416Y732472D01*
X447725Y732673D01*
X448038Y732866D01*
X448357Y733051D01*
X448679Y733229D01*
X449006Y733398D01*
X449337Y733560D01*
X449671Y733713D01*
X450010Y733858D01*
X450352Y733995D01*
X450697Y734123D01*
X451045Y734243D01*
X451396Y734354D01*
X451749Y734457D01*
X452105Y734550D01*
X452463Y734636D01*
X452824Y734712D01*
X453186Y734779D01*
X453549Y734838D01*
X453914Y734887D01*
X454280Y734928D01*
X454647Y734959D01*
X455014Y734982D01*
X455382Y734995D01*
X455750Y735000D01*
X456118Y734995D01*
X456486Y734982D01*
X456853Y734959D01*
X457220Y734928D01*
X457586Y734887D01*
X457951Y734838D01*
X458314Y734779D01*
X458676Y734712D01*
X459037Y734636D01*
X459395Y734550D01*
X459751Y734457D01*
X460104Y734354D01*
X460455Y734243D01*
X460803Y734123D01*
X461148Y733995D01*
X461490Y733858D01*
X461829Y733713D01*
X462163Y733560D01*
X462494Y733398D01*
X462821Y733229D01*
X463143Y733051D01*
X463462Y732866D01*
X463775Y732673D01*
X464084Y732472D01*
X464387Y732264D01*
X464685Y732048D01*
X464978Y731825D01*
X465266Y731595D01*
X465548Y731358D01*
X465823Y731114D01*
X466093Y730864D01*
X466357Y730607D01*
X466614Y730343D01*
X466864Y730073D01*
X467108Y729798D01*
X467345Y729516D01*
X467575Y729228D01*
X467798Y728935D01*
X468014Y728637D01*
X468222Y728334D01*
X468423Y728025D01*
X468616Y727712D01*
X468801Y727393D01*
X468979Y727071D01*
X469148Y726744D01*
X469310Y726413D01*
X469463Y726079D01*
X469608Y725740D01*
X469745Y725398D01*
X469873Y725053D01*
X469993Y724705D01*
X470104Y724354D01*
X470207Y724001D01*
X470300Y723645D01*
X470386Y723287D01*
X470462Y722926D01*
X470529Y722564D01*
X470588Y722201D01*
X470637Y721836D01*
X470678Y721470D01*
X470709Y721103D01*
X470732Y720736D01*
X470745Y720368D01*
X470750Y720000D01*
X470745Y719632D01*
X470732Y719264D01*
X470709Y718897D01*
X470678Y718530D01*
X470637Y718164D01*
X470588Y717799D01*
X470529Y717436D01*
X470462Y717074D01*
X470386Y716713D01*
X470300Y716355D01*
X470207Y715999D01*
X470104Y715646D01*
X469993Y715295D01*
X469873Y714947D01*
X469745Y714602D01*
X469608Y714260D01*
X469463Y713921D01*
X469310Y713587D01*
X469148Y713256D01*
X468979Y712929D01*
X468801Y712607D01*
X468616Y712288D01*
X468423Y711975D01*
X468222Y711666D01*
X468014Y711363D01*
X467798Y711065D01*
X467575Y710772D01*
X467345Y710484D01*
X467108Y710202D01*
X466864Y709927D01*
X466614Y709657D01*
X466357Y709393D01*
X466093Y709136D01*
X465823Y708886D01*
X465548Y708642D01*
X465266Y708405D01*
X464978Y708175D01*
X464685Y707952D01*
X464387Y707736D01*
X464084Y707528D01*
X463775Y707327D01*
X463462Y707134D01*
X463143Y706949D01*
X462821Y706771D01*
X462494Y706602D01*
X462163Y706440D01*
X461829Y706287D01*
X461490Y706142D01*
X461148Y706005D01*
X460803Y705877D01*
X460455Y705757D01*
X460104Y705646D01*
X459751Y705543D01*
X459395Y705450D01*
X459037Y705364D01*
X458676Y705288D01*
X458314Y705221D01*
X457951Y705162D01*
X457586Y705113D01*
X457220Y705072D01*
X456853Y705041D01*
X456486Y705018D01*
X456118Y705005D01*
X455750Y705000D01*
X455382Y705005D01*
X455014Y705018D01*
X454647Y705041D01*
X454280Y705072D01*
X453914Y705113D01*
X453549Y705162D01*
X453186Y705221D01*
X452824Y705288D01*
X452463Y705364D01*
X452105Y705450D01*
X451749Y705543D01*
X451396Y705646D01*
X451045Y705757D01*
X450697Y705877D01*
X450352Y706005D01*
X450010Y706142D01*
X449671Y706287D01*
X449337Y706440D01*
X449006Y706602D01*
X448679Y706771D01*
X448357Y706949D01*
X448038Y707134D01*
X447725Y707327D01*
X447416Y707528D01*
X447113Y707736D01*
X446815Y707952D01*
X446522Y708175D01*
X446234Y708405D01*
X445952Y708642D01*
X445677Y708886D01*
X445407Y709136D01*
X445143Y709393D01*
X444886Y709657D01*
X444636Y709927D01*
X444392Y710202D01*
X444155Y710484D01*
X443925Y710772D01*
X443702Y711065D01*
X443486Y711363D01*
X443278Y711666D01*
X443077Y711975D01*
X442884Y712288D01*
X442699Y712607D01*
X442521Y712929D01*
X442352Y713256D01*
X442190Y713587D01*
X442037Y713921D01*
X441892Y714260D01*
X441755Y714602D01*
X441627Y714947D01*
X441507Y715295D01*
X441396Y715646D01*
X441293Y715999D01*
X441200Y716355D01*
X441114Y716713D01*
X441038Y717074D01*
X440971Y717436D01*
X440912Y717799D01*
X440863Y718164D01*
X440822Y718530D01*
X440791Y718897D01*
X440768Y719264D01*
X440755Y719632D01*
X440750Y720000D01*
X136750Y720000D02*
X136755Y720368D01*
X136768Y720736D01*
X136791Y721103D01*
X136822Y721470D01*
X136863Y721836D01*
X136912Y722201D01*
X136971Y722564D01*
X137038Y722926D01*
X137114Y723287D01*
X137200Y723645D01*
X137293Y724001D01*
X137396Y724354D01*
X137507Y724705D01*
X137627Y725053D01*
X137755Y725398D01*
X137892Y725740D01*
X138037Y726079D01*
X138190Y726413D01*
X138352Y726744D01*
X138521Y727071D01*
X138699Y727393D01*
X138884Y727712D01*
X139077Y728025D01*
X139278Y728334D01*
X139486Y728637D01*
X139702Y728935D01*
X139925Y729228D01*
X140155Y729516D01*
X140392Y729798D01*
X140636Y730073D01*
X140886Y730343D01*
X141143Y730607D01*
X141407Y730864D01*
X141677Y731114D01*
X141952Y731358D01*
X142234Y731595D01*
X142522Y731825D01*
X142815Y732048D01*
X143113Y732264D01*
X143416Y732472D01*
X143725Y732673D01*
X144038Y732866D01*
X144357Y733051D01*
X144679Y733229D01*
X145006Y733398D01*
X145337Y733560D01*
X145671Y733713D01*
X146010Y733858D01*
X146352Y733995D01*
X146697Y734123D01*
X147045Y734243D01*
X147396Y734354D01*
X147749Y734457D01*
X148105Y734550D01*
X148463Y734636D01*
X148824Y734712D01*
X149186Y734779D01*
X149549Y734838D01*
X149914Y734887D01*
X150280Y734928D01*
X150647Y734959D01*
X151014Y734982D01*
X151382Y734995D01*
X151750Y735000D01*
X152118Y734995D01*
X152486Y734982D01*
X152853Y734959D01*
X153220Y734928D01*
X153586Y734887D01*
X153951Y734838D01*
X154314Y734779D01*
X154676Y734712D01*
X155037Y734636D01*
X155395Y734550D01*
X155751Y734457D01*
X156104Y734354D01*
X156455Y734243D01*
X156803Y734123D01*
X157148Y733995D01*
X157490Y733858D01*
X157829Y733713D01*
X158163Y733560D01*
X158494Y733398D01*
X158821Y733229D01*
X159143Y733051D01*
X159462Y732866D01*
X159775Y732673D01*
X160084Y732472D01*
X160387Y732264D01*
X160685Y732048D01*
X160978Y731825D01*
X161266Y731595D01*
X161548Y731358D01*
X161823Y731114D01*
X162093Y730864D01*
X162357Y730607D01*
X162614Y730343D01*
X162864Y730073D01*
X163108Y729798D01*
X163345Y729516D01*
X163575Y729228D01*
X163798Y728935D01*
X164014Y728637D01*
X164222Y728334D01*
X164423Y728025D01*
X164616Y727712D01*
X164801Y727393D01*
X164979Y727071D01*
X165148Y726744D01*
X165310Y726413D01*
X165463Y726079D01*
X165608Y725740D01*
X165745Y725398D01*
X165873Y725053D01*
X165993Y724705D01*
X166104Y724354D01*
X166207Y724001D01*
X166300Y723645D01*
X166386Y723287D01*
X166462Y722926D01*
X166529Y722564D01*
X166588Y722201D01*
X166637Y721836D01*
X166678Y721470D01*
X166709Y721103D01*
X166732Y720736D01*
X166745Y720368D01*
X166750Y720000D01*
X166745Y719632D01*
X166732Y719264D01*
X166709Y718897D01*
X166678Y718530D01*
X166637Y718164D01*
X166588Y717799D01*
X166529Y717436D01*
X166462Y717074D01*
X166386Y716713D01*
X166300Y716355D01*
X166207Y715999D01*
X166104Y715646D01*
X165993Y715295D01*
X165873Y714947D01*
X165745Y714602D01*
X165608Y714260D01*
X165463Y713921D01*
X165310Y713587D01*
X165148Y713256D01*
X164979Y712929D01*
X164801Y712607D01*
X164616Y712288D01*
X164423Y711975D01*
X164222Y711666D01*
X164014Y711363D01*
X163798Y711065D01*
X163575Y710772D01*
X163345Y710484D01*
X163108Y710202D01*
X162864Y709927D01*
X162614Y709657D01*
X162357Y709393D01*
X162093Y709136D01*
X161823Y708886D01*
X161548Y708642D01*
X161266Y708405D01*
X160978Y708175D01*
X160685Y707952D01*
X160387Y707736D01*
X160084Y707528D01*
X159775Y707327D01*
X159462Y707134D01*
X159143Y706949D01*
X158821Y706771D01*
X158494Y706602D01*
X158163Y706440D01*
X157829Y706287D01*
X157490Y706142D01*
X157148Y706005D01*
X156803Y705877D01*
X156455Y705757D01*
X156104Y705646D01*
X155751Y705543D01*
X155395Y705450D01*
X155037Y705364D01*
X154676Y705288D01*
X154314Y705221D01*
X153951Y705162D01*
X153586Y705113D01*
X153220Y705072D01*
X152853Y705041D01*
X152486Y705018D01*
X152118Y705005D01*
X151750Y705000D01*
X151382Y705005D01*
X151014Y705018D01*
X150647Y705041D01*
X150280Y705072D01*
X149914Y705113D01*
X149549Y705162D01*
X149186Y705221D01*
X148824Y705288D01*
X148463Y705364D01*
X148105Y705450D01*
X147749Y705543D01*
X147396Y705646D01*
X147045Y705757D01*
X146697Y705877D01*
X146352Y706005D01*
X146010Y706142D01*
X145671Y706287D01*
X145337Y706440D01*
X145006Y706602D01*
X144679Y706771D01*
X144357Y706949D01*
X144038Y707134D01*
X143725Y707327D01*
X143416Y707528D01*
X143113Y707736D01*
X142815Y707952D01*
X142522Y708175D01*
X142234Y708405D01*
X141952Y708642D01*
X141677Y708886D01*
X141407Y709136D01*
X141143Y709393D01*
X140886Y709657D01*
X140636Y709927D01*
X140392Y710202D01*
X140155Y710484D01*
X139925Y710772D01*
X139702Y711065D01*
X139486Y711363D01*
X139278Y711666D01*
X139077Y711975D01*
X138884Y712288D01*
X138699Y712607D01*
X138521Y712929D01*
X138352Y713256D01*
X138190Y713587D01*
X138037Y713921D01*
X137892Y714260D01*
X137755Y714602D01*
X137627Y714947D01*
X137507Y715295D01*
X137396Y715646D01*
X137293Y715999D01*
X137200Y716355D01*
X137114Y716713D01*
X137038Y717074D01*
X136971Y717436D01*
X136912Y717799D01*
X136863Y718164D01*
X136822Y718530D01*
X136791Y718897D01*
X136768Y719264D01*
X136755Y719632D01*
X136750Y720000D01*
X136750Y1005000D02*
X136755Y1005368D01*
X136768Y1005736D01*
X136791Y1006103D01*
X136822Y1006470D01*
X136863Y1006836D01*
X136912Y1007201D01*
X136971Y1007564D01*
X137038Y1007926D01*
X137114Y1008287D01*
X137200Y1008645D01*
X137293Y1009001D01*
X137396Y1009354D01*
X137507Y1009705D01*
X137627Y1010053D01*
X137755Y1010398D01*
X137892Y1010740D01*
X138037Y1011079D01*
X138190Y1011413D01*
X138352Y1011744D01*
X138521Y1012071D01*
X138699Y1012393D01*
X138884Y1012712D01*
X139077Y1013025D01*
X139278Y1013334D01*
X139486Y1013637D01*
X139702Y1013935D01*
X139925Y1014228D01*
X140155Y1014516D01*
X140392Y1014798D01*
X140636Y1015073D01*
X140886Y1015343D01*
X141143Y1015607D01*
X141407Y1015864D01*
X141677Y1016114D01*
X141952Y1016358D01*
X142234Y1016595D01*
X142522Y1016825D01*
X142815Y1017048D01*
X143113Y1017264D01*
X143416Y1017472D01*
X143725Y1017673D01*
X144038Y1017866D01*
X144357Y1018051D01*
X144679Y1018229D01*
X145006Y1018398D01*
X145337Y1018560D01*
X145671Y1018713D01*
X146010Y1018858D01*
X146352Y1018995D01*
X146697Y1019123D01*
X147045Y1019243D01*
X147396Y1019354D01*
X147749Y1019457D01*
X148105Y1019550D01*
X148463Y1019636D01*
X148824Y1019712D01*
X149186Y1019779D01*
X149549Y1019838D01*
X149914Y1019887D01*
X150280Y1019928D01*
X150647Y1019959D01*
X151014Y1019982D01*
X151382Y1019995D01*
X151750Y1020000D01*
X152118Y1019995D01*
X152486Y1019982D01*
X152853Y1019959D01*
X153220Y1019928D01*
X153586Y1019887D01*
X153951Y1019838D01*
X154314Y1019779D01*
X154676Y1019712D01*
X155037Y1019636D01*
X155395Y1019550D01*
X155751Y1019457D01*
X156104Y1019354D01*
X156455Y1019243D01*
X156803Y1019123D01*
X157148Y1018995D01*
X157490Y1018858D01*
X157829Y1018713D01*
X158163Y1018560D01*
X158494Y1018398D01*
X158821Y1018229D01*
X159143Y1018051D01*
X159462Y1017866D01*
X159775Y1017673D01*
X160084Y1017472D01*
X160387Y1017264D01*
X160685Y1017048D01*
X160978Y1016825D01*
X161266Y1016595D01*
X161548Y1016358D01*
X161823Y1016114D01*
X162093Y1015864D01*
X162357Y1015607D01*
X162614Y1015343D01*
X162864Y1015073D01*
X163108Y1014798D01*
X163345Y1014516D01*
X163575Y1014228D01*
X163798Y1013935D01*
X164014Y1013637D01*
X164222Y1013334D01*
X164423Y1013025D01*
X164616Y1012712D01*
X164801Y1012393D01*
X164979Y1012071D01*
X165148Y1011744D01*
X165310Y1011413D01*
X165463Y1011079D01*
X165608Y1010740D01*
X165745Y1010398D01*
X165873Y1010053D01*
X165993Y1009705D01*
X166104Y1009354D01*
X166207Y1009001D01*
X166300Y1008645D01*
X166386Y1008287D01*
X166462Y1007926D01*
X166529Y1007564D01*
X166588Y1007201D01*
X166637Y1006836D01*
X166678Y1006470D01*
X166709Y1006103D01*
X166732Y1005736D01*
X166745Y1005368D01*
X166750Y1005000D01*
X166745Y1004632D01*
X166732Y1004264D01*
X166709Y1003897D01*
X166678Y1003530D01*
X166637Y1003164D01*
X166588Y1002799D01*
X166529Y1002436D01*
X166462Y1002074D01*
X166386Y1001713D01*
X166300Y1001355D01*
X166207Y1000999D01*
X166104Y1000646D01*
X165993Y1000295D01*
X165873Y999947D01*
X165745Y999602D01*
X165608Y999260D01*
X165463Y998921D01*
X165310Y998587D01*
X165148Y998256D01*
X164979Y997929D01*
X164801Y997607D01*
X164616Y997288D01*
X164423Y996975D01*
X164222Y996666D01*
X164014Y996363D01*
X163798Y996065D01*
X163575Y995772D01*
X163345Y995484D01*
X163108Y995202D01*
X162864Y994927D01*
X162614Y994657D01*
X162357Y994393D01*
X162093Y994136D01*
X161823Y993886D01*
X161548Y993642D01*
X161266Y993405D01*
X160978Y993175D01*
X160685Y992952D01*
X160387Y992736D01*
X160084Y992528D01*
X159775Y992327D01*
X159462Y992134D01*
X159143Y991949D01*
X158821Y991771D01*
X158494Y991602D01*
X158163Y991440D01*
X157829Y991287D01*
X157490Y991142D01*
X157148Y991005D01*
X156803Y990877D01*
X156455Y990757D01*
X156104Y990646D01*
X155751Y990543D01*
X155395Y990450D01*
X155037Y990364D01*
X154676Y990288D01*
X154314Y990221D01*
X153951Y990162D01*
X153586Y990113D01*
X153220Y990072D01*
X152853Y990041D01*
X152486Y990018D01*
X152118Y990005D01*
X151750Y990000D01*
X151382Y990005D01*
X151014Y990018D01*
X150647Y990041D01*
X150280Y990072D01*
X149914Y990113D01*
X149549Y990162D01*
X149186Y990221D01*
X148824Y990288D01*
X148463Y990364D01*
X148105Y990450D01*
X147749Y990543D01*
X147396Y990646D01*
X147045Y990757D01*
X146697Y990877D01*
X146352Y991005D01*
X146010Y991142D01*
X145671Y991287D01*
X145337Y991440D01*
X145006Y991602D01*
X144679Y991771D01*
X144357Y991949D01*
X144038Y992134D01*
X143725Y992327D01*
X143416Y992528D01*
X143113Y992736D01*
X142815Y992952D01*
X142522Y993175D01*
X142234Y993405D01*
X141952Y993642D01*
X141677Y993886D01*
X141407Y994136D01*
X141143Y994393D01*
X140886Y994657D01*
X140636Y994927D01*
X140392Y995202D01*
X140155Y995484D01*
X139925Y995772D01*
X139702Y996065D01*
X139486Y996363D01*
X139278Y996666D01*
X139077Y996975D01*
X138884Y997288D01*
X138699Y997607D01*
X138521Y997929D01*
X138352Y998256D01*
X138190Y998587D01*
X138037Y998921D01*
X137892Y999260D01*
X137755Y999602D01*
X137627Y999947D01*
X137507Y1000295D01*
X137396Y1000646D01*
X137293Y1000999D01*
X137200Y1001355D01*
X137114Y1001713D01*
X137038Y1002074D01*
X136971Y1002436D01*
X136912Y1002799D01*
X136863Y1003164D01*
X136822Y1003530D01*
X136791Y1003897D01*
X136768Y1004264D01*
X136755Y1004632D01*
X136750Y1005000D01*
X440750Y1005000D02*
X440755Y1005368D01*
X440768Y1005736D01*
X440791Y1006103D01*
X440822Y1006470D01*
X440863Y1006836D01*
X440912Y1007201D01*
X440971Y1007564D01*
X441038Y1007926D01*
X441114Y1008287D01*
X441200Y1008645D01*
X441293Y1009001D01*
X441396Y1009354D01*
X441507Y1009705D01*
X441627Y1010053D01*
X441755Y1010398D01*
X441892Y1010740D01*
X442037Y1011079D01*
X442190Y1011413D01*
X442352Y1011744D01*
X442521Y1012071D01*
X442699Y1012393D01*
X442884Y1012712D01*
X443077Y1013025D01*
X443278Y1013334D01*
X443486Y1013637D01*
X443702Y1013935D01*
X443925Y1014228D01*
X444155Y1014516D01*
X444392Y1014798D01*
X444636Y1015073D01*
X444886Y1015343D01*
X445143Y1015607D01*
X445407Y1015864D01*
X445677Y1016114D01*
X445952Y1016358D01*
X446234Y1016595D01*
X446522Y1016825D01*
X446815Y1017048D01*
X447113Y1017264D01*
X447416Y1017472D01*
X447725Y1017673D01*
X448038Y1017866D01*
X448357Y1018051D01*
X448679Y1018229D01*
X449006Y1018398D01*
X449337Y1018560D01*
X449671Y1018713D01*
X450010Y1018858D01*
X450352Y1018995D01*
X450697Y1019123D01*
X451045Y1019243D01*
X451396Y1019354D01*
X451749Y1019457D01*
X452105Y1019550D01*
X452463Y1019636D01*
X452824Y1019712D01*
X453186Y1019779D01*
X453549Y1019838D01*
X453914Y1019887D01*
X454280Y1019928D01*
X454647Y1019959D01*
X455014Y1019982D01*
X455382Y1019995D01*
X455750Y1020000D01*
X456118Y1019995D01*
X456486Y1019982D01*
X456853Y1019959D01*
X457220Y1019928D01*
X457586Y1019887D01*
X457951Y1019838D01*
X458314Y1019779D01*
X458676Y1019712D01*
X459037Y1019636D01*
X459395Y1019550D01*
X459751Y1019457D01*
X460104Y1019354D01*
X460455Y1019243D01*
X460803Y1019123D01*
X461148Y1018995D01*
X461490Y1018858D01*
X461829Y1018713D01*
X462163Y1018560D01*
X462494Y1018398D01*
X462821Y1018229D01*
X463143Y1018051D01*
X463462Y1017866D01*
X463775Y1017673D01*
X464084Y1017472D01*
X464387Y1017264D01*
X464685Y1017048D01*
X464978Y1016825D01*
X465266Y1016595D01*
X465548Y1016358D01*
X465823Y1016114D01*
X466093Y1015864D01*
X466357Y1015607D01*
X466614Y1015343D01*
X466864Y1015073D01*
X467108Y1014798D01*
X467345Y1014516D01*
X467575Y1014228D01*
X467798Y1013935D01*
X468014Y1013637D01*
X468222Y1013334D01*
X468423Y1013025D01*
X468616Y1012712D01*
X468801Y1012393D01*
X468979Y1012071D01*
X469148Y1011744D01*
X469310Y1011413D01*
X469463Y1011079D01*
X469608Y1010740D01*
X469745Y1010398D01*
X469873Y1010053D01*
X469993Y1009705D01*
X470104Y1009354D01*
X470207Y1009001D01*
X470300Y1008645D01*
X470386Y1008287D01*
X470462Y1007926D01*
X470529Y1007564D01*
X470588Y1007201D01*
X470637Y1006836D01*
X470678Y1006470D01*
X470709Y1006103D01*
X470732Y1005736D01*
X470745Y1005368D01*
X470750Y1005000D01*
X470745Y1004632D01*
X470732Y1004264D01*
X470709Y1003897D01*
X470678Y1003530D01*
X470637Y1003164D01*
X470588Y1002799D01*
X470529Y1002436D01*
X470462Y1002074D01*
X470386Y1001713D01*
X470300Y1001355D01*
X470207Y1000999D01*
X470104Y1000646D01*
X469993Y1000295D01*
X469873Y999947D01*
X469745Y999602D01*
X469608Y999260D01*
X469463Y998921D01*
X469310Y998587D01*
X469148Y998256D01*
X468979Y997929D01*
X468801Y997607D01*
X468616Y997288D01*
X468423Y996975D01*
X468222Y996666D01*
X468014Y996363D01*
X467798Y996065D01*
X467575Y995772D01*
X467345Y995484D01*
X467108Y995202D01*
X466864Y994927D01*
X466614Y994657D01*
X466357Y994393D01*
X466093Y994136D01*
X465823Y993886D01*
X465548Y993642D01*
X465266Y993405D01*
X464978Y993175D01*
X464685Y992952D01*
X464387Y992736D01*
X464084Y992528D01*
X463775Y992327D01*
X463462Y992134D01*
X463143Y991949D01*
X462821Y991771D01*
X462494Y991602D01*
X462163Y991440D01*
X461829Y991287D01*
X461490Y991142D01*
X461148Y991005D01*
X460803Y990877D01*
X460455Y990757D01*
X460104Y990646D01*
X459751Y990543D01*
X459395Y990450D01*
X459037Y990364D01*
X458676Y990288D01*
X458314Y990221D01*
X457951Y990162D01*
X457586Y990113D01*
X457220Y990072D01*
X456853Y990041D01*
X456486Y990018D01*
X456118Y990005D01*
X455750Y990000D01*
X455382Y990005D01*
X455014Y990018D01*
X454647Y990041D01*
X454280Y990072D01*
X453914Y990113D01*
X453549Y990162D01*
X453186Y990221D01*
X452824Y990288D01*
X452463Y990364D01*
X452105Y990450D01*
X451749Y990543D01*
X451396Y990646D01*
X451045Y990757D01*
X450697Y990877D01*
X450352Y991005D01*
X450010Y991142D01*
X449671Y991287D01*
X449337Y991440D01*
X449006Y991602D01*
X448679Y991771D01*
X448357Y991949D01*
X448038Y992134D01*
X447725Y992327D01*
X447416Y992528D01*
X447113Y992736D01*
X446815Y992952D01*
X446522Y993175D01*
X446234Y993405D01*
X445952Y993642D01*
X445677Y993886D01*
X445407Y994136D01*
X445143Y994393D01*
X444886Y994657D01*
X444636Y994927D01*
X444392Y995202D01*
X444155Y995484D01*
X443925Y995772D01*
X443702Y996065D01*
X443486Y996363D01*
X443278Y996666D01*
X443077Y996975D01*
X442884Y997288D01*
X442699Y997607D01*
X442521Y997929D01*
X442352Y998256D01*
X442190Y998587D01*
X442037Y998921D01*
X441892Y999260D01*
X441755Y999602D01*
X441627Y999947D01*
X441507Y1000295D01*
X441396Y1000646D01*
X441293Y1000999D01*
X441200Y1001355D01*
X441114Y1001713D01*
X441038Y1002074D01*
X440971Y1002436D01*
X440912Y1002799D01*
X440863Y1003164D01*
X440822Y1003530D01*
X440791Y1003897D01*
X440768Y1004264D01*
X440755Y1004632D01*
X440750Y1005000D01*
D10*
X510000Y1000000D02*
X510009Y1000736D01*
X510036Y1001472D01*
X510081Y1002207D01*
X510144Y1002941D01*
X510226Y1003672D01*
X510325Y1004402D01*
X510442Y1005129D01*
X510576Y1005853D01*
X510729Y1006573D01*
X510899Y1007289D01*
X511087Y1008001D01*
X511292Y1008709D01*
X511514Y1009410D01*
X511754Y1010107D01*
X512010Y1010797D01*
X512284Y1011481D01*
X512574Y1012157D01*
X512880Y1012827D01*
X513203Y1013488D01*
X513542Y1014142D01*
X513897Y1014787D01*
X514268Y1015423D01*
X514654Y1016050D01*
X515056Y1016667D01*
X515472Y1017274D01*
X515904Y1017871D01*
X516350Y1018457D01*
X516810Y1019032D01*
X517284Y1019595D01*
X517771Y1020147D01*
X518273Y1020686D01*
X518787Y1021213D01*
X519314Y1021727D01*
X519853Y1022229D01*
X520405Y1022716D01*
X520968Y1023190D01*
X521543Y1023650D01*
X522129Y1024096D01*
X522726Y1024528D01*
X523333Y1024944D01*
X523950Y1025346D01*
X524577Y1025732D01*
X525213Y1026103D01*
X525858Y1026458D01*
X526512Y1026797D01*
X527173Y1027120D01*
X527843Y1027426D01*
X528519Y1027716D01*
X529203Y1027990D01*
X529893Y1028246D01*
X530590Y1028486D01*
X531291Y1028708D01*
X531999Y1028913D01*
X532711Y1029101D01*
X533427Y1029271D01*
X534147Y1029424D01*
X534871Y1029558D01*
X535598Y1029675D01*
X536328Y1029774D01*
X537059Y1029856D01*
X537793Y1029919D01*
X538528Y1029964D01*
X539264Y1029991D01*
X540000Y1030000D01*
X540736Y1029991D01*
X541472Y1029964D01*
X542207Y1029919D01*
X542941Y1029856D01*
X543672Y1029774D01*
X544402Y1029675D01*
X545129Y1029558D01*
X545853Y1029424D01*
X546573Y1029271D01*
X547289Y1029101D01*
X548001Y1028913D01*
X548709Y1028708D01*
X549410Y1028486D01*
X550107Y1028246D01*
X550797Y1027990D01*
X551481Y1027716D01*
X552157Y1027426D01*
X552827Y1027120D01*
X553488Y1026797D01*
X554142Y1026458D01*
X554787Y1026103D01*
X555423Y1025732D01*
X556050Y1025346D01*
X556667Y1024944D01*
X557274Y1024528D01*
X557871Y1024096D01*
X558457Y1023650D01*
X559032Y1023190D01*
X559595Y1022716D01*
X560147Y1022229D01*
X560686Y1021727D01*
X561213Y1021213D01*
X561727Y1020686D01*
X562229Y1020147D01*
X562716Y1019595D01*
X563190Y1019032D01*
X563650Y1018457D01*
X564096Y1017871D01*
X564528Y1017274D01*
X564944Y1016667D01*
X565346Y1016050D01*
X565732Y1015423D01*
X566103Y1014787D01*
X566458Y1014142D01*
X566797Y1013488D01*
X567120Y1012827D01*
X567426Y1012157D01*
X567716Y1011481D01*
X567990Y1010797D01*
X568246Y1010107D01*
X568486Y1009410D01*
X568708Y1008709D01*
X568913Y1008001D01*
X569101Y1007289D01*
X569271Y1006573D01*
X569424Y1005853D01*
X569558Y1005129D01*
X569675Y1004402D01*
X569774Y1003672D01*
X569856Y1002941D01*
X569919Y1002207D01*
X569964Y1001472D01*
X569991Y1000736D01*
X570000Y1000000D01*
X569991Y999264D01*
X569964Y998528D01*
X569919Y997793D01*
X569856Y997059D01*
X569774Y996328D01*
X569675Y995598D01*
X569558Y994871D01*
X569424Y994147D01*
X569271Y993427D01*
X569101Y992711D01*
X568913Y991999D01*
X568708Y991291D01*
X568486Y990590D01*
X568246Y989893D01*
X567990Y989203D01*
X567716Y988519D01*
X567426Y987843D01*
X567120Y987173D01*
X566797Y986512D01*
X566458Y985858D01*
X566103Y985213D01*
X565732Y984577D01*
X565346Y983950D01*
X564944Y983333D01*
X564528Y982726D01*
X564096Y982129D01*
X563650Y981543D01*
X563190Y980968D01*
X562716Y980405D01*
X562229Y979853D01*
X561727Y979314D01*
X561213Y978787D01*
X560686Y978273D01*
X560147Y977771D01*
X559595Y977284D01*
X559032Y976810D01*
X558457Y976350D01*
X557871Y975904D01*
X557274Y975472D01*
X556667Y975056D01*
X556050Y974654D01*
X555423Y974268D01*
X554787Y973897D01*
X554142Y973542D01*
X553488Y973203D01*
X552827Y972880D01*
X552157Y972574D01*
X551481Y972284D01*
X550797Y972010D01*
X550107Y971754D01*
X549410Y971514D01*
X548709Y971292D01*
X548001Y971087D01*
X547289Y970899D01*
X546573Y970729D01*
X545853Y970576D01*
X545129Y970442D01*
X544402Y970325D01*
X543672Y970226D01*
X542941Y970144D01*
X542207Y970081D01*
X541472Y970036D01*
X540736Y970009D01*
X540000Y970000D01*
X539264Y970009D01*
X538528Y970036D01*
X537793Y970081D01*
X537059Y970144D01*
X536328Y970226D01*
X535598Y970325D01*
X534871Y970442D01*
X534147Y970576D01*
X533427Y970729D01*
X532711Y970899D01*
X531999Y971087D01*
X531291Y971292D01*
X530590Y971514D01*
X529893Y971754D01*
X529203Y972010D01*
X528519Y972284D01*
X527843Y972574D01*
X527173Y972880D01*
X526512Y973203D01*
X525858Y973542D01*
X525213Y973897D01*
X524577Y974268D01*
X523950Y974654D01*
X523333Y975056D01*
X522726Y975472D01*
X522129Y975904D01*
X521543Y976350D01*
X520968Y976810D01*
X520405Y977284D01*
X519853Y977771D01*
X519314Y978273D01*
X518787Y978787D01*
X518273Y979314D01*
X517771Y979853D01*
X517284Y980405D01*
X516810Y980968D01*
X516350Y981543D01*
X515904Y982129D01*
X515472Y982726D01*
X515056Y983333D01*
X514654Y983950D01*
X514268Y984577D01*
X513897Y985213D01*
X513542Y985858D01*
X513203Y986512D01*
X512880Y987173D01*
X512574Y987843D01*
X512284Y988519D01*
X512010Y989203D01*
X511754Y989893D01*
X511514Y990590D01*
X511292Y991291D01*
X511087Y991999D01*
X510899Y992711D01*
X510729Y993427D01*
X510576Y994147D01*
X510442Y994871D01*
X510325Y995598D01*
X510226Y996328D01*
X510144Y997059D01*
X510081Y997793D01*
X510036Y998528D01*
X510009Y999264D01*
X510000Y1000000D01*
X510000Y765000D02*
X510009Y765736D01*
X510036Y766472D01*
X510081Y767207D01*
X510144Y767941D01*
X510226Y768672D01*
X510325Y769402D01*
X510442Y770129D01*
X510576Y770853D01*
X510729Y771573D01*
X510899Y772289D01*
X511087Y773001D01*
X511292Y773709D01*
X511514Y774410D01*
X511754Y775107D01*
X512010Y775797D01*
X512284Y776481D01*
X512574Y777157D01*
X512880Y777827D01*
X513203Y778488D01*
X513542Y779142D01*
X513897Y779787D01*
X514268Y780423D01*
X514654Y781050D01*
X515056Y781667D01*
X515472Y782274D01*
X515904Y782871D01*
X516350Y783457D01*
X516810Y784032D01*
X517284Y784595D01*
X517771Y785147D01*
X518273Y785686D01*
X518787Y786213D01*
X519314Y786727D01*
X519853Y787229D01*
X520405Y787716D01*
X520968Y788190D01*
X521543Y788650D01*
X522129Y789096D01*
X522726Y789528D01*
X523333Y789944D01*
X523950Y790346D01*
X524577Y790732D01*
X525213Y791103D01*
X525858Y791458D01*
X526512Y791797D01*
X527173Y792120D01*
X527843Y792426D01*
X528519Y792716D01*
X529203Y792990D01*
X529893Y793246D01*
X530590Y793486D01*
X531291Y793708D01*
X531999Y793913D01*
X532711Y794101D01*
X533427Y794271D01*
X534147Y794424D01*
X534871Y794558D01*
X535598Y794675D01*
X536328Y794774D01*
X537059Y794856D01*
X537793Y794919D01*
X538528Y794964D01*
X539264Y794991D01*
X540000Y795000D01*
X540736Y794991D01*
X541472Y794964D01*
X542207Y794919D01*
X542941Y794856D01*
X543672Y794774D01*
X544402Y794675D01*
X545129Y794558D01*
X545853Y794424D01*
X546573Y794271D01*
X547289Y794101D01*
X548001Y793913D01*
X548709Y793708D01*
X549410Y793486D01*
X550107Y793246D01*
X550797Y792990D01*
X551481Y792716D01*
X552157Y792426D01*
X552827Y792120D01*
X553488Y791797D01*
X554142Y791458D01*
X554787Y791103D01*
X555423Y790732D01*
X556050Y790346D01*
X556667Y789944D01*
X557274Y789528D01*
X557871Y789096D01*
X558457Y788650D01*
X559032Y788190D01*
X559595Y787716D01*
X560147Y787229D01*
X560686Y786727D01*
X561213Y786213D01*
X561727Y785686D01*
X562229Y785147D01*
X562716Y784595D01*
X563190Y784032D01*
X563650Y783457D01*
X564096Y782871D01*
X564528Y782274D01*
X564944Y781667D01*
X565346Y781050D01*
X565732Y780423D01*
X566103Y779787D01*
X566458Y779142D01*
X566797Y778488D01*
X567120Y777827D01*
X567426Y777157D01*
X567716Y776481D01*
X567990Y775797D01*
X568246Y775107D01*
X568486Y774410D01*
X568708Y773709D01*
X568913Y773001D01*
X569101Y772289D01*
X569271Y771573D01*
X569424Y770853D01*
X569558Y770129D01*
X569675Y769402D01*
X569774Y768672D01*
X569856Y767941D01*
X569919Y767207D01*
X569964Y766472D01*
X569991Y765736D01*
X570000Y765000D01*
X569991Y764264D01*
X569964Y763528D01*
X569919Y762793D01*
X569856Y762059D01*
X569774Y761328D01*
X569675Y760598D01*
X569558Y759871D01*
X569424Y759147D01*
X569271Y758427D01*
X569101Y757711D01*
X568913Y756999D01*
X568708Y756291D01*
X568486Y755590D01*
X568246Y754893D01*
X567990Y754203D01*
X567716Y753519D01*
X567426Y752843D01*
X567120Y752173D01*
X566797Y751512D01*
X566458Y750858D01*
X566103Y750213D01*
X565732Y749577D01*
X565346Y748950D01*
X564944Y748333D01*
X564528Y747726D01*
X564096Y747129D01*
X563650Y746543D01*
X563190Y745968D01*
X562716Y745405D01*
X562229Y744853D01*
X561727Y744314D01*
X561213Y743787D01*
X560686Y743273D01*
X560147Y742771D01*
X559595Y742284D01*
X559032Y741810D01*
X558457Y741350D01*
X557871Y740904D01*
X557274Y740472D01*
X556667Y740056D01*
X556050Y739654D01*
X555423Y739268D01*
X554787Y738897D01*
X554142Y738542D01*
X553488Y738203D01*
X552827Y737880D01*
X552157Y737574D01*
X551481Y737284D01*
X550797Y737010D01*
X550107Y736754D01*
X549410Y736514D01*
X548709Y736292D01*
X548001Y736087D01*
X547289Y735899D01*
X546573Y735729D01*
X545853Y735576D01*
X545129Y735442D01*
X544402Y735325D01*
X543672Y735226D01*
X542941Y735144D01*
X542207Y735081D01*
X541472Y735036D01*
X540736Y735009D01*
X540000Y735000D01*
X539264Y735009D01*
X538528Y735036D01*
X537793Y735081D01*
X537059Y735144D01*
X536328Y735226D01*
X535598Y735325D01*
X534871Y735442D01*
X534147Y735576D01*
X533427Y735729D01*
X532711Y735899D01*
X531999Y736087D01*
X531291Y736292D01*
X530590Y736514D01*
X529893Y736754D01*
X529203Y737010D01*
X528519Y737284D01*
X527843Y737574D01*
X527173Y737880D01*
X526512Y738203D01*
X525858Y738542D01*
X525213Y738897D01*
X524577Y739268D01*
X523950Y739654D01*
X523333Y740056D01*
X522726Y740472D01*
X522129Y740904D01*
X521543Y741350D01*
X520968Y741810D01*
X520405Y742284D01*
X519853Y742771D01*
X519314Y743273D01*
X518787Y743787D01*
X518273Y744314D01*
X517771Y744853D01*
X517284Y745405D01*
X516810Y745968D01*
X516350Y746543D01*
X515904Y747129D01*
X515472Y747726D01*
X515056Y748333D01*
X514654Y748950D01*
X514268Y749577D01*
X513897Y750213D01*
X513542Y750858D01*
X513203Y751512D01*
X512880Y752173D01*
X512574Y752843D01*
X512284Y753519D01*
X512010Y754203D01*
X511754Y754893D01*
X511514Y755590D01*
X511292Y756291D01*
X511087Y756999D01*
X510899Y757711D01*
X510729Y758427D01*
X510576Y759147D01*
X510442Y759871D01*
X510325Y760598D01*
X510226Y761328D01*
X510144Y762059D01*
X510081Y762793D01*
X510036Y763528D01*
X510009Y764264D01*
X510000Y765000D01*
X35000Y1000000D02*
X35009Y1000736D01*
X35036Y1001472D01*
X35081Y1002207D01*
X35144Y1002941D01*
X35226Y1003672D01*
X35325Y1004402D01*
X35442Y1005129D01*
X35576Y1005853D01*
X35729Y1006573D01*
X35899Y1007289D01*
X36087Y1008001D01*
X36292Y1008709D01*
X36514Y1009410D01*
X36754Y1010107D01*
X37010Y1010797D01*
X37284Y1011481D01*
X37574Y1012157D01*
X37880Y1012827D01*
X38203Y1013488D01*
X38542Y1014142D01*
X38897Y1014787D01*
X39268Y1015423D01*
X39654Y1016050D01*
X40056Y1016667D01*
X40472Y1017274D01*
X40904Y1017871D01*
X41350Y1018457D01*
X41810Y1019032D01*
X42284Y1019595D01*
X42771Y1020147D01*
X43273Y1020686D01*
X43787Y1021213D01*
X44314Y1021727D01*
X44853Y1022229D01*
X45405Y1022716D01*
X45968Y1023190D01*
X46543Y1023650D01*
X47129Y1024096D01*
X47726Y1024528D01*
X48333Y1024944D01*
X48950Y1025346D01*
X49577Y1025732D01*
X50213Y1026103D01*
X50858Y1026458D01*
X51512Y1026797D01*
X52173Y1027120D01*
X52843Y1027426D01*
X53519Y1027716D01*
X54203Y1027990D01*
X54893Y1028246D01*
X55590Y1028486D01*
X56291Y1028708D01*
X56999Y1028913D01*
X57711Y1029101D01*
X58427Y1029271D01*
X59147Y1029424D01*
X59871Y1029558D01*
X60598Y1029675D01*
X61328Y1029774D01*
X62059Y1029856D01*
X62793Y1029919D01*
X63528Y1029964D01*
X64264Y1029991D01*
X65000Y1030000D01*
X65736Y1029991D01*
X66472Y1029964D01*
X67207Y1029919D01*
X67941Y1029856D01*
X68672Y1029774D01*
X69402Y1029675D01*
X70129Y1029558D01*
X70853Y1029424D01*
X71573Y1029271D01*
X72289Y1029101D01*
X73001Y1028913D01*
X73709Y1028708D01*
X74410Y1028486D01*
X75107Y1028246D01*
X75797Y1027990D01*
X76481Y1027716D01*
X77157Y1027426D01*
X77827Y1027120D01*
X78488Y1026797D01*
X79142Y1026458D01*
X79787Y1026103D01*
X80423Y1025732D01*
X81050Y1025346D01*
X81667Y1024944D01*
X82274Y1024528D01*
X82871Y1024096D01*
X83457Y1023650D01*
X84032Y1023190D01*
X84595Y1022716D01*
X85147Y1022229D01*
X85686Y1021727D01*
X86213Y1021213D01*
X86727Y1020686D01*
X87229Y1020147D01*
X87716Y1019595D01*
X88190Y1019032D01*
X88650Y1018457D01*
X89096Y1017871D01*
X89528Y1017274D01*
X89944Y1016667D01*
X90346Y1016050D01*
X90732Y1015423D01*
X91103Y1014787D01*
X91458Y1014142D01*
X91797Y1013488D01*
X92120Y1012827D01*
X92426Y1012157D01*
X92716Y1011481D01*
X92990Y1010797D01*
X93246Y1010107D01*
X93486Y1009410D01*
X93708Y1008709D01*
X93913Y1008001D01*
X94101Y1007289D01*
X94271Y1006573D01*
X94424Y1005853D01*
X94558Y1005129D01*
X94675Y1004402D01*
X94774Y1003672D01*
X94856Y1002941D01*
X94919Y1002207D01*
X94964Y1001472D01*
X94991Y1000736D01*
X95000Y1000000D01*
X94991Y999264D01*
X94964Y998528D01*
X94919Y997793D01*
X94856Y997059D01*
X94774Y996328D01*
X94675Y995598D01*
X94558Y994871D01*
X94424Y994147D01*
X94271Y993427D01*
X94101Y992711D01*
X93913Y991999D01*
X93708Y991291D01*
X93486Y990590D01*
X93246Y989893D01*
X92990Y989203D01*
X92716Y988519D01*
X92426Y987843D01*
X92120Y987173D01*
X91797Y986512D01*
X91458Y985858D01*
X91103Y985213D01*
X90732Y984577D01*
X90346Y983950D01*
X89944Y983333D01*
X89528Y982726D01*
X89096Y982129D01*
X88650Y981543D01*
X88190Y980968D01*
X87716Y980405D01*
X87229Y979853D01*
X86727Y979314D01*
X86213Y978787D01*
X85686Y978273D01*
X85147Y977771D01*
X84595Y977284D01*
X84032Y976810D01*
X83457Y976350D01*
X82871Y975904D01*
X82274Y975472D01*
X81667Y975056D01*
X81050Y974654D01*
X80423Y974268D01*
X79787Y973897D01*
X79142Y973542D01*
X78488Y973203D01*
X77827Y972880D01*
X77157Y972574D01*
X76481Y972284D01*
X75797Y972010D01*
X75107Y971754D01*
X74410Y971514D01*
X73709Y971292D01*
X73001Y971087D01*
X72289Y970899D01*
X71573Y970729D01*
X70853Y970576D01*
X70129Y970442D01*
X69402Y970325D01*
X68672Y970226D01*
X67941Y970144D01*
X67207Y970081D01*
X66472Y970036D01*
X65736Y970009D01*
X65000Y970000D01*
X64264Y970009D01*
X63528Y970036D01*
X62793Y970081D01*
X62059Y970144D01*
X61328Y970226D01*
X60598Y970325D01*
X59871Y970442D01*
X59147Y970576D01*
X58427Y970729D01*
X57711Y970899D01*
X56999Y971087D01*
X56291Y971292D01*
X55590Y971514D01*
X54893Y971754D01*
X54203Y972010D01*
X53519Y972284D01*
X52843Y972574D01*
X52173Y972880D01*
X51512Y973203D01*
X50858Y973542D01*
X50213Y973897D01*
X49577Y974268D01*
X48950Y974654D01*
X48333Y975056D01*
X47726Y975472D01*
X47129Y975904D01*
X46543Y976350D01*
X45968Y976810D01*
X45405Y977284D01*
X44853Y977771D01*
X44314Y978273D01*
X43787Y978787D01*
X43273Y979314D01*
X42771Y979853D01*
X42284Y980405D01*
X41810Y980968D01*
X41350Y981543D01*
X40904Y982129D01*
X40472Y982726D01*
X40056Y983333D01*
X39654Y983950D01*
X39268Y984577D01*
X38897Y985213D01*
X38542Y985858D01*
X38203Y986512D01*
X37880Y987173D01*
X37574Y987843D01*
X37284Y988519D01*
X37010Y989203D01*
X36754Y989893D01*
X36514Y990590D01*
X36292Y991291D01*
X36087Y991999D01*
X35899Y992711D01*
X35729Y993427D01*
X35576Y994147D01*
X35442Y994871D01*
X35325Y995598D01*
X35226Y996328D01*
X35144Y997059D01*
X35081Y997793D01*
X35036Y998528D01*
X35009Y999264D01*
X35000Y1000000D01*
X35000Y765000D02*
X35009Y765736D01*
X35036Y766472D01*
X35081Y767207D01*
X35144Y767941D01*
X35226Y768672D01*
X35325Y769402D01*
X35442Y770129D01*
X35576Y770853D01*
X35729Y771573D01*
X35899Y772289D01*
X36087Y773001D01*
X36292Y773709D01*
X36514Y774410D01*
X36754Y775107D01*
X37010Y775797D01*
X37284Y776481D01*
X37574Y777157D01*
X37880Y777827D01*
X38203Y778488D01*
X38542Y779142D01*
X38897Y779787D01*
X39268Y780423D01*
X39654Y781050D01*
X40056Y781667D01*
X40472Y782274D01*
X40904Y782871D01*
X41350Y783457D01*
X41810Y784032D01*
X42284Y784595D01*
X42771Y785147D01*
X43273Y785686D01*
X43787Y786213D01*
X44314Y786727D01*
X44853Y787229D01*
X45405Y787716D01*
X45968Y788190D01*
X46543Y788650D01*
X47129Y789096D01*
X47726Y789528D01*
X48333Y789944D01*
X48950Y790346D01*
X49577Y790732D01*
X50213Y791103D01*
X50858Y791458D01*
X51512Y791797D01*
X52173Y792120D01*
X52843Y792426D01*
X53519Y792716D01*
X54203Y792990D01*
X54893Y793246D01*
X55590Y793486D01*
X56291Y793708D01*
X56999Y793913D01*
X57711Y794101D01*
X58427Y794271D01*
X59147Y794424D01*
X59871Y794558D01*
X60598Y794675D01*
X61328Y794774D01*
X62059Y794856D01*
X62793Y794919D01*
X63528Y794964D01*
X64264Y794991D01*
X65000Y795000D01*
X65736Y794991D01*
X66472Y794964D01*
X67207Y794919D01*
X67941Y794856D01*
X68672Y794774D01*
X69402Y794675D01*
X70129Y794558D01*
X70853Y794424D01*
X71573Y794271D01*
X72289Y794101D01*
X73001Y793913D01*
X73709Y793708D01*
X74410Y793486D01*
X75107Y793246D01*
X75797Y792990D01*
X76481Y792716D01*
X77157Y792426D01*
X77827Y792120D01*
X78488Y791797D01*
X79142Y791458D01*
X79787Y791103D01*
X80423Y790732D01*
X81050Y790346D01*
X81667Y789944D01*
X82274Y789528D01*
X82871Y789096D01*
X83457Y788650D01*
X84032Y788190D01*
X84595Y787716D01*
X85147Y787229D01*
X85686Y786727D01*
X86213Y786213D01*
X86727Y785686D01*
X87229Y785147D01*
X87716Y784595D01*
X88190Y784032D01*
X88650Y783457D01*
X89096Y782871D01*
X89528Y782274D01*
X89944Y781667D01*
X90346Y781050D01*
X90732Y780423D01*
X91103Y779787D01*
X91458Y779142D01*
X91797Y778488D01*
X92120Y777827D01*
X92426Y777157D01*
X92716Y776481D01*
X92990Y775797D01*
X93246Y775107D01*
X93486Y774410D01*
X93708Y773709D01*
X93913Y773001D01*
X94101Y772289D01*
X94271Y771573D01*
X94424Y770853D01*
X94558Y770129D01*
X94675Y769402D01*
X94774Y768672D01*
X94856Y767941D01*
X94919Y767207D01*
X94964Y766472D01*
X94991Y765736D01*
X95000Y765000D01*
X94991Y764264D01*
X94964Y763528D01*
X94919Y762793D01*
X94856Y762059D01*
X94774Y761328D01*
X94675Y760598D01*
X94558Y759871D01*
X94424Y759147D01*
X94271Y758427D01*
X94101Y757711D01*
X93913Y756999D01*
X93708Y756291D01*
X93486Y755590D01*
X93246Y754893D01*
X92990Y754203D01*
X92716Y753519D01*
X92426Y752843D01*
X92120Y752173D01*
X91797Y751512D01*
X91458Y750858D01*
X91103Y750213D01*
X90732Y749577D01*
X90346Y748950D01*
X89944Y748333D01*
X89528Y747726D01*
X89096Y747129D01*
X88650Y746543D01*
X88190Y745968D01*
X87716Y745405D01*
X87229Y744853D01*
X86727Y744314D01*
X86213Y743787D01*
X85686Y743273D01*
X85147Y742771D01*
X84595Y742284D01*
X84032Y741810D01*
X83457Y741350D01*
X82871Y740904D01*
X82274Y740472D01*
X81667Y740056D01*
X81050Y739654D01*
X80423Y739268D01*
X79787Y738897D01*
X79142Y738542D01*
X78488Y738203D01*
X77827Y737880D01*
X77157Y737574D01*
X76481Y737284D01*
X75797Y737010D01*
X75107Y736754D01*
X74410Y736514D01*
X73709Y736292D01*
X73001Y736087D01*
X72289Y735899D01*
X71573Y735729D01*
X70853Y735576D01*
X70129Y735442D01*
X69402Y735325D01*
X68672Y735226D01*
X67941Y735144D01*
X67207Y735081D01*
X66472Y735036D01*
X65736Y735009D01*
X65000Y735000D01*
X64264Y735009D01*
X63528Y735036D01*
X62793Y735081D01*
X62059Y735144D01*
X61328Y735226D01*
X60598Y735325D01*
X59871Y735442D01*
X59147Y735576D01*
X58427Y735729D01*
X57711Y735899D01*
X56999Y736087D01*
X56291Y736292D01*
X55590Y736514D01*
X54893Y736754D01*
X54203Y737010D01*
X53519Y737284D01*
X52843Y737574D01*
X52173Y737880D01*
X51512Y738203D01*
X50858Y738542D01*
X50213Y738897D01*
X49577Y739268D01*
X48950Y739654D01*
X48333Y740056D01*
X47726Y740472D01*
X47129Y740904D01*
X46543Y741350D01*
X45968Y741810D01*
X45405Y742284D01*
X44853Y742771D01*
X44314Y743273D01*
X43787Y743787D01*
X43273Y744314D01*
X42771Y744853D01*
X42284Y745405D01*
X41810Y745968D01*
X41350Y746543D01*
X40904Y747129D01*
X40472Y747726D01*
X40056Y748333D01*
X39654Y748950D01*
X39268Y749577D01*
X38897Y750213D01*
X38542Y750858D01*
X38203Y751512D01*
X37880Y752173D01*
X37574Y752843D01*
X37284Y753519D01*
X37010Y754203D01*
X36754Y754893D01*
X36514Y755590D01*
X36292Y756291D01*
X36087Y756999D01*
X35899Y757711D01*
X35729Y758427D01*
X35576Y759147D01*
X35442Y759871D01*
X35325Y760598D01*
X35226Y761328D01*
X35144Y762059D01*
X35081Y762793D01*
X35036Y763528D01*
X35009Y764264D01*
X35000Y765000D01*
D13*
X485000Y947500D02*
X605000Y947500D01*
X605000Y817500D01*
X485000Y817500D01*
X485000Y947500D01*
X84438Y530225D02*
X84444Y530685D01*
X84461Y531145D01*
X84489Y531604D01*
X84528Y532063D01*
X84579Y532520D01*
X84641Y532976D01*
X84714Y533431D01*
X84798Y533883D01*
X84894Y534333D01*
X85000Y534781D01*
X85117Y535226D01*
X85245Y535668D01*
X85384Y536107D01*
X85534Y536542D01*
X85694Y536973D01*
X85865Y537400D01*
X86047Y537823D01*
X86238Y538242D01*
X86440Y538655D01*
X86652Y539064D01*
X86874Y539467D01*
X87106Y539864D01*
X87347Y540256D01*
X87598Y540642D01*
X87858Y541021D01*
X88128Y541394D01*
X88407Y541761D01*
X88694Y542120D01*
X88990Y542472D01*
X89295Y542817D01*
X89608Y543154D01*
X89930Y543483D01*
X90259Y543805D01*
X90596Y544118D01*
X90941Y544423D01*
X91293Y544719D01*
X91652Y545006D01*
X92019Y545285D01*
X92392Y545555D01*
X92771Y545815D01*
X93157Y546066D01*
X93549Y546307D01*
X93946Y546539D01*
X94349Y546761D01*
X94758Y546973D01*
X95171Y547175D01*
X95590Y547366D01*
X96013Y547548D01*
X96440Y547719D01*
X96871Y547879D01*
X97306Y548029D01*
X97745Y548168D01*
X98187Y548296D01*
X98632Y548413D01*
X99080Y548519D01*
X99530Y548615D01*
X99982Y548699D01*
X100437Y548772D01*
X100893Y548834D01*
X101350Y548885D01*
X101809Y548924D01*
X102268Y548952D01*
X102728Y548969D01*
X103188Y548975D01*
X103648Y548969D01*
X104108Y548952D01*
X104567Y548924D01*
X105026Y548885D01*
X105483Y548834D01*
X105939Y548772D01*
X106394Y548699D01*
X106846Y548615D01*
X107296Y548519D01*
X107744Y548413D01*
X108189Y548296D01*
X108631Y548168D01*
X109070Y548029D01*
X109505Y547879D01*
X109936Y547719D01*
X110363Y547548D01*
X110786Y547366D01*
X111205Y547175D01*
X111618Y546973D01*
X112027Y546761D01*
X112430Y546539D01*
X112827Y546307D01*
X113219Y546066D01*
X113605Y545815D01*
X113984Y545555D01*
X114357Y545285D01*
X114724Y545006D01*
X115083Y544719D01*
X115435Y544423D01*
X115780Y544118D01*
X116117Y543805D01*
X116446Y543483D01*
X116768Y543154D01*
X117081Y542817D01*
X117386Y542472D01*
X117682Y542120D01*
X117969Y541761D01*
X118248Y541394D01*
X118518Y541021D01*
X118778Y540642D01*
X119029Y540256D01*
X119270Y539864D01*
X119502Y539467D01*
X119724Y539064D01*
X119936Y538655D01*
X120138Y538242D01*
X120329Y537823D01*
X120511Y537400D01*
X120682Y536973D01*
X120842Y536542D01*
X120992Y536107D01*
X121131Y535668D01*
X121259Y535226D01*
X121376Y534781D01*
X121482Y534333D01*
X121578Y533883D01*
X121662Y533431D01*
X121735Y532976D01*
X121797Y532520D01*
X121848Y532063D01*
X121887Y531604D01*
X121915Y531145D01*
X121932Y530685D01*
X121938Y530225D01*
X121932Y529765D01*
X121915Y529305D01*
X121887Y528846D01*
X121848Y528387D01*
X121797Y527930D01*
X121735Y527474D01*
X121662Y527019D01*
X121578Y526567D01*
X121482Y526117D01*
X121376Y525669D01*
X121259Y525224D01*
X121131Y524782D01*
X120992Y524343D01*
X120842Y523908D01*
X120682Y523477D01*
X120511Y523050D01*
X120329Y522627D01*
X120138Y522208D01*
X119936Y521795D01*
X119724Y521386D01*
X119502Y520983D01*
X119270Y520586D01*
X119029Y520194D01*
X118778Y519808D01*
X118518Y519429D01*
X118248Y519056D01*
X117969Y518689D01*
X117682Y518330D01*
X117386Y517978D01*
X117081Y517633D01*
X116768Y517296D01*
X116446Y516967D01*
X116117Y516645D01*
X115780Y516332D01*
X115435Y516027D01*
X115083Y515731D01*
X114724Y515444D01*
X114357Y515165D01*
X113984Y514895D01*
X113605Y514635D01*
X113219Y514384D01*
X112827Y514143D01*
X112430Y513911D01*
X112027Y513689D01*
X111618Y513477D01*
X111205Y513275D01*
X110786Y513084D01*
X110363Y512902D01*
X109936Y512731D01*
X109505Y512571D01*
X109070Y512421D01*
X108631Y512282D01*
X108189Y512154D01*
X107744Y512037D01*
X107296Y511931D01*
X106846Y511835D01*
X106394Y511751D01*
X105939Y511678D01*
X105483Y511616D01*
X105026Y511565D01*
X104567Y511526D01*
X104108Y511498D01*
X103648Y511481D01*
X103188Y511475D01*
X102728Y511481D01*
X102268Y511498D01*
X101809Y511526D01*
X101350Y511565D01*
X100893Y511616D01*
X100437Y511678D01*
X99982Y511751D01*
X99530Y511835D01*
X99080Y511931D01*
X98632Y512037D01*
X98187Y512154D01*
X97745Y512282D01*
X97306Y512421D01*
X96871Y512571D01*
X96440Y512731D01*
X96013Y512902D01*
X95590Y513084D01*
X95171Y513275D01*
X94758Y513477D01*
X94349Y513689D01*
X93946Y513911D01*
X93549Y514143D01*
X93157Y514384D01*
X92771Y514635D01*
X92392Y514895D01*
X92019Y515165D01*
X91652Y515444D01*
X91293Y515731D01*
X90941Y516027D01*
X90596Y516332D01*
X90259Y516645D01*
X89930Y516967D01*
X89608Y517296D01*
X89295Y517633D01*
X88990Y517978D01*
X88694Y518330D01*
X88407Y518689D01*
X88128Y519056D01*
X87858Y519429D01*
X87598Y519808D01*
X87347Y520194D01*
X87106Y520586D01*
X86874Y520983D01*
X86652Y521386D01*
X86440Y521795D01*
X86238Y522208D01*
X86047Y522627D01*
X85865Y523050D01*
X85694Y523477D01*
X85534Y523908D01*
X85384Y524343D01*
X85245Y524782D01*
X85117Y525224D01*
X85000Y525669D01*
X84894Y526117D01*
X84798Y526567D01*
X84714Y527019D01*
X84641Y527474D01*
X84579Y527930D01*
X84528Y528387D01*
X84489Y528846D01*
X84461Y529305D01*
X84444Y529765D01*
X84438Y530225D01*
D14*
X227250Y492500D02*
X227255Y492874D01*
X227268Y493248D01*
X227291Y493622D01*
X227323Y493995D01*
X227365Y494367D01*
X227415Y494738D01*
X227475Y495107D01*
X227543Y495475D01*
X227621Y495841D01*
X227707Y496205D01*
X227802Y496567D01*
X227907Y496927D01*
X228020Y497284D01*
X228141Y497638D01*
X228272Y497988D01*
X228411Y498336D01*
X228558Y498680D01*
X228714Y499020D01*
X228878Y499357D01*
X229051Y499689D01*
X229231Y500017D01*
X229420Y500340D01*
X229616Y500659D01*
X229820Y500972D01*
X230032Y501281D01*
X230251Y501584D01*
X230478Y501882D01*
X230712Y502174D01*
X230953Y502461D01*
X231200Y502741D01*
X231455Y503015D01*
X231717Y503283D01*
X231985Y503545D01*
X232259Y503800D01*
X232539Y504047D01*
X232826Y504288D01*
X233118Y504522D01*
X233416Y504749D01*
X233719Y504968D01*
X234028Y505180D01*
X234341Y505384D01*
X234660Y505580D01*
X234983Y505769D01*
X235311Y505949D01*
X235643Y506122D01*
X235980Y506286D01*
X236320Y506442D01*
X236664Y506589D01*
X237012Y506728D01*
X237362Y506859D01*
X237716Y506980D01*
X238073Y507093D01*
X238433Y507198D01*
X238795Y507293D01*
X239159Y507379D01*
X239525Y507457D01*
X239893Y507525D01*
X240262Y507585D01*
X240633Y507635D01*
X241005Y507677D01*
X241378Y507709D01*
X241752Y507732D01*
X242126Y507745D01*
X242500Y507750D01*
X242874Y507745D01*
X243248Y507732D01*
X243622Y507709D01*
X243995Y507677D01*
X244367Y507635D01*
X244738Y507585D01*
X245107Y507525D01*
X245475Y507457D01*
X245841Y507379D01*
X246205Y507293D01*
X246567Y507198D01*
X246927Y507093D01*
X247284Y506980D01*
X247638Y506859D01*
X247988Y506728D01*
X248336Y506589D01*
X248680Y506442D01*
X249020Y506286D01*
X249357Y506122D01*
X249689Y505949D01*
X250017Y505769D01*
X250340Y505580D01*
X250659Y505384D01*
X250972Y505180D01*
X251281Y504968D01*
X251584Y504749D01*
X251882Y504522D01*
X252174Y504288D01*
X252461Y504047D01*
X252741Y503800D01*
X253015Y503545D01*
X253283Y503283D01*
X253545Y503015D01*
X253800Y502741D01*
X254047Y502461D01*
X254288Y502174D01*
X254522Y501882D01*
X254749Y501584D01*
X254968Y501281D01*
X255180Y500972D01*
X255384Y500659D01*
X255580Y500340D01*
X255769Y500017D01*
X255949Y499689D01*
X256122Y499357D01*
X256286Y499020D01*
X256442Y498680D01*
X256589Y498336D01*
X256728Y497988D01*
X256859Y497638D01*
X256980Y497284D01*
X257093Y496927D01*
X257198Y496567D01*
X257293Y496205D01*
X257379Y495841D01*
X257457Y495475D01*
X257525Y495107D01*
X257585Y494738D01*
X257635Y494367D01*
X257677Y493995D01*
X257709Y493622D01*
X257732Y493248D01*
X257745Y492874D01*
X257750Y492500D01*
X257745Y492126D01*
X257732Y491752D01*
X257709Y491378D01*
X257677Y491005D01*
X257635Y490633D01*
X257585Y490262D01*
X257525Y489893D01*
X257457Y489525D01*
X257379Y489159D01*
X257293Y488795D01*
X257198Y488433D01*
X257093Y488073D01*
X256980Y487716D01*
X256859Y487362D01*
X256728Y487012D01*
X256589Y486664D01*
X256442Y486320D01*
X256286Y485980D01*
X256122Y485643D01*
X255949Y485311D01*
X255769Y484983D01*
X255580Y484660D01*
X255384Y484341D01*
X255180Y484028D01*
X254968Y483719D01*
X254749Y483416D01*
X254522Y483118D01*
X254288Y482826D01*
X254047Y482539D01*
X253800Y482259D01*
X253545Y481985D01*
X253283Y481717D01*
X253015Y481455D01*
X252741Y481200D01*
X252461Y480953D01*
X252174Y480712D01*
X251882Y480478D01*
X251584Y480251D01*
X251281Y480032D01*
X250972Y479820D01*
X250659Y479616D01*
X250340Y479420D01*
X250017Y479231D01*
X249689Y479051D01*
X249357Y478878D01*
X249020Y478714D01*
X248680Y478558D01*
X248336Y478411D01*
X247988Y478272D01*
X247638Y478141D01*
X247284Y478020D01*
X246927Y477907D01*
X246567Y477802D01*
X246205Y477707D01*
X245841Y477621D01*
X245475Y477543D01*
X245107Y477475D01*
X244738Y477415D01*
X244367Y477365D01*
X243995Y477323D01*
X243622Y477291D01*
X243248Y477268D01*
X242874Y477255D01*
X242500Y477250D01*
X242126Y477255D01*
X241752Y477268D01*
X241378Y477291D01*
X241005Y477323D01*
X240633Y477365D01*
X240262Y477415D01*
X239893Y477475D01*
X239525Y477543D01*
X239159Y477621D01*
X238795Y477707D01*
X238433Y477802D01*
X238073Y477907D01*
X237716Y478020D01*
X237362Y478141D01*
X237012Y478272D01*
X236664Y478411D01*
X236320Y478558D01*
X235980Y478714D01*
X235643Y478878D01*
X235311Y479051D01*
X234983Y479231D01*
X234660Y479420D01*
X234341Y479616D01*
X234028Y479820D01*
X233719Y480032D01*
X233416Y480251D01*
X233118Y480478D01*
X232826Y480712D01*
X232539Y480953D01*
X232259Y481200D01*
X231985Y481455D01*
X231717Y481717D01*
X231455Y481985D01*
X231200Y482259D01*
X230953Y482539D01*
X230712Y482826D01*
X230478Y483118D01*
X230251Y483416D01*
X230032Y483719D01*
X229820Y484028D01*
X229616Y484341D01*
X229420Y484660D01*
X229231Y484983D01*
X229051Y485311D01*
X228878Y485643D01*
X228714Y485980D01*
X228558Y486320D01*
X228411Y486664D01*
X228272Y487012D01*
X228141Y487362D01*
X228020Y487716D01*
X227907Y488073D01*
X227802Y488433D01*
X227707Y488795D01*
X227621Y489159D01*
X227543Y489525D01*
X227475Y489893D01*
X227415Y490262D01*
X227365Y490633D01*
X227323Y491005D01*
X227291Y491378D01*
X227268Y491752D01*
X227255Y492126D01*
X227250Y492500D01*
X227250Y117500D02*
X227255Y117874D01*
X227268Y118248D01*
X227291Y118622D01*
X227323Y118995D01*
X227365Y119367D01*
X227415Y119738D01*
X227475Y120107D01*
X227543Y120475D01*
X227621Y120841D01*
X227707Y121205D01*
X227802Y121567D01*
X227907Y121927D01*
X228020Y122284D01*
X228141Y122638D01*
X228272Y122988D01*
X228411Y123336D01*
X228558Y123680D01*
X228714Y124020D01*
X228878Y124357D01*
X229051Y124689D01*
X229231Y125017D01*
X229420Y125340D01*
X229616Y125659D01*
X229820Y125972D01*
X230032Y126281D01*
X230251Y126584D01*
X230478Y126882D01*
X230712Y127174D01*
X230953Y127461D01*
X231200Y127741D01*
X231455Y128015D01*
X231717Y128283D01*
X231985Y128545D01*
X232259Y128800D01*
X232539Y129047D01*
X232826Y129288D01*
X233118Y129522D01*
X233416Y129749D01*
X233719Y129968D01*
X234028Y130180D01*
X234341Y130384D01*
X234660Y130580D01*
X234983Y130769D01*
X235311Y130949D01*
X235643Y131122D01*
X235980Y131286D01*
X236320Y131442D01*
X236664Y131589D01*
X237012Y131728D01*
X237362Y131859D01*
X237716Y131980D01*
X238073Y132093D01*
X238433Y132198D01*
X238795Y132293D01*
X239159Y132379D01*
X239525Y132457D01*
X239893Y132525D01*
X240262Y132585D01*
X240633Y132635D01*
X241005Y132677D01*
X241378Y132709D01*
X241752Y132732D01*
X242126Y132745D01*
X242500Y132750D01*
X242874Y132745D01*
X243248Y132732D01*
X243622Y132709D01*
X243995Y132677D01*
X244367Y132635D01*
X244738Y132585D01*
X245107Y132525D01*
X245475Y132457D01*
X245841Y132379D01*
X246205Y132293D01*
X246567Y132198D01*
X246927Y132093D01*
X247284Y131980D01*
X247638Y131859D01*
X247988Y131728D01*
X248336Y131589D01*
X248680Y131442D01*
X249020Y131286D01*
X249357Y131122D01*
X249689Y130949D01*
X250017Y130769D01*
X250340Y130580D01*
X250659Y130384D01*
X250972Y130180D01*
X251281Y129968D01*
X251584Y129749D01*
X251882Y129522D01*
X252174Y129288D01*
X252461Y129047D01*
X252741Y128800D01*
X253015Y128545D01*
X253283Y128283D01*
X253545Y128015D01*
X253800Y127741D01*
X254047Y127461D01*
X254288Y127174D01*
X254522Y126882D01*
X254749Y126584D01*
X254968Y126281D01*
X255180Y125972D01*
X255384Y125659D01*
X255580Y125340D01*
X255769Y125017D01*
X255949Y124689D01*
X256122Y124357D01*
X256286Y124020D01*
X256442Y123680D01*
X256589Y123336D01*
X256728Y122988D01*
X256859Y122638D01*
X256980Y122284D01*
X257093Y121927D01*
X257198Y121567D01*
X257293Y121205D01*
X257379Y120841D01*
X257457Y120475D01*
X257525Y120107D01*
X257585Y119738D01*
X257635Y119367D01*
X257677Y118995D01*
X257709Y118622D01*
X257732Y118248D01*
X257745Y117874D01*
X257750Y117500D01*
X257745Y117126D01*
X257732Y116752D01*
X257709Y116378D01*
X257677Y116005D01*
X257635Y115633D01*
X257585Y115262D01*
X257525Y114893D01*
X257457Y114525D01*
X257379Y114159D01*
X257293Y113795D01*
X257198Y113433D01*
X257093Y113073D01*
X256980Y112716D01*
X256859Y112362D01*
X256728Y112012D01*
X256589Y111664D01*
X256442Y111320D01*
X256286Y110980D01*
X256122Y110643D01*
X255949Y110311D01*
X255769Y109983D01*
X255580Y109660D01*
X255384Y109341D01*
X255180Y109028D01*
X254968Y108719D01*
X254749Y108416D01*
X254522Y108118D01*
X254288Y107826D01*
X254047Y107539D01*
X253800Y107259D01*
X253545Y106985D01*
X253283Y106717D01*
X253015Y106455D01*
X252741Y106200D01*
X252461Y105953D01*
X252174Y105712D01*
X251882Y105478D01*
X251584Y105251D01*
X251281Y105032D01*
X250972Y104820D01*
X250659Y104616D01*
X250340Y104420D01*
X250017Y104231D01*
X249689Y104051D01*
X249357Y103878D01*
X249020Y103714D01*
X248680Y103558D01*
X248336Y103411D01*
X247988Y103272D01*
X247638Y103141D01*
X247284Y103020D01*
X246927Y102907D01*
X246567Y102802D01*
X246205Y102707D01*
X245841Y102621D01*
X245475Y102543D01*
X245107Y102475D01*
X244738Y102415D01*
X244367Y102365D01*
X243995Y102323D01*
X243622Y102291D01*
X243248Y102268D01*
X242874Y102255D01*
X242500Y102250D01*
X242126Y102255D01*
X241752Y102268D01*
X241378Y102291D01*
X241005Y102323D01*
X240633Y102365D01*
X240262Y102415D01*
X239893Y102475D01*
X239525Y102543D01*
X239159Y102621D01*
X238795Y102707D01*
X238433Y102802D01*
X238073Y102907D01*
X237716Y103020D01*
X237362Y103141D01*
X237012Y103272D01*
X236664Y103411D01*
X236320Y103558D01*
X235980Y103714D01*
X235643Y103878D01*
X235311Y104051D01*
X234983Y104231D01*
X234660Y104420D01*
X234341Y104616D01*
X234028Y104820D01*
X233719Y105032D01*
X233416Y105251D01*
X233118Y105478D01*
X232826Y105712D01*
X232539Y105953D01*
X232259Y106200D01*
X231985Y106455D01*
X231717Y106717D01*
X231455Y106985D01*
X231200Y107259D01*
X230953Y107539D01*
X230712Y107826D01*
X230478Y108118D01*
X230251Y108416D01*
X230032Y108719D01*
X229820Y109028D01*
X229616Y109341D01*
X229420Y109660D01*
X229231Y109983D01*
X229051Y110311D01*
X228878Y110643D01*
X228714Y110980D01*
X228558Y111320D01*
X228411Y111664D01*
X228272Y112012D01*
X228141Y112362D01*
X228020Y112716D01*
X227907Y113073D01*
X227802Y113433D01*
X227707Y113795D01*
X227621Y114159D01*
X227543Y114525D01*
X227475Y114893D01*
X227415Y115262D01*
X227365Y115633D01*
X227323Y116005D01*
X227291Y116378D01*
X227268Y116752D01*
X227255Y117126D01*
X227250Y117500D01*
X227250Y242500D02*
X227255Y242874D01*
X227268Y243248D01*
X227291Y243622D01*
X227323Y243995D01*
X227365Y244367D01*
X227415Y244738D01*
X227475Y245107D01*
X227543Y245475D01*
X227621Y245841D01*
X227707Y246205D01*
X227802Y246567D01*
X227907Y246927D01*
X228020Y247284D01*
X228141Y247638D01*
X228272Y247988D01*
X228411Y248336D01*
X228558Y248680D01*
X228714Y249020D01*
X228878Y249357D01*
X229051Y249689D01*
X229231Y250017D01*
X229420Y250340D01*
X229616Y250659D01*
X229820Y250972D01*
X230032Y251281D01*
X230251Y251584D01*
X230478Y251882D01*
X230712Y252174D01*
X230953Y252461D01*
X231200Y252741D01*
X231455Y253015D01*
X231717Y253283D01*
X231985Y253545D01*
X232259Y253800D01*
X232539Y254047D01*
X232826Y254288D01*
X233118Y254522D01*
X233416Y254749D01*
X233719Y254968D01*
X234028Y255180D01*
X234341Y255384D01*
X234660Y255580D01*
X234983Y255769D01*
X235311Y255949D01*
X235643Y256122D01*
X235980Y256286D01*
X236320Y256442D01*
X236664Y256589D01*
X237012Y256728D01*
X237362Y256859D01*
X237716Y256980D01*
X238073Y257093D01*
X238433Y257198D01*
X238795Y257293D01*
X239159Y257379D01*
X239525Y257457D01*
X239893Y257525D01*
X240262Y257585D01*
X240633Y257635D01*
X241005Y257677D01*
X241378Y257709D01*
X241752Y257732D01*
X242126Y257745D01*
X242500Y257750D01*
X242874Y257745D01*
X243248Y257732D01*
X243622Y257709D01*
X243995Y257677D01*
X244367Y257635D01*
X244738Y257585D01*
X245107Y257525D01*
X245475Y257457D01*
X245841Y257379D01*
X246205Y257293D01*
X246567Y257198D01*
X246927Y257093D01*
X247284Y256980D01*
X247638Y256859D01*
X247988Y256728D01*
X248336Y256589D01*
X248680Y256442D01*
X249020Y256286D01*
X249357Y256122D01*
X249689Y255949D01*
X250017Y255769D01*
X250340Y255580D01*
X250659Y255384D01*
X250972Y255180D01*
X251281Y254968D01*
X251584Y254749D01*
X251882Y254522D01*
X252174Y254288D01*
X252461Y254047D01*
X252741Y253800D01*
X253015Y253545D01*
X253283Y253283D01*
X253545Y253015D01*
X253800Y252741D01*
X254047Y252461D01*
X254288Y252174D01*
X254522Y251882D01*
X254749Y251584D01*
X254968Y251281D01*
X255180Y250972D01*
X255384Y250659D01*
X255580Y250340D01*
X255769Y250017D01*
X255949Y249689D01*
X256122Y249357D01*
X256286Y249020D01*
X256442Y248680D01*
X256589Y248336D01*
X256728Y247988D01*
X256859Y247638D01*
X256980Y247284D01*
X257093Y246927D01*
X257198Y246567D01*
X257293Y246205D01*
X257379Y245841D01*
X257457Y245475D01*
X257525Y245107D01*
X257585Y244738D01*
X257635Y244367D01*
X257677Y243995D01*
X257709Y243622D01*
X257732Y243248D01*
X257745Y242874D01*
X257750Y242500D01*
X257745Y242126D01*
X257732Y241752D01*
X257709Y241378D01*
X257677Y241005D01*
X257635Y240633D01*
X257585Y240262D01*
X257525Y239893D01*
X257457Y239525D01*
X257379Y239159D01*
X257293Y238795D01*
X257198Y238433D01*
X257093Y238073D01*
X256980Y237716D01*
X256859Y237362D01*
X256728Y237012D01*
X256589Y236664D01*
X256442Y236320D01*
X256286Y235980D01*
X256122Y235643D01*
X255949Y235311D01*
X255769Y234983D01*
X255580Y234660D01*
X255384Y234341D01*
X255180Y234028D01*
X254968Y233719D01*
X254749Y233416D01*
X254522Y233118D01*
X254288Y232826D01*
X254047Y232539D01*
X253800Y232259D01*
X253545Y231985D01*
X253283Y231717D01*
X253015Y231455D01*
X252741Y231200D01*
X252461Y230953D01*
X252174Y230712D01*
X251882Y230478D01*
X251584Y230251D01*
X251281Y230032D01*
X250972Y229820D01*
X250659Y229616D01*
X250340Y229420D01*
X250017Y229231D01*
X249689Y229051D01*
X249357Y228878D01*
X249020Y228714D01*
X248680Y228558D01*
X248336Y228411D01*
X247988Y228272D01*
X247638Y228141D01*
X247284Y228020D01*
X246927Y227907D01*
X246567Y227802D01*
X246205Y227707D01*
X245841Y227621D01*
X245475Y227543D01*
X245107Y227475D01*
X244738Y227415D01*
X244367Y227365D01*
X243995Y227323D01*
X243622Y227291D01*
X243248Y227268D01*
X242874Y227255D01*
X242500Y227250D01*
X242126Y227255D01*
X241752Y227268D01*
X241378Y227291D01*
X241005Y227323D01*
X240633Y227365D01*
X240262Y227415D01*
X239893Y227475D01*
X239525Y227543D01*
X239159Y227621D01*
X238795Y227707D01*
X238433Y227802D01*
X238073Y227907D01*
X237716Y228020D01*
X237362Y228141D01*
X237012Y228272D01*
X236664Y228411D01*
X236320Y228558D01*
X235980Y228714D01*
X235643Y228878D01*
X235311Y229051D01*
X234983Y229231D01*
X234660Y229420D01*
X234341Y229616D01*
X234028Y229820D01*
X233719Y230032D01*
X233416Y230251D01*
X233118Y230478D01*
X232826Y230712D01*
X232539Y230953D01*
X232259Y231200D01*
X231985Y231455D01*
X231717Y231717D01*
X231455Y231985D01*
X231200Y232259D01*
X230953Y232539D01*
X230712Y232826D01*
X230478Y233118D01*
X230251Y233416D01*
X230032Y233719D01*
X229820Y234028D01*
X229616Y234341D01*
X229420Y234660D01*
X229231Y234983D01*
X229051Y235311D01*
X228878Y235643D01*
X228714Y235980D01*
X228558Y236320D01*
X228411Y236664D01*
X228272Y237012D01*
X228141Y237362D01*
X228020Y237716D01*
X227907Y238073D01*
X227802Y238433D01*
X227707Y238795D01*
X227621Y239159D01*
X227543Y239525D01*
X227475Y239893D01*
X227415Y240262D01*
X227365Y240633D01*
X227323Y241005D01*
X227291Y241378D01*
X227268Y241752D01*
X227255Y242126D01*
X227250Y242500D01*
X227250Y367500D02*
X227255Y367874D01*
X227268Y368248D01*
X227291Y368622D01*
X227323Y368995D01*
X227365Y369367D01*
X227415Y369738D01*
X227475Y370107D01*
X227543Y370475D01*
X227621Y370841D01*
X227707Y371205D01*
X227802Y371567D01*
X227907Y371927D01*
X228020Y372284D01*
X228141Y372638D01*
X228272Y372988D01*
X228411Y373336D01*
X228558Y373680D01*
X228714Y374020D01*
X228878Y374357D01*
X229051Y374689D01*
X229231Y375017D01*
X229420Y375340D01*
X229616Y375659D01*
X229820Y375972D01*
X230032Y376281D01*
X230251Y376584D01*
X230478Y376882D01*
X230712Y377174D01*
X230953Y377461D01*
X231200Y377741D01*
X231455Y378015D01*
X231717Y378283D01*
X231985Y378545D01*
X232259Y378800D01*
X232539Y379047D01*
X232826Y379288D01*
X233118Y379522D01*
X233416Y379749D01*
X233719Y379968D01*
X234028Y380180D01*
X234341Y380384D01*
X234660Y380580D01*
X234983Y380769D01*
X235311Y380949D01*
X235643Y381122D01*
X235980Y381286D01*
X236320Y381442D01*
X236664Y381589D01*
X237012Y381728D01*
X237362Y381859D01*
X237716Y381980D01*
X238073Y382093D01*
X238433Y382198D01*
X238795Y382293D01*
X239159Y382379D01*
X239525Y382457D01*
X239893Y382525D01*
X240262Y382585D01*
X240633Y382635D01*
X241005Y382677D01*
X241378Y382709D01*
X241752Y382732D01*
X242126Y382745D01*
X242500Y382750D01*
X242874Y382745D01*
X243248Y382732D01*
X243622Y382709D01*
X243995Y382677D01*
X244367Y382635D01*
X244738Y382585D01*
X245107Y382525D01*
X245475Y382457D01*
X245841Y382379D01*
X246205Y382293D01*
X246567Y382198D01*
X246927Y382093D01*
X247284Y381980D01*
X247638Y381859D01*
X247988Y381728D01*
X248336Y381589D01*
X248680Y381442D01*
X249020Y381286D01*
X249357Y381122D01*
X249689Y380949D01*
X250017Y380769D01*
X250340Y380580D01*
X250659Y380384D01*
X250972Y380180D01*
X251281Y379968D01*
X251584Y379749D01*
X251882Y379522D01*
X252174Y379288D01*
X252461Y379047D01*
X252741Y378800D01*
X253015Y378545D01*
X253283Y378283D01*
X253545Y378015D01*
X253800Y377741D01*
X254047Y377461D01*
X254288Y377174D01*
X254522Y376882D01*
X254749Y376584D01*
X254968Y376281D01*
X255180Y375972D01*
X255384Y375659D01*
X255580Y375340D01*
X255769Y375017D01*
X255949Y374689D01*
X256122Y374357D01*
X256286Y374020D01*
X256442Y373680D01*
X256589Y373336D01*
X256728Y372988D01*
X256859Y372638D01*
X256980Y372284D01*
X257093Y371927D01*
X257198Y371567D01*
X257293Y371205D01*
X257379Y370841D01*
X257457Y370475D01*
X257525Y370107D01*
X257585Y369738D01*
X257635Y369367D01*
X257677Y368995D01*
X257709Y368622D01*
X257732Y368248D01*
X257745Y367874D01*
X257750Y367500D01*
X257745Y367126D01*
X257732Y366752D01*
X257709Y366378D01*
X257677Y366005D01*
X257635Y365633D01*
X257585Y365262D01*
X257525Y364893D01*
X257457Y364525D01*
X257379Y364159D01*
X257293Y363795D01*
X257198Y363433D01*
X257093Y363073D01*
X256980Y362716D01*
X256859Y362362D01*
X256728Y362012D01*
X256589Y361664D01*
X256442Y361320D01*
X256286Y360980D01*
X256122Y360643D01*
X255949Y360311D01*
X255769Y359983D01*
X255580Y359660D01*
X255384Y359341D01*
X255180Y359028D01*
X254968Y358719D01*
X254749Y358416D01*
X254522Y358118D01*
X254288Y357826D01*
X254047Y357539D01*
X253800Y357259D01*
X253545Y356985D01*
X253283Y356717D01*
X253015Y356455D01*
X252741Y356200D01*
X252461Y355953D01*
X252174Y355712D01*
X251882Y355478D01*
X251584Y355251D01*
X251281Y355032D01*
X250972Y354820D01*
X250659Y354616D01*
X250340Y354420D01*
X250017Y354231D01*
X249689Y354051D01*
X249357Y353878D01*
X249020Y353714D01*
X248680Y353558D01*
X248336Y353411D01*
X247988Y353272D01*
X247638Y353141D01*
X247284Y353020D01*
X246927Y352907D01*
X246567Y352802D01*
X246205Y352707D01*
X245841Y352621D01*
X245475Y352543D01*
X245107Y352475D01*
X244738Y352415D01*
X244367Y352365D01*
X243995Y352323D01*
X243622Y352291D01*
X243248Y352268D01*
X242874Y352255D01*
X242500Y352250D01*
X242126Y352255D01*
X241752Y352268D01*
X241378Y352291D01*
X241005Y352323D01*
X240633Y352365D01*
X240262Y352415D01*
X239893Y352475D01*
X239525Y352543D01*
X239159Y352621D01*
X238795Y352707D01*
X238433Y352802D01*
X238073Y352907D01*
X237716Y353020D01*
X237362Y353141D01*
X237012Y353272D01*
X236664Y353411D01*
X236320Y353558D01*
X235980Y353714D01*
X235643Y353878D01*
X235311Y354051D01*
X234983Y354231D01*
X234660Y354420D01*
X234341Y354616D01*
X234028Y354820D01*
X233719Y355032D01*
X233416Y355251D01*
X233118Y355478D01*
X232826Y355712D01*
X232539Y355953D01*
X232259Y356200D01*
X231985Y356455D01*
X231717Y356717D01*
X231455Y356985D01*
X231200Y357259D01*
X230953Y357539D01*
X230712Y357826D01*
X230478Y358118D01*
X230251Y358416D01*
X230032Y358719D01*
X229820Y359028D01*
X229616Y359341D01*
X229420Y359660D01*
X229231Y359983D01*
X229051Y360311D01*
X228878Y360643D01*
X228714Y360980D01*
X228558Y361320D01*
X228411Y361664D01*
X228272Y362012D01*
X228141Y362362D01*
X228020Y362716D01*
X227907Y363073D01*
X227802Y363433D01*
X227707Y363795D01*
X227621Y364159D01*
X227543Y364525D01*
X227475Y364893D01*
X227415Y365262D01*
X227365Y365633D01*
X227323Y366005D01*
X227291Y366378D01*
X227268Y366752D01*
X227255Y367126D01*
X227250Y367500D01*
X347250Y117500D02*
X347255Y117874D01*
X347268Y118248D01*
X347291Y118622D01*
X347323Y118995D01*
X347365Y119367D01*
X347415Y119738D01*
X347475Y120107D01*
X347543Y120475D01*
X347621Y120841D01*
X347707Y121205D01*
X347802Y121567D01*
X347907Y121927D01*
X348020Y122284D01*
X348141Y122638D01*
X348272Y122988D01*
X348411Y123336D01*
X348558Y123680D01*
X348714Y124020D01*
X348878Y124357D01*
X349051Y124689D01*
X349231Y125017D01*
X349420Y125340D01*
X349616Y125659D01*
X349820Y125972D01*
X350032Y126281D01*
X350251Y126584D01*
X350478Y126882D01*
X350712Y127174D01*
X350953Y127461D01*
X351200Y127741D01*
X351455Y128015D01*
X351717Y128283D01*
X351985Y128545D01*
X352259Y128800D01*
X352539Y129047D01*
X352826Y129288D01*
X353118Y129522D01*
X353416Y129749D01*
X353719Y129968D01*
X354028Y130180D01*
X354341Y130384D01*
X354660Y130580D01*
X354983Y130769D01*
X355311Y130949D01*
X355643Y131122D01*
X355980Y131286D01*
X356320Y131442D01*
X356664Y131589D01*
X357012Y131728D01*
X357362Y131859D01*
X357716Y131980D01*
X358073Y132093D01*
X358433Y132198D01*
X358795Y132293D01*
X359159Y132379D01*
X359525Y132457D01*
X359893Y132525D01*
X360262Y132585D01*
X360633Y132635D01*
X361005Y132677D01*
X361378Y132709D01*
X361752Y132732D01*
X362126Y132745D01*
X362500Y132750D01*
X362874Y132745D01*
X363248Y132732D01*
X363622Y132709D01*
X363995Y132677D01*
X364367Y132635D01*
X364738Y132585D01*
X365107Y132525D01*
X365475Y132457D01*
X365841Y132379D01*
X366205Y132293D01*
X366567Y132198D01*
X366927Y132093D01*
X367284Y131980D01*
X367638Y131859D01*
X367988Y131728D01*
X368336Y131589D01*
X368680Y131442D01*
X369020Y131286D01*
X369357Y131122D01*
X369689Y130949D01*
X370017Y130769D01*
X370340Y130580D01*
X370659Y130384D01*
X370972Y130180D01*
X371281Y129968D01*
X371584Y129749D01*
X371882Y129522D01*
X372174Y129288D01*
X372461Y129047D01*
X372741Y128800D01*
X373015Y128545D01*
X373283Y128283D01*
X373545Y128015D01*
X373800Y127741D01*
X374047Y127461D01*
X374288Y127174D01*
X374522Y126882D01*
X374749Y126584D01*
X374968Y126281D01*
X375180Y125972D01*
X375384Y125659D01*
X375580Y125340D01*
X375769Y125017D01*
X375949Y124689D01*
X376122Y124357D01*
X376286Y124020D01*
X376442Y123680D01*
X376589Y123336D01*
X376728Y122988D01*
X376859Y122638D01*
X376980Y122284D01*
X377093Y121927D01*
X377198Y121567D01*
X377293Y121205D01*
X377379Y120841D01*
X377457Y120475D01*
X377525Y120107D01*
X377585Y119738D01*
X377635Y119367D01*
X377677Y118995D01*
X377709Y118622D01*
X377732Y118248D01*
X377745Y117874D01*
X377750Y117500D01*
X377745Y117126D01*
X377732Y116752D01*
X377709Y116378D01*
X377677Y116005D01*
X377635Y115633D01*
X377585Y115262D01*
X377525Y114893D01*
X377457Y114525D01*
X377379Y114159D01*
X377293Y113795D01*
X377198Y113433D01*
X377093Y113073D01*
X376980Y112716D01*
X376859Y112362D01*
X376728Y112012D01*
X376589Y111664D01*
X376442Y111320D01*
X376286Y110980D01*
X376122Y110643D01*
X375949Y110311D01*
X375769Y109983D01*
X375580Y109660D01*
X375384Y109341D01*
X375180Y109028D01*
X374968Y108719D01*
X374749Y108416D01*
X374522Y108118D01*
X374288Y107826D01*
X374047Y107539D01*
X373800Y107259D01*
X373545Y106985D01*
X373283Y106717D01*
X373015Y106455D01*
X372741Y106200D01*
X372461Y105953D01*
X372174Y105712D01*
X371882Y105478D01*
X371584Y105251D01*
X371281Y105032D01*
X370972Y104820D01*
X370659Y104616D01*
X370340Y104420D01*
X370017Y104231D01*
X369689Y104051D01*
X369357Y103878D01*
X369020Y103714D01*
X368680Y103558D01*
X368336Y103411D01*
X367988Y103272D01*
X367638Y103141D01*
X367284Y103020D01*
X366927Y102907D01*
X366567Y102802D01*
X366205Y102707D01*
X365841Y102621D01*
X365475Y102543D01*
X365107Y102475D01*
X364738Y102415D01*
X364367Y102365D01*
X363995Y102323D01*
X363622Y102291D01*
X363248Y102268D01*
X362874Y102255D01*
X362500Y102250D01*
X362126Y102255D01*
X361752Y102268D01*
X361378Y102291D01*
X361005Y102323D01*
X360633Y102365D01*
X360262Y102415D01*
X359893Y102475D01*
X359525Y102543D01*
X359159Y102621D01*
X358795Y102707D01*
X358433Y102802D01*
X358073Y102907D01*
X357716Y103020D01*
X357362Y103141D01*
X357012Y103272D01*
X356664Y103411D01*
X356320Y103558D01*
X355980Y103714D01*
X355643Y103878D01*
X355311Y104051D01*
X354983Y104231D01*
X354660Y104420D01*
X354341Y104616D01*
X354028Y104820D01*
X353719Y105032D01*
X353416Y105251D01*
X353118Y105478D01*
X352826Y105712D01*
X352539Y105953D01*
X352259Y106200D01*
X351985Y106455D01*
X351717Y106717D01*
X351455Y106985D01*
X351200Y107259D01*
X350953Y107539D01*
X350712Y107826D01*
X350478Y108118D01*
X350251Y108416D01*
X350032Y108719D01*
X349820Y109028D01*
X349616Y109341D01*
X349420Y109660D01*
X349231Y109983D01*
X349051Y110311D01*
X348878Y110643D01*
X348714Y110980D01*
X348558Y111320D01*
X348411Y111664D01*
X348272Y112012D01*
X348141Y112362D01*
X348020Y112716D01*
X347907Y113073D01*
X347802Y113433D01*
X347707Y113795D01*
X347621Y114159D01*
X347543Y114525D01*
X347475Y114893D01*
X347415Y115262D01*
X347365Y115633D01*
X347323Y116005D01*
X347291Y116378D01*
X347268Y116752D01*
X347255Y117126D01*
X347250Y117500D01*
X347250Y242500D02*
X347255Y242874D01*
X347268Y243248D01*
X347291Y243622D01*
X347323Y243995D01*
X347365Y244367D01*
X347415Y244738D01*
X347475Y245107D01*
X347543Y245475D01*
X347621Y245841D01*
X347707Y246205D01*
X347802Y246567D01*
X347907Y246927D01*
X348020Y247284D01*
X348141Y247638D01*
X348272Y247988D01*
X348411Y248336D01*
X348558Y248680D01*
X348714Y249020D01*
X348878Y249357D01*
X349051Y249689D01*
X349231Y250017D01*
X349420Y250340D01*
X349616Y250659D01*
X349820Y250972D01*
X350032Y251281D01*
X350251Y251584D01*
X350478Y251882D01*
X350712Y252174D01*
X350953Y252461D01*
X351200Y252741D01*
X351455Y253015D01*
X351717Y253283D01*
X351985Y253545D01*
X352259Y253800D01*
X352539Y254047D01*
X352826Y254288D01*
X353118Y254522D01*
X353416Y254749D01*
X353719Y254968D01*
X354028Y255180D01*
X354341Y255384D01*
X354660Y255580D01*
X354983Y255769D01*
X355311Y255949D01*
X355643Y256122D01*
X355980Y256286D01*
X356320Y256442D01*
X356664Y256589D01*
X357012Y256728D01*
X357362Y256859D01*
X357716Y256980D01*
X358073Y257093D01*
X358433Y257198D01*
X358795Y257293D01*
X359159Y257379D01*
X359525Y257457D01*
X359893Y257525D01*
X360262Y257585D01*
X360633Y257635D01*
X361005Y257677D01*
X361378Y257709D01*
X361752Y257732D01*
X362126Y257745D01*
X362500Y257750D01*
X362874Y257745D01*
X363248Y257732D01*
X363622Y257709D01*
X363995Y257677D01*
X364367Y257635D01*
X364738Y257585D01*
X365107Y257525D01*
X365475Y257457D01*
X365841Y257379D01*
X366205Y257293D01*
X366567Y257198D01*
X366927Y257093D01*
X367284Y256980D01*
X367638Y256859D01*
X367988Y256728D01*
X368336Y256589D01*
X368680Y256442D01*
X369020Y256286D01*
X369357Y256122D01*
X369689Y255949D01*
X370017Y255769D01*
X370340Y255580D01*
X370659Y255384D01*
X370972Y255180D01*
X371281Y254968D01*
X371584Y254749D01*
X371882Y254522D01*
X372174Y254288D01*
X372461Y254047D01*
X372741Y253800D01*
X373015Y253545D01*
X373283Y253283D01*
X373545Y253015D01*
X373800Y252741D01*
X374047Y252461D01*
X374288Y252174D01*
X374522Y251882D01*
X374749Y251584D01*
X374968Y251281D01*
X375180Y250972D01*
X375384Y250659D01*
X375580Y250340D01*
X375769Y250017D01*
X375949Y249689D01*
X376122Y249357D01*
X376286Y249020D01*
X376442Y248680D01*
X376589Y248336D01*
X376728Y247988D01*
X376859Y247638D01*
X376980Y247284D01*
X377093Y246927D01*
X377198Y246567D01*
X377293Y246205D01*
X377379Y245841D01*
X377457Y245475D01*
X377525Y245107D01*
X377585Y244738D01*
X377635Y244367D01*
X377677Y243995D01*
X377709Y243622D01*
X377732Y243248D01*
X377745Y242874D01*
X377750Y242500D01*
X377745Y242126D01*
X377732Y241752D01*
X377709Y241378D01*
X377677Y241005D01*
X377635Y240633D01*
X377585Y240262D01*
X377525Y239893D01*
X377457Y239525D01*
X377379Y239159D01*
X377293Y238795D01*
X377198Y238433D01*
X377093Y238073D01*
X376980Y237716D01*
X376859Y237362D01*
X376728Y237012D01*
X376589Y236664D01*
X376442Y236320D01*
X376286Y235980D01*
X376122Y235643D01*
X375949Y235311D01*
X375769Y234983D01*
X375580Y234660D01*
X375384Y234341D01*
X375180Y234028D01*
X374968Y233719D01*
X374749Y233416D01*
X374522Y233118D01*
X374288Y232826D01*
X374047Y232539D01*
X373800Y232259D01*
X373545Y231985D01*
X373283Y231717D01*
X373015Y231455D01*
X372741Y231200D01*
X372461Y230953D01*
X372174Y230712D01*
X371882Y230478D01*
X371584Y230251D01*
X371281Y230032D01*
X370972Y229820D01*
X370659Y229616D01*
X370340Y229420D01*
X370017Y229231D01*
X369689Y229051D01*
X369357Y228878D01*
X369020Y228714D01*
X368680Y228558D01*
X368336Y228411D01*
X367988Y228272D01*
X367638Y228141D01*
X367284Y228020D01*
X366927Y227907D01*
X366567Y227802D01*
X366205Y227707D01*
X365841Y227621D01*
X365475Y227543D01*
X365107Y227475D01*
X364738Y227415D01*
X364367Y227365D01*
X363995Y227323D01*
X363622Y227291D01*
X363248Y227268D01*
X362874Y227255D01*
X362500Y227250D01*
X362126Y227255D01*
X361752Y227268D01*
X361378Y227291D01*
X361005Y227323D01*
X360633Y227365D01*
X360262Y227415D01*
X359893Y227475D01*
X359525Y227543D01*
X359159Y227621D01*
X358795Y227707D01*
X358433Y227802D01*
X358073Y227907D01*
X357716Y228020D01*
X357362Y228141D01*
X357012Y228272D01*
X356664Y228411D01*
X356320Y228558D01*
X355980Y228714D01*
X355643Y228878D01*
X355311Y229051D01*
X354983Y229231D01*
X354660Y229420D01*
X354341Y229616D01*
X354028Y229820D01*
X353719Y230032D01*
X353416Y230251D01*
X353118Y230478D01*
X352826Y230712D01*
X352539Y230953D01*
X352259Y231200D01*
X351985Y231455D01*
X351717Y231717D01*
X351455Y231985D01*
X351200Y232259D01*
X350953Y232539D01*
X350712Y232826D01*
X350478Y233118D01*
X350251Y233416D01*
X350032Y233719D01*
X349820Y234028D01*
X349616Y234341D01*
X349420Y234660D01*
X349231Y234983D01*
X349051Y235311D01*
X348878Y235643D01*
X348714Y235980D01*
X348558Y236320D01*
X348411Y236664D01*
X348272Y237012D01*
X348141Y237362D01*
X348020Y237716D01*
X347907Y238073D01*
X347802Y238433D01*
X347707Y238795D01*
X347621Y239159D01*
X347543Y239525D01*
X347475Y239893D01*
X347415Y240262D01*
X347365Y240633D01*
X347323Y241005D01*
X347291Y241378D01*
X347268Y241752D01*
X347255Y242126D01*
X347250Y242500D01*
X347250Y367500D02*
X347255Y367874D01*
X347268Y368248D01*
X347291Y368622D01*
X347323Y368995D01*
X347365Y369367D01*
X347415Y369738D01*
X347475Y370107D01*
X347543Y370475D01*
X347621Y370841D01*
X347707Y371205D01*
X347802Y371567D01*
X347907Y371927D01*
X348020Y372284D01*
X348141Y372638D01*
X348272Y372988D01*
X348411Y373336D01*
X348558Y373680D01*
X348714Y374020D01*
X348878Y374357D01*
X349051Y374689D01*
X349231Y375017D01*
X349420Y375340D01*
X349616Y375659D01*
X349820Y375972D01*
X350032Y376281D01*
X350251Y376584D01*
X350478Y376882D01*
X350712Y377174D01*
X350953Y377461D01*
X351200Y377741D01*
X351455Y378015D01*
X351717Y378283D01*
X351985Y378545D01*
X352259Y378800D01*
X352539Y379047D01*
X352826Y379288D01*
X353118Y379522D01*
X353416Y379749D01*
X353719Y379968D01*
X354028Y380180D01*
X354341Y380384D01*
X354660Y380580D01*
X354983Y380769D01*
X355311Y380949D01*
X355643Y381122D01*
X355980Y381286D01*
X356320Y381442D01*
X356664Y381589D01*
X357012Y381728D01*
X357362Y381859D01*
X357716Y381980D01*
X358073Y382093D01*
X358433Y382198D01*
X358795Y382293D01*
X359159Y382379D01*
X359525Y382457D01*
X359893Y382525D01*
X360262Y382585D01*
X360633Y382635D01*
X361005Y382677D01*
X361378Y382709D01*
X361752Y382732D01*
X362126Y382745D01*
X362500Y382750D01*
X362874Y382745D01*
X363248Y382732D01*
X363622Y382709D01*
X363995Y382677D01*
X364367Y382635D01*
X364738Y382585D01*
X365107Y382525D01*
X365475Y382457D01*
X365841Y382379D01*
X366205Y382293D01*
X366567Y382198D01*
X366927Y382093D01*
X367284Y381980D01*
X367638Y381859D01*
X367988Y381728D01*
X368336Y381589D01*
X368680Y381442D01*
X369020Y381286D01*
X369357Y381122D01*
X369689Y380949D01*
X370017Y380769D01*
X370340Y380580D01*
X370659Y380384D01*
X370972Y380180D01*
X371281Y379968D01*
X371584Y379749D01*
X371882Y379522D01*
X372174Y379288D01*
X372461Y379047D01*
X372741Y378800D01*
X373015Y378545D01*
X373283Y378283D01*
X373545Y378015D01*
X373800Y377741D01*
X374047Y377461D01*
X374288Y377174D01*
X374522Y376882D01*
X374749Y376584D01*
X374968Y376281D01*
X375180Y375972D01*
X375384Y375659D01*
X375580Y375340D01*
X375769Y375017D01*
X375949Y374689D01*
X376122Y374357D01*
X376286Y374020D01*
X376442Y373680D01*
X376589Y373336D01*
X376728Y372988D01*
X376859Y372638D01*
X376980Y372284D01*
X377093Y371927D01*
X377198Y371567D01*
X377293Y371205D01*
X377379Y370841D01*
X377457Y370475D01*
X377525Y370107D01*
X377585Y369738D01*
X377635Y369367D01*
X377677Y368995D01*
X377709Y368622D01*
X377732Y368248D01*
X377745Y367874D01*
X377750Y367500D01*
X377745Y367126D01*
X377732Y366752D01*
X377709Y366378D01*
X377677Y366005D01*
X377635Y365633D01*
X377585Y365262D01*
X377525Y364893D01*
X377457Y364525D01*
X377379Y364159D01*
X377293Y363795D01*
X377198Y363433D01*
X377093Y363073D01*
X376980Y362716D01*
X376859Y362362D01*
X376728Y362012D01*
X376589Y361664D01*
X376442Y361320D01*
X376286Y360980D01*
X376122Y360643D01*
X375949Y360311D01*
X375769Y359983D01*
X375580Y359660D01*
X375384Y359341D01*
X375180Y359028D01*
X374968Y358719D01*
X374749Y358416D01*
X374522Y358118D01*
X374288Y357826D01*
X374047Y357539D01*
X373800Y357259D01*
X373545Y356985D01*
X373283Y356717D01*
X373015Y356455D01*
X372741Y356200D01*
X372461Y355953D01*
X372174Y355712D01*
X371882Y355478D01*
X371584Y355251D01*
X371281Y355032D01*
X370972Y354820D01*
X370659Y354616D01*
X370340Y354420D01*
X370017Y354231D01*
X369689Y354051D01*
X369357Y353878D01*
X369020Y353714D01*
X368680Y353558D01*
X368336Y353411D01*
X367988Y353272D01*
X367638Y353141D01*
X367284Y353020D01*
X366927Y352907D01*
X366567Y352802D01*
X366205Y352707D01*
X365841Y352621D01*
X365475Y352543D01*
X365107Y352475D01*
X364738Y352415D01*
X364367Y352365D01*
X363995Y352323D01*
X363622Y352291D01*
X363248Y352268D01*
X362874Y352255D01*
X362500Y352250D01*
X362126Y352255D01*
X361752Y352268D01*
X361378Y352291D01*
X361005Y352323D01*
X360633Y352365D01*
X360262Y352415D01*
X359893Y352475D01*
X359525Y352543D01*
X359159Y352621D01*
X358795Y352707D01*
X358433Y352802D01*
X358073Y352907D01*
X357716Y353020D01*
X357362Y353141D01*
X357012Y353272D01*
X356664Y353411D01*
X356320Y353558D01*
X355980Y353714D01*
X355643Y353878D01*
X355311Y354051D01*
X354983Y354231D01*
X354660Y354420D01*
X354341Y354616D01*
X354028Y354820D01*
X353719Y355032D01*
X353416Y355251D01*
X353118Y355478D01*
X352826Y355712D01*
X352539Y355953D01*
X352259Y356200D01*
X351985Y356455D01*
X351717Y356717D01*
X351455Y356985D01*
X351200Y357259D01*
X350953Y357539D01*
X350712Y357826D01*
X350478Y358118D01*
X350251Y358416D01*
X350032Y358719D01*
X349820Y359028D01*
X349616Y359341D01*
X349420Y359660D01*
X349231Y359983D01*
X349051Y360311D01*
X348878Y360643D01*
X348714Y360980D01*
X348558Y361320D01*
X348411Y361664D01*
X348272Y362012D01*
X348141Y362362D01*
X348020Y362716D01*
X347907Y363073D01*
X347802Y363433D01*
X347707Y363795D01*
X347621Y364159D01*
X347543Y364525D01*
X347475Y364893D01*
X347415Y365262D01*
X347365Y365633D01*
X347323Y366005D01*
X347291Y366378D01*
X347268Y366752D01*
X347255Y367126D01*
X347250Y367500D01*
X347250Y492500D02*
X347255Y492874D01*
X347268Y493248D01*
X347291Y493622D01*
X347323Y493995D01*
X347365Y494367D01*
X347415Y494738D01*
X347475Y495107D01*
X347543Y495475D01*
X347621Y495841D01*
X347707Y496205D01*
X347802Y496567D01*
X347907Y496927D01*
X348020Y497284D01*
X348141Y497638D01*
X348272Y497988D01*
X348411Y498336D01*
X348558Y498680D01*
X348714Y499020D01*
X348878Y499357D01*
X349051Y499689D01*
X349231Y500017D01*
X349420Y500340D01*
X349616Y500659D01*
X349820Y500972D01*
X350032Y501281D01*
X350251Y501584D01*
X350478Y501882D01*
X350712Y502174D01*
X350953Y502461D01*
X351200Y502741D01*
X351455Y503015D01*
X351717Y503283D01*
X351985Y503545D01*
X352259Y503800D01*
X352539Y504047D01*
X352826Y504288D01*
X353118Y504522D01*
X353416Y504749D01*
X353719Y504968D01*
X354028Y505180D01*
X354341Y505384D01*
X354660Y505580D01*
X354983Y505769D01*
X355311Y505949D01*
X355643Y506122D01*
X355980Y506286D01*
X356320Y506442D01*
X356664Y506589D01*
X357012Y506728D01*
X357362Y506859D01*
X357716Y506980D01*
X358073Y507093D01*
X358433Y507198D01*
X358795Y507293D01*
X359159Y507379D01*
X359525Y507457D01*
X359893Y507525D01*
X360262Y507585D01*
X360633Y507635D01*
X361005Y507677D01*
X361378Y507709D01*
X361752Y507732D01*
X362126Y507745D01*
X362500Y507750D01*
X362874Y507745D01*
X363248Y507732D01*
X363622Y507709D01*
X363995Y507677D01*
X364367Y507635D01*
X364738Y507585D01*
X365107Y507525D01*
X365475Y507457D01*
X365841Y507379D01*
X366205Y507293D01*
X366567Y507198D01*
X366927Y507093D01*
X367284Y506980D01*
X367638Y506859D01*
X367988Y506728D01*
X368336Y506589D01*
X368680Y506442D01*
X369020Y506286D01*
X369357Y506122D01*
X369689Y505949D01*
X370017Y505769D01*
X370340Y505580D01*
X370659Y505384D01*
X370972Y505180D01*
X371281Y504968D01*
X371584Y504749D01*
X371882Y504522D01*
X372174Y504288D01*
X372461Y504047D01*
X372741Y503800D01*
X373015Y503545D01*
X373283Y503283D01*
X373545Y503015D01*
X373800Y502741D01*
X374047Y502461D01*
X374288Y502174D01*
X374522Y501882D01*
X374749Y501584D01*
X374968Y501281D01*
X375180Y500972D01*
X375384Y500659D01*
X375580Y500340D01*
X375769Y500017D01*
X375949Y499689D01*
X376122Y499357D01*
X376286Y499020D01*
X376442Y498680D01*
X376589Y498336D01*
X376728Y497988D01*
X376859Y497638D01*
X376980Y497284D01*
X377093Y496927D01*
X377198Y496567D01*
X377293Y496205D01*
X377379Y495841D01*
X377457Y495475D01*
X377525Y495107D01*
X377585Y494738D01*
X377635Y494367D01*
X377677Y493995D01*
X377709Y493622D01*
X377732Y493248D01*
X377745Y492874D01*
X377750Y492500D01*
X377745Y492126D01*
X377732Y491752D01*
X377709Y491378D01*
X377677Y491005D01*
X377635Y490633D01*
X377585Y490262D01*
X377525Y489893D01*
X377457Y489525D01*
X377379Y489159D01*
X377293Y488795D01*
X377198Y488433D01*
X377093Y488073D01*
X376980Y487716D01*
X376859Y487362D01*
X376728Y487012D01*
X376589Y486664D01*
X376442Y486320D01*
X376286Y485980D01*
X376122Y485643D01*
X375949Y485311D01*
X375769Y484983D01*
X375580Y484660D01*
X375384Y484341D01*
X375180Y484028D01*
X374968Y483719D01*
X374749Y483416D01*
X374522Y483118D01*
X374288Y482826D01*
X374047Y482539D01*
X373800Y482259D01*
X373545Y481985D01*
X373283Y481717D01*
X373015Y481455D01*
X372741Y481200D01*
X372461Y480953D01*
X372174Y480712D01*
X371882Y480478D01*
X371584Y480251D01*
X371281Y480032D01*
X370972Y479820D01*
X370659Y479616D01*
X370340Y479420D01*
X370017Y479231D01*
X369689Y479051D01*
X369357Y478878D01*
X369020Y478714D01*
X368680Y478558D01*
X368336Y478411D01*
X367988Y478272D01*
X367638Y478141D01*
X367284Y478020D01*
X366927Y477907D01*
X366567Y477802D01*
X366205Y477707D01*
X365841Y477621D01*
X365475Y477543D01*
X365107Y477475D01*
X364738Y477415D01*
X364367Y477365D01*
X363995Y477323D01*
X363622Y477291D01*
X363248Y477268D01*
X362874Y477255D01*
X362500Y477250D01*
X362126Y477255D01*
X361752Y477268D01*
X361378Y477291D01*
X361005Y477323D01*
X360633Y477365D01*
X360262Y477415D01*
X359893Y477475D01*
X359525Y477543D01*
X359159Y477621D01*
X358795Y477707D01*
X358433Y477802D01*
X358073Y477907D01*
X357716Y478020D01*
X357362Y478141D01*
X357012Y478272D01*
X356664Y478411D01*
X356320Y478558D01*
X355980Y478714D01*
X355643Y478878D01*
X355311Y479051D01*
X354983Y479231D01*
X354660Y479420D01*
X354341Y479616D01*
X354028Y479820D01*
X353719Y480032D01*
X353416Y480251D01*
X353118Y480478D01*
X352826Y480712D01*
X352539Y480953D01*
X352259Y481200D01*
X351985Y481455D01*
X351717Y481717D01*
X351455Y481985D01*
X351200Y482259D01*
X350953Y482539D01*
X350712Y482826D01*
X350478Y483118D01*
X350251Y483416D01*
X350032Y483719D01*
X349820Y484028D01*
X349616Y484341D01*
X349420Y484660D01*
X349231Y484983D01*
X349051Y485311D01*
X348878Y485643D01*
X348714Y485980D01*
X348558Y486320D01*
X348411Y486664D01*
X348272Y487012D01*
X348141Y487362D01*
X348020Y487716D01*
X347907Y488073D01*
X347802Y488433D01*
X347707Y488795D01*
X347621Y489159D01*
X347543Y489525D01*
X347475Y489893D01*
X347415Y490262D01*
X347365Y490633D01*
X347323Y491005D01*
X347291Y491378D01*
X347268Y491752D01*
X347255Y492126D01*
X347250Y492500D01*
M02*
