<!DOCTYPE svg PUBLIC "-//W3C//DTD SVG 1.1//EN" "http://www.w3.org/Graphics/SVG/1.1/DTD/svg11.dtd" >
<svg version="1.1" xmlns="http://www.w3.org/2000/svg" xmlns:xlink="http://www.w3.org/1999/xlink" xml:space="preserve" width="152" height="839">
<g>
<path fill="none" stroke="#9005D2" stroke-width="1" stroke-linecap="round" stroke-linejoin="round" d="M-1162.61,1008.197L-284.2664,-461.1612L-141.1151,900.833L-1162.61,1008.197Z"/>
<path fill="none" stroke="#9005D2" stroke-width="1" stroke-linecap="round" stroke-linejoin="round" d="M-284.2664,-461.1612L421.0252,-39.55589L-232.7319,29.15677L-284.2664,-461.1612Z"/>
<path fill="none" stroke="#9005D2" stroke-width="1" stroke-linecap="round" stroke-linejoin="round" d="M421.0252,-39.55589L1674.877,709.9646L512.6421,832.1204L421.0252,-39.55589Z"/>
</g>
<g>
<path fill="none" stroke="#5BFC39" stroke-width="1" stroke-linecap="round" stroke-linejoin="round" d="M-141.1151,900.833L-174.0972,587.0295L-2.362991,772.0324L-141.1151,900.833Z"/>
<path fill="none" stroke="#5BFC39" stroke-width="1" stroke-linecap="round" stroke-linejoin="round" d="M72.57323,358.0506L-2.362991,772.0324L244.3074,543.0535L72.57323,358.0506Z"/>
<path fill="none" stroke="#5BFC39" stroke-width="1" stroke-linecap="round" stroke-linejoin="round" d="M-2.362991,772.0324L72.57323,358.0506L-174.0972,587.0295L-2.362991,772.0324Z"/>
<path fill="none" stroke="#5BFC39" stroke-width="1" stroke-linecap="round" stroke-linejoin="round" d="M-174.0972,587.0295L-232.7319,29.15679L72.57323,358.0506L-174.0972,587.0295Z"/>
<path fill="none" stroke="#5BFC39" stroke-width="1" stroke-linecap="round" stroke-linejoin="round" d="M421.0252,-39.55589L454.0073,274.2476L282.2731,89.24475L421.0252,-39.55589Z"/>
<path fill="none" stroke="#5BFC39" stroke-width="1" stroke-linecap="round" stroke-linejoin="round" d="M207.3369,503.2265L282.2731,89.24475L35.60271,318.2237L207.3369,503.2265Z"/>
<path fill="none" stroke="#5BFC39" stroke-width="1" stroke-linecap="round" stroke-linejoin="round" d="M282.2731,89.24475L207.3369,503.2265L454.0073,274.2476L282.2731,89.24475Z"/>
<path fill="none" stroke="#5BFC39" stroke-width="1" stroke-linecap="round" stroke-linejoin="round" d="M454.0073,274.2476L512.6421,832.1204L207.3369,503.2265L454.0073,274.2476Z"/>
</g>
<g>
<path fill="none" stroke="#B300B4" stroke-width="1" stroke-linecap="round" stroke-linejoin="round" d="M512.6421,832.1204L244.3074,543.0535L277.2895,856.8569L512.6421,832.1204Z"/>
<path fill="none" stroke="#B300B4" stroke-width="1" stroke-linecap="round" stroke-linejoin="round" d="M244.3074,543.0535L105.5553,671.8541L256.181,656.0227L244.3074,543.0535Z"/>
<path fill="none" stroke="#B300B4" stroke-width="1" stroke-linecap="round" stroke-linejoin="round" d="M126.6638,872.6884L256.181,656.0227L277.2895,856.8569L126.6638,872.6884Z"/>
<path fill="none" stroke="#B300B4" stroke-width="1" stroke-linecap="round" stroke-linejoin="round" d="M-232.7319,29.15677L35.60271,318.2237L2.620621,4.420217L-232.7319,29.15677Z"/>
<path fill="none" stroke="#B300B4" stroke-width="1" stroke-linecap="round" stroke-linejoin="round" d="M35.60271,318.2237L174.3548,189.423L23.72916,205.2544L35.60271,318.2237Z"/>
<path fill="none" stroke="#B300B4" stroke-width="1" stroke-linecap="round" stroke-linejoin="round" d="M174.3548,189.423L421.0252,-39.55589L153.2463,-11.41118L174.3548,189.423Z"/>
</g>
<g>
<path fill="none" stroke="#3AFC5A" stroke-width="1" stroke-linecap="round" stroke-linejoin="round" d="M256.181,656.0227L105.5553,671.8541L209.5548,734.0223L256.181,656.0227Z"/>
<path fill="none" stroke="#3AFC5A" stroke-width="1" stroke-linecap="round" stroke-linejoin="round" d="M105.5553,671.8541L113.1544,744.1545L142.9951,694.2347L105.5553,671.8541Z"/>
<path fill="none" stroke="#3AFC5A" stroke-width="1" stroke-linecap="round" stroke-linejoin="round" d="M179.7141,783.9421L142.9951,694.2347L209.5548,734.0223L179.7141,783.9421Z"/>
<path fill="none" stroke="#3AFC5A" stroke-width="1" stroke-linecap="round" stroke-linejoin="round" d="M142.9951,694.2347L179.7141,783.9421L113.1544,744.1545L142.9951,694.2347Z"/>
<path fill="none" stroke="#3AFC5A" stroke-width="1" stroke-linecap="round" stroke-linejoin="round" d="M30.26339,882.8204L-141.1151,900.833L-40.07892,807.0433L30.26339,882.8204Z"/>
<path fill="none" stroke="#3AFC5A" stroke-width="1" stroke-linecap="round" stroke-linejoin="round" d="M2.620621,4.420217L10.2197,76.72054L40.06044,26.80078L2.620621,4.420217Z"/>
<path fill="none" stroke="#3AFC5A" stroke-width="1" stroke-linecap="round" stroke-linejoin="round" d="M174.3548,189.423L166.7558,117.1227L136.915,167.0425L174.3548,189.423Z"/>
</g>
<g>
<path fill="none" stroke="#D10492" stroke-width="1" stroke-linecap="round" stroke-linejoin="round" d="M179.7141,783.9421L160.616,815.8907L157.5034,786.2766L179.7141,783.9421Z"/>
<path fill="none" stroke="#D10492" stroke-width="1" stroke-linecap="round" stroke-linejoin="round" d="M105.5553,671.8541L16.75395,754.2865L113.1544,744.1544L105.5553,671.8541Z"/>
<path fill="none" stroke="#D10492" stroke-width="1" stroke-linecap="round" stroke-linejoin="round" d="M69.74901,878.6703L88.84709,846.7217L91.95966,876.3358L69.74901,878.6703Z"/>
<path fill="none" stroke="#D10492" stroke-width="1" stroke-linecap="round" stroke-linejoin="round" d="M88.84709,846.7217L69.74901,878.6703L66.63643,849.0561L88.84709,846.7217Z"/>
<path fill="none" stroke="#D10492" stroke-width="1" stroke-linecap="round" stroke-linejoin="round" d="M66.63643,849.0561L30.2634,882.8204L69.74901,878.6703L66.63643,849.0561Z"/>
<path fill="none" stroke="#D10492" stroke-width="1" stroke-linecap="round" stroke-linejoin="round" d="M30.26339,882.8204L4.940158,855.5406L34.24133,860.8445L30.26339,882.8204Z"/>
<path fill="none" stroke="#D10492" stroke-width="1" stroke-linecap="round" stroke-linejoin="round" d="M10.2197,76.72054L34.18119,91.04411L25.72114,70.37551L10.2197,76.72054Z"/>
<path fill="none" stroke="#D10492" stroke-width="1" stroke-linecap="round" stroke-linejoin="round" d="M57.6813,148.4568L23.72917,205.2544L18.19569,152.6069L57.6813,148.4568Z"/>
<path fill="none" stroke="#D10492" stroke-width="1" stroke-linecap="round" stroke-linejoin="round" d="M112.6586,195.9076L73.091,153.2829L77.9544,199.5551L112.6586,195.9076Z"/>
<path fill="none" stroke="#D10492" stroke-width="1" stroke-linecap="round" stroke-linejoin="round" d="M73.091,153.2829L112.6586,195.9076L107.7952,149.6354L73.091,153.2829Z"/>
<path fill="none" stroke="#D10492" stroke-width="1" stroke-linecap="round" stroke-linejoin="round" d="M107.7952,149.6354L174.3548,189.423L112.6586,195.9076L107.7952,149.6354Z"/>
</g>
<g>
<path fill="none" stroke="#1FF27D" stroke-width="1" stroke-linecap="round" stroke-linejoin="round" d="M160.616,815.8907L146.4012,817.3848L154.7815,809.6055L160.616,815.8907Z"/>
<path fill="none" stroke="#1FF27D" stroke-width="1" stroke-linecap="round" stroke-linejoin="round" d="M140.5706,849.4241L130.945,825.9078L148.3932,836.3378L140.5706,849.4241Z"/>
<path fill="none" stroke="#1FF27D" stroke-width="1" stroke-linecap="round" stroke-linejoin="round" d="M130.945,825.9078L140.5706,849.4241L123.1224,838.994L130.945,825.9078Z"/>
<path fill="none" stroke="#1FF27D" stroke-width="1" stroke-linecap="round" stroke-linejoin="round" d="M123.1224,838.994L126.6638,872.6884L140.5706,849.4241L123.1224,838.994Z"/>
<path fill="none" stroke="#1FF27D" stroke-width="1" stroke-linecap="round" stroke-linejoin="round" d="M113.1544,744.1544L90.9437,746.4888L106.2791,755.6559L113.1544,744.1544Z"/>
<path fill="none" stroke="#1FF27D" stroke-width="1" stroke-linecap="round" stroke-linejoin="round" d="M126.6638,872.6884L91.95966,876.3358L112.4195,857.3434L126.6638,872.6884Z"/>
<path fill="none" stroke="#1FF27D" stroke-width="1" stroke-linecap="round" stroke-linejoin="round" d="M91.95966,876.3358L90.20884,859.6779L99.32521,869.4986L91.95966,876.3358Z"/>
<path fill="none" stroke="#1FF27D" stroke-width="1" stroke-linecap="round" stroke-linejoin="round" d="M103.3031,847.5227L99.32521,869.4986L112.4195,857.3434L103.3031,847.5227Z"/>
<path fill="none" stroke="#1FF27D" stroke-width="1" stroke-linecap="round" stroke-linejoin="round" d="M99.32521,869.4986L103.3031,847.5227L90.20884,859.6779L99.32521,869.4986Z"/>
<path fill="none" stroke="#1FF27D" stroke-width="1" stroke-linecap="round" stroke-linejoin="round" d="M88.84709,846.7217L80.85125,847.562L85.5652,843.1862L88.84709,846.7217Z"/>
<path fill="none" stroke="#1FF27D" stroke-width="1" stroke-linecap="round" stroke-linejoin="round" d="M75.01678,841.2768L85.5652,843.1862L79.73073,836.9009L75.01678,841.2768Z"/>
<path fill="none" stroke="#1FF27D" stroke-width="1" stroke-linecap="round" stroke-linejoin="round" d="M85.5652,843.1862L75.01678,841.2768L80.85125,847.562L85.5652,843.1862Z"/>
<path fill="none" stroke="#1FF27D" stroke-width="1" stroke-linecap="round" stroke-linejoin="round" d="M80.85125,847.562L66.63643,849.0561L75.01678,841.2768L80.85125,847.562Z"/>
<path fill="none" stroke="#1FF27D" stroke-width="1" stroke-linecap="round" stroke-linejoin="round" d="M-6.524788,775.8957L-3.412216,805.51L-19.61908,788.0509L-6.524788,775.8957Z"/>
<path fill="none" stroke="#1FF27D" stroke-width="1" stroke-linecap="round" stroke-linejoin="round" d="M37.33527,843.7522L30.26339,882.8204L53.54214,861.2113L37.33527,843.7522Z"/>
<path fill="none" stroke="#1FF27D" stroke-width="1" stroke-linecap="round" stroke-linejoin="round" d="M38.76733,835.8409L34.24133,860.8445L25.13621,842.6697L38.76733,835.8409Z"/>
<path fill="none" stroke="#1FF27D" stroke-width="1" stroke-linecap="round" stroke-linejoin="round" d="M34.24133,860.8445L4.940158,855.5406L26.23878,844.8706L34.24133,860.8445Z"/>
<path fill="none" stroke="#1FF27D" stroke-width="1" stroke-linecap="round" stroke-linejoin="round" d="M4.940158,855.5406L7.486032,841.4761L12.60766,851.6995L4.940158,855.5406Z"/>
<path fill="none" stroke="#1FF27D" stroke-width="1" stroke-linecap="round" stroke-linejoin="round" d="M21.11715,834.6473L12.60766,851.6995L26.23878,844.8706L21.11715,834.6473Z"/>
<path fill="none" stroke="#1FF27D" stroke-width="1" stroke-linecap="round" stroke-linejoin="round" d="M12.60766,851.6995L21.11715,834.6473L7.486032,841.4761L12.60766,851.6995Z"/>
<path fill="none" stroke="#1FF27D" stroke-width="1" stroke-linecap="round" stroke-linejoin="round" d="M-6.740711,813.078L-40.07892,807.0433L-21.63911,826.9078L-6.740711,813.078Z"/>
<path fill="none" stroke="#1FF27D" stroke-width="1" stroke-linecap="round" stroke-linejoin="round" d="M42.10624,0.2701114L2.620625,4.420218L29.88347,20.71724L42.10624,0.2701114Z"/>
<path fill="none" stroke="#1FF27D" stroke-width="1" stroke-linecap="round" stroke-linejoin="round" d="M22.44247,56.27341L44.65312,53.93897L29.31778,44.77189L22.44247,56.27341Z"/>
<path fill="none" stroke="#1FF27D" stroke-width="1" stroke-linecap="round" stroke-linejoin="round" d="M44.65312,53.93897L22.44247,56.27341L37.77781,65.44048L44.65312,53.93897Z"/>
<path fill="none" stroke="#1FF27D" stroke-width="1" stroke-linecap="round" stroke-linejoin="round" d="M37.77781,65.44048L10.2197,76.72054L22.44247,56.27341L37.77781,65.44048Z"/>
<path fill="none" stroke="#1FF27D" stroke-width="1" stroke-linecap="round" stroke-linejoin="round" d="M43.35833,63.15627L25.72114,70.37551L40.47418,74.22105L43.35833,63.15627Z"/>
<path fill="none" stroke="#1FF27D" stroke-width="1" stroke-linecap="round" stroke-linejoin="round" d="M25.72114,70.37551L34.18119,91.04411L38.68768,73.75538L25.72114,70.37551Z"/>
<path fill="none" stroke="#1FF27D" stroke-width="1" stroke-linecap="round" stroke-linejoin="round" d="M34.18119,91.04411L44.10211,86.98328L35.80352,84.82016L34.18119,91.04411Z"/>
<path fill="none" stroke="#1FF27D" stroke-width="1" stroke-linecap="round" stroke-linejoin="round" d="M46.98627,75.9185L35.80352,84.82016L38.68768,73.75538L46.98627,75.9185Z"/>
<path fill="none" stroke="#1FF27D" stroke-width="1" stroke-linecap="round" stroke-linejoin="round" d="M35.80352,84.82016L46.98627,75.9185L44.10211,86.98328L35.80352,84.82016Z"/>
<path fill="none" stroke="#1FF27D" stroke-width="1" stroke-linecap="round" stroke-linejoin="round" d="M10.2197,76.72054L15.08311,122.9927L34.18118,91.0441L10.2197,76.72054Z"/>
<path fill="none" stroke="#1FF27D" stroke-width="1" stroke-linecap="round" stroke-linejoin="round" d="M15.08311,122.9927L37.29377,120.6583L21.95841,111.4912L15.08311,122.9927Z"/>
<path fill="none" stroke="#1FF27D" stroke-width="1" stroke-linecap="round" stroke-linejoin="round" d="M18.19569,152.6069L15.08311,122.9927L31.28998,140.4518L18.19569,152.6069Z"/>
<path fill="none" stroke="#1FF27D" stroke-width="1" stroke-linecap="round" stroke-linejoin="round" d="M15.08311,122.9927L29.29793,121.4987L20.91758,129.278L15.08311,122.9927Z"/>
<path fill="none" stroke="#1FF27D" stroke-width="1" stroke-linecap="round" stroke-linejoin="round" d="M39.67033,132.6725L20.91758,129.278L31.28998,140.4518L39.67033,132.6725Z"/>
<path fill="none" stroke="#1FF27D" stroke-width="1" stroke-linecap="round" stroke-linejoin="round" d="M20.91758,129.278L39.67033,132.6725L29.29793,121.4987L20.91758,129.278Z"/>
<path fill="none" stroke="#1FF27D" stroke-width="1" stroke-linecap="round" stroke-linejoin="round" d="M57.6813,148.4568L43.46648,149.9509L51.84682,142.1716L57.6813,148.4568Z"/>
<path fill="none" stroke="#1FF27D" stroke-width="1" stroke-linecap="round" stroke-linejoin="round" d="M33.09408,138.7771L51.84682,142.1716L41.47443,130.9978L33.09408,138.7771Z"/>
<path fill="none" stroke="#1FF27D" stroke-width="1" stroke-linecap="round" stroke-linejoin="round" d="M51.84682,142.1716L33.09408,138.7771L43.46648,149.9509L51.84682,142.1716Z"/>
<path fill="none" stroke="#1FF27D" stroke-width="1" stroke-linecap="round" stroke-linejoin="round" d="M43.46648,149.9509L18.19569,152.6069L33.09408,138.7771L43.46648,149.9509Z"/>
<path fill="none" stroke="#1FF27D" stroke-width="1" stroke-linecap="round" stroke-linejoin="round" d="M23.72917,205.2544L77.9544,199.5551L40.51459,177.1745L23.72917,205.2544Z"/>
<path fill="none" stroke="#1FF27D" stroke-width="1" stroke-linecap="round" stroke-linejoin="round" d="M77.9544,199.5551L75.21873,173.527L64.47607,191.4981L77.9544,199.5551Z"/>
<path fill="none" stroke="#1FF27D" stroke-width="1" stroke-linecap="round" stroke-linejoin="round" d="M51.25726,159.2034L64.47607,191.4981L40.51459,177.1745L51.25726,159.2034Z"/>
<path fill="none" stroke="#1FF27D" stroke-width="1" stroke-linecap="round" stroke-linejoin="round" d="M64.47607,191.4981L51.25726,159.2034L75.21873,173.527L64.47607,191.4981Z"/>
<path fill="none" stroke="#1FF27D" stroke-width="1" stroke-linecap="round" stroke-linejoin="round" d="M73.091,153.2829L85.5845,151.9698L76.95836,146.8133L73.091,153.2829Z"/>
<path fill="none" stroke="#1FF27D" stroke-width="1" stroke-linecap="round" stroke-linejoin="round" d="M92.45981,140.4683L76.95836,146.8133L83.83366,135.3118L92.45981,140.4683Z"/>
<path fill="none" stroke="#1FF27D" stroke-width="1" stroke-linecap="round" stroke-linejoin="round" d="M76.95836,146.8133L92.45981,140.4683L85.5845,151.9698L76.95836,146.8133Z"/>
<path fill="none" stroke="#1FF27D" stroke-width="1" stroke-linecap="round" stroke-linejoin="round" d="M85.5845,151.9698L107.7952,149.6354L92.45981,140.4683L85.5845,151.9698Z"/>
<path fill="none" stroke="#1FF27D" stroke-width="1" stroke-linecap="round" stroke-linejoin="round" d="M94.31682,141.5784L104.2377,137.5175L95.93916,135.3544L94.31682,141.5784Z"/>
<path fill="none" stroke="#1FF27D" stroke-width="1" stroke-linecap="round" stroke-linejoin="round" d="M119.4668,156.6124L117.4747,137.6593L109.6522,150.7454L119.4668,156.6124Z"/>
<path fill="none" stroke="#1FF27D" stroke-width="1" stroke-linecap="round" stroke-linejoin="round" d="M117.4747,137.6593L119.4668,156.6124L127.2894,143.5262L117.4747,137.6593Z"/>
<path fill="none" stroke="#1FF27D" stroke-width="1" stroke-linecap="round" stroke-linejoin="round" d="M127.2894,143.5262L136.915,167.0425L119.4668,156.6124L127.2894,143.5262Z"/>
<path fill="none" stroke="#1FF27D" stroke-width="1" stroke-linecap="round" stroke-linejoin="round" d="M136.915,167.0425L123.6962,134.7478L147.6577,149.0714L136.915,167.0425Z"/>
<path fill="none" stroke="#1FF27D" stroke-width="1" stroke-linecap="round" stroke-linejoin="round" d="M154.533,137.5698L132.3223,139.9043L147.6577,149.0714L154.533,137.5698Z"/>
<path fill="none" stroke="#1FF27D" stroke-width="1" stroke-linecap="round" stroke-linejoin="round" d="M166.7558,117.1227L151.2543,123.4677L158.1296,111.9662L166.7558,117.1227Z"/>
<path fill="none" stroke="#1FF27D" stroke-width="1" stroke-linecap="round" stroke-linejoin="round" d="M152.6089,108.6661L153.7294,119.3272L158.1296,111.9662L152.6089,108.6661Z"/>
</g>
</svg>
