<!DOCTYPE svg PUBLIC "-//W3C//DTD SVG 1.1//EN" "http://www.w3.org/Graphics/SVG/1.1/DTD/svg11.dtd" >
<svg version="1.1" xmlns="http://www.w3.org/2000/svg" xmlns:xlink="http://www.w3.org/1999/xlink" xml:space="preserve" width="312" height="839">
<g>
<path fill="none" stroke="#9005D2" stroke-width="1" stroke-linecap="round" stroke-linejoin="round" d="M-1082.61,1008.197L-204.2664,-461.1612L-61.11506,900.833L-1082.61,1008.197Z"/>
<path fill="none" stroke="#9005D2" stroke-width="1" stroke-linecap="round" stroke-linejoin="round" d="M-204.2664,-461.1612L501.0252,-39.55589L-152.7319,29.15677L-204.2664,-461.1612Z"/>
<path fill="none" stroke="#9005D2" stroke-width="1" stroke-linecap="round" stroke-linejoin="round" d="M501.0252,-39.55589L1754.877,709.9646L592.642,832.1204L501.0252,-39.55589Z"/>
</g>
<g>
<path fill="none" stroke="#5BFC39" stroke-width="1" stroke-linecap="round" stroke-linejoin="round" d="M-61.11506,900.833L-94.09715,587.0295L77.63702,772.0324L-61.11506,900.833Z"/>
<path fill="none" stroke="#5BFC39" stroke-width="1" stroke-linecap="round" stroke-linejoin="round" d="M501.0252,-39.55589L534.0073,274.2476L362.2731,89.24475L501.0252,-39.55589Z"/>
</g>
<g>
<path fill="none" stroke="#B300B4" stroke-width="1" stroke-linecap="round" stroke-linejoin="round" d="M592.642,832.1204L324.3074,543.0535L357.2895,856.8569L592.642,832.1204Z"/>
<path fill="none" stroke="#B300B4" stroke-width="1" stroke-linecap="round" stroke-linejoin="round" d="M206.6638,872.6884L336.1809,656.0227L357.2895,856.8569L206.6638,872.6884Z"/>
<path fill="none" stroke="#B300B4" stroke-width="1" stroke-linecap="round" stroke-linejoin="round" d="M185.5553,671.8541L-61.11505,900.833L206.6638,872.6884L185.5553,671.8541Z"/>
<path fill="none" stroke="#B300B4" stroke-width="1" stroke-linecap="round" stroke-linejoin="round" d="M77.63702,772.0324L-94.09715,587.0295L104.614,622.999L77.63702,772.0324Z"/>
<path fill="none" stroke="#B300B4" stroke-width="1" stroke-linecap="round" stroke-linejoin="round" d="M-94.09715,587.0295L-5.295815,504.5971L-22.56112,599.9785L-94.09715,587.0295Z"/>
<path fill="none" stroke="#B300B4" stroke-width="1" stroke-linecap="round" stroke-linejoin="round" d="M-128.7151,257.6614L56.17281,368.1827L-115.2057,386.1953L-128.7151,257.6614Z"/>
<path fill="none" stroke="#B300B4" stroke-width="1" stroke-linecap="round" stroke-linejoin="round" d="M56.17281,368.1827L-128.7151,257.6614L42.66335,239.6488L56.17281,368.1827Z"/>
<path fill="none" stroke="#B300B4" stroke-width="1" stroke-linecap="round" stroke-linejoin="round" d="M42.66335,239.6488L-152.7319,29.15679L-128.7151,257.6614L42.66335,239.6488Z"/>
<path fill="none" stroke="#B300B4" stroke-width="1" stroke-linecap="round" stroke-linejoin="round" d="M254.3548,189.423L501.0252,-39.55589L233.2463,-11.41118L254.3548,189.423Z"/>
<path fill="none" stroke="#B300B4" stroke-width="1" stroke-linecap="round" stroke-linejoin="round" d="M204.404,235.7912L362.2731,89.24476L331.5792,258.8116L204.404,235.7912Z"/>
<path fill="none" stroke="#B300B4" stroke-width="1" stroke-linecap="round" stroke-linejoin="round" d="M362.2731,89.24476L534.0073,274.2476L335.2961,238.2782L362.2731,89.24476Z"/>
<path fill="none" stroke="#B300B4" stroke-width="1" stroke-linecap="round" stroke-linejoin="round" d="M534.0073,274.2476L445.2059,356.68L462.4712,261.2986L534.0073,274.2476Z"/>
<path fill="none" stroke="#B300B4" stroke-width="1" stroke-linecap="round" stroke-linejoin="round" d="M318.0308,333.6596L462.4712,261.2986L335.2961,238.2782L318.0308,333.6596Z"/>
<path fill="none" stroke="#B300B4" stroke-width="1" stroke-linecap="round" stroke-linejoin="round" d="M462.4712,261.2986L318.0308,333.6596L445.2059,356.68L462.4712,261.2986Z"/>
<path fill="none" stroke="#B300B4" stroke-width="1" stroke-linecap="round" stroke-linejoin="round" d="M568.6252,603.6157L383.7373,493.0944L555.1158,475.0818L568.6252,603.6157Z"/>
<path fill="none" stroke="#B300B4" stroke-width="1" stroke-linecap="round" stroke-linejoin="round" d="M383.7373,493.0944L568.6252,603.6157L397.2467,621.6283L383.7373,493.0944Z"/>
<path fill="none" stroke="#B300B4" stroke-width="1" stroke-linecap="round" stroke-linejoin="round" d="M397.2467,621.6283L592.642,832.1204L568.6252,603.6157L397.2467,621.6283Z"/>
</g>
<g>
<path fill="none" stroke="#3AFC5A" stroke-width="1" stroke-linecap="round" stroke-linejoin="round" d="M185.5553,671.8541L193.1544,744.1545L222.9951,694.2347L185.5553,671.8541Z"/>
<path fill="none" stroke="#3AFC5A" stroke-width="1" stroke-linecap="round" stroke-linejoin="round" d="M259.714,783.9421L222.9951,694.2347L289.5547,734.0223L259.714,783.9421Z"/>
<path fill="none" stroke="#3AFC5A" stroke-width="1" stroke-linecap="round" stroke-linejoin="round" d="M222.9951,694.2347L259.714,783.9421L193.1544,744.1545L222.9951,694.2347Z"/>
<path fill="none" stroke="#3AFC5A" stroke-width="1" stroke-linecap="round" stroke-linejoin="round" d="M193.1544,744.1545L206.6638,872.6884L259.714,783.9421L193.1544,744.1545Z"/>
<path fill="none" stroke="#3AFC5A" stroke-width="1" stroke-linecap="round" stroke-linejoin="round" d="M253.9651,467.2763L157.5647,477.4084L214.3975,424.6516L253.9651,467.2763Z"/>
<path fill="none" stroke="#3AFC5A" stroke-width="1" stroke-linecap="round" stroke-linejoin="round" d="M97.2811,663.5096L77.63703,772.0324L142.3002,712.007L97.2811,663.5096Z"/>
<path fill="none" stroke="#3AFC5A" stroke-width="1" stroke-linecap="round" stroke-linejoin="round" d="M104.614,622.999L58.83098,614.7116L92.11007,598.0397L104.614,622.999Z"/>
<path fill="none" stroke="#3AFC5A" stroke-width="1" stroke-linecap="round" stroke-linejoin="round" d="M92.11007,598.0397L36.6017,570.3395L58.83098,614.7116L92.11007,598.0397Z"/>
<path fill="none" stroke="#3AFC5A" stroke-width="1" stroke-linecap="round" stroke-linejoin="round" d="M58.83098,614.7116L-22.56111,599.9785L36.6017,570.3395L58.83098,614.7116Z"/>
<path fill="none" stroke="#3AFC5A" stroke-width="1" stroke-linecap="round" stroke-linejoin="round" d="M-94.09715,587.0295L-115.2057,386.1953L-5.295825,504.5971L-94.09715,587.0295Z"/>
<path fill="none" stroke="#3AFC5A" stroke-width="1" stroke-linecap="round" stroke-linejoin="round" d="M-115.2057,386.1953L-18.80526,376.0632L-75.63812,428.82L-115.2057,386.1953Z"/>
<path fill="none" stroke="#3AFC5A" stroke-width="1" stroke-linecap="round" stroke-linejoin="round" d="M51.53704,451.8404L-75.63812,428.82L-5.295825,504.5971L51.53704,451.8404Z"/>
<path fill="none" stroke="#3AFC5A" stroke-width="1" stroke-linecap="round" stroke-linejoin="round" d="M-75.63812,428.82L51.53704,451.8404L-18.80526,376.0632L-75.63812,428.82Z"/>
<path fill="none" stroke="#3AFC5A" stroke-width="1" stroke-linecap="round" stroke-linejoin="round" d="M56.17281,368.1827L51.3094,321.9105L76.63264,349.1903L56.17281,368.1827Z"/>
<path fill="none" stroke="#3AFC5A" stroke-width="1" stroke-linecap="round" stroke-linejoin="round" d="M87.68242,288.1462L76.63264,349.1903L113.0057,315.426L87.68242,288.1462Z"/>
<path fill="none" stroke="#3AFC5A" stroke-width="1" stroke-linecap="round" stroke-linejoin="round" d="M76.63264,349.1903L87.68242,288.1462L51.3094,321.9105L76.63264,349.1903Z"/>
<path fill="none" stroke="#3AFC5A" stroke-width="1" stroke-linecap="round" stroke-linejoin="round" d="M51.3094,321.9105L42.66335,239.6488L87.68242,288.1462L51.3094,321.9105Z"/>
<path fill="none" stroke="#3AFC5A" stroke-width="1" stroke-linecap="round" stroke-linejoin="round" d="M-152.7319,29.15677L82.62061,4.420217L-56.13147,133.2209L-152.7319,29.15677Z"/>
<path fill="none" stroke="#3AFC5A" stroke-width="1" stroke-linecap="round" stroke-linejoin="round" d="M82.62061,4.420217L94.49416,117.3895L32.66986,50.78844L82.62061,4.420217Z"/>
<path fill="none" stroke="#3AFC5A" stroke-width="1" stroke-linecap="round" stroke-linejoin="round" d="M5.692838,199.8219L32.66986,50.78844L-56.13147,133.2209L5.692838,199.8219Z"/>
<path fill="none" stroke="#3AFC5A" stroke-width="1" stroke-linecap="round" stroke-linejoin="round" d="M32.66986,50.78844L5.692838,199.8219L94.49416,117.3895L32.66986,50.78844Z"/>
<path fill="none" stroke="#3AFC5A" stroke-width="1" stroke-linecap="round" stroke-linejoin="round" d="M103.7291,205.2544L157.9544,199.5551L125.9859,229.2308L103.7291,205.2544Z"/>
<path fill="none" stroke="#3AFC5A" stroke-width="1" stroke-linecap="round" stroke-linejoin="round" d="M157.9544,199.5551L254.3548,189.423L197.5219,242.1798L157.9544,199.5551Z"/>
<path fill="none" stroke="#3AFC5A" stroke-width="1" stroke-linecap="round" stroke-linejoin="round" d="M233.2463,-11.41118L82.62061,4.420217L186.6201,66.58843L233.2463,-11.41118Z"/>
<path fill="none" stroke="#3AFC5A" stroke-width="1" stroke-linecap="round" stroke-linejoin="round" d="M82.62061,4.420217L90.21968,76.72054L120.0604,26.80078L82.62061,4.420217Z"/>
<path fill="none" stroke="#3AFC5A" stroke-width="1" stroke-linecap="round" stroke-linejoin="round" d="M120.0604,26.80078L156.7794,116.5082L90.21968,76.72054L120.0604,26.80078Z"/>
<path fill="none" stroke="#3AFC5A" stroke-width="1" stroke-linecap="round" stroke-linejoin="round" d="M90.21968,76.72054L103.7291,205.2544L156.7794,116.5082L90.21968,76.72054Z"/>
<path fill="none" stroke="#3AFC5A" stroke-width="1" stroke-linecap="round" stroke-linejoin="round" d="M314.3139,354.1931L242.7778,341.2441L282.3454,383.8687L314.3139,354.1931Z"/>
<path fill="none" stroke="#3AFC5A" stroke-width="1" stroke-linecap="round" stroke-linejoin="round" d="M331.5792,258.8116L314.3139,354.1931L279.5806,284.8616L331.5792,258.8116Z"/>
<path fill="none" stroke="#3AFC5A" stroke-width="1" stroke-linecap="round" stroke-linejoin="round" d="M314.3139,354.1931L268.5308,345.9057L301.8099,329.2337L314.3139,354.1931Z"/>
<path fill="none" stroke="#3AFC5A" stroke-width="1" stroke-linecap="round" stroke-linejoin="round" d="M246.3015,301.5336L301.8099,329.2337L279.5806,284.8616L246.3015,301.5336Z"/>
<path fill="none" stroke="#3AFC5A" stroke-width="1" stroke-linecap="round" stroke-linejoin="round" d="M301.8099,329.2337L246.3015,301.5336L268.5308,345.9057L301.8099,329.2337Z"/>
<path fill="none" stroke="#3AFC5A" stroke-width="1" stroke-linecap="round" stroke-linejoin="round" d="M204.404,235.7912L250.1871,244.0786L216.908,260.7505L204.404,235.7912Z"/>
<path fill="none" stroke="#3AFC5A" stroke-width="1" stroke-linecap="round" stroke-linejoin="round" d="M272.4164,288.4507L216.908,260.7505L239.1373,305.1227L272.4164,288.4507Z"/>
<path fill="none" stroke="#3AFC5A" stroke-width="1" stroke-linecap="round" stroke-linejoin="round" d="M216.908,260.7505L272.4164,288.4507L250.1871,244.0786L216.908,260.7505Z"/>
<path fill="none" stroke="#3AFC5A" stroke-width="1" stroke-linecap="round" stroke-linejoin="round" d="M250.1871,244.0786L331.5792,258.8116L272.4164,288.4507L250.1871,244.0786Z"/>
<path fill="none" stroke="#3AFC5A" stroke-width="1" stroke-linecap="round" stroke-linejoin="round" d="M445.2059,356.68L318.0308,333.6596L388.3731,409.4367L445.2059,356.68Z"/>
<path fill="none" stroke="#3AFC5A" stroke-width="1" stroke-linecap="round" stroke-linejoin="round" d="M318.0308,333.6596L306.981,394.7037L343.354,360.9394L318.0308,333.6596Z"/>
<path fill="none" stroke="#3AFC5A" stroke-width="1" stroke-linecap="round" stroke-linejoin="round" d="M352.0001,443.201L343.354,360.9394L388.3731,409.4367L352.0001,443.201Z"/>
<path fill="none" stroke="#3AFC5A" stroke-width="1" stroke-linecap="round" stroke-linejoin="round" d="M343.354,360.9394L352.0001,443.201L306.981,394.7037L343.354,360.9394Z"/>
<path fill="none" stroke="#3AFC5A" stroke-width="1" stroke-linecap="round" stroke-linejoin="round" d="M534.0073,274.2476L555.1158,475.0818L445.2059,356.68L534.0073,274.2476Z"/>
<path fill="none" stroke="#3AFC5A" stroke-width="1" stroke-linecap="round" stroke-linejoin="round" d="M555.1158,475.0818L458.7154,485.2139L515.5482,432.4572L555.1158,475.0818Z"/>
<path fill="none" stroke="#3AFC5A" stroke-width="1" stroke-linecap="round" stroke-linejoin="round" d="M388.373,409.4368L515.5482,432.4572L445.2059,356.68L388.373,409.4368Z"/>
<path fill="none" stroke="#3AFC5A" stroke-width="1" stroke-linecap="round" stroke-linejoin="round" d="M515.5482,432.4572L388.373,409.4368L458.7154,485.2139L515.5482,432.4572Z"/>
<path fill="none" stroke="#3AFC5A" stroke-width="1" stroke-linecap="round" stroke-linejoin="round" d="M383.7373,493.0944L388.6007,539.3666L363.2775,512.0868L383.7373,493.0944Z"/>
<path fill="none" stroke="#3AFC5A" stroke-width="1" stroke-linecap="round" stroke-linejoin="round" d="M352.2277,573.1309L363.2775,512.0868L326.9044,545.8511L352.2277,573.1309Z"/>
<path fill="none" stroke="#3AFC5A" stroke-width="1" stroke-linecap="round" stroke-linejoin="round" d="M363.2775,512.0868L352.2277,573.1309L388.6007,539.3666L363.2775,512.0868Z"/>
<path fill="none" stroke="#3AFC5A" stroke-width="1" stroke-linecap="round" stroke-linejoin="round" d="M388.6007,539.3666L397.2467,621.6283L352.2277,573.1309L388.6007,539.3666Z"/>
</g>
<g>
<path fill="none" stroke="#D10492" stroke-width="1" stroke-linecap="round" stroke-linejoin="round" d="M336.1809,656.0227L313.9242,632.0463L316.6599,658.0745L336.1809,656.0227Z"/>
<path fill="none" stroke="#D10492" stroke-width="1" stroke-linecap="round" stroke-linejoin="round" d="M289.5547,734.0223L252.1149,711.6418L286.8191,707.9943L289.5547,734.0223Z"/>
<path fill="none" stroke="#D10492" stroke-width="1" stroke-linecap="round" stroke-linejoin="round" d="M214.3975,424.6516L182.429,454.3273L188.6446,419.99L214.3975,424.6516Z"/>
<path fill="none" stroke="#D10492" stroke-width="1" stroke-linecap="round" stroke-linejoin="round" d="M157.5647,477.4084L171.809,492.7532L155.3271,489.7698L157.5647,477.4084Z"/>
<path fill="none" stroke="#D10492" stroke-width="1" stroke-linecap="round" stroke-linejoin="round" d="M142.3002,712.007L178.6732,678.2426L139.1876,682.3927L142.3002,712.007Z"/>
<path fill="none" stroke="#D10492" stroke-width="1" stroke-linecap="round" stroke-linejoin="round" d="M97.2811,663.5096L113.488,680.9686L111.4959,662.0155L97.2811,663.5096Z"/>
<path fill="none" stroke="#D10492" stroke-width="1" stroke-linecap="round" stroke-linejoin="round" d="M113.488,680.9686L142.3002,712.007L138.7587,678.3126L113.488,680.9686Z"/>
<path fill="none" stroke="#D10492" stroke-width="1" stroke-linecap="round" stroke-linejoin="round" d="M77.88333,569.6415L92.11007,598.0397L69.37384,586.6937L77.88333,569.6415Z"/>
<path fill="none" stroke="#D10492" stroke-width="1" stroke-linecap="round" stroke-linejoin="round" d="M-22.56112,599.9785L29.43745,573.9285L-16.34561,565.6412L-22.56112,599.9785Z"/>
<path fill="none" stroke="#D10492" stroke-width="1" stroke-linecap="round" stroke-linejoin="round" d="M-12.36768,543.6653L12.95555,570.9451L-16.34561,565.6412L-12.36768,543.6653Z"/>
<path fill="none" stroke="#D10492" stroke-width="1" stroke-linecap="round" stroke-linejoin="round" d="M51.53704,451.8404L76.86028,479.1201L47.55911,473.8162L51.53704,451.8404Z"/>
<path fill="none" stroke="#D10492" stroke-width="1" stroke-linecap="round" stroke-linejoin="round" d="M109.6504,488.1826L132.9291,466.5735L128.4031,491.5771L109.6504,488.1826Z"/>
<path fill="none" stroke="#D10492" stroke-width="1" stroke-linecap="round" stroke-linejoin="round" d="M87.91006,418.076L51.53704,451.8404L91.02264,447.6902L87.91006,418.076Z"/>
<path fill="none" stroke="#D10492" stroke-width="1" stroke-linecap="round" stroke-linejoin="round" d="M51.53704,451.8404L67.74391,469.2994L65.75186,450.3463L51.53704,451.8404Z"/>
<path fill="none" stroke="#D10492" stroke-width="1" stroke-linecap="round" stroke-linejoin="round" d="M93.01469,466.6434L65.75186,450.3463L91.02264,447.6902L93.01469,466.6434Z"/>
<path fill="none" stroke="#D10492" stroke-width="1" stroke-linecap="round" stroke-linejoin="round" d="M65.75186,450.3463L93.01469,466.6434L67.74391,469.2994L65.75186,450.3463Z"/>
<path fill="none" stroke="#D10492" stroke-width="1" stroke-linecap="round" stroke-linejoin="round" d="M132.9291,466.5735L116.7223,449.1144L118.7143,468.0675L132.9291,466.5735Z"/>
<path fill="none" stroke="#D10492" stroke-width="1" stroke-linecap="round" stroke-linejoin="round" d="M91.45149,451.7704L118.7143,468.0675L93.44354,470.7235L91.45149,451.7704Z"/>
<path fill="none" stroke="#D10492" stroke-width="1" stroke-linecap="round" stroke-linejoin="round" d="M118.7143,468.0675L91.45149,451.7704L116.7223,449.1144L118.7143,468.0675Z"/>
<path fill="none" stroke="#D10492" stroke-width="1" stroke-linecap="round" stroke-linejoin="round" d="M116.7223,449.1144L87.91006,418.076L91.45149,451.7704L116.7223,449.1144Z"/>
<path fill="none" stroke="#D10492" stroke-width="1" stroke-linecap="round" stroke-linejoin="round" d="M132.9291,466.5735L87.91006,418.076L140.001,427.5052L132.9291,466.5735Z"/>
<path fill="none" stroke="#D10492" stroke-width="1" stroke-linecap="round" stroke-linejoin="round" d="M-18.80526,376.0632L51.53704,451.8404L42.89098,369.5787L-18.80526,376.0632Z"/>
<path fill="none" stroke="#D10492" stroke-width="1" stroke-linecap="round" stroke-linejoin="round" d="M51.53704,451.8404L87.91006,418.0761L48.42446,422.2262L51.53704,451.8404Z"/>
<path fill="none" stroke="#D10492" stroke-width="1" stroke-linecap="round" stroke-linejoin="round" d="M82.37659,365.4286L48.42446,422.2262L42.89098,369.5787L82.37659,365.4286Z"/>
<path fill="none" stroke="#D10492" stroke-width="1" stroke-linecap="round" stroke-linejoin="round" d="M48.42446,422.2262L82.37659,365.4286L87.91006,418.0761L48.42446,422.2262Z"/>
<path fill="none" stroke="#D10492" stroke-width="1" stroke-linecap="round" stroke-linejoin="round" d="M92.54582,334.4184L56.17281,368.1827L95.6584,364.0326L92.54582,334.4184Z"/>
<path fill="none" stroke="#D10492" stroke-width="1" stroke-linecap="round" stroke-linejoin="round" d="M94.49416,117.3895L5.692838,199.8219L102.0932,189.6898L94.49416,117.3895Z"/>
<path fill="none" stroke="#D10492" stroke-width="1" stroke-linecap="round" stroke-linejoin="round" d="M5.692838,199.8219L45.26038,242.4465L40.39698,196.1743L5.692838,199.8219Z"/>
<path fill="none" stroke="#D10492" stroke-width="1" stroke-linecap="round" stroke-linejoin="round" d="M106.9566,235.962L40.39698,196.1743L102.0932,189.6898L106.9566,235.962Z"/>
<path fill="none" stroke="#D10492" stroke-width="1" stroke-linecap="round" stroke-linejoin="round" d="M40.39698,196.1743L106.9566,235.962L45.26038,242.4465L40.39698,196.1743Z"/>
<path fill="none" stroke="#D10492" stroke-width="1" stroke-linecap="round" stroke-linejoin="round" d="M157.9544,199.5551L172.1987,214.9L155.7168,211.9165L157.9544,199.5551Z"/>
<path fill="none" stroke="#D10492" stroke-width="1" stroke-linecap="round" stroke-linejoin="round" d="M162.6586,52.26487L120.0604,26.80078L135.1005,63.54494L162.6586,52.26487Z"/>
<path fill="none" stroke="#D10492" stroke-width="1" stroke-linecap="round" stroke-linejoin="round" d="M103.7291,205.2544L150.3553,127.2548L157.9544,199.5551L103.7291,205.2544Z"/>
<path fill="none" stroke="#D10492" stroke-width="1" stroke-linecap="round" stroke-linejoin="round" d="M192.6585,195.9076L153.091,153.2829L157.9544,199.5551L192.6585,195.9076Z"/>
<path fill="none" stroke="#D10492" stroke-width="1" stroke-linecap="round" stroke-linejoin="round" d="M254.3548,189.423L216.915,167.0425L251.6191,163.3949L254.3548,189.423Z"/>
<path fill="none" stroke="#D10492" stroke-width="1" stroke-linecap="round" stroke-linejoin="round" d="M249.8683,146.7369L229.4085,165.7293L251.6191,163.3949L249.8683,146.7369Z"/>
<path fill="none" stroke="#D10492" stroke-width="1" stroke-linecap="round" stroke-linejoin="round" d="M199.2942,45.3864L233.2463,-11.41118L238.7798,41.23629L199.2942,45.3864Z"/>
<path fill="none" stroke="#D10492" stroke-width="1" stroke-linecap="round" stroke-linejoin="round" d="M225.5126,436.6255L257.4811,406.9498L251.2656,441.2871L225.5126,436.6255Z"/>
<path fill="none" stroke="#D10492" stroke-width="1" stroke-linecap="round" stroke-linejoin="round" d="M303.2641,415.2372L251.2656,441.2871L297.0486,449.5744L303.2641,415.2372Z"/>
<path fill="none" stroke="#D10492" stroke-width="1" stroke-linecap="round" stroke-linejoin="round" d="M251.2656,441.2871L303.2641,415.2372L257.4811,406.9498L251.2656,441.2871Z"/>
<path fill="none" stroke="#D10492" stroke-width="1" stroke-linecap="round" stroke-linejoin="round" d="M257.4811,406.9498L314.3139,354.1931L303.2641,415.2372L257.4811,406.9498Z"/>
<path fill="none" stroke="#D10492" stroke-width="1" stroke-linecap="round" stroke-linejoin="round" d="M225.5126,436.6255L245.9724,417.633L223.7617,419.9675L225.5126,436.6255Z"/>
<path fill="none" stroke="#D10492" stroke-width="1" stroke-linecap="round" stroke-linejoin="round" d="M242.8598,388.0188L223.7617,419.9675L220.6491,390.3532L242.8598,388.0188Z"/>
<path fill="none" stroke="#D10492" stroke-width="1" stroke-linecap="round" stroke-linejoin="round" d="M223.7617,419.9675L242.8598,388.0188L245.9724,417.633L223.7617,419.9675Z"/>
<path fill="none" stroke="#D10492" stroke-width="1" stroke-linecap="round" stroke-linejoin="round" d="M245.9724,417.633L282.3454,383.8687L242.8598,388.0188L245.9724,417.633Z"/>
<path fill="none" stroke="#D10492" stroke-width="1" stroke-linecap="round" stroke-linejoin="round" d="M282.3454,383.8687L242.7778,341.2441L247.6413,387.5162L282.3454,383.8687Z"/>
<path fill="none" stroke="#D10492" stroke-width="1" stroke-linecap="round" stroke-linejoin="round" d="M242.7778,341.2441L222.318,360.2365L244.5287,357.9021L242.7778,341.2441Z"/>
<path fill="none" stroke="#D10492" stroke-width="1" stroke-linecap="round" stroke-linejoin="round" d="M225.4306,389.8507L244.5287,357.9021L247.6413,387.5162L225.4306,389.8507Z"/>
<path fill="none" stroke="#D10492" stroke-width="1" stroke-linecap="round" stroke-linejoin="round" d="M244.5287,357.9021L225.4306,389.8507L222.318,360.2365L244.5287,357.9021Z"/>
<path fill="none" stroke="#D10492" stroke-width="1" stroke-linecap="round" stroke-linejoin="round" d="M268.5308,345.9057L246.3015,301.5336L239.2297,340.6018L268.5308,345.9057Z"/>
<path fill="none" stroke="#D10492" stroke-width="1" stroke-linecap="round" stroke-linejoin="round" d="M246.3015,301.5336L225.0029,312.2037L243.7557,315.5981L246.3015,301.5336Z"/>
<path fill="none" stroke="#D10492" stroke-width="1" stroke-linecap="round" stroke-linejoin="round" d="M220.4769,337.2073L243.7557,315.5981L239.2297,340.6018L220.4769,337.2073Z"/>
<path fill="none" stroke="#D10492" stroke-width="1" stroke-linecap="round" stroke-linejoin="round" d="M243.7557,315.5981L220.4769,337.2073L225.0029,312.2037L243.7557,315.5981Z"/>
<path fill="none" stroke="#D10492" stroke-width="1" stroke-linecap="round" stroke-linejoin="round" d="M239.1373,305.1227L226.6333,280.1634L222.6554,302.1393L239.1373,305.1227Z"/>
<path fill="none" stroke="#D10492" stroke-width="1" stroke-linecap="round" stroke-linejoin="round" d="M222.6554,302.1393L197.3322,274.8595L226.6333,280.1634L222.6554,302.1393Z"/>
<path fill="none" stroke="#D10492" stroke-width="1" stroke-linecap="round" stroke-linejoin="round" d="M226.6333,280.1634L204.404,235.7912L197.3322,274.8595L226.6333,280.1634Z"/>
<path fill="none" stroke="#D10492" stroke-width="1" stroke-linecap="round" stroke-linejoin="round" d="M306.981,394.7037L352.0001,443.201L299.9091,433.7719L306.981,394.7037Z"/>
<path fill="none" stroke="#D10492" stroke-width="1" stroke-linecap="round" stroke-linejoin="round" d="M352.0001,443.201L328.7213,464.8102L333.2473,439.8065L352.0001,443.201Z"/>
<path fill="none" stroke="#D10492" stroke-width="1" stroke-linecap="round" stroke-linejoin="round" d="M295.3831,458.7756L333.2473,439.8065L299.9091,433.7719L295.3831,458.7756Z"/>
<path fill="none" stroke="#D10492" stroke-width="1" stroke-linecap="round" stroke-linejoin="round" d="M333.2473,439.8065L295.3831,458.7756L328.7213,464.8102L333.2473,439.8065Z"/>
<path fill="none" stroke="#D10492" stroke-width="1" stroke-linecap="round" stroke-linejoin="round" d="M458.7154,485.2139L388.373,409.4368L397.0191,491.6984L458.7154,485.2139Z"/>
<path fill="none" stroke="#D10492" stroke-width="1" stroke-linecap="round" stroke-linejoin="round" d="M388.373,409.4368L352,443.201L391.4856,439.051L388.373,409.4368Z"/>
<path fill="none" stroke="#D10492" stroke-width="1" stroke-linecap="round" stroke-linejoin="round" d="M357.5335,495.8485L391.4856,439.051L397.0191,491.6984L357.5335,495.8485Z"/>
<path fill="none" stroke="#D10492" stroke-width="1" stroke-linecap="round" stroke-linejoin="round" d="M391.4856,439.051L357.5335,495.8485L352,443.201L391.4856,439.051Z"/>
<path fill="none" stroke="#D10492" stroke-width="1" stroke-linecap="round" stroke-linejoin="round" d="M326.9044,545.8511L347.3643,526.8587L325.1536,529.1931L326.9044,545.8511Z"/>
<path fill="none" stroke="#D10492" stroke-width="1" stroke-linecap="round" stroke-linejoin="round" d="M344.2517,497.2445L325.1536,529.1931L322.041,499.5789L344.2517,497.2445Z"/>
<path fill="none" stroke="#D10492" stroke-width="1" stroke-linecap="round" stroke-linejoin="round" d="M325.1536,529.1931L344.2517,497.2445L347.3643,526.8587L325.1536,529.1931Z"/>
<path fill="none" stroke="#D10492" stroke-width="1" stroke-linecap="round" stroke-linejoin="round" d="M347.3643,526.8587L383.7373,493.0944L344.2517,497.2445L347.3643,526.8587Z"/>
</g>
<g>
<path fill="none" stroke="#1FF27D" stroke-width="1" stroke-linecap="round" stroke-linejoin="round" d="M324.3074,543.0535L328.5818,583.7224L306.3251,559.746L324.3074,543.0535Z"/>
<path fill="none" stroke="#1FF27D" stroke-width="1" stroke-linecap="round" stroke-linejoin="round" d="M331.3176,609.7505L328.5818,583.7224L317.8392,601.6935L331.3176,609.7505Z"/>
<path fill="none" stroke="#1FF27D" stroke-width="1" stroke-linecap="round" stroke-linejoin="round" d="M328.5818,583.7224L316.0883,585.0355L324.7145,590.192L328.5818,583.7224Z"/>
<path fill="none" stroke="#1FF27D" stroke-width="1" stroke-linecap="round" stroke-linejoin="round" d="M331.3176,609.7505L333.0684,626.4084L323.952,616.5878L331.3176,609.7505Z"/>
<path fill="none" stroke="#1FF27D" stroke-width="1" stroke-linecap="round" stroke-linejoin="round" d="M319.9741,638.5637L323.952,616.5878L310.8577,628.7429L319.9741,638.5637Z"/>
<path fill="none" stroke="#1FF27D" stroke-width="1" stroke-linecap="round" stroke-linejoin="round" d="M323.952,616.5878L319.9741,638.5637L333.0684,626.4084L323.952,616.5878Z"/>
<path fill="none" stroke="#1FF27D" stroke-width="1" stroke-linecap="round" stroke-linejoin="round" d="M333.0684,626.4084L336.1809,656.0227L319.9741,638.5637L333.0684,626.4084Z"/>
<path fill="none" stroke="#1FF27D" stroke-width="1" stroke-linecap="round" stroke-linejoin="round" d="M314.909,641.4165L310.4114,641.8892L313.063,639.4278L314.909,641.4165Z"/>
<path fill="none" stroke="#1FF27D" stroke-width="1" stroke-linecap="round" stroke-linejoin="round" d="M316.6599,658.0745L316.0296,652.0776L313.5544,656.2181L316.6599,658.0745Z"/>
<path fill="none" stroke="#1FF27D" stroke-width="1" stroke-linecap="round" stroke-linejoin="round" d="M313.5544,656.2181L310.5088,648.7775L316.0296,652.0776L313.5544,656.2181Z"/>
<path fill="none" stroke="#1FF27D" stroke-width="1" stroke-linecap="round" stroke-linejoin="round" d="M284.6913,687.7501L289.5547,734.0223L308.6528,702.0737L284.6913,687.7501Z"/>
<path fill="none" stroke="#1FF27D" stroke-width="1" stroke-linecap="round" stroke-linejoin="round" d="M283.7065,678.38L286.8191,707.9943L270.6122,690.5352L283.7065,678.38Z"/>
<path fill="none" stroke="#1FF27D" stroke-width="1" stroke-linecap="round" stroke-linejoin="round" d="M286.8191,707.9943L252.1149,711.6418L272.5748,692.6494L286.8191,707.9943Z"/>
<path fill="none" stroke="#1FF27D" stroke-width="1" stroke-linecap="round" stroke-linejoin="round" d="M252.1149,711.6418L250.3641,694.9838L259.4805,704.8046L252.1149,711.6418Z"/>
<path fill="none" stroke="#1FF27D" stroke-width="1" stroke-linecap="round" stroke-linejoin="round" d="M263.4584,682.8286L259.4805,704.8046L272.5748,692.6494L263.4584,682.8286Z"/>
<path fill="none" stroke="#1FF27D" stroke-width="1" stroke-linecap="round" stroke-linejoin="round" d="M259.4805,704.8046L263.4584,682.8286L250.3641,694.9838L259.4805,704.8046Z"/>
<path fill="none" stroke="#1FF27D" stroke-width="1" stroke-linecap="round" stroke-linejoin="round" d="M212.8181,688.1511L240.3763,676.8711L228.1535,697.3182L212.8181,688.1511Z"/>
<path fill="none" stroke="#1FF27D" stroke-width="1" stroke-linecap="round" stroke-linejoin="round" d="M188.6446,419.99L182.429,454.3273L169.9251,429.368L188.6446,419.99Z"/>
<path fill="none" stroke="#1FF27D" stroke-width="1" stroke-linecap="round" stroke-linejoin="round" d="M182.429,454.3273L165.9471,451.3439L177.9276,445.3419L182.429,454.3273Z"/>
<path fill="none" stroke="#1FF27D" stroke-width="1" stroke-linecap="round" stroke-linejoin="round" d="M136.646,446.04L132.668,468.0158L145.7623,455.8607L136.646,446.04Z"/>
<path fill="none" stroke="#1FF27D" stroke-width="1" stroke-linecap="round" stroke-linejoin="round" d="M145.7623,455.8607L148.8749,485.4749L132.668,468.0158L145.7623,455.8607Z"/>
<path fill="none" stroke="#1FF27D" stroke-width="1" stroke-linecap="round" stroke-linejoin="round" d="M157.5647,477.4084L192.2688,473.7608L171.809,492.7532L157.5647,477.4084Z"/>
<path fill="none" stroke="#1FF27D" stroke-width="1" stroke-linecap="round" stroke-linejoin="round" d="M192.2688,473.7608L194.0197,490.4188L184.9033,480.5981L192.2688,473.7608Z"/>
<path fill="none" stroke="#1FF27D" stroke-width="1" stroke-linecap="round" stroke-linejoin="round" d="M214.4795,471.4264L192.2688,473.7608L207.6042,482.9279L214.4795,471.4264Z"/>
<path fill="none" stroke="#1FF27D" stroke-width="1" stroke-linecap="round" stroke-linejoin="round" d="M192.2688,473.7608L193.3893,484.4219L197.7896,477.061L192.2688,473.7608Z"/>
<path fill="none" stroke="#1FF27D" stroke-width="1" stroke-linecap="round" stroke-linejoin="round" d="M203.204,490.2889L197.7896,477.061L207.6042,482.9279L203.204,490.2889Z"/>
<path fill="none" stroke="#1FF27D" stroke-width="1" stroke-linecap="round" stroke-linejoin="round" d="M197.7896,477.061L203.204,490.2889L193.3893,484.4219L197.7896,477.061Z"/>
<path fill="none" stroke="#1FF27D" stroke-width="1" stroke-linecap="round" stroke-linejoin="round" d="M216.4715,490.3795L214.4795,471.4264L206.6569,484.5126L216.4715,490.3795Z"/>
<path fill="none" stroke="#1FF27D" stroke-width="1" stroke-linecap="round" stroke-linejoin="round" d="M214.4795,471.4264L228.6943,469.9324L220.3139,477.7117L214.4795,471.4264Z"/>
<path fill="none" stroke="#1FF27D" stroke-width="1" stroke-linecap="round" stroke-linejoin="round" d="M239.0667,481.1061L220.3139,477.7117L230.6864,488.8854L239.0667,481.1061Z"/>
<path fill="none" stroke="#1FF27D" stroke-width="1" stroke-linecap="round" stroke-linejoin="round" d="M220.3139,477.7117L239.0667,481.1061L228.6943,469.9324L220.3139,477.7117Z"/>
<path fill="none" stroke="#1FF27D" stroke-width="1" stroke-linecap="round" stroke-linejoin="round" d="M228.6943,469.9324L253.9651,467.2763L239.0667,481.1061L228.6943,469.9324Z"/>
<path fill="none" stroke="#1FF27D" stroke-width="1" stroke-linecap="round" stroke-linejoin="round" d="M253.9651,467.2763L249.9872,489.2522L263.0815,477.097L253.9651,467.2763Z"/>
<path fill="none" stroke="#1FF27D" stroke-width="1" stroke-linecap="round" stroke-linejoin="round" d="M249.9872,489.2522L260.5356,491.1616L254.7011,484.8763L249.9872,489.2522Z"/>
<path fill="none" stroke="#1FF27D" stroke-width="1" stroke-linecap="round" stroke-linejoin="round" d="M268.9159,483.3823L254.7011,484.8763L263.0815,477.097L268.9159,483.3823Z"/>
<path fill="none" stroke="#1FF27D" stroke-width="1" stroke-linecap="round" stroke-linejoin="round" d="M254.7011,484.8763L268.9159,483.3823L260.5356,491.1616L254.7011,484.8763Z"/>
<path fill="none" stroke="#1FF27D" stroke-width="1" stroke-linecap="round" stroke-linejoin="round" d="M101.8071,638.5059L104.353,624.4413L109.4746,634.6647L101.8071,638.5059Z"/>
<path fill="none" stroke="#1FF27D" stroke-width="1" stroke-linecap="round" stroke-linejoin="round" d="M104.353,624.4413L111.104,625.6633L106.1968,628.1217L104.353,624.4413Z"/>
<path fill="none" stroke="#1FF27D" stroke-width="1" stroke-linecap="round" stroke-linejoin="round" d="M101.8071,638.5059L100.1777,647.5072L105.5412,642.5284L101.8071,638.5059Z"/>
<path fill="none" stroke="#1FF27D" stroke-width="1" stroke-linecap="round" stroke-linejoin="round" d="M105.5412,642.5284L106.8161,654.6584L100.1777,647.5072L105.5412,642.5284Z"/>
<path fill="none" stroke="#1FF27D" stroke-width="1" stroke-linecap="round" stroke-linejoin="round" d="M100.1777,647.5072L97.2811,663.5096L106.8161,654.6584L100.1777,647.5072Z"/>
<path fill="none" stroke="#1FF27D" stroke-width="1" stroke-linecap="round" stroke-linejoin="round" d="M178.6732,678.2426L164.4584,679.7367L172.8387,671.9573L178.6732,678.2426Z"/>
<path fill="none" stroke="#1FF27D" stroke-width="1" stroke-linecap="round" stroke-linejoin="round" d="M164.4584,679.7367L163.7412,672.9136L167.4753,676.9362L164.4584,679.7367Z"/>
<path fill="none" stroke="#1FF27D" stroke-width="1" stroke-linecap="round" stroke-linejoin="round" d="M139.1876,682.3927L148.2851,681.4365L142.0037,677.6817L139.1876,682.3927Z"/>
<path fill="none" stroke="#1FF27D" stroke-width="1" stroke-linecap="round" stroke-linejoin="round" d="M142.0037,677.6817L153.2915,673.0614L148.2851,681.4365L142.0037,677.6817Z"/>
<path fill="none" stroke="#1FF27D" stroke-width="1" stroke-linecap="round" stroke-linejoin="round" d="M148.2851,681.4365L164.4584,679.7367L153.2915,673.0614L148.2851,681.4365Z"/>
<path fill="none" stroke="#1FF27D" stroke-width="1" stroke-linecap="round" stroke-linejoin="round" d="M113.488,680.9686L122.5854,680.0125L116.3041,676.2576L113.488,680.9686Z"/>
<path fill="none" stroke="#1FF27D" stroke-width="1" stroke-linecap="round" stroke-linejoin="round" d="M82.38476,578.6268L92.93317,580.5363L87.0987,574.251L82.38476,578.6268Z"/>
<path fill="none" stroke="#1FF27D" stroke-width="1" stroke-linecap="round" stroke-linejoin="round" d="M87.0987,574.251L101.3135,572.7569L92.93317,580.5363L87.0987,574.251Z"/>
<path fill="none" stroke="#1FF27D" stroke-width="1" stroke-linecap="round" stroke-linejoin="round" d="M92.93317,580.5363L111.6859,583.9307L101.3135,572.7569L92.93317,580.5363Z"/>
<path fill="none" stroke="#1FF27D" stroke-width="1" stroke-linecap="round" stroke-linejoin="round" d="M95.50893,604.8241L104.0184,587.772L90.3873,594.6008L95.50893,604.8241Z"/>
<path fill="none" stroke="#1FF27D" stroke-width="1" stroke-linecap="round" stroke-linejoin="round" d="M104.0184,587.772L95.50893,604.8241L109.14,597.9953L104.0184,587.772Z"/>
<path fill="none" stroke="#1FF27D" stroke-width="1" stroke-linecap="round" stroke-linejoin="round" d="M109.14,597.9953L104.614,622.999L95.50893,604.8241L109.14,597.9953Z"/>
<path fill="none" stroke="#1FF27D" stroke-width="1" stroke-linecap="round" stroke-linejoin="round" d="M56.58471,580.3115L61.3713,570.7197L53.7038,574.5609L56.58471,580.3115Z"/>
<path fill="none" stroke="#1FF27D" stroke-width="1" stroke-linecap="round" stroke-linejoin="round" d="M69.37384,586.6937L56.58471,580.3115L67.83317,578.2573L69.37384,586.6937Z"/>
<path fill="none" stroke="#1FF27D" stroke-width="1" stroke-linecap="round" stroke-linejoin="round" d="M56.58471,580.3115L59.64812,574.1727L60.63416,579.572L56.58471,580.3115Z"/>
<path fill="none" stroke="#1FF27D" stroke-width="1" stroke-linecap="round" stroke-linejoin="round" d="M66.84714,572.858L60.63416,579.572L67.83317,578.2573L66.84714,572.858Z"/>
<path fill="none" stroke="#1FF27D" stroke-width="1" stroke-linecap="round" stroke-linejoin="round" d="M60.63416,579.572L66.84714,572.858L59.64812,574.1727L60.63416,579.572Z"/>
<path fill="none" stroke="#1FF27D" stroke-width="1" stroke-linecap="round" stroke-linejoin="round" d="M77.88333,569.6415L74.81992,575.7803L73.83389,570.381L77.88333,569.6415Z"/>
<path fill="none" stroke="#1FF27D" stroke-width="1" stroke-linecap="round" stroke-linejoin="round" d="M67.6209,577.095L73.83389,570.381L66.63486,571.6957L67.6209,577.095Z"/>
<path fill="none" stroke="#1FF27D" stroke-width="1" stroke-linecap="round" stroke-linejoin="round" d="M73.83389,570.381L67.6209,577.095L74.81992,575.7803L73.83389,570.381Z"/>
<path fill="none" stroke="#1FF27D" stroke-width="1" stroke-linecap="round" stroke-linejoin="round" d="M74.81992,575.7803L69.37384,586.6937L67.6209,577.095L74.81992,575.7803Z"/>
<path fill="none" stroke="#1FF27D" stroke-width="1" stroke-linecap="round" stroke-linejoin="round" d="M29.43745,573.9285L12.95555,570.9451L24.93602,564.9432L29.43745,573.9285Z"/>
<path fill="none" stroke="#1FF27D" stroke-width="1" stroke-linecap="round" stroke-linejoin="round" d="M12.95555,570.9451L14.3876,563.0338L17.26852,568.7844L12.95555,570.9451Z"/>
<path fill="none" stroke="#1FF27D" stroke-width="1" stroke-linecap="round" stroke-linejoin="round" d="M12.95555,570.9451L16.93348,548.9692L3.839187,561.1244L12.95555,570.9451Z"/>
<path fill="none" stroke="#1FF27D" stroke-width="1" stroke-linecap="round" stroke-linejoin="round" d="M-1.995286,554.8391L12.21953,553.3451L3.839187,561.1244L-1.995286,554.8391Z"/>
<path fill="none" stroke="#1FF27D" stroke-width="1" stroke-linecap="round" stroke-linejoin="round" d="M12.21953,553.3451L-1.995286,554.8391L6.385058,547.0598L12.21953,553.3451Z"/>
<path fill="none" stroke="#1FF27D" stroke-width="1" stroke-linecap="round" stroke-linejoin="round" d="M6.385058,547.0598L-12.36768,543.6653L-1.995286,554.8391L6.385058,547.0598Z"/>
<path fill="none" stroke="#1FF27D" stroke-width="1" stroke-linecap="round" stroke-linejoin="round" d="M-12.36768,543.6653L-9.821808,529.6008L-4.700179,539.8241L-12.36768,543.6653Z"/>
<path fill="none" stroke="#1FF27D" stroke-width="1" stroke-linecap="round" stroke-linejoin="round" d="M3.809302,522.7719L-4.700179,539.8241L8.930931,532.9952L3.809302,522.7719Z"/>
<path fill="none" stroke="#1FF27D" stroke-width="1" stroke-linecap="round" stroke-linejoin="round" d="M-4.700179,539.8241L3.809302,522.7719L-9.821808,529.6008L-4.700179,539.8241Z"/>
<path fill="none" stroke="#1FF27D" stroke-width="1" stroke-linecap="round" stroke-linejoin="round" d="M-9.821808,529.6008L-5.295815,504.5971L3.809302,522.7719L-9.821808,529.6008Z"/>
<path fill="none" stroke="#1FF27D" stroke-width="1" stroke-linecap="round" stroke-linejoin="round" d="M2.086534,519.3331L6.873119,509.7412L-0.794383,513.5824L2.086534,519.3331Z"/>
<path fill="none" stroke="#1FF27D" stroke-width="1" stroke-linecap="round" stroke-linejoin="round" d="M44.46517,490.9086L51.53704,451.8404L28.2583,473.4495L44.46517,490.9086Z"/>
<path fill="none" stroke="#1FF27D" stroke-width="1" stroke-linecap="round" stroke-linejoin="round" d="M47.55911,473.8162L76.86028,479.1201L55.56166,489.7902L47.55911,473.8162Z"/>
<path fill="none" stroke="#1FF27D" stroke-width="1" stroke-linecap="round" stroke-linejoin="round" d="M76.86028,479.1201L74.3144,493.1847L69.19277,482.9614L76.86028,479.1201Z"/>
<path fill="none" stroke="#1FF27D" stroke-width="1" stroke-linecap="round" stroke-linejoin="round" d="M109.6504,488.1826L116.4014,489.4046L111.4942,491.863L109.6504,488.1826Z"/>
<path fill="none" stroke="#1FF27D" stroke-width="1" stroke-linecap="round" stroke-linejoin="round" d="M67.74391,469.2994L93.01469,466.6434L78.1163,480.4732L67.74391,469.2994Z"/>
<path fill="none" stroke="#1FF27D" stroke-width="1" stroke-linecap="round" stroke-linejoin="round" d="M93.01469,466.6434L94.28961,478.7734L87.65128,471.6221L93.01469,466.6434Z"/>
<path fill="none" stroke="#1FF27D" stroke-width="1" stroke-linecap="round" stroke-linejoin="round" d="M84.75464,487.6245L87.65128,471.6221L78.1163,480.4732L84.75464,487.6245Z"/>
<path fill="none" stroke="#1FF27D" stroke-width="1" stroke-linecap="round" stroke-linejoin="round" d="M87.65128,471.6221L84.75464,487.6245L94.28961,478.7734L87.65128,471.6221Z"/>
<path fill="none" stroke="#1FF27D" stroke-width="1" stroke-linecap="round" stroke-linejoin="round" d="M93.44354,470.7235L107.6584,469.2295L99.27802,477.0088L93.44354,470.7235Z"/>
<path fill="none" stroke="#1FF27D" stroke-width="1" stroke-linecap="round" stroke-linejoin="round" d="M118.0308,480.4033L99.27802,477.0088L109.6504,488.1826L118.0308,480.4033Z"/>
<path fill="none" stroke="#1FF27D" stroke-width="1" stroke-linecap="round" stroke-linejoin="round" d="M99.27802,477.0088L118.0308,480.4033L107.6584,469.2295L99.27802,477.0088Z"/>
<path fill="none" stroke="#1FF27D" stroke-width="1" stroke-linecap="round" stroke-linejoin="round" d="M107.6584,469.2295L132.9291,466.5735L118.0308,480.4033L107.6584,469.2295Z"/>
<path fill="none" stroke="#1FF27D" stroke-width="1" stroke-linecap="round" stroke-linejoin="round" d="M87.91006,418.076L106.6628,421.4706L96.29041,410.2968L87.91006,418.076Z"/>
<path fill="none" stroke="#1FF27D" stroke-width="1" stroke-linecap="round" stroke-linejoin="round" d="M106.6628,421.4706L108.2922,412.4692L102.9287,417.448L106.6628,421.4706Z"/>
<path fill="none" stroke="#1FF27D" stroke-width="1" stroke-linecap="round" stroke-linejoin="round" d="M101.6538,405.318L102.9287,417.448L96.29041,410.2968L101.6538,405.318Z"/>
<path fill="none" stroke="#1FF27D" stroke-width="1" stroke-linecap="round" stroke-linejoin="round" d="M102.9287,417.448L101.6538,405.318L108.2922,412.4692L102.9287,417.448Z"/>
<path fill="none" stroke="#1FF27D" stroke-width="1" stroke-linecap="round" stroke-linejoin="round" d="M140.001,427.5052L127.9993,425.3327L136.7232,420.9623L140.001,427.5052Z"/>
<path fill="none" stroke="#1FF27D" stroke-width="1" stroke-linecap="round" stroke-linejoin="round" d="M100.9262,326.6391L111.4746,328.5485L105.6401,322.2632L100.9262,326.6391Z"/>
<path fill="none" stroke="#1FF27D" stroke-width="1" stroke-linecap="round" stroke-linejoin="round" d="M106.7606,332.9244L92.54582,334.4184L100.9262,326.6391L106.7606,332.9244Z"/>
<path fill="none" stroke="#1FF27D" stroke-width="1" stroke-linecap="round" stroke-linejoin="round" d="M92.54582,334.4184L93.66635,345.0795L98.06655,337.7186L92.54582,334.4184Z"/>
<path fill="none" stroke="#1FF27D" stroke-width="1" stroke-linecap="round" stroke-linejoin="round" d="M45.26039,242.4465L106.9566,235.962L70.58361,269.7263L45.26039,242.4465Z"/>
<path fill="none" stroke="#1FF27D" stroke-width="1" stroke-linecap="round" stroke-linejoin="round" d="M106.9566,235.962L110.0692,265.5762L93.86235,248.1171L106.9566,235.962Z"/>
<path fill="none" stroke="#1FF27D" stroke-width="1" stroke-linecap="round" stroke-linejoin="round" d="M86.79048,287.1854L93.86235,248.1171L70.58361,269.7263L86.79048,287.1854Z"/>
<path fill="none" stroke="#1FF27D" stroke-width="1" stroke-linecap="round" stroke-linejoin="round" d="M93.86235,248.1171L86.79048,287.1854L110.0692,265.5762L93.86235,248.1171Z"/>
<path fill="none" stroke="#1FF27D" stroke-width="1" stroke-linecap="round" stroke-linejoin="round" d="M108.5925,251.5266L106.8417,234.8686L115.9581,244.6893L108.5925,251.5266Z"/>
<path fill="none" stroke="#1FF27D" stroke-width="1" stroke-linecap="round" stroke-linejoin="round" d="M119.936,222.7135L115.9581,244.6893L129.0524,232.5342L119.936,222.7135Z"/>
<path fill="none" stroke="#1FF27D" stroke-width="1" stroke-linecap="round" stroke-linejoin="round" d="M115.9581,244.6893L119.936,222.7135L106.8417,234.8686L115.9581,244.6893Z"/>
<path fill="none" stroke="#1FF27D" stroke-width="1" stroke-linecap="round" stroke-linejoin="round" d="M106.8417,234.8686L103.7291,205.2544L119.936,222.7135L106.8417,234.8686Z"/>
<path fill="none" stroke="#1FF27D" stroke-width="1" stroke-linecap="round" stroke-linejoin="round" d="M172.1987,214.9L170.7667,222.8113L167.8857,217.0607L172.1987,214.9Z"/>
<path fill="none" stroke="#1FF27D" stroke-width="1" stroke-linecap="round" stroke-linejoin="round" d="M143.5605,84.21352L159.062,77.86848L152.1867,89.37L143.5605,84.21352Z"/>
<path fill="none" stroke="#1FF27D" stroke-width="1" stroke-linecap="round" stroke-linejoin="round" d="M168.0731,65.49277L162.6586,52.26487L172.4733,58.13181L168.0731,65.49277Z"/>
<path fill="none" stroke="#1FF27D" stroke-width="1" stroke-linecap="round" stroke-linejoin="round" d="M135.1005,63.54494L143.5605,84.21352L148.067,66.9248L135.1005,63.54494Z"/>
<path fill="none" stroke="#1FF27D" stroke-width="1" stroke-linecap="round" stroke-linejoin="round" d="M143.5605,84.21352L153.4815,80.1527L145.1829,77.98959L143.5605,84.21352Z"/>
<path fill="none" stroke="#1FF27D" stroke-width="1" stroke-linecap="round" stroke-linejoin="round" d="M156.3656,69.08793L145.1829,77.98959L148.067,66.9248L156.3656,69.08793Z"/>
<path fill="none" stroke="#1FF27D" stroke-width="1" stroke-linecap="round" stroke-linejoin="round" d="M145.1829,77.98959L156.3656,69.08793L153.4815,80.1527L145.1829,77.98959Z"/>
<path fill="none" stroke="#1FF27D" stroke-width="1" stroke-linecap="round" stroke-linejoin="round" d="M162.6586,52.26487L152.7377,56.3257L161.0363,58.48882L162.6586,52.26487Z"/>
<path fill="none" stroke="#1FF27D" stroke-width="1" stroke-linecap="round" stroke-linejoin="round" d="M149.8536,67.39048L161.0363,58.48882L158.1521,69.5536L149.8536,67.39048Z"/>
<path fill="none" stroke="#1FF27D" stroke-width="1" stroke-linecap="round" stroke-linejoin="round" d="M161.0363,58.48882L149.8536,67.39048L152.7377,56.3257L161.0363,58.48882Z"/>
<path fill="none" stroke="#1FF27D" stroke-width="1" stroke-linecap="round" stroke-linejoin="round" d="M152.7377,56.3257L135.1005,63.54494L149.8536,67.39048L152.7377,56.3257Z"/>
<path fill="none" stroke="#1FF27D" stroke-width="1" stroke-linecap="round" stroke-linejoin="round" d="M150.3553,127.2548L153.091,153.2829L163.8336,135.3118L150.3553,127.2548Z"/>
<path fill="none" stroke="#1FF27D" stroke-width="1" stroke-linecap="round" stroke-linejoin="round" d="M189.546,166.2934L192.6585,195.9076L176.4517,178.4485L189.546,166.2934Z"/>
<path fill="none" stroke="#1FF27D" stroke-width="1" stroke-linecap="round" stroke-linejoin="round" d="M192.6585,195.9076L214.8692,193.5731L199.5338,184.4061L192.6585,195.9076Z"/>
<path fill="none" stroke="#1FF27D" stroke-width="1" stroke-linecap="round" stroke-linejoin="round" d="M227.092,173.126L199.5338,184.4061L211.7566,163.9589L227.092,173.126Z"/>
<path fill="none" stroke="#1FF27D" stroke-width="1" stroke-linecap="round" stroke-linejoin="round" d="M199.5338,184.4061L227.092,173.126L214.8692,193.5731L199.5338,184.4061Z"/>
<path fill="none" stroke="#1FF27D" stroke-width="1" stroke-linecap="round" stroke-linejoin="round" d="M214.8692,193.5731L254.3548,189.423L227.092,173.126L214.8692,193.5731Z"/>
<path fill="none" stroke="#1FF27D" stroke-width="1" stroke-linecap="round" stroke-linejoin="round" d="M249.8683,146.7369L248.7478,136.0758L244.3476,143.4368L249.8683,146.7369Z"/>
<path fill="none" stroke="#1FF27D" stroke-width="1" stroke-linecap="round" stroke-linejoin="round" d="M201.2862,64.33949L199.2942,45.3864L191.4716,58.47256L201.2862,64.33949Z"/>
<path fill="none" stroke="#1FF27D" stroke-width="1" stroke-linecap="round" stroke-linejoin="round" d="M238.7798,41.23629L241.8923,70.8505L225.6855,53.39145L238.7798,41.23629Z"/>
<path fill="none" stroke="#1FF27D" stroke-width="1" stroke-linecap="round" stroke-linejoin="round" d="M217.3051,61.17075L236.0579,64.56524L225.6855,53.39145L217.3051,61.17075Z"/>
<path fill="none" stroke="#1FF27D" stroke-width="1" stroke-linecap="round" stroke-linejoin="round" d="M199.2942,45.3864L213.509,43.89236L205.1286,51.67166L199.2942,45.3864Z"/>
<path fill="none" stroke="#1FF27D" stroke-width="1" stroke-linecap="round" stroke-linejoin="round" d="M223.8814,55.06615L205.1286,51.67166L215.501,62.84545L223.8814,55.06615Z"/>
<path fill="none" stroke="#1FF27D" stroke-width="1" stroke-linecap="round" stroke-linejoin="round" d="M205.1286,51.67166L223.8814,55.06615L213.509,43.89236L205.1286,51.67166Z"/>
<path fill="none" stroke="#1FF27D" stroke-width="1" stroke-linecap="round" stroke-linejoin="round" d="M213.509,43.89236L238.7798,41.23629L223.8814,55.06615L213.509,43.89236Z"/>
<path fill="none" stroke="#1FF27D" stroke-width="1" stroke-linecap="round" stroke-linejoin="round" d="M297.0486,449.5744L271.2956,444.9128L285.5399,460.2577L297.0486,449.5744Z"/>
<path fill="none" stroke="#1FF27D" stroke-width="1" stroke-linecap="round" stroke-linejoin="round" d="M250.8358,463.9052L285.5399,460.2577L265.0801,479.2501L250.8358,463.9052Z"/>
<path fill="none" stroke="#1FF27D" stroke-width="1" stroke-linecap="round" stroke-linejoin="round" d="M285.5399,460.2577L250.8358,463.9052L271.2956,444.9128L285.5399,460.2577Z"/>
<path fill="none" stroke="#1FF27D" stroke-width="1" stroke-linecap="round" stroke-linejoin="round" d="M271.2956,444.9128L225.5126,436.6255L250.8358,463.9052L271.2956,444.9128Z"/>
<path fill="none" stroke="#1FF27D" stroke-width="1" stroke-linecap="round" stroke-linejoin="round" d="M220.6491,390.3532L222.4,407.0112L213.2836,397.1905L220.6491,390.3532Z"/>
<path fill="none" stroke="#1FF27D" stroke-width="1" stroke-linecap="round" stroke-linejoin="round" d="M209.3057,419.1664L213.2836,397.1905L200.1893,409.3457L209.3057,419.1664Z"/>
<path fill="none" stroke="#1FF27D" stroke-width="1" stroke-linecap="round" stroke-linejoin="round" d="M213.2836,397.1905L209.3057,419.1664L222.4,407.0112L213.2836,397.1905Z"/>
<path fill="none" stroke="#1FF27D" stroke-width="1" stroke-linecap="round" stroke-linejoin="round" d="M222.4,407.0112L225.5126,436.6255L209.3057,419.1664L222.4,407.0112Z"/>
<path fill="none" stroke="#1FF27D" stroke-width="1" stroke-linecap="round" stroke-linejoin="round" d="M225.4306,389.8507L211.2158,391.3447L219.5961,383.5654L225.4306,389.8507Z"/>
<path fill="none" stroke="#1FF27D" stroke-width="1" stroke-linecap="round" stroke-linejoin="round" d="M199.8781,260.7949L197.3322,274.8595L192.2105,264.6361L199.8781,260.7949Z"/>
<path fill="none" stroke="#1FF27D" stroke-width="1" stroke-linecap="round" stroke-linejoin="round" d="M199.8781,260.7949L201.5074,251.7936L196.144,256.7724L199.8781,260.7949Z"/>
<path fill="none" stroke="#1FF27D" stroke-width="1" stroke-linecap="round" stroke-linejoin="round" d="M194.8691,244.6424L196.144,256.7724L189.5056,249.6211L194.8691,244.6424Z"/>
<path fill="none" stroke="#1FF27D" stroke-width="1" stroke-linecap="round" stroke-linejoin="round" d="M196.144,256.7724L194.8691,244.6424L201.5074,251.7936L196.144,256.7724Z"/>
<path fill="none" stroke="#1FF27D" stroke-width="1" stroke-linecap="round" stroke-linejoin="round" d="M201.5074,251.7936L204.404,235.7912L194.8691,244.6424L201.5074,251.7936Z"/>
<path fill="none" stroke="#1FF27D" stroke-width="1" stroke-linecap="round" stroke-linejoin="round" d="M225.0029,312.2037L220.4769,337.2073L211.3718,319.0325L225.0029,312.2037Z"/>
<path fill="none" stroke="#1FF27D" stroke-width="1" stroke-linecap="round" stroke-linejoin="round" d="M220.4769,337.2073L208.4752,335.0349L217.1991,330.6644L220.4769,337.2073Z"/>
<path fill="none" stroke="#1FF27D" stroke-width="1" stroke-linecap="round" stroke-linejoin="round" d="M202.6479,323.403L217.1991,330.6644L211.3718,319.0325L202.6479,323.403Z"/>
<path fill="none" stroke="#1FF27D" stroke-width="1" stroke-linecap="round" stroke-linejoin="round" d="M217.1991,330.6644L202.6479,323.403L208.4752,335.0349L217.1991,330.6644Z"/>
<path fill="none" stroke="#1FF27D" stroke-width="1" stroke-linecap="round" stroke-linejoin="round" d="M217.8387,315.7928L197.8557,305.8207L205.8582,321.7947L217.8387,315.7928Z"/>
<path fill="none" stroke="#1FF27D" stroke-width="1" stroke-linecap="round" stroke-linejoin="round" d="M197.8557,305.8207L217.8387,315.7928L209.8361,299.8188L197.8557,305.8207Z"/>
<path fill="none" stroke="#1FF27D" stroke-width="1" stroke-linecap="round" stroke-linejoin="round" d="M209.8361,299.8188L239.1373,305.1227L217.8387,315.7928L209.8361,299.8188Z"/>
<path fill="none" stroke="#1FF27D" stroke-width="1" stroke-linecap="round" stroke-linejoin="round" d="M212.283,290.9655L198.0682,292.4595L206.4485,284.6802L212.283,290.9655Z"/>
<path fill="none" stroke="#1FF27D" stroke-width="1" stroke-linecap="round" stroke-linejoin="round" d="M198.0682,292.4595L212.283,290.9655L203.9026,298.7448L198.0682,292.4595Z"/>
<path fill="none" stroke="#1FF27D" stroke-width="1" stroke-linecap="round" stroke-linejoin="round" d="M203.9026,298.7448L222.6554,302.1393L212.283,290.9655L203.9026,298.7448Z"/>
<path fill="none" stroke="#1FF27D" stroke-width="1" stroke-linecap="round" stroke-linejoin="round" d="M328.7213,464.8102L295.3831,458.7756L313.8229,478.64L328.7213,464.8102Z"/>
<path fill="none" stroke="#1FF27D" stroke-width="1" stroke-linecap="round" stroke-linejoin="round" d="M295.3831,458.7756L292.4865,474.7779L302.0214,465.9268L295.3831,458.7756Z"/>
<path fill="none" stroke="#1FF27D" stroke-width="1" stroke-linecap="round" stroke-linejoin="round" d="M304.288,487.4912L302.0214,465.9268L313.8229,478.64L304.288,487.4912Z"/>
<path fill="none" stroke="#1FF27D" stroke-width="1" stroke-linecap="round" stroke-linejoin="round" d="M302.0214,465.9268L304.288,487.4912L292.4865,474.7779L302.0214,465.9268Z"/>
<path fill="none" stroke="#1FF27D" stroke-width="1" stroke-linecap="round" stroke-linejoin="round" d="M352,443.201L357.5335,495.8485L328.7213,464.8102L352,443.201Z"/>
<path fill="none" stroke="#1FF27D" stroke-width="1" stroke-linecap="round" stroke-linejoin="round" d="M357.5335,495.8485L332.2627,498.5046L347.1611,484.6747L357.5335,495.8485Z"/>
<path fill="none" stroke="#1FF27D" stroke-width="1" stroke-linecap="round" stroke-linejoin="round" d="M313.8229,478.6401L347.1611,484.6747L328.7213,464.8102L313.8229,478.6401Z"/>
<path fill="none" stroke="#1FF27D" stroke-width="1" stroke-linecap="round" stroke-linejoin="round" d="M347.1611,484.6747L313.8229,478.6401L332.2627,498.5046L347.1611,484.6747Z"/>
<path fill="none" stroke="#1FF27D" stroke-width="1" stroke-linecap="round" stroke-linejoin="round" d="M322.041,499.5789L323.7918,516.2369L314.6755,506.4162L322.041,499.5789Z"/>
<path fill="none" stroke="#1FF27D" stroke-width="1" stroke-linecap="round" stroke-linejoin="round" d="M314.6755,506.4162L310.6976,528.3921L323.7918,516.2369L314.6755,506.4162Z"/>
<path fill="none" stroke="#1FF27D" stroke-width="1" stroke-linecap="round" stroke-linejoin="round" d="M323.7918,516.2369L326.9044,545.8511L310.6976,528.3921L323.7918,516.2369Z"/>
</g>
</svg>
