  0
SECTION
  2
HEADER
  9
$ACADVER
  1
AC1009
  9
$FILLMODE
 70
0
  9
$EXTMIN
 10
-9.4615
 20
-74.6125
 30
0.0000
  9
$EXTMAX
 10
409.1940
 20
77.4065
 30
0.0000
  0
ENDSEC
  0
SECTION
  2
TABLES
  0
TABLE
  2
LTYPE
 70
1
  0
LTYPE
  2
CONTINUOUS
 70
64
  3
Solid line
 72
65
 73
0
 40
0
  0
ENDTAB
  0
TABLE
  2
LAYER
 70
255
  0
LAYER
  2
255
 70
64
 62
72
  6
CONTINUOUS
  0
ENDTAB
  0
ENDSEC
  0
SECTION
  2
BLOCKS
  0
BLOCK
  8
0
  2
RECT
 70
64
 10
0.0000
 20
0.0000
 30
0.0000
  3
RECT
  0
SOLID
  8
0
 10
-0.5000
 20
-0.5000
 30
0.0000
 11
0.5000
 21
-0.5000
 31
0.0000
 12
-0.5000
 22
0.5000
 32
0.0000
 13
0.5000
 23
0.5000
 33
0.0000
  0
ENDBLK
  8
0
  0
BLOCK
  8
0
  2
PIE
 70
64
 10
0.0000
 20
0.0000
 30
0.0000
  3
PIE
  0
CIRCLE
  8
0
 10
0.0000
 20
0.0000
 30
0.0000
 40
0.5000
  0
ENDBLK
  8
0
  0
BLOCK
  8
0
  2
OCTAGONP
 70
64
 10
0.0000
 20
0.0000
 30
0.0000
  3
OCTAGONP
  0
POLYLINE
  8
0
 66
1
 10
0.0000
 20
0.0000
 30
0.0000
 40
0.0000
 41
0.0000
 70
1
  0
VERTEX
  8
0
 10
-0.5000
 20
-0.2071
 30
0.0000
  0
VERTEX
  8
0
 10
-0.5000
 20
0.2071
 30
0.0000
  0
VERTEX
  8
0
 10
-0.2071
 20
0.5000
 30
0.0000
  0
VERTEX
  8
0
 10
0.2071
 20
0.5000
 30
0.0000
  0
VERTEX
  8
0
 10
0.5000
 20
0.2071
 30
0.0000
  0
VERTEX
  8
0
 10
0.5000
 20
-0.2071
 30
0.0000
  0
VERTEX
  8
0
 10
0.2071
 20
-0.5000
 30
0.0000
  0
VERTEX
  8
0
 10
-0.2071
 20
-0.5000
 30
0.0000
  0
SEQEND
  8
0
  0
ENDBLK
  8
0
  0
BLOCK
  8
0
  2
SQUAREP
 70
64
 10
0.0000
 20
0.0000
 30
0.0000
  3
SQUAREP
  0
SOLID
  8
0
 10
-0.5000
 20
-0.5000
 30
0.0000
 11
0.5000
 21
-0.5000
 31
0.0000
 12
-0.5000
 22
0.5000
 32
0.0000
 13
0.5000
 23
0.5000
 33
0.0000
  0
ENDBLK
  8
0
  0
BLOCK
  8
0
  2
ROUNDP
 70
64
 10
0.0000
 20
0.0000
 30
0.0000
  3
ROUNDP
  0
CIRCLE
  8
0
 10
0.0000
 20
0.0000
 30
0.0000
 40
0.5000
  0
ENDBLK
  8
0
  0
BLOCK
  8
0
  2
ANNULUSP
 70
64
 10
0.0000
 20
0.0000
 30
0.0000
  3
ANNULUSP
  0
CIRCLE
  8
0
 10
0.0000
 20
0.0000
 30
0.0000
 40
0.5000
  0
ENDBLK
  8
0
  0
BLOCK
  8
0
  2
THERMALP
 70
64
 10
0.0000
 20
0.0000
 30
0.0000
  3
THERMALP
  0
LINE
  8
0
 10
-0.2379
 20
0.4500
 30
0.0000
 11
0.2379
 21
0.4500
 31
0.0000
  0
LINE
  8
0
 10
0.4500
 20
0.2379
 30
0.0000
 11
0.4500
 21
-0.2379
 31
0.0000
  0
LINE
  8
0
 10
0.2379
 20
-0.4500
 30
0.0000
 11
-0.2379
 21
-0.4500
 31
0.0000
  0
LINE
  8
0
 10
-0.4500
 20
-0.2379
 30
0.0000
 11
-0.4500
 21
0.2379
 31
0.0000
  0
ENDBLK
  8
0
  0
BLOCK
  8
0
  2
OCTAGONV
 70
64
 10
0.0000
 20
0.0000
 30
0.0000
  3
OCTAGONV
  0
POLYLINE
  8
0
 66
1
 10
0.0000
 20
0.0000
 30
0.0000
 40
0.0000
 41
0.0000
 70
1
  0
VERTEX
  8
0
 10
-0.5000
 20
-0.2071
 30
0.0000
  0
VERTEX
  8
0
 10
-0.5000
 20
0.2071
 30
0.0000
  0
VERTEX
  8
0
 10
-0.2071
 20
0.5000
 30
0.0000
  0
VERTEX
  8
0
 10
0.2071
 20
0.5000
 30
0.0000
  0
VERTEX
  8
0
 10
0.5000
 20
0.2071
 30
0.0000
  0
VERTEX
  8
0
 10
0.5000
 20
-0.2071
 30
0.0000
  0
VERTEX
  8
0
 10
0.2071
 20
-0.5000
 30
0.0000
  0
VERTEX
  8
0
 10
-0.2071
 20
-0.5000
 30
0.0000
  0
SEQEND
  8
0
  0
ENDBLK
  8
0
  0
BLOCK
  8
0
  2
SQUAREV
 70
64
 10
0.0000
 20
0.0000
 30
0.0000
  3
SQUAREV
  0
SOLID
  8
0
 10
-0.5000
 20
-0.5000
 30
0.0000
 11
0.5000
 21
-0.5000
 31
0.0000
 12
-0.5000
 22
0.5000
 32
0.0000
 13
0.5000
 23
0.5000
 33
0.0000
  0
ENDBLK
  8
0
  0
BLOCK
  8
0
  2
ROUNDV
 70
64
 10
0.0000
 20
0.0000
 30
0.0000
  3
ROUNDV
  0
CIRCLE
  8
0
 10
0.0000
 20
0.0000
 30
0.0000
 40
0.5000
  0
ENDBLK
  8
0
  0
BLOCK
  8
0
  2
ANNULUSV
 70
64
 10
0.0000
 20
0.0000
 30
0.0000
  3
ANNULUSV
  0
CIRCLE
  8
0
 10
0.0000
 20
0.0000
 30
0.0000
 40
0.5000
  0
ENDBLK
  8
0
  0
BLOCK
  8
0
  2
THERMALV
 70
64
 10
0.0000
 20
0.0000
 30
0.0000
  3
THERMALV
  0
LINE
  8
0
 10
-0.2379
 20
0.4500
 30
0.0000
 11
0.2379
 21
0.4500
 31
0.0000
  0
LINE
  8
0
 10
0.4500
 20
0.2379
 30
0.0000
 11
0.4500
 21
-0.2379
 31
0.0000
  0
LINE
  8
0
 10
0.2379
 20
-0.4500
 30
0.0000
 11
-0.2379
 21
-0.4500
 31
0.0000
  0
LINE
  8
0
 10
-0.4500
 20
-0.2379
 30
0.0000
 11
-0.4500
 21
0.2379
 31
0.0000
  0
ENDBLK
  8
0
  0
BLOCK
  8
0
  2
LONGP100
 70
64
 10
0.0000
 20
0.0000
 30
0.0000
  3
LONGP100
  0
POLYLINE
  8
0
 66
1
 10
0.0000
 20
0.0000
 30
0.0000
 40
0.0000
 41
0.0000
 70
1
  0
VERTEX
  8
0
 10
-0.5000
 20
-0.5000
 30
0.0000
  0
VERTEX
  8
0
 10
0.5000
 20
-0.5000
 30
0.0000
 42
1.0000
  0
VERTEX
  8
0
 10
0.5000
 20
0.5000
 30
0.0000
  0
VERTEX
  8
0
 10
-0.5000
 20
0.5000
 30
0.0000
 42
1.0000
  0
SEQEND
  8
0
  0
ENDBLK
  8
0
  0
ENDSEC
  0
SECTION
  2
ENTITIES
  0
LINE
  8
255
 10
-3.1750
 20
63.5000
 30
0.0000
 11
-3.1750
 21
0.0000
 31
0.0000
  0
ARC
  8
255
 10
0.0000
 20
0.0000
 30
0.0000
 40
3.1750
 50
180.0000
 51
270.0000
  0
LINE
  8
255
 10
0.0000
 20
-3.1750
 30
0.0000
 11
387.3500
 21
-3.1750
 31
0.0000
  0
LINE
  8
255
 10
49.2125
 20
50.2125
 30
0.0000
 11
49.2125
 21
65.6750
 31
0.0000
  0
ARC
  8
255
 10
50.2125
 20
65.6750
 30
0.0000
 40
1.0000
 50
90.0000
 51
180.0000
  0
LINE
  8
255
 10
50.2125
 20
66.6750
 30
0.0000
 11
387.3500
 21
66.6750
 31
0.0000
  0
LINE
  8
255
 10
0.0000
 20
66.6750
 30
0.0000
 11
3.7625
 21
66.6750
 31
0.0000
  0
ARC
  8
255
 10
3.7625
 20
65.6750
 30
0.0000
 40
1.0000
 50
0.0000
 51
90.0000
  0
LINE
  8
255
 10
4.7625
 20
65.6750
 30
0.0000
 11
4.7625
 21
50.2125
 31
0.0000
  0
ARC
  8
255
 10
5.7625
 20
50.2125
 30
0.0000
 40
1.0000
 50
180.0000
 51
270.0000
  0
LINE
  8
255
 10
5.7625
 20
49.2125
 30
0.0000
 11
48.2125
 21
49.2125
 31
0.0000
  0
ARC
  8
255
 10
48.2125
 20
50.2125
 30
0.0000
 40
1.0000
 50
270.0000
 51
0.0000
  0
ARC
  8
255
 10
0.0000
 20
63.5000
 30
0.0000
 40
3.1750
 50
90.0000
 51
180.0000
  0
LINE
  8
255
 10
390.5250
 20
0.0000
 30
0.0000
 11
390.5250
 21
63.5000
 31
0.0000
  0
ARC
  8
255
 10
387.3500
 20
63.5000
 30
0.0000
 40
3.1750
 50
0.0000
 51
90.0000
  0
ARC
  8
255
 10
387.3500
 20
0.0000
 30
0.0000
 40
3.1750
 50
270.0000
 51
0.0000
  0
CIRCLE
  8
255
 10
0.0000
 20
0.0000
 30
0.0000
 40
1.5875
  0
CIRCLE
  8
255
 10
0.0000
 20
63.5000
 30
0.0000
 40
1.5875
  0
CIRCLE
  8
255
 10
387.3500
 20
63.5000
 30
0.0000
 40
1.5875
  0
CIRCLE
  8
255
 10
387.3500
 20
0.0000
 30
0.0000
 40
1.5875
  0
CIRCLE
  8
255
 10
290.5125
 20
0.0000
 30
0.0000
 40
1.5875
  0
CIRCLE
  8
255
 10
290.5125
 20
63.5000
 30
0.0000
 40
1.5875
  0
CIRCLE
  8
255
 10
193.6750
 20
63.5000
 30
0.0000
 40
1.5875
  0
CIRCLE
  8
255
 10
193.6750
 20
0.0000
 30
0.0000
 40
1.5875
  0
CIRCLE
  8
255
 10
96.8375
 20
63.5000
 30
0.0000
 40
1.5875
  0
CIRCLE
  8
255
 10
96.8375
 20
0.0000
 30
0.0000
 40
1.5875
  0
CIRCLE
  8
255
 10
15.8750
 20
46.0375
 30
0.0000
 40
1.5250
  0
CIRCLE
  8
255
 10
38.1000
 20
46.0375
 30
0.0000
 40
1.5250
  0
LINE
  8
255
 10
5.7000
 20
19.7000
 30
0.0000
 11
5.7000
 21
18.7000
 31
0.0000
  0
LINE
  8
255
 10
5.7000
 20
15.2000
 30
0.0000
 11
5.7000
 21
10.2000
 31
0.0000
  0
LINE
  8
255
 10
5.7000
 20
6.7000
 30
0.0000
 11
5.7000
 21
5.7000
 31
0.0000
  0
LINE
  8
255
 10
5.7000
 20
5.7000
 30
0.0000
 11
19.7000
 21
5.7000
 31
0.0000
  0
LINE
  8
255
 10
19.7000
 20
5.7000
 30
0.0000
 11
19.7000
 21
6.7000
 31
0.0000
  0
LINE
  8
255
 10
19.7000
 20
10.2000
 30
0.0000
 11
19.7000
 21
15.2000
 31
0.0000
  0
LINE
  8
255
 10
19.7000
 20
18.7000
 30
0.0000
 11
19.7000
 21
19.7000
 31
0.0000
  0
LINE
  8
255
 10
19.7000
 20
19.7000
 30
0.0000
 11
5.7000
 21
19.7000
 31
0.0000
  0
LINE
  8
255
 10
4.9000
 20
15.2000
 30
0.0000
 11
4.9000
 21
18.7000
 31
0.0000
  0
LINE
  8
255
 10
5.7000
 20
18.7000
 30
0.0000
 11
4.9000
 21
18.7000
 31
0.0000
  0
LINE
  8
255
 10
4.9000
 20
15.2000
 30
0.0000
 11
5.7000
 21
15.2000
 31
0.0000
  0
LINE
  8
255
 10
20.5000
 20
15.2000
 30
0.0000
 11
20.5000
 21
18.7000
 31
0.0000
  0
LINE
  8
255
 10
19.7000
 20
18.7000
 30
0.0000
 11
20.5000
 21
18.7000
 31
0.0000
  0
LINE
  8
255
 10
19.7000
 20
15.2000
 30
0.0000
 11
20.5000
 21
15.2000
 31
0.0000
  0
LINE
  8
255
 10
19.7000
 20
10.2000
 30
0.0000
 11
20.5000
 21
10.2000
 31
0.0000
  0
LINE
  8
255
 10
19.7000
 20
6.7000
 30
0.0000
 11
20.5000
 21
6.7000
 31
0.0000
  0
LINE
  8
255
 10
20.5000
 20
6.7000
 30
0.0000
 11
20.5000
 21
10.2000
 31
0.0000
  0
LINE
  8
255
 10
4.9000
 20
10.2000
 30
0.0000
 11
5.7000
 21
10.2000
 31
0.0000
  0
LINE
  8
255
 10
5.7000
 20
6.7000
 30
0.0000
 11
4.9000
 21
6.7000
 31
0.0000
  0
LINE
  8
255
 10
4.9000
 20
6.7000
 30
0.0000
 11
4.9000
 21
10.2000
 31
0.0000
  0
LINE
  8
255
 10
15.2250
 20
38.7500
 30
0.0000
 11
15.2250
 21
37.7500
 31
0.0000
  0
LINE
  8
255
 10
15.2250
 20
34.2500
 30
0.0000
 11
15.2250
 21
29.2500
 31
0.0000
  0
LINE
  8
255
 10
15.2250
 20
25.7500
 30
0.0000
 11
15.2250
 21
24.7500
 31
0.0000
  0
LINE
  8
255
 10
15.2250
 20
24.7500
 30
0.0000
 11
29.2250
 21
24.7500
 31
0.0000
  0
LINE
  8
255
 10
29.2250
 20
24.7500
 30
0.0000
 11
29.2250
 21
25.7500
 31
0.0000
  0
LINE
  8
255
 10
29.2250
 20
29.2500
 30
0.0000
 11
29.2250
 21
34.2500
 31
0.0000
  0
LINE
  8
255
 10
29.2250
 20
37.7500
 30
0.0000
 11
29.2250
 21
38.7500
 31
0.0000
  0
LINE
  8
255
 10
29.2250
 20
38.7500
 30
0.0000
 11
15.2250
 21
38.7500
 31
0.0000
  0
LINE
  8
255
 10
14.4250
 20
34.2500
 30
0.0000
 11
14.4250
 21
37.7500
 31
0.0000
  0
LINE
  8
255
 10
15.2250
 20
37.7500
 30
0.0000
 11
14.4250
 21
37.7500
 31
0.0000
  0
LINE
  8
255
 10
14.4250
 20
34.2500
 30
0.0000
 11
15.2250
 21
34.2500
 31
0.0000
  0
LINE
  8
255
 10
30.0250
 20
34.2500
 30
0.0000
 11
30.0250
 21
37.7500
 31
0.0000
  0
LINE
  8
255
 10
29.2250
 20
37.7500
 30
0.0000
 11
30.0250
 21
37.7500
 31
0.0000
  0
LINE
  8
255
 10
29.2250
 20
34.2500
 30
0.0000
 11
30.0250
 21
34.2500
 31
0.0000
  0
LINE
  8
255
 10
29.2250
 20
29.2500
 30
0.0000
 11
30.0250
 21
29.2500
 31
0.0000
  0
LINE
  8
255
 10
29.2250
 20
25.7500
 30
0.0000
 11
30.0250
 21
25.7500
 31
0.0000
  0
LINE
  8
255
 10
30.0250
 20
25.7500
 30
0.0000
 11
30.0250
 21
29.2500
 31
0.0000
  0
LINE
  8
255
 10
14.4250
 20
29.2500
 30
0.0000
 11
15.2250
 21
29.2500
 31
0.0000
  0
LINE
  8
255
 10
15.2250
 20
25.7500
 30
0.0000
 11
14.4250
 21
25.7500
 31
0.0000
  0
LINE
  8
255
 10
14.4250
 20
25.7500
 30
0.0000
 11
14.4250
 21
29.2500
 31
0.0000
  0
LINE
  8
255
 10
24.7500
 20
19.7000
 30
0.0000
 11
24.7500
 21
18.7000
 31
0.0000
  0
LINE
  8
255
 10
24.7500
 20
15.2000
 30
0.0000
 11
24.7500
 21
10.2000
 31
0.0000
  0
LINE
  8
255
 10
24.7500
 20
6.7000
 30
0.0000
 11
24.7500
 21
5.7000
 31
0.0000
  0
LINE
  8
255
 10
24.7500
 20
5.7000
 30
0.0000
 11
38.7500
 21
5.7000
 31
0.0000
  0
LINE
  8
255
 10
38.7500
 20
5.7000
 30
0.0000
 11
38.7500
 21
6.7000
 31
0.0000
  0
LINE
  8
255
 10
38.7500
 20
10.2000
 30
0.0000
 11
38.7500
 21
15.2000
 31
0.0000
  0
LINE
  8
255
 10
38.7500
 20
18.7000
 30
0.0000
 11
38.7500
 21
19.7000
 31
0.0000
  0
LINE
  8
255
 10
38.7500
 20
19.7000
 30
0.0000
 11
24.7500
 21
19.7000
 31
0.0000
  0
LINE
  8
255
 10
23.9500
 20
15.2000
 30
0.0000
 11
23.9500
 21
18.7000
 31
0.0000
  0
LINE
  8
255
 10
24.7500
 20
18.7000
 30
0.0000
 11
23.9500
 21
18.7000
 31
0.0000
  0
LINE
  8
255
 10
23.9500
 20
15.2000
 30
0.0000
 11
24.7500
 21
15.2000
 31
0.0000
  0
LINE
  8
255
 10
39.5500
 20
15.2000
 30
0.0000
 11
39.5500
 21
18.7000
 31
0.0000
  0
LINE
  8
255
 10
38.7500
 20
18.7000
 30
0.0000
 11
39.5500
 21
18.7000
 31
0.0000
  0
LINE
  8
255
 10
38.7500
 20
15.2000
 30
0.0000
 11
39.5500
 21
15.2000
 31
0.0000
  0
LINE
  8
255
 10
38.7500
 20
10.2000
 30
0.0000
 11
39.5500
 21
10.2000
 31
0.0000
  0
LINE
  8
255
 10
38.7500
 20
6.7000
 30
0.0000
 11
39.5500
 21
6.7000
 31
0.0000
  0
LINE
  8
255
 10
39.5500
 20
6.7000
 30
0.0000
 11
39.5500
 21
10.2000
 31
0.0000
  0
LINE
  8
255
 10
23.9500
 20
10.2000
 30
0.0000
 11
24.7500
 21
10.2000
 31
0.0000
  0
LINE
  8
255
 10
24.7500
 20
6.7000
 30
0.0000
 11
23.9500
 21
6.7000
 31
0.0000
  0
LINE
  8
255
 10
23.9500
 20
6.7000
 30
0.0000
 11
23.9500
 21
10.2000
 31
0.0000
  0
LINE
  8
255
 10
34.2750
 20
38.7500
 30
0.0000
 11
34.2750
 21
37.7500
 31
0.0000
  0
LINE
  8
255
 10
34.2750
 20
34.2500
 30
0.0000
 11
34.2750
 21
29.2500
 31
0.0000
  0
LINE
  8
255
 10
34.2750
 20
25.7500
 30
0.0000
 11
34.2750
 21
24.7500
 31
0.0000
  0
LINE
  8
255
 10
34.2750
 20
24.7500
 30
0.0000
 11
48.2750
 21
24.7500
 31
0.0000
  0
LINE
  8
255
 10
48.2750
 20
24.7500
 30
0.0000
 11
48.2750
 21
25.7500
 31
0.0000
  0
LINE
  8
255
 10
48.2750
 20
29.2500
 30
0.0000
 11
48.2750
 21
34.2500
 31
0.0000
  0
LINE
  8
255
 10
48.2750
 20
37.7500
 30
0.0000
 11
48.2750
 21
38.7500
 31
0.0000
  0
LINE
  8
255
 10
48.2750
 20
38.7500
 30
0.0000
 11
34.2750
 21
38.7500
 31
0.0000
  0
LINE
  8
255
 10
33.4750
 20
34.2500
 30
0.0000
 11
33.4750
 21
37.7500
 31
0.0000
  0
LINE
  8
255
 10
34.2750
 20
37.7500
 30
0.0000
 11
33.4750
 21
37.7500
 31
0.0000
  0
LINE
  8
255
 10
33.4750
 20
34.2500
 30
0.0000
 11
34.2750
 21
34.2500
 31
0.0000
  0
LINE
  8
255
 10
49.0750
 20
34.2500
 30
0.0000
 11
49.0750
 21
37.7500
 31
0.0000
  0
LINE
  8
255
 10
48.2750
 20
37.7500
 30
0.0000
 11
49.0750
 21
37.7500
 31
0.0000
  0
LINE
  8
255
 10
48.2750
 20
34.2500
 30
0.0000
 11
49.0750
 21
34.2500
 31
0.0000
  0
LINE
  8
255
 10
48.2750
 20
29.2500
 30
0.0000
 11
49.0750
 21
29.2500
 31
0.0000
  0
LINE
  8
255
 10
48.2750
 20
25.7500
 30
0.0000
 11
49.0750
 21
25.7500
 31
0.0000
  0
LINE
  8
255
 10
49.0750
 20
25.7500
 30
0.0000
 11
49.0750
 21
29.2500
 31
0.0000
  0
LINE
  8
255
 10
33.4750
 20
29.2500
 30
0.0000
 11
34.2750
 21
29.2500
 31
0.0000
  0
LINE
  8
255
 10
34.2750
 20
25.7500
 30
0.0000
 11
33.4750
 21
25.7500
 31
0.0000
  0
LINE
  8
255
 10
33.4750
 20
25.7500
 30
0.0000
 11
33.4750
 21
29.2500
 31
0.0000
  0
LINE
  8
255
 10
43.8000
 20
19.7000
 30
0.0000
 11
43.8000
 21
18.7000
 31
0.0000
  0
LINE
  8
255
 10
43.8000
 20
15.2000
 30
0.0000
 11
43.8000
 21
10.2000
 31
0.0000
  0
LINE
  8
255
 10
43.8000
 20
6.7000
 30
0.0000
 11
43.8000
 21
5.7000
 31
0.0000
  0
LINE
  8
255
 10
43.8000
 20
5.7000
 30
0.0000
 11
57.8000
 21
5.7000
 31
0.0000
  0
LINE
  8
255
 10
57.8000
 20
5.7000
 30
0.0000
 11
57.8000
 21
6.7000
 31
0.0000
  0
LINE
  8
255
 10
57.8000
 20
10.2000
 30
0.0000
 11
57.8000
 21
15.2000
 31
0.0000
  0
LINE
  8
255
 10
57.8000
 20
18.7000
 30
0.0000
 11
57.8000
 21
19.7000
 31
0.0000
  0
LINE
  8
255
 10
57.8000
 20
19.7000
 30
0.0000
 11
43.8000
 21
19.7000
 31
0.0000
  0
LINE
  8
255
 10
43.0000
 20
15.2000
 30
0.0000
 11
43.0000
 21
18.7000
 31
0.0000
  0
LINE
  8
255
 10
43.8000
 20
18.7000
 30
0.0000
 11
43.0000
 21
18.7000
 31
0.0000
  0
LINE
  8
255
 10
43.0000
 20
15.2000
 30
0.0000
 11
43.8000
 21
15.2000
 31
0.0000
  0
LINE
  8
255
 10
58.6000
 20
15.2000
 30
0.0000
 11
58.6000
 21
18.7000
 31
0.0000
  0
LINE
  8
255
 10
57.8000
 20
18.7000
 30
0.0000
 11
58.6000
 21
18.7000
 31
0.0000
  0
LINE
  8
255
 10
57.8000
 20
15.2000
 30
0.0000
 11
58.6000
 21
15.2000
 31
0.0000
  0
LINE
  8
255
 10
57.8000
 20
10.2000
 30
0.0000
 11
58.6000
 21
10.2000
 31
0.0000
  0
LINE
  8
255
 10
57.8000
 20
6.7000
 30
0.0000
 11
58.6000
 21
6.7000
 31
0.0000
  0
LINE
  8
255
 10
58.6000
 20
6.7000
 30
0.0000
 11
58.6000
 21
10.2000
 31
0.0000
  0
LINE
  8
255
 10
43.0000
 20
10.2000
 30
0.0000
 11
43.8000
 21
10.2000
 31
0.0000
  0
LINE
  8
255
 10
43.8000
 20
6.7000
 30
0.0000
 11
43.0000
 21
6.7000
 31
0.0000
  0
LINE
  8
255
 10
43.0000
 20
6.7000
 30
0.0000
 11
43.0000
 21
10.2000
 31
0.0000
  0
LINE
  8
255
 10
62.8500
 20
19.7000
 30
0.0000
 11
62.8500
 21
18.7000
 31
0.0000
  0
LINE
  8
255
 10
62.8500
 20
15.2000
 30
0.0000
 11
62.8500
 21
10.2000
 31
0.0000
  0
LINE
  8
255
 10
62.8500
 20
6.7000
 30
0.0000
 11
62.8500
 21
5.7000
 31
0.0000
  0
LINE
  8
255
 10
62.8500
 20
5.7000
 30
0.0000
 11
76.8500
 21
5.7000
 31
0.0000
  0
LINE
  8
255
 10
76.8500
 20
5.7000
 30
0.0000
 11
76.8500
 21
6.7000
 31
0.0000
  0
LINE
  8
255
 10
76.8500
 20
10.2000
 30
0.0000
 11
76.8500
 21
15.2000
 31
0.0000
  0
LINE
  8
255
 10
76.8500
 20
18.7000
 30
0.0000
 11
76.8500
 21
19.7000
 31
0.0000
  0
LINE
  8
255
 10
76.8500
 20
19.7000
 30
0.0000
 11
62.8500
 21
19.7000
 31
0.0000
  0
LINE
  8
255
 10
62.0500
 20
15.2000
 30
0.0000
 11
62.0500
 21
18.7000
 31
0.0000
  0
LINE
  8
255
 10
62.8500
 20
18.7000
 30
0.0000
 11
62.0500
 21
18.7000
 31
0.0000
  0
LINE
  8
255
 10
62.0500
 20
15.2000
 30
0.0000
 11
62.8500
 21
15.2000
 31
0.0000
  0
LINE
  8
255
 10
77.6500
 20
15.2000
 30
0.0000
 11
77.6500
 21
18.7000
 31
0.0000
  0
LINE
  8
255
 10
76.8500
 20
18.7000
 30
0.0000
 11
77.6500
 21
18.7000
 31
0.0000
  0
LINE
  8
255
 10
76.8500
 20
15.2000
 30
0.0000
 11
77.6500
 21
15.2000
 31
0.0000
  0
LINE
  8
255
 10
76.8500
 20
10.2000
 30
0.0000
 11
77.6500
 21
10.2000
 31
0.0000
  0
LINE
  8
255
 10
76.8500
 20
6.7000
 30
0.0000
 11
77.6500
 21
6.7000
 31
0.0000
  0
LINE
  8
255
 10
77.6500
 20
6.7000
 30
0.0000
 11
77.6500
 21
10.2000
 31
0.0000
  0
LINE
  8
255
 10
62.0500
 20
10.2000
 30
0.0000
 11
62.8500
 21
10.2000
 31
0.0000
  0
LINE
  8
255
 10
62.8500
 20
6.7000
 30
0.0000
 11
62.0500
 21
6.7000
 31
0.0000
  0
LINE
  8
255
 10
62.0500
 20
6.7000
 30
0.0000
 11
62.0500
 21
10.2000
 31
0.0000
  0
LINE
  8
255
 10
72.3750
 20
38.7500
 30
0.0000
 11
72.3750
 21
37.7500
 31
0.0000
  0
LINE
  8
255
 10
72.3750
 20
34.2500
 30
0.0000
 11
72.3750
 21
29.2500
 31
0.0000
  0
LINE
  8
255
 10
72.3750
 20
25.7500
 30
0.0000
 11
72.3750
 21
24.7500
 31
0.0000
  0
LINE
  8
255
 10
72.3750
 20
24.7500
 30
0.0000
 11
86.3750
 21
24.7500
 31
0.0000
  0
LINE
  8
255
 10
86.3750
 20
24.7500
 30
0.0000
 11
86.3750
 21
25.7500
 31
0.0000
  0
LINE
  8
255
 10
86.3750
 20
29.2500
 30
0.0000
 11
86.3750
 21
34.2500
 31
0.0000
  0
LINE
  8
255
 10
86.3750
 20
37.7500
 30
0.0000
 11
86.3750
 21
38.7500
 31
0.0000
  0
LINE
  8
255
 10
86.3750
 20
38.7500
 30
0.0000
 11
72.3750
 21
38.7500
 31
0.0000
  0
LINE
  8
255
 10
71.5750
 20
34.2500
 30
0.0000
 11
71.5750
 21
37.7500
 31
0.0000
  0
LINE
  8
255
 10
72.3750
 20
37.7500
 30
0.0000
 11
71.5750
 21
37.7500
 31
0.0000
  0
LINE
  8
255
 10
71.5750
 20
34.2500
 30
0.0000
 11
72.3750
 21
34.2500
 31
0.0000
  0
LINE
  8
255
 10
87.1750
 20
34.2500
 30
0.0000
 11
87.1750
 21
37.7500
 31
0.0000
  0
LINE
  8
255
 10
86.3750
 20
37.7500
 30
0.0000
 11
87.1750
 21
37.7500
 31
0.0000
  0
LINE
  8
255
 10
86.3750
 20
34.2500
 30
0.0000
 11
87.1750
 21
34.2500
 31
0.0000
  0
LINE
  8
255
 10
86.3750
 20
29.2500
 30
0.0000
 11
87.1750
 21
29.2500
 31
0.0000
  0
LINE
  8
255
 10
86.3750
 20
25.7500
 30
0.0000
 11
87.1750
 21
25.7500
 31
0.0000
  0
LINE
  8
255
 10
87.1750
 20
25.7500
 30
0.0000
 11
87.1750
 21
29.2500
 31
0.0000
  0
LINE
  8
255
 10
71.5750
 20
29.2500
 30
0.0000
 11
72.3750
 21
29.2500
 31
0.0000
  0
LINE
  8
255
 10
72.3750
 20
25.7500
 30
0.0000
 11
71.5750
 21
25.7500
 31
0.0000
  0
LINE
  8
255
 10
71.5750
 20
25.7500
 30
0.0000
 11
71.5750
 21
29.2500
 31
0.0000
  0
LINE
  8
255
 10
81.9000
 20
19.7000
 30
0.0000
 11
81.9000
 21
18.7000
 31
0.0000
  0
LINE
  8
255
 10
81.9000
 20
15.2000
 30
0.0000
 11
81.9000
 21
10.2000
 31
0.0000
  0
LINE
  8
255
 10
81.9000
 20
6.7000
 30
0.0000
 11
81.9000
 21
5.7000
 31
0.0000
  0
LINE
  8
255
 10
81.9000
 20
5.7000
 30
0.0000
 11
95.9000
 21
5.7000
 31
0.0000
  0
LINE
  8
255
 10
95.9000
 20
5.7000
 30
0.0000
 11
95.9000
 21
6.7000
 31
0.0000
  0
LINE
  8
255
 10
95.9000
 20
10.2000
 30
0.0000
 11
95.9000
 21
15.2000
 31
0.0000
  0
LINE
  8
255
 10
95.9000
 20
18.7000
 30
0.0000
 11
95.9000
 21
19.7000
 31
0.0000
  0
LINE
  8
255
 10
95.9000
 20
19.7000
 30
0.0000
 11
81.9000
 21
19.7000
 31
0.0000
  0
LINE
  8
255
 10
81.1000
 20
15.2000
 30
0.0000
 11
81.1000
 21
18.7000
 31
0.0000
  0
LINE
  8
255
 10
81.9000
 20
18.7000
 30
0.0000
 11
81.1000
 21
18.7000
 31
0.0000
  0
LINE
  8
255
 10
81.1000
 20
15.2000
 30
0.0000
 11
81.9000
 21
15.2000
 31
0.0000
  0
LINE
  8
255
 10
96.7000
 20
15.2000
 30
0.0000
 11
96.7000
 21
18.7000
 31
0.0000
  0
LINE
  8
255
 10
95.9000
 20
18.7000
 30
0.0000
 11
96.7000
 21
18.7000
 31
0.0000
  0
LINE
  8
255
 10
95.9000
 20
15.2000
 30
0.0000
 11
96.7000
 21
15.2000
 31
0.0000
  0
LINE
  8
255
 10
95.9000
 20
10.2000
 30
0.0000
 11
96.7000
 21
10.2000
 31
0.0000
  0
LINE
  8
255
 10
95.9000
 20
6.7000
 30
0.0000
 11
96.7000
 21
6.7000
 31
0.0000
  0
LINE
  8
255
 10
96.7000
 20
6.7000
 30
0.0000
 11
96.7000
 21
10.2000
 31
0.0000
  0
LINE
  8
255
 10
81.1000
 20
10.2000
 30
0.0000
 11
81.9000
 21
10.2000
 31
0.0000
  0
LINE
  8
255
 10
81.9000
 20
6.7000
 30
0.0000
 11
81.1000
 21
6.7000
 31
0.0000
  0
LINE
  8
255
 10
81.1000
 20
6.7000
 30
0.0000
 11
81.1000
 21
10.2000
 31
0.0000
  0
LINE
  8
255
 10
91.4250
 20
38.7500
 30
0.0000
 11
91.4250
 21
37.7500
 31
0.0000
  0
LINE
  8
255
 10
91.4250
 20
34.2500
 30
0.0000
 11
91.4250
 21
29.2500
 31
0.0000
  0
LINE
  8
255
 10
91.4250
 20
25.7500
 30
0.0000
 11
91.4250
 21
24.7500
 31
0.0000
  0
LINE
  8
255
 10
91.4250
 20
24.7500
 30
0.0000
 11
105.4250
 21
24.7500
 31
0.0000
  0
LINE
  8
255
 10
105.4250
 20
24.7500
 30
0.0000
 11
105.4250
 21
25.7500
 31
0.0000
  0
LINE
  8
255
 10
105.4250
 20
29.2500
 30
0.0000
 11
105.4250
 21
34.2500
 31
0.0000
  0
LINE
  8
255
 10
105.4250
 20
37.7500
 30
0.0000
 11
105.4250
 21
38.7500
 31
0.0000
  0
LINE
  8
255
 10
105.4250
 20
38.7500
 30
0.0000
 11
91.4250
 21
38.7500
 31
0.0000
  0
LINE
  8
255
 10
90.6250
 20
34.2500
 30
0.0000
 11
90.6250
 21
37.7500
 31
0.0000
  0
LINE
  8
255
 10
91.4250
 20
37.7500
 30
0.0000
 11
90.6250
 21
37.7500
 31
0.0000
  0
LINE
  8
255
 10
90.6250
 20
34.2500
 30
0.0000
 11
91.4250
 21
34.2500
 31
0.0000
  0
LINE
  8
255
 10
106.2250
 20
34.2500
 30
0.0000
 11
106.2250
 21
37.7500
 31
0.0000
  0
LINE
  8
255
 10
105.4250
 20
37.7500
 30
0.0000
 11
106.2250
 21
37.7500
 31
0.0000
  0
LINE
  8
255
 10
105.4250
 20
34.2500
 30
0.0000
 11
106.2250
 21
34.2500
 31
0.0000
  0
LINE
  8
255
 10
105.4250
 20
29.2500
 30
0.0000
 11
106.2250
 21
29.2500
 31
0.0000
  0
LINE
  8
255
 10
105.4250
 20
25.7500
 30
0.0000
 11
106.2250
 21
25.7500
 31
0.0000
  0
LINE
  8
255
 10
106.2250
 20
25.7500
 30
0.0000
 11
106.2250
 21
29.2500
 31
0.0000
  0
LINE
  8
255
 10
90.6250
 20
29.2500
 30
0.0000
 11
91.4250
 21
29.2500
 31
0.0000
  0
LINE
  8
255
 10
91.4250
 20
25.7500
 30
0.0000
 11
90.6250
 21
25.7500
 31
0.0000
  0
LINE
  8
255
 10
90.6250
 20
25.7500
 30
0.0000
 11
90.6250
 21
29.2500
 31
0.0000
  0
LINE
  8
255
 10
100.9500
 20
19.7000
 30
0.0000
 11
100.9500
 21
18.7000
 31
0.0000
  0
LINE
  8
255
 10
100.9500
 20
15.2000
 30
0.0000
 11
100.9500
 21
10.2000
 31
0.0000
  0
LINE
  8
255
 10
100.9500
 20
6.7000
 30
0.0000
 11
100.9500
 21
5.7000
 31
0.0000
  0
LINE
  8
255
 10
100.9500
 20
5.7000
 30
0.0000
 11
114.9500
 21
5.7000
 31
0.0000
  0
LINE
  8
255
 10
114.9500
 20
5.7000
 30
0.0000
 11
114.9500
 21
6.7000
 31
0.0000
  0
LINE
  8
255
 10
114.9500
 20
10.2000
 30
0.0000
 11
114.9500
 21
15.2000
 31
0.0000
  0
LINE
  8
255
 10
114.9500
 20
18.7000
 30
0.0000
 11
114.9500
 21
19.7000
 31
0.0000
  0
LINE
  8
255
 10
114.9500
 20
19.7000
 30
0.0000
 11
100.9500
 21
19.7000
 31
0.0000
  0
LINE
  8
255
 10
100.1500
 20
15.2000
 30
0.0000
 11
100.1500
 21
18.7000
 31
0.0000
  0
LINE
  8
255
 10
100.9500
 20
18.7000
 30
0.0000
 11
100.1500
 21
18.7000
 31
0.0000
  0
LINE
  8
255
 10
100.1500
 20
15.2000
 30
0.0000
 11
100.9500
 21
15.2000
 31
0.0000
  0
LINE
  8
255
 10
115.7500
 20
15.2000
 30
0.0000
 11
115.7500
 21
18.7000
 31
0.0000
  0
LINE
  8
255
 10
114.9500
 20
18.7000
 30
0.0000
 11
115.7500
 21
18.7000
 31
0.0000
  0
LINE
  8
255
 10
114.9500
 20
15.2000
 30
0.0000
 11
115.7500
 21
15.2000
 31
0.0000
  0
LINE
  8
255
 10
114.9500
 20
10.2000
 30
0.0000
 11
115.7500
 21
10.2000
 31
0.0000
  0
LINE
  8
255
 10
114.9500
 20
6.7000
 30
0.0000
 11
115.7500
 21
6.7000
 31
0.0000
  0
LINE
  8
255
 10
115.7500
 20
6.7000
 30
0.0000
 11
115.7500
 21
10.2000
 31
0.0000
  0
LINE
  8
255
 10
100.1500
 20
10.2000
 30
0.0000
 11
100.9500
 21
10.2000
 31
0.0000
  0
LINE
  8
255
 10
100.9500
 20
6.7000
 30
0.0000
 11
100.1500
 21
6.7000
 31
0.0000
  0
LINE
  8
255
 10
100.1500
 20
6.7000
 30
0.0000
 11
100.1500
 21
10.2000
 31
0.0000
  0
LINE
  8
255
 10
110.4750
 20
38.7500
 30
0.0000
 11
110.4750
 21
37.7500
 31
0.0000
  0
LINE
  8
255
 10
110.4750
 20
34.2500
 30
0.0000
 11
110.4750
 21
29.2500
 31
0.0000
  0
LINE
  8
255
 10
110.4750
 20
25.7500
 30
0.0000
 11
110.4750
 21
24.7500
 31
0.0000
  0
LINE
  8
255
 10
110.4750
 20
24.7500
 30
0.0000
 11
124.4750
 21
24.7500
 31
0.0000
  0
LINE
  8
255
 10
124.4750
 20
24.7500
 30
0.0000
 11
124.4750
 21
25.7500
 31
0.0000
  0
LINE
  8
255
 10
124.4750
 20
29.2500
 30
0.0000
 11
124.4750
 21
34.2500
 31
0.0000
  0
LINE
  8
255
 10
124.4750
 20
37.7500
 30
0.0000
 11
124.4750
 21
38.7500
 31
0.0000
  0
LINE
  8
255
 10
124.4750
 20
38.7500
 30
0.0000
 11
110.4750
 21
38.7500
 31
0.0000
  0
LINE
  8
255
 10
109.6750
 20
34.2500
 30
0.0000
 11
109.6750
 21
37.7500
 31
0.0000
  0
LINE
  8
255
 10
110.4750
 20
37.7500
 30
0.0000
 11
109.6750
 21
37.7500
 31
0.0000
  0
LINE
  8
255
 10
109.6750
 20
34.2500
 30
0.0000
 11
110.4750
 21
34.2500
 31
0.0000
  0
LINE
  8
255
 10
125.2750
 20
34.2500
 30
0.0000
 11
125.2750
 21
37.7500
 31
0.0000
  0
LINE
  8
255
 10
124.4750
 20
37.7500
 30
0.0000
 11
125.2750
 21
37.7500
 31
0.0000
  0
LINE
  8
255
 10
124.4750
 20
34.2500
 30
0.0000
 11
125.2750
 21
34.2500
 31
0.0000
  0
LINE
  8
255
 10
124.4750
 20
29.2500
 30
0.0000
 11
125.2750
 21
29.2500
 31
0.0000
  0
LINE
  8
255
 10
124.4750
 20
25.7500
 30
0.0000
 11
125.2750
 21
25.7500
 31
0.0000
  0
LINE
  8
255
 10
125.2750
 20
25.7500
 30
0.0000
 11
125.2750
 21
29.2500
 31
0.0000
  0
LINE
  8
255
 10
109.6750
 20
29.2500
 30
0.0000
 11
110.4750
 21
29.2500
 31
0.0000
  0
LINE
  8
255
 10
110.4750
 20
25.7500
 30
0.0000
 11
109.6750
 21
25.7500
 31
0.0000
  0
LINE
  8
255
 10
109.6750
 20
25.7500
 30
0.0000
 11
109.6750
 21
29.2500
 31
0.0000
  0
LINE
  8
255
 10
120.0000
 20
19.7000
 30
0.0000
 11
120.0000
 21
18.7000
 31
0.0000
  0
LINE
  8
255
 10
120.0000
 20
15.2000
 30
0.0000
 11
120.0000
 21
10.2000
 31
0.0000
  0
LINE
  8
255
 10
120.0000
 20
6.7000
 30
0.0000
 11
120.0000
 21
5.7000
 31
0.0000
  0
LINE
  8
255
 10
120.0000
 20
5.7000
 30
0.0000
 11
134.0000
 21
5.7000
 31
0.0000
  0
LINE
  8
255
 10
134.0000
 20
5.7000
 30
0.0000
 11
134.0000
 21
6.7000
 31
0.0000
  0
LINE
  8
255
 10
134.0000
 20
10.2000
 30
0.0000
 11
134.0000
 21
15.2000
 31
0.0000
  0
LINE
  8
255
 10
134.0000
 20
18.7000
 30
0.0000
 11
134.0000
 21
19.7000
 31
0.0000
  0
LINE
  8
255
 10
134.0000
 20
19.7000
 30
0.0000
 11
120.0000
 21
19.7000
 31
0.0000
  0
LINE
  8
255
 10
119.2000
 20
15.2000
 30
0.0000
 11
119.2000
 21
18.7000
 31
0.0000
  0
LINE
  8
255
 10
120.0000
 20
18.7000
 30
0.0000
 11
119.2000
 21
18.7000
 31
0.0000
  0
LINE
  8
255
 10
119.2000
 20
15.2000
 30
0.0000
 11
120.0000
 21
15.2000
 31
0.0000
  0
LINE
  8
255
 10
134.8000
 20
15.2000
 30
0.0000
 11
134.8000
 21
18.7000
 31
0.0000
  0
LINE
  8
255
 10
134.0000
 20
18.7000
 30
0.0000
 11
134.8000
 21
18.7000
 31
0.0000
  0
LINE
  8
255
 10
134.0000
 20
15.2000
 30
0.0000
 11
134.8000
 21
15.2000
 31
0.0000
  0
LINE
  8
255
 10
134.0000
 20
10.2000
 30
0.0000
 11
134.8000
 21
10.2000
 31
0.0000
  0
LINE
  8
255
 10
134.0000
 20
6.7000
 30
0.0000
 11
134.8000
 21
6.7000
 31
0.0000
  0
LINE
  8
255
 10
134.8000
 20
6.7000
 30
0.0000
 11
134.8000
 21
10.2000
 31
0.0000
  0
LINE
  8
255
 10
119.2000
 20
10.2000
 30
0.0000
 11
120.0000
 21
10.2000
 31
0.0000
  0
LINE
  8
255
 10
120.0000
 20
6.7000
 30
0.0000
 11
119.2000
 21
6.7000
 31
0.0000
  0
LINE
  8
255
 10
119.2000
 20
6.7000
 30
0.0000
 11
119.2000
 21
10.2000
 31
0.0000
  0
LINE
  8
255
 10
139.0500
 20
19.7000
 30
0.0000
 11
139.0500
 21
18.7000
 31
0.0000
  0
LINE
  8
255
 10
139.0500
 20
15.2000
 30
0.0000
 11
139.0500
 21
10.2000
 31
0.0000
  0
LINE
  8
255
 10
139.0500
 20
6.7000
 30
0.0000
 11
139.0500
 21
5.7000
 31
0.0000
  0
LINE
  8
255
 10
139.0500
 20
5.7000
 30
0.0000
 11
153.0500
 21
5.7000
 31
0.0000
  0
LINE
  8
255
 10
153.0500
 20
5.7000
 30
0.0000
 11
153.0500
 21
6.7000
 31
0.0000
  0
LINE
  8
255
 10
153.0500
 20
10.2000
 30
0.0000
 11
153.0500
 21
15.2000
 31
0.0000
  0
LINE
  8
255
 10
153.0500
 20
18.7000
 30
0.0000
 11
153.0500
 21
19.7000
 31
0.0000
  0
LINE
  8
255
 10
153.0500
 20
19.7000
 30
0.0000
 11
139.0500
 21
19.7000
 31
0.0000
  0
LINE
  8
255
 10
138.2500
 20
15.2000
 30
0.0000
 11
138.2500
 21
18.7000
 31
0.0000
  0
LINE
  8
255
 10
139.0500
 20
18.7000
 30
0.0000
 11
138.2500
 21
18.7000
 31
0.0000
  0
LINE
  8
255
 10
138.2500
 20
15.2000
 30
0.0000
 11
139.0500
 21
15.2000
 31
0.0000
  0
LINE
  8
255
 10
153.8500
 20
15.2000
 30
0.0000
 11
153.8500
 21
18.7000
 31
0.0000
  0
LINE
  8
255
 10
153.0500
 20
18.7000
 30
0.0000
 11
153.8500
 21
18.7000
 31
0.0000
  0
LINE
  8
255
 10
153.0500
 20
15.2000
 30
0.0000
 11
153.8500
 21
15.2000
 31
0.0000
  0
LINE
  8
255
 10
153.0500
 20
10.2000
 30
0.0000
 11
153.8500
 21
10.2000
 31
0.0000
  0
LINE
  8
255
 10
153.0500
 20
6.7000
 30
0.0000
 11
153.8500
 21
6.7000
 31
0.0000
  0
LINE
  8
255
 10
153.8500
 20
6.7000
 30
0.0000
 11
153.8500
 21
10.2000
 31
0.0000
  0
LINE
  8
255
 10
138.2500
 20
10.2000
 30
0.0000
 11
139.0500
 21
10.2000
 31
0.0000
  0
LINE
  8
255
 10
139.0500
 20
6.7000
 30
0.0000
 11
138.2500
 21
6.7000
 31
0.0000
  0
LINE
  8
255
 10
138.2500
 20
6.7000
 30
0.0000
 11
138.2500
 21
10.2000
 31
0.0000
  0
LINE
  8
255
 10
148.5750
 20
38.7500
 30
0.0000
 11
148.5750
 21
37.7500
 31
0.0000
  0
LINE
  8
255
 10
148.5750
 20
34.2500
 30
0.0000
 11
148.5750
 21
29.2500
 31
0.0000
  0
LINE
  8
255
 10
148.5750
 20
25.7500
 30
0.0000
 11
148.5750
 21
24.7500
 31
0.0000
  0
LINE
  8
255
 10
148.5750
 20
24.7500
 30
0.0000
 11
162.5750
 21
24.7500
 31
0.0000
  0
LINE
  8
255
 10
162.5750
 20
24.7500
 30
0.0000
 11
162.5750
 21
25.7500
 31
0.0000
  0
LINE
  8
255
 10
162.5750
 20
29.2500
 30
0.0000
 11
162.5750
 21
34.2500
 31
0.0000
  0
LINE
  8
255
 10
162.5750
 20
37.7500
 30
0.0000
 11
162.5750
 21
38.7500
 31
0.0000
  0
LINE
  8
255
 10
162.5750
 20
38.7500
 30
0.0000
 11
148.5750
 21
38.7500
 31
0.0000
  0
LINE
  8
255
 10
147.7750
 20
34.2500
 30
0.0000
 11
147.7750
 21
37.7500
 31
0.0000
  0
LINE
  8
255
 10
148.5750
 20
37.7500
 30
0.0000
 11
147.7750
 21
37.7500
 31
0.0000
  0
LINE
  8
255
 10
147.7750
 20
34.2500
 30
0.0000
 11
148.5750
 21
34.2500
 31
0.0000
  0
LINE
  8
255
 10
163.3750
 20
34.2500
 30
0.0000
 11
163.3750
 21
37.7500
 31
0.0000
  0
LINE
  8
255
 10
162.5750
 20
37.7500
 30
0.0000
 11
163.3750
 21
37.7500
 31
0.0000
  0
LINE
  8
255
 10
162.5750
 20
34.2500
 30
0.0000
 11
163.3750
 21
34.2500
 31
0.0000
  0
LINE
  8
255
 10
162.5750
 20
29.2500
 30
0.0000
 11
163.3750
 21
29.2500
 31
0.0000
  0
LINE
  8
255
 10
162.5750
 20
25.7500
 30
0.0000
 11
163.3750
 21
25.7500
 31
0.0000
  0
LINE
  8
255
 10
163.3750
 20
25.7500
 30
0.0000
 11
163.3750
 21
29.2500
 31
0.0000
  0
LINE
  8
255
 10
147.7750
 20
29.2500
 30
0.0000
 11
148.5750
 21
29.2500
 31
0.0000
  0
LINE
  8
255
 10
148.5750
 20
25.7500
 30
0.0000
 11
147.7750
 21
25.7500
 31
0.0000
  0
LINE
  8
255
 10
147.7750
 20
25.7500
 30
0.0000
 11
147.7750
 21
29.2500
 31
0.0000
  0
LINE
  8
255
 10
158.1000
 20
19.7000
 30
0.0000
 11
158.1000
 21
18.7000
 31
0.0000
  0
LINE
  8
255
 10
158.1000
 20
15.2000
 30
0.0000
 11
158.1000
 21
10.2000
 31
0.0000
  0
LINE
  8
255
 10
158.1000
 20
6.7000
 30
0.0000
 11
158.1000
 21
5.7000
 31
0.0000
  0
LINE
  8
255
 10
158.1000
 20
5.7000
 30
0.0000
 11
172.1000
 21
5.7000
 31
0.0000
  0
LINE
  8
255
 10
172.1000
 20
5.7000
 30
0.0000
 11
172.1000
 21
6.7000
 31
0.0000
  0
LINE
  8
255
 10
172.1000
 20
10.2000
 30
0.0000
 11
172.1000
 21
15.2000
 31
0.0000
  0
LINE
  8
255
 10
172.1000
 20
18.7000
 30
0.0000
 11
172.1000
 21
19.7000
 31
0.0000
  0
LINE
  8
255
 10
172.1000
 20
19.7000
 30
0.0000
 11
158.1000
 21
19.7000
 31
0.0000
  0
LINE
  8
255
 10
157.3000
 20
15.2000
 30
0.0000
 11
157.3000
 21
18.7000
 31
0.0000
  0
LINE
  8
255
 10
158.1000
 20
18.7000
 30
0.0000
 11
157.3000
 21
18.7000
 31
0.0000
  0
LINE
  8
255
 10
157.3000
 20
15.2000
 30
0.0000
 11
158.1000
 21
15.2000
 31
0.0000
  0
LINE
  8
255
 10
172.9000
 20
15.2000
 30
0.0000
 11
172.9000
 21
18.7000
 31
0.0000
  0
LINE
  8
255
 10
172.1000
 20
18.7000
 30
0.0000
 11
172.9000
 21
18.7000
 31
0.0000
  0
LINE
  8
255
 10
172.1000
 20
15.2000
 30
0.0000
 11
172.9000
 21
15.2000
 31
0.0000
  0
LINE
  8
255
 10
172.1000
 20
10.2000
 30
0.0000
 11
172.9000
 21
10.2000
 31
0.0000
  0
LINE
  8
255
 10
172.1000
 20
6.7000
 30
0.0000
 11
172.9000
 21
6.7000
 31
0.0000
  0
LINE
  8
255
 10
172.9000
 20
6.7000
 30
0.0000
 11
172.9000
 21
10.2000
 31
0.0000
  0
LINE
  8
255
 10
157.3000
 20
10.2000
 30
0.0000
 11
158.1000
 21
10.2000
 31
0.0000
  0
LINE
  8
255
 10
158.1000
 20
6.7000
 30
0.0000
 11
157.3000
 21
6.7000
 31
0.0000
  0
LINE
  8
255
 10
157.3000
 20
6.7000
 30
0.0000
 11
157.3000
 21
10.2000
 31
0.0000
  0
LINE
  8
255
 10
167.6250
 20
38.7500
 30
0.0000
 11
167.6250
 21
37.7500
 31
0.0000
  0
LINE
  8
255
 10
167.6250
 20
34.2500
 30
0.0000
 11
167.6250
 21
29.2500
 31
0.0000
  0
LINE
  8
255
 10
167.6250
 20
25.7500
 30
0.0000
 11
167.6250
 21
24.7500
 31
0.0000
  0
LINE
  8
255
 10
167.6250
 20
24.7500
 30
0.0000
 11
181.6250
 21
24.7500
 31
0.0000
  0
LINE
  8
255
 10
181.6250
 20
24.7500
 30
0.0000
 11
181.6250
 21
25.7500
 31
0.0000
  0
LINE
  8
255
 10
181.6250
 20
29.2500
 30
0.0000
 11
181.6250
 21
34.2500
 31
0.0000
  0
LINE
  8
255
 10
181.6250
 20
37.7500
 30
0.0000
 11
181.6250
 21
38.7500
 31
0.0000
  0
LINE
  8
255
 10
181.6250
 20
38.7500
 30
0.0000
 11
167.6250
 21
38.7500
 31
0.0000
  0
LINE
  8
255
 10
166.8250
 20
34.2500
 30
0.0000
 11
166.8250
 21
37.7500
 31
0.0000
  0
LINE
  8
255
 10
167.6250
 20
37.7500
 30
0.0000
 11
166.8250
 21
37.7500
 31
0.0000
  0
LINE
  8
255
 10
166.8250
 20
34.2500
 30
0.0000
 11
167.6250
 21
34.2500
 31
0.0000
  0
LINE
  8
255
 10
182.4250
 20
34.2500
 30
0.0000
 11
182.4250
 21
37.7500
 31
0.0000
  0
LINE
  8
255
 10
181.6250
 20
37.7500
 30
0.0000
 11
182.4250
 21
37.7500
 31
0.0000
  0
LINE
  8
255
 10
181.6250
 20
34.2500
 30
0.0000
 11
182.4250
 21
34.2500
 31
0.0000
  0
LINE
  8
255
 10
181.6250
 20
29.2500
 30
0.0000
 11
182.4250
 21
29.2500
 31
0.0000
  0
LINE
  8
255
 10
181.6250
 20
25.7500
 30
0.0000
 11
182.4250
 21
25.7500
 31
0.0000
  0
LINE
  8
255
 10
182.4250
 20
25.7500
 30
0.0000
 11
182.4250
 21
29.2500
 31
0.0000
  0
LINE
  8
255
 10
166.8250
 20
29.2500
 30
0.0000
 11
167.6250
 21
29.2500
 31
0.0000
  0
LINE
  8
255
 10
167.6250
 20
25.7500
 30
0.0000
 11
166.8250
 21
25.7500
 31
0.0000
  0
LINE
  8
255
 10
166.8250
 20
25.7500
 30
0.0000
 11
166.8250
 21
29.2500
 31
0.0000
  0
LINE
  8
255
 10
177.1500
 20
19.7000
 30
0.0000
 11
177.1500
 21
18.7000
 31
0.0000
  0
LINE
  8
255
 10
177.1500
 20
15.2000
 30
0.0000
 11
177.1500
 21
10.2000
 31
0.0000
  0
LINE
  8
255
 10
177.1500
 20
6.7000
 30
0.0000
 11
177.1500
 21
5.7000
 31
0.0000
  0
LINE
  8
255
 10
177.1500
 20
5.7000
 30
0.0000
 11
191.1500
 21
5.7000
 31
0.0000
  0
LINE
  8
255
 10
191.1500
 20
5.7000
 30
0.0000
 11
191.1500
 21
6.7000
 31
0.0000
  0
LINE
  8
255
 10
191.1500
 20
10.2000
 30
0.0000
 11
191.1500
 21
15.2000
 31
0.0000
  0
LINE
  8
255
 10
191.1500
 20
18.7000
 30
0.0000
 11
191.1500
 21
19.7000
 31
0.0000
  0
LINE
  8
255
 10
191.1500
 20
19.7000
 30
0.0000
 11
177.1500
 21
19.7000
 31
0.0000
  0
LINE
  8
255
 10
176.3500
 20
15.2000
 30
0.0000
 11
176.3500
 21
18.7000
 31
0.0000
  0
LINE
  8
255
 10
177.1500
 20
18.7000
 30
0.0000
 11
176.3500
 21
18.7000
 31
0.0000
  0
LINE
  8
255
 10
176.3500
 20
15.2000
 30
0.0000
 11
177.1500
 21
15.2000
 31
0.0000
  0
LINE
  8
255
 10
191.9500
 20
15.2000
 30
0.0000
 11
191.9500
 21
18.7000
 31
0.0000
  0
LINE
  8
255
 10
191.1500
 20
18.7000
 30
0.0000
 11
191.9500
 21
18.7000
 31
0.0000
  0
LINE
  8
255
 10
191.1500
 20
15.2000
 30
0.0000
 11
191.9500
 21
15.2000
 31
0.0000
  0
LINE
  8
255
 10
191.1500
 20
10.2000
 30
0.0000
 11
191.9500
 21
10.2000
 31
0.0000
  0
LINE
  8
255
 10
191.1500
 20
6.7000
 30
0.0000
 11
191.9500
 21
6.7000
 31
0.0000
  0
LINE
  8
255
 10
191.9500
 20
6.7000
 30
0.0000
 11
191.9500
 21
10.2000
 31
0.0000
  0
LINE
  8
255
 10
176.3500
 20
10.2000
 30
0.0000
 11
177.1500
 21
10.2000
 31
0.0000
  0
LINE
  8
255
 10
177.1500
 20
6.7000
 30
0.0000
 11
176.3500
 21
6.7000
 31
0.0000
  0
LINE
  8
255
 10
176.3500
 20
6.7000
 30
0.0000
 11
176.3500
 21
10.2000
 31
0.0000
  0
LINE
  8
255
 10
196.2000
 20
19.7000
 30
0.0000
 11
196.2000
 21
18.7000
 31
0.0000
  0
LINE
  8
255
 10
196.2000
 20
15.2000
 30
0.0000
 11
196.2000
 21
10.2000
 31
0.0000
  0
LINE
  8
255
 10
196.2000
 20
6.7000
 30
0.0000
 11
196.2000
 21
5.7000
 31
0.0000
  0
LINE
  8
255
 10
196.2000
 20
5.7000
 30
0.0000
 11
210.2000
 21
5.7000
 31
0.0000
  0
LINE
  8
255
 10
210.2000
 20
5.7000
 30
0.0000
 11
210.2000
 21
6.7000
 31
0.0000
  0
LINE
  8
255
 10
210.2000
 20
10.2000
 30
0.0000
 11
210.2000
 21
15.2000
 31
0.0000
  0
LINE
  8
255
 10
210.2000
 20
18.7000
 30
0.0000
 11
210.2000
 21
19.7000
 31
0.0000
  0
LINE
  8
255
 10
210.2000
 20
19.7000
 30
0.0000
 11
196.2000
 21
19.7000
 31
0.0000
  0
LINE
  8
255
 10
195.4000
 20
15.2000
 30
0.0000
 11
195.4000
 21
18.7000
 31
0.0000
  0
LINE
  8
255
 10
196.2000
 20
18.7000
 30
0.0000
 11
195.4000
 21
18.7000
 31
0.0000
  0
LINE
  8
255
 10
195.4000
 20
15.2000
 30
0.0000
 11
196.2000
 21
15.2000
 31
0.0000
  0
LINE
  8
255
 10
211.0000
 20
15.2000
 30
0.0000
 11
211.0000
 21
18.7000
 31
0.0000
  0
LINE
  8
255
 10
210.2000
 20
18.7000
 30
0.0000
 11
211.0000
 21
18.7000
 31
0.0000
  0
LINE
  8
255
 10
210.2000
 20
15.2000
 30
0.0000
 11
211.0000
 21
15.2000
 31
0.0000
  0
LINE
  8
255
 10
210.2000
 20
10.2000
 30
0.0000
 11
211.0000
 21
10.2000
 31
0.0000
  0
LINE
  8
255
 10
210.2000
 20
6.7000
 30
0.0000
 11
211.0000
 21
6.7000
 31
0.0000
  0
LINE
  8
255
 10
211.0000
 20
6.7000
 30
0.0000
 11
211.0000
 21
10.2000
 31
0.0000
  0
LINE
  8
255
 10
195.4000
 20
10.2000
 30
0.0000
 11
196.2000
 21
10.2000
 31
0.0000
  0
LINE
  8
255
 10
196.2000
 20
6.7000
 30
0.0000
 11
195.4000
 21
6.7000
 31
0.0000
  0
LINE
  8
255
 10
195.4000
 20
6.7000
 30
0.0000
 11
195.4000
 21
10.2000
 31
0.0000
  0
LINE
  8
255
 10
205.7250
 20
38.7500
 30
0.0000
 11
205.7250
 21
37.7500
 31
0.0000
  0
LINE
  8
255
 10
205.7250
 20
34.2500
 30
0.0000
 11
205.7250
 21
29.2500
 31
0.0000
  0
LINE
  8
255
 10
205.7250
 20
25.7500
 30
0.0000
 11
205.7250
 21
24.7500
 31
0.0000
  0
LINE
  8
255
 10
205.7250
 20
24.7500
 30
0.0000
 11
219.7250
 21
24.7500
 31
0.0000
  0
LINE
  8
255
 10
219.7250
 20
24.7500
 30
0.0000
 11
219.7250
 21
25.7500
 31
0.0000
  0
LINE
  8
255
 10
219.7250
 20
29.2500
 30
0.0000
 11
219.7250
 21
34.2500
 31
0.0000
  0
LINE
  8
255
 10
219.7250
 20
37.7500
 30
0.0000
 11
219.7250
 21
38.7500
 31
0.0000
  0
LINE
  8
255
 10
219.7250
 20
38.7500
 30
0.0000
 11
205.7250
 21
38.7500
 31
0.0000
  0
LINE
  8
255
 10
204.9250
 20
34.2500
 30
0.0000
 11
204.9250
 21
37.7500
 31
0.0000
  0
LINE
  8
255
 10
205.7250
 20
37.7500
 30
0.0000
 11
204.9250
 21
37.7500
 31
0.0000
  0
LINE
  8
255
 10
204.9250
 20
34.2500
 30
0.0000
 11
205.7250
 21
34.2500
 31
0.0000
  0
LINE
  8
255
 10
220.5250
 20
34.2500
 30
0.0000
 11
220.5250
 21
37.7500
 31
0.0000
  0
LINE
  8
255
 10
219.7250
 20
37.7500
 30
0.0000
 11
220.5250
 21
37.7500
 31
0.0000
  0
LINE
  8
255
 10
219.7250
 20
34.2500
 30
0.0000
 11
220.5250
 21
34.2500
 31
0.0000
  0
LINE
  8
255
 10
219.7250
 20
29.2500
 30
0.0000
 11
220.5250
 21
29.2500
 31
0.0000
  0
LINE
  8
255
 10
219.7250
 20
25.7500
 30
0.0000
 11
220.5250
 21
25.7500
 31
0.0000
  0
LINE
  8
255
 10
220.5250
 20
25.7500
 30
0.0000
 11
220.5250
 21
29.2500
 31
0.0000
  0
LINE
  8
255
 10
204.9250
 20
29.2500
 30
0.0000
 11
205.7250
 21
29.2500
 31
0.0000
  0
LINE
  8
255
 10
205.7250
 20
25.7500
 30
0.0000
 11
204.9250
 21
25.7500
 31
0.0000
  0
LINE
  8
255
 10
204.9250
 20
25.7500
 30
0.0000
 11
204.9250
 21
29.2500
 31
0.0000
  0
LINE
  8
255
 10
215.2500
 20
19.7000
 30
0.0000
 11
215.2500
 21
18.7000
 31
0.0000
  0
LINE
  8
255
 10
215.2500
 20
15.2000
 30
0.0000
 11
215.2500
 21
10.2000
 31
0.0000
  0
LINE
  8
255
 10
215.2500
 20
6.7000
 30
0.0000
 11
215.2500
 21
5.7000
 31
0.0000
  0
LINE
  8
255
 10
215.2500
 20
5.7000
 30
0.0000
 11
229.2500
 21
5.7000
 31
0.0000
  0
LINE
  8
255
 10
229.2500
 20
5.7000
 30
0.0000
 11
229.2500
 21
6.7000
 31
0.0000
  0
LINE
  8
255
 10
229.2500
 20
10.2000
 30
0.0000
 11
229.2500
 21
15.2000
 31
0.0000
  0
LINE
  8
255
 10
229.2500
 20
18.7000
 30
0.0000
 11
229.2500
 21
19.7000
 31
0.0000
  0
LINE
  8
255
 10
229.2500
 20
19.7000
 30
0.0000
 11
215.2500
 21
19.7000
 31
0.0000
  0
LINE
  8
255
 10
214.4500
 20
15.2000
 30
0.0000
 11
214.4500
 21
18.7000
 31
0.0000
  0
LINE
  8
255
 10
215.2500
 20
18.7000
 30
0.0000
 11
214.4500
 21
18.7000
 31
0.0000
  0
LINE
  8
255
 10
214.4500
 20
15.2000
 30
0.0000
 11
215.2500
 21
15.2000
 31
0.0000
  0
LINE
  8
255
 10
230.0500
 20
15.2000
 30
0.0000
 11
230.0500
 21
18.7000
 31
0.0000
  0
LINE
  8
255
 10
229.2500
 20
18.7000
 30
0.0000
 11
230.0500
 21
18.7000
 31
0.0000
  0
LINE
  8
255
 10
229.2500
 20
15.2000
 30
0.0000
 11
230.0500
 21
15.2000
 31
0.0000
  0
LINE
  8
255
 10
229.2500
 20
10.2000
 30
0.0000
 11
230.0500
 21
10.2000
 31
0.0000
  0
LINE
  8
255
 10
229.2500
 20
6.7000
 30
0.0000
 11
230.0500
 21
6.7000
 31
0.0000
  0
LINE
  8
255
 10
230.0500
 20
6.7000
 30
0.0000
 11
230.0500
 21
10.2000
 31
0.0000
  0
LINE
  8
255
 10
214.4500
 20
10.2000
 30
0.0000
 11
215.2500
 21
10.2000
 31
0.0000
  0
LINE
  8
255
 10
215.2500
 20
6.7000
 30
0.0000
 11
214.4500
 21
6.7000
 31
0.0000
  0
LINE
  8
255
 10
214.4500
 20
6.7000
 30
0.0000
 11
214.4500
 21
10.2000
 31
0.0000
  0
LINE
  8
255
 10
224.7750
 20
38.7500
 30
0.0000
 11
224.7750
 21
37.7500
 31
0.0000
  0
LINE
  8
255
 10
224.7750
 20
34.2500
 30
0.0000
 11
224.7750
 21
29.2500
 31
0.0000
  0
LINE
  8
255
 10
224.7750
 20
25.7500
 30
0.0000
 11
224.7750
 21
24.7500
 31
0.0000
  0
LINE
  8
255
 10
224.7750
 20
24.7500
 30
0.0000
 11
238.7750
 21
24.7500
 31
0.0000
  0
LINE
  8
255
 10
238.7750
 20
24.7500
 30
0.0000
 11
238.7750
 21
25.7500
 31
0.0000
  0
LINE
  8
255
 10
238.7750
 20
29.2500
 30
0.0000
 11
238.7750
 21
34.2500
 31
0.0000
  0
LINE
  8
255
 10
238.7750
 20
37.7500
 30
0.0000
 11
238.7750
 21
38.7500
 31
0.0000
  0
LINE
  8
255
 10
238.7750
 20
38.7500
 30
0.0000
 11
224.7750
 21
38.7500
 31
0.0000
  0
LINE
  8
255
 10
223.9750
 20
34.2500
 30
0.0000
 11
223.9750
 21
37.7500
 31
0.0000
  0
LINE
  8
255
 10
224.7750
 20
37.7500
 30
0.0000
 11
223.9750
 21
37.7500
 31
0.0000
  0
LINE
  8
255
 10
223.9750
 20
34.2500
 30
0.0000
 11
224.7750
 21
34.2500
 31
0.0000
  0
LINE
  8
255
 10
239.5750
 20
34.2500
 30
0.0000
 11
239.5750
 21
37.7500
 31
0.0000
  0
LINE
  8
255
 10
238.7750
 20
37.7500
 30
0.0000
 11
239.5750
 21
37.7500
 31
0.0000
  0
LINE
  8
255
 10
238.7750
 20
34.2500
 30
0.0000
 11
239.5750
 21
34.2500
 31
0.0000
  0
LINE
  8
255
 10
238.7750
 20
29.2500
 30
0.0000
 11
239.5750
 21
29.2500
 31
0.0000
  0
LINE
  8
255
 10
238.7750
 20
25.7500
 30
0.0000
 11
239.5750
 21
25.7500
 31
0.0000
  0
LINE
  8
255
 10
239.5750
 20
25.7500
 30
0.0000
 11
239.5750
 21
29.2500
 31
0.0000
  0
LINE
  8
255
 10
223.9750
 20
29.2500
 30
0.0000
 11
224.7750
 21
29.2500
 31
0.0000
  0
LINE
  8
255
 10
224.7750
 20
25.7500
 30
0.0000
 11
223.9750
 21
25.7500
 31
0.0000
  0
LINE
  8
255
 10
223.9750
 20
25.7500
 30
0.0000
 11
223.9750
 21
29.2500
 31
0.0000
  0
LINE
  8
255
 10
234.3000
 20
19.7000
 30
0.0000
 11
234.3000
 21
18.7000
 31
0.0000
  0
LINE
  8
255
 10
234.3000
 20
15.2000
 30
0.0000
 11
234.3000
 21
10.2000
 31
0.0000
  0
LINE
  8
255
 10
234.3000
 20
6.7000
 30
0.0000
 11
234.3000
 21
5.7000
 31
0.0000
  0
LINE
  8
255
 10
234.3000
 20
5.7000
 30
0.0000
 11
248.3000
 21
5.7000
 31
0.0000
  0
LINE
  8
255
 10
248.3000
 20
5.7000
 30
0.0000
 11
248.3000
 21
6.7000
 31
0.0000
  0
LINE
  8
255
 10
248.3000
 20
10.2000
 30
0.0000
 11
248.3000
 21
15.2000
 31
0.0000
  0
LINE
  8
255
 10
248.3000
 20
18.7000
 30
0.0000
 11
248.3000
 21
19.7000
 31
0.0000
  0
LINE
  8
255
 10
248.3000
 20
19.7000
 30
0.0000
 11
234.3000
 21
19.7000
 31
0.0000
  0
LINE
  8
255
 10
233.5000
 20
15.2000
 30
0.0000
 11
233.5000
 21
18.7000
 31
0.0000
  0
LINE
  8
255
 10
234.3000
 20
18.7000
 30
0.0000
 11
233.5000
 21
18.7000
 31
0.0000
  0
LINE
  8
255
 10
233.5000
 20
15.2000
 30
0.0000
 11
234.3000
 21
15.2000
 31
0.0000
  0
LINE
  8
255
 10
249.1000
 20
15.2000
 30
0.0000
 11
249.1000
 21
18.7000
 31
0.0000
  0
LINE
  8
255
 10
248.3000
 20
18.7000
 30
0.0000
 11
249.1000
 21
18.7000
 31
0.0000
  0
LINE
  8
255
 10
248.3000
 20
15.2000
 30
0.0000
 11
249.1000
 21
15.2000
 31
0.0000
  0
LINE
  8
255
 10
248.3000
 20
10.2000
 30
0.0000
 11
249.1000
 21
10.2000
 31
0.0000
  0
LINE
  8
255
 10
248.3000
 20
6.7000
 30
0.0000
 11
249.1000
 21
6.7000
 31
0.0000
  0
LINE
  8
255
 10
249.1000
 20
6.7000
 30
0.0000
 11
249.1000
 21
10.2000
 31
0.0000
  0
LINE
  8
255
 10
233.5000
 20
10.2000
 30
0.0000
 11
234.3000
 21
10.2000
 31
0.0000
  0
LINE
  8
255
 10
234.3000
 20
6.7000
 30
0.0000
 11
233.5000
 21
6.7000
 31
0.0000
  0
LINE
  8
255
 10
233.5000
 20
6.7000
 30
0.0000
 11
233.5000
 21
10.2000
 31
0.0000
  0
LINE
  8
255
 10
243.8250
 20
38.7500
 30
0.0000
 11
243.8250
 21
37.7500
 31
0.0000
  0
LINE
  8
255
 10
243.8250
 20
34.2500
 30
0.0000
 11
243.8250
 21
29.2500
 31
0.0000
  0
LINE
  8
255
 10
243.8250
 20
25.7500
 30
0.0000
 11
243.8250
 21
24.7500
 31
0.0000
  0
LINE
  8
255
 10
243.8250
 20
24.7500
 30
0.0000
 11
257.8250
 21
24.7500
 31
0.0000
  0
LINE
  8
255
 10
257.8250
 20
24.7500
 30
0.0000
 11
257.8250
 21
25.7500
 31
0.0000
  0
LINE
  8
255
 10
257.8250
 20
29.2500
 30
0.0000
 11
257.8250
 21
34.2500
 31
0.0000
  0
LINE
  8
255
 10
257.8250
 20
37.7500
 30
0.0000
 11
257.8250
 21
38.7500
 31
0.0000
  0
LINE
  8
255
 10
257.8250
 20
38.7500
 30
0.0000
 11
243.8250
 21
38.7500
 31
0.0000
  0
LINE
  8
255
 10
243.0250
 20
34.2500
 30
0.0000
 11
243.0250
 21
37.7500
 31
0.0000
  0
LINE
  8
255
 10
243.8250
 20
37.7500
 30
0.0000
 11
243.0250
 21
37.7500
 31
0.0000
  0
LINE
  8
255
 10
243.0250
 20
34.2500
 30
0.0000
 11
243.8250
 21
34.2500
 31
0.0000
  0
LINE
  8
255
 10
258.6250
 20
34.2500
 30
0.0000
 11
258.6250
 21
37.7500
 31
0.0000
  0
LINE
  8
255
 10
257.8250
 20
37.7500
 30
0.0000
 11
258.6250
 21
37.7500
 31
0.0000
  0
LINE
  8
255
 10
257.8250
 20
34.2500
 30
0.0000
 11
258.6250
 21
34.2500
 31
0.0000
  0
LINE
  8
255
 10
257.8250
 20
29.2500
 30
0.0000
 11
258.6250
 21
29.2500
 31
0.0000
  0
LINE
  8
255
 10
257.8250
 20
25.7500
 30
0.0000
 11
258.6250
 21
25.7500
 31
0.0000
  0
LINE
  8
255
 10
258.6250
 20
25.7500
 30
0.0000
 11
258.6250
 21
29.2500
 31
0.0000
  0
LINE
  8
255
 10
243.0250
 20
29.2500
 30
0.0000
 11
243.8250
 21
29.2500
 31
0.0000
  0
LINE
  8
255
 10
243.8250
 20
25.7500
 30
0.0000
 11
243.0250
 21
25.7500
 31
0.0000
  0
LINE
  8
255
 10
243.0250
 20
25.7500
 30
0.0000
 11
243.0250
 21
29.2500
 31
0.0000
  0
LINE
  8
255
 10
253.3500
 20
19.7000
 30
0.0000
 11
253.3500
 21
18.7000
 31
0.0000
  0
LINE
  8
255
 10
253.3500
 20
15.2000
 30
0.0000
 11
253.3500
 21
10.2000
 31
0.0000
  0
LINE
  8
255
 10
253.3500
 20
6.7000
 30
0.0000
 11
253.3500
 21
5.7000
 31
0.0000
  0
LINE
  8
255
 10
253.3500
 20
5.7000
 30
0.0000
 11
267.3500
 21
5.7000
 31
0.0000
  0
LINE
  8
255
 10
267.3500
 20
5.7000
 30
0.0000
 11
267.3500
 21
6.7000
 31
0.0000
  0
LINE
  8
255
 10
267.3500
 20
10.2000
 30
0.0000
 11
267.3500
 21
15.2000
 31
0.0000
  0
LINE
  8
255
 10
267.3500
 20
18.7000
 30
0.0000
 11
267.3500
 21
19.7000
 31
0.0000
  0
LINE
  8
255
 10
267.3500
 20
19.7000
 30
0.0000
 11
253.3500
 21
19.7000
 31
0.0000
  0
LINE
  8
255
 10
252.5500
 20
15.2000
 30
0.0000
 11
252.5500
 21
18.7000
 31
0.0000
  0
LINE
  8
255
 10
253.3500
 20
18.7000
 30
0.0000
 11
252.5500
 21
18.7000
 31
0.0000
  0
LINE
  8
255
 10
252.5500
 20
15.2000
 30
0.0000
 11
253.3500
 21
15.2000
 31
0.0000
  0
LINE
  8
255
 10
268.1500
 20
15.2000
 30
0.0000
 11
268.1500
 21
18.7000
 31
0.0000
  0
LINE
  8
255
 10
267.3500
 20
18.7000
 30
0.0000
 11
268.1500
 21
18.7000
 31
0.0000
  0
LINE
  8
255
 10
267.3500
 20
15.2000
 30
0.0000
 11
268.1500
 21
15.2000
 31
0.0000
  0
LINE
  8
255
 10
267.3500
 20
10.2000
 30
0.0000
 11
268.1500
 21
10.2000
 31
0.0000
  0
LINE
  8
255
 10
267.3500
 20
6.7000
 30
0.0000
 11
268.1500
 21
6.7000
 31
0.0000
  0
LINE
  8
255
 10
268.1500
 20
6.7000
 30
0.0000
 11
268.1500
 21
10.2000
 31
0.0000
  0
LINE
  8
255
 10
252.5500
 20
10.2000
 30
0.0000
 11
253.3500
 21
10.2000
 31
0.0000
  0
LINE
  8
255
 10
253.3500
 20
6.7000
 30
0.0000
 11
252.5500
 21
6.7000
 31
0.0000
  0
LINE
  8
255
 10
252.5500
 20
6.7000
 30
0.0000
 11
252.5500
 21
10.2000
 31
0.0000
  0
LINE
  8
255
 10
272.4000
 20
19.7000
 30
0.0000
 11
272.4000
 21
18.7000
 31
0.0000
  0
LINE
  8
255
 10
272.4000
 20
15.2000
 30
0.0000
 11
272.4000
 21
10.2000
 31
0.0000
  0
LINE
  8
255
 10
272.4000
 20
6.7000
 30
0.0000
 11
272.4000
 21
5.7000
 31
0.0000
  0
LINE
  8
255
 10
272.4000
 20
5.7000
 30
0.0000
 11
286.4000
 21
5.7000
 31
0.0000
  0
LINE
  8
255
 10
286.4000
 20
5.7000
 30
0.0000
 11
286.4000
 21
6.7000
 31
0.0000
  0
LINE
  8
255
 10
286.4000
 20
10.2000
 30
0.0000
 11
286.4000
 21
15.2000
 31
0.0000
  0
LINE
  8
255
 10
286.4000
 20
18.7000
 30
0.0000
 11
286.4000
 21
19.7000
 31
0.0000
  0
LINE
  8
255
 10
286.4000
 20
19.7000
 30
0.0000
 11
272.4000
 21
19.7000
 31
0.0000
  0
LINE
  8
255
 10
271.6000
 20
15.2000
 30
0.0000
 11
271.6000
 21
18.7000
 31
0.0000
  0
LINE
  8
255
 10
272.4000
 20
18.7000
 30
0.0000
 11
271.6000
 21
18.7000
 31
0.0000
  0
LINE
  8
255
 10
271.6000
 20
15.2000
 30
0.0000
 11
272.4000
 21
15.2000
 31
0.0000
  0
LINE
  8
255
 10
287.2000
 20
15.2000
 30
0.0000
 11
287.2000
 21
18.7000
 31
0.0000
  0
LINE
  8
255
 10
286.4000
 20
18.7000
 30
0.0000
 11
287.2000
 21
18.7000
 31
0.0000
  0
LINE
  8
255
 10
286.4000
 20
15.2000
 30
0.0000
 11
287.2000
 21
15.2000
 31
0.0000
  0
LINE
  8
255
 10
286.4000
 20
10.2000
 30
0.0000
 11
287.2000
 21
10.2000
 31
0.0000
  0
LINE
  8
255
 10
286.4000
 20
6.7000
 30
0.0000
 11
287.2000
 21
6.7000
 31
0.0000
  0
LINE
  8
255
 10
287.2000
 20
6.7000
 30
0.0000
 11
287.2000
 21
10.2000
 31
0.0000
  0
LINE
  8
255
 10
271.6000
 20
10.2000
 30
0.0000
 11
272.4000
 21
10.2000
 31
0.0000
  0
LINE
  8
255
 10
272.4000
 20
6.7000
 30
0.0000
 11
271.6000
 21
6.7000
 31
0.0000
  0
LINE
  8
255
 10
271.6000
 20
6.7000
 30
0.0000
 11
271.6000
 21
10.2000
 31
0.0000
  0
LINE
  8
255
 10
281.9250
 20
38.7500
 30
0.0000
 11
281.9250
 21
37.7500
 31
0.0000
  0
LINE
  8
255
 10
281.9250
 20
34.2500
 30
0.0000
 11
281.9250
 21
29.2500
 31
0.0000
  0
LINE
  8
255
 10
281.9250
 20
25.7500
 30
0.0000
 11
281.9250
 21
24.7500
 31
0.0000
  0
LINE
  8
255
 10
281.9250
 20
24.7500
 30
0.0000
 11
295.9250
 21
24.7500
 31
0.0000
  0
LINE
  8
255
 10
295.9250
 20
24.7500
 30
0.0000
 11
295.9250
 21
25.7500
 31
0.0000
  0
LINE
  8
255
 10
295.9250
 20
29.2500
 30
0.0000
 11
295.9250
 21
34.2500
 31
0.0000
  0
LINE
  8
255
 10
295.9250
 20
37.7500
 30
0.0000
 11
295.9250
 21
38.7500
 31
0.0000
  0
LINE
  8
255
 10
295.9250
 20
38.7500
 30
0.0000
 11
281.9250
 21
38.7500
 31
0.0000
  0
LINE
  8
255
 10
281.1250
 20
34.2500
 30
0.0000
 11
281.1250
 21
37.7500
 31
0.0000
  0
LINE
  8
255
 10
281.9250
 20
37.7500
 30
0.0000
 11
281.1250
 21
37.7500
 31
0.0000
  0
LINE
  8
255
 10
281.1250
 20
34.2500
 30
0.0000
 11
281.9250
 21
34.2500
 31
0.0000
  0
LINE
  8
255
 10
296.7250
 20
34.2500
 30
0.0000
 11
296.7250
 21
37.7500
 31
0.0000
  0
LINE
  8
255
 10
295.9250
 20
37.7500
 30
0.0000
 11
296.7250
 21
37.7500
 31
0.0000
  0
LINE
  8
255
 10
295.9250
 20
34.2500
 30
0.0000
 11
296.7250
 21
34.2500
 31
0.0000
  0
LINE
  8
255
 10
295.9250
 20
29.2500
 30
0.0000
 11
296.7250
 21
29.2500
 31
0.0000
  0
LINE
  8
255
 10
295.9250
 20
25.7500
 30
0.0000
 11
296.7250
 21
25.7500
 31
0.0000
  0
LINE
  8
255
 10
296.7250
 20
25.7500
 30
0.0000
 11
296.7250
 21
29.2500
 31
0.0000
  0
LINE
  8
255
 10
281.1250
 20
29.2500
 30
0.0000
 11
281.9250
 21
29.2500
 31
0.0000
  0
LINE
  8
255
 10
281.9250
 20
25.7500
 30
0.0000
 11
281.1250
 21
25.7500
 31
0.0000
  0
LINE
  8
255
 10
281.1250
 20
25.7500
 30
0.0000
 11
281.1250
 21
29.2500
 31
0.0000
  0
LINE
  8
255
 10
291.4500
 20
19.7000
 30
0.0000
 11
291.4500
 21
18.7000
 31
0.0000
  0
LINE
  8
255
 10
291.4500
 20
15.2000
 30
0.0000
 11
291.4500
 21
10.2000
 31
0.0000
  0
LINE
  8
255
 10
291.4500
 20
6.7000
 30
0.0000
 11
291.4500
 21
5.7000
 31
0.0000
  0
LINE
  8
255
 10
291.4500
 20
5.7000
 30
0.0000
 11
305.4500
 21
5.7000
 31
0.0000
  0
LINE
  8
255
 10
305.4500
 20
5.7000
 30
0.0000
 11
305.4500
 21
6.7000
 31
0.0000
  0
LINE
  8
255
 10
305.4500
 20
10.2000
 30
0.0000
 11
305.4500
 21
15.2000
 31
0.0000
  0
LINE
  8
255
 10
305.4500
 20
18.7000
 30
0.0000
 11
305.4500
 21
19.7000
 31
0.0000
  0
LINE
  8
255
 10
305.4500
 20
19.7000
 30
0.0000
 11
291.4500
 21
19.7000
 31
0.0000
  0
LINE
  8
255
 10
290.6500
 20
15.2000
 30
0.0000
 11
290.6500
 21
18.7000
 31
0.0000
  0
LINE
  8
255
 10
291.4500
 20
18.7000
 30
0.0000
 11
290.6500
 21
18.7000
 31
0.0000
  0
LINE
  8
255
 10
290.6500
 20
15.2000
 30
0.0000
 11
291.4500
 21
15.2000
 31
0.0000
  0
LINE
  8
255
 10
306.2500
 20
15.2000
 30
0.0000
 11
306.2500
 21
18.7000
 31
0.0000
  0
LINE
  8
255
 10
305.4500
 20
18.7000
 30
0.0000
 11
306.2500
 21
18.7000
 31
0.0000
  0
LINE
  8
255
 10
305.4500
 20
15.2000
 30
0.0000
 11
306.2500
 21
15.2000
 31
0.0000
  0
LINE
  8
255
 10
305.4500
 20
10.2000
 30
0.0000
 11
306.2500
 21
10.2000
 31
0.0000
  0
LINE
  8
255
 10
305.4500
 20
6.7000
 30
0.0000
 11
306.2500
 21
6.7000
 31
0.0000
  0
LINE
  8
255
 10
306.2500
 20
6.7000
 30
0.0000
 11
306.2500
 21
10.2000
 31
0.0000
  0
LINE
  8
255
 10
290.6500
 20
10.2000
 30
0.0000
 11
291.4500
 21
10.2000
 31
0.0000
  0
LINE
  8
255
 10
291.4500
 20
6.7000
 30
0.0000
 11
290.6500
 21
6.7000
 31
0.0000
  0
LINE
  8
255
 10
290.6500
 20
6.7000
 30
0.0000
 11
290.6500
 21
10.2000
 31
0.0000
  0
LINE
  8
255
 10
300.9750
 20
38.7500
 30
0.0000
 11
300.9750
 21
37.7500
 31
0.0000
  0
LINE
  8
255
 10
300.9750
 20
34.2500
 30
0.0000
 11
300.9750
 21
29.2500
 31
0.0000
  0
LINE
  8
255
 10
300.9750
 20
25.7500
 30
0.0000
 11
300.9750
 21
24.7500
 31
0.0000
  0
LINE
  8
255
 10
300.9750
 20
24.7500
 30
0.0000
 11
314.9750
 21
24.7500
 31
0.0000
  0
LINE
  8
255
 10
314.9750
 20
24.7500
 30
0.0000
 11
314.9750
 21
25.7500
 31
0.0000
  0
LINE
  8
255
 10
314.9750
 20
29.2500
 30
0.0000
 11
314.9750
 21
34.2500
 31
0.0000
  0
LINE
  8
255
 10
314.9750
 20
37.7500
 30
0.0000
 11
314.9750
 21
38.7500
 31
0.0000
  0
LINE
  8
255
 10
314.9750
 20
38.7500
 30
0.0000
 11
300.9750
 21
38.7500
 31
0.0000
  0
LINE
  8
255
 10
300.1750
 20
34.2500
 30
0.0000
 11
300.1750
 21
37.7500
 31
0.0000
  0
LINE
  8
255
 10
300.9750
 20
37.7500
 30
0.0000
 11
300.1750
 21
37.7500
 31
0.0000
  0
LINE
  8
255
 10
300.1750
 20
34.2500
 30
0.0000
 11
300.9750
 21
34.2500
 31
0.0000
  0
LINE
  8
255
 10
315.7750
 20
34.2500
 30
0.0000
 11
315.7750
 21
37.7500
 31
0.0000
  0
LINE
  8
255
 10
314.9750
 20
37.7500
 30
0.0000
 11
315.7750
 21
37.7500
 31
0.0000
  0
LINE
  8
255
 10
314.9750
 20
34.2500
 30
0.0000
 11
315.7750
 21
34.2500
 31
0.0000
  0
LINE
  8
255
 10
314.9750
 20
29.2500
 30
0.0000
 11
315.7750
 21
29.2500
 31
0.0000
  0
LINE
  8
255
 10
314.9750
 20
25.7500
 30
0.0000
 11
315.7750
 21
25.7500
 31
0.0000
  0
LINE
  8
255
 10
315.7750
 20
25.7500
 30
0.0000
 11
315.7750
 21
29.2500
 31
0.0000
  0
LINE
  8
255
 10
300.1750
 20
29.2500
 30
0.0000
 11
300.9750
 21
29.2500
 31
0.0000
  0
LINE
  8
255
 10
300.9750
 20
25.7500
 30
0.0000
 11
300.1750
 21
25.7500
 31
0.0000
  0
LINE
  8
255
 10
300.1750
 20
25.7500
 30
0.0000
 11
300.1750
 21
29.2500
 31
0.0000
  0
LINE
  8
255
 10
310.5000
 20
19.7000
 30
0.0000
 11
310.5000
 21
18.7000
 31
0.0000
  0
LINE
  8
255
 10
310.5000
 20
15.2000
 30
0.0000
 11
310.5000
 21
10.2000
 31
0.0000
  0
LINE
  8
255
 10
310.5000
 20
6.7000
 30
0.0000
 11
310.5000
 21
5.7000
 31
0.0000
  0
LINE
  8
255
 10
310.5000
 20
5.7000
 30
0.0000
 11
324.5000
 21
5.7000
 31
0.0000
  0
LINE
  8
255
 10
324.5000
 20
5.7000
 30
0.0000
 11
324.5000
 21
6.7000
 31
0.0000
  0
LINE
  8
255
 10
324.5000
 20
10.2000
 30
0.0000
 11
324.5000
 21
15.2000
 31
0.0000
  0
LINE
  8
255
 10
324.5000
 20
18.7000
 30
0.0000
 11
324.5000
 21
19.7000
 31
0.0000
  0
LINE
  8
255
 10
324.5000
 20
19.7000
 30
0.0000
 11
310.5000
 21
19.7000
 31
0.0000
  0
LINE
  8
255
 10
309.7000
 20
15.2000
 30
0.0000
 11
309.7000
 21
18.7000
 31
0.0000
  0
LINE
  8
255
 10
310.5000
 20
18.7000
 30
0.0000
 11
309.7000
 21
18.7000
 31
0.0000
  0
LINE
  8
255
 10
309.7000
 20
15.2000
 30
0.0000
 11
310.5000
 21
15.2000
 31
0.0000
  0
LINE
  8
255
 10
325.3000
 20
15.2000
 30
0.0000
 11
325.3000
 21
18.7000
 31
0.0000
  0
LINE
  8
255
 10
324.5000
 20
18.7000
 30
0.0000
 11
325.3000
 21
18.7000
 31
0.0000
  0
LINE
  8
255
 10
324.5000
 20
15.2000
 30
0.0000
 11
325.3000
 21
15.2000
 31
0.0000
  0
LINE
  8
255
 10
324.5000
 20
10.2000
 30
0.0000
 11
325.3000
 21
10.2000
 31
0.0000
  0
LINE
  8
255
 10
324.5000
 20
6.7000
 30
0.0000
 11
325.3000
 21
6.7000
 31
0.0000
  0
LINE
  8
255
 10
325.3000
 20
6.7000
 30
0.0000
 11
325.3000
 21
10.2000
 31
0.0000
  0
LINE
  8
255
 10
309.7000
 20
10.2000
 30
0.0000
 11
310.5000
 21
10.2000
 31
0.0000
  0
LINE
  8
255
 10
310.5000
 20
6.7000
 30
0.0000
 11
309.7000
 21
6.7000
 31
0.0000
  0
LINE
  8
255
 10
309.7000
 20
6.7000
 30
0.0000
 11
309.7000
 21
10.2000
 31
0.0000
  0
LINE
  8
255
 10
367.6500
 20
19.7000
 30
0.0000
 11
367.6500
 21
18.7000
 31
0.0000
  0
LINE
  8
255
 10
367.6500
 20
15.2000
 30
0.0000
 11
367.6500
 21
10.2000
 31
0.0000
  0
LINE
  8
255
 10
367.6500
 20
6.7000
 30
0.0000
 11
367.6500
 21
5.7000
 31
0.0000
  0
LINE
  8
255
 10
367.6500
 20
5.7000
 30
0.0000
 11
381.6500
 21
5.7000
 31
0.0000
  0
LINE
  8
255
 10
381.6500
 20
5.7000
 30
0.0000
 11
381.6500
 21
6.7000
 31
0.0000
  0
LINE
  8
255
 10
381.6500
 20
10.2000
 30
0.0000
 11
381.6500
 21
15.2000
 31
0.0000
  0
LINE
  8
255
 10
381.6500
 20
18.7000
 30
0.0000
 11
381.6500
 21
19.7000
 31
0.0000
  0
LINE
  8
255
 10
381.6500
 20
19.7000
 30
0.0000
 11
367.6500
 21
19.7000
 31
0.0000
  0
LINE
  8
255
 10
366.8500
 20
15.2000
 30
0.0000
 11
366.8500
 21
18.7000
 31
0.0000
  0
LINE
  8
255
 10
367.6500
 20
18.7000
 30
0.0000
 11
366.8500
 21
18.7000
 31
0.0000
  0
LINE
  8
255
 10
366.8500
 20
15.2000
 30
0.0000
 11
367.6500
 21
15.2000
 31
0.0000
  0
LINE
  8
255
 10
382.4500
 20
15.2000
 30
0.0000
 11
382.4500
 21
18.7000
 31
0.0000
  0
LINE
  8
255
 10
381.6500
 20
18.7000
 30
0.0000
 11
382.4500
 21
18.7000
 31
0.0000
  0
LINE
  8
255
 10
381.6500
 20
15.2000
 30
0.0000
 11
382.4500
 21
15.2000
 31
0.0000
  0
LINE
  8
255
 10
381.6500
 20
10.2000
 30
0.0000
 11
382.4500
 21
10.2000
 31
0.0000
  0
LINE
  8
255
 10
381.6500
 20
6.7000
 30
0.0000
 11
382.4500
 21
6.7000
 31
0.0000
  0
LINE
  8
255
 10
382.4500
 20
6.7000
 30
0.0000
 11
382.4500
 21
10.2000
 31
0.0000
  0
LINE
  8
255
 10
366.8500
 20
10.2000
 30
0.0000
 11
367.6500
 21
10.2000
 31
0.0000
  0
LINE
  8
255
 10
367.6500
 20
6.7000
 30
0.0000
 11
366.8500
 21
6.7000
 31
0.0000
  0
LINE
  8
255
 10
366.8500
 20
6.7000
 30
0.0000
 11
366.8500
 21
10.2000
 31
0.0000
  0
LINE
  8
255
 10
348.6000
 20
38.7500
 30
0.0000
 11
348.6000
 21
37.7500
 31
0.0000
  0
LINE
  8
255
 10
348.6000
 20
34.2500
 30
0.0000
 11
348.6000
 21
29.2500
 31
0.0000
  0
LINE
  8
255
 10
348.6000
 20
25.7500
 30
0.0000
 11
348.6000
 21
24.7500
 31
0.0000
  0
LINE
  8
255
 10
348.6000
 20
24.7500
 30
0.0000
 11
362.6000
 21
24.7500
 31
0.0000
  0
LINE
  8
255
 10
362.6000
 20
24.7500
 30
0.0000
 11
362.6000
 21
25.7500
 31
0.0000
  0
LINE
  8
255
 10
362.6000
 20
29.2500
 30
0.0000
 11
362.6000
 21
34.2500
 31
0.0000
  0
LINE
  8
255
 10
362.6000
 20
37.7500
 30
0.0000
 11
362.6000
 21
38.7500
 31
0.0000
  0
LINE
  8
255
 10
362.6000
 20
38.7500
 30
0.0000
 11
348.6000
 21
38.7500
 31
0.0000
  0
LINE
  8
255
 10
347.8000
 20
34.2500
 30
0.0000
 11
347.8000
 21
37.7500
 31
0.0000
  0
LINE
  8
255
 10
348.6000
 20
37.7500
 30
0.0000
 11
347.8000
 21
37.7500
 31
0.0000
  0
LINE
  8
255
 10
347.8000
 20
34.2500
 30
0.0000
 11
348.6000
 21
34.2500
 31
0.0000
  0
LINE
  8
255
 10
363.4000
 20
34.2500
 30
0.0000
 11
363.4000
 21
37.7500
 31
0.0000
  0
LINE
  8
255
 10
362.6000
 20
37.7500
 30
0.0000
 11
363.4000
 21
37.7500
 31
0.0000
  0
LINE
  8
255
 10
362.6000
 20
34.2500
 30
0.0000
 11
363.4000
 21
34.2500
 31
0.0000
  0
LINE
  8
255
 10
362.6000
 20
29.2500
 30
0.0000
 11
363.4000
 21
29.2500
 31
0.0000
  0
LINE
  8
255
 10
362.6000
 20
25.7500
 30
0.0000
 11
363.4000
 21
25.7500
 31
0.0000
  0
LINE
  8
255
 10
363.4000
 20
25.7500
 30
0.0000
 11
363.4000
 21
29.2500
 31
0.0000
  0
LINE
  8
255
 10
347.8000
 20
29.2500
 30
0.0000
 11
348.6000
 21
29.2500
 31
0.0000
  0
LINE
  8
255
 10
348.6000
 20
25.7500
 30
0.0000
 11
347.8000
 21
25.7500
 31
0.0000
  0
LINE
  8
255
 10
347.8000
 20
25.7500
 30
0.0000
 11
347.8000
 21
29.2500
 31
0.0000
  0
LINE
  8
255
 10
348.6000
 20
19.7000
 30
0.0000
 11
348.6000
 21
18.7000
 31
0.0000
  0
LINE
  8
255
 10
348.6000
 20
15.2000
 30
0.0000
 11
348.6000
 21
10.2000
 31
0.0000
  0
LINE
  8
255
 10
348.6000
 20
6.7000
 30
0.0000
 11
348.6000
 21
5.7000
 31
0.0000
  0
LINE
  8
255
 10
348.6000
 20
5.7000
 30
0.0000
 11
362.6000
 21
5.7000
 31
0.0000
  0
LINE
  8
255
 10
362.6000
 20
5.7000
 30
0.0000
 11
362.6000
 21
6.7000
 31
0.0000
  0
LINE
  8
255
 10
362.6000
 20
10.2000
 30
0.0000
 11
362.6000
 21
15.2000
 31
0.0000
  0
LINE
  8
255
 10
362.6000
 20
18.7000
 30
0.0000
 11
362.6000
 21
19.7000
 31
0.0000
  0
LINE
  8
255
 10
362.6000
 20
19.7000
 30
0.0000
 11
348.6000
 21
19.7000
 31
0.0000
  0
LINE
  8
255
 10
347.8000
 20
15.2000
 30
0.0000
 11
347.8000
 21
18.7000
 31
0.0000
  0
LINE
  8
255
 10
348.6000
 20
18.7000
 30
0.0000
 11
347.8000
 21
18.7000
 31
0.0000
  0
LINE
  8
255
 10
347.8000
 20
15.2000
 30
0.0000
 11
348.6000
 21
15.2000
 31
0.0000
  0
LINE
  8
255
 10
363.4000
 20
15.2000
 30
0.0000
 11
363.4000
 21
18.7000
 31
0.0000
  0
LINE
  8
255
 10
362.6000
 20
18.7000
 30
0.0000
 11
363.4000
 21
18.7000
 31
0.0000
  0
LINE
  8
255
 10
362.6000
 20
15.2000
 30
0.0000
 11
363.4000
 21
15.2000
 31
0.0000
  0
LINE
  8
255
 10
362.6000
 20
10.2000
 30
0.0000
 11
363.4000
 21
10.2000
 31
0.0000
  0
LINE
  8
255
 10
362.6000
 20
6.7000
 30
0.0000
 11
363.4000
 21
6.7000
 31
0.0000
  0
LINE
  8
255
 10
363.4000
 20
6.7000
 30
0.0000
 11
363.4000
 21
10.2000
 31
0.0000
  0
LINE
  8
255
 10
347.8000
 20
10.2000
 30
0.0000
 11
348.6000
 21
10.2000
 31
0.0000
  0
LINE
  8
255
 10
348.6000
 20
6.7000
 30
0.0000
 11
347.8000
 21
6.7000
 31
0.0000
  0
LINE
  8
255
 10
347.8000
 20
6.7000
 30
0.0000
 11
347.8000
 21
10.2000
 31
0.0000
  0
LINE
  8
255
 10
234.3000
 20
57.8000
 30
0.0000
 11
234.3000
 21
56.8000
 31
0.0000
  0
LINE
  8
255
 10
234.3000
 20
53.3000
 30
0.0000
 11
234.3000
 21
48.3000
 31
0.0000
  0
LINE
  8
255
 10
234.3000
 20
44.8000
 30
0.0000
 11
234.3000
 21
43.8000
 31
0.0000
  0
LINE
  8
255
 10
234.3000
 20
43.8000
 30
0.0000
 11
248.3000
 21
43.8000
 31
0.0000
  0
LINE
  8
255
 10
248.3000
 20
43.8000
 30
0.0000
 11
248.3000
 21
44.8000
 31
0.0000
  0
LINE
  8
255
 10
248.3000
 20
48.3000
 30
0.0000
 11
248.3000
 21
53.3000
 31
0.0000
  0
LINE
  8
255
 10
248.3000
 20
56.8000
 30
0.0000
 11
248.3000
 21
57.8000
 31
0.0000
  0
LINE
  8
255
 10
248.3000
 20
57.8000
 30
0.0000
 11
234.3000
 21
57.8000
 31
0.0000
  0
LINE
  8
255
 10
233.5000
 20
53.3000
 30
0.0000
 11
233.5000
 21
56.8000
 31
0.0000
  0
LINE
  8
255
 10
234.3000
 20
56.8000
 30
0.0000
 11
233.5000
 21
56.8000
 31
0.0000
  0
LINE
  8
255
 10
233.5000
 20
53.3000
 30
0.0000
 11
234.3000
 21
53.3000
 31
0.0000
  0
LINE
  8
255
 10
249.1000
 20
53.3000
 30
0.0000
 11
249.1000
 21
56.8000
 31
0.0000
  0
LINE
  8
255
 10
248.3000
 20
56.8000
 30
0.0000
 11
249.1000
 21
56.8000
 31
0.0000
  0
LINE
  8
255
 10
248.3000
 20
53.3000
 30
0.0000
 11
249.1000
 21
53.3000
 31
0.0000
  0
LINE
  8
255
 10
248.3000
 20
48.3000
 30
0.0000
 11
249.1000
 21
48.3000
 31
0.0000
  0
LINE
  8
255
 10
248.3000
 20
44.8000
 30
0.0000
 11
249.1000
 21
44.8000
 31
0.0000
  0
LINE
  8
255
 10
249.1000
 20
44.8000
 30
0.0000
 11
249.1000
 21
48.3000
 31
0.0000
  0
LINE
  8
255
 10
233.5000
 20
48.3000
 30
0.0000
 11
234.3000
 21
48.3000
 31
0.0000
  0
LINE
  8
255
 10
234.3000
 20
44.8000
 30
0.0000
 11
233.5000
 21
44.8000
 31
0.0000
  0
LINE
  8
255
 10
233.5000
 20
44.8000
 30
0.0000
 11
233.5000
 21
48.3000
 31
0.0000
  0
LINE
  8
255
 10
272.4000
 20
57.8000
 30
0.0000
 11
272.4000
 21
56.8000
 31
0.0000
  0
LINE
  8
255
 10
272.4000
 20
53.3000
 30
0.0000
 11
272.4000
 21
48.3000
 31
0.0000
  0
LINE
  8
255
 10
272.4000
 20
44.8000
 30
0.0000
 11
272.4000
 21
43.8000
 31
0.0000
  0
LINE
  8
255
 10
272.4000
 20
43.8000
 30
0.0000
 11
286.4000
 21
43.8000
 31
0.0000
  0
LINE
  8
255
 10
286.4000
 20
43.8000
 30
0.0000
 11
286.4000
 21
44.8000
 31
0.0000
  0
LINE
  8
255
 10
286.4000
 20
48.3000
 30
0.0000
 11
286.4000
 21
53.3000
 31
0.0000
  0
LINE
  8
255
 10
286.4000
 20
56.8000
 30
0.0000
 11
286.4000
 21
57.8000
 31
0.0000
  0
LINE
  8
255
 10
286.4000
 20
57.8000
 30
0.0000
 11
272.4000
 21
57.8000
 31
0.0000
  0
LINE
  8
255
 10
271.6000
 20
53.3000
 30
0.0000
 11
271.6000
 21
56.8000
 31
0.0000
  0
LINE
  8
255
 10
272.4000
 20
56.8000
 30
0.0000
 11
271.6000
 21
56.8000
 31
0.0000
  0
LINE
  8
255
 10
271.6000
 20
53.3000
 30
0.0000
 11
272.4000
 21
53.3000
 31
0.0000
  0
LINE
  8
255
 10
287.2000
 20
53.3000
 30
0.0000
 11
287.2000
 21
56.8000
 31
0.0000
  0
LINE
  8
255
 10
286.4000
 20
56.8000
 30
0.0000
 11
287.2000
 21
56.8000
 31
0.0000
  0
LINE
  8
255
 10
286.4000
 20
53.3000
 30
0.0000
 11
287.2000
 21
53.3000
 31
0.0000
  0
LINE
  8
255
 10
286.4000
 20
48.3000
 30
0.0000
 11
287.2000
 21
48.3000
 31
0.0000
  0
LINE
  8
255
 10
286.4000
 20
44.8000
 30
0.0000
 11
287.2000
 21
44.8000
 31
0.0000
  0
LINE
  8
255
 10
287.2000
 20
44.8000
 30
0.0000
 11
287.2000
 21
48.3000
 31
0.0000
  0
LINE
  8
255
 10
271.6000
 20
48.3000
 30
0.0000
 11
272.4000
 21
48.3000
 31
0.0000
  0
LINE
  8
255
 10
272.4000
 20
44.8000
 30
0.0000
 11
271.6000
 21
44.8000
 31
0.0000
  0
LINE
  8
255
 10
271.6000
 20
44.8000
 30
0.0000
 11
271.6000
 21
48.3000
 31
0.0000
  0
LINE
  8
255
 10
329.5500
 20
19.7000
 30
0.0000
 11
329.5500
 21
18.7000
 31
0.0000
  0
LINE
  8
255
 10
329.5500
 20
15.2000
 30
0.0000
 11
329.5500
 21
10.2000
 31
0.0000
  0
LINE
  8
255
 10
329.5500
 20
6.7000
 30
0.0000
 11
329.5500
 21
5.7000
 31
0.0000
  0
LINE
  8
255
 10
329.5500
 20
5.7000
 30
0.0000
 11
343.5500
 21
5.7000
 31
0.0000
  0
LINE
  8
255
 10
343.5500
 20
5.7000
 30
0.0000
 11
343.5500
 21
6.7000
 31
0.0000
  0
LINE
  8
255
 10
343.5500
 20
10.2000
 30
0.0000
 11
343.5500
 21
15.2000
 31
0.0000
  0
LINE
  8
255
 10
343.5500
 20
18.7000
 30
0.0000
 11
343.5500
 21
19.7000
 31
0.0000
  0
LINE
  8
255
 10
343.5500
 20
19.7000
 30
0.0000
 11
329.5500
 21
19.7000
 31
0.0000
  0
LINE
  8
255
 10
328.7500
 20
15.2000
 30
0.0000
 11
328.7500
 21
18.7000
 31
0.0000
  0
LINE
  8
255
 10
329.5500
 20
18.7000
 30
0.0000
 11
328.7500
 21
18.7000
 31
0.0000
  0
LINE
  8
255
 10
328.7500
 20
15.2000
 30
0.0000
 11
329.5500
 21
15.2000
 31
0.0000
  0
LINE
  8
255
 10
344.3500
 20
15.2000
 30
0.0000
 11
344.3500
 21
18.7000
 31
0.0000
  0
LINE
  8
255
 10
343.5500
 20
18.7000
 30
0.0000
 11
344.3500
 21
18.7000
 31
0.0000
  0
LINE
  8
255
 10
343.5500
 20
15.2000
 30
0.0000
 11
344.3500
 21
15.2000
 31
0.0000
  0
LINE
  8
255
 10
343.5500
 20
10.2000
 30
0.0000
 11
344.3500
 21
10.2000
 31
0.0000
  0
LINE
  8
255
 10
343.5500
 20
6.7000
 30
0.0000
 11
344.3500
 21
6.7000
 31
0.0000
  0
LINE
  8
255
 10
344.3500
 20
6.7000
 30
0.0000
 11
344.3500
 21
10.2000
 31
0.0000
  0
LINE
  8
255
 10
328.7500
 20
10.2000
 30
0.0000
 11
329.5500
 21
10.2000
 31
0.0000
  0
LINE
  8
255
 10
329.5500
 20
6.7000
 30
0.0000
 11
328.7500
 21
6.7000
 31
0.0000
  0
LINE
  8
255
 10
328.7500
 20
6.7000
 30
0.0000
 11
328.7500
 21
10.2000
 31
0.0000
  0
LINE
  8
255
 10
196.2000
 20
57.8000
 30
0.0000
 11
196.2000
 21
56.8000
 31
0.0000
  0
LINE
  8
255
 10
196.2000
 20
53.3000
 30
0.0000
 11
196.2000
 21
48.3000
 31
0.0000
  0
LINE
  8
255
 10
196.2000
 20
44.8000
 30
0.0000
 11
196.2000
 21
43.8000
 31
0.0000
  0
LINE
  8
255
 10
196.2000
 20
43.8000
 30
0.0000
 11
210.2000
 21
43.8000
 31
0.0000
  0
LINE
  8
255
 10
210.2000
 20
43.8000
 30
0.0000
 11
210.2000
 21
44.8000
 31
0.0000
  0
LINE
  8
255
 10
210.2000
 20
48.3000
 30
0.0000
 11
210.2000
 21
53.3000
 31
0.0000
  0
LINE
  8
255
 10
210.2000
 20
56.8000
 30
0.0000
 11
210.2000
 21
57.8000
 31
0.0000
  0
LINE
  8
255
 10
210.2000
 20
57.8000
 30
0.0000
 11
196.2000
 21
57.8000
 31
0.0000
  0
LINE
  8
255
 10
195.4000
 20
53.3000
 30
0.0000
 11
195.4000
 21
56.8000
 31
0.0000
  0
LINE
  8
255
 10
196.2000
 20
56.8000
 30
0.0000
 11
195.4000
 21
56.8000
 31
0.0000
  0
LINE
  8
255
 10
195.4000
 20
53.3000
 30
0.0000
 11
196.2000
 21
53.3000
 31
0.0000
  0
LINE
  8
255
 10
211.0000
 20
53.3000
 30
0.0000
 11
211.0000
 21
56.8000
 31
0.0000
  0
LINE
  8
255
 10
210.2000
 20
56.8000
 30
0.0000
 11
211.0000
 21
56.8000
 31
0.0000
  0
LINE
  8
255
 10
210.2000
 20
53.3000
 30
0.0000
 11
211.0000
 21
53.3000
 31
0.0000
  0
LINE
  8
255
 10
210.2000
 20
48.3000
 30
0.0000
 11
211.0000
 21
48.3000
 31
0.0000
  0
LINE
  8
255
 10
210.2000
 20
44.8000
 30
0.0000
 11
211.0000
 21
44.8000
 31
0.0000
  0
LINE
  8
255
 10
211.0000
 20
44.8000
 30
0.0000
 11
211.0000
 21
48.3000
 31
0.0000
  0
LINE
  8
255
 10
195.4000
 20
48.3000
 30
0.0000
 11
196.2000
 21
48.3000
 31
0.0000
  0
LINE
  8
255
 10
196.2000
 20
44.8000
 30
0.0000
 11
195.4000
 21
44.8000
 31
0.0000
  0
LINE
  8
255
 10
195.4000
 20
44.8000
 30
0.0000
 11
195.4000
 21
48.3000
 31
0.0000
  0
LINE
  8
255
 10
215.2500
 20
57.8000
 30
0.0000
 11
215.2500
 21
56.8000
 31
0.0000
  0
LINE
  8
255
 10
215.2500
 20
53.3000
 30
0.0000
 11
215.2500
 21
48.3000
 31
0.0000
  0
LINE
  8
255
 10
215.2500
 20
44.8000
 30
0.0000
 11
215.2500
 21
43.8000
 31
0.0000
  0
LINE
  8
255
 10
215.2500
 20
43.8000
 30
0.0000
 11
229.2500
 21
43.8000
 31
0.0000
  0
LINE
  8
255
 10
229.2500
 20
43.8000
 30
0.0000
 11
229.2500
 21
44.8000
 31
0.0000
  0
LINE
  8
255
 10
229.2500
 20
48.3000
 30
0.0000
 11
229.2500
 21
53.3000
 31
0.0000
  0
LINE
  8
255
 10
229.2500
 20
56.8000
 30
0.0000
 11
229.2500
 21
57.8000
 31
0.0000
  0
LINE
  8
255
 10
229.2500
 20
57.8000
 30
0.0000
 11
215.2500
 21
57.8000
 31
0.0000
  0
LINE
  8
255
 10
214.4500
 20
53.3000
 30
0.0000
 11
214.4500
 21
56.8000
 31
0.0000
  0
LINE
  8
255
 10
215.2500
 20
56.8000
 30
0.0000
 11
214.4500
 21
56.8000
 31
0.0000
  0
LINE
  8
255
 10
214.4500
 20
53.3000
 30
0.0000
 11
215.2500
 21
53.3000
 31
0.0000
  0
LINE
  8
255
 10
230.0500
 20
53.3000
 30
0.0000
 11
230.0500
 21
56.8000
 31
0.0000
  0
LINE
  8
255
 10
229.2500
 20
56.8000
 30
0.0000
 11
230.0500
 21
56.8000
 31
0.0000
  0
LINE
  8
255
 10
229.2500
 20
53.3000
 30
0.0000
 11
230.0500
 21
53.3000
 31
0.0000
  0
LINE
  8
255
 10
229.2500
 20
48.3000
 30
0.0000
 11
230.0500
 21
48.3000
 31
0.0000
  0
LINE
  8
255
 10
229.2500
 20
44.8000
 30
0.0000
 11
230.0500
 21
44.8000
 31
0.0000
  0
LINE
  8
255
 10
230.0500
 20
44.8000
 30
0.0000
 11
230.0500
 21
48.3000
 31
0.0000
  0
LINE
  8
255
 10
214.4500
 20
48.3000
 30
0.0000
 11
215.2500
 21
48.3000
 31
0.0000
  0
LINE
  8
255
 10
215.2500
 20
44.8000
 30
0.0000
 11
214.4500
 21
44.8000
 31
0.0000
  0
LINE
  8
255
 10
214.4500
 20
44.8000
 30
0.0000
 11
214.4500
 21
48.3000
 31
0.0000
  0
LINE
  8
255
 10
158.1000
 20
57.8000
 30
0.0000
 11
158.1000
 21
56.8000
 31
0.0000
  0
LINE
  8
255
 10
158.1000
 20
53.3000
 30
0.0000
 11
158.1000
 21
48.3000
 31
0.0000
  0
LINE
  8
255
 10
158.1000
 20
44.8000
 30
0.0000
 11
158.1000
 21
43.8000
 31
0.0000
  0
LINE
  8
255
 10
158.1000
 20
43.8000
 30
0.0000
 11
172.1000
 21
43.8000
 31
0.0000
  0
LINE
  8
255
 10
172.1000
 20
43.8000
 30
0.0000
 11
172.1000
 21
44.8000
 31
0.0000
  0
LINE
  8
255
 10
172.1000
 20
48.3000
 30
0.0000
 11
172.1000
 21
53.3000
 31
0.0000
  0
LINE
  8
255
 10
172.1000
 20
56.8000
 30
0.0000
 11
172.1000
 21
57.8000
 31
0.0000
  0
LINE
  8
255
 10
172.1000
 20
57.8000
 30
0.0000
 11
158.1000
 21
57.8000
 31
0.0000
  0
LINE
  8
255
 10
157.3000
 20
53.3000
 30
0.0000
 11
157.3000
 21
56.8000
 31
0.0000
  0
LINE
  8
255
 10
158.1000
 20
56.8000
 30
0.0000
 11
157.3000
 21
56.8000
 31
0.0000
  0
LINE
  8
255
 10
157.3000
 20
53.3000
 30
0.0000
 11
158.1000
 21
53.3000
 31
0.0000
  0
LINE
  8
255
 10
172.9000
 20
53.3000
 30
0.0000
 11
172.9000
 21
56.8000
 31
0.0000
  0
LINE
  8
255
 10
172.1000
 20
56.8000
 30
0.0000
 11
172.9000
 21
56.8000
 31
0.0000
  0
LINE
  8
255
 10
172.1000
 20
53.3000
 30
0.0000
 11
172.9000
 21
53.3000
 31
0.0000
  0
LINE
  8
255
 10
172.1000
 20
48.3000
 30
0.0000
 11
172.9000
 21
48.3000
 31
0.0000
  0
LINE
  8
255
 10
172.1000
 20
44.8000
 30
0.0000
 11
172.9000
 21
44.8000
 31
0.0000
  0
LINE
  8
255
 10
172.9000
 20
44.8000
 30
0.0000
 11
172.9000
 21
48.3000
 31
0.0000
  0
LINE
  8
255
 10
157.3000
 20
48.3000
 30
0.0000
 11
158.1000
 21
48.3000
 31
0.0000
  0
LINE
  8
255
 10
158.1000
 20
44.8000
 30
0.0000
 11
157.3000
 21
44.8000
 31
0.0000
  0
LINE
  8
255
 10
157.3000
 20
44.8000
 30
0.0000
 11
157.3000
 21
48.3000
 31
0.0000
  0
LINE
  8
255
 10
329.5500
 20
57.8000
 30
0.0000
 11
329.5500
 21
56.8000
 31
0.0000
  0
LINE
  8
255
 10
329.5500
 20
53.3000
 30
0.0000
 11
329.5500
 21
48.3000
 31
0.0000
  0
LINE
  8
255
 10
329.5500
 20
44.8000
 30
0.0000
 11
329.5500
 21
43.8000
 31
0.0000
  0
LINE
  8
255
 10
329.5500
 20
43.8000
 30
0.0000
 11
343.5500
 21
43.8000
 31
0.0000
  0
LINE
  8
255
 10
343.5500
 20
43.8000
 30
0.0000
 11
343.5500
 21
44.8000
 31
0.0000
  0
LINE
  8
255
 10
343.5500
 20
48.3000
 30
0.0000
 11
343.5500
 21
53.3000
 31
0.0000
  0
LINE
  8
255
 10
343.5500
 20
56.8000
 30
0.0000
 11
343.5500
 21
57.8000
 31
0.0000
  0
LINE
  8
255
 10
343.5500
 20
57.8000
 30
0.0000
 11
329.5500
 21
57.8000
 31
0.0000
  0
LINE
  8
255
 10
328.7500
 20
53.3000
 30
0.0000
 11
328.7500
 21
56.8000
 31
0.0000
  0
LINE
  8
255
 10
329.5500
 20
56.8000
 30
0.0000
 11
328.7500
 21
56.8000
 31
0.0000
  0
LINE
  8
255
 10
328.7500
 20
53.3000
 30
0.0000
 11
329.5500
 21
53.3000
 31
0.0000
  0
LINE
  8
255
 10
344.3500
 20
53.3000
 30
0.0000
 11
344.3500
 21
56.8000
 31
0.0000
  0
LINE
  8
255
 10
343.5500
 20
56.8000
 30
0.0000
 11
344.3500
 21
56.8000
 31
0.0000
  0
LINE
  8
255
 10
343.5500
 20
53.3000
 30
0.0000
 11
344.3500
 21
53.3000
 31
0.0000
  0
LINE
  8
255
 10
343.5500
 20
48.3000
 30
0.0000
 11
344.3500
 21
48.3000
 31
0.0000
  0
LINE
  8
255
 10
343.5500
 20
44.8000
 30
0.0000
 11
344.3500
 21
44.8000
 31
0.0000
  0
LINE
  8
255
 10
344.3500
 20
44.8000
 30
0.0000
 11
344.3500
 21
48.3000
 31
0.0000
  0
LINE
  8
255
 10
328.7500
 20
48.3000
 30
0.0000
 11
329.5500
 21
48.3000
 31
0.0000
  0
LINE
  8
255
 10
329.5500
 20
44.8000
 30
0.0000
 11
328.7500
 21
44.8000
 31
0.0000
  0
LINE
  8
255
 10
328.7500
 20
44.8000
 30
0.0000
 11
328.7500
 21
48.3000
 31
0.0000
  0
LINE
  8
255
 10
291.4500
 20
57.8000
 30
0.0000
 11
291.4500
 21
56.8000
 31
0.0000
  0
LINE
  8
255
 10
291.4500
 20
53.3000
 30
0.0000
 11
291.4500
 21
48.3000
 31
0.0000
  0
LINE
  8
255
 10
291.4500
 20
44.8000
 30
0.0000
 11
291.4500
 21
43.8000
 31
0.0000
  0
LINE
  8
255
 10
291.4500
 20
43.8000
 30
0.0000
 11
305.4500
 21
43.8000
 31
0.0000
  0
LINE
  8
255
 10
305.4500
 20
43.8000
 30
0.0000
 11
305.4500
 21
44.8000
 31
0.0000
  0
LINE
  8
255
 10
305.4500
 20
48.3000
 30
0.0000
 11
305.4500
 21
53.3000
 31
0.0000
  0
LINE
  8
255
 10
305.4500
 20
56.8000
 30
0.0000
 11
305.4500
 21
57.8000
 31
0.0000
  0
LINE
  8
255
 10
305.4500
 20
57.8000
 30
0.0000
 11
291.4500
 21
57.8000
 31
0.0000
  0
LINE
  8
255
 10
290.6500
 20
53.3000
 30
0.0000
 11
290.6500
 21
56.8000
 31
0.0000
  0
LINE
  8
255
 10
291.4500
 20
56.8000
 30
0.0000
 11
290.6500
 21
56.8000
 31
0.0000
  0
LINE
  8
255
 10
290.6500
 20
53.3000
 30
0.0000
 11
291.4500
 21
53.3000
 31
0.0000
  0
LINE
  8
255
 10
306.2500
 20
53.3000
 30
0.0000
 11
306.2500
 21
56.8000
 31
0.0000
  0
LINE
  8
255
 10
305.4500
 20
56.8000
 30
0.0000
 11
306.2500
 21
56.8000
 31
0.0000
  0
LINE
  8
255
 10
305.4500
 20
53.3000
 30
0.0000
 11
306.2500
 21
53.3000
 31
0.0000
  0
LINE
  8
255
 10
305.4500
 20
48.3000
 30
0.0000
 11
306.2500
 21
48.3000
 31
0.0000
  0
LINE
  8
255
 10
305.4500
 20
44.8000
 30
0.0000
 11
306.2500
 21
44.8000
 31
0.0000
  0
LINE
  8
255
 10
306.2500
 20
44.8000
 30
0.0000
 11
306.2500
 21
48.3000
 31
0.0000
  0
LINE
  8
255
 10
290.6500
 20
48.3000
 30
0.0000
 11
291.4500
 21
48.3000
 31
0.0000
  0
LINE
  8
255
 10
291.4500
 20
44.8000
 30
0.0000
 11
290.6500
 21
44.8000
 31
0.0000
  0
LINE
  8
255
 10
290.6500
 20
44.8000
 30
0.0000
 11
290.6500
 21
48.3000
 31
0.0000
  0
LINE
  8
255
 10
348.6000
 20
57.8000
 30
0.0000
 11
348.6000
 21
56.8000
 31
0.0000
  0
LINE
  8
255
 10
348.6000
 20
53.3000
 30
0.0000
 11
348.6000
 21
48.3000
 31
0.0000
  0
LINE
  8
255
 10
348.6000
 20
44.8000
 30
0.0000
 11
348.6000
 21
43.8000
 31
0.0000
  0
LINE
  8
255
 10
348.6000
 20
43.8000
 30
0.0000
 11
362.6000
 21
43.8000
 31
0.0000
  0
LINE
  8
255
 10
362.6000
 20
43.8000
 30
0.0000
 11
362.6000
 21
44.8000
 31
0.0000
  0
LINE
  8
255
 10
362.6000
 20
48.3000
 30
0.0000
 11
362.6000
 21
53.3000
 31
0.0000
  0
LINE
  8
255
 10
362.6000
 20
56.8000
 30
0.0000
 11
362.6000
 21
57.8000
 31
0.0000
  0
LINE
  8
255
 10
362.6000
 20
57.8000
 30
0.0000
 11
348.6000
 21
57.8000
 31
0.0000
  0
LINE
  8
255
 10
347.8000
 20
53.3000
 30
0.0000
 11
347.8000
 21
56.8000
 31
0.0000
  0
LINE
  8
255
 10
348.6000
 20
56.8000
 30
0.0000
 11
347.8000
 21
56.8000
 31
0.0000
  0
LINE
  8
255
 10
347.8000
 20
53.3000
 30
0.0000
 11
348.6000
 21
53.3000
 31
0.0000
  0
LINE
  8
255
 10
363.4000
 20
53.3000
 30
0.0000
 11
363.4000
 21
56.8000
 31
0.0000
  0
LINE
  8
255
 10
362.6000
 20
56.8000
 30
0.0000
 11
363.4000
 21
56.8000
 31
0.0000
  0
LINE
  8
255
 10
362.6000
 20
53.3000
 30
0.0000
 11
363.4000
 21
53.3000
 31
0.0000
  0
LINE
  8
255
 10
362.6000
 20
48.3000
 30
0.0000
 11
363.4000
 21
48.3000
 31
0.0000
  0
LINE
  8
255
 10
362.6000
 20
44.8000
 30
0.0000
 11
363.4000
 21
44.8000
 31
0.0000
  0
LINE
  8
255
 10
363.4000
 20
44.8000
 30
0.0000
 11
363.4000
 21
48.3000
 31
0.0000
  0
LINE
  8
255
 10
347.8000
 20
48.3000
 30
0.0000
 11
348.6000
 21
48.3000
 31
0.0000
  0
LINE
  8
255
 10
348.6000
 20
44.8000
 30
0.0000
 11
347.8000
 21
44.8000
 31
0.0000
  0
LINE
  8
255
 10
347.8000
 20
44.8000
 30
0.0000
 11
347.8000
 21
48.3000
 31
0.0000
  0
LINE
  8
255
 10
367.6500
 20
57.8000
 30
0.0000
 11
367.6500
 21
56.8000
 31
0.0000
  0
LINE
  8
255
 10
367.6500
 20
53.3000
 30
0.0000
 11
367.6500
 21
48.3000
 31
0.0000
  0
LINE
  8
255
 10
367.6500
 20
44.8000
 30
0.0000
 11
367.6500
 21
43.8000
 31
0.0000
  0
LINE
  8
255
 10
367.6500
 20
43.8000
 30
0.0000
 11
381.6500
 21
43.8000
 31
0.0000
  0
LINE
  8
255
 10
381.6500
 20
43.8000
 30
0.0000
 11
381.6500
 21
44.8000
 31
0.0000
  0
LINE
  8
255
 10
381.6500
 20
48.3000
 30
0.0000
 11
381.6500
 21
53.3000
 31
0.0000
  0
LINE
  8
255
 10
381.6500
 20
56.8000
 30
0.0000
 11
381.6500
 21
57.8000
 31
0.0000
  0
LINE
  8
255
 10
381.6500
 20
57.8000
 30
0.0000
 11
367.6500
 21
57.8000
 31
0.0000
  0
LINE
  8
255
 10
366.8500
 20
53.3000
 30
0.0000
 11
366.8500
 21
56.8000
 31
0.0000
  0
LINE
  8
255
 10
367.6500
 20
56.8000
 30
0.0000
 11
366.8500
 21
56.8000
 31
0.0000
  0
LINE
  8
255
 10
366.8500
 20
53.3000
 30
0.0000
 11
367.6500
 21
53.3000
 31
0.0000
  0
LINE
  8
255
 10
382.4500
 20
53.3000
 30
0.0000
 11
382.4500
 21
56.8000
 31
0.0000
  0
LINE
  8
255
 10
381.6500
 20
56.8000
 30
0.0000
 11
382.4500
 21
56.8000
 31
0.0000
  0
LINE
  8
255
 10
381.6500
 20
53.3000
 30
0.0000
 11
382.4500
 21
53.3000
 31
0.0000
  0
LINE
  8
255
 10
381.6500
 20
48.3000
 30
0.0000
 11
382.4500
 21
48.3000
 31
0.0000
  0
LINE
  8
255
 10
381.6500
 20
44.8000
 30
0.0000
 11
382.4500
 21
44.8000
 31
0.0000
  0
LINE
  8
255
 10
382.4500
 20
44.8000
 30
0.0000
 11
382.4500
 21
48.3000
 31
0.0000
  0
LINE
  8
255
 10
366.8500
 20
48.3000
 30
0.0000
 11
367.6500
 21
48.3000
 31
0.0000
  0
LINE
  8
255
 10
367.6500
 20
44.8000
 30
0.0000
 11
366.8500
 21
44.8000
 31
0.0000
  0
LINE
  8
255
 10
366.8500
 20
44.8000
 30
0.0000
 11
366.8500
 21
48.3000
 31
0.0000
  0
LINE
  8
255
 10
120.0000
 20
57.8000
 30
0.0000
 11
120.0000
 21
56.8000
 31
0.0000
  0
LINE
  8
255
 10
120.0000
 20
53.3000
 30
0.0000
 11
120.0000
 21
48.3000
 31
0.0000
  0
LINE
  8
255
 10
120.0000
 20
44.8000
 30
0.0000
 11
120.0000
 21
43.8000
 31
0.0000
  0
LINE
  8
255
 10
120.0000
 20
43.8000
 30
0.0000
 11
134.0000
 21
43.8000
 31
0.0000
  0
LINE
  8
255
 10
134.0000
 20
43.8000
 30
0.0000
 11
134.0000
 21
44.8000
 31
0.0000
  0
LINE
  8
255
 10
134.0000
 20
48.3000
 30
0.0000
 11
134.0000
 21
53.3000
 31
0.0000
  0
LINE
  8
255
 10
134.0000
 20
56.8000
 30
0.0000
 11
134.0000
 21
57.8000
 31
0.0000
  0
LINE
  8
255
 10
134.0000
 20
57.8000
 30
0.0000
 11
120.0000
 21
57.8000
 31
0.0000
  0
LINE
  8
255
 10
119.2000
 20
53.3000
 30
0.0000
 11
119.2000
 21
56.8000
 31
0.0000
  0
LINE
  8
255
 10
120.0000
 20
56.8000
 30
0.0000
 11
119.2000
 21
56.8000
 31
0.0000
  0
LINE
  8
255
 10
119.2000
 20
53.3000
 30
0.0000
 11
120.0000
 21
53.3000
 31
0.0000
  0
LINE
  8
255
 10
134.8000
 20
53.3000
 30
0.0000
 11
134.8000
 21
56.8000
 31
0.0000
  0
LINE
  8
255
 10
134.0000
 20
56.8000
 30
0.0000
 11
134.8000
 21
56.8000
 31
0.0000
  0
LINE
  8
255
 10
134.0000
 20
53.3000
 30
0.0000
 11
134.8000
 21
53.3000
 31
0.0000
  0
LINE
  8
255
 10
134.0000
 20
48.3000
 30
0.0000
 11
134.8000
 21
48.3000
 31
0.0000
  0
LINE
  8
255
 10
134.0000
 20
44.8000
 30
0.0000
 11
134.8000
 21
44.8000
 31
0.0000
  0
LINE
  8
255
 10
134.8000
 20
44.8000
 30
0.0000
 11
134.8000
 21
48.3000
 31
0.0000
  0
LINE
  8
255
 10
119.2000
 20
48.3000
 30
0.0000
 11
120.0000
 21
48.3000
 31
0.0000
  0
LINE
  8
255
 10
120.0000
 20
44.8000
 30
0.0000
 11
119.2000
 21
44.8000
 31
0.0000
  0
LINE
  8
255
 10
119.2000
 20
44.8000
 30
0.0000
 11
119.2000
 21
48.3000
 31
0.0000
  0
LINE
  8
255
 10
81.9000
 20
57.8000
 30
0.0000
 11
81.9000
 21
56.8000
 31
0.0000
  0
LINE
  8
255
 10
81.9000
 20
53.3000
 30
0.0000
 11
81.9000
 21
48.3000
 31
0.0000
  0
LINE
  8
255
 10
81.9000
 20
44.8000
 30
0.0000
 11
81.9000
 21
43.8000
 31
0.0000
  0
LINE
  8
255
 10
81.9000
 20
43.8000
 30
0.0000
 11
95.9000
 21
43.8000
 31
0.0000
  0
LINE
  8
255
 10
95.9000
 20
43.8000
 30
0.0000
 11
95.9000
 21
44.8000
 31
0.0000
  0
LINE
  8
255
 10
95.9000
 20
48.3000
 30
0.0000
 11
95.9000
 21
53.3000
 31
0.0000
  0
LINE
  8
255
 10
95.9000
 20
56.8000
 30
0.0000
 11
95.9000
 21
57.8000
 31
0.0000
  0
LINE
  8
255
 10
95.9000
 20
57.8000
 30
0.0000
 11
81.9000
 21
57.8000
 31
0.0000
  0
LINE
  8
255
 10
81.1000
 20
53.3000
 30
0.0000
 11
81.1000
 21
56.8000
 31
0.0000
  0
LINE
  8
255
 10
81.9000
 20
56.8000
 30
0.0000
 11
81.1000
 21
56.8000
 31
0.0000
  0
LINE
  8
255
 10
81.1000
 20
53.3000
 30
0.0000
 11
81.9000
 21
53.3000
 31
0.0000
  0
LINE
  8
255
 10
96.7000
 20
53.3000
 30
0.0000
 11
96.7000
 21
56.8000
 31
0.0000
  0
LINE
  8
255
 10
95.9000
 20
56.8000
 30
0.0000
 11
96.7000
 21
56.8000
 31
0.0000
  0
LINE
  8
255
 10
95.9000
 20
53.3000
 30
0.0000
 11
96.7000
 21
53.3000
 31
0.0000
  0
LINE
  8
255
 10
95.9000
 20
48.3000
 30
0.0000
 11
96.7000
 21
48.3000
 31
0.0000
  0
LINE
  8
255
 10
95.9000
 20
44.8000
 30
0.0000
 11
96.7000
 21
44.8000
 31
0.0000
  0
LINE
  8
255
 10
96.7000
 20
44.8000
 30
0.0000
 11
96.7000
 21
48.3000
 31
0.0000
  0
LINE
  8
255
 10
81.1000
 20
48.3000
 30
0.0000
 11
81.9000
 21
48.3000
 31
0.0000
  0
LINE
  8
255
 10
81.9000
 20
44.8000
 30
0.0000
 11
81.1000
 21
44.8000
 31
0.0000
  0
LINE
  8
255
 10
81.1000
 20
44.8000
 30
0.0000
 11
81.1000
 21
48.3000
 31
0.0000
  0
LINE
  8
255
 10
100.9500
 20
57.8000
 30
0.0000
 11
100.9500
 21
56.8000
 31
0.0000
  0
LINE
  8
255
 10
100.9500
 20
53.3000
 30
0.0000
 11
100.9500
 21
48.3000
 31
0.0000
  0
LINE
  8
255
 10
100.9500
 20
44.8000
 30
0.0000
 11
100.9500
 21
43.8000
 31
0.0000
  0
LINE
  8
255
 10
100.9500
 20
43.8000
 30
0.0000
 11
114.9500
 21
43.8000
 31
0.0000
  0
LINE
  8
255
 10
114.9500
 20
43.8000
 30
0.0000
 11
114.9500
 21
44.8000
 31
0.0000
  0
LINE
  8
255
 10
114.9500
 20
48.3000
 30
0.0000
 11
114.9500
 21
53.3000
 31
0.0000
  0
LINE
  8
255
 10
114.9500
 20
56.8000
 30
0.0000
 11
114.9500
 21
57.8000
 31
0.0000
  0
LINE
  8
255
 10
114.9500
 20
57.8000
 30
0.0000
 11
100.9500
 21
57.8000
 31
0.0000
  0
LINE
  8
255
 10
100.1500
 20
53.3000
 30
0.0000
 11
100.1500
 21
56.8000
 31
0.0000
  0
LINE
  8
255
 10
100.9500
 20
56.8000
 30
0.0000
 11
100.1500
 21
56.8000
 31
0.0000
  0
LINE
  8
255
 10
100.1500
 20
53.3000
 30
0.0000
 11
100.9500
 21
53.3000
 31
0.0000
  0
LINE
  8
255
 10
115.7500
 20
53.3000
 30
0.0000
 11
115.7500
 21
56.8000
 31
0.0000
  0
LINE
  8
255
 10
114.9500
 20
56.8000
 30
0.0000
 11
115.7500
 21
56.8000
 31
0.0000
  0
LINE
  8
255
 10
114.9500
 20
53.3000
 30
0.0000
 11
115.7500
 21
53.3000
 31
0.0000
  0
LINE
  8
255
 10
114.9500
 20
48.3000
 30
0.0000
 11
115.7500
 21
48.3000
 31
0.0000
  0
LINE
  8
255
 10
114.9500
 20
44.8000
 30
0.0000
 11
115.7500
 21
44.8000
 31
0.0000
  0
LINE
  8
255
 10
115.7500
 20
44.8000
 30
0.0000
 11
115.7500
 21
48.3000
 31
0.0000
  0
LINE
  8
255
 10
100.1500
 20
48.3000
 30
0.0000
 11
100.9500
 21
48.3000
 31
0.0000
  0
LINE
  8
255
 10
100.9500
 20
44.8000
 30
0.0000
 11
100.1500
 21
44.8000
 31
0.0000
  0
LINE
  8
255
 10
100.1500
 20
44.8000
 30
0.0000
 11
100.1500
 21
48.3000
 31
0.0000
  0
CIRCLE
  8
255
 10
60.3250
 20
31.7500
 30
0.0000
 40
1.2700
  0
CIRCLE
  8
255
 10
60.3250
 20
38.1000
 30
0.0000
 40
1.2700
  0
CIRCLE
  8
255
 10
63.5000
 20
34.9250
 30
0.0000
 40
1.2700
  0
CIRCLE
  8
255
 10
60.3250
 20
25.4000
 30
0.0000
 40
1.2700
  0
CIRCLE
  8
255
 10
63.5000
 20
28.5750
 30
0.0000
 40
1.2700
  0
CIRCLE
  8
255
 10
66.6750
 20
25.4000
 30
0.0000
 40
1.2700
  0
CIRCLE
  8
255
 10
66.6750
 20
31.7500
 30
0.0000
 40
1.2700
  0
CIRCLE
  8
255
 10
66.6750
 20
38.1000
 30
0.0000
 40
1.2700
  0
CIRCLE
  8
255
 10
53.9750
 20
38.1000
 30
0.0000
 40
1.2700
  0
CIRCLE
  8
255
 10
57.1500
 20
34.9250
 30
0.0000
 40
1.2700
  0
CIRCLE
  8
255
 10
53.9750
 20
31.7500
 30
0.0000
 40
1.2700
  0
CIRCLE
  8
255
 10
57.1500
 20
28.5750
 30
0.0000
 40
1.2700
  0
CIRCLE
  8
255
 10
53.9750
 20
25.4000
 30
0.0000
 40
1.2700
  0
CIRCLE
  8
255
 10
136.5250
 20
31.7500
 30
0.0000
 40
1.2700
  0
CIRCLE
  8
255
 10
136.5250
 20
38.1000
 30
0.0000
 40
1.2700
  0
CIRCLE
  8
255
 10
139.7000
 20
34.9250
 30
0.0000
 40
1.2700
  0
CIRCLE
  8
255
 10
136.5250
 20
25.4000
 30
0.0000
 40
1.2700
  0
CIRCLE
  8
255
 10
139.7000
 20
28.5750
 30
0.0000
 40
1.2700
  0
CIRCLE
  8
255
 10
142.8750
 20
25.4000
 30
0.0000
 40
1.2700
  0
CIRCLE
  8
255
 10
142.8750
 20
31.7500
 30
0.0000
 40
1.2700
  0
CIRCLE
  8
255
 10
142.8750
 20
38.1000
 30
0.0000
 40
1.2700
  0
CIRCLE
  8
255
 10
130.1750
 20
38.1000
 30
0.0000
 40
1.2700
  0
CIRCLE
  8
255
 10
133.3500
 20
34.9250
 30
0.0000
 40
1.2700
  0
CIRCLE
  8
255
 10
130.1750
 20
31.7500
 30
0.0000
 40
1.2700
  0
CIRCLE
  8
255
 10
133.3500
 20
28.5750
 30
0.0000
 40
1.2700
  0
CIRCLE
  8
255
 10
130.1750
 20
25.4000
 30
0.0000
 40
1.2700
  0
CIRCLE
  8
255
 10
193.6750
 20
31.7500
 30
0.0000
 40
1.2700
  0
CIRCLE
  8
255
 10
193.6750
 20
38.1000
 30
0.0000
 40
1.2700
  0
CIRCLE
  8
255
 10
196.8500
 20
34.9250
 30
0.0000
 40
1.2700
  0
CIRCLE
  8
255
 10
193.6750
 20
25.4000
 30
0.0000
 40
1.2700
  0
CIRCLE
  8
255
 10
196.8500
 20
28.5750
 30
0.0000
 40
1.2700
  0
CIRCLE
  8
255
 10
200.0250
 20
25.4000
 30
0.0000
 40
1.2700
  0
CIRCLE
  8
255
 10
200.0250
 20
31.7500
 30
0.0000
 40
1.2700
  0
CIRCLE
  8
255
 10
200.0250
 20
38.1000
 30
0.0000
 40
1.2700
  0
CIRCLE
  8
255
 10
187.3250
 20
38.1000
 30
0.0000
 40
1.2700
  0
CIRCLE
  8
255
 10
190.5000
 20
34.9250
 30
0.0000
 40
1.2700
  0
CIRCLE
  8
255
 10
187.3250
 20
31.7500
 30
0.0000
 40
1.2700
  0
CIRCLE
  8
255
 10
190.5000
 20
28.5750
 30
0.0000
 40
1.2700
  0
CIRCLE
  8
255
 10
187.3250
 20
25.4000
 30
0.0000
 40
1.2700
  0
CIRCLE
  8
255
 10
269.8750
 20
31.7500
 30
0.0000
 40
1.2700
  0
CIRCLE
  8
255
 10
269.8750
 20
38.1000
 30
0.0000
 40
1.2700
  0
CIRCLE
  8
255
 10
273.0500
 20
34.9250
 30
0.0000
 40
1.2700
  0
CIRCLE
  8
255
 10
269.8750
 20
25.4000
 30
0.0000
 40
1.2700
  0
CIRCLE
  8
255
 10
273.0500
 20
28.5750
 30
0.0000
 40
1.2700
  0
CIRCLE
  8
255
 10
276.2250
 20
25.4000
 30
0.0000
 40
1.2700
  0
CIRCLE
  8
255
 10
276.2250
 20
31.7500
 30
0.0000
 40
1.2700
  0
CIRCLE
  8
255
 10
276.2250
 20
38.1000
 30
0.0000
 40
1.2700
  0
CIRCLE
  8
255
 10
263.5250
 20
38.1000
 30
0.0000
 40
1.2700
  0
CIRCLE
  8
255
 10
266.7000
 20
34.9250
 30
0.0000
 40
1.2700
  0
CIRCLE
  8
255
 10
263.5250
 20
31.7500
 30
0.0000
 40
1.2700
  0
CIRCLE
  8
255
 10
266.7000
 20
28.5750
 30
0.0000
 40
1.2700
  0
CIRCLE
  8
255
 10
263.5250
 20
25.4000
 30
0.0000
 40
1.2700
  0
CIRCLE
  8
255
 10
374.6500
 20
31.7500
 30
0.0000
 40
1.2700
  0
CIRCLE
  8
255
 10
374.6500
 20
38.1000
 30
0.0000
 40
1.2700
  0
CIRCLE
  8
255
 10
377.8250
 20
34.9250
 30
0.0000
 40
1.2700
  0
CIRCLE
  8
255
 10
374.6500
 20
25.4000
 30
0.0000
 40
1.2700
  0
CIRCLE
  8
255
 10
377.8250
 20
28.5750
 30
0.0000
 40
1.2700
  0
CIRCLE
  8
255
 10
381.0000
 20
25.4000
 30
0.0000
 40
1.2700
  0
CIRCLE
  8
255
 10
381.0000
 20
31.7500
 30
0.0000
 40
1.2700
  0
CIRCLE
  8
255
 10
381.0000
 20
38.1000
 30
0.0000
 40
1.2700
  0
CIRCLE
  8
255
 10
368.3000
 20
38.1000
 30
0.0000
 40
1.2700
  0
CIRCLE
  8
255
 10
371.4750
 20
34.9250
 30
0.0000
 40
1.2700
  0
CIRCLE
  8
255
 10
368.3000
 20
31.7500
 30
0.0000
 40
1.2700
  0
CIRCLE
  8
255
 10
371.4750
 20
28.5750
 30
0.0000
 40
1.2700
  0
CIRCLE
  8
255
 10
368.3000
 20
25.4000
 30
0.0000
 40
1.2700
  0
CIRCLE
  8
255
 10
327.0250
 20
31.7500
 30
0.0000
 40
1.2700
  0
CIRCLE
  8
255
 10
327.0250
 20
38.1000
 30
0.0000
 40
1.2700
  0
CIRCLE
  8
255
 10
330.2000
 20
34.9250
 30
0.0000
 40
1.2700
  0
CIRCLE
  8
255
 10
327.0250
 20
25.4000
 30
0.0000
 40
1.2700
  0
CIRCLE
  8
255
 10
330.2000
 20
28.5750
 30
0.0000
 40
1.2700
  0
CIRCLE
  8
255
 10
333.3750
 20
25.4000
 30
0.0000
 40
1.2700
  0
CIRCLE
  8
255
 10
333.3750
 20
31.7500
 30
0.0000
 40
1.2700
  0
CIRCLE
  8
255
 10
333.3750
 20
38.1000
 30
0.0000
 40
1.2700
  0
CIRCLE
  8
255
 10
320.6750
 20
38.1000
 30
0.0000
 40
1.2700
  0
CIRCLE
  8
255
 10
323.8500
 20
34.9250
 30
0.0000
 40
1.2700
  0
CIRCLE
  8
255
 10
320.6750
 20
31.7500
 30
0.0000
 40
1.2700
  0
CIRCLE
  8
255
 10
323.8500
 20
28.5750
 30
0.0000
 40
1.2700
  0
CIRCLE
  8
255
 10
320.6750
 20
25.4000
 30
0.0000
 40
1.2700
  0
CIRCLE
  8
255
 10
6.3500
 20
31.7500
 30
0.0000
 40
1.2700
  0
CIRCLE
  8
255
 10
6.3500
 20
38.1000
 30
0.0000
 40
1.2700
  0
CIRCLE
  8
255
 10
9.5250
 20
34.9250
 30
0.0000
 40
1.2700
  0
CIRCLE
  8
255
 10
6.3500
 20
25.4000
 30
0.0000
 40
1.2700
  0
CIRCLE
  8
255
 10
9.5250
 20
28.5750
 30
0.0000
 40
1.2700
  0
CIRCLE
  8
255
 10
339.7250
 20
31.7500
 30
0.0000
 40
1.2700
  0
CIRCLE
  8
255
 10
339.7250
 20
25.4000
 30
0.0000
 40
1.2700
  0
CIRCLE
  8
255
 10
336.5500
 20
28.5750
 30
0.0000
 40
1.2700
  0
CIRCLE
  8
255
 10
339.7250
 20
38.1000
 30
0.0000
 40
1.2700
  0
CIRCLE
  8
255
 10
336.5500
 20
34.9250
 30
0.0000
 40
1.2700
  0
CIRCLE
  8
255
 10
69.8500
 20
53.9750
 30
0.0000
 40
1.2700
  0
CIRCLE
  8
255
 10
73.0250
 20
57.1500
 30
0.0000
 40
1.2700
  0
CIRCLE
  8
255
 10
73.0250
 20
50.8000
 30
0.0000
 40
1.2700
  0
CIRCLE
  8
255
 10
69.8500
 20
47.6250
 30
0.0000
 40
1.2700
  0
CIRCLE
  8
255
 10
73.0250
 20
44.4500
 30
0.0000
 40
1.2700
  0
CIRCLE
  8
255
 10
76.2000
 20
47.6250
 30
0.0000
 40
1.2700
  0
CIRCLE
  8
255
 10
76.2000
 20
53.9750
 30
0.0000
 40
1.2700
  0
CIRCLE
  8
255
 10
66.6750
 20
57.1500
 30
0.0000
 40
1.2700
  0
CIRCLE
  8
255
 10
66.6750
 20
50.8000
 30
0.0000
 40
1.2700
  0
CIRCLE
  8
255
 10
63.5000
 20
53.9750
 30
0.0000
 40
1.2700
  0
CIRCLE
  8
255
 10
66.6750
 20
44.4500
 30
0.0000
 40
1.2700
  0
CIRCLE
  8
255
 10
63.5000
 20
47.6250
 30
0.0000
 40
1.2700
  0
CIRCLE
  8
255
 10
142.8750
 20
50.8000
 30
0.0000
 40
1.2700
  0
CIRCLE
  8
255
 10
139.7000
 20
53.9750
 30
0.0000
 40
1.2700
  0
CIRCLE
  8
255
 10
146.0500
 20
53.9750
 30
0.0000
 40
1.2700
  0
CIRCLE
  8
255
 10
149.2250
 20
50.8000
 30
0.0000
 40
1.2700
  0
CIRCLE
  8
255
 10
152.4000
 20
53.9750
 30
0.0000
 40
1.2700
  0
CIRCLE
  8
255
 10
149.2250
 20
57.1500
 30
0.0000
 40
1.2700
  0
CIRCLE
  8
255
 10
142.8750
 20
57.1500
 30
0.0000
 40
1.2700
  0
CIRCLE
  8
255
 10
139.7000
 20
47.6250
 30
0.0000
 40
1.2700
  0
CIRCLE
  8
255
 10
146.0500
 20
47.6250
 30
0.0000
 40
1.2700
  0
CIRCLE
  8
255
 10
142.8750
 20
44.4500
 30
0.0000
 40
1.2700
  0
CIRCLE
  8
255
 10
152.4000
 20
47.6250
 30
0.0000
 40
1.2700
  0
CIRCLE
  8
255
 10
149.2250
 20
44.4500
 30
0.0000
 40
1.2700
  0
CIRCLE
  8
255
 10
184.1500
 20
53.9750
 30
0.0000
 40
1.2700
  0
CIRCLE
  8
255
 10
187.3250
 20
57.1500
 30
0.0000
 40
1.2700
  0
CIRCLE
  8
255
 10
187.3250
 20
50.8000
 30
0.0000
 40
1.2700
  0
CIRCLE
  8
255
 10
184.1500
 20
47.6250
 30
0.0000
 40
1.2700
  0
CIRCLE
  8
255
 10
187.3250
 20
44.4500
 30
0.0000
 40
1.2700
  0
CIRCLE
  8
255
 10
190.5000
 20
47.6250
 30
0.0000
 40
1.2700
  0
CIRCLE
  8
255
 10
190.5000
 20
53.9750
 30
0.0000
 40
1.2700
  0
CIRCLE
  8
255
 10
180.9750
 20
57.1500
 30
0.0000
 40
1.2700
  0
CIRCLE
  8
255
 10
180.9750
 20
50.8000
 30
0.0000
 40
1.2700
  0
CIRCLE
  8
255
 10
177.8000
 20
53.9750
 30
0.0000
 40
1.2700
  0
CIRCLE
  8
255
 10
180.9750
 20
44.4500
 30
0.0000
 40
1.2700
  0
CIRCLE
  8
255
 10
177.8000
 20
47.6250
 30
0.0000
 40
1.2700
  0
CIRCLE
  8
255
 10
260.3500
 20
53.9750
 30
0.0000
 40
1.2700
  0
CIRCLE
  8
255
 10
263.5250
 20
57.1500
 30
0.0000
 40
1.2700
  0
CIRCLE
  8
255
 10
263.5250
 20
50.8000
 30
0.0000
 40
1.2700
  0
CIRCLE
  8
255
 10
260.3500
 20
47.6250
 30
0.0000
 40
1.2700
  0
CIRCLE
  8
255
 10
263.5250
 20
44.4500
 30
0.0000
 40
1.2700
  0
CIRCLE
  8
255
 10
266.7000
 20
47.6250
 30
0.0000
 40
1.2700
  0
CIRCLE
  8
255
 10
266.7000
 20
53.9750
 30
0.0000
 40
1.2700
  0
CIRCLE
  8
255
 10
257.1750
 20
57.1500
 30
0.0000
 40
1.2700
  0
CIRCLE
  8
255
 10
257.1750
 20
50.8000
 30
0.0000
 40
1.2700
  0
CIRCLE
  8
255
 10
254.0000
 20
53.9750
 30
0.0000
 40
1.2700
  0
CIRCLE
  8
255
 10
257.1750
 20
44.4500
 30
0.0000
 40
1.2700
  0
CIRCLE
  8
255
 10
254.0000
 20
47.6250
 30
0.0000
 40
1.2700
  0
CIRCLE
  8
255
 10
317.5000
 20
53.9750
 30
0.0000
 40
1.2700
  0
CIRCLE
  8
255
 10
320.6750
 20
57.1500
 30
0.0000
 40
1.2700
  0
CIRCLE
  8
255
 10
320.6750
 20
50.8000
 30
0.0000
 40
1.2700
  0
CIRCLE
  8
255
 10
317.5000
 20
47.6250
 30
0.0000
 40
1.2700
  0
CIRCLE
  8
255
 10
320.6750
 20
44.4500
 30
0.0000
 40
1.2700
  0
CIRCLE
  8
255
 10
323.8500
 20
47.6250
 30
0.0000
 40
1.2700
  0
CIRCLE
  8
255
 10
323.8500
 20
53.9750
 30
0.0000
 40
1.2700
  0
CIRCLE
  8
255
 10
314.3250
 20
57.1500
 30
0.0000
 40
1.2700
  0
CIRCLE
  8
255
 10
314.3250
 20
50.8000
 30
0.0000
 40
1.2700
  0
CIRCLE
  8
255
 10
311.1500
 20
53.9750
 30
0.0000
 40
1.2700
  0
CIRCLE
  8
255
 10
314.3250
 20
44.4500
 30
0.0000
 40
1.2700
  0
CIRCLE
  8
255
 10
311.1500
 20
47.6250
 30
0.0000
 40
1.2700
  0
CIRCLE
  8
255
 10
60.3250
 20
50.8000
 30
0.0000
 40
1.2700
  0
CIRCLE
  8
255
 10
60.3250
 20
44.4500
 30
0.0000
 40
1.2700
  0
CIRCLE
  8
255
 10
57.1500
 20
47.6250
 30
0.0000
 40
1.2700
  0
CIRCLE
  8
255
 10
60.3250
 20
57.1500
 30
0.0000
 40
1.2700
  0
CIRCLE
  8
255
 10
57.1500
 20
53.9750
 30
0.0000
 40
1.2700
  0
CIRCLE
  8
255
 10
323.8500
 20
41.2750
 30
0.0000
 40
1.2700
  0
CIRCLE
  8
255
 10
190.5000
 20
41.2750
 30
0.0000
 40
1.2700
  0
CIRCLE
  8
255
 10
57.1500
 20
41.2750
 30
0.0000
 40
1.2700
  0
CIRCLE
  8
255
 10
139.7000
 20
41.2750
 30
0.0000
 40
1.2700
  0
CIRCLE
  8
255
 10
63.5000
 20
41.2750
 30
0.0000
 40
1.2700
  0
CIRCLE
  8
255
 10
53.9750
 20
50.8000
 30
0.0000
 40
1.2700
  0
CIRCLE
  8
255
 10
53.9750
 20
44.4500
 30
0.0000
 40
1.2700
  0
CIRCLE
  8
255
 10
53.9750
 20
57.1500
 30
0.0000
 40
1.2700
  0
CIRCLE
  8
255
 10
266.7000
 20
41.2750
 30
0.0000
 40
1.2700
  0
CIRCLE
  8
255
 10
342.9000
 20
28.5750
 30
0.0000
 40
1.2700
  0
CIRCLE
  8
255
 10
342.9000
 20
34.9250
 30
0.0000
 40
1.2700
  0
ENDSEC
  0
EOF
