G04 EAGLE Gerber RS-274X export*
G75*
%MOMM*%
%FSLAX34Y34*%
%LPD*%
%INBottom Copper*%
%IPPOS*%
%AMOC8*
5,1,8,0,0,1.08239X$1,22.5*%
G01*
%ADD10C,1.508000*%
%ADD11R,2.500000X2.000000*%
%ADD12C,1.524000*%
%ADD13C,0.756400*%
%ADD14C,0.304800*%

G36*
X97154Y12077D02*
X97154Y12077D01*
X97254Y12079D01*
X97327Y12097D01*
X97400Y12106D01*
X97495Y12139D01*
X97592Y12164D01*
X97659Y12198D01*
X97729Y12223D01*
X97813Y12278D01*
X97902Y12324D01*
X97959Y12372D01*
X98021Y12412D01*
X98091Y12484D01*
X98168Y12549D01*
X98212Y12609D01*
X98264Y12663D01*
X98315Y12749D01*
X98375Y12830D01*
X98404Y12898D01*
X98442Y12962D01*
X98473Y13058D01*
X98513Y13150D01*
X98526Y13223D01*
X98549Y13294D01*
X98557Y13394D01*
X98574Y13493D01*
X98571Y13567D01*
X98577Y13641D01*
X98562Y13741D01*
X98557Y13841D01*
X98536Y13912D01*
X98525Y13986D01*
X98488Y14079D01*
X98460Y14176D01*
X98424Y14241D01*
X98396Y14310D01*
X98339Y14392D01*
X98290Y14480D01*
X98225Y14556D01*
X98197Y14596D01*
X98171Y14620D01*
X98131Y14666D01*
X97022Y15775D01*
X95630Y19136D01*
X95630Y38014D01*
X97023Y41375D01*
X99595Y43947D01*
X102956Y45340D01*
X106594Y45340D01*
X109955Y43947D01*
X112527Y41375D01*
X113920Y38014D01*
X113920Y19136D01*
X112528Y15775D01*
X111419Y14666D01*
X111356Y14587D01*
X111286Y14515D01*
X111248Y14451D01*
X111202Y14393D01*
X111159Y14302D01*
X111108Y14216D01*
X111085Y14145D01*
X111053Y14078D01*
X111032Y13980D01*
X111001Y13884D01*
X110995Y13810D01*
X110980Y13737D01*
X110981Y13637D01*
X110973Y13537D01*
X110984Y13463D01*
X110986Y13389D01*
X111010Y13292D01*
X111025Y13192D01*
X111053Y13123D01*
X111071Y13051D01*
X111117Y12962D01*
X111154Y12868D01*
X111196Y12807D01*
X111230Y12741D01*
X111295Y12665D01*
X111353Y12582D01*
X111408Y12532D01*
X111456Y12476D01*
X111537Y12416D01*
X111612Y12349D01*
X111677Y12313D01*
X111736Y12268D01*
X111829Y12229D01*
X111917Y12180D01*
X111988Y12160D01*
X112056Y12130D01*
X112155Y12113D01*
X112252Y12085D01*
X112352Y12077D01*
X112399Y12069D01*
X112435Y12071D01*
X112496Y12066D01*
X122454Y12066D01*
X122554Y12077D01*
X122654Y12079D01*
X122727Y12097D01*
X122800Y12106D01*
X122895Y12139D01*
X122992Y12164D01*
X123059Y12198D01*
X123129Y12223D01*
X123213Y12278D01*
X123302Y12324D01*
X123359Y12372D01*
X123421Y12412D01*
X123491Y12484D01*
X123568Y12549D01*
X123612Y12609D01*
X123664Y12663D01*
X123715Y12749D01*
X123775Y12830D01*
X123804Y12898D01*
X123842Y12962D01*
X123873Y13058D01*
X123913Y13150D01*
X123926Y13223D01*
X123949Y13294D01*
X123957Y13394D01*
X123974Y13493D01*
X123971Y13567D01*
X123977Y13641D01*
X123962Y13741D01*
X123957Y13841D01*
X123936Y13912D01*
X123925Y13986D01*
X123888Y14079D01*
X123860Y14176D01*
X123824Y14241D01*
X123796Y14310D01*
X123739Y14392D01*
X123690Y14480D01*
X123625Y14556D01*
X123597Y14596D01*
X123571Y14620D01*
X123531Y14666D01*
X122422Y15775D01*
X121030Y19136D01*
X121030Y38014D01*
X122423Y41375D01*
X124995Y43947D01*
X128356Y45340D01*
X131994Y45340D01*
X135355Y43947D01*
X137927Y41375D01*
X139320Y38014D01*
X139320Y19136D01*
X137928Y15775D01*
X136819Y14666D01*
X136756Y14587D01*
X136686Y14515D01*
X136648Y14451D01*
X136602Y14393D01*
X136559Y14302D01*
X136508Y14216D01*
X136485Y14145D01*
X136453Y14078D01*
X136432Y13980D01*
X136401Y13884D01*
X136395Y13810D01*
X136380Y13737D01*
X136381Y13637D01*
X136373Y13537D01*
X136384Y13463D01*
X136386Y13389D01*
X136410Y13292D01*
X136425Y13192D01*
X136453Y13123D01*
X136471Y13051D01*
X136517Y12962D01*
X136554Y12868D01*
X136596Y12807D01*
X136630Y12741D01*
X136695Y12665D01*
X136753Y12582D01*
X136808Y12532D01*
X136856Y12476D01*
X136937Y12416D01*
X137012Y12349D01*
X137077Y12313D01*
X137136Y12268D01*
X137229Y12229D01*
X137317Y12180D01*
X137388Y12160D01*
X137456Y12130D01*
X137555Y12113D01*
X137652Y12085D01*
X137752Y12077D01*
X137799Y12069D01*
X137835Y12071D01*
X137896Y12066D01*
X146485Y12066D01*
X146639Y12084D01*
X146793Y12097D01*
X146812Y12103D01*
X146831Y12106D01*
X146977Y12158D01*
X147124Y12207D01*
X147141Y12217D01*
X147159Y12223D01*
X147289Y12307D01*
X147422Y12388D01*
X147435Y12402D01*
X147452Y12412D01*
X147560Y12524D01*
X147670Y12632D01*
X147680Y12649D01*
X147694Y12663D01*
X147774Y12796D01*
X147856Y12927D01*
X147863Y12945D01*
X147873Y12962D01*
X147920Y13109D01*
X147971Y13256D01*
X147973Y13275D01*
X147979Y13294D01*
X147991Y13448D01*
X148008Y13603D01*
X148005Y13622D01*
X148007Y13641D01*
X147984Y13794D01*
X147965Y13949D01*
X147958Y13967D01*
X147955Y13986D01*
X147898Y14130D01*
X147844Y14276D01*
X147832Y14295D01*
X147826Y14310D01*
X147802Y14346D01*
X147717Y14484D01*
X146885Y15630D01*
X146159Y17055D01*
X145664Y18576D01*
X145414Y20155D01*
X145414Y26036D01*
X154559Y26036D01*
X154585Y26039D01*
X154611Y26037D01*
X154758Y26059D01*
X154905Y26076D01*
X154930Y26084D01*
X154956Y26088D01*
X155093Y26143D01*
X155233Y26193D01*
X155255Y26207D01*
X155280Y26217D01*
X155401Y26302D01*
X155526Y26382D01*
X155544Y26401D01*
X155566Y26416D01*
X155580Y26432D01*
X155665Y26350D01*
X155688Y26336D01*
X155707Y26319D01*
X155837Y26247D01*
X155964Y26171D01*
X155989Y26163D01*
X156012Y26150D01*
X156155Y26110D01*
X156296Y26065D01*
X156322Y26062D01*
X156347Y26055D01*
X156591Y26036D01*
X165736Y26036D01*
X165736Y20155D01*
X165486Y18576D01*
X164991Y17055D01*
X164265Y15630D01*
X163433Y14484D01*
X163357Y14349D01*
X163277Y14216D01*
X163271Y14198D01*
X163262Y14181D01*
X163218Y14031D01*
X163171Y13884D01*
X163170Y13865D01*
X163164Y13846D01*
X163155Y13691D01*
X163143Y13537D01*
X163146Y13518D01*
X163145Y13498D01*
X163172Y13345D01*
X163195Y13192D01*
X163202Y13174D01*
X163205Y13155D01*
X163266Y13012D01*
X163324Y12868D01*
X163335Y12852D01*
X163342Y12835D01*
X163434Y12709D01*
X163522Y12582D01*
X163537Y12569D01*
X163548Y12554D01*
X163666Y12452D01*
X163781Y12349D01*
X163798Y12339D01*
X163813Y12327D01*
X163950Y12255D01*
X164086Y12180D01*
X164105Y12175D01*
X164122Y12166D01*
X164272Y12128D01*
X164422Y12085D01*
X164445Y12083D01*
X164460Y12080D01*
X164503Y12079D01*
X164665Y12066D01*
X173254Y12066D01*
X173354Y12077D01*
X173454Y12079D01*
X173527Y12097D01*
X173600Y12106D01*
X173695Y12139D01*
X173792Y12164D01*
X173859Y12198D01*
X173929Y12223D01*
X174013Y12278D01*
X174102Y12324D01*
X174159Y12372D01*
X174221Y12412D01*
X174291Y12484D01*
X174368Y12549D01*
X174412Y12609D01*
X174464Y12663D01*
X174515Y12749D01*
X174575Y12830D01*
X174604Y12898D01*
X174642Y12962D01*
X174673Y13058D01*
X174713Y13150D01*
X174726Y13223D01*
X174749Y13294D01*
X174757Y13394D01*
X174774Y13493D01*
X174771Y13567D01*
X174777Y13641D01*
X174762Y13741D01*
X174757Y13841D01*
X174736Y13912D01*
X174725Y13986D01*
X174688Y14079D01*
X174660Y14176D01*
X174624Y14241D01*
X174596Y14310D01*
X174539Y14392D01*
X174490Y14480D01*
X174425Y14556D01*
X174397Y14596D01*
X174371Y14620D01*
X174331Y14666D01*
X173222Y15775D01*
X171830Y19136D01*
X171830Y38014D01*
X173223Y41375D01*
X175795Y43947D01*
X179156Y45340D01*
X182794Y45340D01*
X186155Y43947D01*
X188727Y41375D01*
X190120Y38014D01*
X190120Y19136D01*
X188728Y15775D01*
X187619Y14666D01*
X187556Y14587D01*
X187486Y14515D01*
X187448Y14451D01*
X187402Y14393D01*
X187359Y14302D01*
X187308Y14216D01*
X187285Y14145D01*
X187253Y14078D01*
X187232Y13980D01*
X187201Y13884D01*
X187195Y13810D01*
X187180Y13737D01*
X187181Y13637D01*
X187173Y13537D01*
X187184Y13463D01*
X187186Y13389D01*
X187210Y13292D01*
X187225Y13192D01*
X187253Y13123D01*
X187271Y13051D01*
X187317Y12962D01*
X187354Y12868D01*
X187396Y12807D01*
X187430Y12741D01*
X187495Y12665D01*
X187553Y12582D01*
X187608Y12532D01*
X187656Y12476D01*
X187737Y12416D01*
X187812Y12349D01*
X187877Y12313D01*
X187936Y12268D01*
X188029Y12229D01*
X188117Y12180D01*
X188188Y12160D01*
X188256Y12130D01*
X188355Y12113D01*
X188452Y12085D01*
X188552Y12077D01*
X188599Y12069D01*
X188635Y12071D01*
X188696Y12066D01*
X237236Y12066D01*
X237262Y12069D01*
X237288Y12067D01*
X237435Y12089D01*
X237582Y12106D01*
X237607Y12114D01*
X237633Y12118D01*
X237771Y12173D01*
X237910Y12223D01*
X237932Y12237D01*
X237957Y12247D01*
X238078Y12332D01*
X238203Y12412D01*
X238221Y12431D01*
X238243Y12446D01*
X238342Y12556D01*
X238445Y12663D01*
X238459Y12685D01*
X238476Y12705D01*
X238548Y12835D01*
X238624Y12962D01*
X238632Y12987D01*
X238645Y13010D01*
X238685Y13153D01*
X238730Y13294D01*
X238732Y13320D01*
X238740Y13345D01*
X238759Y13589D01*
X238759Y99562D01*
X238742Y99711D01*
X238730Y99861D01*
X238722Y99884D01*
X238719Y99908D01*
X238669Y100049D01*
X238623Y100193D01*
X238610Y100213D01*
X238602Y100236D01*
X238520Y100362D01*
X238443Y100491D01*
X238426Y100509D01*
X238413Y100529D01*
X238305Y100633D01*
X238200Y100741D01*
X238180Y100754D01*
X238162Y100771D01*
X238033Y100848D01*
X237907Y100929D01*
X237884Y100938D01*
X237863Y100950D01*
X237720Y100996D01*
X237578Y101046D01*
X237554Y101049D01*
X237531Y101056D01*
X237382Y101068D01*
X237232Y101085D01*
X237208Y101082D01*
X237184Y101084D01*
X237035Y101062D01*
X236886Y101044D01*
X236858Y101035D01*
X236839Y101032D01*
X236795Y101015D01*
X236653Y100969D01*
X235244Y100385D01*
X233132Y100385D01*
X231037Y101253D01*
X230977Y101282D01*
X230866Y101343D01*
X230820Y101356D01*
X230776Y101377D01*
X230653Y101403D01*
X230531Y101438D01*
X230470Y101443D01*
X230435Y101450D01*
X230387Y101449D01*
X230287Y101457D01*
X214371Y101457D01*
X214245Y101443D01*
X214119Y101436D01*
X214073Y101423D01*
X214025Y101417D01*
X213906Y101375D01*
X213784Y101340D01*
X213742Y101316D01*
X213697Y101300D01*
X213590Y101231D01*
X213480Y101170D01*
X213434Y101130D01*
X213404Y101111D01*
X213370Y101076D01*
X213294Y101011D01*
X212290Y100007D01*
X210339Y99199D01*
X208228Y99199D01*
X206278Y100007D01*
X204785Y101500D01*
X203977Y103450D01*
X203977Y105562D01*
X204785Y107512D01*
X206278Y109005D01*
X208228Y109813D01*
X210339Y109813D01*
X212290Y109005D01*
X213294Y108001D01*
X213393Y107922D01*
X213487Y107838D01*
X213529Y107814D01*
X213567Y107784D01*
X213681Y107730D01*
X213792Y107669D01*
X213838Y107656D01*
X213882Y107635D01*
X214005Y107609D01*
X214127Y107574D01*
X214188Y107569D01*
X214223Y107562D01*
X214271Y107563D01*
X214371Y107555D01*
X228198Y107555D01*
X228274Y107563D01*
X228350Y107562D01*
X228446Y107583D01*
X228544Y107595D01*
X228616Y107620D01*
X228691Y107637D01*
X228779Y107679D01*
X228872Y107712D01*
X228936Y107754D01*
X229005Y107786D01*
X229082Y107848D01*
X229165Y107901D01*
X229218Y107956D01*
X229278Y108004D01*
X229339Y108081D01*
X229407Y108152D01*
X229446Y108217D01*
X229494Y108277D01*
X229562Y108410D01*
X229586Y108451D01*
X229592Y108469D01*
X229605Y108495D01*
X229689Y108698D01*
X231182Y110191D01*
X233132Y110999D01*
X235244Y110999D01*
X236653Y110415D01*
X236798Y110374D01*
X236941Y110328D01*
X236965Y110326D01*
X236988Y110319D01*
X237139Y110312D01*
X237288Y110300D01*
X237312Y110303D01*
X237336Y110302D01*
X237484Y110329D01*
X237633Y110352D01*
X237655Y110360D01*
X237679Y110365D01*
X237817Y110425D01*
X237957Y110480D01*
X237977Y110494D01*
X237999Y110504D01*
X238120Y110593D01*
X238243Y110679D01*
X238259Y110697D01*
X238279Y110712D01*
X238376Y110826D01*
X238476Y110938D01*
X238488Y110959D01*
X238504Y110978D01*
X238572Y111111D01*
X238645Y111243D01*
X238651Y111266D01*
X238662Y111288D01*
X238699Y111433D01*
X238740Y111578D01*
X238742Y111608D01*
X238747Y111626D01*
X238747Y111673D01*
X238759Y111822D01*
X238759Y189611D01*
X238756Y189637D01*
X238758Y189663D01*
X238736Y189810D01*
X238719Y189957D01*
X238711Y189982D01*
X238707Y190008D01*
X238652Y190146D01*
X238602Y190285D01*
X238588Y190307D01*
X238578Y190332D01*
X238493Y190453D01*
X238413Y190578D01*
X238394Y190596D01*
X238379Y190618D01*
X238269Y190717D01*
X238162Y190820D01*
X238140Y190834D01*
X238120Y190851D01*
X237990Y190923D01*
X237863Y190999D01*
X237838Y191007D01*
X237815Y191020D01*
X237672Y191060D01*
X237531Y191105D01*
X237505Y191107D01*
X237480Y191115D01*
X237236Y191134D01*
X13589Y191134D01*
X13563Y191131D01*
X13537Y191133D01*
X13390Y191111D01*
X13243Y191094D01*
X13218Y191086D01*
X13192Y191082D01*
X13054Y191027D01*
X12915Y190977D01*
X12893Y190963D01*
X12868Y190953D01*
X12747Y190868D01*
X12622Y190788D01*
X12604Y190769D01*
X12582Y190754D01*
X12483Y190644D01*
X12380Y190537D01*
X12366Y190515D01*
X12349Y190495D01*
X12277Y190365D01*
X12201Y190238D01*
X12193Y190213D01*
X12180Y190190D01*
X12140Y190047D01*
X12095Y189906D01*
X12093Y189880D01*
X12085Y189855D01*
X12066Y189611D01*
X12066Y13589D01*
X12069Y13563D01*
X12067Y13537D01*
X12089Y13390D01*
X12106Y13243D01*
X12114Y13218D01*
X12118Y13192D01*
X12173Y13054D01*
X12223Y12915D01*
X12237Y12893D01*
X12247Y12868D01*
X12332Y12747D01*
X12412Y12622D01*
X12431Y12604D01*
X12446Y12582D01*
X12556Y12483D01*
X12663Y12380D01*
X12685Y12366D01*
X12705Y12349D01*
X12835Y12277D01*
X12962Y12201D01*
X12987Y12193D01*
X13010Y12180D01*
X13153Y12140D01*
X13294Y12095D01*
X13320Y12093D01*
X13345Y12085D01*
X13589Y12066D01*
X97054Y12066D01*
X97154Y12077D01*
G37*
%LPC*%
G36*
X177243Y156750D02*
X177243Y156750D01*
X176350Y157643D01*
X176350Y178907D01*
X177243Y179800D01*
X203507Y179800D01*
X204400Y178907D01*
X204400Y157643D01*
X203507Y156750D01*
X177243Y156750D01*
G37*
%LPD*%
%LPC*%
G36*
X82243Y156750D02*
X82243Y156750D01*
X81350Y157643D01*
X81350Y178907D01*
X82243Y179800D01*
X108507Y179800D01*
X109400Y178907D01*
X109400Y157643D01*
X108507Y156750D01*
X82243Y156750D01*
G37*
%LPD*%
%LPC*%
G36*
X166872Y84210D02*
X166872Y84210D01*
X163540Y85590D01*
X160990Y88140D01*
X159610Y91472D01*
X159610Y95078D01*
X160990Y98410D01*
X163540Y100960D01*
X166872Y102340D01*
X170478Y102340D01*
X173810Y100960D01*
X176360Y98410D01*
X177740Y95078D01*
X177740Y91472D01*
X176360Y88140D01*
X173810Y85590D01*
X170478Y84210D01*
X166872Y84210D01*
G37*
%LPD*%
%LPC*%
G36*
X141072Y84210D02*
X141072Y84210D01*
X137740Y85590D01*
X135190Y88140D01*
X133810Y91472D01*
X133810Y95078D01*
X135190Y98410D01*
X137740Y100960D01*
X141072Y102340D01*
X144678Y102340D01*
X148010Y100960D01*
X150560Y98410D01*
X151940Y95078D01*
X151940Y91472D01*
X150560Y88140D01*
X148010Y85590D01*
X144678Y84210D01*
X141072Y84210D01*
G37*
%LPD*%
%LPC*%
G36*
X116072Y84210D02*
X116072Y84210D01*
X112740Y85590D01*
X110190Y88140D01*
X108810Y91472D01*
X108810Y95078D01*
X110190Y98410D01*
X112740Y100960D01*
X116072Y102340D01*
X119678Y102340D01*
X123010Y100960D01*
X125560Y98410D01*
X126940Y95078D01*
X126940Y91472D01*
X125560Y88140D01*
X123010Y85590D01*
X119678Y84210D01*
X116072Y84210D01*
G37*
%LPD*%
%LPC*%
G36*
X158114Y31114D02*
X158114Y31114D01*
X158114Y46054D01*
X159475Y45611D01*
X160900Y44885D01*
X162194Y43945D01*
X163325Y42814D01*
X164265Y41520D01*
X164991Y40095D01*
X165486Y38574D01*
X165736Y36995D01*
X165736Y31114D01*
X158114Y31114D01*
G37*
%LPD*%
%LPC*%
G36*
X145414Y31114D02*
X145414Y31114D01*
X145414Y36995D01*
X145664Y38574D01*
X146159Y40095D01*
X146885Y41520D01*
X147825Y42814D01*
X148956Y43945D01*
X150250Y44885D01*
X151675Y45611D01*
X153036Y46054D01*
X153036Y31114D01*
X145414Y31114D01*
G37*
%LPD*%
D10*
X117875Y93275D03*
X142875Y93275D03*
X168675Y93275D03*
D11*
X95375Y168275D03*
X190375Y168275D03*
D12*
X104775Y36195D02*
X104775Y20955D01*
X130175Y20955D02*
X130175Y36195D01*
X155575Y36195D02*
X155575Y20955D01*
X180975Y20955D02*
X180975Y36195D01*
D13*
X117475Y44450D03*
X142875Y44450D03*
X168275Y44450D03*
X87313Y122238D03*
X222250Y159544D03*
X52388Y130175D03*
X120537Y108063D03*
X192881Y55563D03*
X234188Y105692D03*
D14*
X233002Y104506D01*
X209284Y104506D01*
D13*
X209284Y104506D03*
M02*
