G04 EAGLE Gerber RS-274X export*
G75*
%MOMM*%
%FSLAX34Y34*%
%LPD*%
%INTop Copper*%
%IPPOS*%
%AMOC8*
5,1,8,0,0,1.08239X$1,22.5*%
G01*
%ADD10R,1.651000X0.635000*%
%ADD11R,0.700000X0.900000*%
%ADD12C,0.222250*%
%ADD13R,1.500000X1.600000*%
%ADD14R,1.200000X1.200000*%
%ADD15R,0.900000X0.700000*%
%ADD16R,1.270000X1.270000*%
%ADD17C,1.508000*%
%ADD18R,2.500000X2.000000*%
%ADD19R,1.600200X1.168400*%
%ADD20C,1.524000*%
%ADD21C,0.304800*%
%ADD22C,0.756400*%
%ADD23C,0.254000*%


D10*
X135763Y149225D03*
X135763Y136525D03*
X135763Y123825D03*
X135763Y111125D03*
X188087Y111125D03*
X188087Y123825D03*
X188087Y136525D03*
X188087Y149225D03*
D11*
X88750Y88925D03*
X95250Y107925D03*
X101750Y88925D03*
D12*
X60166Y128111D02*
X60166Y134779D01*
X66834Y134779D01*
X66834Y128111D01*
X60166Y128111D01*
X60166Y130223D02*
X66834Y130223D01*
X66834Y132335D02*
X60166Y132335D01*
X60166Y134447D02*
X66834Y134447D01*
X60166Y119539D02*
X60166Y112871D01*
X60166Y119539D02*
X66834Y119539D01*
X66834Y112871D01*
X60166Y112871D01*
X60166Y114983D02*
X66834Y114983D01*
X66834Y117095D02*
X60166Y117095D01*
X60166Y119207D02*
X66834Y119207D01*
D13*
X215900Y91200D03*
D14*
X205900Y57950D03*
X225900Y57950D03*
D12*
X115729Y127159D02*
X109061Y127159D01*
X115729Y127159D02*
X115729Y120491D01*
X109061Y120491D01*
X109061Y127159D01*
X109061Y122603D02*
X115729Y122603D01*
X115729Y124715D02*
X109061Y124715D01*
X109061Y126827D02*
X115729Y126827D01*
X100489Y127159D02*
X93821Y127159D01*
X100489Y127159D02*
X100489Y120491D01*
X93821Y120491D01*
X93821Y127159D01*
X93821Y122603D02*
X100489Y122603D01*
X100489Y124715D02*
X93821Y124715D01*
X93821Y126827D02*
X100489Y126827D01*
X100489Y145891D02*
X93821Y145891D01*
X93821Y152559D01*
X100489Y152559D01*
X100489Y145891D01*
X100489Y148003D02*
X93821Y148003D01*
X93821Y150115D02*
X100489Y150115D01*
X100489Y152227D02*
X93821Y152227D01*
X109061Y145891D02*
X115729Y145891D01*
X109061Y145891D02*
X109061Y152559D01*
X115729Y152559D01*
X115729Y145891D01*
X115729Y148003D02*
X109061Y148003D01*
X109061Y150115D02*
X115729Y150115D01*
X115729Y152227D02*
X109061Y152227D01*
D15*
X73000Y149075D03*
X54000Y155575D03*
X73000Y162075D03*
D13*
X28575Y118350D03*
D14*
X38575Y151600D03*
X18575Y151600D03*
D15*
X54000Y98575D03*
X73000Y92075D03*
X54000Y85575D03*
D13*
X28575Y64375D03*
D14*
X38575Y97625D03*
X18575Y97625D03*
D12*
X223361Y127159D02*
X230029Y127159D01*
X230029Y120491D01*
X223361Y120491D01*
X223361Y127159D01*
X223361Y122603D02*
X230029Y122603D01*
X230029Y124715D02*
X223361Y124715D01*
X223361Y126827D02*
X230029Y126827D01*
X214789Y127159D02*
X208121Y127159D01*
X214789Y127159D02*
X214789Y120491D01*
X208121Y120491D01*
X208121Y127159D01*
X208121Y122603D02*
X214789Y122603D01*
X214789Y124715D02*
X208121Y124715D01*
X208121Y126827D02*
X214789Y126827D01*
X209391Y163036D02*
X209391Y169704D01*
X216059Y169704D01*
X216059Y163036D01*
X209391Y163036D01*
X209391Y165148D02*
X216059Y165148D01*
X216059Y167260D02*
X209391Y167260D01*
X209391Y169372D02*
X216059Y169372D01*
X209391Y154464D02*
X209391Y147796D01*
X209391Y154464D02*
X216059Y154464D01*
X216059Y147796D01*
X209391Y147796D01*
X209391Y149908D02*
X216059Y149908D01*
X216059Y152020D02*
X209391Y152020D01*
X209391Y154132D02*
X216059Y154132D01*
D16*
X231775Y146050D03*
X231775Y171450D03*
D17*
X117875Y93275D03*
X142875Y93275D03*
X168675Y93275D03*
D18*
X95375Y168275D03*
X190375Y168275D03*
D19*
X168275Y55880D03*
X168275Y71120D03*
X142875Y55880D03*
X142875Y71120D03*
X117475Y55880D03*
X117475Y71120D03*
D20*
X104775Y36195D02*
X104775Y20955D01*
X130175Y20955D02*
X130175Y36195D01*
X155575Y36195D02*
X155575Y20955D01*
X180975Y20955D02*
X180975Y36195D01*
D21*
X117475Y44450D02*
X117475Y55880D01*
D22*
X117475Y44450D03*
D21*
X142875Y44450D02*
X142875Y55880D01*
D22*
X142875Y44450D03*
D21*
X168275Y44450D02*
X168275Y55880D01*
D22*
X168275Y44450D03*
D21*
X212725Y166370D02*
X212725Y168303D01*
X230188Y173038D02*
X231775Y171450D01*
X97155Y123825D02*
X88900Y123825D01*
X87313Y122238D01*
D22*
X87313Y122238D03*
D21*
X229711Y173514D02*
X231775Y171450D01*
X219551Y159544D02*
X212725Y166370D01*
X219551Y159544D02*
X222250Y159544D01*
D22*
X222250Y159544D03*
D21*
X231775Y161925D02*
X231775Y171450D01*
X231775Y161925D02*
X229394Y159544D01*
X222250Y159544D01*
X63500Y131445D02*
X53658Y131445D01*
X52388Y130175D01*
D22*
X52388Y130175D03*
D21*
X123600Y111125D02*
X135763Y111125D01*
X123600Y111125D02*
X120537Y108063D01*
D22*
X120537Y108063D03*
D21*
X195269Y57950D02*
X205900Y57950D01*
X195269Y57950D02*
X192881Y55563D01*
D22*
X192881Y55563D03*
D23*
X97155Y149225D02*
X97005Y149075D01*
X73000Y149075D01*
X73000Y92075D01*
X54000Y98575D02*
X39525Y98575D01*
X38575Y97625D01*
X42550Y155575D02*
X54000Y155575D01*
X42550Y155575D02*
X38575Y151600D01*
X112395Y149225D02*
X135763Y149225D01*
X135763Y136525D02*
X155575Y136525D01*
X215900Y107190D02*
X215900Y91200D01*
X215900Y107190D02*
X205615Y117475D01*
X174625Y117475D01*
X155575Y136525D01*
X135763Y123825D02*
X112395Y123825D01*
X112395Y115094D01*
X105226Y107925D01*
X95250Y107925D01*
X28575Y141600D02*
X18575Y151600D01*
X28575Y141600D02*
X28575Y118350D01*
X28575Y107625D02*
X18575Y97625D01*
X28575Y107625D02*
X28575Y118350D01*
X18575Y97625D02*
X28575Y87625D01*
X28575Y64375D01*
X30720Y116205D02*
X63500Y116205D01*
X30720Y116205D02*
X28575Y118350D01*
X63500Y116205D02*
X63500Y85725D01*
X66675Y82550D01*
X78487Y82550D01*
X81662Y85725D01*
X81662Y95156D01*
X84931Y98425D01*
X101600Y98425D01*
X168275Y111125D02*
X188087Y111125D01*
X120650Y117475D02*
X101600Y98425D01*
X120650Y117475D02*
X161925Y117475D01*
X168275Y111125D01*
X200025Y123825D02*
X211455Y123825D01*
X200025Y123825D02*
X188087Y123825D01*
X188087Y136525D02*
X196850Y136525D01*
X200025Y133350D01*
X200025Y123825D01*
X226695Y123825D02*
X226695Y80645D01*
X222250Y76200D01*
X180975Y71438D02*
X180975Y28575D01*
X185738Y76200D02*
X222250Y76200D01*
X185738Y76200D02*
X180975Y71438D01*
X104775Y76200D02*
X101600Y79375D01*
X92075Y79375D01*
X88750Y82700D02*
X88750Y88925D01*
X104775Y76200D02*
X104775Y28575D01*
X92075Y79375D02*
X88750Y82700D01*
X168275Y92875D02*
X168275Y71120D01*
X168275Y92875D02*
X168675Y93275D01*
X142875Y93275D02*
X142875Y71120D01*
X117475Y71120D02*
X117475Y92875D01*
X117875Y93275D01*
D21*
X188087Y149225D02*
X210820Y149225D01*
X212725Y151130D01*
X217805Y146050D02*
X231775Y146050D01*
X217805Y146050D02*
X212725Y151130D01*
X231775Y146050D02*
X234188Y143637D01*
X130175Y100013D02*
X130175Y28575D01*
X234188Y105692D02*
X234188Y143637D01*
D22*
X234188Y105692D03*
X209284Y104506D03*
D21*
X134669Y104506D01*
X130175Y100013D01*
X234188Y105692D02*
X234188Y66238D01*
X225900Y57950D01*
M02*
