G04 EAGLE Gerber RS-274X export*
G75*
%MOMM*%
%FSLAX34Y34*%
%LPD*%
%INSolderpaste Top*%
%IPPOS*%
%AMOC8*
5,1,8,0,0,1.08239X$1,22.5*%
G01*
%ADD10R,1.651000X0.635000*%
%ADD11R,0.700000X0.900000*%
%ADD12R,1.500000X1.600000*%
%ADD13R,1.200000X1.200000*%
%ADD14R,0.900000X0.700000*%
%ADD15R,1.270000X1.270000*%
%ADD16R,1.600200X1.168400*%

G36*
X212769Y162577D02*
X212769Y162577D01*
X212812Y162576D01*
X212823Y162581D01*
X212837Y162582D01*
X216139Y163344D01*
X216187Y163365D01*
X216237Y163377D01*
X216276Y163406D01*
X216320Y163426D01*
X216355Y163464D01*
X216397Y163495D01*
X216422Y163537D01*
X216455Y163572D01*
X216472Y163621D01*
X216499Y163666D01*
X216508Y163723D01*
X216521Y163760D01*
X216520Y163790D01*
X216526Y163830D01*
X216526Y169672D01*
X216525Y169680D01*
X216526Y169689D01*
X216505Y169777D01*
X216487Y169867D01*
X216482Y169874D01*
X216480Y169882D01*
X216426Y169955D01*
X216374Y170031D01*
X216367Y170035D01*
X216362Y170042D01*
X216284Y170089D01*
X216207Y170138D01*
X216198Y170139D01*
X216191Y170144D01*
X216027Y170171D01*
X209423Y170171D01*
X209415Y170170D01*
X209406Y170171D01*
X209318Y170150D01*
X209228Y170132D01*
X209221Y170127D01*
X209213Y170125D01*
X209140Y170071D01*
X209064Y170019D01*
X209060Y170012D01*
X209053Y170007D01*
X209006Y169929D01*
X208957Y169852D01*
X208956Y169843D01*
X208951Y169836D01*
X208924Y169672D01*
X208924Y163830D01*
X208934Y163779D01*
X208934Y163727D01*
X208954Y163683D01*
X208963Y163635D01*
X208993Y163592D01*
X209013Y163545D01*
X209048Y163511D01*
X209076Y163471D01*
X209120Y163443D01*
X209157Y163407D01*
X209210Y163385D01*
X209243Y163364D01*
X209273Y163359D01*
X209311Y163344D01*
X212613Y162582D01*
X212643Y162581D01*
X212671Y162572D01*
X212769Y162577D01*
G37*
G36*
X216035Y147330D02*
X216035Y147330D01*
X216044Y147329D01*
X216132Y147350D01*
X216222Y147368D01*
X216229Y147373D01*
X216237Y147375D01*
X216310Y147429D01*
X216386Y147481D01*
X216390Y147488D01*
X216397Y147493D01*
X216444Y147571D01*
X216493Y147648D01*
X216494Y147657D01*
X216499Y147664D01*
X216526Y147828D01*
X216526Y153670D01*
X216516Y153721D01*
X216516Y153773D01*
X216496Y153817D01*
X216487Y153865D01*
X216457Y153908D01*
X216437Y153955D01*
X216402Y153989D01*
X216374Y154029D01*
X216330Y154057D01*
X216293Y154093D01*
X216240Y154115D01*
X216207Y154136D01*
X216177Y154141D01*
X216139Y154156D01*
X212837Y154918D01*
X212807Y154919D01*
X212779Y154928D01*
X212682Y154923D01*
X212638Y154924D01*
X212627Y154919D01*
X212613Y154918D01*
X209311Y154156D01*
X209263Y154135D01*
X209213Y154123D01*
X209174Y154094D01*
X209130Y154074D01*
X209095Y154036D01*
X209053Y154005D01*
X209028Y153963D01*
X208995Y153928D01*
X208978Y153879D01*
X208951Y153834D01*
X208942Y153777D01*
X208929Y153740D01*
X208931Y153710D01*
X208924Y153670D01*
X208924Y147828D01*
X208925Y147820D01*
X208924Y147811D01*
X208945Y147723D01*
X208963Y147633D01*
X208968Y147626D01*
X208970Y147618D01*
X209024Y147545D01*
X209076Y147469D01*
X209083Y147465D01*
X209088Y147458D01*
X209166Y147411D01*
X209243Y147362D01*
X209252Y147361D01*
X209259Y147356D01*
X209423Y147329D01*
X216027Y147329D01*
X216035Y147330D01*
G37*
G36*
X66810Y112405D02*
X66810Y112405D01*
X66819Y112404D01*
X66907Y112425D01*
X66997Y112443D01*
X67004Y112448D01*
X67012Y112450D01*
X67085Y112504D01*
X67161Y112556D01*
X67165Y112563D01*
X67172Y112568D01*
X67219Y112646D01*
X67268Y112723D01*
X67269Y112732D01*
X67274Y112739D01*
X67301Y112903D01*
X67301Y118745D01*
X67291Y118796D01*
X67291Y118848D01*
X67271Y118892D01*
X67262Y118940D01*
X67232Y118983D01*
X67212Y119030D01*
X67177Y119064D01*
X67149Y119104D01*
X67105Y119132D01*
X67068Y119168D01*
X67015Y119190D01*
X66982Y119211D01*
X66952Y119216D01*
X66914Y119231D01*
X63612Y119993D01*
X63582Y119994D01*
X63554Y120003D01*
X63457Y119998D01*
X63413Y119999D01*
X63402Y119994D01*
X63388Y119993D01*
X60086Y119231D01*
X60038Y119210D01*
X59988Y119198D01*
X59949Y119169D01*
X59905Y119149D01*
X59870Y119111D01*
X59828Y119080D01*
X59803Y119038D01*
X59770Y119003D01*
X59753Y118954D01*
X59726Y118909D01*
X59717Y118852D01*
X59704Y118815D01*
X59706Y118785D01*
X59699Y118745D01*
X59699Y112903D01*
X59700Y112895D01*
X59699Y112886D01*
X59720Y112798D01*
X59738Y112708D01*
X59743Y112701D01*
X59745Y112693D01*
X59799Y112620D01*
X59851Y112544D01*
X59858Y112540D01*
X59863Y112533D01*
X59941Y112486D01*
X60018Y112437D01*
X60027Y112436D01*
X60034Y112431D01*
X60198Y112404D01*
X66802Y112404D01*
X66810Y112405D01*
G37*
G36*
X63544Y127652D02*
X63544Y127652D01*
X63587Y127651D01*
X63598Y127656D01*
X63612Y127657D01*
X66914Y128419D01*
X66962Y128440D01*
X67012Y128452D01*
X67051Y128481D01*
X67095Y128501D01*
X67130Y128539D01*
X67172Y128570D01*
X67197Y128612D01*
X67230Y128647D01*
X67247Y128696D01*
X67274Y128741D01*
X67283Y128798D01*
X67296Y128835D01*
X67295Y128865D01*
X67301Y128905D01*
X67301Y134747D01*
X67300Y134755D01*
X67301Y134764D01*
X67280Y134852D01*
X67262Y134942D01*
X67257Y134949D01*
X67255Y134957D01*
X67201Y135030D01*
X67149Y135106D01*
X67142Y135110D01*
X67137Y135117D01*
X67059Y135164D01*
X66982Y135213D01*
X66973Y135214D01*
X66966Y135219D01*
X66802Y135246D01*
X60198Y135246D01*
X60190Y135245D01*
X60181Y135246D01*
X60093Y135225D01*
X60003Y135207D01*
X59996Y135202D01*
X59988Y135200D01*
X59915Y135146D01*
X59839Y135094D01*
X59835Y135087D01*
X59828Y135082D01*
X59781Y135004D01*
X59732Y134927D01*
X59731Y134918D01*
X59726Y134911D01*
X59699Y134747D01*
X59699Y128905D01*
X59709Y128854D01*
X59709Y128802D01*
X59729Y128758D01*
X59738Y128710D01*
X59768Y128667D01*
X59788Y128620D01*
X59823Y128586D01*
X59851Y128546D01*
X59895Y128518D01*
X59932Y128482D01*
X59985Y128460D01*
X60018Y128439D01*
X60048Y128434D01*
X60086Y128419D01*
X63388Y127657D01*
X63418Y127656D01*
X63446Y127647D01*
X63544Y127652D01*
G37*
G36*
X97167Y145426D02*
X97167Y145426D01*
X97180Y145424D01*
X97264Y145446D01*
X97350Y145463D01*
X97360Y145471D01*
X97372Y145474D01*
X97508Y145570D01*
X100810Y148872D01*
X100815Y148879D01*
X100822Y148884D01*
X100869Y148961D01*
X100920Y149038D01*
X100921Y149046D01*
X100926Y149053D01*
X100939Y149143D01*
X100956Y149233D01*
X100954Y149242D01*
X100956Y149250D01*
X100933Y149338D01*
X100913Y149427D01*
X100909Y149434D01*
X100906Y149442D01*
X100810Y149578D01*
X97508Y152880D01*
X97497Y152887D01*
X97490Y152897D01*
X97415Y152942D01*
X97342Y152990D01*
X97330Y152992D01*
X97319Y152999D01*
X97155Y153026D01*
X93853Y153026D01*
X93845Y153025D01*
X93836Y153026D01*
X93748Y153005D01*
X93658Y152987D01*
X93651Y152982D01*
X93643Y152980D01*
X93570Y152926D01*
X93494Y152874D01*
X93490Y152867D01*
X93483Y152862D01*
X93436Y152784D01*
X93387Y152707D01*
X93386Y152698D01*
X93381Y152691D01*
X93354Y152527D01*
X93354Y145923D01*
X93355Y145915D01*
X93354Y145906D01*
X93375Y145818D01*
X93393Y145728D01*
X93398Y145721D01*
X93400Y145713D01*
X93454Y145640D01*
X93506Y145564D01*
X93513Y145560D01*
X93518Y145553D01*
X93596Y145506D01*
X93673Y145457D01*
X93682Y145456D01*
X93689Y145451D01*
X93853Y145424D01*
X97155Y145424D01*
X97167Y145426D01*
G37*
G36*
X97167Y120026D02*
X97167Y120026D01*
X97180Y120024D01*
X97264Y120046D01*
X97350Y120063D01*
X97360Y120071D01*
X97372Y120074D01*
X97508Y120170D01*
X100810Y123472D01*
X100815Y123479D01*
X100822Y123484D01*
X100869Y123561D01*
X100920Y123638D01*
X100921Y123646D01*
X100926Y123653D01*
X100939Y123743D01*
X100956Y123833D01*
X100954Y123842D01*
X100956Y123850D01*
X100933Y123938D01*
X100913Y124027D01*
X100909Y124034D01*
X100906Y124042D01*
X100810Y124178D01*
X97508Y127480D01*
X97497Y127487D01*
X97490Y127497D01*
X97415Y127542D01*
X97342Y127590D01*
X97330Y127592D01*
X97319Y127599D01*
X97155Y127626D01*
X93853Y127626D01*
X93845Y127625D01*
X93836Y127626D01*
X93748Y127605D01*
X93658Y127587D01*
X93651Y127582D01*
X93643Y127580D01*
X93570Y127526D01*
X93494Y127474D01*
X93490Y127467D01*
X93483Y127462D01*
X93436Y127384D01*
X93387Y127307D01*
X93386Y127298D01*
X93381Y127291D01*
X93354Y127127D01*
X93354Y120523D01*
X93355Y120515D01*
X93354Y120506D01*
X93375Y120418D01*
X93393Y120328D01*
X93398Y120321D01*
X93400Y120313D01*
X93454Y120240D01*
X93506Y120164D01*
X93513Y120160D01*
X93518Y120153D01*
X93596Y120106D01*
X93673Y120057D01*
X93682Y120056D01*
X93689Y120051D01*
X93853Y120024D01*
X97155Y120024D01*
X97167Y120026D01*
G37*
G36*
X211467Y120026D02*
X211467Y120026D01*
X211480Y120024D01*
X211564Y120046D01*
X211650Y120063D01*
X211660Y120071D01*
X211672Y120074D01*
X211808Y120170D01*
X215110Y123472D01*
X215115Y123479D01*
X215122Y123484D01*
X215169Y123561D01*
X215220Y123638D01*
X215221Y123646D01*
X215226Y123653D01*
X215239Y123743D01*
X215256Y123833D01*
X215254Y123842D01*
X215256Y123850D01*
X215233Y123938D01*
X215213Y124027D01*
X215209Y124034D01*
X215206Y124042D01*
X215110Y124178D01*
X211808Y127480D01*
X211797Y127487D01*
X211790Y127497D01*
X211715Y127542D01*
X211642Y127590D01*
X211630Y127592D01*
X211619Y127599D01*
X211455Y127626D01*
X208153Y127626D01*
X208145Y127625D01*
X208136Y127626D01*
X208048Y127605D01*
X207958Y127587D01*
X207951Y127582D01*
X207943Y127580D01*
X207870Y127526D01*
X207794Y127474D01*
X207790Y127467D01*
X207783Y127462D01*
X207736Y127384D01*
X207687Y127307D01*
X207686Y127298D01*
X207681Y127291D01*
X207654Y127127D01*
X207654Y120523D01*
X207655Y120515D01*
X207654Y120506D01*
X207675Y120418D01*
X207693Y120328D01*
X207698Y120321D01*
X207700Y120313D01*
X207754Y120240D01*
X207806Y120164D01*
X207813Y120160D01*
X207818Y120153D01*
X207896Y120106D01*
X207973Y120057D01*
X207982Y120056D01*
X207989Y120051D01*
X208153Y120024D01*
X211455Y120024D01*
X211467Y120026D01*
G37*
G36*
X115705Y145425D02*
X115705Y145425D01*
X115714Y145424D01*
X115802Y145445D01*
X115892Y145463D01*
X115899Y145468D01*
X115907Y145470D01*
X115980Y145524D01*
X116056Y145576D01*
X116060Y145583D01*
X116067Y145588D01*
X116114Y145666D01*
X116163Y145743D01*
X116164Y145752D01*
X116169Y145759D01*
X116196Y145923D01*
X116196Y152527D01*
X116195Y152535D01*
X116196Y152544D01*
X116175Y152632D01*
X116157Y152722D01*
X116152Y152729D01*
X116150Y152737D01*
X116096Y152810D01*
X116044Y152886D01*
X116037Y152890D01*
X116032Y152897D01*
X115954Y152944D01*
X115877Y152993D01*
X115868Y152994D01*
X115861Y152999D01*
X115697Y153026D01*
X112395Y153026D01*
X112383Y153024D01*
X112370Y153026D01*
X112286Y153004D01*
X112200Y152987D01*
X112190Y152980D01*
X112178Y152976D01*
X112042Y152880D01*
X108740Y149578D01*
X108735Y149571D01*
X108729Y149566D01*
X108681Y149489D01*
X108630Y149412D01*
X108629Y149404D01*
X108624Y149397D01*
X108611Y149307D01*
X108594Y149217D01*
X108596Y149209D01*
X108594Y149200D01*
X108617Y149112D01*
X108637Y149023D01*
X108642Y149016D01*
X108644Y149008D01*
X108740Y148872D01*
X112042Y145570D01*
X112053Y145563D01*
X112060Y145553D01*
X112135Y145509D01*
X112208Y145460D01*
X112220Y145458D01*
X112231Y145451D01*
X112395Y145424D01*
X115697Y145424D01*
X115705Y145425D01*
G37*
G36*
X230005Y120025D02*
X230005Y120025D01*
X230014Y120024D01*
X230102Y120045D01*
X230192Y120063D01*
X230199Y120068D01*
X230207Y120070D01*
X230280Y120124D01*
X230356Y120176D01*
X230360Y120183D01*
X230367Y120188D01*
X230414Y120266D01*
X230463Y120343D01*
X230464Y120352D01*
X230469Y120359D01*
X230496Y120523D01*
X230496Y127127D01*
X230495Y127135D01*
X230496Y127144D01*
X230475Y127232D01*
X230457Y127322D01*
X230452Y127329D01*
X230450Y127337D01*
X230396Y127410D01*
X230344Y127486D01*
X230337Y127490D01*
X230332Y127497D01*
X230254Y127544D01*
X230177Y127593D01*
X230168Y127594D01*
X230161Y127599D01*
X229997Y127626D01*
X226695Y127626D01*
X226683Y127624D01*
X226670Y127626D01*
X226586Y127604D01*
X226500Y127587D01*
X226490Y127580D01*
X226478Y127576D01*
X226342Y127480D01*
X223040Y124178D01*
X223035Y124171D01*
X223029Y124166D01*
X222981Y124089D01*
X222930Y124012D01*
X222929Y124004D01*
X222924Y123997D01*
X222911Y123907D01*
X222894Y123817D01*
X222896Y123809D01*
X222894Y123800D01*
X222917Y123712D01*
X222937Y123623D01*
X222942Y123616D01*
X222944Y123608D01*
X223040Y123472D01*
X226342Y120170D01*
X226353Y120163D01*
X226360Y120153D01*
X226435Y120109D01*
X226508Y120060D01*
X226520Y120058D01*
X226531Y120051D01*
X226695Y120024D01*
X229997Y120024D01*
X230005Y120025D01*
G37*
G36*
X115705Y120025D02*
X115705Y120025D01*
X115714Y120024D01*
X115802Y120045D01*
X115892Y120063D01*
X115899Y120068D01*
X115907Y120070D01*
X115980Y120124D01*
X116056Y120176D01*
X116060Y120183D01*
X116067Y120188D01*
X116114Y120266D01*
X116163Y120343D01*
X116164Y120352D01*
X116169Y120359D01*
X116196Y120523D01*
X116196Y127127D01*
X116195Y127135D01*
X116196Y127144D01*
X116175Y127232D01*
X116157Y127322D01*
X116152Y127329D01*
X116150Y127337D01*
X116096Y127410D01*
X116044Y127486D01*
X116037Y127490D01*
X116032Y127497D01*
X115954Y127544D01*
X115877Y127593D01*
X115868Y127594D01*
X115861Y127599D01*
X115697Y127626D01*
X112395Y127626D01*
X112383Y127624D01*
X112370Y127626D01*
X112286Y127604D01*
X112200Y127587D01*
X112190Y127580D01*
X112178Y127576D01*
X112042Y127480D01*
X108740Y124178D01*
X108735Y124171D01*
X108729Y124166D01*
X108681Y124089D01*
X108630Y124012D01*
X108629Y124004D01*
X108624Y123997D01*
X108611Y123907D01*
X108594Y123817D01*
X108596Y123809D01*
X108594Y123800D01*
X108617Y123712D01*
X108637Y123623D01*
X108642Y123616D01*
X108644Y123608D01*
X108740Y123472D01*
X112042Y120170D01*
X112053Y120163D01*
X112060Y120153D01*
X112135Y120109D01*
X112208Y120060D01*
X112220Y120058D01*
X112231Y120051D01*
X112395Y120024D01*
X115697Y120024D01*
X115705Y120025D01*
G37*
D10*
X135763Y149225D03*
X135763Y136525D03*
X135763Y123825D03*
X135763Y111125D03*
X188087Y111125D03*
X188087Y123825D03*
X188087Y136525D03*
X188087Y149225D03*
D11*
X88750Y88925D03*
X95250Y107925D03*
X101750Y88925D03*
D12*
X215900Y91200D03*
D13*
X205900Y57950D03*
X225900Y57950D03*
D14*
X73000Y149075D03*
X54000Y155575D03*
X73000Y162075D03*
D12*
X28575Y118350D03*
D13*
X38575Y151600D03*
X18575Y151600D03*
D14*
X54000Y98575D03*
X73000Y92075D03*
X54000Y85575D03*
D12*
X28575Y64375D03*
D13*
X38575Y97625D03*
X18575Y97625D03*
D15*
X231775Y146050D03*
X231775Y171450D03*
D16*
X168275Y55880D03*
X168275Y71120D03*
X142875Y55880D03*
X142875Y71120D03*
X117475Y55880D03*
X117475Y71120D03*
M02*
